<?xml version="1.0" encoding="utf-8"?>
<!-- Generator: Adobe Illustrator 19.2.1, SVG Export Plug-In . SVG Version: 6.00 Build 0)  -->
<svg version="1.1" id="Layer_1" xmlns="http://www.w3.org/2000/svg" xmlns:xlink="http://www.w3.org/1999/xlink" x="0px" y="0px"
	 viewBox="0 0 841.9 595.3" style="enable-background:new 0 0 841.9 595.3;" xml:space="preserve">
<style type="text/css">
	.st0{fill:none;stroke:#006838;stroke-width:2;stroke-miterlimit:10;}
	.st1{fill:#006838;}
	.st2{fill:#FFFFFF;}
	.st3{clip-path:url(#SVGID_2_);}
</style>
<g>
	<rect x="0" y="0" class="st2" width="841.9" height="595.3"/>
	<g>
		<defs>
			<rect id="SVGID_1_" x="0" y="0" width="841.9" height="595.3"/>
		</defs>
		<clipPath id="SVGID_2_">
			<use xlink:href="#SVGID_1_"  style="overflow:visible;"/>
		</clipPath>
		<g class="st3">
			<path class="st1" d="M10.3,24.3c-2.8,0.8-6.2,2.2-9.9,4.9C6,17.9,10.8,4.9,13.7-9.7c1.7-2.1,3.2-3.9,4.4-5.5
				c1.2-0.3,2.7-0.6,4.2-0.9c17.7,21.5,40.4-0.6,40.4-0.6c-24.1-11.3-36-4.6-39.8-1.5c-0.9,0.1-1.9,0.3-2.9,0.5
				c1.2-1.5,2-2.7,2.7-3.6c23.7-3.2,18-29.9,18-29.9C21.2-38.6,20.8-26.6,21.3-22.6c-1.3,1.7-3.4,4.5-6.8,8.8
				c2.4-13.9,3.1-29.3,1.2-45.9c1.8-2.9,8.2-16.5-9.9-39.4c0,0-16.1,26.6,7.9,39.2c1.3,10.8,1.4,21,0.7,30.7
				c-1.8-2.5-3.6-4.5-5.3-5.9c-1.2-4.4-7.1-17.1-34.1-21c0,0,6.7,30.9,33.2,22.9c2,1.7,4.1,4.1,6,7.3c-1.4,15.2-5,29-9.8,41.2
				C1.4,7.5-1.4,2.1-3.6-1.4c5.1-21.2-19.7-26.4-19.7-26.4C-19.5-2.6-6.6,0.5-4.6,0.9c2.2,3.8,5,9.3,7.8,17.2
				C-2,30.7-8.4,41.7-14.9,50.8c1.6-4.8,2.3-13.7-4.7-27.1c0,0-14.5,19.2,1.7,31.2c-0.5,0.7-1.1,1.4-1.6,2.1
				c-9.2,11.9-18.8,21.2-26.6,27.8c-1.2-6.8-2-14.1-2.6-19.9c3.1-3.1,11.5-14.4,1.3-40.2c0,0-23.3,21.2-3.3,40.1
				c0.6,6.3,1.5,14.2,2.8,21.5c-8.7,7.3-14.8,11-15,11.1l1,1.7c0.2-0.1,12.9-7.9,28-22.9c11.4-1.9,19.9-4.1,25.6-6
				c24.6,12.2,36.5-16.8,36.5-16.8C0.3,52.5-7.4,64.6-9.1,68.4c-5.2,1.7-12.6,3.7-22.3,5.4c4.4-4.6,9-9.7,13.5-15.5
				c5.4-7,11-15.2,16.1-24.7c4.9-4.3,9.2-6.3,12.6-7.2c23.4,14.8,38.1-13.2,38.1-13.2C21.6,9.7,12.6,20.5,10.3,24.3z"/>
			<path class="st1" d="M122,84.1c2.1,2,5.1,4.1,9.3,6c-12.6,1-26.2,3.6-40.2,8.7c-2.7-0.4-5-0.7-7-1c-0.9-0.8-2-2-2.9-3.2
				c9.3-26.3-21.5-34.3-21.5-34.3c2.8,26.5,14.7,33.2,19.3,34.8c0.6,0.7,1.2,1.5,1.9,2.3c-1.9-0.2-3.3-0.4-4.5-0.5
				c-15-18.6-34.9,0-34.9,0c20.9,10.4,31.4,4.5,34.6,2c2.1,0.2,5.6,0.6,11.1,1.3c-13.2,5.1-26.7,12.5-39.9,22.7
				c-3.4,0-18.3,1.5-28.6,28.8c0,0,31.1,0.1,29.5-27c8.6-6.7,17.2-12.1,25.9-16.5c-1.3,2.8-2,5.4-2.3,7.6c-3.1,3.3-11,14.9-0.4,40
				c0,0,23-21.7,2.5-40.2c0.4-2.6,1.4-5.6,3.2-8.9c13.8-6.6,27.4-10.7,40.4-12.9c-5.2,6.5-8.3,11.7-10.2,15.4
				c-20.8,6.5-12.4,30.5-12.4,30.5c19.7-16.4,15.6-29,14.9-30.9c2.1-3.9,5.4-9.1,10.7-15.5c13.5-2.1,26.2-2.3,37.3-1.4
				c-5,1.1-12.9,5.1-20.7,18c0,0,23.9,2.5,25.8-17.6c0.9,0.1,1.7,0.2,2.6,0.3c14.9,1.8,27.8,5.2,37.6,8.4c-5.2,4.5-11,9-15.7,12.5
				c-4.2-1-18.3-2.4-35.1,19.6c0,0,30.2,9.1,36.1-17.9c5.1-3.8,11.4-8.6,16.9-13.5c10.7,3.7,17.1,7,17.2,7.1l0.9-1.8
				c-0.2-0.1-13.4-7-34.1-12.1c-7.5-8.8-13.8-14.9-18.4-18.8c-2.2-27.3-33.3-22.5-33.3-22.5c13.7,24.3,28,24.7,32.2,24.2
				c4.1,3.6,9.6,8.9,16.1,16.3c-6.2-1.4-13-2.7-20.2-3.5c-8.8-1-18.7-1.5-29.5-1c-6.2-1.9-10.2-4.6-12.7-7c0.5-27.7-31-25.8-31-25.8
				C103.7,82,117.6,84.1,122,84.1z"/>
			<path class="st1" d="M789.2,267.8c2.8,0.7,6.2,2.1,10,4.8c-5.8-11.3-10.8-24.2-14-38.7c-1.8-2.1-3.3-3.9-4.5-5.4
				c-1.2-0.3-2.8-0.6-4.2-0.8c-17.4,21.8-40.4,0-40.4,0c23.9-11.7,35.9-5.1,39.7-2.1c0.9,0.1,2,0.3,2.9,0.4
				c-1.2-1.5-2.1-2.6-2.8-3.5c-23.7-2.8-18.5-29.6-18.5-29.6c19.9,12.2,20.5,24.2,20,28.3c1.3,1.7,3.4,4.4,7,8.7
				c-2.7-13.9-3.6-29.2-2-45.9c-1.8-2.9-8.4-16.3,9.2-39.6c0,0,16.6,26.4-7.2,39.3c-1.1,10.8-1.1,21-0.2,30.7c1.7-2.6,3.5-4.5,5.2-6
				c1.2-4.4,6.8-17.2,33.7-21.6c0,0-6.2,31-32.8,23.4c-1.9,1.7-4,4.2-5.8,7.4c1.7,15.2,5.5,28.9,10.5,41.1
				c2.8-7.8,5.5-13.3,7.6-16.9c-5.5-21.1,19.3-26.7,19.3-26.7c-3.4,25.3-16.3,28.7-18.3,29c-2.2,3.8-4.8,9.4-7.5,17.3
				c5.4,12.6,12,23.4,18.6,32.4c-1.7-4.8-2.5-13.6,4.3-27.1c0,0,14.8,18.9-1.2,31.2c0.5,0.7,1.1,1.4,1.6,2
				c9.4,11.7,19.1,20.8,27.1,27.4c1.1-6.8,1.8-14.1,2.2-20c-3.1-3-11.8-14.3-2-40.1c0,0,23.7,20.8,4,40.1
				c-0.5,6.3-1.3,14.2-2.5,21.5c8.8,7.1,15,10.8,15.1,10.8l-1,1.7c-0.2-0.1-13-7.7-28.3-22.4c-11.5-1.7-20-3.8-25.7-5.6
				c-24.4,12.6-36.7-16.2-36.7-16.2c27.9-1.3,35.8,10.6,37.6,14.4c5.2,1.6,12.6,3.5,22.4,5c-4.5-4.5-9.2-9.6-13.7-15.3
				c-5.5-6.9-11.2-15-16.5-24.4c-4.9-4.2-9.3-6.2-12.7-7c-23.2,15.1-38.3-12.6-38.3-12.6C777.7,253.4,786.8,264,789.2,267.8z"/>
			<path class="st1" d="M-50.5,267.8c2.8,0.7,6.2,2.1,10,4.8c-5.8-11.3-10.8-24.2-14-38.7c-1.8-2.1-3.3-3.9-4.5-5.4
				c-1.2-0.3-2.8-0.6-4.2-0.8c-17.4,21.8-40.4,0-40.4,0c23.9-11.7,35.9-5.1,39.7-2.1c0.9,0.1,2,0.3,2.9,0.4
				c-1.2-1.5-2.1-2.6-2.8-3.5c-23.7-2.8-18.5-29.6-18.5-29.6c19.9,12.2,20.5,24.2,20,28.3c1.3,1.7,3.4,4.4,7,8.7
				c-2.7-13.9-3.6-29.2-2-45.9c-1.8-2.9-8.4-16.3,9.2-39.6c0,0,16.6,26.4-7.2,39.3c-1.1,10.8-1.1,21-0.2,30.7c1.7-2.6,3.5-4.5,5.2-6
				c1.2-4.4,6.8-17.2,33.7-21.6c0,0-6.2,31-32.8,23.4c-1.9,1.7-4,4.2-5.8,7.4c1.7,15.2,5.5,28.9,10.5,41.1
				c2.8-7.8,5.5-13.3,7.6-16.9c-5.5-21.1,19.3-26.7,19.3-26.7c-3.4,25.3-16.3,28.7-18.3,29c-2.2,3.8-4.8,9.4-7.5,17.3
				c5.4,12.6,12,23.4,18.6,32.4c-1.7-4.8-2.5-13.6,4.3-27.1c0,0,14.8,18.9-1.2,31.2c0.5,0.7,1.1,1.4,1.6,2
				c9.4,11.7,19.1,20.8,27.1,27.4c1.1-6.8,1.8-14.1,2.2-20c-3.1-3-11.8-14.3-2-40.1c0,0,23.7,20.8,4,40.1
				c-0.5,6.3-1.3,14.2-2.5,21.5c8.8,7.1,15,10.8,15.1,10.8l-1,1.7c-0.2-0.1-13-7.7-28.3-22.4c-11.5-1.7-20-3.8-25.7-5.6
				C-55.6,326-68,297.2-68,297.2c27.9-1.3,35.8,10.6,37.6,14.4c5.2,1.6,12.6,3.5,22.4,5c-4.5-4.5-9.2-9.6-13.7-15.3
				c-5.5-6.9-11.2-15-16.5-24.4c-4.9-4.2-9.3-6.2-12.7-7C-74,285-89.2,257.3-89.2,257.3C-62,253.4-52.8,264-50.5,267.8z"/>
			<path class="st1" d="M159.1,365c1.7-2.3,4.3-4.9,8.2-7.4c-12.6,1.1-26.5,0.7-41.1-1.9c-2.6,0.8-4.8,1.5-6.7,2.1
				c-0.7,1-1.6,2.3-2.4,3.6c13.5,24.4-15.5,37.4-15.5,37.4c-1.6-26.6,9-35.2,13.3-37.5c0.5-0.8,1-1.7,1.5-2.6
				c-1.8,0.5-3.2,0.9-4.3,1.2c-11.7,20.8-34.5,5.8-34.5,5.8c18.9-13.7,30.2-9.7,33.8-7.6c2.1-0.5,5.4-1.5,10.7-3.1
				C108.3,352,93.8,346.9,79,339c-3.3,0.6-18.3,1.5-33-23.7c0,0,30.7-5.2,33.5,21.7c9.6,5.2,19,9.1,28.2,12c-1.7-2.6-2.8-5-3.5-7.1
				c-3.6-2.8-13.3-12.9-7-39.4c0,0,26.2,17.6,9.1,39.3c0.9,2.5,2.3,5.3,4.6,8.2c14.7,4.3,28.8,6,42,6.1
				c-6.2-5.6-10.1-10.2-12.6-13.5c-21.6-3-17.3-28.1-17.3-28.1c22.1,12.9,20.2,26,19.8,28c2.7,3.5,6.8,8,13.1,13.5
				c13.7-0.2,26.2-2.1,37.1-4.7c-5.1-0.3-13.5-2.9-23.4-14.4c0,0,23.2-6.4,28.4,13.1c0.8-0.2,1.7-0.5,2.5-0.7
				c14.4-4.2,26.6-9.7,35.7-14.5c-5.9-3.6-12.3-7.1-17.6-9.7c-4,1.7-17.7,5.4-37.8-13.6c0,0,28.3-13.9,38.5,11.7
				c5.6,2.9,12.6,6.6,18.9,10.5c10-5.4,15.7-9.7,15.8-9.8l1.2,1.6c-0.2,0.1-12.1,9.1-31.6,17.6c-5.9,9.9-11.2,17-15,21.6
				c2.3,27.3-29.1,27.7-29.1,27.7c9.5-26.3,23.6-29,27.7-29.2c3.5-4.2,8-10.3,13.2-18.7c-5.9,2.4-12.4,4.8-19.4,6.8
				c-8.5,2.5-18.2,4.6-28.9,5.8c-5.8,2.9-9.3,6.2-11.4,9c5.1,27.2-26.3,30.5-26.3,30.5C141.3,370.1,154.7,365.7,159.1,365z"/>
			<path class="st1" d="M201.2,464.8c-2,2-4.9,4.3-9.2,6.3c12.7,0.6,26.3,2.8,40.5,7.4c2.7-0.5,5-0.9,6.9-1.2
				c0.9-0.8,1.9-2.1,2.8-3.3c-10.1-26,20.4-34.9,20.4-34.9c-1.9,26.6-13.7,33.6-18.2,35.4c-0.6,0.7-1.2,1.6-1.8,2.3
				c1.9-0.3,3.3-0.5,4.5-0.6C261.4,457,282,475,282,475c-20.6,11-31.2,5.5-34.5,3.1c-2.1,0.3-5.6,0.7-11,1.7
				c13.4,4.7,27,11.6,40.6,21.4c3.4-0.1,18.4,0.9,29.5,27.9c0,0-31.1,1-30.3-26c-8.8-6.4-17.6-11.5-26.4-15.7
				c1.4,2.8,2.1,5.3,2.5,7.6c3.2,3.2,11.4,14.5,1.6,40c0,0-23.6-20.9-3.7-40.1c-0.5-2.5-1.6-5.6-3.5-8.8c-14-6.2-27.8-9.8-40.8-11.7
				c5.4,6.4,8.7,11.4,10.7,15.1c21,5.9,13.3,30.1,13.3,30.1c-20.2-15.7-16.5-28.5-15.8-30.4c-2.2-3.8-5.7-8.9-11.2-15.2
				c-13.6-1.7-26.3-1.4-37.4-0.3c5,1,13,4.7,21.3,17.4c0,0-23.8,3.3-26.4-16.8c-0.9,0.1-1.7,0.2-2.6,0.4c-14.8,2.2-27.6,6-37.3,9.6
				c5.4,4.3,11.3,8.6,16.1,12c4.2-1.2,18.2-3,35.7,18.5c0,0-29.9,10-36.6-16.7c-5.2-3.6-11.6-8.3-17.3-13c-10.6,4.1-16.9,7.6-17,7.6
				l-1-1.7c0.2-0.1,13.2-7.4,33.7-13.2c7.2-9.1,13.3-15.3,17.7-19.4c1.4-27.4,32.5-23.6,32.5-23.6c-12.9,24.8-27.2,25.6-31.4,25.2
				c-4,3.7-9.4,9.2-15.6,16.8c6.1-1.6,12.9-3.1,20.1-4.2c8.7-1.3,18.6-2.1,29.4-1.9c6.1-2.1,10-5,12.5-7.4
				c-1.4-27.6,30.2-26.8,30.2-26.8C219.5,462.1,205.6,464.6,201.2,464.8z"/>
			<path class="st1" d="M126.4,201.5c-2.7,1.1-6.2,2-10.9,2.1c11.4,5.6,23,13.1,34.2,22.9c2.7,0.6,4.9,1.2,6.8,1.7
				c1.1-0.4,2.6-1.2,3.9-1.9c1.1-27.9,32.6-23.9,32.6-23.9c-12.4,23.6-25.9,25.4-30.8,25.2c-0.8,0.5-1.7,1-2.6,1.4
				c1.8,0.5,3.2,0.9,4.3,1.2c20.8-11.8,32.5,12.9,32.5,12.9c-23.3,1.9-30.8-7.4-32.9-10.9c-2-0.6-5.4-1.5-10.8-2.9
				c10.4,9.6,20.2,21.4,28.7,35.8c3.2,1.2,16.5,8.2,15.9,37.4c0,0-29-11.4-17.4-36c-5.5-9.4-11.6-17.6-18-24.9
				c0.1,3.1-0.2,5.7-0.7,7.9c1.7,4.2,4.7,17.9-14.4,37.4c0,0-13.4-28.6,12.6-38.3c0.5-2.5,0.8-5.7,0.3-9.4
				c-10.4-11.3-21.6-20.1-32.7-26.9c2.4,8,3.4,13.9,3.8,18.1c16.9,13.7,0.2,33,0.2,33c-12.2-22.5-3.8-32.7-2.4-34.2
				c-0.5-4.3-1.7-10.4-4.2-18.4c-11.8-6.9-23.5-11.8-34.2-15.1c4.2,2.9,10.1,9.5,12.6,24.4c0,0-23.2-6.5-17.5-25.9
				c-0.8-0.2-1.7-0.5-2.5-0.7c-14.5-3.9-27.8-5.5-38-6.1c3.2,6.1,6.9,12.4,10,17.4c4.3,0.6,17.9,4.5,25.3,31.2
				c0,0-31.4-2.7-26.9-29.9c-3.3-5.4-7.4-12.2-10.7-18.8c-11.3-0.5-18.5,0.2-18.6,0.2l-0.2-2c0.2,0,15-1.5,36.1,1.3
				c10.2-5.4,18.3-8.7,24-10.7c12.2-24.6,39.2-8.6,39.2-8.6C101.4,185,88,180.1,84.3,178.1c-5.1,1.8-12.2,4.7-21,9.2
				c6.3,1,13.1,2.3,20.1,4.2c8.5,2.3,18,5.5,27.7,10c6.5,0.5,11.2-0.6,14.4-1.8c9.7-25.9,38.3-12.5,38.3-12.5
				C144.3,206.3,130.5,203.1,126.4,201.5z"/>
			<path class="st1" d="M248.7,125.2c2.6-1.1,5.8-3,9.2-6.2c-4.1,12-7.2,25.5-8.2,40.3c-1.4,2.3-2.7,4.3-3.7,6
				c-1.1,0.5-2.6,1-4.1,1.4c-20.4-19-40,5.9-40,5.9c25.4,8.1,36.3-0.2,39.6-3.7c0.9-0.2,1.9-0.5,2.8-0.8c-1,1.6-1.7,2.9-2.2,3.9
				c-23.1,6.3-14,32-14,32c17.9-15,16.7-26.9,15.7-30.9c1-1.9,2.8-4.9,5.6-9.6c-0.6,14.1,0.7,29.4,4.8,45.7c-1.4,3.1-6,17.4,15,37.8
				c0,0,12.5-28.5-12.9-37.8c-2.7-10.5-4.2-20.6-4.7-30.3c2.1,2.3,4.2,4,6.1,5.2c1.8,4.2,9.3,16,36.5,16.4c0,0-10.7-29.7-35.9-18.4
				c-2.2-1.4-4.6-3.5-6.9-6.5c-0.6-15.3,1.2-29.4,4.3-42.2c3.9,7.3,7.4,12.3,10,15.5c-2.3,21.7,23,23.6,23,23.6
				c-7.1-24.6-20.3-25.9-22.4-26c-2.7-3.5-6.1-8.6-9.9-16c3.5-13.2,8.4-24.9,13.6-34.8c-1,5-0.5,13.8,8.2,26.2
				c0,0,11.9-20.9-5.8-30.7c0.4-0.8,0.9-1.5,1.3-2.3c7.6-13,15.9-23.4,22.8-31.1c2,6.6,3.8,13.7,5.2,19.4c-2.6,3.4-9.5,15.8,4,40
				c0,0,20.4-24-2-40.2c-1.4-6.1-3.4-13.9-5.6-20.9c7.7-8.3,13.3-12.9,13.4-12.9l-1.2-1.6c-0.2,0.1-11.8,9.5-24.7,26.4
				c-11.1,3.3-19.2,6.7-24.6,9.3c-25.9-8.9-33.9,21.5-33.9,21.5C254.8,96,260.9,83,262.1,79c4.9-2.3,12-5.3,21.4-8.2
				c-3.8,5.1-7.6,10.8-11.3,17.1c-4.5,7.6-8.9,16.5-12.7,26.6c-4.3,4.9-8.3,7.5-11.5,8.8c-25.1-11.6-36,18.1-36,18.1
				C239.4,141.2,246.9,129.3,248.7,125.2z"/>
			<path class="st1" d="M386.1,553.2c-2.6-1.1-6.2-2.1-10.9-2.3c11.5-5.4,23.3-12.7,34.6-22.3c2.7-0.6,4.9-1.1,6.9-1.6
				c1.1,0.4,2.6,1.2,3.9,1.9c0.6,27.9,32.2,24.5,32.2,24.5c-11.9-23.8-25.5-25.8-30.3-25.7c-0.8-0.5-1.7-1-2.6-1.4
				c1.8-0.5,3.3-0.8,4.4-1.1c20.6,12.1,32.7-12.4,32.7-12.4c-23.2-2.3-31,6.8-33.1,10.4c-2.1,0.6-5.4,1.4-10.8,2.7
				c10.5-9.5,20.5-21.1,29.3-35.3c3.2-1.2,16.6-7.9,16.6-37.1c0,0-29.2,10.9-18.1,35.7c-5.7,9.3-11.9,17.4-18.4,24.5
				c0.2-3.1-0.1-5.7-0.5-7.9c1.7-4.2,5-17.8-13.8-37.6c0,0-13.8,28.4,11.9,38.5c0.5,2.6,0.7,5.7,0.2,9.4
				c-10.6,11.1-21.9,19.7-33.2,26.4c2.5-7.9,3.6-13.9,4.1-18c17.1-13.5,0.8-32.9,0.8-32.9c-12.6,22.2-4.4,32.7-3,34.2
				c-0.6,4.3-1.9,10.4-4.5,18.3c-11.9,6.7-23.7,11.4-34.4,14.5c4.3-2.8,10.3-9.3,13-24.2c0,0-23.3,6.1-17.9,25.6
				c-0.8,0.2-1.7,0.4-2.5,0.7c-14.6,3.6-27.9,5-38.1,5.4c3.3-6.1,7.1-12.3,10.3-17.3c4.3-0.5,18-4.2,25.9-30.8
				c0,0-31.4,2.2-27.4,29.5c-3.4,5.3-7.6,12.1-11.1,18.6c-11.3,0.3-18.5-0.5-18.6-0.5l-0.2,2c0.2,0,15,1.8,36.1-0.7
				c10.1,5.6,18.2,9.1,23.8,11.1c11.8,24.8,39.1,9.3,39.1,9.3c-21.4-17.9-34.9-13.2-38.7-11.3c-5.1-1.9-12.1-4.9-20.8-9.6
				c6.3-0.9,13.1-2.1,20.2-3.8c8.6-2.1,18-5.2,27.9-9.5c6.5-0.4,11.2,0.7,14.3,2.1c9.3,26.1,38.1,13.2,38.1,13.2
				C404,548.6,390.2,551.6,386.1,553.2z"/>
			<path class="st1" d="M695.2,365.3c0.6,2.8,1.9,6.3,4.3,10.2c-11-6.3-23.7-11.8-38.1-15.6c-2-1.8-3.7-3.4-5.2-4.7
				c-0.3-1.2-0.5-2.8-0.6-4.3c22.5-16.5,1.6-40.4,1.6-40.4c-12.7,23.4-6.6,35.7-3.7,39.6c0.1,0.9,0.2,2,0.3,3
				c-1.4-1.2-2.6-2.2-3.4-2.9c-1.9-23.8-28.8-19.7-28.8-19.7c11.4,20.4,23.4,21.5,27.5,21.1c1.7,1.4,4.3,3.6,8.4,7.3
				c-13.8-3.2-29.1-4.8-45.8-3.8c-2.8-1.9-16-9.1-39.9,7.7c0,0,25.7,17.6,39.6-5.6c10.8-0.7,21.1-0.3,30.6,1c-2.6,1.6-4.7,3.4-6.2,5
				c-4.4,1-17.5,6.1-22.9,32.8c0,0,31.2-4.9,24.7-31.8c1.8-1.9,4.3-3.9,7.6-5.5c15.1,2.3,28.7,6.7,40.6,12.1c-7.9,2.5-13.5,5-17.1,7
				c-20.8-6.3-27.5,18.2-27.5,18.2c25.5-2.4,29.3-15.1,29.7-17.1c3.9-2,9.6-4.4,17.6-6.8c12.4,5.9,22.9,12.9,31.6,19.9
				c-4.7-1.9-13.5-3.1-27.3,3.2c0,0,18.3,15.6,31.2,0c0.7,0.6,1.3,1.1,2,1.7c11.3,9.9,20.1,20,26.3,28.1c-6.9,0.8-14.2,1.2-20,1.5
				c-2.9-3.2-13.8-12.3-40-3.6c0,0,19.8,24.5,39.9,5.6c6.3-0.3,14.3-0.7,21.6-1.6c6.8,9.1,10.2,15.4,10.2,15.6l1.8-0.9
				c-0.1-0.2-7.1-13.3-21.3-29.2c-1.2-11.5-3-20.1-4.5-25.9c13.6-23.8-14.8-37.4-14.8-37.4c-2.4,27.8,9.2,36.2,12.9,38.2
				c1.4,5.3,3,12.8,4.1,22.6c-4.3-4.7-9.2-9.5-14.7-14.3c-6.6-5.8-14.6-11.8-23.8-17.4c-4-5.1-5.8-9.6-6.5-12.9
				c16.1-22.5-11-38.8-11-38.8C681.2,353.2,691.5,362.8,695.2,365.3z"/>
			<path class="st1" d="M676.7,116.8c-0.4-2.8-1.4-6.4-3.6-10.5c10.6,7,22.9,13.4,36.9,18.2c1.9,2,3.5,3.7,4.9,5.1
				c0.2,1.2,0.3,2.8,0.3,4.3c-23.6,14.9-4.4,40.2-4.4,40.2c14.2-22.5,9-35.2,6.4-39.3c0-0.9,0-2-0.1-3c1.3,1.3,2.4,2.4,3.2,3.1
				c0.2,23.9,27.4,21.7,27.4,21.7c-10-21.1-21.8-23-25.9-23c-1.6-1.5-4-3.9-7.9-7.9c13.5,4.2,28.7,6.8,45.4,6.9
				c2.7,2.1,15.3,10.2,40.3-4.9c0,0-24.4-19.4-39.9,2.9c-10.9-0.1-21-1.2-30.5-3.1c2.7-1.4,4.9-3,6.5-4.6
				c4.5-0.7,17.8-4.9,25.1-31.2c0,0-31.5,2.8-26.9,30.1c-1.9,1.7-4.6,3.6-8,5c-14.9-3.3-28.2-8.6-39.7-14.9c8.1-1.9,13.8-4,17.6-5.8
				C724.4,114,732.7,90,732.7,90c-25.6,0.6-30.3,13.1-30.8,15c-4,1.7-9.9,3.8-18,5.6c-11.9-6.8-22-14.5-30.2-22
				c4.6,2.2,13.3,4,27.4-1.3c0,0-17.2-16.8-31.2-2.2c-0.6-0.6-1.3-1.2-1.9-1.8c-10.6-10.6-18.6-21.3-24.3-29.9
				c6.9-0.3,14.2-0.2,20.1-0.1c2.6,3.4,12.9,13.3,39.7,6.3c0,0-18.1-25.8-39.4-8.3c-6.3-0.2-14.3-0.3-21.6,0.1
				c-6.1-9.6-9.1-16.1-9.1-16.2l-1.8,0.8c0.1,0.2,6.2,13.8,19.2,30.6c0.4,11.6,1.6,20.2,2.7,26.1c-15.2,22.8,12.1,38.3,12.1,38.3
				c4.4-27.6-6.7-36.8-10.2-39c-1-5.3-2.1-12.9-2.5-22.8c4,5,8.5,10.1,13.7,15.3c6.2,6.2,13.7,12.8,22.5,19
				c3.6,5.4,5.1,9.9,5.6,13.4c-17.6,21.4,8.3,39.4,8.3,39.4C689.8,129.9,680.2,119.6,676.7,116.8z"/>
			<path class="st1" d="M666.3-19.6c1.2,2.6,3.2,5.7,6.5,9c-12.1-3.7-25.7-6.3-40.6-6.8c-2.4-1.4-4.4-2.5-6.1-3.5
				c-0.5-1.1-1.1-2.6-1.5-4c18.3-21.1-7.3-39.8-7.3-39.8c-7.2,25.6,1.4,36.3,5.1,39.5c0.3,0.9,0.6,1.9,0.9,2.8c-1.7-0.9-3-1.6-4-2.1
				c-7.1-22.8-32.5-12.9-32.5-12.9c15.6,17.4,27.5,15.8,31.4,14.6c1.9,1,5,2.6,9.8,5.3c-14.2-0.1-29.4,1.8-45.5,6.4
				c-3.1-1.3-17.6-5.4-37.2,16.3c0,0,28.9,11.5,37.4-14.2c10.4-3,20.5-4.9,30.1-5.8c-2.2,2.1-3.8,4.3-4.9,6.2
				c-4.1,1.9-15.7,9.8-15.1,37.1c0,0,29.3-11.7,17.1-36.5c1.4-2.2,3.4-4.7,6.2-7.1c15.3-1.1,29.5,0.2,42.3,2.9
				c-7.2,4.2-12,7.8-15.2,10.6c-21.7-1.6-22.8,23.8-22.8,23.8c24.3-8,25.2-21.2,25.2-23.3c3.4-2.8,8.4-6.4,15.7-10.5
				c13.4,3,25.2,7.6,35.2,12.4c-5-0.8-13.8,0-25.9,9.1c0,0,21.3,11.2,30.5-6.8c0.8,0.4,1.6,0.8,2.3,1.2c13.2,7.1,24,15.1,31.8,21.7
				c-6.5,2.3-13.5,4.3-19.2,5.8c-3.5-2.5-16.2-9-39.8,5.3c0,0,24.7,19.5,40.1-3.3c6.1-1.6,13.7-3.8,20.7-6.3
				c8.6,7.4,13.3,12.8,13.4,12.9l1.5-1.3c-0.1-0.2-9.9-11.4-27.2-23.8c-3.7-11-7.3-18.9-10.1-24.3c8-26.2-22.6-33.2-22.6-33.2
				c3.7,27.7,16.9,33.3,21,34.4c2.5,4.8,5.7,11.8,9,21.1c-5.2-3.6-11.1-7.3-17.5-10.7c-7.8-4.2-16.8-8.3-27-11.8
				c-5-4.1-7.7-8.1-9.2-11.2c10.7-25.5-19.3-35.4-19.3-35.4C650-28.3,662.2-21.3,666.3-19.6z"/>
			<path class="st1" d="M666.3,576.2c1.2,2.6,3.2,5.7,6.5,9c-12.1-3.7-25.7-6.3-40.6-6.8c-2.4-1.4-4.4-2.5-6.1-3.5
				c-0.5-1.1-1.1-2.6-1.5-4c18.3-21.1-7.3-39.8-7.3-39.8c-7.2,25.6,1.4,36.3,5.1,39.5c0.3,0.9,0.6,1.9,0.9,2.8c-1.7-0.9-3-1.6-4-2.1
				c-7.1-22.8-32.5-12.9-32.5-12.9c15.6,17.4,27.5,15.8,31.4,14.6c1.9,1,5,2.6,9.8,5.3c-14.2-0.1-29.4,1.8-45.5,6.4
				c-3.1-1.3-17.6-5.4-37.2,16.3c0,0,28.9,11.5,37.4-14.2c10.4-3,20.5-4.9,30.1-5.8c-2.2,2.1-3.8,4.3-4.9,6.2
				c-4.1,1.9-15.7,9.8-15.1,37.1c0,0,29.3-11.7,17.1-36.5c1.4-2.2,3.4-4.7,6.2-7.1c15.3-1.1,29.5,0.2,42.3,2.9
				c-7.2,4.2-12,7.8-15.2,10.6c-21.7-1.6-22.8,23.8-22.8,23.8c24.3-8,25.2-21.2,25.2-23.3c3.4-2.8,8.4-6.4,15.7-10.5
				c13.4,3,25.2,7.6,35.2,12.4c-5-0.8-13.8,0-25.9,9.1c0,0,21.3,11.2,30.5-6.8c0.8,0.4,1.6,0.8,2.3,1.2c13.2,7.1,24,15.1,31.8,21.7
				c-6.5,2.3-13.5,4.3-19.2,5.8c-3.5-2.5-16.2-9-39.8,5.3c0,0,24.7,19.5,40.1-3.3c6.1-1.6,13.7-3.8,20.7-6.3
				c8.6,7.4,13.3,12.8,13.4,12.9l1.5-1.3c-0.1-0.2-9.9-11.4-27.2-23.8c-3.7-11-7.3-18.9-10.1-24.3c8-26.2-22.6-33.2-22.6-33.2
				c3.7,27.7,16.9,33.3,21,34.4c2.5,4.8,5.7,11.8,9,21.1c-5.2-3.6-11.1-7.3-17.5-10.7c-7.8-4.2-16.8-8.3-27-11.8
				c-5-4.1-7.7-8.1-9.2-11.2c10.7-25.5-19.3-35.4-19.3-35.4C650,567.5,662.2,574.6,666.3,576.2z"/>
			<path class="st1" d="M27.2,444.8c-0.8-2.8-2.3-6.1-5-9.9c11.4,5.5,24.5,10.1,39.1,12.9c2.1,1.7,4,3.1,5.5,4.4
				c0.4,1.2,0.7,2.7,0.9,4.2c-21.3,18,1.2,40.4,1.2,40.4c11-24.2,4.1-36.1,1-39.8c-0.1-0.9-0.3-1.9-0.5-2.9c1.5,1.1,2.7,2,3.6,2.7
				c3.5,23.6,30.1,17.7,30.1,17.7c-12.8-19.5-24.8-19.8-28.9-19.2c-1.7-1.2-4.5-3.3-8.9-6.7c14,2.2,29.3,2.7,45.9,0.6
				c2.9,1.7,16.6,8,39.3-10.4c0,0-26.8-15.8-39.1,8.4c-10.8,1.4-21,1.7-30.6,1.1c2.5-1.8,4.4-3.7,5.8-5.4c4.3-1.3,17-7.3,20.6-34.3
				c0,0-30.8,7.1-22.5,33.5c-1.7,2-4,4.2-7.2,6.1c-15.3-1.2-29.1-4.7-41.4-9.2c7.8-3,13.1-5.9,16.6-8.1
				c21.2,4.9,26.1-20.1,26.1-20.1c-25.2,4.2-28.2,17.1-28.5,19.2c-3.7,2.3-9.3,5.1-17.1,8c-12.7-5-23.7-11.3-32.9-17.6
				c4.9,1.5,13.7,2.1,27-5.1c0,0-19.4-14.3-31.2,2.1c-0.7-0.5-1.4-1-2.1-1.6c-12-9-21.4-18.5-28.2-26.3c6.8-1.3,14-2.2,19.9-2.8
				c3.1,3,14.6,11.3,40.2,0.8c0,0-21.5-23.1-40.2-2.8c-6.3,0.7-14.2,1.7-21.4,3.1c-7.4-8.6-11.2-14.7-11.3-14.8l-1.7,1.1
				c0.1,0.2,8,12.8,23.3,27.7c2,11.4,4.4,19.8,6.3,25.5c-11.9,24.7,17.3,36.2,17.3,36.2c0.5-27.9-11.7-35.5-15.5-37.2
				c-1.7-5.1-3.8-12.5-5.7-22.2c4.6,4.4,9.9,8.9,15.7,13.3c7,5.3,15.4,10.8,24.9,15.7c4.4,4.8,6.4,9.1,7.4,12.5
				c-14.5,23.6,13.7,37.9,13.7,37.9C42,455.9,31.1,447,27.2,444.8z"/>
			<path class="st1" d="M827.6,444.8c-0.8-2.8-2.3-6.1-5-9.9c11.4,5.5,24.5,10.1,39.1,12.9c2.1,1.7,4,3.1,5.5,4.4
				c0.4,1.2,0.7,2.7,0.9,4.2c-21.3,18,1.2,40.4,1.2,40.4c11-24.2,4.1-36.1,1-39.8c-0.1-0.9-0.3-1.9-0.5-2.9c1.5,1.1,2.7,2,3.6,2.7
				c3.5,23.6,30.1,17.7,30.1,17.7c-12.8-19.5-24.8-19.8-28.9-19.2c-1.7-1.2-4.5-3.3-8.9-6.7c14,2.2,29.3,2.7,45.9,0.6
				c2.9,1.7,16.6,8,39.3-10.4c0,0-26.8-15.8-39.1,8.4c-10.8,1.4-21,1.7-30.6,1.1c2.5-1.8,4.4-3.7,5.8-5.4c4.3-1.3,17-7.3,20.6-34.3
				c0,0-30.8,7.1-22.5,33.5c-1.7,2-4,4.2-7.2,6.1c-15.3-1.2-29.1-4.7-41.4-9.2c7.8-3,13.1-5.9,16.6-8.1
				c21.2,4.9,26.1-20.1,26.1-20.1c-25.2,4.2-28.2,17.1-28.5,19.2c-3.7,2.3-9.3,5.1-17.1,8c-12.7-5-23.7-11.3-32.9-17.6
				c4.9,1.5,13.7,2.1,27-5.1c0,0-19.4-14.3-31.2,2.1c-0.7-0.5-1.4-1-2.1-1.6c-12-9-21.4-18.5-28.2-26.3c6.8-1.3,14-2.2,19.9-2.8
				c3.1,3,14.6,11.3,40.2,0.8c0,0-21.5-23.1-40.2-2.8c-6.3,0.7-14.2,1.7-21.4,3.1c-7.4-8.6-11.2-14.7-11.3-14.8l-1.7,1.1
				c0.1,0.2,8,12.8,23.3,27.7c2,11.4,4.4,19.8,6.3,25.5c-11.9,24.7,17.3,36.2,17.3,36.2c0.5-27.9-11.7-35.5-15.5-37.2
				c-1.7-5.1-3.8-12.5-5.7-22.2c4.6,4.4,9.9,8.9,15.7,13.3c7,5.3,15.4,10.8,24.9,15.7c4.4,4.8,6.4,9.1,7.4,12.5
				c-14.5,23.6,13.7,37.9,13.7,37.9C842.4,455.9,831.5,447,827.6,444.8z"/>
			<path class="st1" d="M142.9,10.8c-0.7-2.8-2-6.2-4.6-10.1c11.2,6,24,11.2,38.5,14.7c2,1.8,3.8,3.3,5.3,4.6
				c0.3,1.2,0.5,2.8,0.7,4.3c-22.1,17-0.7,40.4-0.7,40.4c12.1-23.7,5.7-35.9,2.8-39.7c-0.1-0.9-0.2-2-0.4-2.9
				c1.4,1.2,2.6,2.1,3.5,2.8c2.4,23.8,29.3,19,29.3,19c-11.9-20.1-23.8-20.9-27.9-20.5c-1.7-1.3-4.4-3.5-8.5-7.1
				c13.9,2.9,29.2,4.1,45.8,2.7c2.8,1.9,16.2,8.7,39.7-8.6c0,0-26.1-17-39.4,6.6c-10.8,0.9-21,0.8-30.7-0.3c2.6-1.7,4.6-3.5,6.1-5.1
				c4.4-1.1,17.3-6.5,22.1-33.4c0,0-31.1,5.7-24,32.4c-1.8,1.9-4.2,4-7.5,5.7c-15.2-1.9-28.8-6-40.9-11.1c7.9-2.7,13.3-5.3,17-7.4
				c21,5.8,27-18.9,27-18.9c-25.4,3-28.9,15.8-29.3,17.8c-3.8,2.1-9.5,4.7-17.4,7.2c-12.5-5.6-23.2-12.4-32.1-19.1
				c4.8,1.8,13.6,2.8,27.2-3.8c0,0-18.7-15.1-31.2,0.7c-0.7-0.6-1.4-1.1-2-1.7c-11.5-9.6-20.5-19.5-26.9-27.5
				c6.8-0.9,14.1-1.5,20-1.9c2.9,3.2,14.1,12,40.1,2.6c0,0-20.4-24-40-4.6c-6.3,0.4-14.2,1.1-21.5,2.1c-7-9-10.5-15.2-10.6-15.3
				l-1.7,1c0.1,0.2,7.4,13.1,22,28.7c1.5,11.5,3.5,20,5.1,25.8c-13,24.1,15.6,37,15.6,37c1.8-27.9-10-36-13.8-37.8
				c-1.5-5.2-3.3-12.7-4.6-22.5c4.4,4.6,9.4,9.3,15,14C116.6-12.9,124.7-7,134-1.7c4.1,5,6,9.4,6.8,12.8
				c-15.5,22.9,11.9,38.5,11.9,38.5C157.1,22.6,146.6,13.2,142.9,10.8z"/>
			<path class="st1" d="M142.9,606.1c-0.7-2.8-2-6.2-4.6-10.1c11.2,6,24,11.2,38.5,14.7c2,1.8,3.8,3.3,5.3,4.6
				c0.3,1.2,0.5,2.8,0.7,4.3c-22.1,17-0.7,40.4-0.7,40.4c12.1-23.7,5.7-35.9,2.8-39.7c-0.1-0.9-0.2-2-0.4-2.9
				c1.4,1.2,2.6,2.1,3.5,2.8c2.4,23.8,29.3,19,29.3,19c-11.9-20.1-23.8-20.9-27.9-20.5c-1.7-1.3-4.4-3.5-8.5-7.1
				c13.9,2.9,29.2,4.1,45.8,2.7c2.8,1.9,16.2,8.7,39.7-8.6c0,0-26.1-17-39.4,6.6c-10.8,0.9-21,0.8-30.7-0.3c2.6-1.7,4.6-3.5,6.1-5.1
				c4.4-1.1,17.3-6.5,22.1-33.4c0,0-31.1,5.7-24,32.4c-1.8,1.9-4.2,4-7.5,5.7c-15.2-1.9-28.8-6-40.9-11.1c7.9-2.7,13.3-5.3,17-7.4
				c21,5.8,27-18.9,27-18.9c-25.4,3-28.9,15.8-29.3,17.8c-3.8,2.1-9.5,4.7-17.4,7.2c-12.5-5.6-23.2-12.4-32.1-19.1
				c4.8,1.8,13.6,2.8,27.2-3.8c0,0-18.7-15.1-31.2,0.7c-0.7-0.6-1.4-1.1-2-1.7c-11.5-9.6-20.5-19.5-26.9-27.5
				c6.8-0.9,14.1-1.5,20-1.9c2.9,3.2,14.1,12,40.1,2.6c0,0-20.4-24-40-4.6c-6.3,0.4-14.2,1.1-21.5,2.1c-7-9-10.5-15.2-10.6-15.3
				l-1.7,1c0.1,0.2,7.4,13.1,22,28.7c1.5,11.5,3.5,20,5.1,25.8c-13,24.1,15.6,37,15.6,37c1.8-27.9-10-36-13.8-37.8
				c-1.5-5.2-3.3-12.7-4.6-22.5c4.4,4.6,9.4,9.3,15,14c6.8,5.6,14.8,11.5,24.2,16.9c4.1,5,6,9.4,6.8,12.8
				c-15.5,22.9,11.9,38.5,11.9,38.5C157.1,617.8,146.6,608.5,142.9,606.1z"/>
			<path class="st1" d="M846,24.3c-2.8,0.8-6.2,2.2-9.9,4.9c5.6-11.4,10.4-24.4,13.4-38.9c1.7-2.1,3.2-3.9,4.4-5.5
				c1.2-0.3,2.7-0.6,4.2-0.9c17.7,21.5,40.4-0.6,40.4-0.6c-24.1-11.3-36-4.6-39.8-1.5c-0.9,0.1-1.9,0.3-2.9,0.5
				c1.2-1.5,2-2.7,2.7-3.6c23.7-3.2,18-29.9,18-29.9c-19.7,12.5-20.1,24.5-19.6,28.6c-1.3,1.7-3.4,4.5-6.8,8.8
				c2.4-13.9,3.1-29.3,1.2-45.9c1.8-2.9,8.2-16.5-9.9-39.4c0,0-16.1,26.6,7.9,39.2c1.3,10.8,1.4,21,0.7,30.7
				c-1.8-2.5-3.6-4.5-5.3-5.9c-1.2-4.4-7.1-17.1-34.1-21c0,0,6.7,30.9,33.2,22.9c2,1.7,4.1,4.1,6,7.3c-1.4,15.2-5,29-9.8,41.2
				c-2.9-7.8-5.7-13.2-7.9-16.7c5.1-21.2-19.7-26.4-19.7-26.4c3.8,25.3,16.7,28.4,18.8,28.7c2.2,3.8,5,9.3,7.8,17.2
				c-5.2,12.7-11.6,23.6-18.1,32.7c1.6-4.8,2.3-13.7-4.7-27.1c0,0-14.5,19.2,1.7,31.2c-0.5,0.7-1.1,1.4-1.6,2.1
				c-9.2,11.9-18.8,21.2-26.6,27.8c-1.2-6.8-2-14.1-2.6-19.9c3.1-3.1,11.5-14.4,1.3-40.2c0,0-23.3,21.2-3.3,40.1
				c0.6,6.3,1.5,14.2,2.8,21.5c-8.7,7.3-14.8,11-15,11.1l1,1.7c0.2-0.1,12.9-7.9,28-22.9c11.4-1.9,19.9-4.1,25.6-6
				C852.1,82.4,864,53.4,864,53.4c-27.9-0.9-35.6,11.2-37.4,15c-5.2,1.7-12.6,3.7-22.3,5.4c4.4-4.6,9-9.7,13.5-15.5
				c5.4-7,11-15.2,16.1-24.7c4.9-4.3,9.2-6.3,12.6-7.2c23.4,14.8,38.1-13.2,38.1-13.2C857.3,9.7,848.3,20.5,846,24.3z"/>
			<path class="st1" d="M420.3,92.7c2.2-1.8,5.3-3.8,9.7-5.3c-12.5-1.9-25.9-5.4-39.5-11.4c-2.7,0.2-5,0.4-7,0.5
				c-0.9,0.8-2.1,1.9-3.1,3c7.4,26.9-23.8,32.7-23.8,32.7c4.6-26.2,17-32.1,21.6-33.4c0.6-0.7,1.3-1.4,2.1-2.1
				c-1.9,0.1-3.4,0.1-4.5,0.2c-16.2,17.6-34.9-2.4-34.9-2.4c21.6-8.9,31.6-2.4,34.6,0.4c2.1,0,5.6-0.2,11.1-0.6
				c-12.8-6-25.7-14.3-38.3-25.4c-3.4-0.2-18.2-2.8-26.6-30.7c0,0,31.1,2.1,27.6,28.9c8.1,7.2,16.4,13.2,24.7,18.2
				c-1.1-2.9-1.6-5.5-1.8-7.8c-2.9-3.5-9.9-15.6,2.4-40c0,0,21.4,23.2-0.3,40.3c0.3,2.6,1,5.7,2.6,9.1c13.3,7.6,26.6,12.6,39.4,15.7
				c-4.7-6.9-7.5-12.2-9.1-16.1c-20.3-7.9-10.3-31.3-10.3-31.3c18.5,17.7,13.6,30,12.7,31.9c1.8,4,4.8,9.4,9.6,16.2
				c13.4,3,26,4.1,37.2,4c-4.9-1.5-12.5-6-19.4-19.4c0,0,24-0.9,24.6,19.3c0.9,0,1.8-0.1,2.6-0.1c15-0.7,28.1-3.2,38.1-5.8
				c-4.9-4.9-10.4-9.7-14.8-13.6c-4.3,0.8-18.5,1.1-33.6-22c0,0,30.7-7,34.8,20.3c4.8,4.1,10.7,9.4,15.9,14.6
				c11-3,17.5-5.8,17.7-5.9l0.8,1.8c-0.2,0.1-13.9,6-34.8,9.7c-8.1,8.3-14.8,13.9-19.6,17.5c-4.1,27.1-34.7,20.2-34.7,20.2
				c15.3-23.3,29.6-22.7,33.8-22c4.3-3.3,10.2-8.2,17.2-15.2c-6.3,1-13.1,1.8-20.4,2.1c-8.8,0.4-18.8,0.3-29.4-1.1
				c-6.3,1.5-10.5,3.9-13.1,6.1c-1.4,27.6-32.7,23.6-32.7,23.6C401.8,93.5,415.8,92.3,420.3,92.7z"/>
			<path class="st1" d="M569.4,143.5c-2.7,1-5.9,2.8-9.5,5.8c4.6-11.8,8.2-25.2,9.8-40c1.5-2.3,2.8-4.2,3.9-5.9
				c1.1-0.4,2.7-0.9,4.1-1.2c19.6,19.8,40.2-4.3,40.2-4.3c-25-9.1-36.3-1.3-39.7,2.1c-0.9,0.2-1.9,0.5-2.9,0.7
				c1-1.6,1.8-2.8,2.4-3.8c23.3-5.3,15.3-31.4,15.3-31.4c-18.5,14.2-17.8,26.2-16.9,30.2c-1.1,1.8-3,4.8-6,9.4
				c1.2-14.1,0.5-29.4-2.9-45.8c1.5-3,6.7-17.2-13.4-38.4c0,0-13.7,28,11.3,38.3c2.2,10.6,3.3,20.8,3.5,30.5c-2-2.4-4-4.1-5.9-5.4
				c-1.6-4.2-8.6-16.4-35.8-17.9c0,0,9.4,30.1,35.1,19.8c2.1,1.5,4.5,3.7,6.6,6.7c-0.1,15.3-2.4,29.4-6,42
				c-3.6-7.5-6.9-12.6-9.4-15.9c3.2-21.5-22-24.5-22-24.5c6.1,24.8,19.2,26.8,21.3,26.9c2.6,3.6,5.8,8.8,9.3,16.4
				c-4,13.1-9.4,24.5-15.1,34.2c1.2-5,1.1-13.8-7.1-26.5c0,0-12.7,20.4,4.5,30.9c-0.5,0.7-0.9,1.5-1.4,2.2
				c-8.1,12.6-16.8,22.8-24,30.1c-1.8-6.7-3.3-13.8-4.4-19.6c2.8-3.3,10.2-15.4-2.3-40.1c0,0-21.4,23.2,0.3,40.3
				c1.2,6.2,2.8,14,4.7,21.1c-8,8-13.8,12.3-13.9,12.4l1.2,1.6c0.2-0.1,12.1-9,25.8-25.3c11.2-2.9,19.4-5.9,25-8.3
				c25.6,10,34.8-20.1,34.8-20.1c-27.9,1.6-34.5,14.4-35.9,18.3c-5,2.1-12.2,4.8-21.7,7.4c4-4.9,8.1-10.5,12-16.7
				c4.8-7.4,9.6-16.1,13.8-26.1c4.5-4.7,8.6-7.1,11.9-8.3c24.6,12.6,36.8-16.6,36.8-16.6C579.3,127.9,571.3,139.5,569.4,143.5z"/>
			<path class="st1" d="M346.2,260.5c-2.7,1-5.9,2.9-9.4,6c4.4-11.9,7.8-25.3,9.1-40.1c1.5-2.3,2.8-4.2,3.8-5.9
				c1.1-0.5,2.7-0.9,4.1-1.3c20,19.5,40.1-5,40.1-5c-25.2-8.6-36.3-0.6-39.7,2.8c-0.9,0.2-1.9,0.5-2.9,0.8c1-1.6,1.7-2.9,2.3-3.9
				c23.2-5.7,14.7-31.7,14.7-31.7c-18.2,14.6-17.3,26.5-16.4,30.5c-1.1,1.9-2.9,4.8-5.9,9.5c0.9-14.1-0.1-29.4-3.8-45.8
				c1.4-3.1,6.4-17.3-14.1-38.1c0,0-13.2,28.2,12,38.1c2.4,10.6,3.7,20.7,4,30.4c-2-2.3-4.1-4-6-5.3c-1.7-4.2-8.9-16.2-36.2-17.2
				c0,0,10,30,35.5,19.2c2.1,1.5,4.5,3.6,6.7,6.6c0.2,15.3-1.9,29.4-5.3,42.1c-3.7-7.4-7.1-12.5-9.7-15.8
				c2.8-21.6-22.5-24.1-22.5-24.1c6.6,24.7,19.7,26.4,21.8,26.5c2.6,3.5,5.9,8.7,9.6,16.2c-3.8,13.2-9,24.7-14.4,34.5
				c1.1-5,0.8-13.8-7.6-26.4c0,0-12.4,20.6,5.1,30.8c-0.4,0.8-0.9,1.5-1.3,2.2c-7.9,12.8-16.4,23.1-23.5,30.5
				c-1.9-6.6-3.5-13.8-4.7-19.5c2.7-3.4,9.9-15.6-3-40.1c0,0-20.9,23.6,1,40.2c1.3,6.2,3,13.9,5.1,21c-7.9,8.2-13.6,12.5-13.7,12.6
				l1.2,1.6c0.2-0.1,12-9.2,25.3-25.8c11.2-3.1,19.3-6.2,24.8-8.7c25.7,9.5,34.4-20.7,34.4-20.7c-27.8,2.2-34.2,15-35.5,19
				c-5,2.2-12.1,5-21.6,7.8c3.9-5,7.9-10.6,11.7-16.9c4.6-7.5,9.3-16.3,13.3-26.3c4.4-4.8,8.5-7.3,11.7-8.6
				c24.9,12.1,36.4-17.2,36.4-17.2C355.9,244.7,348.1,256.4,346.2,260.5z"/>
			<path class="st1" d="M453.1,231.5c-2.3-1.7-5-4.3-7.5-8.2c1.2,12.6,1,26.5-1.5,41.1c0.9,2.6,1.6,4.8,2.2,6.7
				c1,0.7,2.3,1.6,3.6,2.3c24.3-13.7,37.5,15.2,37.5,15.2c-26.6,1.9-35.2-8.7-37.6-13c-0.8-0.5-1.7-1-2.6-1.5
				c0.5,1.8,0.9,3.2,1.2,4.3c21,11.5,6.1,34.4,6.1,34.4c-13.9-18.8-9.9-30.1-7.9-33.7c-0.6-2.1-1.5-5.4-3.2-10.7
				c-2.8,13.9-7.6,28.4-15.4,43.3c0.6,3.3,1.7,18.3-23.4,33.2c0,0-5.5-30.7,21.4-33.7c5.1-9.6,8.9-19.1,11.7-28.3
				c-2.5,1.7-5,2.9-7.1,3.6c-2.7,3.6-12.8,13.4-39.4,7.3c0,0,17.3-26.4,39.2-9.4c2.4-0.9,5.3-2.3,8.2-4.7c4.1-14.7,5.8-28.9,5.7-42
				c-5.5,6.2-10.1,10.2-13.4,12.7c-2.8,21.6-27.9,17.5-27.9,17.5c12.7-22.2,25.8-20.4,27.9-20c3.4-2.7,8-6.9,13.4-13.2
				c-0.3-13.7-2.3-26.2-5.1-37c-0.2,5.1-2.8,13.6-14.2,23.5c0,0-6.6-23.1,12.8-28.5c-0.2-0.8-0.5-1.7-0.7-2.5
				c-4.3-14.4-9.9-26.5-14.8-35.6c-3.5,5.9-6.9,12.4-9.6,17.7c1.8,3.9,5.6,17.6-13.2,37.9c0,0-14.2-28.1,11.3-38.6
				c2.8-5.6,6.5-12.7,10.4-19c-5.5-9.9-9.9-15.6-10-15.7l1.6-1.2c0.1,0.2,9.2,12,17.9,31.4c10,5.8,17.1,11,21.7,14.8
				c27.3-2.5,28,28.8,28,28.8c-26.3-9.2-29.2-23.3-29.5-27.5c-4.2-3.4-10.4-8-18.9-13c2.5,5.9,4.9,12.3,7,19.3
				c2.5,8.4,4.8,18.2,6.1,28.8c3,5.8,6.3,9.2,9.1,11.3c27.2-5.3,30.8,26,30.8,26C458.4,249.2,453.9,235.9,453.1,231.5z"/>
			<path class="st1" d="M646.8,221.8c-2.1,1.9-5.2,4-9.5,5.7c12.6,1.5,26.1,4.5,39.9,10c2.7-0.3,5-0.5,7-0.7c0.9-0.8,2-2,3-3.1
				c-8.4-26.6,22.6-33.6,22.6-33.6c-3.6,26.4-15.8,32.7-20.4,34.2c-0.6,0.7-1.3,1.5-2,2.2c1.9-0.2,3.4-0.3,4.5-0.3
				c15.6-18.1,34.9,1.1,34.9,1.1c-21.2,9.7-31.5,3.5-34.6,0.8c-2.1,0.1-5.6,0.4-11.1,1c13,5.6,26.2,13.3,39.2,24
				c3.4,0.1,18.3,2.1,27.7,29.8c0,0-31.1-1-28.6-27.9c-8.3-6.9-16.8-12.6-25.3-17.3c1.2,2.8,1.8,5.5,2,7.7c3,3.4,10.5,15.2-0.9,40
				c0,0-22.3-22.4-1.1-40.3c-0.4-2.6-1.2-5.7-2.9-9c-13.6-7.1-27.1-11.6-39.9-14.2c4.9,6.7,7.9,12,9.7,15.8
				c20.5,7.2,11.4,30.9,11.4,30.9c-19.1-17-14.7-29.5-13.9-31.4c-2-3.9-5.1-9.2-10.2-15.9c-13.5-2.5-26.1-3.1-37.3-2.7
				c4.9,1.3,12.7,5.5,20.1,18.7c0,0-24,1.7-25.2-18.4c-0.9,0.1-1.7,0.1-2.6,0.2c-15,1.3-28,4.3-37.8,7.2c5.1,4.7,10.7,9.3,15.3,13
				c4.2-0.9,18.4-1.8,34.4,20.8c0,0-30.5,8.1-35.5-19.1c-4.9-3.9-11.1-9-16.5-14.1c-10.8,3.4-17.3,6.5-17.4,6.5l-0.9-1.8
				c0.2-0.1,13.6-6.5,34.4-11c7.8-8.6,14.3-14.4,19-18.2c3.1-27.2,34-21.4,34-21.4c-14.5,23.9-28.8,23.8-32.9,23.2
				c-4.2,3.4-9.9,8.5-16.6,15.8c6.2-1.2,13.1-2.2,20.3-2.9c8.8-0.7,18.7-0.9,29.5,0c6.2-1.7,10.3-4.3,12.9-6.6
				c0.4-27.7,31.8-24.8,31.8-24.8C665.2,220.3,651.2,222,646.8,221.8z"/>
			<path class="st1" d="M351.6,431.8c2.1-1.9,5.2-4,9.6-5.6c-12.6-1.5-26.1-4.6-39.9-10.1c-2.7,0.3-5,0.5-7,0.7c-0.9,0.8-2,2-3,3.1
				c8.3,26.6-22.7,33.5-22.7,33.5c3.7-26.4,15.9-32.6,20.5-34.1c0.6-0.7,1.3-1.5,2-2.2c-1.9,0.2-3.4,0.3-4.5,0.3
				c-15.6,18.1-34.9-1.2-34.9-1.2c21.3-9.6,31.5-3.4,34.6-0.7c2.1-0.1,5.6-0.4,11.1-0.9c-13-5.6-26.2-13.4-39.1-24.1
				c-3.4-0.1-18.3-2.2-27.6-29.8c0,0,31.1,1,28.5,28c8.3,7,16.8,12.7,25.3,17.4c-1.2-2.9-1.8-5.5-2-7.7c-3-3.4-10.4-15.3,1-40
				c0,0,22.2,22.5,1,40.3c0.4,2.6,1.2,5.7,2.9,9c13.6,7.1,27.1,11.7,39.9,14.4c-4.9-6.7-7.9-12-9.7-15.8c-20.5-7.3-11.3-31-11.3-31
				c19.1,17,14.6,29.5,13.8,31.4c1.9,3.9,5.1,9.2,10.1,15.9c13.5,2.6,26.1,3.2,37.3,2.8c-4.9-1.3-12.7-5.5-20.1-18.8
				c0,0,24-1.7,25.2,18.5c0.9-0.1,1.7-0.1,2.6-0.2c15-1.2,28-4.2,37.9-7.1c-5.1-4.7-10.7-9.4-15.3-13.1c-4.2,0.9-18.4,1.8-34.3-20.9
				c0,0,30.5-8,35.4,19.2c4.9,3.9,11,9,16.4,14.1c10.9-3.3,17.3-6.4,17.5-6.5l0.9,1.8c-0.2,0.1-13.6,6.5-34.5,10.9
				c-7.8,8.6-14.3,14.4-19,18.2c-3.2,27.2-34,21.3-34,21.3c14.5-23.8,28.9-23.7,33-23.1c4.2-3.4,9.9-8.5,16.7-15.7
				c-6.2,1.2-13.1,2.2-20.4,2.8c-8.8,0.7-18.7,0.9-29.5-0.1c-6.2,1.7-10.3,4.3-12.9,6.6c-0.4,27.7-31.9,24.7-31.9,24.7
				C333.1,433.2,347.1,431.6,351.6,431.8z"/>
			<path class="st1" d="M559.1,516.3c-0.7-2.8-1.2-6.4-0.7-11.1c-7,10.6-15.8,21.2-27,31.1c-1,2.6-1.8,4.7-2.5,6.6
				c0.3,1.2,0.8,2.7,1.4,4.1c27.5,4.6,19.7,35.3,19.7,35.3c-21.9-15.2-22-28.9-21.2-33.7c-0.4-0.9-0.7-1.8-1.1-2.8
				c-0.7,1.7-1.3,3.1-1.7,4.2c9.1,22.1-16.8,30.6-16.8,30.6c1-23.3,11.1-29.7,14.9-31.3c0.9-2,2.2-5.2,4.2-10.3
				c-10.9,9.1-23.8,17.4-39.1,24c-1.6,3-10.2,15.3-39.1,11.2c0,0,15-27.3,37.8-12.8c10-4.3,18.9-9.3,26.9-14.7
				c-3.1-0.2-5.7-0.9-7.8-1.7c-4.4,1.1-18.3,2.4-35.3-19c0,0,30.1-9.7,36.4,17.2c2.5,0.8,5.6,1.5,9.3,1.5
				c12.5-8.9,22.6-18.9,30.8-29.1c-8.2,1.4-14.3,1.7-18.4,1.5c-15.7,15.1-32.7-3.9-32.7-3.9c23.8-9.3,33,0.3,34.3,1.9
				c4.4,0,10.6-0.4,18.8-1.9c8.4-10.9,14.6-21.9,19.3-32c-3.4,3.8-10.7,8.8-25.8,9.5c0,0,9.3-22.2,27.9-14.1c0.3-0.8,0.7-1.6,1-2.4
				c5.6-13.9,8.9-26.9,10.7-37c-6.5,2.4-13.2,5.3-18.5,7.8c-1.1,4.2-6.7,17.2-34.1,21.3c0,0,6.6-30.8,33.1-23c5.7-2.6,13-5.8,20-8.3
				c1.9-11.2,2.1-18.4,2.1-18.5l2,0c0,0.2-0.3,15.1-5.8,35.7c4.1,10.8,6.4,19.3,7.6,25.1c22.9,15.1,3.7,40,3.7,40
				c-14.7-23.7-8.2-36.5-5.7-39.9c-1.1-5.3-3.1-12.7-6.5-22c-1.7,6.1-3.9,12.7-6.7,19.4c-3.3,8.2-7.7,17.1-13.3,26.3
				c-1.3,6.4-0.8,11.1,0,14.5c24.5,12.9,7.7,39.6,7.7,39.6C552,533.5,556.9,520.2,559.1,516.3z"/>
			<path class="st1" d="M503.9,347.7c2.8-0.7,6.2-2.1,10-4.8c-5.8,11.3-10.8,24.2-14,38.7c-1.8,2.1-3.3,3.9-4.5,5.4
				c-1.2,0.3-2.8,0.6-4.2,0.8c-17.4-21.8-40.4,0-40.4,0c23.9,11.7,35.9,5.1,39.7,2.1c0.9-0.1,1.9-0.3,2.9-0.4
				c-1.2,1.5-2.1,2.6-2.8,3.5c-23.7,2.8-18.5,29.6-18.5,29.6c19.9-12.2,20.5-24.2,20-28.3c1.3-1.7,3.4-4.4,7-8.7
				c-2.6,13.9-3.6,29.2-1.9,45.9c-1.8,2.9-8.4,16.4,9.3,39.6c0,0,16.5-26.4-7.3-39.3c-1.1-10.8-1.1-21-0.3-30.7
				c1.7,2.6,3.6,4.5,5.3,6c1.2,4.4,6.8,17.2,33.8,21.5c0,0-6.2-31-32.8-23.4c-1.9-1.7-4-4.1-5.8-7.4c1.7-15.2,5.5-28.9,10.4-41.1
				c2.8,7.8,5.5,13.2,7.7,16.8c-5.5,21.1,19.3,26.7,19.3,26.7c-3.5-25.3-16.3-28.6-18.3-29c-2.2-3.8-4.8-9.4-7.5-17.3
				c5.4-12.6,12-23.4,18.6-32.4c-1.7,4.8-2.5,13.6,4.3,27.1c0,0,14.8-19-1.2-31.2c0.5-0.7,1.1-1.4,1.6-2.1
				c9.4-11.7,19.1-20.9,27-27.4c1.1,6.8,1.8,14.1,2.3,20c-3.1,3-11.7,14.3-1.9,40.1c0,0,23.7-20.8,3.9-40.1
				c-0.5-6.3-1.3-14.2-2.5-21.5c8.8-7.1,15-10.8,15.1-10.9l-1-1.7c-0.2,0.1-13,7.7-28.3,22.5c-11.5,1.7-19.9,3.8-25.7,5.6
				c-24.4-12.6-36.7,16.3-36.7,16.3c27.9,1.3,35.8-10.7,37.6-14.4c5.2-1.6,12.6-3.5,22.4-5c-4.5,4.5-9.1,9.6-13.7,15.3
				c-5.5,6.9-11.2,15-16.4,24.5c-4.9,4.2-9.3,6.2-12.7,7c-23.2-15.1-38.3,12.6-38.3,12.6C492.4,362.2,501.6,351.5,503.9,347.7z"/>
			<path class="st1" d="M10.3,619.6c-2.8,0.8-6.2,2.2-9.9,4.9c5.6-11.4,10.4-24.4,13.4-38.9c1.7-2.1,3.2-3.9,4.4-5.5
				c1.2-0.3,2.7-0.6,4.2-0.9c17.7,21.5,40.4-0.6,40.4-0.6c-24.1-11.3-36-4.6-39.8-1.5c-0.9,0.1-1.9,0.3-2.9,0.5
				c1.2-1.5,2-2.7,2.7-3.6c23.7-3.2,18-29.9,18-29.9c-19.7,12.5-20.1,24.5-19.6,28.6c-1.3,1.7-3.4,4.5-6.8,8.8
				c2.4-13.9,3.1-29.3,1.2-45.9c1.8-2.9,8.2-16.5-9.9-39.4c0,0-16.1,26.6,7.9,39.2c1.3,10.8,1.4,21,0.7,30.7
				c-1.8-2.5-3.6-4.5-5.3-5.9c-1.2-4.4-7.1-17.1-34.1-21c0,0,6.7,30.9,33.2,22.9c2,1.7,4.1,4.1,6,7.3c-1.4,15.2-5,29-9.8,41.2
				c-2.9-7.8-5.7-13.2-7.9-16.7c5.1-21.2-19.7-26.4-19.7-26.4c3.8,25.3,16.7,28.4,18.8,28.7c2.2,3.8,5,9.3,7.8,17.2
				C-2,626-8.4,636.9-14.9,646c1.6-4.8,2.3-13.7-4.7-27.1c0,0-14.5,19.2,1.7,31.2c-0.5,0.7-1.1,1.4-1.6,2.1
				c-9.2,11.9-18.8,21.2-26.6,27.8c-1.2-6.8-2-14.1-2.6-19.9c3.1-3.1,11.5-14.4,1.3-40.2c0,0-23.3,21.2-3.3,40.1
				c0.6,6.3,1.5,14.2,2.8,21.5c-8.7,7.3-14.8,11-15,11.1l1,1.7c0.2-0.1,12.9-7.9,28-22.9c11.4-1.9,19.9-4.1,25.6-6
				c24.6,12.2,36.5-16.8,36.5-16.8c-27.9-0.9-35.6,11.2-37.4,15c-5.2,1.7-12.6,3.7-22.3,5.4c4.4-4.6,9-9.7,13.5-15.5
				c5.4-7,11-15.2,16.1-24.7c4.9-4.3,9.2-6.3,12.6-7.2c23.4,14.8,38.1-13.2,38.1-13.2C21.6,605,12.6,615.8,10.3,619.6z"/>
			<path class="st1" d="M846,619.6c-2.8,0.8-6.2,2.2-9.9,4.9c5.6-11.4,10.4-24.4,13.4-38.9c1.7-2.1,3.2-3.9,4.4-5.5
				c1.2-0.3,2.7-0.6,4.2-0.9c17.7,21.5,40.4-0.6,40.4-0.6c-24.1-11.3-36-4.6-39.8-1.5c-0.9,0.1-1.9,0.3-2.9,0.5
				c1.2-1.5,2-2.7,2.7-3.6c23.7-3.2,18-29.9,18-29.9c-19.7,12.5-20.1,24.5-19.6,28.6c-1.3,1.7-3.4,4.5-6.8,8.8
				c2.4-13.9,3.1-29.3,1.2-45.9c1.8-2.9,8.2-16.5-9.9-39.4c0,0-16.1,26.6,7.9,39.2c1.3,10.8,1.4,21,0.7,30.7
				c-1.8-2.5-3.6-4.5-5.3-5.9c-1.2-4.4-7.1-17.1-34.1-21c0,0,6.7,30.9,33.2,22.9c2,1.7,4.1,4.1,6,7.3c-1.4,15.2-5,29-9.8,41.2
				c-2.9-7.8-5.7-13.2-7.9-16.7c5.1-21.2-19.7-26.4-19.7-26.4c3.8,25.3,16.7,28.4,18.8,28.7c2.2,3.8,5,9.3,7.8,17.2
				c-5.2,12.7-11.6,23.6-18.1,32.7c1.6-4.8,2.3-13.7-4.7-27.1c0,0-14.5,19.2,1.7,31.2c-0.5,0.7-1.1,1.4-1.6,2.1
				c-9.2,11.9-18.8,21.2-26.6,27.8c-1.2-6.8-2-14.1-2.6-19.9c3.1-3.1,11.5-14.4,1.3-40.2c0,0-23.3,21.2-3.3,40.1
				c0.6,6.3,1.5,14.2,2.8,21.5c-8.7,7.3-14.8,11-15,11.1l1,1.7c0.2-0.1,12.9-7.9,28-22.9c11.4-1.9,19.9-4.1,25.6-6
				c24.6,12.2,36.5-16.8,36.5-16.8c-27.9-0.9-35.6,11.2-37.4,15c-5.2,1.7-12.6,3.7-22.3,5.4c4.4-4.6,9-9.7,13.5-15.5
				c5.4-7,11-15.2,16.1-24.7c4.9-4.3,9.2-6.3,12.6-7.2c23.4,14.8,38.1-13.2,38.1-13.2C857.3,605,848.3,615.8,846,619.6z"/>
			<path class="st1" d="M712.2,481.8c-2.7,0.8-6.4,1.4-11,1.1c10.8,6.6,21.8,15.1,32,25.9c2.6,0.9,4.8,1.6,6.7,2.3
				c1.2-0.3,2.7-0.9,4-1.5c3.6-27.7,34.6-20.9,34.6-20.9c-14.4,22.4-28.1,23-32.9,22.3c-0.9,0.4-1.8,0.8-2.7,1.2
				c1.8,0.6,3.2,1.2,4.2,1.6c21.8-9.8,31.2,15.8,31.2,15.8c-23.3-0.2-30-10.1-31.7-13.9c-2-0.8-5.2-2-10.5-3.8
				c9.5,10.5,18.2,23.2,25.3,38.3c3,1.5,15.7,9.6,12.5,38.7c0,0-27.8-14-14.1-37.4c-4.6-9.8-9.9-18.6-15.6-26.4
				c-0.1,3.1-0.7,5.7-1.4,7.8c1.3,4.4,3,18.2-17.8,35.9c0,0-10.7-29.7,16-37c0.8-2.5,1.3-5.6,1.2-9.4c-9.3-12.2-19.6-21.9-30.2-29.8
				c1.7,8.1,2.1,14.2,2.1,18.4c15.6,15.2-2.7,32.8-2.7,32.8c-10.1-23.5-0.8-32.9,0.7-34.3c-0.1-4.4-0.7-10.5-2.5-18.7
				c-11.1-8-22.4-13.9-32.7-18.2c3.9,3.3,9.2,10.4,10.3,25.5c0,0-22.5-8.6-15.1-27.4c-0.8-0.3-1.6-0.6-2.4-0.9
				c-14.1-5.2-27.2-8-37.3-9.5c2.6,6.4,5.8,13,8.4,18.3c4.2,1,17.4,6.1,22.4,33.4c0,0-31-5.6-24.1-32.3c-2.8-5.6-6.2-12.8-9-19.7
				c-11.2-1.5-18.4-1.5-18.6-1.5l0-2c0.2,0,15.1-0.2,35.9,4.6c10.7-4.5,19-7,24.9-8.5c14.4-23.4,39.8-5,39.8-5
				c-23.2,15.5-36.2,9.4-39.6,7.1c-5.3,1.3-12.6,3.5-21.7,7.3c6.2,1.5,12.8,3.5,19.6,6c8.3,3,17.4,7.1,26.7,12.5
				c6.4,1.1,11.2,0.5,14.5-0.5c12-24.9,39.3-9,39.3-9C729.5,488.2,716.2,483.8,712.2,481.8z"/>
		</g>
	</g>
	<rect x="222.3" y="184.2" class="st2" width="397.4" height="226.9"/>
	<g>
		<path class="st1" d="M607,398.4h-372V196.9h372V398.4z"/>
	</g>
	<g>
		<path class="st2" d="M329.7,277.7c0,1.2-0.4,2.1-1.1,2.9c-0.7,0.7-1.7,1.1-2.9,1.1h-14.1c-1.2,0-2.1-0.4-2.9-1.1
			c-0.8-0.7-1.1-1.7-1.1-2.9v-14.2h5v13.8h12.1v-13.4l-15.5-18.7c-1.1-1.3-1.6-2.7-1.6-4.3v-11.4c0-1.2,0.4-2.1,1.1-2.9
			c0.8-0.7,1.7-1.1,2.9-1.1h14.1c1.2,0,2.1,0.4,2.9,1.1c0.7,0.7,1.1,1.7,1.1,2.9v13h-5V230h-12.1v11.8l15.6,18.7
			c1,1.2,1.5,2.6,1.5,4.2V277.7z"/>
		<path class="st2" d="M356.9,281.7h-18.4v-56.1h18.2v4.4h-13.2V251h12v4.5h-12v21.9h13.4V281.7z"/>
		<path class="st2" d="M387.3,281.7h-4.9l-2-12.5h-11.1l-2,12.5h-4.8v-0.1l10-56.1h4.9L387.3,281.7z M379.8,264.8l-4.9-30.4
			l-4.9,30.4H379.8z"/>
		<path class="st2" d="M421.8,281.7h-4.7v-35.5c0-0.5,0.2-2,0.5-4.4l-9.2,34.7h-1l-9.2-34.7c0.3,2.5,0.5,3.9,0.5,4.4v35.5h-4.7
			v-56.1h4.6l9.1,36.5c0,0.2,0.1,0.7,0.1,1.6c0-0.4,0-0.9,0.1-1.6l9.1-36.5h4.6V281.7z"/>
		<path class="st2" d="M448.7,281.7h-17.9v-56.1h5v51.7h12.9V281.7z"/>
		<path class="st2" d="M473.9,281.7h-18.4v-56.1h18.2v4.4h-13.2V251h12v4.5h-12v21.9h13.4V281.7z"/>
		<path class="st2" d="M503.6,277.7c0,1.2-0.4,2.1-1.1,2.9c-0.7,0.7-1.7,1.1-2.9,1.1h-14.1c-1.2,0-2.1-0.4-2.9-1.1
			c-0.8-0.7-1.1-1.7-1.1-2.9v-14.2h5v13.8h12.1v-13.4l-15.5-18.7c-1.1-1.3-1.6-2.7-1.6-4.3v-11.4c0-1.2,0.4-2.1,1.1-2.9
			c0.8-0.7,1.7-1.1,2.9-1.1h14.1c1.2,0,2.1,0.4,2.9,1.1c0.7,0.7,1.1,1.7,1.1,2.9v13h-5V230h-12.1v11.8l15.6,18.7
			c1,1.2,1.5,2.6,1.5,4.2V277.7z"/>
		<path class="st2" d="M534.3,277.7c0,1.2-0.4,2.1-1.1,2.9c-0.7,0.7-1.7,1.1-2.9,1.1h-14.1c-1.2,0-2.1-0.4-2.9-1.1
			c-0.8-0.7-1.1-1.7-1.1-2.9v-14.2h5v13.8h12.1v-13.4l-15.5-18.7c-1.1-1.3-1.6-2.7-1.6-4.3v-11.4c0-1.2,0.4-2.1,1.1-2.9
			c0.8-0.7,1.7-1.1,2.9-1.1h14.1c1.2,0,2.1,0.4,2.9,1.1c0.7,0.7,1.1,1.7,1.1,2.9v13h-5V230h-12.1v11.8l15.6,18.7
			c1,1.2,1.5,2.6,1.5,4.2V277.7z"/>
		<path class="st2" d="M348,343.5c0,1.2-0.4,2.1-1.1,2.9s-1.7,1.1-2.9,1.1h-13.2v22.3h-5v-56.1H344c1.2,0,2.1,0.4,2.9,1.1
			c0.8,0.7,1.1,1.7,1.1,2.9V343.5z M343,343.1v-25h-12.3v25H343z"/>
		<path class="st2" d="M378.5,369.8h-4.9l-2-12.5h-11.1l-2,12.5h-4.8v-0.1l10-56.1h4.9L378.5,369.8z M370.9,352.9l-4.9-30.4
			l-4.9,30.4H370.9z"/>
		<path class="st2" d="M404.5,318.1h-8.7v51.7h-5v-51.7h-8.7v-4.4h22.4V318.1z"/>
		<path class="st2" d="M429.7,318.1H421v51.7h-5v-51.7h-8.7v-4.4h22.4V318.1z"/>
		<path class="st2" d="M454,369.8h-18.4v-56.1h18.2v4.4h-13.2v20.9h12v4.5h-12v21.9H454V369.8z"/>
		<path class="st2" d="M485.6,369.8h-5.2l-10.4-30l0.7-1h8.9v-20.6h-12.8v51.7h-5v-56.1h18.8c1.2,0,2.1,0.4,2.9,1.1
			c0.7,0.7,1.1,1.7,1.1,2.9V339c0,2.7-1.8,4.1-5.4,4.1c-0.4,0-0.9,0-1.6-0.1c-0.7,0-1.2-0.1-1.5-0.1
			C479.2,351.9,482.4,360.8,485.6,369.8z"/>
		<path class="st2" d="M516.2,369.8h-3.4l-15-41.3v41.3h-4.7v-56.1h3.7l14.7,40.5v-40.5h4.7V369.8z"/>
	</g>
</g>
</svg>
