<svg width="20" height="22" viewBox="0 0 20 22" xmlns="http://www.w3.org/2000/svg"><title>Fill 1</title><path d="M12.12 8.62c0 .43-.07 1.007-.214 1.762-.307 1.58-.704 2.488-1.37 3.128-.515.49-1.25.795-1.916.795-.57 0-1.893-.206-1.893-2.11 0-.432.07-1.008.214-1.76.31-1.563.73-2.505 1.4-3.153a2.75 2.75 0 0 1 1.87-.77c1.2 0 1.92.787 1.92 2.108M10.57 0C4.64 0 0 4.62 0 10.516c0 6.08 4.403 10.49 10.468 10.49h1.26l.295-1.446h-1.29c-2.67 0-4.947-.884-6.587-2.557-1.586-1.62-2.46-3.923-2.46-6.487 0-4.948 3.983-8.973 8.878-8.973 4.35 0 7.39 2.9 7.39 7.053 0 3.54-2.572 5.712-5.09 5.803l1.853-9.22.018-.09h-1.688l-.278 1.3c-.29-.56-1.01-1.45-2.67-1.45a4.33 4.33 0 0 0-2.93 1.1c-.99.85-1.61 2.19-2.02 4.34a11.24 11.24 0 0 0-.22 2.03c0 2.16 1.28 3.46 3.43 3.46 1.115 0 2.02-.42 2.815-1.32l-.243 1.17h1.58c3.96 0 7.06-3.14 7.06-7.13C19.59 3.45 15.96 0 10.56 0" fill="#EF5940" fill-rule="evenodd"/></svg>