<svg width="27" height="28" viewBox="0 0 27 28" xmlns="http://www.w3.org/2000/svg"><title>Fill 1</title><path d="M24.394 14.05v11.144l-5.85-5.547 5.85-5.597zm-12.3 1.496c-.32.13-.598.31-.83.53l-2.49 2.384L1.964 12l10.52-10.063a.822.822 0 0 1 1.166 0l10.463 10.01-6.808 6.51-2.436-2.38a2.59 2.59 0 0 0-.83-.53 2.485 2.485 0 0 0-1.95 0zm.364 1.762c.347-.278.894-.256 1.193-.022l9.43 9.017H3.12l9.34-8.995zM7.56 19.675l-5.82 5.52V14.107l5.82 5.567zM14.87.727c-.23-.22-.51-.4-.83-.53a2.497 2.497 0 0 0-1.943 0c-.32.13-.6.31-.83.53L0 11.505V28h26.133V11.57L14.868.727z" fill="#EF5940" fill-rule="evenodd"/></svg>