<svg width="296" height="220" viewBox="0 0 296 220" xmlns="http://www.w3.org/2000/svg"><title>Artboard</title><g fill="none" fill-rule="evenodd"><g fill="#002F54"><path fill-opacity=".5" d="M122.597 62.27h26.721v-3.442h-26.721zM122.597 71h31.954v-3.442h-31.954zM122.597 79.73h23.407v-3.442h-23.407z"/><path d="M187.084 48.247v23.011h23.003c0-12.709-10.3-23.011-23.003-23.011" fill-opacity=".65"/><path d="M188.804 50.056c.082.007.168.004.25.012.262.024.52.065.78.099.418.055.833.111 1.242.19.272.052.538.115.806.177.388.09.775.187 1.155.299a21.057 21.057 0 0 1 1.89.653c.258.102.514.207.766.319.356.158.705.33 1.051.507.24.123.482.244.717.376.348.195.685.407 1.021.621.216.138.435.269.646.415.357.245.698.513 1.04.779.172.134.35.26.517.4.484.402.953.826 1.398 1.27l.09.09c.439.443.859.906 1.26 1.387.144.173.273.358.412.536.262.334.52.67.763 1.02.15.217.286.443.428.668.209.327.415.656.607.996.136.243.261.493.389.741.172.337.338.676.492 1.022a21.681 21.681 0 0 1 .983 2.687c.107.366.2.736.287 1.112.064.28.132.563.186.848.074.391.128.787.18 1.185.038.28.08.556.107.838.007.077.005.156.012.234h-19.475V50.056zm23.004 21.203c0-13.057-10.174-23.757-23.004-24.646V40.56h-1.72c-9.617 0-18.499 4.407-24.369 12.093l-1.046 1.37 24.833 18.956h21.794c-.692 8.603-6.526 15.764-14.412 18.435h7.477c5.87-4.174 9.855-10.832 10.382-18.435l.065-1.721zM165.802 71.258c0-3.133.698-6.102 1.92-8.784l-2.79-2.13a24.55 24.55 0 0 0-2.571 10.914c0 8.316 4.137 15.67 10.445 20.156h7.477c-8.405-2.847-14.48-10.798-14.48-20.156M69.073 111.302a2.978 2.978 0 0 1 0 5.956c-1.645 0-5.996-1.334-5.996-2.977 0-1.646 4.351-2.98 5.996-2.98M64.534 100.98a2.979 2.979 0 0 1 3.489 4.826c-1.332.963-5.64 2.434-6.604 1.101-.962-1.332 1.783-4.964 3.115-5.928M68.262 122.699a2.976 2.976 0 1 1-3.515 4.806c-1.327-.97-4.051-4.617-3.081-5.945.97-1.327 5.27.167 6.596 1.139"/><path d="M49.697 145.167c-1.925.438-3.913.89-5.792.89-5.124 0-10.201-3.218-12.751-6.21l-.245-.284c-4.662-5.463-12.467-14.604-12.467-34.545 0-21.026 14.945-22.66 19.526-22.66 5.302 0 9.6 1.775 14.15 3.655 1.01.416 2.017.833 3.036 1.229l.624.242.624-.242c1.016-.396 2.025-.813 3.033-1.23 4.552-1.879 8.85-3.654 14.153-3.654 4.58 0 19.526 1.634 19.526 22.66 0 19.94-7.805 29.082-12.467 34.545l-.245.284c-2.549 2.992-7.627 6.21-12.75 6.21-1.879 0-3.869-.452-5.792-.89-1.992-.454-4.053-.922-6.082-.922-2.03 0-4.09.468-6.081.922m68.66 48.12c-27.913 0-51.423-19.13-58.174-44.967.303.068.605.133.914.205 2.108.48 4.29.975 6.554.975 6.25 0 12.222-3.726 15.37-7.418l.242-.284c4.645-5.442 13.293-15.57 13.293-36.78 0-24.844-19.133-26.103-22.968-26.103-5.985 0-10.805 1.99-15.465 3.917-.781.32-1.561.643-2.345.956-.786-.313-1.565-.635-2.346-.958-4.661-1.924-9.48-3.915-15.464-3.915-3.835 0-22.968 1.259-22.968 26.103 0 21.21 8.648 31.338 13.293 36.78l.242.284c3.149 3.693 9.122 7.418 15.37 7.418 2.265 0 4.445-.496 6.555-.975 1.669-.38 3.247-.725 4.728-.804 6.643 28.76 32.432 50.27 63.169 50.27 15.108 0 29.018-5.212 40.055-13.912v-6.127c-10.646 9.527-24.683 15.335-40.055 15.335"/><path d="M58.211 78.507V45.493h47.214v-4.705H53.508v37.818l2.27.915z"/><path d="M93.321 93.63c1.128 3.092 1.806 6.858 1.806 11.45 0 21.476-8.812 31.414-13.458 36.864-2.955 3.465-8.652 6.989-14.42 6.989-4.164 0-8.33-1.86-12.176-1.86-3.844 0-8.01 1.86-12.176 1.86-5.767 0-11.463-3.524-14.418-6.99-1.462-1.712-3.333-3.868-5.21-6.686 2.82 6.085 6.282 10.064 8.66 12.854 2.957 3.465 8.652 6.988 14.42 6.988 4.166 0 8.33-1.86 12.176-1.86s8.01 1.86 12.176 1.86c5.77 0 11.464-3.523 14.42-6.988 4.645-5.45 13.458-15.388 13.458-36.865 0-8.25-2.179-13.845-5.258-17.615" fill-opacity=".2"/><path d="M26.137 84.418c5.725-3.894 9.827-4.176 15.324-2.801 5.495 1.373 16.852 4.021 16.852 4.021v48.206c0 6.655 1.099 11.329 1.099 11.52 0 .687-3.634.603-3.634.603s-6.91 2.69-11.873 1.812c-4.965-.877-14.123-4.313-21.68-16.454-5.038-8.095-6.64-25.198-5.037-31.153 1.603-5.956 3.713-10.234 5.651-12.577l3.298-3.177z" fill-opacity=".5"/><path d="M41.689 134.303c-10.534-2.176-23.928-16.15-24.785-32.715-1.074 6.897.635 22.208 5.322 29.737 7.556 12.14 16.714 15.577 21.68 16.454 4.962.878 11.871-1.812 11.871-1.812s3.635.083 3.635-.604c0-.178-.951-4.24-1.083-10.17-1.072.154-9.345.617-16.64-.89" fill-opacity=".2"/><path d="M120.66 158.213h3.67v-7.342h-3.67zM116.988 165.556h3.67v-7.343h-3.67zM113.318 172.899h3.67v-7.342h-3.67zM105.98 176.57h7.338V172.9h-7.338zM102.309 172.899h3.67v-7.342h-3.67zM105.98 165.556h3.67v-7.343h-3.67zM109.65 158.212h3.668v-7.342h-3.668zM116.989 143.527h-11.01v-3.671h-3.67v3.67h-3.67v3.672h14.68v3.672h3.67zM124.33 150.87h3.668v-3.672h-3.669zM127.998 154.542h3.67v-3.671h-3.67zM105.98 139.856h3.67v-3.67h-3.67zM109.65 136.184h3.668v-3.671h-3.668zM113.318 132.513h3.67v-3.672h-3.67zM116.99 128.841h3.67v-3.67h-3.67zM120.66 125.17h3.67v-3.67h-3.67zM124.33 121.499h3.668v-3.672h-3.669zM127.998 117.827h3.67v-3.67h-3.67zM135.338 106.813v3.671h-3.67v3.672h3.67v40.386h-3.67v3.671h3.67v3.671h3.67v-55.071zM132.51 44.492c0 .348-.035.684-.107 1.007-.072.323-.195.639-.368.943a4.815 4.815 0 0 1-.683.908c-.281.298-.625.599-1.032.897l-2.515 1.905h4.508a.47.47 0 0 1 .342.144.47.47 0 0 1 .143.34v1.906a.469.469 0 0 1-.143.342.47.47 0 0 1-.342.143h-9.483a.467.467 0 0 1-.34-.143.469.469 0 0 1-.144-.342v-1.545c0-.193.04-.383.116-.576.08-.19.214-.352.405-.484l5.369-3.844c.42-.312.683-.597.792-.855.107-.257.16-.506.16-.746 0-.082-.015-.2-.045-.35a1.158 1.158 0 0 0-.206-.449 1.353 1.353 0 0 0-.458-.386c-.198-.108-.464-.162-.8-.162-.334 0-.606.057-.816.17a1.561 1.561 0 0 0-.485.388 1.54 1.54 0 0 0-.25.44c-.054.15-.095.26-.119.33-.06.17-.152.28-.277.334a1.11 1.11 0 0 1-.44.081h-2.21a.376.376 0 0 1-.278-.117.377.377 0 0 1-.117-.279c.012-.501.12-1.002.324-1.5.203-.497.511-.949.924-1.355.414-.409.928-.738 1.545-.99.616-.25 1.344-.376 2.181-.376.792 0 1.488.117 2.094.35.603.233 1.11.545 1.516.934.408.39.716.84.926 1.348.209.51.313 1.04.313 1.59"/><path fill-opacity=".2" d="M111.928 34.381H221.04v-7.605H111.928z"/><path d="M33.701 61.07c-1.053 0-1.76.263-2.043.6-.162.191-.292.716-.133 1.565.405 2.171 2.45 5.26 6.106 7.27 3.094 1.697 5.84 2.34 9.58 2.934-.208-2.958-1.149-5.375-5.11-8.705-2.195-1.845-4.65-3.093-6.919-3.516a8.058 8.058 0 0 0-1.48-.148zM50.71 77.445l-1.972-.29c-4.512-.667-8.41-1.243-12.762-3.634-4.08-2.241-7.156-6.03-7.834-9.653-.332-1.773-.019-3.342.882-4.412 1.33-1.586 3.809-2.182 6.789-1.622 2.842.53 5.861 2.044 8.503 4.265 5.924 4.978 6.394 8.832 6.394 13.352v1.994zM224.445 20h-116.43a2.863 2.863 0 0 0-2.864 2.865v2.059a2.863 2.863 0 0 0 2.863 2.864h2.107v83.815a6.231 6.231 0 0 0 6.225 6.227h4.12v-3.443h-4.12a2.786 2.786 0 0 1-2.783-2.784V27.788h105.29v63.627h3.441V27.788h2.151a2.864 2.864 0 0 0 2.865-2.864v-2.06A2.864 2.864 0 0 0 224.445 20M142.897 117.83h20.052v-3.443h-20.052z"/><path fill-opacity=".5" d="M180.391 133.178h61.524v-3.443H180.39zM180.391 141.909h74.229v-3.443H180.39zM180.391 150.639h68.505v-3.443h-68.505zM180.391 159.37h71.818v-3.444h-71.818zM180.391 168.098h77.05v-3.443h-77.05zM180.391 176.828h68.505v-3.443h-68.505zM180.391 185.558h75.374v-3.443H180.39zM180.391 194.288h40.247v-3.443H180.39z"/><path fill-opacity=".5" d="M166.416 195.236h-3.441V91.4h116.511v27.326h-3.441V94.843H166.416z"/><path d="M198.082 117.2h12.823v-5.164h-12.823zM215.713 117.2h5.953v-5.164h-5.953zM252.808 117.2h9.68v-5.164h-9.68zM180.355 117.2h13.032v-5.164h-13.032zM226.819 117.2h19.922v-5.164h-19.922z"/><path fill-opacity=".2" d="M100.948 144.862l36.168-36.216.172 51.374-11.125-10.985-3.3 3.25-.788 3.05-9.895 19.796-4.774-.51-3.733-4.559 11.48-22.864-.878-2.3z"/></g></g></svg>