<svg width="296" height="220" viewBox="0 0 296 220" xmlns="http://www.w3.org/2000/svg"><title>Artboard</title><g fill="none" fill-rule="evenodd"><g fill="#002F54"><path fill-opacity=".2" d="M189.332 138.73l-7.596-.337 17.575-25.216-12.163-45.081 7.106.638 15.17 60.116z"/><path d="M65.677 207.29s-7.188-3.793-15.458-12.46c-6.277-6.577-9.934-15.163-9.934-15.163l27.092-16.256 19.275 31.396-20.975 12.484z" fill-opacity=".35"/><path d="M101.686 165.475c-.372 5.764-3.42 11.268-8.706 14.526l-36.687 21.79 8.828 5.186 29.723-17.635c8.165-5.035 11.02-15.426 6.842-23.867" fill-opacity=".2"/><path d="M153.94 79.33c-10.111.192-20.3-8.142-22.754-18.615-2.456-10.474 3.751-19.12 13.863-19.313 10.111-.192 20.298 8.143 22.754 18.617 2.457 10.474-3.751 19.12-13.863 19.311z" fill-opacity=".65"/><path d="M145.396 43.2c-.105 0-.21 0-.313.002-4.133.079-7.669 1.748-9.959 4.7-2.524 3.256-3.301 7.66-2.19 12.4 2.243 9.569 11.466 17.232 20.66 17.233.104 0 .209-.001.312-.004 4.133-.078 7.67-1.748 9.96-4.701 2.522-3.255 3.3-7.658 2.19-12.399-2.245-9.568-11.468-17.232-20.66-17.232m8.208 37.934c-10.775 0-21.563-8.896-24.166-20.007-1.345-5.736-.307-11.36 2.85-15.431 2.968-3.829 7.489-5.992 12.728-6.092 10.925-.244 21.903 8.768 24.536 20.004 1.345 5.737.306 11.36-2.85 15.432-2.969 3.829-7.49 5.992-12.728 6.09-.122.003-.247.004-.37.004"/><path d="M186.87 91.997c-5.215-3.016-10.69-5.136-16.418-6.362a89.946 89.946 0 0 0-4.29-.811c-2.95 1.636-6.416 2.607-10.305 2.681-3.888.074-7.779-.757-11.466-2.267a68.853 68.853 0 0 0-3.873.965c-5.106 1.432-9.54 3.74-13.303 6.926-3.765 3.186-5.196 6.698-4.296 10.538l1.889 8.471c8.846-2.222 18.722-2.92 37.198-1.756 14.303.9 27.778-.717 35.325-4.424l-1.133-4.109c-.9-3.838-4.11-6.837-9.327-9.852" fill-opacity=".65"/><path d="M152.792 71.181c-4.08 0-8.032-2.41-9.833-5.998l3.21-1.618c1.186 2.365 3.91 4.016 6.623 4.016 2.453 0 4.247-1.366 4.465-3.4l3.572.385c-.418 3.895-3.722 6.615-8.037 6.615"/><path fill-opacity=".5" d="M164.575 28.148l-5.153-1.584L166.947 2l5.153 1.585zM189.843 185.87l-7.018-26.633-11.592 9.107-9.252-39.581 5.247-1.232 7.326 31.342 11.39-8.949 9.11 34.567z"/><path d="M114.648 135.46c8.268-2.796 24.315-6.203 36.947-5.686.256-5.492.208-11.449.208-11.449l-20.335 2.191-19.318 4.807 2.498 10.136z" fill-opacity=".2"/><path d="M254.321 99.783l-1.366-5.342c.853.096 1.572.158 2.074.178 1.332.054 1.845.676 2.04 1.186.308.809.555 1.849.654 2.474.2 1.243-.06 1.291-.312 1.338-1.256.234-1.805.236-3.09.166m1.54 3.274l6.83 5.927 2.117-2.45-5.138-4.456c.884-.68 1.623-1.943 1.246-4.311-.12-.75-.407-2.016-.828-3.118-.744-1.952-2.587-3.172-4.93-3.267-.81-.032-2.392-.206-4.13-.455l-2.395-.342 5.875 22.99 3.132-.803-2.482-9.712c.239.006.47.004.702-.003M222.155 108.335c-.667-2.724-4.828-19.124-7.135-28.206a77.567 77.567 0 0 0-3.964-1.012c2.148 8.455 6.896 27.16 7.61 30.076.356 1.452.326 2.534-.083 3.047-.444.556-1.528.62-2.162.608-2.428-.047-3.1-.697-3.994-3.865-.844-2.989-5.563-21.6-7.927-30.946a26.198 26.198 0 0 0-3.73-.091c2.271 8.985 7.3 28.835 8.2 32.016.911 3.227 2.232 6.385 7.38 6.485.07.002.139.002.206.002 2.692 0 4.112-1.06 4.83-1.96 1.156-1.447 1.415-3.517.77-6.154M250.83 110.747c-2.198 1.007-4.89 1.3-6.456 1.376l-1.95-7.778c.854.127 1.864.235 2.87.235.66 0 1.317-.045 1.916-.163l-.67-3.415c-1.47.292-3.888-.108-5.042-.359l-2.164-8.634c2.405.799 4.917 1.514 7.285 1.797l-.909-3.657c-2.6-.487-5.398-1.464-8.12-2.42l-3.191-1.122 7.261 28.975 1.31.043c.032.002.173.006.403.006 1.23 0 4.99-.122 8.31-1.458l-.852-3.426zM237.096 110.622c-.692-2.95-.9-3.758-1.338-5.45l-.7-2.732c-.528-2.077-2.548-4.41-6.635-4.728-.97-.075-2.45-1.384-2.779-2.457-.4-1.321-.729-2.775-1.075-4.316-.18-.802-.362-1.607-.554-2.398-.263-1.07-.08-1.719.153-1.95.272-.267.928-.293 1.764-.073 1.302.345 1.928 1.036 2.412 2.609l3.937.946c-.56-2.82-1.496-5.994-5.432-7.036-2.876-.758-4.492.29-5.197.986-1.25 1.228-1.66 3.188-1.127 5.374.188.77.364 1.553.54 2.333.345 1.537.702 3.127 1.144 4.577.769 2.518 3.487 4.805 5.936 4.994 2.196.17 3.221 1.198 3.432 2.027l.704 2.747c.43 1.668.636 2.462 1.318 5.372.099.42.215 1.183-.12 1.562-.287.32-.962.463-1.779.37-1.266-.142-1.922-.858-2.383-2.733l-3.724-.216c.377 2.129 1.352 6.035 5.705 6.527.304.033.6.05.888.05 1.655 0 3.047-.557 3.978-1.609.74-.834 1.503-2.341.932-4.776"/><path fill-opacity=".5" d="M248.688 152.633l-30.307-27.904 3.645-3.976 30.307 27.905zM249.937 68.41h-43.012v-5.4l34.326.001-6.6-13.342 55.287-.05.005 5.4-46.611.043zM178.089 52.485l-2.425-4.823 62.973-31.785 2.425 4.82zM74.187 60.382L24.11 50.896l1.001-5.306 43.688 8.275V41.812l50.8 9.562-.994 5.307-44.418-8.36z"/><path d="M38.034 76.046h43.783l-1.082-4.92h-47.61v22.606l4.909-2.485zM102.591 81.183L96.247 55.83l-3.886-.732 6.942 27.745zM94.389 212.041a56.89 56.89 0 0 1-24.208-5.373l26.737-16.125c.626-.385 1.22-.806 1.791-1.25a22.25 22.25 0 0 0 16.364-.721l.993 3.963a4.694 4.694 0 0 0 4.543 3.552c.375 0 .757-.046 1.139-.142l4.45-1.118a4.654 4.654 0 0 0 2.876-2.142 4.663 4.663 0 0 0 .527-3.55l-3.066-12.255c2.626-6.198 2.467-13.5-1.104-19.808l-3.373 1.916-8.228-32.883c14.068-4.956 26.11-5.97 36.913-5.975v36.597c0 30.501-25.28 55.314-56.354 55.314zm-41.876-37.614L69.872 202.7l-3.42 2.036c-10.101-5.685-18.244-14.345-23.181-24.763l9.242-5.546zm14.263-8.559l17.39 28.324-11.206 6.67-17.365-28.284 11.181-6.71zm9.743-6.011a22.039 22.039 0 0 0 2.828 8.597l8.8-5.115a11.836 11.836 0 0 1-1.578-6.648c1.206.018 2.416.156 3.617.443a16.486 16.486 0 0 1 10.29 7.464 16.557 16.557 0 0 1 2.01 12.569 16.54 16.54 0 0 1-7.467 10.321l-7.677 4.85-17.394-28.33 6.57-4.151zm15.935-12.761c3.959-2.3 8.691-2.043 12.305.253l7.731 30.899c-.188.121-.37.25-.568.362a11.944 11.944 0 0 1-6.59 1.542 20.131 20.131 0 0 0-1.797-17.44c-2.826-4.602-7.27-7.828-12.516-9.08a20.345 20.345 0 0 0-3.678-.519 11.824 11.824 0 0 1 5.113-6.017zm31.51 34.317l2.152 8.598c.07.28.026.572-.124.824-.151.252-.388.43-.667.5l-4.451 1.119c-.57.146-1.18-.22-1.324-.795l-1.223-4.89a22.175 22.175 0 0 0 5.637-5.356zm38.156-72.828c-16.49-1.037-26.826-.656-35.956 1.383l-1.497-6.714c-.739-3.152.474-6.014 3.706-8.75 3.549-3.004 7.797-5.213 12.629-6.568a67.287 67.287 0 0 1 3.24-.82c3.9 1.524 7.815 2.258 11.648 2.188 3.831-.072 7.386-.948 10.579-2.604 1.203.205 2.414.44 3.608.695 5.519 1.18 10.867 3.254 15.895 6.16h.001c5.139 2.97 7.753 5.65 8.49 8.759.105.381.206.752.312 1.13l.415 1.508c-7.373 3.082-19.817 4.469-33.07 3.633zm40.522 22.417c-5.453 2.939-10.165 5.476-17.006 5.903-.55.038-.97.045-1.298.04l17.092-22.767-.044-.033.046-.023-.388-1.42c-.506-1.855-1.04-3.797-1.586-5.784l.001-.002-.336-1.219-1.237-4.486c-.05-.193-.1-.387-.16-.576a12204.75 12204.75 0 0 0-4.896-17.649 17888.39 17888.39 0 0 1-3.645-13.134c5.282-.37 10.043-.102 14.448.585v-3.655c-4.68-.686-9.764-.914-15.426-.461-1.263-4.56-2.5-9.045-3.69-13.386l-3.273 1.65a9371.5 9371.5 0 0 0 8.125 29.366l2.562 9.223c-1.198-.913-2.577-1.82-4.163-2.736-5.354-3.095-11.054-5.304-16.94-6.564a93.242 93.242 0 0 0-4.376-.826l-.615-.101-.545.302c-2.82 1.565-6.005 2.39-9.469 2.456-3.52.062-7.132-.651-10.752-2.133l-.516-.212-.546.118a71.26 71.26 0 0 0-3.976.993c-5.331 1.494-10.033 3.944-13.978 7.283-4.304 3.644-5.948 7.79-4.89 12.305l2.292 10.274 1.789-.449c9.193-2.31 19.468-2.786 36.648-1.706 13.72.862 26.277-.53 34.255-3.74.354 1.283.7 2.546 1.036 3.774-11.493 5.379-22.558 5-35.298 4.562-13.802-.474-29.41-.989-48.932 5.828l-7.38-29.49-3.288 1.66 16.528 66.06-2.363 1.342c2.465 4.355 1.93 9.594-.946 13.324L96.091 97.899l-3.289 1.66 9.01 36.013a21.898 21.898 0 0 0-14.463 2.707c-6.522 3.791-10.371 10.423-10.907 17.427-.232.131-.47.245-.698.385l-33.922 20.536a54.082 54.082 0 0 1-3.789-19.9v-52.036l-4.908 2.483v49.553c0 33.214 27.482 60.234 61.264 60.234 33.78 0 61.263-27.02 61.263-60.234V120.19c2.079.046 4.118.114 6.113.183 4.59.157 9.089.305 13.548.165l4.46 16.87c.654 2.469 2.257 3.14 4.77 3.14.416 0 .86-.019 1.326-.05 7.616-.475 12.89-3.316 18.474-6.323 3.949-2.128 7.986-4.288 13.118-5.811l-3.04-2.8c-4.571 1.567-8.29 3.56-11.779 5.44zM77.943 40.175l3.887.732-2.935-11.734a1.08 1.08 0 0 1 .125-.824c.15-.253.39-.43.667-.5l4.452-1.119a1.073 1.073 0 0 1 .823.125c.253.151.43.389.5.67l3.692 14.76 3.887.733-2.032-8.126c31.553-8.12 44.828-4.364 57.66-.722 8.246 2.34 16.062 4.555 27.986 3.484.442 1.657.902 3.367 1.374 5.12l3.275-1.653c-.544-2.017-1.072-3.989-1.572-5.871l-.397-1.497-1.535.17c-12.111 1.337-19.902-.876-28.153-3.218-12.674-3.596-27.022-7.654-59.51.695l-1.191-4.751a4.651 4.651 0 0 0-2.138-2.881 4.644 4.644 0 0 0-3.543-.53l-4.451 1.118a4.656 4.656 0 0 0-2.876 2.143 4.663 4.663 0 0 0-.527 3.55l2.532 10.126zM276.932 83.818l-.07-2.198-2.136.503c-19.379 4.562-31.675-.89-44.696-6.663-2.875-1.275-5.776-2.558-8.777-3.75H209.83c6.819 1.758 12.835 4.42 18.747 7.04 12.525 5.555 25.463 11.292 44.803 7.353.046 12.153-2.857 21.31-8.642 27.24-8.334 8.541-21.696 9.42-31.07 9.34a69.234 69.234 0 0 0-4.554.114l3.793 3.493c.246 0 .48-.01.731-.007 10.034.094 24.377-.899 33.67-10.423 6.834-7.007 10.072-17.787 9.624-32.042"/><path d="M81.15 52.988l8.667 34.643 3.289-1.66-8.069-32.25z"/><path d="M96.402 31.65l-9.15 1.255-1.995-7.971-3.64.916 3.944 15.76 13.991 2.633-3.15-12.593zm13.907 93.409l8.397-4.267-7.621-30.461-11.838 5.975 24.418 97.588 3.64-.914-16.996-67.921zm-7.55-68.003l-13.991-2.634 7.495 29.956 11.838-5.976-5.342-21.346z" fill-opacity=".2"/><path fill-opacity=".5" d="M51.404 116.762V94.23L8.427 115.972 6 111.152l50.792-25.698v22.541l58.201-29.377 2.425 4.821z"/></g></g></svg>