<svg width="296" height="220" viewBox="0 0 296 220" xmlns="http://www.w3.org/2000/svg"><title>Artboard</title><g fill="none" fill-rule="evenodd"><g fill="#002F54"><path d="M165.502 7.145h36.646a3.86 3.86 0 0 1 3.857 3.864v7.757h-44.36v-7.757a3.86 3.86 0 0 1 3.857-3.864M202.148 81.715h-36.646a3.86 3.86 0 0 1-3.857-3.864V66.127h44.36V77.85a3.86 3.86 0 0 1-3.857 3.864" fill-opacity=".2"/><path d="M251.915 168.927c0 7.164-5.796 12.971-12.947 12.971-7.15 0-12.945-5.807-12.945-12.97 0-7.164 5.796-12.971 12.945-12.971 7.15 0 12.947 5.807 12.947 12.97" fill-opacity=".5"/><path d="M238.969 157.716c-6.17 0-11.19 5.03-11.19 11.211 0 6.182 5.02 11.211 11.19 11.211s11.19-5.03 11.19-11.21c0-6.182-5.02-11.212-11.19-11.212m0 25.942c-8.108 0-14.703-6.609-14.703-14.73 0-8.123 6.595-14.731 14.703-14.731 8.107 0 14.702 6.608 14.702 14.73s-6.595 14.73-14.702 14.73"/><path d="M260.06 190.95c-3.176-2.122-6.678-3.636-10.508-4.546-.512-.12-1.002-.21-1.504-.316a19.255 19.255 0 0 1-9.08 2.267c-3.28 0-6.37-.824-9.08-2.267-.499.105-.99.195-1.502.316-3.83.91-7.332 2.424-10.508 4.545-3.174 2.121-4.763 4.495-4.763 7.12v7.756h51.706v-7.756c0-2.625-1.586-4.999-4.762-7.12" fill-opacity=".5"/><path d="M124.23 78.576H27.91v-4.951a2.847 2.847 0 0 1 2.841-2.846h90.638a2.847 2.847 0 0 1 2.84 2.846v4.95zm-96.32 78.043h96.32V82.095H27.91v74.524zm99.832-82.994c0-3.51-2.85-6.366-6.353-6.366H30.751c-3.503 0-6.353 2.857-6.353 6.366v86.514h82.985c-9.513 16.475-27.28 27.592-47.602 27.592-30.318 0-54.98-24.712-54.98-55.088V52.309h109.96v11.113h4.8V47.499H0v85.144c0 33.028 26.817 59.898 59.781 59.898 23.071 0 43.11-13.176 53.071-32.402h14.89V73.625z"/><path d="M34.978 74.69c0 1.13-.915 2.046-2.044 2.046a2.044 2.044 0 0 1-2.042-2.047c0-1.13.915-2.047 2.042-2.047 1.13 0 2.044.917 2.044 2.047M41.172 74.69c0 1.13-.915 2.046-2.044 2.046a2.044 2.044 0 0 1-2.042-2.047c0-1.13.915-2.047 2.042-2.047 1.13 0 2.044.917 2.044 2.047M47.366 74.69c0 1.13-.915 2.046-2.042 2.046a2.045 2.045 0 0 1-2.044-2.047c0-1.13.915-2.047 2.044-2.047 1.127 0 2.042.917 2.042 2.047M40.885 115.791h-3.513v-25.51h74.382V93.8h-70.87zM37.372 146.702h66.293v-3.52H37.372z" fill-opacity=".5"/><path d="M86.056 99.74c-4.832 0-8.523 3.324-10.615 5.865-2.094-2.541-5.785-5.865-10.618-5.865-6.635 0-11.409 4.621-11.409 11.433 0 6.313 4.678 10.508 8.907 14.512 2.666 2.526 9.442 9.078 12.061 11.613a1.518 1.518 0 0 0 2.115 0c2.62-2.535 9.395-9.087 12.064-11.613 4.228-4.004 8.905-8.2 8.905-14.512 0-6.812-4.775-11.433-11.41-11.433"/><path d="M59.908 128.243l-.437-.414c-.346-.326-.701-.663-1.057-1.004H37.372v3.52H62.11c-.865-.832-1.632-1.562-2.201-2.102M92.466 126.825c-.357.34-.71.678-1.056 1.005l-.437.413c-.572.54-1.337 1.27-2.202 2.101h24.74v-3.52H92.466zM66.95 135.004H37.371v3.52h33.22a3811.44 3811.44 0 0 0-3.643-3.52M80.289 138.523h13.924v-3.52H83.93a5863.52 5863.52 0 0 0-3.641 3.52" fill-opacity=".5"/><path d="M127.467 71.917a1.762 1.762 0 0 1-1.033-3.184l1.421-1.034a1.755 1.755 0 0 1 2.453.391 1.762 1.762 0 0 1-.39 2.458l-1.42 1.033a1.746 1.746 0 0 1-1.031.336M144.807 59.307a1.762 1.762 0 0 1-1.033-3.184l2.81-2.042a1.754 1.754 0 0 1 2.452.39c.57.787.396 1.887-.39 2.458l-2.809 2.043a1.746 1.746 0 0 1-1.03.335m-9.364 6.81a1.762 1.762 0 0 1-1.033-3.184l2.81-2.043a1.754 1.754 0 0 1 2.453.39 1.76 1.76 0 0 1-.39 2.459l-2.81 2.042a1.746 1.746 0 0 1-1.03.336M154.17 52.499a1.762 1.762 0 0 1-1.033-3.184l1.422-1.034a1.755 1.755 0 0 1 2.453.39 1.762 1.762 0 0 1-.39 2.458l-1.421 1.034a1.746 1.746 0 0 1-1.03.336M127.498 107.965a1.759 1.759 0 0 1-.28-3.496l1.733-.282a1.76 1.76 0 1 1 .566 3.474l-1.735.28c-.096.017-.19.024-.284.024M205.194 95.304a1.759 1.759 0 0 1-.279-3.496l3.402-.555a1.759 1.759 0 1 1 .562 3.474l-3.402.553c-.095.017-.19.024-.283.024m-11.338 1.848a1.76 1.76 0 0 1-.28-3.496l3.4-.555a1.76 1.76 0 1 1 .566 3.474l-3.4.554a1.825 1.825 0 0 1-.286.023m-11.337 1.847a1.76 1.76 0 0 1-.28-3.497l3.401-.554a1.755 1.755 0 0 1 2.015 1.455 1.759 1.759 0 0 1-1.45 2.02l-3.402.553c-.096.016-.19.023-.284.023m-11.338 1.848a1.756 1.756 0 0 1-1.73-1.478 1.759 1.759 0 0 1 1.451-2.02l3.4-.553a1.759 1.759 0 1 1 .563 3.474l-3.4.554c-.095.015-.19.023-.284.023m-11.338 1.847a1.759 1.759 0 0 1-.28-3.496l3.403-.554a1.76 1.76 0 0 1 .562 3.474l-3.401.553c-.095.016-.19.023-.284.023m-11.337 1.849a1.76 1.76 0 0 1-.28-3.497l3.4-.555c.97-.154 1.86.495 2.016 1.454a1.759 1.759 0 0 1-1.451 2.02l-3.4.554c-.097.015-.191.024-.285.024m-11.339 1.846a1.76 1.76 0 0 1-.28-3.496l3.402-.555c.97-.152 1.86.495 2.016 1.455a1.76 1.76 0 0 1-1.45 2.02l-3.402.554a1.836 1.836 0 0 1-.286.022M216.531 93.457a1.76 1.76 0 0 1-.28-3.496l1.733-.284a1.76 1.76 0 1 1 .566 3.474l-1.734.282c-.096.017-.191.024-.285.024M129.61 147.478c-.26 0-.523-.058-.772-.18l-1.577-.776a1.761 1.761 0 0 1-.802-2.355 1.754 1.754 0 0 1 2.35-.804l1.577.775a1.759 1.759 0 1 1-.775 3.34M140.046 152.613c-.26 0-.524-.059-.773-.18l-3.131-1.541a1.763 1.763 0 0 1-.803-2.356 1.756 1.756 0 0 1 2.35-.804l3.132 1.54c.87.429 1.23 1.484.803 2.357-.306.621-.93.984-1.578.984m10.434 5.134c-.26 0-.523-.058-.772-.18l-3.131-1.541a1.76 1.76 0 0 1-.802-2.355 1.754 1.754 0 0 1 2.35-.804l3.13 1.54c.87.43 1.231 1.483.804 2.355-.306.623-.93.985-1.579.985m10.434 5.135c-.26 0-.523-.058-.773-.18l-3.13-1.541a1.76 1.76 0 0 1 1.55-3.159l3.128 1.54a1.76 1.76 0 0 1-.775 3.34m10.435 5.135c-.259 0-.523-.059-.773-.18l-3.13-1.541a1.762 1.762 0 0 1-.803-2.356 1.754 1.754 0 0 1 2.351-.804l3.13 1.54a1.762 1.762 0 0 1-.775 3.34m10.435 5.136c-.259 0-.524-.059-.773-.18l-3.13-1.541a1.762 1.762 0 0 1-.803-2.356 1.755 1.755 0 0 1 2.351-.804l3.131 1.54a1.761 1.761 0 0 1-.776 3.34m10.436 5.135a1.76 1.76 0 0 1-.774-.181l-3.13-1.54a1.76 1.76 0 0 1-.803-2.355 1.754 1.754 0 0 1 2.351-.804l3.131 1.54a1.76 1.76 0 0 1-.775 3.34m10.435 5.135c-.26 0-.525-.059-.773-.182l-3.131-1.54a1.761 1.761 0 0 1-.803-2.355 1.756 1.756 0 0 1 2.35-.804l3.132 1.54a1.76 1.76 0 0 1-.775 3.34M211.534 187.79a1.75 1.75 0 0 1-.773-.18l-1.576-.776a1.761 1.761 0 0 1-.802-2.356 1.756 1.756 0 0 1 2.35-.803l1.576.775c.872.43 1.231 1.483.804 2.356-.306.623-.93.984-1.579.984M148.812 114.394c-.397 0-.795-.133-1.123-.408l-2.698-2.254a1.762 1.762 0 0 1-.225-2.477 1.752 1.752 0 0 1 2.473-.226l2.698 2.254a1.76 1.76 0 0 1-1.125 3.111m8.995 7.511a1.74 1.74 0 0 1-1.123-.407l-2.699-2.254a1.761 1.761 0 0 1-.225-2.479 1.753 1.753 0 0 1 2.473-.225l2.7 2.254c.744.622.845 1.733.224 2.479a1.752 1.752 0 0 1-1.35.632m8.993 7.512a1.75 1.75 0 0 1-1.122-.407l-2.698-2.254a1.763 1.763 0 0 1-.226-2.479 1.753 1.753 0 0 1 2.474-.225l2.698 2.254c.746.622.846 1.731.226 2.479a1.753 1.753 0 0 1-1.352.632M201.888 80.78h-35.412a2.851 2.851 0 0 1-2.845-2.851V67.094h41.104V77.93a2.852 2.852 0 0 1-2.847 2.85zm-38.256-17.205h41.103v-43.36h-41.103v43.36zm2.84-55.056h35.416a2.853 2.853 0 0 1 2.847 2.851v5.324H163.63v-5.328a2.847 2.847 0 0 1 2.84-2.847zM201.888 5h-35.416c-3.504 0-6.354 2.856-6.354 6.367v66.563c0 3.512 2.853 6.37 6.358 6.37h35.412c3.506 0 6.36-2.858 6.36-6.37V11.37c0-3.512-2.854-6.37-6.36-6.37z"/><path d="M188.892 73.855a4.715 4.715 0 0 1-4.71 4.72 4.715 4.715 0 0 1-4.71-4.72 4.714 4.714 0 0 1 4.71-4.719c2.601 0 4.71 2.112 4.71 4.719M186.64 14.582h-4.914c-.944 0-1.71-.768-1.71-1.715v-.265c0-.946.766-1.714 1.71-1.714h4.913c.945 0 1.711.768 1.711 1.714v.265c0 .947-.766 1.715-1.71 1.715M174.177 33.727h-4.98a2.163 2.163 0 0 1-2.162-2.165V26.57c0-1.195.968-2.164 2.161-2.164h4.981c1.194 0 2.162.969 2.162 2.164v4.992a2.163 2.163 0 0 1-2.162 2.165" fill-opacity=".5"/><path d="M186.674 33.727h-4.982a2.163 2.163 0 0 1-2.162-2.165V26.57c0-1.195.969-2.164 2.162-2.164h4.982c1.193 0 2.16.969 2.16 2.164v4.992a2.162 2.162 0 0 1-2.16 2.165" fill-opacity=".2"/><path d="M199.17 33.727h-4.983c-1.192 0-2.16-.97-2.16-2.165V26.57c0-1.195.968-2.164 2.16-2.164h4.976c1.197 0 2.168.971 2.168 2.17v4.986a2.163 2.163 0 0 1-2.162 2.165" fill-opacity=".35"/><path d="M174.177 46.563h-4.98a2.163 2.163 0 0 1-2.162-2.165v-4.992c0-1.195.968-2.164 2.161-2.164h4.981c1.194 0 2.162.969 2.162 2.164v4.992a2.163 2.163 0 0 1-2.162 2.165" fill-opacity=".2"/><path d="M186.674 46.563h-4.982a2.163 2.163 0 0 1-2.162-2.165v-4.992c0-1.195.969-2.164 2.162-2.164h4.982c1.193 0 2.16.969 2.16 2.164v4.992a2.162 2.162 0 0 1-2.16 2.165"/><path d="M199.17 46.563h-4.983c-1.192 0-2.16-.97-2.16-2.165v-4.992c0-1.195.968-2.164 2.16-2.164h4.976c1.197 0 2.168.971 2.168 2.17v4.986a2.163 2.163 0 0 1-2.162 2.165" fill-opacity=".35"/><path d="M174.177 59.4h-4.98a2.163 2.163 0 0 1-2.162-2.165v-4.992c0-1.196.968-2.165 2.161-2.165h4.981c1.194 0 2.162.97 2.162 2.165v4.992a2.163 2.163 0 0 1-2.162 2.164" fill-opacity=".5"/><path d="M186.674 59.4h-4.982a2.163 2.163 0 0 1-2.162-2.165v-4.992c0-1.196.969-2.165 2.162-2.165h4.982c1.193 0 2.16.97 2.16 2.165v4.992a2.162 2.162 0 0 1-2.16 2.164" fill-opacity=".35"/><path d="M199.17 59.4h-4.983c-1.192 0-2.16-.97-2.16-2.165v-4.992c0-1.196.968-2.165 2.16-2.165h4.976c1.197 0 2.168.972 2.168 2.17v4.987a2.163 2.163 0 0 1-2.162 2.164" fill-opacity=".2"/><path d="M246.656 106.608l-9.557-16.584 9.557-16.584 3.042 1.76-8.542 14.824 8.542 14.825zM271.085 106.608l-3.042-1.76 8.542-14.824-8.542-14.824 3.042-1.76 9.557 16.584z"/><path d="M259.856 92.287l1.097-4.352h-3.04l-1.097 4.352h3.04zm-7.102 3.194h-3.07v-3.194h3.855l1.098-4.352h-3.247V84.74h4.062l1.395-5.555h3.29l-1.409 5.555h3.01l1.394-5.555h3.322l-1.44 5.555h2.863v3.195h-3.648l-1.097 4.352h3.04v3.194h-3.826l-1.393 5.54h-3.276l1.393-5.54h-3.04l-1.393 5.54h-3.277l1.394-5.54z"/><path d="M242.894 117.86h32.079l16.04-27.837-16.04-27.836h-32.079l-16.039 27.836 16.04 27.838zm34.108 3.52h-36.136l-18.068-31.357 18.068-31.355h36.136l18.069 31.355L277 121.38z" fill-opacity=".5"/><path d="M263.065 204.065h-9.128v-8.943h-15.505v8.943h-23.56v-5.996c0-2.017 1.302-3.866 3.98-5.656 2.988-1.994 6.33-3.44 9.94-4.296.286-.068.566-.126.844-.182 5.788 2.854 12.877 2.856 18.666 0 .278.056.558.115.845.182 3.608.856 6.952 2.302 9.939 4.296 2.677 1.79 3.98 3.64 3.98 5.656v5.996zm3.513-5.996c0-3.24-1.865-6.126-5.544-8.584-3.336-2.228-7.063-3.84-11.077-4.793-.37-.088-.73-.16-1.09-.232l-1.082-.224-.56.298a17.392 17.392 0 0 1-8.256 2.061c-2.909 0-5.687-.693-8.256-2.061l-.561-.3-1.088.227c-.358.072-.715.144-1.083.231-4.015.953-7.742 2.565-11.077 4.793-3.68 2.458-5.545 5.346-5.545 8.584v9.516h27.073v6.663l7.753-3.996 7.752 3.996v-6.663h12.641v-9.516z"/><path fill-opacity=".2" d="M251.744 205.874h6.482v-8.224h-6.482z"/><path fill-opacity=".5" d="M183.275 140.698l-2.458-2.514 11.947-11.732 8.032 6.896 8.401-10.677 14.88-6.284 1.365 3.243-14.047 5.931-10.104 12.845-8.368-7.183z"/><path d="M213.557 124.515a3.201 3.201 0 0 1-3.197 3.204 3.202 3.202 0 0 1-3.198-3.204 3.202 3.202 0 0 1 3.198-3.204 3.201 3.201 0 0 1 3.197 3.204M204.412 135.602a3.2 3.2 0 0 1-3.197 3.204 3.2 3.2 0 0 1-3.199-3.204 3.202 3.202 0 0 1 3.2-3.204 3.201 3.201 0 0 1 3.196 3.204M185.807 138.5a3.201 3.201 0 0 1-3.198 3.203 3.202 3.202 0 0 1-3.199-3.204 3.202 3.202 0 0 1 3.2-3.204 3.201 3.201 0 0 1 3.197 3.204M226.487 118.646a3.201 3.201 0 0 1-3.198 3.204 3.201 3.201 0 0 1-3.197-3.204 3.201 3.201 0 0 1 3.197-3.204 3.201 3.201 0 0 1 3.198 3.204M195.809 129.125a3.201 3.201 0 0 1-3.197 3.204 3.202 3.202 0 0 1-3.199-3.204 3.202 3.202 0 0 1 3.2-3.204 3.201 3.201 0 0 1 3.196 3.204"/><path d="M228.106 147.73h-54.11V111.64h3.513v32.572h50.597z"/><path fill-opacity=".2" d="M104.777 167.794H31.931v-9.414h77.892z"/></g></g></svg>