<svg width="17" height="22" viewBox="0 0 17 22" xmlns="http://www.w3.org/2000/svg"><title>Page 1</title><path d="M1 8.454a7.35 7.35 0 0 1 .59-2.9c.36-.878.89-1.672 1.592-2.382A7.235 7.235 0 0 1 5.555 1.59a7.25 7.25 0 0 1 2.9-.59c1.04 0 2.01.197 2.91.59a7.384 7.384 0 0 1 3.973 3.965 7.35 7.35 0 0 1 .59 2.9 7.35 7.35 0 0 1-.59 2.898 8.053 8.053 0 0 1-.78 1.413l-4.934 7.496c-.323.492-.71.738-1.16.738-.45 0-.84-.246-1.17-.738L2.37 12.766a6.644 6.644 0 0 1-.78-1.413 7.35 7.35 0 0 1-.59-2.9z" stroke="#EF5940" stroke-width="2" fill="none"/></svg>