<svg width="16" height="26" viewBox="0 0 16 26" xmlns="http://www.w3.org/2000/svg"><title>Fill 1</title><path d="M8 23.068c.448 0 .837-.16 1.165-.482.33-.322.493-.703.493-1.144 0-.44-.164-.82-.493-1.142A1.61 1.61 0 0 0 8 19.818c-.45 0-.838.16-1.166.482-.33.32-.493.703-.493 1.142 0 .44.17.822.5 1.144.33.32.72.482 1.17.482zM12.683 0H3.316A3.23 3.23 0 0 0 .97.953C.325 1.587 0 2.353 0 3.25v19.5c0 .898.324 1.664.97 2.298.65.635 1.43.953 2.346.953h9.367c.916 0 1.697-.31 2.345-.95.647-.63.972-1.4.972-2.29V3.25c0-.897-.325-1.663-.972-2.298a3.23 3.23 0 0 0-2.345-.95zm1.658 22.75c0 .44-.16.822-.49 1.143a1.605 1.605 0 0 1-1.16.483H3.32a1.6 1.6 0 0 1-1.165-.483 1.544 1.544 0 0 1-.49-1.142v-4.03h12.68v4.03zM1.66 17.097h12.68V5.687H1.66v11.41zM14.34 4.063H1.66V3.25c0-.44.164-.82.493-1.142a1.605 1.605 0 0 1 1.166-.483h9.36c.45 0 .84.16 1.16.483.32.32.49.702.49 1.142v.813z" fill="#EF5940" fill-rule="evenodd"/></svg>