<?xml version="1.0" encoding="utf-8"?><svg width="82" height="61" viewBox="0 0 82 61" xmlns="http://www.w3.org/2000/svg" xmlns:xlink="http://www.w3.org/1999/xlink"><svg width="68" height="61" viewBox="0 0 68 61" id="ampersand_1"><title>Fill 15</title><path d="M.212 39.42c0-9.918 6.447-15.538 9.753-17.025-2.15-2.81-3.47-6.116-3.47-9.753 0-6.116 4.957-11.9 13.056-11.9 4.96 0 8.76 2.643 8.76 7.768 0 3.636-2.97 5.62-4.29 5.62-.33 0-.33-.66-.164-1.488.5-3.14-2.146-5.455-5.29-5.455-3.633 0-7.435 3.14-7.435 8.43 0 1.82.66 4.133 1.818 5.95.828-.33 2.15-.99 4.134-.99 1.984 0 4.297.826 4.297 2.81 0 2.313-1.158 3.966-3.308 3.966-1.653 0-4.297-1.158-5.454-1.983-.498-.827-.994-.992-1.985-.33-2.476 1.818-4.46 6.114-4.46 10.742 0 10.083 8.594 17.026 23.636 17.026 15.04 0 22.974-8.43 22.974-16.365 0-5.618-4.297-11.404-11.736-11.404-6.943 0-8.267 5.45-8.267 7.43 0 2.81 1.984 4.96 2.646 4.96.496 0 .99-.5.826-1.16-.163-1.32.994-3.968 3.47-3.968 3.144 0 4.63 1.654 4.63 4.132 0 2.15-1.322 4.793-5.785 4.793-3.964 0-9.254-3.306-9.254-10.248 0-6.12 5.122-12.07 13.884-12.07 3.47 0 6.61.66 10.248.66 6.778 0 11.074-2.642 11.074-7.27 0-2.644-2.48-5.454-4.63-5.454-1.155 0-1.155.99-.99 1.817.496 1.323-.664 4.133-3.636 4.133-2.644 0-3.97-1.816-3.97-3.634 0-3.305 3.31-5.29 6.45-5.29 6.614 0 10.25 4.3 10.25 8.762 0 8.263-5.124 12.56-12.894 13.72-1.984.163-1.984.99-1.158 1.98.992 1.654 2.48 4.793 2.48 9.92 0 14.05-12.397 22.48-27.44 22.48C5.998 60.74.212 47.848.212 39.418" fill="#E6573E" fill-rule="evenodd"/></svg><svg id="check" width="14" height="11" viewBox="0 0 14 11" x="68"><style>.bst0{fill:#ef5940}</style><path class="bst0" d="M5 10.7L0 5.6l1.4-1.4L5 7.8 12.6.3 14 1.7z"/></svg></svg>