<svg xmlns="http://www.w3.org/2000/svg" width="249" height="111" viewBox="0 0 249 111">
  <g fill="#FFFFFF" fill-rule="evenodd">
    <path d="M80.4452899 74.7351449L80.4452899 95.9126812 146.155435 95.9126812 146.155435 73.1300725 118.220652 73.1300725 130.126449 64.659058C138.256884 58.9380435 145.927174 52.4126812 145.927174 39.0177536 145.927174 20.0105072 129.325725 12.5684783 113.303986 12.5684783 96.0105072 12.5684783 79.1844203 21.9597826 77.1228261 43.025L103.11558 45.9960145C103.456159 40.0503623 106.662681 36.2677536 111.010507 36.2677536 115.130072 36.2677536 116.963406 39.0177536 116.963406 41.9960145 116.963406 44.6228261 115.017754 47.1445652 112.499638 49.0902174L80.4452899 74.7351449zM35.4898551 51.265942C30.3376812 51.265942 26.9028986 47.7188406 26.9028986 43.1391304 26.9028986 38.4434783 30.3376812 34.7804348 35.4898551 34.7804348 40.4101449 34.7804348 43.8449275 38.4434783 43.8449275 43.1391304 43.8449275 47.7188406 40.4101449 51.265942 35.4898551 51.265942L35.4898551 51.265942zM28.9608696 70.4978261L28.392029 71.1862319 9.27608696 95.9108696 42.3594203 95.9108696 60.9028986 69.9217391C66.2833333 62.4869565 70.9789855 53.4434783 70.9789855 43.2478261 70.9789855 22.4144928 54.3811594 12.5666667 35.4898551 12.5666667 16.5985507 12.5666667.000724637681 23.1028986.000724637681 43.4833333.000724637681 60.7695652 13.7362319 70.4978261 27.7036232 70.4978261L28.9608696 70.4978261z"/>
    <polygon points="216.062 95.965 188.562 95.965 188.562 62.458 157.714 14.168 190.874 14.168 203.816 38.2 216.178 14.168 248.526 14.168 216.062 62.458"/>
    <path d="M152.334058 102.224275C152.334058 101.361957 153.033333 100.666304 153.895652 100.666304 154.750725 100.666304 155.446377 101.361957 155.446377 102.224275 155.446377 103.082971 154.750725 103.778623 153.895652 103.778623 153.033333 103.778623 152.334058 103.082971 152.334058 102.224275M152.334058 95.932971C152.334058 95.067029 153.033333 94.375 153.895652 94.375 154.750725 94.375 155.446377 95.0742754 155.446377 95.932971 155.446377 96.7916667 154.750725 97.4836957 153.895652 97.4836957 153.033333 97.4836957 152.334058 96.7916667 152.334058 95.932971M152.334058 89.6384058C152.334058 88.7869565 153.033333 88.0768116 153.895652 88.0768116 154.750725 88.0768116 155.446377 88.7869565 155.446377 89.6384058 155.446377 90.4971014 154.750725 91.1927536 153.895652 91.1927536 153.033333 91.1927536 152.334058 90.4971014 152.334058 89.6384058M152.334058 83.351087C152.334058 82.4887681 153.033333 81.7894928 153.895652 81.7894928 154.750725 81.7894928 155.446377 82.4887681 155.446377 83.351087 155.446377 84.2061594 154.750725 84.909058 153.895652 84.909058 153.033333 84.909058 152.334058 84.2061594 152.334058 83.351087M152.334058 77.0565217C152.334058 76.2014493 153.033333 75.5021739 153.895652 75.5021739 154.750725 75.5021739 155.446377 76.2014493 155.446377 77.0637681 155.446377 77.9152174 154.750725 78.6144928 153.895652 78.6144928 153.033333 78.6144928 152.334058 77.9152174 152.334058 77.0565217M152.334058 70.7652174C152.334058 69.9101449 153.033333 69.2072464 153.895652 69.2072464 154.750725 69.2072464 155.446377 69.9101449 155.446377 70.7652174 155.446377 71.623913 154.750725 72.3268116 153.895652 72.3268116 153.033333 72.3268116 152.334058 71.623913 152.334058 70.7652174M152.334058 64.4778986C152.334058 63.6119565 153.033333 62.9126812 153.895652 62.9126812 154.750725 62.9126812 155.446377 63.6119565 155.446377 64.4778986 155.446377 65.3293478 154.750725 66.0322464 153.895652 66.0322464 153.033333 66.0322464 152.334058 65.3293478 152.334058 64.4778986M152.334058 58.1833333C152.334058 57.3210145 153.033333 56.6217391 153.895652 56.6217391 154.750725 56.6217391 155.446377 57.3210145 155.446377 58.1833333 155.446377 59.0384058 154.750725 59.7376812 153.895652 59.7376812 153.033333 59.7376812 152.334058 59.0384058 152.334058 58.1833333M152.334058 51.8956522C152.334058 51.0333333 153.033333 50.334058 153.895652 50.334058 154.750725 50.334058 155.446377 51.0333333 155.446377 51.8956522 155.446377 52.7507246 154.750725 53.4463768 153.895652 53.4463768 153.033333 53.4463768 152.334058 52.7507246 152.334058 51.8956522M152.334058 45.601087C152.334058 44.7423913 153.033333 44.0431159 153.895652 44.0431159 154.750725 44.0431159 155.446377 44.7423913 155.446377 45.601087 155.446377 46.4597826 154.750725 47.159058 153.895652 47.159058 153.033333 47.159058 152.334058 46.4597826 152.334058 45.601087M152.334058 39.3065217C152.334058 38.4478261 153.033333 37.7521739 153.895652 37.7521739 154.750725 37.7521739 155.446377 38.4478261 155.446377 39.3065217 155.446377 40.1688406 154.750725 40.8717391 153.895652 40.8717391 153.033333 40.8717391 152.334058 40.1688406 152.334058 39.3065217M152.334058 33.0155797C152.334058 32.1568841 153.033333 31.4612319 153.895652 31.4612319 154.750725 31.4612319 155.446377 32.1568841 155.446377 33.0155797 155.446377 33.8778986 154.750725 34.5735507 153.895652 34.5735507 153.033333 34.5735507 152.334058 33.8778986 152.334058 33.0155797M152.334058 26.7246377C152.334058 25.865942 153.033333 25.1666667 153.895652 25.1666667 154.750725 25.1666667 155.446377 25.865942 155.446377 26.7246377 155.446377 27.5833333 154.750725 28.2862319 153.895652 28.2862319 153.033333 28.2862319 152.334058 27.5833333 152.334058 26.7246377M152.334058 20.4369565C152.334058 19.5782609 153.033333 18.8753623 153.895652 18.8753623 154.750725 18.8753623 155.446377 19.5782609 155.446377 20.4369565 155.446377 21.292029 154.750725 21.9949275 153.895652 21.9949275 153.033333 21.9949275 152.334058 21.292029 152.334058 20.4369565M152.334058 14.1460145C152.334058 13.2873188 153.033333 12.5844203 153.895652 12.5844203 154.750725 12.5844203 155.446377 13.2873188 155.446377 14.1460145 155.446377 14.9974638 154.750725 15.6967391 153.895652 15.6967391 153.033333 15.6967391 152.334058 14.9974638 152.334058 14.1460145M152.334058 7.85144928C152.334058 6.99275362 153.033333 6.28985507 153.895652 6.28985507 154.750725 6.28985507 155.446377 6.99275362 155.446377 7.85144928 155.446377 8.7173913 154.750725 9.40942029 153.895652 9.40942029 153.033333 9.40942029 152.334058 8.7173913 152.334058 7.85144928M152.788768 2.66086957C152.502536 2.37101449 152.332246 1.97246377 152.332246 1.55942029 152.332246 1.15362319 152.502536.751449275 152.788768.461594203 153.078623.17173913 153.480797.00144927536 153.893841.00144927536 154.299638.00144927536 154.701812.17173913 154.991667.461594203 155.277899.751449275 155.448188 1.15362319 155.448188 1.55942029 155.448188 1.97246377 155.277899 2.37101449 154.991667 2.66086957 154.701812 2.95434783 154.299638 3.1173913 153.893841 3.1173913 153.480797 3.1173913 153.078623 2.95434783 152.788768 2.66086957M152.788768 109.611957C152.502536 109.325725 152.332246 108.923551 152.332246 108.51413 152.332246 108.108333 152.502536 107.706159 152.788768 107.412681 153.078623 107.122826 153.480797 106.956159 153.893841 106.956159 154.299638 106.956159 154.701812 107.122826 154.991667 107.412681 155.277899 107.706159 155.448188 108.108333 155.448188 108.51413 155.448188 108.923551 155.277899 109.325725 154.991667 109.611957 154.701812 109.909058 154.299638 110.075725 153.893841 110.075725 153.480797 110.075725 153.078623 109.909058 152.788768 109.611957"/>
  </g>
</svg>
