<?xml version="1.0" encoding="utf-8"?>
<!-- Generator: Adobe Illustrator 21.0.2, SVG Export Plug-In . SVG Version: 6.00 Build 0)  -->
<!DOCTYPE svg PUBLIC "-//W3C//DTD SVG 1.1//EN" "http://www.w3.org/Graphics/SVG/1.1/DTD/svg11.dtd">
<svg version="1.1" id="Layer_1" xmlns="http://www.w3.org/2000/svg" xmlns:xlink="http://www.w3.org/1999/xlink" x="0px" y="0px"
	 width="200px" height="75px" viewBox="0 0 200 75" style="enable-background:new 0 0 200 75;" xml:space="preserve">
<style type="text/css">
	.st0{fill:#FFFFFF;}
</style>
<g>
	<path class="st0" d="M72.2,23.5c0.1,0,0.1,0,0.1-0.1l-1.9-4.9c0-0.1,0-0.2-0.1-0.2c-0.1,0-0.1,0.1-0.1,0.2l-1.9,4.9
		c0,0.1,0,0.1,0.1,0.1H72.2z M67.9,24.6c-0.1,0-0.1,0-0.2,0.1l-1.1,2.6c-0.2,0.5-0.3,0.9-0.3,1.2c0,0.3,0.2,0.5,0.8,0.5h0.3
		c0.2,0,0.3,0.1,0.3,0.2c0,0.2-0.1,0.2-0.3,0.2c-0.7,0-1.6-0.1-2.2-0.1c-0.2,0-1.3,0.1-2.3,0.1c-0.2,0-0.4,0-0.4-0.2
		c0-0.1,0.1-0.2,0.2-0.2c0.2,0,0.4,0,0.6,0c0.9-0.1,1.2-0.7,1.7-1.7l5.2-12.1c0.2-0.5,0.4-0.8,0.6-0.8c0.3,0,0.4,0.2,0.6,0.6
		c0.5,1.1,3.8,8.9,5.1,11.8c0.8,1.7,1.3,2,1.7,2.1c0.3,0,0.5,0.1,0.7,0.1c0.2,0,0.3,0.1,0.3,0.2c0,0.2-0.1,0.2-0.9,0.2
		c-0.7,0-2.1,0-3.8,0c-0.4,0-0.6,0-0.6-0.2c0-0.1,0-0.2,0.2-0.2c0.1,0,0.3-0.2,0.2-0.4l-1.5-3.9c0-0.1-0.1-0.1-0.2-0.1H67.9z
		 M83.6,22.6c0,2,0,3.5,0,3.9c0,0.5,0.1,1.2,0.2,1.4c0.2,0.4,1,0.8,2.6,0.8c1.8,0,3.1-0.3,4.3-1.3c1.3-1.1,1.7-2.8,1.7-4.8
		c0-2.4-1-4-1.9-4.8c-1.8-1.6-4-1.8-5.6-1.8c-0.4,0-1.1,0-1.2,0.1c-0.2,0.1-0.2,0.2-0.2,0.4c0,0.7,0,2.2,0,3.7V22.6z M80.9,20.5
		c0-2.9,0-3.5,0-4.1c0-0.7-0.2-0.9-0.9-1c-0.2,0-0.5-0.1-0.8-0.1c-0.2,0-0.3-0.1-0.3-0.2c0-0.1,0.2-0.2,0.5-0.2c1,0,2.3,0,2.9,0
		c0.6,0,2,0,3.2,0c2.5,0,5.8,0,8,2.2c1,1,1.9,2.6,1.9,4.9c0,2.4-1,4.2-2.2,5.4c-0.9,0.9-3,2.3-6.7,2.3c-0.7,0-1.6-0.1-2.4-0.1
		c-0.8-0.1-1.5-0.1-2-0.1c-0.2,0-0.7,0-1.1,0c-0.5,0-1,0-1.4,0c-0.2,0-0.4-0.1-0.4-0.2c0-0.1,0.1-0.2,0.3-0.2c0.3,0,0.5,0,0.7-0.1
		c0.4-0.1,0.5-0.5,0.6-1c0.1-0.8,0.1-2.3,0.1-4.1V20.5z M97.1,16.8c-0.5-1.1-0.7-1.2-1.5-1.4c-0.3-0.1-0.6-0.1-0.8-0.1
		c-0.2,0-0.2-0.1-0.2-0.2c0-0.2,0.2-0.2,0.5-0.2c1.1,0,2.2,0,2.9,0c0.5,0,1.5,0,2.5,0c0.2,0,0.5,0,0.5,0.2c0,0.1-0.1,0.2-0.3,0.2
		c-0.3,0-0.6,0-0.8,0.1c-0.1,0.1-0.2,0.2-0.2,0.4c0,0.2,0.2,0.8,0.5,1.4l3.3,8.6h0.1c0.9-2,3.4-8.2,3.9-9.4c0.1-0.2,0.2-0.5,0.2-0.7
		c0-0.2-0.1-0.3-0.3-0.3c-0.2-0.1-0.5-0.1-0.8-0.1c-0.2,0-0.3-0.1-0.3-0.2c0-0.1,0.2-0.2,0.6-0.2c1,0,1.9,0,2.1,0c0.3,0,1.3,0,1.9,0
		c0.2,0,0.4,0,0.4,0.2c0,0.1-0.1,0.2-0.3,0.2c-0.2,0-0.6,0-1,0.2c-0.2,0.2-0.5,0.5-1,1.7c-0.8,1.8-1.3,2.8-2.4,5.2
		c-1.3,2.8-2.2,4.9-2.6,5.9c-0.5,1.1-0.7,1.4-1,1.4c-0.3,0-0.4-0.2-0.8-1.2L97.1,16.8z M116.8,23.5c0.1,0,0.1,0,0.1-0.1l-1.9-4.9
		c0-0.1,0-0.2-0.1-0.2c-0.1,0-0.1,0.1-0.1,0.2l-1.9,4.9c0,0.1,0,0.1,0.1,0.1H116.8z M112.6,24.6c-0.1,0-0.1,0-0.2,0.1l-1.1,2.6
		c-0.2,0.5-0.3,0.9-0.3,1.2c0,0.3,0.2,0.5,0.8,0.5h0.3c0.2,0,0.3,0.1,0.3,0.2c0,0.2-0.1,0.2-0.3,0.2c-0.7,0-1.6-0.1-2.2-0.1
		c-0.2,0-1.3,0.1-2.3,0.1c-0.2,0-0.4,0-0.4-0.2c0-0.1,0.1-0.2,0.2-0.2c0.2,0,0.4,0,0.6,0c0.9-0.1,1.2-0.7,1.7-1.7l5.2-12.1
		c0.2-0.5,0.4-0.8,0.6-0.8c0.3,0,0.4,0.2,0.6,0.6c0.5,1.1,3.8,8.9,5.1,11.8c0.8,1.7,1.3,2,1.7,2.1c0.3,0,0.5,0.1,0.7,0.1
		c0.2,0,0.3,0.1,0.3,0.2c0,0.2-0.1,0.2-0.9,0.2c-0.7,0-2.1,0-3.8,0c-0.4,0-0.6,0-0.6-0.2c0-0.1,0-0.2,0.2-0.2c0.1,0,0.3-0.2,0.2-0.4
		l-1.5-3.9c0-0.1-0.1-0.1-0.2-0.1H112.6z"/>
	<path class="st0" d="M126.8,26.8c0,1.5,0.3,1.9,0.7,2.1c0.3,0.1,0.7,0.1,1,0.1c0.2,0,0.3,0.1,0.3,0.2c0,0.2-0.2,0.2-0.5,0.2
		c-1.3,0-2.2-0.1-2.6-0.1c-0.2,0-1.1,0.1-2.1,0.1c-0.3,0-0.5,0-0.5-0.2c0-0.1,0.1-0.2,0.3-0.2c0.3,0,0.6,0,0.9-0.1
		c0.5-0.1,0.6-0.7,0.6-2.3l0.2-11.4c0-0.4,0.1-0.7,0.3-0.7c0.2,0,0.5,0.3,0.9,0.6c0.2,0.2,3.2,3.3,6.1,6.1c1.4,1.3,4,4,4.3,4.3h0.1
		l-0.2-8.5c0-1.2-0.2-1.5-0.7-1.7c-0.3-0.1-0.8-0.1-1-0.1c-0.2,0-0.3-0.1-0.3-0.2c0-0.2,0.2-0.2,0.5-0.2c1,0,2.1,0,2.5,0
		c0.2,0,1,0,1.9,0c0.3,0,0.5,0,0.5,0.2c0,0.1-0.1,0.2-0.3,0.2c-0.2,0-0.4,0-0.6,0.1c-0.5,0.2-0.7,0.5-0.7,1.6l-0.2,12.1
		c0,0.4-0.2,0.6-0.3,0.6c-0.3,0-0.6-0.2-0.8-0.4c-1.2-1.2-3.7-3.5-5.8-5.5c-2.2-2.1-4.3-4.4-4.7-4.7h-0.1L126.8,26.8z M144,27.6
		c-2-1.6-2.5-3.8-2.5-5.7c0-1.3,0.4-3.6,2.3-5.3c1.4-1.3,3.3-2,6.3-2c1.2,0,2,0.1,2.9,0.2c0.7,0.1,1.4,0.2,2,0.3
		c0.2,0,0.3,0.1,0.3,0.2c0,0.2,0,0.4-0.1,1.1c0,0.6,0,1.7-0.1,2.1c0,0.3-0.1,0.5-0.3,0.5c-0.2,0-0.2-0.2-0.2-0.4
		c0-0.6-0.3-1.3-0.8-1.8c-0.7-0.7-2-1.1-3.8-1.1c-1.7,0-2.8,0.3-3.8,1.1c-1.5,1.3-1.8,3.1-1.8,5c0,4.6,3.5,6.7,6.2,6.7
		c1.8,0,2.7-0.1,3.5-1c0.3-0.4,0.6-0.9,0.7-1.3c0-0.3,0.1-0.4,0.2-0.4c0.1,0,0.2,0.2,0.2,0.3c0,0.2-0.2,1.9-0.4,2.6
		c-0.1,0.3-0.2,0.4-0.5,0.6c-0.8,0.3-2.3,0.4-3.6,0.4C148.2,29.7,145.8,29.1,144,27.6 M158.9,20.5c0-2.9,0-3.5,0-4.1
		c0-0.7-0.2-0.9-0.7-1c-0.2-0.1-0.5-0.1-0.7-0.1c-0.2,0-0.3,0-0.3-0.2c0-0.1,0.2-0.2,0.5-0.2c0.7,0,2.1,0,2.7,0c0.5,0,1.8,0,2.6,0
		c0.2,0,0.4,0,0.4,0.2c0,0.2-0.1,0.2-0.3,0.2c-0.2,0-0.4,0-0.6,0.1c-0.5,0.1-0.7,0.4-0.7,1c0,0.6,0,1.2,0,4.1v3.4
		c0,1.9,0,3.4,0.1,4.2c0.1,0.5,0.2,0.8,0.8,0.9c0.3,0,0.7,0.1,1,0.1c0.2,0,0.3,0.1,0.3,0.2c0,0.1-0.2,0.2-0.4,0.2
		c-1.3,0-2.7-0.1-3.2-0.1c-0.5,0-1.8,0.1-2.6,0.1c-0.2,0-0.4-0.1-0.4-0.2c0-0.1,0.1-0.2,0.3-0.2c0.3,0,0.5,0,0.7-0.1
		c0.4-0.1,0.5-0.4,0.6-0.9c0.1-0.8,0.1-2.3,0.1-4.2V20.5z M168.9,26.8c0,1.5,0.3,1.9,0.7,2.1c0.3,0.1,0.7,0.1,1,0.1
		c0.2,0,0.3,0.1,0.3,0.2c0,0.2-0.2,0.2-0.5,0.2c-1.3,0-2.2-0.1-2.6-0.1c-0.2,0-1.1,0.1-2.1,0.1c-0.3,0-0.5,0-0.5-0.2
		c0-0.1,0.1-0.2,0.3-0.2c0.3,0,0.6,0,0.9-0.1c0.5-0.1,0.6-0.7,0.6-2.3l0.2-11.4c0-0.4,0.1-0.7,0.3-0.7c0.2,0,0.5,0.3,0.9,0.6
		c0.2,0.2,3.2,3.3,6.1,6.1c1.4,1.3,4,4,4.3,4.3h0.1l-0.2-8.5c0-1.2-0.2-1.5-0.7-1.7c-0.3-0.1-0.8-0.1-1-0.1c-0.2,0-0.3-0.1-0.3-0.2
		c0-0.2,0.2-0.2,0.5-0.2c1,0,2.1,0,2.5,0c0.2,0,1,0,1.9,0c0.3,0,0.5,0,0.5,0.2c0,0.1-0.1,0.2-0.3,0.2c-0.2,0-0.4,0-0.6,0.1
		c-0.5,0.2-0.7,0.5-0.7,1.6l-0.2,12.1c0,0.4-0.2,0.6-0.3,0.6c-0.3,0-0.6-0.2-0.8-0.4c-1.2-1.2-3.7-3.5-5.8-5.5
		c-2.2-2.1-4.3-4.4-4.7-4.7h-0.1L168.9,26.8z M197.9,28.2c0,0.5,0,0.5-0.2,0.7c-1.3,0.7-3.3,0.9-4.9,0.9c-4.9,0-9.2-2.2-9.2-7.5
		c0-3.1,1.7-5.2,3.5-6.3c1.9-1.1,3.7-1.2,5.4-1.2c1.4,0,3.1,0.2,3.5,0.3c0.4,0.1,1.1,0.2,1.6,0.2c0.2,0,0.3,0.1,0.3,0.2
		c0,0.2-0.1,0.7-0.1,3.2c0,0.3-0.1,0.4-0.3,0.4c-0.1,0-0.2-0.1-0.2-0.2c0-0.4-0.2-1-0.7-1.6c-0.6-0.6-2.1-1.5-4.3-1.5
		c-1.1,0-2.5,0-3.8,1.1c-1.1,0.9-1.8,2.3-1.8,4.7c0,4.1,2.7,7.1,6.9,7.1c0.5,0,0.9,0,1.4-0.2c0.3-0.1,0.4-0.3,0.4-0.7V26
		c0-0.9,0-1.7,0-2.3c0-0.7-0.2-0.9-0.9-1c-0.2,0-0.5-0.1-0.8-0.1c-0.2,0-0.3-0.1-0.3-0.2c0-0.2,0.2-0.2,0.4-0.2c1,0,2.5,0,3.1,0
		c0.6,0,1.7,0,2.3,0c0.3,0,0.4,0,0.4,0.2c0,0.1-0.1,0.2-0.2,0.2c-0.2,0-0.3,0-0.5,0.1c-0.5,0.1-0.7,0.4-0.8,1c0,0.6,0,1.4,0,2.3
		V28.2z M67.1,40.7c0-2.9,0-3.5,0-4.1c0-0.7-0.2-0.9-0.9-1c-0.2,0-0.5-0.1-0.8-0.1c-0.2,0-0.3-0.1-0.3-0.2c0-0.1,0.2-0.2,0.5-0.2
		c1,0,2.5,0,3,0c0.5,0,1.7,0,2.5,0c0.3,0,0.4,0,0.4,0.2c0,0.1-0.1,0.2-0.4,0.2c-0.2,0-0.3,0-0.6,0.1c-0.5,0.1-0.7,0.4-0.7,1
		c0,0.6,0,1.2,0,4.1v3.6c0,0.8,0.1,1.7,0.1,2.7c0,1.1-0.1,2.3-0.5,3.4c-0.4,1.2-1.7,2.5-3.6,3.7c-0.2,0.1-0.6,0.3-1,0.5
		c-0.1,0.1-0.3,0.1-0.4,0.1c-0.1,0-0.2-0.1-0.2-0.2c0-0.1,0.1-0.2,0.4-0.3c0.3-0.1,0.6-0.4,1-0.7c1.5-1.5,1.5-3.4,1.5-7.1V40.7z
		 M74,40.7c0-2.9,0-3.5,0-4.1c0-0.7-0.2-0.9-0.9-1c-0.2,0-0.5-0.1-0.8-0.1c-0.2,0-0.3-0.1-0.3-0.2c0-0.1,0.1-0.2,0.4-0.2
		c1.1,0,2.4,0,3,0c0.5,0,1.8,0,2.6,0c0.3,0,0.4,0,0.4,0.2c0,0.1-0.1,0.2-0.3,0.2c-0.2,0-0.3,0-0.6,0.1c-0.5,0.1-0.7,0.4-0.7,1
		c0,0.6,0,1.2,0,4.1v2.7c0,2.8,0.5,3.9,1.5,4.7c0.9,0.7,1.8,0.8,2.5,0.8c0.9,0,1.9-0.2,2.7-1c1.1-1,1.2-2.7,1.2-4.7v-2.4
		c0-2.9,0-3.5,0-4.1c0-0.7-0.2-0.9-0.8-1c-0.2,0-0.5-0.1-0.7-0.1c-0.2,0-0.3-0.1-0.3-0.2c0-0.1,0.1-0.2,0.4-0.2c1,0,2.4,0,2.4,0
		c0.2,0,1.6,0,2.3,0c0.3,0,0.4,0,0.4,0.2c0,0.1-0.1,0.2-0.3,0.2s-0.3,0-0.6,0.1c-0.5,0.1-0.7,0.4-0.7,1c0,0.6,0,1.2,0,4.1v2.1
		c0,2.1-0.2,4.4-1.9,5.8c-1.4,1.2-2.9,1.4-4.2,1.4c-1,0-3.1,0-4.5-1.3c-1-0.9-1.8-2.3-1.8-5.1V40.7z M89.4,49.4
		c-0.3-0.1-0.4-0.2-0.4-0.7c0-1,0.1-2.2,0.1-2.6c0-0.3,0.1-0.5,0.2-0.5c0.2,0,0.2,0.2,0.2,0.3c0,0.2,0.1,0.7,0.2,1
		c0.4,1.4,1.9,1.9,3.2,1.9c1.7,0,2.8-1.1,2.8-2.4c0-0.8-0.2-1.7-2-2.7l-1.2-0.7c-2.4-1.4-3.1-2.7-3.1-4.4c0-2.4,2.3-3.9,5-3.9
		c1.3,0,2.3,0.2,2.8,0.3c0.2,0,0.3,0.1,0.3,0.2c0,0.2-0.1,0.8-0.1,2.3c0,0.4-0.1,0.6-0.2,0.6c-0.1,0-0.2-0.1-0.2-0.3
		c0-0.2-0.1-0.8-0.5-1.3c-0.3-0.4-0.9-0.9-2.2-0.9c-1.4,0-2.7,0.7-2.7,2.1c0,0.9,0.3,1.5,2.1,2.5l0.8,0.5c2.6,1.4,3.4,2.9,3.4,4.7
		c0,1.4-0.5,2.6-2,3.6c-0.9,0.7-2.3,0.8-3.3,0.8C91.5,49.9,90.3,49.8,89.4,49.4 M104.7,36.3l-3,0.1c-1.2,0-1.6,0.2-1.9,0.6
		c-0.2,0.3-0.3,0.5-0.3,0.7c0,0.2-0.1,0.2-0.2,0.2c-0.1,0-0.2-0.1-0.2-0.3c0-0.3,0.4-2.2,0.4-2.3c0-0.2,0.1-0.4,0.2-0.4
		c0.2,0,0.4,0.2,0.9,0.2c0.6,0.1,1.3,0.1,2,0.1h8.1c0.6,0,1.1,0,1.4-0.1c0.3,0,0.5-0.1,0.5-0.1c0.1,0,0.2,0.1,0.2,0.4
		c0,0.4,0,1.8,0,2.3c0,0.2-0.1,0.3-0.2,0.3c-0.2,0-0.2-0.1-0.2-0.4l0-0.2c0-0.5-0.6-1.1-2.4-1.1l-2.5,0v7.8c0,1.8,0,3.3,0.1,4.1
		c0.1,0.5,0.2,0.9,0.8,1c0.3,0,0.7,0.1,1,0.1c0.2,0,0.3,0.1,0.3,0.2c0,0.1-0.2,0.2-0.4,0.2c-1.3,0-2.6-0.1-3.2-0.1
		c-0.5,0-1.8,0.1-2.6,0.1c-0.2,0-0.4-0.1-0.4-0.2c0-0.1,0.1-0.2,0.3-0.2c0.3,0,0.5,0,0.7-0.1c0.4-0.1,0.5-0.5,0.6-1
		c0.1-0.8,0.1-2.3,0.1-4.1V36.3z M115.2,40.7c0-2.9,0-3.5,0-4.1c0-0.7-0.2-0.9-0.7-1c-0.2-0.1-0.5-0.1-0.7-0.1c-0.2,0-0.3,0-0.3-0.2
		c0-0.1,0.2-0.2,0.5-0.2c0.7,0,2.1,0,2.7,0c0.5,0,1.8,0,2.6,0c0.2,0,0.4,0,0.4,0.2c0,0.2-0.1,0.2-0.3,0.2c-0.2,0-0.4,0-0.6,0.1
		c-0.5,0.1-0.7,0.4-0.7,1c0,0.6,0,1.2,0,4.1v3.4c0,1.9,0,3.4,0.1,4.2c0.1,0.5,0.2,0.8,0.8,0.9c0.3,0,0.7,0.1,1,0.1
		c0.2,0,0.3,0.1,0.3,0.2c0,0.1-0.2,0.2-0.4,0.2c-1.3,0-2.7-0.1-3.2-0.1c-0.5,0-1.8,0.1-2.6,0.1c-0.2,0-0.4-0.1-0.4-0.2
		c0-0.1,0.1-0.2,0.3-0.2c0.3,0,0.5,0,0.7-0.1c0.4-0.1,0.5-0.4,0.6-0.9c0.1-0.8,0.1-2.3,0.1-4.2V40.7z M123.5,47.8
		c-2-1.6-2.5-3.8-2.5-5.7c0-1.3,0.4-3.6,2.3-5.3c1.4-1.3,3.3-2,6.3-2c1.2,0,2,0.1,2.9,0.2c0.7,0.1,1.4,0.2,2,0.3
		c0.2,0,0.3,0.1,0.3,0.2c0,0.2,0,0.4-0.1,1.1c0,0.6,0,1.7-0.1,2.1c0,0.3-0.1,0.5-0.3,0.5c-0.2,0-0.2-0.2-0.2-0.4
		c0-0.6-0.3-1.3-0.8-1.8c-0.7-0.7-2-1.1-3.8-1.1c-1.7,0-2.9,0.3-3.8,1.1c-1.5,1.3-1.8,3.1-1.8,5c0,4.6,3.5,6.7,6.2,6.7
		c1.8,0,2.7-0.1,3.5-1c0.3-0.4,0.6-0.9,0.7-1.3c0-0.3,0.1-0.4,0.2-0.4c0.1,0,0.2,0.2,0.2,0.3c0,0.2-0.2,1.9-0.4,2.6
		c-0.1,0.3-0.2,0.4-0.5,0.6c-0.8,0.3-2.3,0.4-3.6,0.4C127.6,49.9,125.3,49.3,123.5,47.8 M138,40.7c0-2.9,0-3.5,0-4.1
		c0-0.7-0.2-0.9-0.9-1c-0.2,0-0.5-0.1-0.8-0.1c-0.2,0-0.3-0.1-0.3-0.2c0-0.1,0.2-0.2,0.5-0.2c1,0,2.3,0,2.9,0c0.6,0,5,0,5.4,0
		c0.4,0,0.7-0.1,0.8-0.1c0.1,0,0.2-0.1,0.3-0.1c0.1,0,0.1,0.1,0.1,0.2c0,0.1-0.1,0.4-0.2,1.2c0,0.2-0.1,1-0.1,1.3
		c0,0.1-0.1,0.3-0.2,0.3c-0.1,0-0.2-0.1-0.2-0.2c0-0.1,0-0.5-0.1-0.7c-0.2-0.3-0.3-0.6-1.3-0.7c-0.3,0-2.7-0.1-3.1-0.1
		c-0.1,0-0.1,0.1-0.1,0.2v4.7c0,0.1,0,0.2,0.1,0.2c0.5,0,3,0,3.5,0c0.5,0,0.8-0.1,0.9-0.3c0.2-0.1,0.2-0.2,0.3-0.2
		c0.1,0,0.2,0.1,0.2,0.2c0,0.1,0,0.4-0.2,1.4c0,0.4-0.1,1.2-0.1,1.3c0,0.2,0,0.4-0.2,0.4c-0.1,0-0.2-0.1-0.2-0.2
		c0-0.2,0-0.5-0.1-0.7c-0.1-0.4-0.4-0.7-1.1-0.7c-0.4,0-2.6-0.1-3.1-0.1c-0.1,0-0.1,0.1-0.1,0.2v1.5c0,0.7,0,2.3,0,2.8
		c0,1.3,0.7,1.6,2.7,1.6c0.5,0,1.4,0,1.9-0.2c0.5-0.2,0.7-0.6,0.9-1.4c0-0.2,0.1-0.3,0.2-0.3c0.2,0,0.2,0.2,0.2,0.5
		c0,0.4-0.2,1.7-0.3,2.1c-0.1,0.5-0.3,0.5-1.1,0.5c-1.5,0-2.7,0-3.7-0.1c-1,0-1.7,0-2.3,0c-0.2,0-0.7,0-1.1,0c-0.5,0-1,0-1.4,0
		c-0.2,0-0.4-0.1-0.4-0.2c0-0.1,0.1-0.2,0.3-0.2c0.3,0,0.5,0,0.7-0.1c0.4-0.1,0.5-0.5,0.6-1c0.1-0.8,0.1-2.3,0.1-4.1V40.7z
		 M67.9,69.1C68,69.1,68,69,67.9,69.1l-0.9-2.6c0,0,0-0.1-0.1-0.1S67,66.5,67,66.5L66,69c0,0,0,0.1,0,0.1H67.9z M65.9,69.6
		C65.8,69.6,65.8,69.6,65.9,69.6l-0.6,1.5c-0.1,0.3-0.2,0.5-0.2,0.6c0,0.2,0.1,0.3,0.4,0.3h0.2c0.1,0,0.2,0,0.2,0.1
		c0,0.1-0.1,0.1-0.2,0.1c-0.3,0-0.8,0-1.1,0c-0.1,0-0.7,0-1.2,0c-0.1,0-0.2,0-0.2-0.1c0-0.1,0-0.1,0.1-0.1c0.1,0,0.2,0,0.3,0
		c0.5-0.1,0.7-0.4,0.9-0.9l2.5-6.3c0.1-0.3,0.2-0.4,0.3-0.4c0.1,0,0.2,0.1,0.3,0.3c0.2,0.6,1.9,4.7,2.5,6.2c0.4,0.9,0.7,1.1,0.9,1.1
		c0.2,0,0.3,0,0.4,0c0.1,0,0.1,0,0.1,0.1c0,0.1-0.1,0.1-0.5,0.1c-0.4,0-1.1,0-1.9,0c-0.2,0-0.3,0-0.3-0.1c0-0.1,0-0.1,0.1-0.1
		c0.1,0,0.1-0.1,0.1-0.2l-0.8-2.1c0-0.1-0.1-0.1-0.1-0.1H65.9z"/>
	<path class="st0" d="M75.1,69.1C75.2,69.1,75.2,69,75.1,69.1l-0.9-2.6c0,0,0-0.1-0.1-0.1s-0.1,0.1-0.1,0.1L73.2,69c0,0,0,0.1,0,0.1
		H75.1z M73.1,69.6C73,69.6,73,69.6,73.1,69.6l-0.6,1.5c-0.1,0.3-0.2,0.5-0.2,0.6c0,0.2,0.1,0.3,0.4,0.3h0.2c0.1,0,0.2,0,0.2,0.1
		c0,0.1-0.1,0.1-0.2,0.1c-0.3,0-0.8,0-1.1,0c-0.1,0-0.7,0-1.2,0c-0.1,0-0.2,0-0.2-0.1c0-0.1,0-0.1,0.1-0.1c0.1,0,0.2,0,0.3,0
		c0.5-0.1,0.7-0.4,0.9-0.9l2.5-6.3c0.1-0.3,0.2-0.4,0.3-0.4c0.1,0,0.2,0.1,0.3,0.3c0.2,0.6,1.9,4.7,2.5,6.2c0.4,0.9,0.7,1.1,0.9,1.1
		c0.2,0,0.3,0,0.4,0c0.1,0,0.1,0,0.1,0.1c0,0.1-0.1,0.1-0.5,0.1c-0.4,0-1.1,0-1.9,0c-0.2,0-0.3,0-0.3-0.1c0-0.1,0-0.1,0.1-0.1
		c0.1,0,0.1-0.1,0.1-0.2l-0.8-2.1c0-0.1-0.1-0.1-0.1-0.1H73.1z"/>
	<path class="st0" d="M79.8,67.5c0-1.5,0-1.8,0-2.1c0-0.3-0.1-0.5-0.4-0.6c-0.1,0-0.3,0-0.4,0c-0.1,0-0.2,0-0.2-0.1
		c0-0.1,0.1-0.1,0.2-0.1c0.5,0,1.2,0,1.4,0c0.2,0,0.9,0,1.3,0c0.1,0,0.2,0,0.2,0.1c0,0.1-0.1,0.1-0.2,0.1c-0.1,0-0.2,0-0.3,0
		c-0.3,0.1-0.4,0.2-0.4,0.6c0,0.3,0,0.6,0,2.1v1.9c0,0.4,0,0.9,0,1.4c0,0.6,0,1.2-0.2,1.8c-0.2,0.6-0.7,1.3-1.7,1.9
		c-0.1,0.1-0.3,0.2-0.5,0.3c-0.1,0-0.2,0.1-0.2,0.1c0,0-0.1,0-0.1-0.1c0-0.1,0.1-0.1,0.2-0.2c0.1-0.1,0.3-0.2,0.5-0.4
		c0.8-0.8,0.8-1.8,0.8-3.8V67.5z M84.3,71.2c-1-0.9-1.3-2-1.3-3c0-0.7,0.2-1.9,1.2-2.8c0.7-0.7,1.7-1.1,3.2-1.1c0.6,0,1,0,1.5,0.1
		c0.4,0.1,0.7,0.1,1,0.2c0.1,0,0.2,0.1,0.2,0.1c0,0.1,0,0.2-0.1,0.6c0,0.3,0,0.9,0,1.1c0,0.2,0,0.2-0.1,0.2c-0.1,0-0.1-0.1-0.1-0.2
		c0-0.3-0.1-0.7-0.4-0.9c-0.3-0.4-1.1-0.6-2.1-0.6c-0.9,0-1.5,0.2-1.9,0.6c-0.7,0.7-0.9,1.6-0.9,2.6c0,2.4,1.8,3.6,3.2,3.6
		c0.9,0,1.4-0.1,1.9-0.6c0.2-0.2,0.3-0.5,0.3-0.7c0-0.2,0.1-0.2,0.1-0.2c0.1,0,0.1,0.1,0.1,0.2c0,0.1-0.1,1-0.2,1.3
		c-0.1,0.2-0.1,0.2-0.3,0.3c-0.4,0.2-1.2,0.2-1.8,0.2C86.4,72.3,85.2,72,84.3,71.2 M24.7,59.1c5.9-0.7,11.9-5.8,12.5-11.6
		c0.6-5.6-3.7-11.2-12.5-17.8c-9-6.7-13.6-11.1-15.4-17.4C7.7,6.8,11.9,0.6,16.8,0C11.6,4.2,14,12,34.5,23.1
		c14,7.6,21.4,15.8,19.3,24.2C51.5,56.2,40.6,62.7,24.7,59.1"/>
	<path class="st0" d="M21,58.2c4.9-1.2,8.9-6.9,6.4-12.7C25,39.8,19.1,36.3,14.3,32C8,26.4,6.2,21.4,7.3,17.6
		c-3.7,6.1-4.4,14.5,5.9,24.5C23,51.6,23.2,54.8,21,58.2 M0,47.5c13.2,11.5,30.2,22,43.7,23.7c-4.1,4.3-12.3,4.3-21.5-1.3
		C14.6,65.3,4.2,55,0,47.5 M68,6.3C68,6.3,68,6.2,68,6.3l-0.9-2.5c0,0,0-0.1,0-0.1c0,0,0,0.1-0.1,0.1l-1,2.4c0,0,0,0.1,0,0.1H68z
		 M65.8,6.8C65.8,6.8,65.8,6.8,65.8,6.8l-0.6,1.4c-0.1,0.2-0.1,0.5-0.1,0.6c0,0.2,0.1,0.3,0.4,0.3h0.1c0.1,0,0.1,0,0.1,0.1
		c0,0.1-0.1,0.1-0.2,0.1c-0.3,0-0.8,0-1.1,0c-0.1,0-0.6,0-1.2,0c-0.1,0-0.2,0-0.2-0.1c0-0.1,0-0.1,0.1-0.1c0.1,0,0.2,0,0.3,0
		c0.5-0.1,0.6-0.4,0.8-0.8l2.6-6c0.1-0.3,0.2-0.4,0.3-0.4c0.1,0,0.2,0.1,0.3,0.3c0.2,0.5,1.9,4.5,2.5,5.9c0.4,0.9,0.7,1,0.8,1
		c0.1,0,0.3,0,0.4,0c0.1,0,0.1,0,0.1,0.1c0,0.1-0.1,0.1-0.4,0.1c-0.3,0-1.1,0-1.9,0c-0.2,0-0.3,0-0.3-0.1c0-0.1,0-0.1,0.1-0.1
		C69,9,69.1,8.9,69,8.8l-0.8-1.9c0-0.1-0.1-0.1-0.1-0.1H65.8z M71.8,9.1C71.7,9,71.6,9,71.6,8.8c0-0.5,0-1.1,0.1-1.3
		c0-0.1,0-0.2,0.1-0.2c0.1,0,0.1,0.1,0.1,0.2c0,0.1,0,0.3,0.1,0.5c0.2,0.7,1,0.9,1.6,0.9c0.9,0,1.4-0.5,1.4-1.2c0-0.4-0.1-0.8-1-1.4
		l-0.6-0.3c-1.2-0.7-1.6-1.3-1.6-2.2c0-1.2,1.1-1.9,2.5-1.9c0.6,0,1.2,0.1,1.4,0.2c0.1,0,0.1,0.1,0.1,0.1c0,0.1,0,0.4,0,1.2
		c0,0.2,0,0.3-0.1,0.3c-0.1,0-0.1-0.1-0.1-0.2c0-0.1,0-0.4-0.3-0.6c-0.1-0.2-0.5-0.5-1.1-0.5c-0.7,0-1.4,0.4-1.4,1
		c0,0.4,0.2,0.8,1.1,1.3l0.4,0.2c1.3,0.7,1.7,1.5,1.7,2.3c0,0.7-0.3,1.3-1,1.8c-0.5,0.3-1.1,0.4-1.7,0.4C72.9,9.3,72.3,9.3,71.8,9.1
		 M78.2,4.7c0-1.5,0-1.7,0-2c0-0.3-0.1-0.4-0.3-0.5c-0.1,0-0.2,0-0.4,0c-0.1,0-0.2,0-0.2-0.1c0-0.1,0.1-0.1,0.2-0.1
		c0.4,0,1.1,0,1.3,0c0.2,0,0.9,0,1.3,0c0.1,0,0.2,0,0.2,0.1c0,0.1-0.1,0.1-0.2,0.1c-0.1,0-0.2,0-0.3,0c-0.3,0-0.3,0.2-0.4,0.5
		c0,0.3,0,0.6,0,2v1.7c0,0.9,0,1.7,0,2.1c0,0.3,0.1,0.4,0.4,0.5c0.1,0,0.4,0,0.5,0c0.1,0,0.2,0.1,0.2,0.1c0,0.1-0.1,0.1-0.2,0.1
		c-0.7,0-1.3,0-1.6,0c-0.2,0-0.9,0-1.3,0c-0.1,0-0.2,0-0.2-0.1c0,0,0-0.1,0.2-0.1c0.1,0,0.3,0,0.4,0c0.2,0,0.3-0.2,0.3-0.5
		c0-0.4,0-1.2,0-2.1V4.7z"/>
	<path class="st0" d="M85.3,6.3C85.3,6.3,85.4,6.2,85.3,6.3l-0.9-2.5c0,0,0-0.1,0-0.1c0,0,0,0.1-0.1,0.1l-1,2.4c0,0,0,0.1,0,0.1
		H85.3z M83.2,6.8C83.1,6.8,83.1,6.8,83.2,6.8l-0.6,1.4c-0.1,0.2-0.1,0.5-0.1,0.6c0,0.2,0.1,0.3,0.4,0.3H83c0.1,0,0.1,0,0.1,0.1
		c0,0.1-0.1,0.1-0.2,0.1c-0.3,0-0.8,0-1.1,0c-0.1,0-0.6,0-1.2,0c-0.1,0-0.2,0-0.2-0.1c0-0.1,0-0.1,0.1-0.1c0.1,0,0.2,0,0.3,0
		c0.5-0.1,0.6-0.4,0.8-0.8l2.6-6c0.1-0.3,0.2-0.4,0.3-0.4c0.1,0,0.2,0.1,0.3,0.3c0.2,0.5,1.9,4.5,2.5,5.9c0.4,0.9,0.7,1,0.8,1
		c0.1,0,0.3,0,0.4,0c0.1,0,0.1,0,0.1,0.1c0,0.1-0.1,0.1-0.4,0.1c-0.4,0-1.1,0-1.9,0c-0.2,0-0.3,0-0.3-0.1c0-0.1,0-0.1,0.1-0.1
		c0.1,0,0.1-0.1,0.1-0.2l-0.8-1.9c0-0.1-0.1-0.1-0.1-0.1H83.2z"/>
	<path class="st0" d="M90.5,7.9c0,0.7,0.1,1,0.3,1C91,9,91.2,9,91.3,9c0.1,0,0.2,0,0.2,0.1c0,0.1-0.1,0.1-0.2,0.1
		c-0.6,0-1.1,0-1.3,0c-0.1,0-0.6,0-1.1,0c-0.1,0-0.2,0-0.2-0.1c0-0.1,0.1-0.1,0.2-0.1c0.1,0,0.3,0,0.5,0c0.3-0.1,0.3-0.3,0.3-1.2
		l0.1-5.7c0-0.2,0.1-0.3,0.2-0.3c0.1,0,0.3,0.1,0.4,0.3c0.1,0.1,1.6,1.6,3.1,3.1c0.7,0.7,2,2,2.1,2.2h0L95.4,3
		c0-0.6-0.1-0.8-0.3-0.8c-0.1-0.1-0.4-0.1-0.5-0.1c-0.1,0-0.2,0-0.2-0.1c0-0.1,0.1-0.1,0.2-0.1c0.5,0,1.1,0,1.3,0c0.1,0,0.5,0,1,0
		c0.1,0,0.2,0,0.2,0.1c0,0.1-0.1,0.1-0.2,0.1c-0.1,0-0.2,0-0.3,0c-0.3,0.1-0.4,0.2-0.4,0.8L96.2,9c0,0.2-0.1,0.3-0.2,0.3
		c-0.2,0-0.3-0.1-0.4-0.2c-0.6-0.6-1.9-1.8-2.9-2.8c-1.1-1-2.1-2.2-2.3-2.4h0L90.5,7.9z M105.2,6.3C105.2,6.3,105.2,6.2,105.2,6.3
		l-0.9-2.5c0,0,0-0.1,0-0.1c0,0,0,0.1-0.1,0.1l-1,2.4c0,0,0,0.1,0,0.1H105.2z M103.1,6.8C103,6.8,103,6.8,103.1,6.8l-0.6,1.4
		c-0.1,0.2-0.1,0.5-0.1,0.6c0,0.2,0.1,0.3,0.4,0.3h0.1c0.1,0,0.1,0,0.1,0.1c0,0.1-0.1,0.1-0.2,0.1c-0.3,0-0.8,0-1.1,0
		c-0.1,0-0.6,0-1.2,0c-0.1,0-0.2,0-0.2-0.1c0-0.1,0-0.1,0.1-0.1c0.1,0,0.2,0,0.3,0c0.5-0.1,0.6-0.4,0.8-0.8l2.6-6
		c0.1-0.3,0.2-0.4,0.3-0.4c0.1,0,0.2,0.1,0.3,0.3c0.2,0.5,1.9,4.5,2.5,5.9c0.4,0.9,0.7,1,0.8,1c0.1,0,0.3,0,0.4,0
		c0.1,0,0.1,0,0.1,0.1c0,0.1-0.1,0.1-0.4,0.1c-0.3,0-1.1,0-1.9,0c-0.2,0-0.3,0-0.3-0.1c0-0.1,0-0.1,0.1-0.1c0.1,0,0.1-0.1,0.1-0.2
		l-0.8-1.9c0-0.1-0.1-0.1-0.1-0.1H103.1z"/>
	<path class="st0" d="M110.3,2c0-0.2,0.1-0.2,0.2-0.2c0.1,0,0.2,0,0.3,0.3l2.7,5.4l2.7-5.4c0.1-0.2,0.2-0.2,0.3-0.2
		c0.1,0,0.2,0.1,0.2,0.3l0.9,5.9c0.1,0.6,0.2,0.9,0.5,0.9c0.3,0.1,0.4,0.1,0.6,0.1c0.1,0,0.2,0,0.2,0.1c0,0.1-0.1,0.1-0.3,0.1
		c-0.2,0-1.7,0-2.1-0.1c-0.2,0-0.3-0.1-0.3-0.1c0,0,0-0.1,0.1-0.1c0.1,0,0.1-0.1,0-0.4l-0.6-4.2h0l-2.1,4.3
		c-0.2,0.5-0.3,0.5-0.4,0.5c-0.1,0-0.2-0.2-0.4-0.5c-0.2-0.4-1-1.9-1.1-2.2c-0.1-0.2-0.7-1.4-1-2.1h0l-0.5,3.8c0,0.2,0,0.3,0,0.5
		c0,0.2,0.1,0.2,0.3,0.3c0.2,0,0.3,0,0.4,0c0.1,0,0.2,0,0.2,0.1c0,0.1-0.1,0.1-0.2,0.1c-0.4,0-0.9,0-1.1,0c-0.2,0-0.7,0-1,0
		c-0.1,0-0.2,0-0.2-0.1c0,0,0.1-0.1,0.2-0.1c0.1,0,0.1,0,0.3,0c0.3,0,0.4-0.4,0.4-0.7L110.3,2z M120.3,4.7c0-1.5,0-1.7,0-2
		c0-0.3-0.1-0.4-0.4-0.5c-0.1,0-0.2,0-0.4,0c-0.1,0-0.2,0-0.2-0.1c0-0.1,0.1-0.1,0.2-0.1c0.5,0,1.2,0,1.4,0c0.3,0,2.5,0,2.7,0
		c0.2,0,0.3,0,0.4-0.1c0.1,0,0.1,0,0.2,0c0.1,0,0.1,0,0.1,0.1c0,0.1-0.1,0.2-0.1,0.6c0,0.1,0,0.5-0.1,0.6c0,0,0,0.2-0.1,0.2
		c-0.1,0-0.1,0-0.1-0.1c0-0.1,0-0.2-0.1-0.4c-0.1-0.2-0.2-0.3-0.7-0.3c-0.2,0-1.4,0-1.6,0c0,0-0.1,0-0.1,0.1V5c0,0.1,0,0.1,0.1,0.1
		c0.2,0,1.5,0,1.7,0c0.2,0,0.4,0,0.5-0.1c0.1-0.1,0.1-0.1,0.2-0.1c0,0,0.1,0,0.1,0.1c0,0.1,0,0.2-0.1,0.7c0,0.2,0,0.6,0,0.6
		c0,0.1,0,0.2-0.1,0.2c-0.1,0-0.1,0-0.1-0.1c0-0.1,0-0.2,0-0.4c-0.1-0.2-0.2-0.3-0.6-0.4c-0.2,0-1.3,0-1.6,0c0,0-0.1,0-0.1,0.1v0.8
		c0,0.3,0,1.1,0,1.4c0,0.7,0.3,0.8,1.3,0.8c0.3,0,0.7,0,0.9-0.1c0.2-0.1,0.4-0.3,0.4-0.7c0-0.1,0-0.1,0.1-0.1c0.1,0,0.1,0.1,0.1,0.2
		c0,0.2-0.1,0.9-0.1,1.1c-0.1,0.2-0.2,0.2-0.5,0.2c-0.7,0-1.3,0-1.8,0c-0.5,0-0.9,0-1.2,0c-0.1,0-0.3,0-0.6,0c-0.2,0-0.5,0-0.7,0
		c-0.1,0-0.2,0-0.2-0.1c0,0,0-0.1,0.2-0.1c0.1,0,0.3,0,0.3,0c0.2,0,0.3-0.2,0.3-0.5c0-0.4,0-1.2,0-2V4.7z M127.8,5.5
		c0,0.1,0,0.1,0.1,0.2c0.2,0.1,0.5,0.1,0.8,0.1c0.4,0,0.5,0,0.7-0.2c0.3-0.2,0.6-0.6,0.6-1.4c0-1.4-0.9-1.7-1.5-1.7
		c-0.2,0-0.5,0-0.6,0c-0.1,0-0.1,0.1-0.1,0.1V5.5z M126.6,4.7c0-1.5,0-1.7,0-2c0-0.3-0.1-0.4-0.4-0.5c-0.1,0-0.2,0-0.4,0
		c-0.1,0-0.2,0-0.2-0.1c0-0.1,0.1-0.1,0.2-0.1c0.5,0,1.2,0,1.4,0c0.3,0,1.2,0,1.6,0c0.6,0,1.4,0.1,1.9,0.4c0.3,0.2,0.7,0.7,0.7,1.3
		c0,0.7-0.4,1.3-1.4,2.1c0.9,1.1,1.6,2,2.2,2.6c0.6,0.6,0.9,0.6,1.1,0.6c0.1,0,0.2,0,0.2,0s0.1,0.1,0.1,0.1c0,0.1-0.1,0.1-0.2,0.1
		h-0.9c-0.6,0-0.8-0.1-1.1-0.2c-0.4-0.2-0.8-0.7-1.4-1.4c-0.4-0.5-0.8-1.2-0.9-1.3c-0.1-0.1-0.1-0.1-0.2-0.1l-0.9,0
		c0,0-0.1,0-0.1,0.1v0.1c0,0.9,0,1.6,0.1,2c0,0.3,0.1,0.5,0.4,0.5c0.1,0,0.4,0,0.5,0c0.1,0,0.1,0.1,0.1,0.1c0,0.1-0.1,0.1-0.2,0.1
		c-0.6,0-1.4,0-1.6,0c-0.2,0-0.8,0-1.2,0c-0.1,0-0.2,0-0.2-0.1c0,0,0-0.1,0.2-0.1c0.1,0,0.3,0,0.3,0c0.2,0,0.3-0.2,0.3-0.5
		c0-0.4,0-1.2,0-2V4.7z"/>
	<path class="st0" d="M134.3,4.7c0-1.5,0-1.7,0-2c0-0.3-0.1-0.4-0.3-0.5c-0.1,0-0.2,0-0.4,0c-0.1,0-0.2,0-0.2-0.1
		c0-0.1,0.1-0.1,0.2-0.1c0.4,0,1.1,0,1.3,0c0.2,0,0.9,0,1.3,0c0.1,0,0.2,0,0.2,0.1c0,0.1-0.1,0.1-0.2,0.1c-0.1,0-0.2,0-0.3,0
		c-0.3,0-0.4,0.2-0.4,0.5c0,0.3,0,0.6,0,2v1.7c0,0.9,0,1.7,0,2.1c0,0.3,0.1,0.4,0.4,0.5c0.1,0,0.4,0,0.5,0c0.1,0,0.2,0.1,0.2,0.1
		c0,0.1-0.1,0.1-0.2,0.1c-0.7,0-1.3,0-1.6,0c-0.2,0-0.9,0-1.3,0c-0.1,0-0.2,0-0.2-0.1c0,0,0-0.1,0.2-0.1c0.1,0,0.3,0,0.4,0
		c0.2,0,0.3-0.2,0.3-0.5c0-0.4,0-1.2,0-2.1V4.7z M138.9,8.3c-1-0.8-1.2-1.9-1.2-2.8c0-0.7,0.2-1.8,1.2-2.6c0.7-0.6,1.7-1,3.2-1
		c0.6,0,1,0,1.4,0.1c0.4,0.1,0.7,0.1,1,0.2c0.1,0,0.1,0.1,0.1,0.1c0,0.1,0,0.2,0,0.5c0,0.3,0,0.8,0,1c0,0.1,0,0.2-0.1,0.2
		c-0.1,0-0.1-0.1-0.1-0.2c0-0.3-0.1-0.6-0.4-0.9c-0.3-0.3-1-0.6-1.9-0.6c-0.9,0-1.4,0.2-1.9,0.5c-0.7,0.6-0.9,1.6-0.9,2.5
		c0,2.3,1.8,3.4,3.1,3.4c0.9,0,1.4-0.1,1.8-0.5c0.2-0.2,0.3-0.5,0.3-0.6c0-0.1,0-0.2,0.1-0.2c0.1,0,0.1,0.1,0.1,0.2
		c0,0.1-0.1,0.9-0.2,1.3c0,0.2-0.1,0.2-0.3,0.3c-0.4,0.2-1.2,0.2-1.8,0.2C140.9,9.3,139.8,9.1,138.9,8.3 M149.2,6.3
		C149.2,6.3,149.2,6.2,149.2,6.3l-0.9-2.5c0,0,0-0.1,0-0.1c0,0,0,0.1-0.1,0.1l-1,2.4c0,0,0,0.1,0,0.1H149.2z M147,6.8
		C147,6.8,147,6.8,147,6.8l-0.6,1.4c-0.1,0.2-0.1,0.5-0.1,0.6c0,0.2,0.1,0.3,0.4,0.3h0.1c0.1,0,0.1,0,0.1,0.1c0,0.1-0.1,0.1-0.2,0.1
		c-0.3,0-0.8,0-1.1,0c-0.1,0-0.6,0-1.2,0c-0.1,0-0.2,0-0.2-0.1c0-0.1,0-0.1,0.1-0.1c0.1,0,0.2,0,0.3,0c0.5-0.1,0.6-0.4,0.8-0.8
		l2.6-6c0.1-0.3,0.2-0.4,0.3-0.4c0.1,0,0.2,0.1,0.3,0.3c0.2,0.5,1.9,4.5,2.5,5.9c0.4,0.9,0.7,1,0.8,1c0.1,0,0.3,0,0.4,0
		c0.1,0,0.1,0,0.1,0.1c0,0.1-0.1,0.1-0.4,0.1c-0.4,0-1.1,0-1.9,0c-0.2,0-0.3,0-0.3-0.1c0-0.1,0-0.1,0.1-0.1c0.1,0,0.1-0.1,0.1-0.2
		l-0.8-1.9c0-0.1-0.1-0.1-0.1-0.1H147z"/>
	<path class="st0" d="M154.3,7.9c0,0.7,0.1,1,0.3,1C154.8,9,155,9,155.2,9c0.1,0,0.2,0,0.2,0.1c0,0.1-0.1,0.1-0.2,0.1
		c-0.6,0-1.1,0-1.3,0c-0.1,0-0.6,0-1.1,0c-0.1,0-0.2,0-0.2-0.1c0-0.1,0.1-0.1,0.2-0.1c0.1,0,0.3,0,0.5,0c0.3-0.1,0.3-0.3,0.3-1.2
		l0.1-5.7c0-0.2,0.1-0.3,0.2-0.3c0.1,0,0.3,0.1,0.4,0.3c0.1,0.1,1.6,1.6,3.1,3.1c0.7,0.7,2,2,2.1,2.2h0L159.3,3
		c0-0.6-0.1-0.8-0.3-0.8c-0.1-0.1-0.4-0.1-0.5-0.1c-0.1,0-0.2,0-0.2-0.1c0-0.1,0.1-0.1,0.2-0.1c0.5,0,1.1,0,1.3,0c0.1,0,0.5,0,1,0
		c0.1,0,0.2,0,0.2,0.1c0,0.1-0.1,0.1-0.2,0.1c-0.1,0-0.2,0-0.3,0c-0.3,0.1-0.4,0.2-0.4,0.8L160,9c0,0.2-0.1,0.3-0.2,0.3
		c-0.2,0-0.3-0.1-0.4-0.2c-0.6-0.6-1.9-1.8-2.9-2.8c-1.1-1-2.1-2.2-2.3-2.4h0L154.3,7.9z M162.6,9.1c-0.2-0.1-0.2-0.1-0.2-0.3
		c0-0.5,0-1.1,0.1-1.3c0-0.1,0-0.2,0.1-0.2c0.1,0,0.1,0.1,0.1,0.2c0,0.1,0,0.3,0.1,0.5c0.2,0.7,1,0.9,1.6,0.9c0.9,0,1.4-0.5,1.4-1.2
		c0-0.4-0.1-0.8-1-1.4l-0.6-0.3c-1.2-0.7-1.6-1.3-1.6-2.2c0-1.2,1.1-1.9,2.5-1.9c0.6,0,1.2,0.1,1.4,0.2c0.1,0,0.1,0.1,0.1,0.1
		c0,0.1,0,0.4,0,1.2c0,0.2,0,0.3-0.1,0.3c-0.1,0-0.1-0.1-0.1-0.2c0-0.1,0-0.4-0.3-0.6c-0.1-0.2-0.5-0.5-1.1-0.5
		c-0.7,0-1.4,0.4-1.4,1c0,0.4,0.2,0.8,1.1,1.3l0.4,0.2c1.3,0.7,1.7,1.5,1.7,2.3c0,0.7-0.3,1.3-1,1.8c-0.5,0.3-1.1,0.4-1.7,0.4
		C163.7,9.3,163,9.3,162.6,9.1"/>
</g>
</svg>
