<svg xmlns="http://www.w3.org/2000/svg" width="295" height="16" viewBox="0 0 295 16">
  <g fill="#FFFFFF" fill-rule="evenodd">
    <path d="M6.4116448.262533333L.000400452489 15.2598667 1.56216516 15.2598667 3.75264027 10.2132 10.7311923 10.2132 12.9043145 15.2598667 14.5475045 15.2598667 8.09488009.262533333 6.4116448.262533333zM7.26193891 1.96386667L10.143862 8.85586667 4.32128281 8.85586667 7.26193891 1.96386667zM21.0385724.262933333L21.0385724 9.6056C21.0385724 10.6989333 21.2014231 11.6936 21.5458122 12.3216 22.4588439 14.0042667 23.9405181 14.1669333 24.6506538 14.1669333 25.3594548 14.1669333 26.841129 14.0042667 27.7541606 12.3216 28.0998846 11.6936 28.2614005 10.6989333 28.2614005 9.6056L28.2614005.262933333 29.7630973.262933333 29.7630973 9.6056C29.7630973 10.8616 29.5602014 11.9362667 29.1944548 12.7282667 28.1599525 14.9762667 26.0509027 15.5229333 24.6506538 15.5229333 23.250405 15.5229333 21.1400204 14.9762667 20.1055181 12.7282667 19.7397715 11.9362667 19.5368756 10.8616 19.5368756 9.6056L19.5368756.262933333 21.0385724.262933333zM37.4320294 11.0649333C37.5134548 12.9489333 38.7108077 14.1649333 40.5568937 14.1649333 42.1400158 14.1649333 43.5789751 12.9489333 43.5789751 11.1862667 43.5789751 8.8756 41.2470068 8.2876 40.2325271 7.9836 38.8723235 7.5796 36.3361244 7.01026667 36.3361244 4.03293333 36.3361244 1.70226667 38.1822104-.0004 40.5568937-.0004 43.0116674-.0004 44.7162602 1.8836 44.7162602 4.0716L43.2145633 4.0716C43.2145633 2.55293333 41.9771652 1.35826667 40.5568937 1.35826667 38.8322783 1.35826667 37.8378213 2.67426667 37.8378213 3.97293333 37.8378213 5.7956 39.4409661 6.22093333 41.4085226 6.7876 45.1020294 7.78226667 45.0806719 10.6796 45.0806719 11.1249333 45.0806719 13.4356 43.2145633 15.5249333 40.5568937 15.5249333 38.6093597 15.5249333 35.9917353 14.3689333 35.9303326 11.0649333L37.4320294 11.0649333z"/>
    <polygon points="53.339 1.621 49.89 1.621 49.89 .262 58.269 .262 58.269 1.621 54.841 1.621 54.841 15.26 53.339 15.26"/>
    <polygon points="64.012 .263 72.229 .263 72.229 1.622 65.513 1.622 65.513 7.012 72.006 7.012 72.006 8.37 65.513 8.37 65.513 13.902 72.229 13.902 72.229 15.26 64.012 15.26"/>
    <polygon points="79.168 .263 81.197 .263 89.577 12.707 89.616 12.707 89.616 .263 91.117 .263 91.117 15.26 89.616 15.26 80.71 2.067 80.67 2.067 80.67 15.26 79.168 15.26"/>
    <path d="M108.060102,0.262933333 L111.873744,0.262933333 C113.881346,0.262933333 114.875803,0.506933333 115.567251,0.830933333 C117.251821,1.6216 118.244943,3.2616 118.244943,5.10826667 C118.244943,7.27626667 116.683179,9.48426667 113.781233,9.66693333 L118.022025,15.2602667 L116.135894,15.2602667 L111.040803,8.4696 C112.949627,8.4696 113.59836,8.45226667 114.267115,8.24693333 C115.91164,7.78293333 116.744581,6.40293333 116.744581,5.06693333 C116.744581,3.89093333 116.074491,2.67626667 115.098722,2.18826667 C114.207048,1.72293333 113.435509,1.6216 112.179423,1.6216 L109.561799,1.6216 L109.561799,15.2602667 L108.060102,15.2602667 L108.060102,0.262933333 Z"/>
    <polygon points="124.677 15.26 126.179 15.26 126.179 .263 124.677 .263"/>
    <path d="M148.699756 8.36973333C148.355367 12.8284 144.458964 15.5244 140.766792 15.5244 136.283059 15.5244 132.709688 11.8964 132.709688 7.76173333 132.709688 3.87106667 135.936.0004 140.746769.0004 144.723262.0004 147.259462 2.73373333 147.848127 4.25506667L146.102154 4.25506667C145.250525 2.7764 143.261611 1.35773333 140.766792 1.35773333 136.971837 1.35773333 134.211385 4.43773333 134.211385 7.78173333 134.211385 11.1244 136.971837 14.1657333 140.82686 14.1657333 144.013127 14.1657333 146.366452 11.8150667 146.89238 9.72706667L138.514914 9.72706667 138.514914 8.36973333 148.699756 8.36973333zM170.57207 8.36973333C170.227681 12.8284 166.331278 15.5244 162.637771 15.5244 158.155373 15.5244 154.582002 11.8964 154.582002 7.76173333 154.582002 3.87106667 157.808314.0004 162.619084.0004 166.594242.0004 169.130441 2.73373333 169.719106 4.25506667L167.974468 4.25506667C167.121505 2.7764 165.133925 1.35773333 162.637771 1.35773333 158.844152 1.35773333 156.083699 4.43773333 156.083699 7.78173333 156.083699 11.1244 158.844152 14.1657333 162.699174 14.1657333 165.884106 14.1657333 168.237432 11.8150667 168.764695 9.72706667L160.387229 9.72706667 160.387229 8.36973333 170.57207 8.36973333zM177.5904 11.0649333C177.673161 12.9489333 178.869179 14.1649333 180.717934 14.1649333 182.297052 14.1649333 183.738681 12.9489333 183.738681 11.1862667 183.738681 8.8756 181.405378 8.2876 180.392233 7.9836 179.032029 7.5796 176.497165 7.01026667 176.497165 4.03293333 176.497165 1.70226667 178.340581-.0004 180.717934-.0004 183.172708-.0004 184.874631 1.8836 184.874631 4.0716L183.372934 4.0716C183.372934 2.55293333 182.136871 1.35826667 180.717934 1.35826667 178.993319 1.35826667 177.998862 2.67426667 177.998862 3.97293333 177.998862 5.7956 179.602007 6.22093333 181.568229 6.7876 185.2604 7.78226667 185.239043 10.6796 185.239043 11.1249333 185.239043 13.4356 183.372934 15.5249333 180.717934 15.5249333 178.769066 15.5249333 176.152776 14.3689333 176.090038 11.0649333L177.5904 11.0649333zM215.370156 11.3293333C213.767011 14.268 210.8664 15.524 208.453007 15.524 204.250925 15.524 200.600133 12.2213333 200.600133 7.78266667 200.600133 3.344 204.149477.02 208.431649.02 212.286672.02 214.721423 2.716 215.308753 4.11333333L213.625518 4.11333333C211.982328 1.66133333 209.323324 1.37866667 208.411627 1.37866667 204.900993 1.37866667 202.10183 4.45866667 202.10183 7.80133333 202.10183 11.3066667 205.185314 14.1653333 208.431649 14.1653333 209.18183 14.1653333 211.636604 14.0653333 213.685586 11.3293333L215.370156 11.3293333z"/>
    <polygon points="221.823 .263 230.039 .263 230.039 1.622 223.324 1.622 223.324 7.012 229.816 7.012 229.816 8.37 223.324 8.37 223.324 13.902 230.039 13.902 230.039 15.26 221.823 15.26"/>
    <polygon points="236.979 .263 239.008 .263 247.388 12.707 247.427 12.707 247.427 .263 248.929 .263 248.929 15.26 247.427 15.26 238.52 2.067 238.481 2.067 238.481 15.26 236.979 15.26"/>
    <polygon points="258.222 1.621 254.773 1.621 254.773 .262 263.151 .262 263.151 1.621 259.722 1.621 259.722 15.26 258.222 15.26"/>
    <polygon points="268.893 .263 277.112 .263 277.112 1.622 270.395 1.622 270.395 7.012 276.889 7.012 276.889 8.37 270.395 8.37 270.395 13.902 277.112 13.902 277.112 15.26 268.893 15.26"/>
    <path d="M283.94898,0.262933333 L287.762622,0.262933333 C289.771559,0.262933333 290.766016,0.506933333 291.454794,0.830933333 C293.139364,1.6216 294.133821,3.2616 294.133821,5.10826667 C294.133821,7.27626667 292.572057,9.48426667 289.670111,9.66693333 L293.910903,15.2602667 L292.023437,15.2602667 L286.931016,8.4696 C288.838505,8.4696 289.487238,8.45226667 290.155993,8.24693333 C291.800518,7.78293333 292.633459,6.40293333 292.633459,5.06693333 C292.633459,3.89093333 291.963369,2.67626667 290.988934,2.18826667 C290.09726,1.72293333 289.325722,1.6216 288.066966,1.6216 L285.449342,1.6216 L285.449342,15.2602667 L283.94898,15.2602667 L283.94898,0.262933333 Z"/>
  </g>
</svg>
