<svg xmlns="http://www.w3.org/2000/svg" width="252" height="68" viewBox="0 0 252 68">
  <g fill="#002F54" fill-rule="evenodd">
    <path d="M25.6482769 43.7039207L32.2771557 21.646865 32.4567108 21.646865 32.5409917 21.646865 39.1723135 43.7039207 25.6482769 43.7039207zM79.1471281 14.154569C84.2003199 14.154569 84.7206631 18.2540351 85.0773302 20.4252021L98.5732732 20.4252021 98.5732732 9.75609458C98.1494256 9.07874905 97.6852697 8.3953013 97.118511 7.70209001 92.9240076 2.73610984 86.0374.378215103 79.6650284.378215103 68.8477534.378215103 57.074073 7.26761251 57.074073 19.379283 57.074073 31.4958352 68.3237458 36.0346606 72.8639232 37.8641037 82.8078523 42.0477803 85.5085066 43.0936995 85.5085066 47.3676888 85.5085066 50.3248207 83.1559692 53.5528909 79.2326305 53.5528909 77.1414861 53.5528909 72.5206922 52.2470175 72.5206922 44.7535011L56.1091173 44.7535011 56.1091173 44.8621205 38.9084775 1.60231884 25.9035626 1.60231884 0 66.1063616 17.7099898 66.1063616 21.1093209 56.7846224 43.5292715 56.7846224 46.6720954 66.1063616 64.5579759 66.1063616 63.0885561 62.4120824C66.6649993 65.3216171 71.8806456 67.3207018 79.4060782 67.3207018 89.325578 67.3207018 95.2960884 63.8216934 98.5732732 59.0558658L98.5732732 37.1391609C96.2781445 34.2796644 92.5844409 31.649611 86.8166933 29.0634935 75.2176821 23.8277956 73.4770976 23.0357285 73.4770976 19.2072006 73.4770976 16.1585355 76.2705831 14.154569 79.1471281 14.154569L79.1471281 14.154569zM212.909525 44.1933181L219.543289 22.1472464 219.711851 22.1472464 219.803461 22.1472464 226.442111 44.1933181 212.909525 44.1933181zM188.917551 41.9623494C187.870758 44.2299314 183.683583 52.8547979 173.386651 52.8547979 162.659764 52.8547979 156.029664 43.4390847 156.029664 33.6804272 156.029664 24.5222273 162.223702 14.8477803 173.30237 14.8477803 182.204391 14.8477803 187.086578 21.2941571 188.917551 26.0917162L203.536019 26.0917162 197.161204 41.9623494 188.917551 41.9623494zM226.17339 2.09781846L213.17336 2.09781846 205.127585 22.1277193C201.621986 12.3605187 191.123513.378215103 173.386651.378215103 163.060404.378215103 154.7569 4.44106789 148.950065 10.5030053 151.179235 14.3840122 152.276109 18.860595 152.273666 23.3615866 152.226029 30.590267 149.434986 37.9776049 144.577228 42.21254L144.5699 42.2149809 144.563792 42.2210831C143.5512 43.0961404 142.504406 43.8772235 141.385546 44.5704348 145.73884 57.3216171 157.631002 67.3207018 173.56132 67.3207018 178.839261 67.3207018 183.833823 66.1405339 188.29827 64.0267277L187.264912 66.6006407 204.966352 66.6006407 208.375454 57.2703585 230.795405 57.2703585 233.933343 66.6006407 251.815559 66.6006407 226.17339 2.09781846zM241.383167 6.05607933L241.898624 6.05607933C242.487369 6.05607933 242.985726 5.84128146 242.985726 5.2896415 242.985726 4.89909992 242.702347 4.50733791 241.898624 4.50733791 241.666546 4.50733791 241.507756 4.5244241 241.383167 4.54273074L241.383167 6.05607933zM241.383167 8.52991609L240.671054 8.52991609 240.671054 4.06065599C241.0436 4.00939741 241.400268 3.95813883 241.935268 3.95813883 242.611959 3.95813883 243.056571 4.09726926 243.324072 4.29254005 243.591572 4.48903127 243.734483 4.79170099 243.734483 5.22007628 243.734483 5.80710908 243.342393 6.16103738 242.861137 6.30504958L242.861137 6.33922197C243.252005 6.41000763 243.520727 6.76637681 243.609894 7.42663616 243.716161 8.11984744 243.819985 8.38590389 243.894495 8.52991609L243.145738 8.52991609C243.038249 8.38590389 242.931982 7.97583524 242.844037 7.39002288 242.736548 6.82007628 242.450726 6.6077193 241.882745 6.6077193L241.383167 6.6077193 241.383167 8.52991609zM242.130702 2.81580473C240.365689 2.81580473 238.924362 4.32915332 238.924362 6.20009153 238.924362 8.10276125 240.365689 9.5978032 242.147803 9.5978032 243.929917 9.6148894 245.354143 8.10276125 245.354143 6.21717773 245.354143 4.32915332 243.929917 2.81580473 242.147803 2.81580473L242.130702 2.81580473zM242.147803 2.19459954C244.340329 2.19459954 246.085799 3.97522502 246.085799 6.20009153 246.085799 8.45790999 244.340329 10.2177879 242.130702 10.2177879 239.941841 10.2177879 238.158505 8.45790999 238.158505 6.20009153 238.158505 3.97522502 239.941841 2.19459954 242.130702 2.19459954L242.147803 2.19459954z" opacity=".7"/>
    <path d="M116.888254,31.4029596 L123.629507,31.4029596 C126.773552,31.4029596 133.95209,31.4029596 133.95209,23.6238596 C133.95209,16.019283 126.602548,16.019283 123.010225,16.019283 L116.888254,16.019283 L116.888254,31.4029596 Z M101.055652,1.51066362 L122.229711,1.51066362 C134.208597,1.51066362 138.674265,3.34254767 142.179863,6.23011442 C147.250156,10.4223341 149.795684,16.802807 149.795684,23.3614645 C149.795684,29.9152403 147.074265,36.8241648 142.964042,40.325614 C138.500817,44.0821358 134.12798,45.9152403 124.060683,45.9152403 L116.888254,45.9152403 L116.888254,66.2050953 L101.055652,66.2050953 L101.055652,1.51066362 Z"/>
  </g>
</svg>
