<svg xmlns="http://www.w3.org/2000/svg" width="200" height="46" viewBox="0 0 200 46">
  <g fill="#002F54" fill-rule="evenodd">
    <g transform="translate(137.643 10.557)">
      <path d="M.168060837 1.07760656L4.24030418 1.07760656 4.24030418 4.40318033 4.33612167 4.40318033C5.00684746 3.04127188 6.06082932 2.05152768 7.49809886 1.43391803 8.9353684.816308387 10.5163412.507508197 12.2410646.507508197 14.157424.507508197 15.8262286.855898155 17.2475285 1.55268852 18.6688284 2.24947889 19.8505656 3.19171537 20.7927757 4.37942623 21.7349857 5.56713709 22.445625 6.93694306 22.9247148 8.48888525 23.4038047 10.0408274 23.643346 11.6877618 23.643346 13.4297377 23.643346 15.1717136 23.4117894 16.818648 22.9486692 18.3705902 22.485549 19.9225323 21.7828944 21.2765024 20.8406844 22.432541 19.8984744 23.5885796 18.7167371 24.4991442 17.2954373 25.1642623 15.8741374 25.8293804 14.2213022 26.1619344 12.3368821 26.1619344 11.730035 26.1619344 11.0513346 26.0985908 10.3007605 25.9719016 9.55018636 25.8452125 8.80760824 25.6393457 8.0730038 25.3542951 7.33839937 25.0692445 6.64372951 24.6812647 5.98897338 24.1903443 5.33421726 23.6994238 4.7832722 23.0897413 4.33612167 22.3612787L4.24030418 22.3612787 4.24030418 34.998459.168060837 34.998459.168060837 1.07760656zM19.3315589 13.1446885C19.3315589 12.0044861 19.1798494 10.8880546 18.8764259 9.79536066 18.5730023 8.70266667 18.109889 7.72875837 17.4870722 6.87360656 16.8642554 6.01845474 16.0657843 5.33751073 15.091635 4.8307541 14.1174856 4.32399747 12.9756719 4.07062295 11.6661597 4.07062295 10.2927688 4.07062295 9.12700099 4.33983337 8.16882129 4.8782623 7.2106416 5.41669122 6.42813992 6.12138909 5.82129278 6.99237705 5.21444563 7.86336501 4.77528653 8.85310921 4.50380228 9.96163934 4.23231803 11.0701695 4.09657795 12.1945189 4.09657795 13.3347213 4.09657795 14.5382683 4.24030275 15.7022075 4.52775665 16.8265738 4.81521056 17.95094 5.27033909 18.9406842 5.89315589 19.7958361 6.5159727 20.6509879 7.32242851 21.3398498 8.31254753 21.8624426 9.30266655 22.3850354 10.5003732 22.6463279 11.9057034 22.6463279 13.3110336 22.6463279 14.4847862 22.3771174 15.4269962 21.8386885 16.3692062 21.3002596 17.1277538 20.5876438 17.7026616 19.7008197 18.2775694 18.8139956 18.6927744 17.8004975 18.948289 16.6602951 19.2038036 15.5200927 19.3315589 14.3482355 19.3315589 13.1446885zM25.7034592 1.07760656L25.7034592 25.6393443 29.7757025 25.6393443 29.7757025 14.712459C29.7757025 13.1288445 29.9353968 11.7273668 30.25479 10.5079836 30.5741832 9.28860046 31.0852047 8.25134854 31.7878698 7.39619672 32.4905349 6.5410449 33.4167614 5.89177271 34.5665771 5.44836066 35.7163927 5.0049486 37.1057324 4.7832459 38.7346379 4.7832459L38.7346379.507508197C36.5308246.444163618 34.7103105.88756902 33.2730409 1.8377377 31.8357714 2.78790639 30.6220953 4.26064576 29.6319763 6.256L29.5361588 6.256 29.5361588 1.07760656 25.7034592 1.07760656zM37.6425856 13.3822295C37.6425856 11.576909 37.8980963 9.89038489 38.4091255 8.32260656 38.9201546 6.75482823 39.6866869 5.39294021 40.7087452 4.23690164 41.7308036 3.08086307 42.9923879 2.17029841 44.4935361 1.50518033 45.9946843.840062248 47.7193819.507508197 49.6676806.507508197 51.6479186.507508197 53.3806009.840062248 54.8657795 1.50518033 56.350958 2.17029841 57.6045576 3.08086307 58.626616 4.23690164 59.6486743 5.39294021 60.4152066 6.75482823 60.9262357 8.32260656 61.4372649 9.89038489 61.6927757 11.576909 61.6927757 13.3822295 61.6927757 15.18755 61.4372649 16.8661562 60.9262357 18.4180984 60.4152066 19.9700405 59.6486743 21.3240106 58.626616 22.4800492 57.6045576 23.6360877 56.350958 24.5387345 54.8657795 25.1880164 53.3806009 25.8372983 51.6479186 26.1619344 49.6676806 26.1619344 47.7193819 26.1619344 45.9946843 25.8372983 44.4935361 25.1880164 42.9923879 24.5387345 41.7308036 23.6360877 40.7087452 22.4800492 39.6866869 21.3240106 38.9201546 19.9700405 38.4091255 18.4180984 37.8980963 16.8661562 37.6425856 15.18755 37.6425856 13.3822295zM41.9543726 13.3822295C41.9543726 14.8708271 42.1539904 16.1931254 42.5532319 17.3491639 42.9524735 18.5052025 43.5034185 19.4711928 44.2060837 20.2471639 44.9087488 21.023135 45.731174 21.6169815 46.673384 22.0287213 47.6155941 22.4404611 48.6136829 22.6463279 49.6676806 22.6463279 50.7216783 22.6463279 51.7197672 22.4404611 52.6619772 22.0287213 53.6041872 21.6169815 54.4266125 21.023135 55.1292776 20.2471639 55.8319427 19.4711928 56.3828877 18.5052025 56.7821293 17.3491639 57.1813708 16.1931254 57.3809886 14.8708271 57.3809886 13.3822295 57.3809886 11.8936319 57.1813708 10.5713336 56.7821293 9.41529508 56.3828877 8.25925651 55.8319427 7.28534822 55.1292776 6.49354098 54.4266125 5.70173375 53.6041872 5.09996927 52.6619772 4.68822951 51.7197672 4.27648974 50.7216783 4.07062295 49.6676806 4.07062295 48.6136829 4.07062295 47.6155941 4.27648974 46.673384 4.68822951 45.731174 5.09996927 44.9087488 5.70173375 44.2060837 6.49354098 43.5034185 7.28534822 42.9524735 8.25925651 42.5532319 9.41529508 42.1539904 10.5713336 41.9543726 11.8936319 41.9543726 13.3822295z"/>
    </g>
    <path d="M121.450788 1.50766994L114.470021 1.50766994 110.148938 12.1816869C108.267154 6.97638815 102.629019.591230359 93.1059745.591230359 87.5603213.591230359 83.102154 2.75647333 79.9826831 5.98710171 81.1803605 8.05478192 81.7693607 10.4405167 81.7687048 12.8399104 81.7424687 16.6923388 80.2437322 20.6286711 77.6345532 22.8856231L77.6306178 22.8869239 77.6279942 22.8908265C77.0835953 23.3571765 76.522143 23.7727939 75.9213366 24.1428819 78.2583162 30.9378034 84.6441801 36.2660312 93.1991126 36.2660312 96.0332661 36.2660312 98.7152502 35.6383774 101.112573 34.5118527L100.557679 35.8835851 110.063014 35.8835851 111.893637 30.9098354 123.933378 30.9098354 125.617735 35.8835851 135.220799 35.8835851 121.450788 1.50766994 121.450788 1.50766994zM101.445771 22.7522873C100.883007 23.9607648 98.6345742 28.5572719 93.1059745 28.5572719 87.3445295 28.5572719 83.7849482 23.5392936 83.7849482 18.3391982 83.7849482 13.4578079 87.1103724 8.30194093 93.0594054 8.30194093 97.8402766 8.30194093 100.461918 11.7374511 101.445771 14.294246L109.294297 14.294246 105.871799 22.7522873 101.445771 22.7522873 101.445771 22.7522873zM114.32769 23.9412522L117.890551 12.192744 118.030258 12.192744 121.595087 23.9412522 114.32769 23.9412522 114.32769 23.9412522zM42.5004955 7.93315367C45.2139629 7.93315367 45.4933772 10.1172588 45.6849007 11.2743532L52.9319642 11.2743532 52.9319642 5.58839521C52.7043661 5.22806339 52.4551233 4.86317865 52.1507847 4.4943914 49.8984165 1.84718836 46.2004398.591230359 42.778598.591230359 36.969928.591230359 30.6476866 4.26219202 30.6476866 10.7169446 30.6476866 17.1749492 36.688546 19.5938554 39.1265345 20.5688326 44.4662344 22.7978166 45.9164342 23.3558756 45.9164342 25.633641 45.9164342 27.2096049 44.6531665 28.9299616 42.5464086 28.9299616 41.423504 28.9299616 38.942226 28.2333635 38.942226 24.2397943L30.1295239 24.2397943 30.1295239 24.2976815 20.893109 1.24360005 13.9097182 1.24360005 0 35.6195153 9.50992613 35.6195153 11.335302 30.6522697 23.374387 30.6522697 25.0620234 35.6195153 34.6663995 35.6195153 33.8773491 33.6513491C35.7978308 35.2012962 38.5985332 36.2660312 42.6395467 36.2660312 47.9661286 36.2660312 51.1721786 34.4025824 52.9319642 31.8626984L52.9319642 20.1824841C51.6995239 18.6579033 49.7160757 17.256902 46.6189054 15.8786653 40.390458 13.0883702 39.4557974 12.6655982 39.4557974 10.6252356 39.4557974 9.00049033 40.9558457 7.93315367 42.5004955 7.93315367L42.5004955 7.93315367zM13.7726346 23.6810849L17.3322159 11.9260725 17.4738908 11.9260725 21.0347838 23.6810849 13.7726346 23.6810849 13.7726346 23.6810849zM130.028678 1.55905299C131.206022 1.55905299 132.143306 2.50801349 132.143306 3.69307588 132.143306 4.89700041 131.206022 5.83425338 130.019495 5.83425338 128.843462 5.83425338 127.886501 4.89700041 127.886501 3.69307588 127.886501 2.50801349 128.843462 1.55905299 130.019495 1.55905299L130.028678 1.55905299 130.028678 1.55905299zM130.019495 1.89011598C129.071716 1.89011598 128.297752 2.69663484 128.297752 3.69307588 128.297752 4.70772864 129.071716 5.50384081 130.028678 5.50384081 130.985639 5.51359709 131.750421 4.70772864 131.750421 3.70283216 131.750421 2.69663484 130.985639 1.89011598 130.028678 1.89011598L130.019495 1.89011598 130.019495 1.89011598zM129.618739 4.93472468L129.235692 4.93472468 129.235692 2.55289236C129.435086 2.52557479 129.627265 2.49825722 129.914551 2.49825722 130.278576 2.49825722 130.516669 2.57305534 130.660311 2.67712229 130.803298 2.78183965 130.880039 2.94314343 130.880039 3.1714403 130.880039 3.48429157 130.67015 3.67291291 130.411724 3.74966229L130.411724 3.76722359C130.621613 3.80559827 130.766568 3.99552046 130.813793 4.34739683 130.8702 4.71618408 130.926608 4.8579753 130.965962 4.93472468L130.563894 4.93472468C130.506174 4.8579753 130.449767 4.63943471 130.402542 4.32788428 130.344822 4.02413887 130.191341 3.91031564 129.886347 3.91031564L129.618739 3.91031564 129.618739 4.93472468 129.618739 4.93472468zM129.618739 3.61697693L129.895529 3.61697693C130.210362 3.61697693 130.477971 3.50185286 130.477971 3.20851415 130.477971 3.00038025 130.327113 2.79159593 129.895529 2.79159593 129.769596 2.79159593 129.684985 2.80070179 129.618739 2.81045806L129.618739 3.61697693 129.618739 3.61697693z"/>
    <path d="M54.2647575,1.19416825 L65.6348223,1.19416825 C72.0672552,1.19416825 74.4652337,2.17044632 76.348329,3.70998676 C79.0703231,5.94352367 80.4372233,9.34391126 80.4372233,12.8392599 C80.4372233,16.3320069 78.9758732,20.0140257 76.7681064,21.8800762 C74.3714397,23.8820642 72.0233098,24.8589926 66.6180197,24.8589926 L62.7665619,24.8589926 L62.7665619,35.6728496 L54.2647575,35.6728496 L54.2647575,1.19416825 L54.2647575,1.19416825 Z M62.7665619,17.1255174 L66.3864862,17.1255174 C68.0747785,17.1255174 71.9301717,17.1255174 71.9301717,12.9797503 C71.9301717,8.92634262 67.9829522,8.92634262 66.0545997,8.92634262 L62.7665619,8.92634262 L62.7665619,17.1255174 L62.7665619,17.1255174 Z"/>
  </g>
</svg>