<svg xmlns="http://www.w3.org/2000/svg" width="169" height="43" viewBox="0 0 169 43">
  <g fill="#002F54" fill-rule="evenodd">
    <path d="M37.8799445 32.6035259C39.3789035 36.3405851 40.2689105 39.9546137 45 40.1852963L45 42 28.1679389 42 28.1679389 40.1852963C30.1509368 39.9546137 32.8365718 39.5393848 32.8365718 37.1864216 32.8365718 36.156039 32.3056905 34.771943 31.9309507 33.8645911L29.2453158 26.7595649 13.8497571 26.7595649 12.1634282 31.2809452C11.6950035 32.5420105 10.7893824 34.8949737 10.7893824 36.2790698 10.7893824 39.2933233 13.1783484 39.8930983 16.0669674 40.1852963L16.0669674 42 0 42 0 40.1852963.655794587 40.0776444C3.52879944 39.4163541 4.5593338 38.6781695 6.05829285 36.0330083 7.43233865 33.5723931 8.93129771 29.5277569 9.9462179 26.8364591L19.9548924 1 25.5291464 1 37.8799445 32.6035259zM28.1679389 24.0528882L21.3289382 6.16729182 14.6773074 24.0528882 28.1679389 24.0528882zM74.742236 9.78132033C75.1614907 8.76631658 75.5807453 7.6744186 75.5807453 6.58252063 75.5807453 3.39909977 72.6459627 3.04538635 70.1459627 2.79932483L70.1459627 1 86 1 86 2.79932483C84.6335404 2.90697674 83.2670807 3.15303826 82.0714286 3.82970743 80.0993789 4.90622656 78.6708075 8.7048012 77.8322981 10.6732933L65.1459627 42 61.2795031 42 48.2204969 9.78132033C46.621118 5.81357839 45.7826087 3.10690173 41 2.79932483L41 1 58.6552795 1 58.6552795 2.79932483C56.8074534 2.98387097 53.5776398 2.86084021 53.5776398 5.5060015 53.5776398 6.58252063 53.9968944 7.73593398 54.4161491 8.7048012L64.6645963 35.6177794 74.742236 9.78132033zM120.879944 32.6035259C122.363289 36.3405851 123.26891 39.9546137 128 40.1852963L128 42 111.167939 42 111.167939 40.1852963C113.150937 39.9546137 115.836572 39.5393848 115.836572 37.1864216 115.836572 36.156039 115.30569 34.771943 114.946565 33.8645911L112.245316 26.7595649 96.834143 26.7595649 95.1634282 31.2809452C94.6793893 32.5420105 93.7893824 34.8949737 93.7893824 36.2790698 93.7893824 39.2933233 96.1783484 39.8930983 99.0513532 40.1852963L99.0513532 42 83 42 83 40.1852963 83.6557946 40.0776444C86.5287994 39.4163541 87.5437196 38.6781695 89.0582929 36.0330083 90.4323387 33.5723931 102.954892 1 102.954892 1L108.529146 1 120.879944 32.6035259zM111.167939 24.0528882L104.344552 6.16729182 97.6773074 24.0528882 111.167939 24.0528882zM167.748911 16.0482143L165.864554 16.0482143 165.617426 15.5721429C164.258218 12.9307143 162.48198 9.36785714 160.474059 7.15642857 157.863762 4.33071429 154.481188 3.01 150.619802 3.01 146.047921 3.01 142.495446 5.11392857 140.132277 8.89178571 137.815446 12.685 137.120396 17.4457143 137.120396 21.8839286 137.120396 26.0303571 137.93901 30.9139286 140.441188 34.3232143 143.03604 37.9475 147.360792 39.99 151.809109 39.99 157.863762 39.99 163.485941 36.1967857 166.451485 30.96L169 32.4035714C165.092277 39.3142857 158.697822 43 150.866931 43 138.587723 43 130 33.97 130 21.5921429 130 10.105 138.232475 0 149.909307 0 154.249505 0 158.450693 1.32071429 161.709703 4.33071429L163.022574 1.56642857 164.906931 1.56642857 167.748911 16.0482143z"/>
  </g>
</svg>