<svg xmlns="http://www.w3.org/2000/svg" width="166" height="96" viewBox="0 0 166 96">
  <g fill="#FFFFFF" fill-rule="evenodd">
    <polyline points="22.585 28.587 62.832 32.592 143.212 3.306 143.212 46.176 62.832 35.565 22.585 42.857"/>
    <polygon points="143.211 0 22.583 .002 22.583 25.345" opacity=".5"/>
    <polygon points="1.731 85.279 1.731 95.324 8.425 95.324 8.425 94.046 3.084 94.046 3.084 90.826 7.819 90.826 7.819 89.549 3.084 89.549 3.084 86.555 8.171 86.555 8.171 85.279"/>
    <path d="M12.0302669 94.0463655L13.7355397 94.0463655C16.0190686 94.0463655 17.963738 92.7838619 17.963738 90.2996029 17.963738 89.0225957 17.3017959 86.5542216 14.0599942 86.5542216L12.0302669 86.5542216 12.0302669 94.0463655zM10.6775727 85.2785957L14.1587711 85.2785957C18.3718785 85.2785957 19.4014901 88.4410705 19.4014901 90.2996029 19.4014901 92.8688115 17.4993496 95.3240633 13.9330934 95.3240633L10.6775727 95.3240633 10.6775727 85.2785957zM23.0771554 85.2783885L23.0771554 91.4355108C23.0771554 92.6848921 23.6972545 94.3016978 25.585676 94.3016978 27.4747835 94.3016978 28.0935107 92.6848921 28.0935107 91.4355108L28.0935107 85.2783885 29.4475769 85.2783885 29.4475769 91.6489209C29.4475769 93.9764029 27.7704281 95.5793957 25.585676 95.5793957 23.4016099 95.5793957 21.7244612 93.9764029 21.7244612 91.6489209L21.7244612 85.2783885 23.0771554 85.2783885zM39.3389818 87.4488173C38.7758165 86.7112058 37.8449818 86.2995799 36.9278661 86.2995799 34.688238 86.2995799 33.207957 88.1007885 33.207957 90.3854504 33.207957 92.4995223 34.6038661 94.3021122 36.9278661 94.3021122 38.0706595 94.3021122 38.9445603 93.7917237 39.5365355 92.9532777L40.677957 93.8200403C40.3823124 94.2302849 39.1832711 95.5791194 36.9004281 95.5791194 33.7299653 95.5791194 31.7708909 92.9111482 31.7708909 90.3854504 31.7708909 87.2637237 33.8987091 85.021882 36.9717669 85.021882 38.2819322 85.021882 39.6627504 85.5191482 40.4659983 86.5827453L39.3389818 87.4488173zM48.4271388 91.6486446L46.5661554 87.0365007 46.5373455 87.0365007 44.6496099 91.6486446 48.4271388 91.6486446zM46.0023041 85.2781122L47.2287835 85.2781122 51.4995107 95.3235799 49.9211388 95.3235799 48.9203372 92.8407022 44.1701306 92.8407022 43.1837339 95.3235799 41.6060479 95.3235799 46.0023041 85.2781122z"/>
    <polygon points="54.149 86.554 50.936 86.554 50.936 85.278 58.716 85.278 58.716 86.554 55.503 86.554 55.503 95.324 54.149 95.324"/>
    <polygon points="60.715 95.324 62.068 95.324 62.068 85.278 60.715 85.278"/>
    <path d="M73.538686,90.299741 C73.538686,88.1007194 72.0590909,86.2995108 69.775562,86.2995108 C67.492719,86.2995108 66.013124,88.1007194 66.013124,90.299741 C66.013124,92.5001439 67.492719,94.3020432 69.775562,94.3020432 C72.0590909,94.3020432 73.538686,92.5001439 73.538686,90.299741 M64.5760579,90.299741 C64.5760579,87.3209784 66.731314,85.0218129 69.775562,85.0218129 C72.8198099,85.0218129 74.976438,87.3209784 74.976438,90.299741 C74.976438,93.2798849 72.8198099,95.579741 69.775562,95.579741 C66.731314,95.579741 64.5760579,93.2798849 64.5760579,90.299741"/>
    <polygon points="77.482 85.278 79.258 85.278 84.754 93.536 84.783 93.536 84.783 85.278 86.136 85.278 86.136 95.324 84.416 95.324 78.863 87.065 78.836 87.065 78.836 95.324 77.482 95.324"/>
    <path d="M95.0952264 89.7041957L96.8704661 89.7041957C97.9419207 89.7041957 99.0133752 89.4493468 99.0133752 88.0866993 99.0133752 86.7247424 97.9419207 86.4692029 96.8704661 86.4692029L95.0952264 86.4692029 95.0952264 89.7041957zM93.7425322 85.2785266L97.2518545 85.2785266C99.8022182 85.2785266 100.450441 86.823505 100.450441 88.0866993 100.450441 89.3498935 99.8022182 90.8969439 97.2518545 90.8969439L95.0952264 90.8969439 95.0952264 95.3239942 93.7425322 95.3239942 93.7425322 85.2785266zM107.17104 91.6486446L105.311429 87.0365007 105.282619 87.0365007 103.394883 91.6486446 107.17104 91.6486446zM104.747578 85.2781122L105.974057 85.2781122 110.243412 95.3235799 108.666412 95.3235799 107.664239 92.8407022 102.915404 92.8407022 101.929007 95.3235799 100.34995 95.3235799 104.747578 85.2781122zM113.455101 89.7041957L115.23034 89.7041957C116.301109 89.7041957 117.371878 89.4493468 117.371878 88.0866993 117.371878 86.7247424 116.301109 86.4692029 115.23034 86.4692029L113.455101 86.4692029 113.455101 89.7041957zM112.101721 85.2785266L115.611729 85.2785266C118.161407 85.2785266 118.80963 86.823505 118.80963 88.0866993 118.80963 89.3643971 117.865762 90.5702676 116.357357 90.7394763L119.189646 95.3239942 117.499464 95.3239942 114.96282 90.8969439 113.455101 90.8969439 113.455101 95.3239942 112.101721 95.3239942 112.101721 85.2785266z"/>
    <polygon points="123.109 86.554 119.895 86.554 119.895 85.278 127.675 85.278 127.675 86.554 124.462 86.554 124.462 95.324 123.109 95.324"/>
    <polygon points="129.675 85.278 131.451 85.278 136.947 93.536 136.976 93.536 136.976 85.278 138.328 85.278 138.328 95.324 136.608 95.324 131.056 87.065 131.029 87.065 131.029 95.324 129.675 95.324"/>
    <polygon points="141.454 85.278 147.894 85.278 147.894 86.555 142.807 86.555 142.807 89.549 147.542 89.549 147.542 90.826 142.807 90.826 142.807 94.046 148.149 94.046 148.149 95.324 141.454 95.324"/>
    <path d="M151.979517 89.7041957L153.754756 89.7041957C154.826211 89.7041957 155.897665 89.4493468 155.897665 88.0866993 155.897665 86.7247424 154.826211 86.4692029 153.754756 86.4692029L151.979517 86.4692029 151.979517 89.7041957zM150.626822 85.2785266L154.136145 85.2785266C156.686508 85.2785266 157.335417 86.823505 157.335417 88.0866993 157.335417 89.3643971 156.39155 90.5702676 154.882459 90.7394763L157.714062 95.3239942 156.02388 95.3239942 153.487236 90.8969439 151.979517 90.8969439 151.979517 95.3239942 150.626822 95.3239942 150.626822 85.2785266zM160.095064 93.2242187C160.573858 93.9618302 161.40523 94.3023194 162.209164 94.3023194 163.096783 94.3023194 164.196362 93.7346072 164.196362 92.6281899 164.196362 90.3145209 159.278098 91.7476144 159.278098 87.8309525 159.278098 86.6533986 160.264494 85.0220892 162.659833 85.0220892 163.745007 85.0220892 164.788337 85.2486216 165.535337 86.1713266L164.435073 87.1789813C164.097585 86.6533986 163.434957 86.2997871 162.659833 86.2997871 161.166519 86.2997871 160.715164 87.2066072 160.715164 87.8309525 160.715164 90.371154 165.633428 88.8531108 165.633428 92.4707223 165.633428 94.4155856 164.082494 95.5793266 162.167321 95.5793266 160.884593 95.5793266 159.658114 95.1393842 158.981767 94.1883626L160.095064 93.2242187zM5.05085868 75.3381755L7.35016446 75.3381755C9.89092479 75.3381755 11.2511645 73.8760748 11.2511645 71.8959885 11.2511645 69.9165928 9.89092479 68.4247942 7.35016446 68.4247942L5.05085868 68.4247942 5.05085868 75.3381755zM5.05085868 67.5414561L7.01679256 67.5414561C9.37646198 67.5414561 10.4952471 66.4150101 10.4952471 64.4045353 10.4952471 62.3947511 9.37646198 61.268305 7.01679256 61.268305L5.05085868 61.268305 5.05085868 67.5414561zM.000205785124 75.3381755L1.0277595 75.3381755C2.20690826 75.3381755 2.41886694 75.094377 2.41886694 71.804823L2.41886694 64.8002763C2.41886694 61.5107223 2.20690826 61.268305 1.0277595 61.268305L.000205785124 61.268305.000205785124 60.3849669 7.95448678 60.3849669C11.5536686 60.3849669 13.429057 61.9686216 13.429057 64.3133698 13.429057 65.8362475 12.3404537 67.2969669 9.89092479 67.9378878L9.89092479 67.9979741C12.4008174 68.301859 14.1849744 69.7038734 14.1849744 71.8359022 14.1849744 74.2718158 12.128495 76.220823 8.13626364 76.220823L.000205785124 76.220823.000205785124 75.3381755zM27.4681298 67.6641842C27.4681298 65.3940259 27.2822372 61.2238964 24.130295 61.2238964 20.9783529 61.2238964 20.6072537 65.2987165 20.6072537 67.6641842L27.4681298 67.6641842zM20.6072537 68.5668604C20.6072537 71.2741986 20.7314107 75.8158964 24.4403446 75.8158964 27.1278983 75.8158964 28.8276835 73.5768173 28.9820223 70.9005583L30.2503446 70.9005583C30.0328983 74.5409612 27.7768074 76.7185727 24.1618488 76.7185727 19.5563777 76.7185727 17.6103364 73.203177 17.6103364 68.8776518 17.6103364 64.5838964 19.3094355 60.3205295 24.1618488 60.3205295 28.5505595 60.3205295 30.4657331 64.7089036 30.4657331 68.5668604L20.6072537 68.5668604zM32.8566132 75.3381755L33.8848529 75.3381755C35.0640017 75.3381755 35.2759603 75.094377 35.2759603 71.804823L35.2759603 64.8002763C35.2759603 61.5107223 35.0640017 61.268305 33.8848529 61.268305L32.8566132 61.268305 32.8566132 60.3849669 40.3272992 60.3849669 40.3272992 61.268305 39.2990595 61.268305C38.1192248 61.268305 37.9072661 61.5107223 37.9072661 64.8002763L37.9072661 75.3381755 41.0832165 75.3381755C43.3825223 75.3381755 44.8031256 74.0287079 44.894357 72.0182331L45.7716876 72.0182331 45.7716876 76.220823 32.8566132 76.220823 32.8566132 75.3381755zM47.4049355 75.3381755L48.4331752 75.3381755C49.6130099 75.3381755 49.8242826 75.094377 49.8242826 71.804823L49.8242826 64.8002763C49.8242826 61.5107223 49.6130099 61.268305 48.4331752 61.268305L47.4049355 61.268305 47.4049355 60.3849669 54.8756215 60.3849669 54.8756215 61.268305 53.8473818 61.268305C52.6682331 61.268305 52.4555884 61.5107223 52.4555884 64.8002763L52.4555884 75.3381755 55.6322248 75.3381755C57.9308446 75.3381755 59.3521339 74.0287079 59.4433653 72.0182331L60.3206959 72.0182331 60.3206959 76.220823 47.4049355 76.220823 47.4049355 75.3381755zM71.6670702 60.1412374L72.9065826 60.1412374 77.6259215 72.3228777 77.6849132 72.3228777 79.9238554 64.1000288C80.1056322 63.4611799 80.1653099 62.8824173 80.1653099 62.4866763 80.1653099 61.4203165 79.5314917 61.2683741 78.0793347 61.2683741L78.0793347 60.385036 83.553219 60.385036 83.553219 61.2683741 83.1004917 61.2683741C82.2835248 61.2683741 81.7388802 62.1517122 81.1338719 64.2215827L77.5950537 76.4646906 76.3555413 76.4646906 71.6060207 63.8265324 71.5449711 63.8265324 67.492376 76.4646906 66.2521777 76.4646906 62.1988967 63.7346763C61.5342107 61.6641151 61.2008388 61.2683741 59.7795496 61.2683741L59.7795496 60.385036 66.7968223 60.385036 66.7968223 61.2683741C65.2843017 61.2683741 64.6786074 61.3602302 64.6786074 62.3948201 64.6786074 62.5778417 64.7705248 63.1869928 65.0126653 63.9176978L67.6439711 72.1709353 67.7043347 72.1709353 71.6670702 60.1412374zM94.7757107 67.8469295C94.7757107 65.6230446 94.5946198 61.5426993 91.5085289 61.5426993 88.4238099 61.5426993 88.0602562 65.5311885 88.0602562 67.8469295L94.7757107 67.8469295zM88.0602562 68.7288863C88.0602562 71.3789007 88.1823554 75.8252892 91.811719 75.8252892 94.4437107 75.8252892 96.1057686 73.6324835 96.2573636 71.0128576L97.4982479 71.0128576C97.2856033 74.5765986 95.0775289 76.707246 91.5387107 76.707246 87.0320165 76.707246 85.1278182 73.2671309 85.1278182 69.0341525 85.1278182 64.8315626 86.790562 60.6593612 91.5387107 60.6593612 95.8341322 60.6593612 97.7095207 64.9538072 97.7095207 68.7288863L88.0602562 68.7288863zM102.972955 75.3381755L104.001195 75.3381755C105.180344 75.3381755 105.391617 75.094377 105.391617 71.804823L105.391617 61.268305 103.78855 61.268305C101.701889 61.268305 100.764195 62.4866072 100.492559 64.2215137L99.6145421 64.2215137 99.6145421 60.3849669 113.770501 60.3849669 113.770501 64.2215137 112.89317 64.2215137C112.620162 62.4866072 111.683154 61.268305 109.595807 61.268305L108.023608 61.268305 108.023608 71.804823C108.023608 75.094377 108.235567 75.3381755 109.414716 75.3381755L110.442955 75.3381755 110.442955 76.220823 102.972955 76.220823 102.972955 75.3381755zM115.192133 75.3381755L116.220373 75.3381755C117.400893 75.3381755 117.61148 75.094377 117.61148 71.804823L117.61148 64.8002763C117.61148 61.5107223 117.400893 61.268305 116.220373 61.268305L115.192133 61.268305 115.192133 60.3849669 122.664191 60.3849669 122.664191 61.268305 121.635265 61.268305C120.455431 61.268305 120.242786 61.5107223 120.242786 64.8002763L120.242786 67.5414561 127.32248 67.5414561 127.32248 64.8002763C127.32248 61.5107223 127.109836 61.268305 125.930001 61.268305L124.901761 61.268305 124.901761 60.3849669 132.373133 60.3849669 132.373133 61.268305 131.344893 61.268305C130.164373 61.268305 129.9531 61.5107223 129.9531 64.8002763L129.9531 71.804823C129.9531 75.094377 130.164373 75.3381755 131.344893 75.3381755L132.373133 75.3381755 132.373133 76.220823 124.901761 76.220823 124.901761 75.3381755 125.930001 75.3381755C127.109836 75.3381755 127.32248 75.094377 127.32248 71.804823L127.32248 68.4247942 120.242786 68.4247942 120.242786 71.804823C120.242786 75.094377 120.455431 75.3381755 121.635265 75.3381755L122.664191 75.3381755 122.664191 76.220823 115.192133 76.220823 115.192133 75.3381755zM144.651783 67.8469295C144.651783 65.6230446 144.471378 61.5426993 141.385287 61.5426993 138.300568 61.5426993 137.938386 65.5311885 137.938386 67.8469295L144.651783 67.8469295zM137.938386 68.7288863C137.938386 71.3789007 138.058427 75.8252892 141.688477 75.8252892 144.319783 75.8252892 145.983898 73.6324835 146.134807 71.0128576L147.375006 71.0128576C147.163047 74.5765986 144.954973 76.707246 141.41684 76.707246 136.90946 76.707246 135.004576 73.2671309 135.004576 69.0341525 135.004576 64.8315626 136.66732 60.6593612 141.41684 60.6593612 145.711576 60.6593612 147.586279 64.9538072 147.586279 68.7288863L137.938386 68.7288863zM154.997355 67.5413871L156.722521 67.5413871C159.564413 67.5413871 160.864975 66.0502791 160.864975 64.4044662 160.864975 62.7614158 159.564413 61.268236 156.722521 61.268236L154.997355 61.268236 154.997355 67.5413871zM149.946017 75.3381065L150.974942 75.3381065C152.154091 75.3381065 152.365364 75.0949986 152.365364 71.804754L152.365364 64.8002072C152.365364 61.5113439 152.154091 61.268236 150.974942 61.268236L149.946017 61.268236 149.946017 60.3848978 157.266479 60.3848978C161.621579 60.3848978 163.799471 61.7558331 163.799471 64.040495 163.799471 65.8665669 162.588769 67.388754 159.746876 67.9378187L159.746876 67.997905C161.893215 68.2727827 162.861777 69.3391424 162.981818 72.2315741 163.103231 74.9112863 163.435917 75.2158619 163.980562 75.2158619 164.373612 75.2158619 164.736479 74.7586532 164.91757 74.2420489L165.795587 74.5770129C165.280438 75.8250129 164.464843 76.4645525 163.103231 76.4645525 161.349256 76.4645525 160.653017 75.8250129 160.411562 73.6322072L160.169421 71.3489266C159.927281 69.1257324 158.86886 68.4247252 156.448826 68.4247252L154.997355 68.4247252 154.997355 71.804754C154.997355 75.0949986 155.208628 75.3381065 156.387777 75.3381065L157.416702 75.3381065 157.416702 76.220754 149.946017 76.220754 149.946017 75.3381065z"/>
    <path d="M27.3884223 67.3916547C27.3884223 65.1049209 27.2018438 60.9064748 24.0279512 60.9064748 20.8533727 60.9064748 20.4795298 65.0109928 20.4795298 67.3916547L27.3884223 67.3916547zM20.4795298 68.3005468C20.4795298 71.0265324 20.6036868 75.6013813 24.3393727 75.6013813 27.0454471 75.6013813 28.7575793 73.345036 28.913976 70.6508201L30.1891579 70.6508201C29.9710256 74.316777 27.6991579 76.5095827 24.058819 76.5095827 19.4224802 76.5095827 17.4613479 72.9693237 17.4613479 68.6141007 17.4613479 64.2906475 19.1727942 59.9982734 24.058819 59.9982734 28.4777116 59.9982734 30.4066041 64.4156547 30.4066041 68.3005468L20.4795298 68.3005468zM95.1494851 67.390964C95.1494851 65.1042302 94.9629066 60.9057842 91.789014 60.9057842 88.6137496 60.9057842 88.2405926 65.0109928 88.2405926 67.390964L95.1494851 67.390964zM88.2405926 68.2991655C88.2405926 71.0265324 88.3647496 75.6006906 92.1004355 75.6006906 94.8071959 75.6006906 96.5179562 73.3436547 96.6743529 70.6501295L97.9495347 70.6501295C97.7320884 74.3160863 95.4602207 76.5095827 91.8198818 76.5095827 87.183543 76.5095827 85.2217248 72.9686331 85.2217248 68.6141007 85.2217248 64.2892662 86.9331711 59.9968921 91.8198818 59.9968921 96.2380884 59.9968921 98.1676669 64.4142734 98.1676669 68.2991655L88.2405926 68.2991655zM144.74226 67.390964C144.74226 65.1042302 144.555681 60.9057842 141.381102 60.9057842 138.206524 60.9057842 137.834053 65.0109928 137.834053 67.390964L144.74226 67.390964zM137.834053 68.2991655C137.834053 71.0265324 137.95821 75.6006906 141.692524 75.6006906 144.39997 75.6006906 146.111417 73.3436547 146.267127 70.6501295L147.542309 70.6501295C147.324863 74.3160863 145.052309 76.5095827 141.412656 76.5095827 136.776317 76.5095827 134.814499 72.9686331 134.814499 68.6141007 134.814499 64.2892662 136.525945 59.9968921 141.412656 59.9968921 145.830863 59.9968921 147.759755 64.4142734 147.759755 68.2991655L137.834053 68.2991655z"/>
  </g>
</svg>