<svg width="277" height="102" xmlns="http://www.w3.org/2000/svg"><path d="M134.755 0v10.475h3.254V5.433h13.179V40.11h-7.672v3.354h22.263v-3.354h-7.695V5.433H171.3v5.042h3.344V0h-3.344v1.806h-33.29V0h-3.254zm-16.047.48v2.267c-2.611-1.45-5.22-2.086-8.191-2.086-7.203 0-12.891 5.158-12.891 11.645 0 5.316 2.712 8.47 10.64 12.434 7.472 3.784 9.902 6.128 9.902 9.552 0 3.514-3.241 6.036-7.742 6.036-3.06 0-5.58-.81-9.185-2.973V32.67h-3.344V43.95h3.344v-2.358c3.514 1.994 6.755 2.992 10.176 2.992 7.472 0 13.076-5.156 13.076-11.915 0-5.856-2.17-8.738-9.926-13.064-1.89-1.08-4.051-2.344-6.392-3.695-3.061-1.802-4.05-3.063-4.05-5.406 0-3.694 2.79-6.036 7.021-6.036 2.43 0 4.051.45 7.562 2.342v4.506h3.345V.481h-3.345zM66.644.686C55.056.685 45.129 10.793 45.129 22.5c0 11.886 9.926 22.086 21.515 22.086 11.407 0 21.332-10.29 21.332-22.086C87.976 10.884 78.05.685 66.644.685zm134.582 0c-11.587 0-21.513 10.108-21.513 21.815 0 11.886 9.924 22.086 21.513 22.086 11.407 0 21.332-10.29 21.332-22.086 0-11.616-9.925-21.815-21.332-21.815zM0 1.805V5.16h6.78v34.95H0v3.355h23.343c8.573 0 13.537-3.987 13.537-10.946 0-6.778-4.964-10.852-13.628-11.124 6.59 0 11.369-3.87 11.369-9.246 0-6.271-4.87-10.343-12.544-10.343H0zm228.697 0v3.626h6.327l1.808 2.342V40.11h-6.778v3.355h18.15V40.11h-6.854V13.538l26.16 30.65h2.71V5.432H277V1.805h-18.152v3.627h6.854v25.76L240.357 1.805h-11.66zM66.544 4.49c7.605 0 13.762 8.016 13.762 18.101 0 10.175-6.066 18.188-13.762 18.188-7.604 0-13.67-8.104-13.67-18.279 0-9.995 6.066-18.01 13.67-18.01zm134.584 0c7.605 0 13.76 8.016 13.76 18.101 0 10.175-6.064 18.188-13.76 18.188-7.604 0-13.67-8.104-13.67-18.279 0-9.995 6.066-18.01 13.67-18.01zm-187.466.941h6.416c4.428 0 6.778 2.507 6.778 6.987 0 4.57-2.892 7.526-7.41 7.526h-5.784V5.431zm0 18.14h6.507c5.964 0 8.94 2.891 8.94 8.495 0 5.151-3.067 7.773-9.031 7.773h-6.416V23.572zm170.376 40.325v1.54H159.85v2.857h5.78V98.12h-5.78v2.861h27.579v-7.154h-2.852v4.064h-13.09V84.472h9.873v3.834h2.831V77.61l-2.83.076v3.696h-9.874V68.526h12.628v4.003h2.773v-8.633h-2.85zm83.777 0v1.54h-24.19v2.857h5.781V98.12h-5.782v2.861h27.58v-7.154h-2.852v4.064h-13.09V84.472h9.874v3.834h2.832V77.61l-2.832.076v3.696h-9.874V68.526h12.629v4.003h2.774v-8.633h-2.85zm-235.276.417v2.396c-3.537-1.699-5.691-2.318-9.078-2.318-12.005 0-20.403 7.788-20.403 18.88 0 10.861 8.4 18.728 20.02 18.728 4.925 0 8.003-.697 12.216-2.551v-7.165H32.54l-.077 3.928c-3.614 1.925-5.461 2.541-8.078 2.541-8.388 0-14.698-6.932-14.698-16.097 0-8.628 5.772-15.021 13.622-15.021 3.464 0 5.925.846 9.231 3.235v2.62h2.754v-9.177H32.54zm194.78 0V66.4c-4.392-1.468-6.702-1.931-9.707-1.931-11.245 0-19.878 8.11-19.878 18.844 0 10.85 8.4 18.687 20.032 18.687 4.39 0 7.626-.62 13.072-2.55V89.26h5.857v-2.859h-17.466v2.86h5.855v8.883c-2.465.612-3.543.766-5.083.766-9.166 0-15.638-6.74-15.638-16.292 0-8.65 6.008-15.136 14.096-15.136 3.003 0 5.391.695 8.858 2.471v3.552h2.831v-9.192h-2.83zm-166.46.204c-9.86 0-18.335 8.627-18.335 18.626 0 10.152 8.476 18.856 18.335 18.856 9.706 0 18.184-8.782 18.184-18.856 0-9.922-8.478-18.626-18.184-18.626zm26.239.918v3.09h5.781v29.593h-5.781v2.862H114.5V93.2h-2.754v4.69H98.737V68.524h5.81v-3.09H87.099zm36.377 0v3.09h5.781v29.593h-5.781v2.862h27.402V93.2h-2.754v4.69h-13.009V68.524h5.81v-3.09h-17.449zm-62.693 2.326c6.47 0 11.708 6.845 11.708 15.46 0 8.69-5.16 15.533-11.708 15.533-6.47 0-11.631-6.92-11.631-15.61 0-8.537 5.161-15.383 11.631-15.383z" fill="#FFF" fill-rule="nonzero"/></svg>