<svg xmlns="http://www.w3.org/2000/svg" width="150" height="61" viewBox="0 0 150 61">
  <g fill="#002F54" fill-rule="evenodd">
    <path d="M66.7480017 12.6389593L66.7480017 29.0325752 71.0130914 29.0325752C79.2969756 29.6062437 88.4011882 25.4260976 88.4011882 15.9998597 88.4011882 7.88514468 81.1830849 3.70471789 73.8015338 3.70471789 66.9117304 3.70471789 66.7480017 6.49166908 66.7480017 12.6389593zM74.3761288 58.2952821L74.3761288 61 51 61 51 58.2952821C57.4794988 58.2952821 58.6275653 56.1636714 58.6275653 47.0655247L58.6275653 15.0980999C58.6275653 8.45881318 59.0381508 3.70471789 51 3.70471789L51 1 75.1136099 1C84.7101318 1 97.0128105 4.27838639 97.0128105 15.9998597 97.0128105 24.3604326 89.4666883 30.0162876 81.5933895 31L92.5842731 50.5900497C95.6184489 55.8358608 96.3567725 58.54114 103 58.2952821L103 61 89.3849644 61 72.5711817 31.7378544 66.7480017 31.7378544 66.7480017 47.0655247C66.7480017 56.1636714 67.8957874 58.2952821 74.3761288 58.2952821zM15.681716 50.0986196L15.681716 30.673204 20.1970651 30.673204C30.3778253 30.673204 40.5585854 32.804704 40.5585854 45.0989262 40.5585854 55.1805421 32.3479141 58.2954227 23.4813899 58.2954227 17.0769144 58.2954227 15.681716 55.8361292 15.681716 50.0986196L15.681716 50.0986196zM15.681716 12.1500626C15.681716 6.49450144 16.6667604 3.70797571 23.0703924 3.70797571 30.5417182 3.70797571 37.9309569 6.90424337 37.9309569 15.4285593 37.9309569 26.24743 29.3927808 27.9686267 20.4430451 27.9686267L15.681716 27.9686267 15.681716 12.1500626zM50 44.7714133C50 34.0336491 38.177218 29.8540008 29.0638705 29.607875L29.0638705 29.3623105C37.7667829 28.1322428 46.6338693 25.2640493 46.5523445 14.8549206 46.4696953.429198378 27.996739 1.00311772 17.8159789 1.00311772L0 1.00311772 0 3.70797571C6.48628134 3.70797571 7.55313168 5.92086275 7.55313168 14.936869L7.55313168 47.0662488C7.55313168 56.1639227 6.48628134 58.2954227 0 58.2954227L0 61 26.1084561 61C36.3713033 61 50 57.4756582 50 44.7714133L50 44.7714133z"/>
    <path d="M126.39334,61 C137.377281,61 145.573979,53.6375728 150,44.0914594 L148.278988,43.1208091 C144.098265,50.0779675 138.279044,56.0650297 129.508395,56.0650297 C115.491914,56.0650297 109.426273,40.2886375 109.426273,28.6391713 C109.426273,17.7985804 113.278343,3.31694269 126.885339,3.31694269 C134.590039,3.31694269 142.541159,10.6785388 146.96746,16.4229384 L149.016565,15.4520111 L143.524594,0.808598273 C141.721349,1.69891511 140.08229,2.5077904 137.950952,2.5077904 C136.229659,2.5077904 134.590039,1.94130069 132.705121,1.29420046 C130.901875,0.647100228 128.770257,0 125.901903,0 C117.622691,0 110.901707,5.33940792 106.639312,11.8115183 C102.458869,17.9600785 100,25.3222286 100,32.6835478 C100,47.8128397 110.245803,61 126.39334,61"/>
  </g>
</svg>