<svg xmlns="http://www.w3.org/2000/svg" width="221" height="54" viewBox="0 0 221 54">
  <g fill="#002F54" fill-rule="evenodd">
    <path d="M6.58860674 19.0308792C6.58860674 19.0308792 3.08846629 15.953941 7.614 11.307059 12.1395337 6.66169382 32.3318933.265879213 49.2273708 5.0128736 46.0905169 3.14107584 44.5463596 2.60638483 44.3999831 2.5184073 39.4512472-.499373596 15.2771461-1.90777247 2.16318539 8.30975562-2.18032584 12.3316938 1.36001124 16.2747556 1.36001124 16.2747556L6.58860674 19.0308792M42.4691039 24.3520787C42.4691039 24.3520787 51.944132 16.5948876 45.5270815 6.37963483 56.3847219 11.7675 54.1344691 26.5257303 47.8592444 27.4108146 47.7788511 32.3170787 47.4572781 41.535 47.3768848 44.0287079 47.2957331 46.5239326 46.7337388 47.9717697 42.3887107 48.6156742 38.044441 49.2603371 14.4717725 52.0748596 12.6219691 52.3145225 10.7714073 52.5572191 9.88632303 50.9485955 9.72705337 49.016882 11.174132 48.8576124 36.918177 45.5599719 38.2848624 45.398427 39.653823 45.236882 42.0671376 44.9145506 42.0671376 40.5710393 42.0671376 36.2260112 42.4691039 24.3520787 42.4691039 24.3520787"/>
    <path d="M22.1560028 31.8815899L22.6990365 31.5198202C22.6990365 31.5198202 29.0948511 33.2695112 34.8869579 26.4512528 39.351059 28.8046517 40.2566208 29.4076011 40.2566208 29.4076011 40.2566208 29.4076011 32.7754972 39.2436404 22.1560028 31.8815899M14.914618 27.9005309C14.914618 27.9005309 23.4241685 17.2795197 33.3178483 22.4080028 37.4816124 24.8220758 37.662118 25.0033399 37.662118 25.0033399 37.662118 25.0033399 30.0596461 20.2373848 20.4663034 30.9175534 16.4838034 28.7439017 14.914618 27.9005309 14.914618 27.9005309M7.73474157 49.983118C7.73474157 48.7150281 8.03735393 38.6393258 8.03735393 38.6393258L17.9924663 32.6060393 11.3547135 30.3125562 2.5463427 35.6215449C2.5463427 35.6215449 2.18381461 42.9835955 2.18381461 46.6043258 2.18381461 50.2235393 5.20159551 51.2512079 9.84696067 53.8435112 8.39836517 52.999382 7.73474157 51.2512079 7.73474157 49.983118"/>
    <polyline points="3.632 24.037 14.915 27.901 20.466 30.917 9.183 27.116"/>
    <g transform="translate(62 19)">
      <path d="M5.86160112 7.52089888C4.42480337 7.52426966 3.2686236 8.82707865 3.27367978 10.4391573 3.27873596 12.0124719 4.4433427 13.2883146 5.87845506 13.2849438 7.31441011 13.2790449 8.47227528 12.0360674 8.4663764 10.4231461 8.46132022 8.77146067 7.29755618 7.51668539 5.86160112 7.52089888M6.26019663 15.681573C5.03997191 15.6849438 3.95794944 15.2172472 3.1683427 14.3947753L3.17087079 15.4759551.673960674 15.4826966.628455056.849269663 3.24418539.840842697 3.26103933 6.30825843C4.02536517 5.55910112 5.06609551 5.12258427 6.22817416 5.11921348 8.88266854 5.11162921 11.0534551 7.38691011 11.0627247 10.3970225 11.0719944 13.384382 8.91469101 15.6748315 6.26019663 15.681573M18.4295787 7.62050562C17.3871629 7.50589888 16.5217135 7.6247191 15.9335112 8.25758427 15.384073 8.82977528 15.2888483 9.65646067 15.2922191 10.4620787L15.3073876 15.4382022 12.7110393 15.4466292 12.6790169 5.31657303 15.1582303 5.30898876 15.1616011 6.31179775C15.9832303 5.28707865 17.2026124 4.90870787 18.4219944 5.10252809L18.4295787 7.62050562M26.875927 9.22651685C26.5565449 8.04758427 25.5714326 7.30264045 24.3318258 7.30685393 23.1520506 7.31106742 22.2099157 8.06106742 21.8408146 9.24168539L26.875927 9.22651685zM21.8071067 11.3669663C22.1441854 12.6048876 23.1309831 13.3700562 24.3503652 13.3641573 25.2149719 13.3624719 26.0610393 12.9857865 26.4908146 12.1784831L29.2641292 12.1700562C28.6809831 14.2363483 26.895309 15.6385955 24.3764888 15.6453371 21.5256461 15.6554494 19.1770506 13.3017978 19.1677809 10.3717416 19.1593539 7.4408427 21.4927809 5.03325843 24.3444663 5.02483146 27.3335112 5.0155618 29.8186236 7.32876404 29.4587921 11.3425281L21.8071067 11.3669663 21.8071067 11.3669663zM37.8351124 10.4905618C37.2848315 10.8461798 36.4404494 11.0273596 35.377809 11.1478652 34.0994382 11.2894382 33.3140449 11.5675281 33.316573 12.315 33.3191011 12.8855056 33.9882022 13.2773596 35.030618 13.2739888 36.5845506 13.2689326 37.8418539 12.7338202 37.8376404 11.4360674L37.8351124 10.4905618zM37.9252809 14.4251124C37.2587079 15.1355056 36.2382022 15.5711798 34.8207865 15.5745506 32.6769663 15.5812921 30.7067416 14.5068539 30.7008427 12.3032022 30.6924157 10.0211798 32.5985955 9.42539326 34.8410112 9.22146067 36.5314607 9.05966292 37.7314607 8.85910112 37.7280899 8.03241573 37.7272472 7.50151685 37.0370787 7.07089888 35.8766854 7.07511236 34.9522472 7.07764045 33.8912921 7.49393258 33.6578652 8.36022472L31.0615169 8.36780899C31.3117978 6.4388764 33.1564607 4.99786517 35.8117978 4.9902809 39.9233146 4.97764045 40.2460674 7.63129213 40.2469101 8.43775281L40.2646067 13.7096629C40.2654494 14.2001124 40.4255618 14.967809 40.563764 15.3605056L38.1831461 15.3689326C38.0651685 15.1127528 37.9859551 14.7992697 37.9252809 14.4251124L37.9252809 14.4251124zM47.2285674 7.39457865C45.7926124 7.39879213 44.6364326 8.66115169 44.6406461 10.3119944 44.6465449 11.9257584 45.8111517 13.1619944 47.246264 13.1586236 48.6830618 13.1527247 49.8400843 11.8709831 49.8341854 10.2968258 49.8291292 8.68390449 48.6645225 7.39036517 47.2285674 7.39457865M52.4457022 15.3243539L49.9673315 15.3327809 49.9639607 14.2507584C49.1608708 15.0782865 48.1007584 15.5552528 46.860309 15.5594663 44.2251966 15.5662079 42.0341854 13.2917697 42.0257584 10.3010393 42.0164888 7.29261236 44.1923315 5.00384831 46.8282865 4.99457865 48.0072191 4.99205056 49.0336236 5.42182584 49.8223876 6.16592697L49.8072191.698511236 52.4010393.69008427 52.4457022 15.3243539M56.5674157 5.91042135L56.5969101 15.3115449 55.8502809 15.3132303 55.8199438 5.91210674 54.4421348 5.91632022 54.4421348 5.18823034 55.8182584 5.18317416 55.8148876 4.47615169C55.8098315 2.23457865 57.0823034.793567416 59.266573.984016854L59.2682584 1.65311798C57.3603933 1.54103933 56.5573034 2.7233427 56.5623596 4.53261236L56.5640449 5.18233146 59.2783708 5.1730618 59.2825843 5.90199438 56.5674157 5.91042135M68.9939045 10.2395225C68.9837921 7.66255618 67.0506461 5.5827809 64.6523315 5.58952247 62.2742416 5.59710674 60.3318258 7.68783708 60.3402528 10.2656461 60.3461517 12.7836236 62.3012079 14.8414888 64.6818258 14.8339045 67.0801404 14.8271629 69.0023315 12.7566573 68.9939045 10.2395225M69.7413764 10.2369944C69.7498034 13.1468258 67.4745225 15.5139607 64.6818258 15.524073 61.9101966 15.5316573 59.6222753 13.1771629 59.6104775 10.2673315 59.6012079 7.31705056 61.8756461 4.91115169 64.6506461 4.90188202 67.4416573 4.89261236 69.7329494 7.28587079 69.7413764 10.2369944M76.5320787 5.57342697C75.1947191 5.45882022 74.1725281 5.83634831 73.5455618 6.44814607 72.8191573 7.10039326 72.4306742 8.08297753 72.4323596 9.14646067L72.4508989 15.2635955 71.7042697 15.2669663 71.6730899 5.13606742 72.4197191 5.13353933 72.4273034 6.82567416C72.6017416 6.4911236 72.8174719 6.17426966 73.0905056 5.91808989 73.9744944 5.12848315 75.153427 4.75179775 76.531236 4.90432584L76.5320787 5.57342697M79.9933708 11.7389326C79.9992697 13.4698315 80.8091011 14.646236 82.7338202 14.5644944L82.7380337 15.2319101C80.5546067 15.435 79.2728652 14.0032584 79.2652809 11.7423034L79.2458989 5.84005618 77.8697753 5.84595506 77.8689326 5.11702247 79.2442135 5.11280899 79.2383146 2.94792135 79.9664045 2.94707865 79.9731461 5.1111236 82.7085393 5.10269663 82.7102247 5.83078652 79.9756742 5.83837079 79.9933708 11.7389326M93.144073 15.2002247L92.4151404 15.2027528 92.3974438 9.08393258C92.3890169 6.86258427 91.1856461 5.52859551 88.9651404 5.53533708 86.9182303 5.54123596 85.3280618 7.06146067 85.3348034 9.10668539L85.3525 15.2238202 84.6252528 15.2263483 84.5822753.591235955 85.3086798.589550562 85.3280618 6.8052809C86.0519382 5.6044382 87.3682303 4.83252809 88.980309 4.82662921 91.5758146 4.81820225 93.116264 6.44713483 93.124691 9.08224719L93.144073 15.2002247M104.316376 9.36227528C103.955702 7.1813764 102.160758 5.53474719 100.037163 5.53980337 97.8925 5.54823034 96.1262079 7.20497191 95.8000843 9.39008427L104.316376 9.36227528zM95.7233989 10.1173315C95.7512079 12.7516011 97.723118 14.6931742 100.183792 14.6872753 102.561882 14.679691 103.639691 13.3583427 104.127612 12.0201404L104.896152 12.0150843C104.193343 14.2027247 102.563567 15.4069382 100.183792 15.4136798 97.2933427 15.4229494 95.0054213 13.1089045 94.9944663 10.1586236 94.9877247 7.20918539 97.2410955 4.80244382 100.033792 4.79317416 103.064129 4.7830618 105.13632 7.5319382 105.106826 10.0886798L95.7233989 10.1173315 95.7233989 10.1173315z"/>
      <polygon points="118.043 15.124 115.368 15.132 113.519 8.43 111.71 15.142 109.014 15.15 105.836 5.032 108.591 5.022 110.383 12.099 112.21 5.012 114.807 5.004 116.679 12.078 118.426 4.993 121.179 4.984"/>
      <path d="M129.220337 10.053118C129.21191 8.30452247 128.089438 7.08766854 126.713315 7.09188202 125.335506 7.09609551 124.21809 8.31969101 124.223146 10.0691292 124.229888 11.7806461 125.35236 12.9578933 126.730169 12.9528371 128.10882 12.950309 129.223708 11.7663202 129.220337 10.053118M131.834382 10.0269944C131.845337 13.0548034 129.550674 15.3241854 126.737753 15.3342978 123.926517 15.3427247 121.634382 13.0868258 121.62764 10.0581742 121.618371 7.02952247 123.893652 4.72053371 126.704888 4.71210674 129.516966 4.70283708 131.826798 6.9975 131.834382 10.0269944M142.454972 9.64044944L139.857781 9.64803371 139.857781 9.13651685C139.856096 8.54662921 139.67323 7.13174157 137.963399 7.13595506 136.803006 7.13932584 135.999916 8.00814607 136.004129 9.15L136.019298 15.0682584 133.425478 15.0775281 133.390927 4.94747191 135.871826 4.93904494 135.874354 5.92331461C136.51986 5.15393258 137.403848 4.67865169 138.488399 4.6752809 140.866489 4.66853933 142.446545 6.45337079 142.453287 9.12808989L142.454972 9.64044944"/>
      <polygon points="146.194 15.036 143.597 15.045 143.552 .411 146.149 .404"/>
      <path d="M153.191096,7.06828652 C151.754298,7.0733427 150.597275,8.33654494 150.604017,9.98823034 C150.607388,11.6011517 151.772837,12.8365449 153.208792,12.8314888 C154.643062,12.8272753 155.80177,11.5455337 155.795028,9.9722191 C155.789972,8.36014045 154.626208,7.06575843 153.191096,7.06828652 M158.407388,14.9997472 L155.928174,15.0048034 L155.926489,13.9261517 C155.121713,14.7536798 154.061601,15.2289607 152.822837,15.2340169 C150.188567,15.2424438 147.995028,12.9663202 147.986601,9.97558989 C147.977331,6.96632022 150.153174,4.67839888 152.791657,4.67081461 C153.969747,4.66744382 154.995309,5.0963764 155.78323,5.84132022 L155.767219,0.373061798 L158.36441,0.366320225 L158.407388,14.9997472"/>
    </g>
  </g>
</svg>