<svg width="228" height="130" xmlns="http://www.w3.org/2000/svg"><g fill="#003054" fill-rule="nonzero"><path d="M1 33.734l3.21-2.452V2.796L1 .306V0h11.6c10.257 0 13.757 2.954 13.757 8.458 0 3.85-2.852 6.607-6.99 7.966 5.385.985 8.633 3.623 8.633 8.064C28 31.017 22.75 34 12.388 34H1v-.266zm11.968-17.98c4.534 0 7.83-1.86 7.83-7.02 0-4.845-3.026-6.893-8.584-6.893H9.497v13.913h3.47zm-3.47 1.674v14.859h3.518c6.487 0 9.425-2.265 9.425-7.434 0-4.756-2.668-7.474-8.584-7.474l-4.36.05zM43.073 34H31v-.266l3.191-2.452V2.796L31 .306V0h12.784C52.436 0 57.05 3.22 57.05 9.197c0 4.529-3.144 7.749-7.604 9.058l8.132 12.8L62 33.736V34H50.686v-.266l1.548-1.9-7.834-12.8h-4.95v12.248l3.623 2.452V34zM39.45 1.792V17.29h3.672c5.306 0 8.536-2.038 8.536-7.877-.01-5.474-2.893-7.62-8.228-7.62h-3.98zM63 33.734l3.233-2.452V2.796L63 .306V0h25.521v8.468h-.185l-5.48-6.577h-11.28v13.991h10.43l3.41-3.938h.185v10.152h-.195l-3.4-4.372h-10.43v14.464h11.72l5.528-6.695H89V34H63zM103.48 34h-9.62v-.266l3.598-2.678V3.939L93 .305V0h7.82l19.17 23.947 1.076 1.674V2.954L117.068.305V0H127v.305l-3.91 2.718V34h-1.525L99.432 6.509v24.547l4.048 2.678zM138.473 34h-9.622v-.266l3.598-2.678V3.939L128 .305V0h7.774l19.215 23.917 1.075 1.674V2.954L152.065.305V0H162v.305l-3.911 2.718V34h-1.526L134.425 6.509v24.547l4.048 2.678zM170.576 34H160v-.266l3.885-2.717 10.41-28.555L173.402 0h5.448l11.887 31.302L194 33.705v.265h-12.159v-.265l3.176-2.403-3.4-9.197h-12.42l-3.079 8.921 4.458 2.708V34zm4.69-29.028l-5.36 15.302h11.042l-5.682-15.302z"/><path d="M203.46 34h-9.63v-.266l3.598-2.678V3.939L193 .305V0h7.82l19.161 23.947 1.075 1.654V2.954L217.058.305V0H227v.305l-3.91 2.718V34h-1.525L199.423 6.509v24.547l4.037 2.678zM10.81 126H1v-.214l2.519-1.948v-22.676L1 99.214V99h20v6.74h-.17l-4.243-5.27H7.686v11.465h7.85l2.661-3.136h.18v8.113h-.18l-2.661-3.506h-7.85v10.451l3.125 1.948zM23.005 112.183a13.866 13.866 0 0 1 4-10.11 13.715 13.715 0 0 1 10.036-4.07c7.703 0 13.959 5.601 13.959 13.846C51 120.87 44.099 126 36.973 126c-7.898 0-13.968-5.67-13.968-13.817zm23.46.511c0-7.272-3.793-13.315-9.658-13.315-5.64 0-9.218 4.727-9.218 11.89 0 7.351 3.754 13.385 9.619 13.385 5.689 0 9.256-4.727 9.256-11.96zM61.715 126H52v-.214l2.559-1.948v-22.676L52 99.214V99h10.283c6.945 0 10.677 2.552 10.677 7.315 0 3.604-2.53 6.166-6.118 7.208l6.599 10.13L77 125.786V126h-9.167v-.214l1.25-1.52-6.3-10.198h-3.992v9.74l2.886 1.948.038.244zm-2.885-25.627v12.322h2.962c4.271 0 6.868-1.617 6.868-6.263 0-4.325-2.356-6.059-6.627-6.059H58.83zM84 130v-.253c2.842-1.398 3.99-3.272 3.99-7.225v-21.366l-2.664-1.942V99H95v.214l-2.663 1.942v19.91c-.04 4.476-2.473 7.856-8.337 8.934zM99.567 116.426v-15.263L97 99.24v-.211h9.564v.211l-2.75 1.923v15.436c0 6.584 3.61 7.93 7.431 7.93 2.818 0 7.431-.846 7.431-7.747v-15.437l-2.895-2.134V99H123v.211l-2.683 2.096v15.08c0 6.508-3.32 9.613-10.105 9.613-5.22.029-10.645-1.961-10.645-9.574zM124 126.332v-6.875h.185l4.534 5.412c1.208.476 2.489.736 3.785.766 3.736 0 5.838-1.964 5.838-4.685 0-2.475-1.946-4.184-6.733-6.727-5.663-3.045-7.609-5.245-7.609-8.456 0-4.331 4.174-6.767 8.64-6.767 2.534.01 5.062.23 7.56.658v6.688h-.146l-4.641-5.598a11.824 11.824 0 0 0-3.133-.403c-2.666 0-4.641 1.425-4.641 3.929 0 1.964 1.148 3.604 6.12 6.325 5.838 3.162 8.241 5.303 8.241 8.544 0 5.667-5.001 7.857-10.08 7.857-2.335-.05-5.682-.412-7.92-.668zM161.304 126h-9.568v-.214l2.615-1.945v-23.43h-4.838l-4.326 5.397H145V99h23v6.808h-.147l-4.366-5.398h-4.8v23.43l2.617 1.946zM170 99.214V99h10v.214l-2.734 1.948v22.676l2.734 1.948V126h-10v-.214l2.734-1.948v-22.646zM195.627 125.99c-7.641 0-14.627-5.09-14.627-14.175 0-9.086 8.209-13.811 15.057-13.811 3-.058 5.977.535 8.728 1.738v6.042h-.147l-5.391-5.894a11.698 11.698 0 0 0-3.444-.511c-5.87 0-10.244 4.764-10.244 12.25 0 7.013 3.767 13.014 10.352 13.014a17.885 17.885 0 0 0 3.405-.363l5.537-6.11H205v6.11a22.727 22.727 0 0 1-9.373 1.71zM208 125.718l2.501-1.943v-22.618L208 99.214V99h19.672v6.723h-.16l-4.224-5.256h-8.703v11.115h8.047l2.633-3.129h.14v8.055h-.14l-2.633-3.488h-8.047v11.503h9.012l4.262-5.324H228V126h-20zM21.333 81.984C10.19 81.984 0 74.712 0 61.73c0-13.135 11.982-19.726 21.957-19.726a30.982 30.982 0 0 1 12.731 2.49v8.623h-.214l-7.87-8.412a17.411 17.411 0 0 0-5.018-.718c-8.552 0-14.933 6.802-14.933 17.494 0 10.02 5.484 18.586 15.099 18.586a25.904 25.904 0 0 0 4.958-.518l8.076-8.718H35v8.728a33.81 33.81 0 0 1-13.667 2.424zM41 81.636l3.734-2.87V45.264L41 42.314V42h29.473v9.998h-.2l-6.34-7.776H50.911v16.466h12.046l3.935-4.61h.21v11.904h-.21l-3.935-5.161H50.91v17.046h13.491l6.387-7.865H71V82H41zM88.315 82h-11.31v-.364l4.206-3.106V46.62L76 42.315V42h9.114l22.582 28.135 1.278 1.966V45.5l-4.684-3.185V42H116v.315l-4.606 3.204V82h-1.796v-.059L83.563 49.658V78.53l4.752 3.106zM141.387 82h-13.726v-.355l3.757-2.801v-33.82h-6.945l-6.213 7.839H118V43h33v9.863h-.212l-6.222-7.839h-6.936v33.858l3.757 2.763zM156 81.636l3.736-2.87V45.264L156 42.314V42h29.483v9.998h-.201l-6.341-7.776h-13.027v16.466h12.04l3.946-4.61h.211v11.904h-.21l-3.947-5.161h-12.04v17.046h13.496l6.389-7.865H186V82h-30zM205.418 82H191v-.364l3.8-2.87V45.264l-3.8-2.95V42h15.217c10.297 0 15.84 3.785 15.84 10.813 0 5.329-3.74 9.113-9.08 10.657l9.743 15.02 5.28 3.146v.325h-13.502v-.325l1.85-2.231-9.352-15.08h-5.913v14.48l4.335 2.831V82zm-4.335-37.886v18.225h4.384c6.332 0 10.19-2.398 10.19-9.27 0-6.4-3.488-8.955-9.82-8.955h-4.754zM2 89h226v2H2z"/></g></svg>