<svg xmlns="http://www.w3.org/2000/svg" width="255" height="68" viewBox="0 0 255 68">
  <g fill="#002F54" fill-rule="evenodd">
    <path d="M218.344692 56.1706755L220.344495 56.1706755 220.344495 48.0557843C220.344495 47.6474602 220.154815 47.4574542 219.749704 47.4574542L218.209655 47.4574542 218.209655 44.8703529 221.832414 44.8703529C223.049002 44.8703529 223.617414 45.4422583 223.617414 46.4212295L223.617414 47.0478718C223.617414 47.1856576 223.617414 47.3479806 223.590406 47.4574542 223.563399 47.5386157 223.563399 47.5939817 223.563399 47.6474602L223.617414 47.6474602C223.751823 47.2114531 225.266749 44.5425611 228.699828 44.5425611 231.649286 44.5425611 233.325628 46.1230082 233.325628 49.8249791L233.325628 56.1706755 235.324803 56.1706755 235.324803 58.7577768 229.9183 58.7577768 229.9183 50.5340411C229.9183 48.818954 229.459803 47.7015679 227.727562 47.7015679 225.239113 47.7015679 223.781342 50.0992923 223.781342 52.521554L223.781342 56.1706755 225.75351 56.1706755 225.75351 58.7577768 218.344692 58.7577768 218.344692 56.1706755 218.344692 56.1706755zM209.069852 56.14488C211.312722 56.14488 213.152365 54.4002224 213.152365 51.8137503 213.152365 49.2549611 211.312722 47.4857664 209.069852 47.4857664 206.825099 47.4857664 204.959704 49.2549611 204.959704 51.8137503 204.959704 54.4002224 206.825099 56.14488 209.069852 56.14488L209.069852 56.14488zM209.041589 44.5425611C213.260394 44.5425611 216.64197 47.5669279 216.64197 51.8137503 216.64197 56.0882557 213.260394 59.0843103 209.069852 59.0843103 204.851047 59.0843103 201.470727 56.0882557 201.470727 51.8137503 201.470727 47.5669279 204.851047 44.5425611 209.041589 44.5425611L209.041589 44.5425611zM194.899766 42.5015697L198.36048 42.5015697 198.36048 39.425612 194.899766 39.425612 194.899766 42.5015697zM192.925086 56.1706755L194.926145 56.1706755 194.926145 47.4574542 192.790049 47.4574542 192.790049 44.8703529 198.36048 44.8703529 198.36048 56.1706755 200.334532 56.1706755 200.334532 58.7577768 192.925086 58.7577768 192.925086 56.1706755 192.925086 56.1706755zM183.457426 47.4574542L181.348337 47.4574542 181.348337 44.8703529 183.565456 44.8703529 183.565456 41.0847039 186.891761 41.0847039 186.891761 44.8703529 190.029015 44.8703529 190.029015 47.4574542 186.891761 47.4574542 186.891761 53.3111484C186.891761 55.7088729 188.676761 56.0077234 189.649655 56.0077234 189.838707 56.0077234 190.000751 55.9806695 190.109409 55.9806695L190.271453 55.9806695 190.271453 58.8131428 189.974372 58.8672505C189.785948 58.8936751 189.541626 58.8936751 189.218165 58.8936751 187.271121 58.8936751 183.457426 58.3223989 183.457426 53.6678815L183.457426 47.4574542 183.457426 47.4574542zM172.954064 56.4978381C174.821342 56.4978381 176.145333 54.4826422 176.145333 52.7398721L176.145333 52.2780695 175.577549 52.2780695C174.197032 52.2780695 170.954261 52.4951293 170.954261 54.5921159 170.954261 55.6535069 171.683461 56.4978381 172.954064 56.4978381L172.954064 56.4978381zM175.252833 50.1817121L176.118953 50.1817121 176.118953 49.7161346C176.118953 47.947569 175.009766 47.3209267 173.575862 47.3209267 172.522574 47.3209267 171.603695 47.6474602 170.872611 47.9758811 170.439236 48.1652579 170.033498 48.4106299 169.682401 48.6553727L168.411798 46.2589065C168.843916 45.9311148 169.331305 45.6322643 169.900345 45.3881507 170.845603 44.9515144 172.224236 44.5425611 173.873571 44.5425611 177.578608 44.5425611 179.55266 46.4495417 179.55266 50.0168725L179.55266 55.5723454C179.55266 55.9806695 179.74234 56.1706755 180.147451 56.1706755L181.391675 56.1706755 181.391675 58.7577768 178.145764 58.7577768C176.875788 58.7577768 176.389027 58.0770269 176.389027 57.2880617L176.389027 57.1244804C176.389027 56.9055331 176.414778 56.7438393 176.444298 56.6073118 176.471305 56.524892 176.471305 56.4707843 176.471305 56.4166766L176.414778 56.4166766C176.172968 56.9055331 175.847623 57.3421693 175.441256 57.7498643 174.712057 58.4318725 173.683892 59.0843103 172.062192 59.0843103 169.682401 59.0843103 167.495431 57.6957566 167.495431 54.8632834 167.495431 50.6152026 173.036342 50.1817121 175.252833 50.1817121L175.252833 50.1817121zM157.169815 56.1706755C159.00883 56.1706755 160.657537 54.8632834 160.657537 51.8955409 160.657537 49.6362314 159.54835 47.5128202 157.277845 47.5128202 155.332057 47.5128202 153.76186 49.0630677 153.76186 51.8137503 153.76186 54.4555884 155.141121 56.1706755 157.169815 56.1706755L157.169815 56.1706755zM156.602032 44.5425611C158.116958 44.5425611 159.062217 45.0056221 159.684015 45.524049 160.035739 45.8228994 160.333448 46.1500621 160.576515 46.5036493L160.631786 46.5036493C160.631786 46.4212295 160.631786 46.3130142 160.603522 46.2318527 160.576515 46.0418467 160.576515 45.8228994 160.576515 45.524049L160.576515 42.0108258 158.441047 42.0108258 158.441047 39.425612 163.985099 39.425612 163.985099 55.5723454C163.985099 55.9806695 164.17415 56.1706755 164.579261 56.1706755L165.822857 56.1706755 165.822857 58.7577768 162.57883 58.7577768C161.307599 58.7577768 160.820837 58.0770269 160.820837 57.2880617L160.820837 57.1244804C160.820837 56.9608991 160.847845 56.7960594 160.873596 56.6614194 160.90186 56.5789996 160.90186 56.524892 160.90186 56.4978381L160.847845 56.4978381C160.603522 56.9608991 160.280062 57.3975353 159.874323 57.7769181 159.143867 58.4318725 158.061687 59.0843103 156.330702 59.0843103 152.654557 59.0843103 150.301773 56.0882557 150.301773 51.8137503 150.301773 47.4033465 152.869988 44.5425611 156.602032 44.5425611L156.602032 44.5425611zM132.272771 56.1706755L134.273202 56.1706755 134.273202 48.0557843C134.273202 47.6474602 134.083522 47.4574542 133.678411 47.4574542L132.137106 47.4574542 132.137106 44.8703529 135.761121 44.8703529C136.977081 44.8703529 137.544865 45.4422583 137.544865 46.4212295L137.544865 47.0478718C137.544865 47.1856576 137.544865 47.3479806 137.518485 47.4574542 137.49085 47.5386157 137.49085 47.5939817 137.49085 47.6474602L137.544865 47.6474602C137.679273 47.2114531 139.1942 44.5425611 142.627278 44.5425611 145.576108 44.5425611 147.253079 46.1230082 147.253079 49.8249791L147.253079 56.1706755 149.25351 56.1706755 149.25351 58.7577768 143.845123 58.7577768 143.845123 50.5340411C143.845123 48.818954 143.385369 47.7015679 141.654384 47.7015679 139.16782 47.7015679 137.706909 50.0992923 137.706909 52.521554L137.706909 56.1706755 139.681589 56.1706755 139.681589 58.7577768 132.272771 58.7577768 132.272771 56.1706755 132.272771 56.1706755zM115.3517 47.4574542L113.214347 47.4574542 113.214347 44.8703529 118.783522 44.8703529 118.783522 53.2023039C118.783522 54.8632834 119.218153 56.0077234 120.949138 56.0077234 123.327044 56.0077234 124.76032 53.5584079 124.76032 51.0518389L124.76032 47.4574542 122.65186 47.4574542 122.65186 44.8703529 128.198424 44.8703529 128.198424 55.5993993C128.198424 56.0077234 128.387475 56.1977293 128.793214 56.1977293L130.118461 56.1977293 130.118461 58.7577768 126.707993 58.7577768C125.490776 58.7577768 124.922365 58.1852422 124.922365 57.2056419L124.922365 56.6884733C124.922365 56.4978381 124.950628 56.3355151 124.950628 56.2260415L124.950628 56.0360355 124.895985 56.0360355C124.733941 56.4978381 123.300665 59.0843103 119.866958 59.0843103 117.134815 59.0843103 115.3517 57.5875413 115.3517 53.8018923L115.3517 47.4574542 115.3517 47.4574542zM104.845825 56.14488C107.090579 56.14488 108.928337 54.4002224 108.928337 51.8137503 108.928337 49.2549611 107.090579 47.4857664 104.845825 47.4857664 102.602328 47.4857664 100.736305 49.2549611 100.736305 51.8137503 100.736305 54.4002224 102.602328 56.14488 104.845825 56.14488L104.845825 56.14488zM104.818818 44.5425611C109.036367 44.5425611 112.417315 47.5669279 112.417315 51.8137503 112.417315 56.0882557 109.036367 59.0843103 104.845825 59.0843103 100.628276 59.0843103 97.2473276 56.0882557 97.2473276 51.8137503 97.2473276 47.5669279 100.628276 44.5425611 104.818818 44.5425611L104.818818 44.5425611zM82.9805172 56.0882557L85.2780296 56.0882557 85.2780296 42.1202994 82.9805172 42.1202994 82.9805172 39.425612 96.6883374 39.425612 96.6883374 44.4330875 93.6609975 44.4330875 93.6609975 42.4462037 88.8210222 42.4462037 88.8210222 48.0016766 95.0666379 48.0016766 95.0666379 50.8624621 88.8210222 50.8624621 88.8210222 56.0882557 91.361601 56.0882557 91.361601 58.7577768 82.9805172 58.7577768 82.9805172 56.0882557 82.9805172 56.0882557zM232.921773 28.4914598L235.839828 28.4914598 235.839828 29.308108C235.839828 30.2612837 237.112315 30.7507693 238.544335 30.7507693 239.922968 30.7507693 240.89649 30.2877084 240.89649 29.3351619 240.89649 28.191351 239.597623 27.8358763 237.761749 27.1834385 235.759433 26.4485809 233.407278 25.5488837 233.407278 22.8812501 233.407278 19.9393032 236.354224 18.904966 238.842672 18.904966 240.843103 18.904966 243.817057 19.6945604 243.817057 21.7915469L243.817057 23.5613708 240.870111 23.5613708 240.870111 22.7717764C240.870111 22.0369189 240.058005 21.6285948 238.842672 21.6285948 237.761749 21.6285948 236.841613 22.0092359 236.841613 22.8812501 236.841613 24.0250609 238.191983 24.5151757 239.735172 24.9499245 241.843633 25.6042497 244.330825 26.5026886 244.330825 29.2256882 244.330825 32.0581615 241.682217 33.4448277 238.517956 33.4448277 236.029507 33.4448277 232.921773 32.3582703 232.921773 30.0970733L232.921773 28.4914598 232.921773 28.4914598zM216.356823 21.8198591L214.220099 21.8198591 214.220099 19.2321286 219.79053 19.2321286 219.79053 27.5647088C219.79053 29.2256882 220.223904 30.3707574 221.954261 30.3707574 224.332796 30.3707574 225.7667 27.9195544 225.7667 25.4142437L225.7667 21.8198591 223.656983 21.8198591 223.656983 19.2321286 229.19915 19.2321286 229.19915 29.961175C229.19915 30.3707574 229.38883 30.5601342 229.795197 30.5601342L231.120443 30.5601342 231.120443 33.1201817 227.713744 33.1201817C226.495899 33.1201817 225.929372 32.5482763 225.929372 31.5680467L225.929372 31.0508781C225.929372 30.8596138 225.955751 30.6966617 225.955751 30.5884464L225.955751 30.3971821 225.901108 30.3971821C225.738436 30.8596138 224.306416 33.4448277 220.872081 33.4448277 218.140567 33.4448277 216.356823 31.9486879 216.356823 28.1642972L216.356823 21.8198591 216.356823 21.8198591zM206.823842 18.904966C209.120727 18.904966 212.474667 19.7757219 212.474667 22.2269249L212.474667 24.1339054 209.500714 24.1339054 209.500714 23.2077836C209.500714 22.2539787 208.095074 21.8469129 206.9325 21.8469129 204.4183 21.8469129 202.875739 23.5890538 202.875739 26.1220475 202.875739 28.9815746 204.850419 30.5318221 207.201318 30.5318221 209.148362 30.5318221 210.744938 29.4433772 211.502401 28.8450471L212.71899 31.2956209C211.772475 32.194689 209.662131 33.4448277 207.012894 33.4448277 202.983768 33.4448277 199.414397 30.6696079 199.414397 26.2038381 199.414397 22.0633436 202.57803 18.904966 206.823842 18.904966L206.823842 18.904966zM190.015197 30.5047682C192.258695 30.5047682 194.096453 28.7638856 194.096453 26.1761551 194.096453 23.6167368 192.258695 21.8469129 190.015197 21.8469129 187.769815 21.8469129 185.905049 23.6167368 185.905049 26.1761551 185.905049 28.7638856 187.769815 30.5047682 190.015197 30.5047682L190.015197 30.5047682zM189.985677 18.904966C194.204483 18.904966 197.586687 21.9287036 197.586687 26.1761551 197.586687 30.4512897 194.204483 33.4448277 190.015197 33.4448277 185.794507 33.4448277 182.4167 30.4512897 182.4167 26.1761551 182.4167 21.9287036 185.794507 18.904966 189.985677 18.904966L189.985677 18.904966zM167.859717 30.4512897L170.157857 30.4512897 170.157857 16.4808168 167.859717 16.4808168 167.859717 13.7861293 181.568793 13.7861293 181.568793 18.7961215 178.540825 18.7961215 178.540825 16.8086086 173.70085 16.8086086 173.70085 22.3628232 179.946466 22.3628232 179.946466 25.2229794 173.70085 25.2229794 173.70085 30.4512897 176.241429 30.4512897 176.241429 33.1201817 167.859717 33.1201817 167.859717 30.4512897 167.859717 30.4512897zM158.602463 21.8198591L156.492746 21.8198591 156.492746 19.2321286 158.710493 19.2321286 158.710493 15.4483671 162.037426 15.4483671 162.037426 19.2321286 165.173424 19.2321286 165.173424 21.8198591 162.037426 21.8198591 162.037426 27.6735533C162.037426 30.0693903 163.82117 30.3707574 164.794064 30.3707574 164.984372 30.3707574 165.147044 30.3424452 165.255074 30.3424452L165.417118 30.3424452 165.417118 33.1742893 165.120037 33.2290262C164.929729 33.25608 164.687291 33.25608 164.361318 33.25608 162.41553 33.25608 158.602463 32.6848037 158.602463 28.029028L158.602463 21.8198591 158.602463 21.8198591zM138.928522 30.5318221L140.930837 30.5318221 140.930837 16.3726015 138.793485 16.3726015 138.793485 13.7861293 144.364544 13.7861293 144.364544 20.5395207C144.364544 20.8647959 144.364544 21.1649047 144.336909 21.3832228L144.282894 21.7103854 144.336909 21.7103854C144.986342 20.3759394 146.744335 18.904966 149.095862 18.904966 152.152094 18.904966 153.909458 20.4854131 153.909458 24.1873839L153.909458 30.5318221 155.910517 30.5318221 155.910517 33.1201817 150.474495 33.1201817 150.474495 24.8958168C150.474495 23.1807297 150.041749 22.0633436 148.31202 22.0633436 145.851207 22.0633436 144.364544 24.1873839 144.364544 26.7474314L144.364544 30.5318221 146.337968 30.5318221 146.337968 33.1201817 138.928522 33.1201817 138.928522 30.5318221 138.928522 30.5318221zM132.306687 25.8489925C132.306687 22.6899858 130.737746 21.8469129 128.899988 21.8469129 126.81351 21.8469129 125.650936 23.344311 125.650936 25.7130942 125.650936 28.1372434 126.867525 29.933492 129.116047 29.933492 130.737746 29.933492 132.306687 28.9815746 132.306687 25.8489925L132.306687 25.8489925zM124.514741 35.0793824C124.839458 35.2429637 125.218818 35.4046576 125.623929 35.5424434 126.355012 35.7871862 127.273892 36.0048751 128.332204 36.0048751 130.441293 36.0048751 132.225037 35.0523286 132.225037 32.5205933L132.225037 31.6498374C132.225037 31.4592022 132.225037 31.2956209 132.252672 31.1597226 132.27968 31.0791903 132.27968 30.9955121 132.27968 30.9143507L132.225037 30.9143507C131.38718 32.1399521 130.224606 32.8477559 128.386219 32.8477559 124.407968 32.8477559 122.19085 29.6340123 122.19085 25.8219387 122.19085 22.0092359 124.300567 18.904966 128.304569 18.904966 129.926897 18.904966 131.846933 19.5586621 132.576761 21.0025817L132.632032 21.0025817C132.632032 20.9742695 132.632032 20.920791 132.603768 20.8647959 132.576761 20.8113174 132.576761 20.7024729 132.576761 20.5395207 132.576761 19.804034 133.063522 19.2321286 134.144446 19.2321286L137.580037 19.2321286 137.580037 21.8198591 136.254163 21.8198591C135.84968 21.8198591 135.659372 22.0092359 135.659372 22.3628232L135.659372 32.2758505C135.659372 37.0404707 131.954963 38.8373484 128.386219 38.8373484 126.652094 38.8373484 124.839458 38.3736583 123.461453 37.6388007L124.514741 35.0793824 124.514741 35.0793824zM115.413879 16.8633454L118.874594 16.8633454 118.874594 13.7861293 115.413879 13.7861293 115.413879 16.8633454zM113.440456 30.5318221L115.440887 30.5318221 115.440887 21.8198591 113.305419 21.8198591 113.305419 19.2321286 118.874594 19.2321286 118.874594 30.5318221 120.848645 30.5318221 120.848645 33.1201817 113.440456 33.1201817 113.440456 30.5318221 113.440456 30.5318221zM101.138904 30.5318221L103.139335 30.5318221 103.139335 22.4181892C103.139335 22.0092359 102.949655 21.8198591 102.544544 21.8198591L101.003867 21.8198591 101.003867 19.2321286 104.59899 19.2321286C105.815579 19.2321286 106.438005 19.804034 106.438005 20.920791L106.438005 21.7374393C106.438005 21.9821821 106.438005 22.1728172 106.410998 22.3628232 106.38399 22.4446138 106.38399 22.5270336 106.38399 22.6094535L106.438005 22.6094535C107.08681 20.6200531 108.682131 19.0421226 110.818855 19.0421226 111.008534 19.0421226 111.143571 19.0421226 111.250973 19.0685473 111.333879 19.0962303 111.386638 19.0962303 111.439397 19.0962303L111.439397 22.4999798C111.359631 22.4999798 111.278608 22.4999798 111.196958 22.4722968 111.008534 22.4446138 110.847118 22.4446138 110.602796 22.4446138 107.817894 22.4446138 106.574298 24.8958168 106.574298 27.5106011L106.574298 30.5318221 108.54835 30.5318221 108.54835 33.1201817 101.138904 33.1201817 101.138904 30.5318221 101.138904 30.5318221zM92.389766 30.2612837C92.8495197 30.2612837 93.3626601 30.2336007 93.768399 30.0429656 94.7431773 29.6340123 95.3103325 28.5449383 95.3103325 27.3193368 95.3103325 25.6583574 94.2834236 24.5151757 92.525431 24.5151757L88.8210222 24.5151757 88.8210222 30.2612837 92.389766 30.2612837 92.389766 30.2612837zM92.2000862 21.6833316C93.7143842 21.6833316 94.5522414 20.6477361 94.5522414 19.1497088 94.5522414 18.1971622 94.2017734 17.352831 93.4449384 16.9457652 93.0391995 16.7538718 92.4720443 16.6456564 91.7949754 16.6456564L88.8210222 16.6456564 88.8210222 21.6833316 92.2000862 21.6833316 92.2000862 21.6833316zM82.9805172 30.4512897L85.2780296 30.4512897 85.2780296 16.4808168 82.9805172 16.4808168 82.9805172 13.7861293 91.7949754 13.7861293C93.2276232 13.7861293 94.2281527 13.8949738 95.2293103 14.3026688 96.9602956 14.9834187 98.1505049 16.5896613 98.1505049 18.7684385 98.1505049 20.5936284 97.3113916 22.1187095 95.7964655 22.9076748L95.7964655 22.9624116C97.9331897 23.6167368 98.9073399 25.4954052 98.9073399 27.537655 98.9073399 30.2336007 97.1763547 32.1399521 95.0949015 32.7930191 94.1477586 33.0924987 93.282266 33.1201817 92.2283498 33.1201817L82.9805172 33.1201817 82.9805172 30.4512897 82.9805172 30.4512897zM45.4232882 62.4465353L7.95084975 62.4465353 26.6833005 29.9366378C27.962697 27.723886 27.229101 24.9084 25.0201478 23.6324658L23.8720197 25.6218662 0 67.0425409 50.0396675 67.0425409C50.0396675 64.4906725 47.9732882 62.4465353 45.4232882 62.4465353"/>
    <path d="M46.7912438,15.3269394 C44.5829187,16.6035028 43.8512069,19.4177305 45.1243227,21.6304822 L63.86117,54.1378632 L63.86117,54.1403798 L26.3830788,54.1403798 C23.8387315,54.1403798 21.7692118,56.1832587 21.7692118,58.7376437 L71.8107635,58.7376437 L47.9368596,17.3163398 L46.7912438,15.3269394"/>
    <path d="M52.2391995 41.8673776L28.3678079.446073645 3.34640394 43.8592946C5.55284483 45.1345996 8.35470443 44.3632508 9.62719212 42.1498699L28.3678079 9.64185981 47.103399 42.1498699C48.3802833 44.3632508 51.1790025 45.1345996 53.390468 43.8592946L52.2391995 41.8673776M250.453966 18.394089C250.940099 18.394089 251.234667 18.0883178 251.234667 17.5786991 251.234667 17.0797761 250.940099 16.7966546 250.453966 16.7966546L249.628042 16.7966546 249.628042 18.394089 250.453966 18.394089 250.453966 18.394089zM248.994938 16.2643862L250.56702 16.2643862C251.347094 16.2643862 251.890382 16.7740049 251.890382 17.5786991 251.890382 18.2468658 251.472081 18.6432359 251.064458 18.7451596L251.064458 18.7678093 251.098374 18.8244336C251.132919 18.8584082 251.166207 18.9150325 251.212057 19.0169563L252.059335 20.6823398 251.358399 20.6823398 250.476576 18.8923828 249.628042 18.8923828 249.628042 20.6823398 248.994938 20.6823398 248.994938 16.2643862 248.994938 16.2643862zM250.329606 21.9846987C252.252155 21.9846987 253.722488 20.4558426 253.722488 18.473363 253.722488 16.5135331 252.252155 14.972723 250.329606 14.972723 248.452278 14.972723 247.004557 16.5135331 247.004557 18.473363 247.004557 20.4558426 248.452278 21.9846987 250.329606 21.9846987L250.329606 21.9846987zM250.329606 14.3611806C252.580012 14.3611806 254.378202 16.1851121 254.378202 18.473363 254.378202 20.7842636 252.580012 22.5968703 250.329606 22.5968703 248.113116 22.5968703 246.337537 20.7842636 246.337537 18.473363 246.337537 16.1851121 248.113116 14.3611806 250.329606 14.3611806L250.329606 14.3611806z"/>
  </g>
</svg>