<?xml version="1.0" encoding="utf-8"?>
<!-- Generator: Adobe Illustrator 21.0.2, SVG Export Plug-In . SVG Version: 6.00 Build 0)  -->
<!DOCTYPE svg PUBLIC "-//W3C//DTD SVG 1.1//EN" "http://www.w3.org/Graphics/SVG/1.1/DTD/svg11.dtd">
<svg version="1.1" id="Layer_1" xmlns="http://www.w3.org/2000/svg" xmlns:xlink="http://www.w3.org/1999/xlink" x="0px" y="0px"
	 width="225px" height="55px" viewBox="0 0 225 55" style="enable-background:new 0 0 225 55;" xml:space="preserve">
<style type="text/css">
	.st0{fill:#FFFFFF;}
</style>
<g>
	<path class="st0" d="M16.9,32.4c0,0.1,0.1,0.3,0.1,0.5c0,1-3.8,1.9-6.6,1.9C3.9,34.8,0,30.8,0,22.9c0-8,4-12.8,11.1-12.8
		c2.3,0,5.8,0.7,5.8,2v6.3c0,0.6-0.1,0.7-0.7,0.7h-3.4c-0.5,0-0.7-0.1-0.7-0.7v-3.5c-0.4-0.1-0.8-0.2-1.1-0.2
		c-3.3,0-4.7,2.4-4.7,7.8c0,5.1,1.2,7.5,4.9,7.5c2.4,0,3.7-1,4.1-1c0.1,0,0.2,0.1,0.3,0.2L16.9,32.4 M28.1,7.8
		c-2.2,0-3.9-1.7-3.9-3.9c0-2.2,1.7-3.8,3.9-3.8c2.1,0,3.9,1.7,3.9,3.8C32,6.1,30.3,7.8,28.1,7.8z M34.8,33.3c0,0.5-0.1,0.7-0.7,0.7
		h-12c-0.6,0-0.7-0.1-0.7-0.7v-3c0-0.5,0.1-0.7,0.7-0.7h3V15.2h-3.1c-0.6,0-0.7-0.1-0.7-0.7v-3c0-0.5,0.1-0.7,0.7-0.7h8.4
		c0.6,0,0.7,0.1,0.7,0.7v18.1h3c0.6,0,0.7,0.1,0.7,0.7V33.3L34.8,33.3z M46.5,26.5c0,1.5,0,2.9,1.6,2.9c1.9,0,3.1-0.9,3.7-0.9
		c0.2,0,0.3,0.1,0.4,0.3l0.9,3.8c0,0.1,0.1,0.3,0.1,0.4c0,0.8-3.4,1.7-6.6,1.7c-6.1,0-6.1-4.7-6.1-9V15.2h-3.3
		c-0.6,0-0.7-0.1-0.7-0.7v-3c0-0.5,0.1-0.7,0.7-0.7h3.3V5c0-0.6,0.1-0.7,0.8-0.8l4.1-0.6c0.1,0,0.3,0,0.6,0c0.4,0,0.5,0.2,0.5,0.8
		v6.5h5.4c0.5,0,0.8,0.1,0.8,0.5c0,0.2,0,0.3-0.1,0.5L52,14.6c-0.1,0.6-0.4,0.7-0.9,0.7h-4.6V26.5 M72.3,29.1
		c-0.8,3-2.1,7.8-3.2,10.4c-1.4,3.4-4.3,4.4-6.9,4.4c-2.6,0-6.4-1.3-6.4-2.2c0-0.2,0.1-0.4,0.2-0.6l1.4-3c0.1-0.2,0.3-0.3,0.4-0.3
		c0.5,0,1.9,1.2,4,1.2c2.5,0,3.2-1.5,3.8-3.5l0.5-1.5h-2c-0.6,0-0.7-0.2-0.8-0.6L57,15.2h-1.5c-0.6,0-0.7-0.1-0.7-0.7v-3
		c0-0.5,0.1-0.7,0.7-0.7h5.9c0.7,0,0.7,0.2,0.8,0.7l3,11.1c0.6,2.1,1.5,6.5,1.8,8.1h0.1c0.2-1.8,1.4-7.3,1.6-8.1l2.5-11.1
		c0.1-0.6,0.2-0.7,0.8-0.7h5.7c0.5,0,0.7,0.1,0.7,0.7v3c0,0.5-0.1,0.7-0.7,0.7h-1.7L72.3,29.1 M81.9,29.5c1.7,1.1,4,1.6,5.2,1.6
		c1.9,0,4.3-0.8,4.3-3.2c0-4.1-9.9-3.8-9.9-10.1c0-4.7,3.5-7,8.1-7c2,0,3.6,0.4,5.2,0.9l-0.4,3.6c-0.9-0.6-3.5-1.2-4.4-1.2
		c-2.2,0-4,0.9-4,2.8c0,4.6,9.9,3.3,9.9,10.5c0,4.8-3.9,7.1-8,7.1c-2.2,0-4.3-0.2-6.3-1.2L81.9,29.5 M100.8,42.3l4.2-4.5v-7h0.1
		c0.5,0.9,4.4,3.6,7.6,3.6c6.9,0,9.8-6,9.8-12.3c0-6.1-3.2-11.5-9.9-11.5c-4,0-6.6,2-7.8,3.7h-0.1v-3.2h-4V42.3z M118.1,22.5
		c0.1,3.6-1.8,8.6-6.3,8.6c-4.8,0-6.7-4.7-6.7-8.4c0-4.2,2.2-8.5,6.8-8.5C116.4,14.1,118.2,18.5,118.1,22.5L118.1,22.5z M126.8,11.3
		h3.9v3.5h0.1c1.1-2.4,3.5-4,6-4c1.3,0,1.9,0.1,2.8,0.3v3.7c-0.8-0.3-1.6-0.4-2.3-0.4c-3.8,0-6.2,3.6-6.2,9.2V34h-4.2V11.3
		 M188.2,34h-4.1v-3.6H184c-1.3,2.6-4.3,4.1-7.5,4.1c-5.9,0-8.6-3.6-8.6-9.7V11.3h4.2V23c0,5.3,1.2,7.9,4.8,8.1
		c4.8,0,6.9-3.8,6.9-9.3V11.3h4.2V34 M210.8,29.5c1.7,1.1,4,1.6,5.2,1.6c1.9,0,4.3-0.8,4.3-3.2c0-4.1-9.9-3.8-9.9-10.1
		c0-4.7,3.5-7,8.1-7c2,0,3.6,0.4,5.2,0.9l-0.4,3.6c-0.9-0.6-3.5-1.2-4.4-1.2c-2.2,0-4,0.9-4,2.8c0,4.6,9.9,3.3,9.9,10.5
		c0,4.8-3.9,7.1-8,7.1c-2.2,0-4.3-0.2-6.3-1.2L210.8,29.5"/>
	<path class="st0" d="M105,36.7c-1.4,0-2.6,0-4.2,0c-0.1,4-0.2,2.7,0,5c0.4,4.3,0.7,2.7,1.1,6c0.2,1.5-0.2,2.7,0.2,4.5
		c0,0,0.5,2.5,1.1,2c0.5-0.5,0.3-2.6,0.4-3.6c0.1-0.6,0.6-2.1,0.7-2.8c0.5-1.9,0.6-3,0.2-4.8C104.1,40.9,105.1,39.2,105,36.7
		 M159.3,17.7c0-0.1,0-0.2,0.1-0.3c1.3-1,2.3-1.4,3.2-1.8c1.5,2,2.4,4.5,2.4,7.2c0,6.7-5.5,12.1-12.2,12.1
		c-6.7,0-12.2-5.4-12.2-12.1c0-6.7,5.5-12.1,12.2-12.1c1.3,0,2.5,0.2,3.7,0.6c-0.1,1.1-0.7,2.3-0.4,3.9c-0.1,0.1,0,0.2-0.3,0.2
		c-1.2-0.4-1.2-1-2.3-1.9c-1-0.7-1.4-0.9-1.9-0.9c-0.5,0-1,0-2.2-0.2c3,1.3,2.4,3.1,4.8,4.2c0.1,0.1,0.2,0.2,0.2,0.4
		c0,0.2-0.1,0.3-0.4,0.4c-0.4,0.2-0.9,0.3-1.4,0.5s-0.9,0.3-1,0.3c-0.6,0.4-0.9,0.7-1.2,1.2c-0.3,0.5-0.7,1.1-1.6,2.1
		c2.4-0.9,3.7-2,6.2-2c0.1,0,0.1,0,0.2,0.1c0.1,0,0.1,0.1,0.2,0.2c0.7,1.3,0.8,4.2,2.6,6.2c0.2-1.6,0.3-2.4,0.2-3.2
		s-0.1-1.4-0.2-2.7c0-0.3,0-0.4,0.4-0.4c2.1,0.8,3,0.9,3.6,0.8s1.1-0.2,2.3,0.3c-2.2-1.9-2.2-1.9-4.8-2.8
		C159.3,17.9,159.3,17.8,159.3,17.7z M157.7,11.7c1.4,0.6,2.6,1.5,3.6,2.5c-0.5,0.1-0.9,0.3-1.4,0.5c-0.5,0.2-1,0.5-1.5,0.9
		c-0.1,0.1-0.2,0.1-0.2,0.1c-0.1,0-0.1-0.1-0.2-0.2c-0.1-0.5-0.1-0.9-0.2-1.1c0-0.3-0.1-0.6-0.1-1c0-0.3,0-0.5,0-0.8
		C157.7,12.3,157.7,12,157.7,11.7z M201.2,14.7v12.4c0,2.6,1.6,4,3.5,4c1.3,0,2.2-0.4,2.9-0.8v3.6c-0.9,0.3-2.2,0.6-3.6,0.6
		c-4.3,0-7-2-7-6.6V11.3h4.2V14.7"/>
	<path class="st0" d="M197.2,11.5c-0.2-1.5-0.2-2.2,0.7-3.8c0.9-1.5,0.5-2.5,0.1-3.4c0.1-0.2,0.2-0.7,0.6-0.4c1.1,0,2.7,1.7,3.2,3.8
		c0.2,1.1,0.3,1.6-0.4,3.8c1.8-0.3,2.7-0.1,3.6,0.4c1.7,1,2.4,0.1,3.9,1.3c-0.1,0.3-0.5,1-1.4,0.6c-1.5,0.2-1.3,0.7-3.7,1.5
		c-1.7,0.6-1.3-0.1-4.4-0.3c-1.6-0.1-3,1-5.1,0.2c-1.6-0.6-1.9-2.1-4.6-2.8c-0.2-0.1,0-0.5,0.3-0.8c3.1,0.5,1.6,0.5,3.6,0
		C195,11.2,196,11.1,197.2,11.5"/>
	<path class="st0" d="M197.8,14.7c0-0.3,1.2-0.6,2.6-0.6c1.4,0,2.6,0.3,2.6,0.6c0,0.3-1.2,0.6-2.6,0.6
		C198.9,15.3,197.8,15,197.8,14.7 M100.8,11.8c0-1.9-0.4-1.9-0.8-2.4c-0.7-0.9-2.7-0.6-3.9-0.7c-2.3,0-4.6-1.3-4.3-3.2
		c0.3-1.9,2.7-2,3.8-1.9c1.8,0.1,2.4,0.3,3.7,1.1c1.1,0.6,1.4,1.3,2.3,2.5c0.4,0.5,0.7,1.2,1,2C102.9,9.5,100.8,11.8,100.8,11.8"/>
	<path class="st0" d="M102.2,8c0.2,0.1,0.2,0.3,0.7,0.3c0.6,0,0.6-0.2,0.7-0.3l0.4,1c0.3,0.9,0.5,1.4,0.5,2.4c0,0.4,0.1,1.4,0.1,1.9
		l-3.7,0c0-0.4-0.1-1.3-0.1-1.7c0-1.3-0.1-3.6,1.2-3.7L102.2,8"/>
	<path class="st0" d="M102.2,8c0.2,0.1,0.2,0.3,0.7,0.3c0.6,0,0.6-0.2,0.7-0.3l0.4,1c0.3,0.9,0.5,1.4,0.5,2.4c0,0.4,0.1,1.4,0.1,1.9
		l-3.7,0c0-0.4-0.1-1.3-0.1-1.7c0-1.3-0.1-3.6,1.2-3.7L102.2,8z"/>
	<path class="st0" d="M104.9,12.2c0-2,0.4-2,0.8-2.5c0.7-0.9,2.7-0.7,3.9-0.7c2.3,0,4.6-1.3,4.3-3.3c-0.3-2-2.7-2.1-3.8-2
		c-1.8,0.1-2.3,0.3-3.7,1.1c-1,0.6-1.6,1.1-2.4,2.5c-0.5,0.9-0.7,1.2-1,2C102.9,9.7,104.9,12.2,104.9,12.2"/>
</g>
</svg>
