<?xml version="1.0" encoding="UTF-8"?>
<svg width="321px" height="73px" viewBox="0 0 321 73" version="1.1" xmlns="http://www.w3.org/2000/svg" xmlns:xlink="http://www.w3.org/1999/xlink">
    <!-- Generator: Sketch 55.2 (78181) - https://sketchapp.com -->
    <title>CityConnects_Logo_wTagline</title>
    <desc>Created with Sketch.</desc>
    <g id="Page-1" stroke="none" stroke-width="1" fill="none" fill-rule="evenodd">
        <g id="Artboard-Copy" transform="translate(-48.000000, -120.000000)" fill="#003054">
            <g id="CityConnects_Logo_wTagline" transform="translate(48.000000, 120.000000)">
                <path d="M74.9966493,49.2801741 C68.367401,49.2801741 63,43.623073 63,36.6464665 C63,29.5756644 68.367401,23.8243675 74.9966493,23.8243675 C80.3170343,23.8243675 84.4718789,27.0300837 86.1053038,31.9328537 L84.2383158,31.9328537 C82.6981644,28.067002 79.2910251,25.615617 74.9966493,25.615617 C69.3479109,25.615617 64.7274568,30.5658677 64.7274568,36.6464665 C64.7274568,42.6328696 69.3479109,47.5356396 74.9966493,47.5356396 C79.4305562,47.5356396 82.8376956,45.0842546 84.2853318,41.171688 L86.1053038,41.171688 C84.5181365,46.0744579 80.3170343,49.2801741 74.9966493,49.2801741 Z M90.1274421,48.7142343 L90.1274421,24.4377881 L91.854899,24.4377881 L91.854899,48.7142343 L90.1274421,48.7142343 Z M90.1274421,20.3368301 L90.1274421,16 L91.854899,16 L91.854899,20.3368301 L90.1274421,20.3368301 Z M99.3918583,40.3231611 C99.3918583,44.4715998 101.305862,47.2997675 105.880059,47.1113762 L105.880059,48.7142343 C100.699205,49.1859785 97.6644015,45.7443902 97.6644015,40.3231611 L97.6644015,26.1815568 L94.3975516,26.1815568 L94.3975516,24.4377881 L97.6644015,24.4377881 L97.6644015,19.2524311 L99.3918583,19.2524311 L99.3918583,24.4377881 L105.880059,24.4377881 L105.880059,26.1815568 L99.3918583,26.1815568 L99.3918583,40.3231611 Z M116.88634,52.2500183 C115.158883,56.8694354 111.798001,58.6132041 107.549883,57.8121579 L107.549883,56.1618191 C111.284618,56.727759 113.805279,55.5491643 115.252157,51.6365976 L116.372198,48.6667535 L107.317078,24.4377881 L109.184825,24.4377881 L117.259434,46.2161344 L125.427317,24.4377881 L127.248806,24.4377881 L116.88634,52.2500183 Z M139.498735,49.2801741 C132.263587,49.2801741 127.082733,43.623073 127.082733,36.5997516 C127.082733,29.5756644 132.263587,23.8243675 139.498735,23.8243675 C145.287004,23.8243675 149.674654,27.1242794 151.075274,32.5929892 L144.4938,32.5929892 C143.653579,30.9426504 141.739575,29.5289495 139.498735,29.5289495 C136.091595,29.5289495 133.337371,32.7338998 133.337371,36.6464665 C133.337371,40.4648375 136.091595,43.623073 139.498735,43.623073 C141.786591,43.623073 143.746853,42.2086062 144.540816,40.5115524 L151.121531,40.5115524 C149.721669,46.0269772 145.333262,49.2801741 139.498735,49.2801741 Z M171.037334,36.6464665 C171.037334,32.4513128 168.376383,29.5289495 165.109533,29.5289495 C161.841925,29.5289495 159.180974,32.4513128 159.180974,36.6464665 C159.180974,40.7474245 161.841925,43.5755922 165.109533,43.5755922 C168.376383,43.5755922 171.037334,40.7474245 171.037334,36.6464665 Z M177.244956,36.5997516 C177.244956,43.8589451 171.784281,49.2801741 165.109533,49.2801741 C158.434786,49.2801741 153.019611,43.8589451 153.019611,36.5997516 C153.019611,29.3397923 158.434786,23.8243675 165.109533,23.8243675 C171.784281,23.8243675 177.244956,29.3397923 177.244956,36.5997516 Z M202.267297,48.7142343 L196.105933,48.7142343 L196.105933,34.5251493 C196.105933,33.1106825 195.685823,29.7173408 191.624252,29.7173408 C188.870786,29.7173408 186.956782,31.7911773 186.956782,34.5251493 L186.956782,48.7142343 L180.795418,48.7142343 L180.795418,24.4377881 L186.676961,24.4377881 L186.676961,26.7942116 C188.217112,24.9554814 190.317663,23.8243675 192.885341,23.8243675 C198.533321,23.8243675 202.267297,28.1144827 202.267297,34.5251493 L202.267297,48.7142343 Z M228.534802,48.7142343 L222.373438,48.7142343 L222.373438,34.5251493 C222.373438,33.1106825 221.954086,29.7173408 217.892515,29.7173408 C215.138291,29.7173408 213.225045,31.7911773 213.225045,34.5251493 L213.225045,48.7142343 L207.063681,48.7142343 L207.063681,24.4377881 L212.945224,24.4377881 L212.945224,26.7942116 C214.485376,24.9554814 216.585169,23.8243675 219.152846,23.8243675 C224.800826,23.8243675 228.534802,28.1144827 228.534802,34.5251493 L228.534802,48.7142343 Z M250.139387,33.9124945 C249.393199,31.0843268 247.059084,29.2930774 244.118313,29.2930774 C241.317831,29.2930774 239.077749,31.0843268 238.190512,33.9124945 L250.139387,33.9124945 Z M238.097239,39.0036558 C238.890443,41.9734999 241.224557,43.8122301 244.118313,43.8122301 C246.172606,43.8122301 248.179126,42.9162225 249.206651,40.9832966 L255.788126,40.9832966 C254.387505,45.9327815 250.139387,49.2801741 244.165329,49.2801741 C237.397308,49.2801741 231.842601,43.623073 231.842601,36.5997516 C231.842601,29.5756644 237.397308,23.8243675 244.165329,23.8243675 C251.260187,23.8243675 257.14173,29.387273 256.254493,39.0036558 L238.097239,39.0036558 Z M270.950768,49.2801741 C263.715621,49.2801741 258.534767,43.623073 258.534767,36.5997516 C258.534767,29.5756644 263.715621,23.8243675 270.950768,23.8243675 C276.739037,23.8243675 281.126687,27.1242794 282.526549,32.5929892 L275.945833,32.5929892 C275.104854,30.9426504 273.191608,29.5289495 270.950768,29.5289495 C267.543628,29.5289495 264.789404,32.7338998 264.789404,36.6464665 C264.789404,40.4648375 267.543628,43.623073 270.950768,43.623073 C273.237866,43.623073 275.198128,42.2086062 275.992091,40.5115524 L282.573565,40.5115524 C281.172944,46.0269772 276.785295,49.2801741 270.950768,49.2801741 Z M297.451836,48.6667535 C290.403994,49.4210847 286.66926,45.1317354 286.66926,38.4844309 L286.66926,29.9524471 L283.775504,29.9524471 L283.775504,24.4377881 L286.66926,24.4377881 L286.66926,18.2622278 L292.830624,18.2622278 L292.830624,24.4377881 L297.172016,24.4377881 L297.172016,29.9524471 L292.830624,29.9524471 L292.830624,38.5319116 C292.830624,41.9260192 294.371534,43.1988095 297.451836,43.0104182 L297.451836,48.6667535 Z M310.450987,49.2801741 C304.335881,49.2801741 299.8087,46.0269772 299.061753,40.7949053 L305.316391,40.7949053 C306.157369,42.8687417 308.630256,43.623073 310.450987,43.623073 C312.924632,43.623073 314.79162,42.8687417 314.79162,41.454275 C314.79162,40.0880548 313.952158,39.5221149 309.751056,38.8619794 C305.45668,38.2018439 299.714668,37.0232492 299.714668,31.6027859 C299.714668,27.7844149 303.029292,23.8243675 309.983861,23.8243675 C315.49231,23.8243675 319.600138,26.8416924 320.393343,31.4143946 L313.998416,31.4143946 C313.625321,30.2832807 312.271717,29.387273 309.983861,29.387273 C307.137121,29.387273 305.970064,30.4241913 305.970064,31.3201989 C305.970064,32.5929892 307.743778,33.0164869 310.731566,33.4882311 C316.706383,34.4784344 321,35.7979396 321,41.0774923 C321,45.8860666 316.613109,49.2801741 310.450987,49.2801741 Z" id="Combined-Shape"></path>
                <g id="Group">
                    <path d="M39.9560571,48.6047923 C38.6813143,49.0517329 37.3189143,49.3056073 35.8963429,49.3056073 C34.2821143,49.3056073 32.7444,48.9825635 31.3277714,48.4140064 L19.6448571,69.1192146 C24.4437143,71.5789082 29.8554286,72.970657 35.5880571,72.970657 C41.3206857,72.970657 46.7324,71.5789082 51.5312571,69.1192146 L39.9560571,48.6047923" id="Fill-14"></path>
                    <path d="M23.5619429,38.6740454 L0,38.6740454 C0.683428571,50.4822469 6.85285714,60.7763231 15.9402286,66.9285975 L27.6699429,46.1397779 C25.5483429,44.245601 24.0611429,41.6361671 23.5619429,38.6740454" id="Fill-15"></path>
                    <path d="M27.6699429,26.8308791 L15.9402286,6.04205948 C6.85285714,12.1943339 0.683428571,22.48765 0,34.2958515 L23.5619429,34.2958515 C24.0611429,31.3344899 25.5483429,28.725056 27.6699429,26.8308791" id="Fill-16"></path>
                    <path d="M35.8963429,23.6642896 C37.3189143,23.6642896 38.6813143,23.9189241 39.9560571,24.3658647 L51.5312571,3.85144237 C46.7324,1.39174876 41.3206857,0 35.5880571,0 C29.8554286,0 24.4437143,1.39174876 19.6448571,3.85144237 L31.3277714,24.5566506 C32.7444,23.9880935 34.2821143,23.6642896 35.8963429,23.6642896" id="Fill-18"></path>
                </g>
                <path d="M132.867224,59.4950901 C132.867224,57.9458293 131.759257,56.7840725 130.341332,56.7840725 C128.952205,56.7840725 127.81544,57.9745333 127.81544,59.4950901 C127.81544,61.0247113 128.952205,62.2061077 130.341332,62.2061077 C131.730459,62.2061077 132.867224,61.0148916 132.867224,59.4950901 Z M133.682664,59.4950901 C133.682664,61.4507392 132.187439,63 130.341332,63 C128.495225,63 127,61.4598036 127,59.4950901 C127,57.539441 128.495225,56 130.341332,56 C132.216237,56 133.682664,57.5001619 133.682664,59.4950901 Z M137.813669,56.9487429 L137.813669,59.4467465 L139.824227,59.4467465 C140.611627,59.4467465 141.174705,59.0788821 141.174705,58.197367 C141.174705,57.3166073 140.611627,56.9487429 139.824227,56.9487429 L137.813669,56.9487429 Z M137.813669,62.8836732 L136.988377,62.8836732 L136.988377,56.1646703 L139.824227,56.1646703 C141.213355,56.1646703 141.990902,57.0061509 141.990902,58.197367 C141.990902,59.3787634 141.213355,60.230819 139.824227,60.230819 L137.813669,60.230819 L137.813669,62.8836732 Z M147.490572,56.9487429 L147.490572,62.8836732 L146.665281,62.8836732 L146.665281,56.9487429 L144.547108,56.9487429 L144.547108,56.1646703 L149.607987,56.1646703 L149.607987,56.9487429 L147.490572,56.9487429 Z M152.73788,62.8836732 L152.73788,56.1646703 L153.56393,56.1646703 L153.56393,62.8836732 L152.73788,62.8836732 Z M163.793301,62.8836732 L162.967252,62.8836732 L162.967252,57.2584439 L160.995343,62.8836732 L160.111697,62.8836732 L158.139789,57.2584439 L158.139789,62.8836732 L157.313739,62.8836732 L157.313739,56.1646703 L158.577064,56.1646703 L160.558825,61.8284234 L162.539828,56.1646703 L163.793301,56.1646703 L163.793301,62.8836732 Z M167.545384,62.8836732 L167.545384,56.1646703 L168.370676,56.1646703 L168.370676,62.8836732 L167.545384,62.8836732 Z M176.725142,62.8836732 L171.596815,62.8836732 L171.596815,62.1479443 L175.686139,56.9487429 L171.722618,56.9487429 L171.722618,56.1646703 L176.706196,56.1646703 L176.706196,56.9192835 L172.645671,62.0897809 L176.725142,62.0897809 L176.725142,62.8836732 Z M184.731759,56.1646703 L184.731759,56.9487429 L180.739439,56.9487429 L180.739439,58.9814395 L184.342985,58.9814395 L184.342985,59.765512 L180.739439,59.765512 L180.739439,62.0897809 L184.731759,62.0897809 L184.731759,62.8836732 L179.91339,62.8836732 L179.91339,56.1646703 L184.731759,56.1646703 Z M188.80441,56.9487429 L188.80441,62.0897809 L190.474697,62.0897809 C191.71756,62.0897809 192.689873,61.3245926 192.689873,59.5139743 C192.689873,57.674652 191.708466,56.9487429 190.474697,56.9487429 L188.80441,56.9487429 Z M187.97836,56.1646703 L190.474697,56.1646703 C192.339749,56.1646703 193.534869,57.4329341 193.534869,59.5139743 C193.534869,61.5957699 192.339749,62.8836732 190.474697,62.8836732 L187.97836,62.8836732 L187.97836,56.1646703 Z M203.950669,63 C202.396333,63 201.376275,62.0996007 201.376275,60.753534 L202.231123,60.753534 C202.231123,61.6539333 202.930612,62.2159275 203.950669,62.2159275 C205.106381,62.2159275 205.669459,61.7309809 205.669459,60.9763678 C205.669459,60.4143736 205.417097,60.0276249 203.930966,59.7760872 C202.43574,59.5139743 201.580893,59.0494227 201.580893,57.8974857 C201.580893,56.7447934 202.503946,56 203.930966,56 C205.408003,56 206.321204,56.7938923 206.321204,58.09086 L205.485303,58.09086 C205.485303,57.3067875 204.951023,56.7840725 203.940818,56.7840725 C202.901814,56.7840725 202.415279,57.2388044 202.415279,57.8687817 C202.415279,58.4489047 202.726752,58.7397216 204.106027,58.9912593 C205.582307,59.2722564 206.495508,59.6884644 206.495508,60.9763678 C206.495508,62.2929751 205.456504,63 203.950669,63 Z M211.918636,56.9487429 L211.918636,62.8836732 L211.092586,62.8836732 L211.092586,56.9487429 L208.975172,56.9487429 L208.975172,56.1646703 L214.036051,56.1646703 L214.036051,56.9487429 L211.918636,56.9487429 Z M219.593317,62.2061077 C220.730082,62.2061077 221.351514,61.4696234 221.351514,60.472537 L221.351514,56.1646703 L222.177563,56.1646703 L222.177563,60.472537 C222.177563,61.9636344 221.128708,63 219.593317,63 C218.048832,63 217.009828,61.9636344 217.009828,60.472537 L217.009828,56.1646703 L217.825268,56.1646703 L217.825268,60.472537 C217.825268,61.4696234 218.466404,62.2061077 219.593317,62.2061077 Z M226.600338,56.9487429 L226.600338,62.0897809 L228.270625,62.0897809 C229.513488,62.0897809 230.485801,61.3245926 230.485801,59.5139743 C230.485801,57.674652 229.504394,56.9487429 228.270625,56.9487429 L226.600338,56.9487429 Z M225.774288,56.1646703 L228.270625,56.1646703 C230.135678,56.1646703 231.330797,57.4329341 231.330797,59.5139743 C231.330797,61.5957699 230.135678,62.8836732 228.270625,62.8836732 L225.774288,62.8836732 L225.774288,56.1646703 Z M239.453363,56.1646703 L239.453363,56.9487429 L235.461044,56.9487429 L235.461044,58.9814395 L239.064589,58.9814395 L239.064589,59.765512 L235.461044,59.765512 L235.461044,62.0897809 L239.453363,62.0897809 L239.453363,62.8836732 L234.634994,62.8836732 L234.634994,56.1646703 L239.453363,56.1646703 Z M248.158711,62.8836732 L247.24551,62.8836732 L243.623018,57.4132945 L243.623018,62.8836732 L242.796969,62.8836732 L242.796969,56.1646703 L243.719264,56.1646703 L247.343272,61.6244739 L247.343272,56.1646703 L248.158711,56.1646703 L248.158711,62.8836732 Z M254.202513,56.9487429 L254.202513,62.8836732 L253.377222,62.8836732 L253.377222,56.9487429 L251.259807,56.9487429 L251.259807,56.1646703 L256.319928,56.1646703 L256.319928,56.9487429 L254.202513,56.9487429 Z M266.522775,63 C264.969195,63 263.949138,62.0996007 263.949138,60.753534 L264.803986,60.753534 C264.803986,61.6539333 265.503475,62.2159275 266.522775,62.2159275 C267.679244,62.2159275 268.242321,61.7309809 268.242321,60.9763678 C268.242321,60.4143736 267.98996,60.0276249 266.503828,59.7760872 C265.007845,59.5139743 264.152998,59.0494227 264.152998,57.8974857 C264.152998,56.7447934 265.076051,56 266.503828,56 C267.980108,56 268.893309,56.7938923 268.893309,58.09086 L268.058165,58.09086 C268.058165,57.3067875 267.523886,56.7840725 266.51368,56.7840725 C265.474677,56.7840725 264.988142,57.2388044 264.988142,57.8687817 C264.988142,58.4489047 265.298857,58.7397216 266.678132,58.9912593 C268.155169,59.2722564 269.068371,59.6884644 269.068371,60.9763678 C269.068371,62.2929751 268.029367,63 266.522775,63 Z M274.830255,62.2061077 C275.966262,62.2061077 276.588452,61.4696234 276.588452,60.472537 L276.588452,56.1646703 L277.413743,56.1646703 L277.413743,60.472537 C277.413743,61.9636344 276.365646,63 274.830255,63 C273.28577,63 272.246766,61.9636344 272.246766,60.472537 L272.246766,56.1646703 L273.062206,56.1646703 L273.062206,60.472537 C273.062206,61.4696234 273.703342,62.2061077 274.830255,62.2061077 Z M281.83576,56.9487429 L281.83576,59.4467465 L283.847077,59.4467465 C284.633718,59.4467465 285.196796,59.0788821 285.196796,58.197367 C285.196796,57.3166073 284.633718,56.9487429 283.847077,56.9487429 L281.83576,56.9487429 Z M281.83576,62.8836732 L281.010468,62.8836732 L281.010468,56.1646703 L283.847077,56.1646703 C285.235446,56.1646703 286.012235,57.0061509 286.012235,58.197367 C286.012235,59.3787634 285.235446,60.230819 283.847077,60.230819 L281.83576,60.230819 L281.83576,62.8836732 Z M290.01668,56.9487429 L290.01668,59.4467465 L292.027997,59.4467465 C292.814639,59.4467465 293.377716,59.0788821 293.377716,58.197367 C293.377716,57.3166073 292.814639,56.9487429 292.027997,56.9487429 L290.01668,56.9487429 Z M290.01668,62.8836732 L289.190631,62.8836732 L289.190631,56.1646703 L292.027997,56.1646703 C293.416366,56.1646703 294.193156,57.0061509 294.193156,58.197367 C294.193156,59.3787634 293.416366,60.230819 292.027997,60.230819 L290.01668,60.230819 L290.01668,62.8836732 Z M302.84015,59.4950901 C302.84015,57.9458293 301.732941,56.7840725 300.315016,56.7840725 C298.925888,56.7840725 297.789881,57.9745333 297.789881,59.4950901 C297.789881,61.0247113 298.925888,62.2061077 300.315016,62.2061077 C301.704143,62.2061077 302.84015,61.0148916 302.84015,59.4950901 Z M303.656347,59.4950901 C303.656347,61.4507392 302.161122,63 300.315016,63 C298.469667,63 296.973684,61.4598036 296.973684,59.4950901 C296.973684,57.539441 298.469667,56 300.315016,56 C302.18992,56 303.656347,57.5001619 303.656347,59.4950901 Z M309.972973,59.4369267 C310.769466,59.4369267 311.293894,58.9625553 311.293894,58.197367 C311.293894,57.3264271 310.769466,56.9487429 309.943417,56.9487429 L307.787352,56.9487429 L307.787352,59.4369267 L309.972973,59.4369267 Z M312.06159,62.8836732 L311.226446,62.8836732 C311.148388,62.6993633 311.099886,62.4667098 311.099886,62.1570087 L311.099886,61.2377253 C311.099886,60.5888637 310.759614,60.230819 309.992677,60.230819 L307.787352,60.230819 L307.787352,62.8836732 L306.962061,62.8836732 L306.962061,56.1646703 L309.943417,56.1646703 C311.32345,56.1646703 312.129795,56.9970864 312.129795,58.197367 C312.129795,58.9134564 311.779672,59.4950901 311.206742,59.8244308 C311.663722,60.0948527 311.916084,60.5601597 311.916084,61.2377253 L311.916084,62.0701414 C311.916084,62.3216791 311.984289,62.6895435 312.06159,62.8836732 Z M317.882585,56.9487429 L317.882585,62.8836732 L317.056536,62.8836732 L317.056536,56.9487429 L314.939121,56.9487429 L314.939121,56.1646703 L320,56.1646703 L320,56.9487429 L317.882585,56.9487429 Z" id="Combined-Shape"></path>
            </g>
        </g>
    </g>
</svg>