<svg height="64" width="280" xmlns="http://www.w3.org/2000/svg"><path d="m31.718 0c-17.518 0-31.718 14.2-31.718 31.715 0 17.518 14.2 31.715 31.718 31.715 17.515 0 31.712-14.197 31.712-31.715 0-17.515-14.197-31.715-31.712-31.715m-.003 55.272c-13.01 0-23.555-10.548-23.555-23.557s10.545-23.555 23.555-23.555 23.557 10.546 23.557 23.555c0 13.01-10.546 23.557-23.557 23.557m245.323-20.16c.376 0 .635-.17.635-.467v-.015c0-.276-.233-.455-.613-.455h-.786v.937zm.35.283.834 1.058h-.491l-.772-.996h-.685v.996h-.397v-2.629h1.196c.34 0 .62.105.795.275a.69.69 0 0 1 .214.508v.016c0 .425-.288.68-.693.772zm1.885-.197c0-1.284-1.017-2.333-2.365-2.333-1.357 0-2.38 1.064-2.38 2.345v.014c0 1.284 1.016 2.334 2.365 2.334 1.356 0 2.38-1.064 2.38-2.348zm.239 0v.012c0 1.397-1.155 2.568-2.62 2.568-1.462 0-2.6-1.158-2.6-2.554v-.014c0-1.396 1.154-2.565 2.616-2.565s2.604 1.157 2.604 2.553zm-5.457 15.848c0 1.196-.366 1.703-1.304 1.703-.822 0-1.155-.389-1.155-.987v-8.8h3.914v-1.97h-4.006v-5.55h-1.88c-.272 2.743-1.063 5.429-4.157 5.638v1.881h2.548v9.131c0 2.388 1.609 3.312 3.884 3.312 2.399 0 4.159-1.373 4.159-4.505v-2.507h-2.003zm-13.968-5.43c0 1.252 1.306 1.79 2.366 1.79 1.306 0 2.186-1.164 2.186-2.477 0-2.506-2.732-4.387-6.253-4.387-3.945 0-7.495 2.984-7.495 7.4 0 4.806 2.459 7.462 7.13 7.462 4.128 0 6.254-2.179 6.527-6.178h-2.368c-.213 2.15-1.486 3.673-3.308 3.673-3.155 0-3.913-2.926-3.913-5.195 0-2.265.88-5.19 4.036-5.19 1.182 0 2.216.296 2.883 1.163-1.215.09-1.79.746-1.79 1.94zm-14.782.747c.031-1.88-.574-3.732-2.73-3.732-2.065 0-2.823 1.851-2.915 3.732zm4.068 1.968h-9.713c-.09 2.33.638 4.834 3.462 4.834 2.183 0 3.277-1.102 3.671-3.163h2.52c-.394 3.402-2.49 5.402-6.526 5.402-4.703 0-7.192-2.597-7.192-7.431 0-4.355 2.853-7.43 7.041-7.43 4.977 0 7.07 4.386 6.737 7.788zm-22.046-5.37h1.76c.852 0 1.214.326 1.214 1.194v13.845c0 1.463-.97 1.85-2.247 1.85-.302 0-.727-.12-.94-.329.79-.058 1.7-.656 1.7-1.521 0-1.076-.849-1.73-1.912-1.73s-1.942.893-1.942 1.91c0 2.057 1.88 3.103 3.763 3.103 2.61 0 5.16-.985 5.16-4.18v-16.111h-6.556v1.97zm4.37-8.147c-1.184 0-2.185.955-2.185 2.148 0 1.194 1 2.149 2.185 2.149s2.187-.955 2.187-2.149c0-1.193-1.002-2.148-2.187-2.148zm-8.873 13.16c0-3.58-1.275-5.461-3.735-5.461-2.458 0-3.733 1.88-3.733 5.461s1.275 5.46 3.733 5.46c2.46 0 3.735-1.879 3.735-5.46zm4.066 0c0 4.744-3.246 7.43-7.801 7.43-4.553 0-7.798-2.686-7.798-7.43 0-4.745 3.245-7.432 7.798-7.432 4.555 0 7.801 2.687 7.801 7.432zm-20.036-7.43c-1.64 0-2.58.924-3.795 2.716h-.06v-2.27h-6.433v1.971h1.67c.85 0 1.213.328 1.213 1.194v7.638c0 .867-.364 1.193-1.214 1.193h-1.67v1.971h9.59v-1.97h-1.91c-.85 0-1.214-.327-1.214-1.194v-4.985c0-2.145 1.274-4.592 3.763-4.592.453 0 .94.06 1.274.416-1.092.03-2.003.657-2.003 1.79 0 1.223.972 1.91 2.154 1.91 1.488 0 2.307-1.164 2.307-2.508 0-2.177-1.73-3.28-3.672-3.28zm-15.514.09c0-2.299-1.214-3.254-4.37-3.254h-2.763v6.417h2.763c2.852 0 4.37-.868 4.37-3.163zm4.43-.032c0 3.672-2.73 5.401-6.797 5.401h-4.766v5.731c0 .775.76 1.014 1.457 1.014h1.942v2.21h-10.894v-2.21h1.94c.7 0 1.308-.24 1.308-1.014v-13.34c0-.775-.609-1.014-1.307-1.014h-1.941v-2.208h11.898c4.55 0 7.16 2.06 7.16 5.43zm-33.549 2.36h1.305c.546 0 .97.325.97.715 0 .358-.12.686-.272 1.044l-2.518 6.058h-.06l-2.732-6.326c-.121-.298-.275-.656-.275-.835 0-.449.367-.657.882-.657h1.304v-1.97h-8.77v1.97c1.549 0 2.397.387 2.76 1.162l5.13 10.834-1.001 2.18c-.576 1.251-1.455 2.177-3.278 2.177-.576 0-1.154-.15-1.486-.716.243 0 .546.029.789.029.82 0 1.486-.776 1.486-1.702 0-1.102-1-1.879-2.093-1.879-1.519 0-2.338 1.163-2.338 2.627 0 2.356 1.943 3.61 4.036 3.61 2.822 0 4.403-1.58 6.071-5.492l4.917-11.49c.484-1.132 1.396-1.34 2.488-1.34v-1.97h-7.315v1.97zm-12.63 8.084c0 1.196-.365 1.703-1.305 1.703-.82 0-1.154-.389-1.154-.987v-8.8h3.915v-1.97h-4.007v-5.55h-1.88c-.276 2.743-1.063 5.429-4.159 5.638v1.881h2.55v9.131c0 2.388 1.609 3.312 3.884 3.312 2.398 0 4.159-1.373 4.159-4.505v-2.507h-2.003zm-9.826.748v-10.802h-6.19v1.97h1.397c.848 0 1.212.325 1.212 1.193v7.64c0 .865-.364 1.191-1.212 1.191h-1.396v1.971h8.89v-1.97h-1.485c-.85 0-1.216-.327-1.216-1.193zm-2.183-16.98c-1.183 0-2.186.953-2.186 2.148 0 1.194 1.003 2.149 2.186 2.149 1.182 0 2.183-.955 2.183-2.149 0-1.195-1-2.148-2.183-2.148zm-7.292 16.98v-16.622h-6.28v1.97h1.487c.848 0 1.212.325 1.212 1.193v13.46c0 .865-.364 1.191-1.212 1.191h-1.488v1.971h8.923v-1.97h-1.426c-.85 0-1.216-.327-1.216-1.193zm-13.526-4.208-3.217 1.434c-.88.385-1.82.863-1.82 2.266 0 1.255.576 1.88 1.82 1.88 2.064 0 3.217-1.73 3.217-3.641v-1.94zm5.13 2.177h1.942v.897c0 3.342-1.367 4.744-3.916 4.744-1.517 0-2.821-.626-3.064-2.208-1.124 1.671-3.066 2.208-4.977 2.208-2.368 0-4.22-1.103-4.22-3.79 0-5.79 9.105-2.985 9.105-7.191 0-1.91-1.639-2.27-3.247-2.27-.85 0-2.276.27-2.823.987 1.124-.151 2.003.328 2.003 1.55 0 1.344-.94 1.762-2.124 1.762-1.304 0-2.185-.986-2.185-2.21 0-3.04 3.702-3.699 6.1-3.699 4.097 0 5.857 1.82 5.857 4.327v7.313c0 .656.274.982.728.982.456 0 .82-.417.82-2.266v-1.136zm-19.277-3.4c.03-1.88-.576-3.732-2.733-3.732-2.063 0-2.821 1.851-2.912 3.732zm4.067 1.968h-9.712c-.09 2.33.635 4.834 3.46 4.834 2.185 0 3.276-1.102 3.673-3.163h2.518c-.394 3.402-2.488 5.402-6.526 5.402-4.703 0-7.191-2.597-7.191-7.431 0-4.355 2.85-7.43 7.039-7.43 4.977 0 7.072 4.386 6.739 7.788zm-21.044-8.117c0-1.85-1.243-2.894-3.914-2.894h-3.885v6.146h3.582c3.277 0 4.217-1.043 4.217-3.252zm4.735 9.222h2.003v.926c0 3.82-1.669 5.192-4.188 5.192-3.004 0-3.915-1.611-3.915-4.058 0-4.775-1.092-5.82-4.644-5.82h-1.79v5.999c0 .776.302 1.073 1.244 1.073h2.216v2.21h-11.077v-2.21h2.125c.94 0 1.243-.297 1.243-1.073v-13.22c0-.776-.303-1.075-1.243-1.075h-2.125v-2.208h13.203c4.4 0 6.463 1.702 6.463 4.952 0 3.076-2.64 4.568-5.705 4.836v.06c3.187.387 3.915 1.76 3.915 4.087 0 3.165.729 3.64 1.244 3.64.728 0 1.032-.625 1.032-2.385v-.926zm137.27-29.604h5.644c.031-1.88-.574-3.73-2.731-3.73-2.062 0-2.823 1.85-2.912 3.73zm9.65 3.64c-.392 3.403-2.487 5.403-6.524 5.403-4.705 0-7.192-2.596-7.192-7.431 0-4.357 2.851-7.43 7.041-7.43 4.977 0 7.07 4.387 6.736 7.788h-9.71c-.092 2.329.636 4.834 3.46 4.834 2.183 0 3.277-1.103 3.672-3.163h2.517zm-22.613 2.091c0 2.387 1.61 3.313 3.884 3.313 2.397 0 4.157-1.375 4.157-4.507v-2.508h-2.001v2.657c0 1.195-.364 1.702-1.306 1.702-.82 0-1.153-.389-1.153-.986v-8.802h3.914v-1.972h-4.006v-5.55h-1.88c-.275 2.746-1.064 5.429-4.16 5.64v1.88h2.55v9.132zm-8.786-4.507-3.217 1.433c-.88.387-1.82.864-1.82 2.268 0 1.253.576 1.879 1.82 1.879 2.065 0 3.217-1.73 3.217-3.64zm0-3.163c0-1.91-1.638-2.27-3.247-2.27-.85 0-2.275.27-2.823.986 1.124-.148 2.004.33 2.004 1.552 0 1.344-.941 1.761-2.124 1.761-1.306 0-2.187-.985-2.187-2.21 0-3.04 3.704-3.698 6.101-3.698 4.098 0 5.858 1.82 5.858 4.328v7.31c0 .656.273.984.729.984.454 0 .82-.418.82-2.268v-1.134h1.94v.895c0 3.342-1.364 4.746-3.914 4.746-1.519 0-2.823-.628-3.066-2.208-1.122 1.67-3.064 2.208-4.975 2.208-2.369 0-4.22-1.104-4.22-3.79 0-5.79 9.104-2.983 9.104-7.192zm-12.6 7.372v-7.045c0-2.684-1.913-4.207-4.22-4.207s-3.702 1.074-5.037 2.836c-.578-1.94-2.033-2.836-4.037-2.836-2.369 0-3.642 1.105-4.825 2.984h-.06v-2.537h-6.526v1.97h1.7c.849 0 1.213.328 1.213 1.193v7.64c0 .865-.364 1.193-1.214 1.193h-1.7v1.97h8.618v-1.97h-.909c-.85 0-1.214-.328-1.214-1.192v-5.373c0-1.79 1.518-3.55 3.4-3.55 1.822 0 2.124 1.104 2.124 2.655v6.268c0 .864-.364 1.192-1.214 1.192h-.91v1.97h7.739v-1.97h-.82c-.85 0-1.213-.328-1.213-1.192v-5.373c0-1.968 1.577-3.55 3.368-3.55 1.183 0 2.156.687 2.156 1.879v7.044c0 .864-.364 1.192-1.214 1.192h-.881v1.97h8.499v-1.97h-1.61c-.849 0-1.213-.328-1.213-1.192zm-30.322-12.685c1.184 0 2.185-.953 2.185-2.147s-1.001-2.149-2.185-2.149c-1.186 0-2.186.955-2.186 2.149s1 2.147 2.186 2.147zm4.885 13.878h-1.486c-.85 0-1.214-.327-1.214-1.195v-10.802h-6.191v1.97h1.394c.851 0 1.216.328 1.216 1.194v7.638c0 .868-.365 1.195-1.216 1.195h-1.394v1.97h8.89v-1.97zm-9.746 0h-1.427c-.848 0-1.212-.327-1.212-1.195v-16.622h-6.283v1.97h1.486c.85 0 1.214.329 1.214 1.195v13.457c0 .868-.364 1.195-1.214 1.195h-1.486v1.97h8.922zm-18.974 2.567c5.312 0 8.346-2.925 8.71-8.119h-2.61c-.334 3.165-2.002 5.55-5.462 5.55-4.37 0-5.584-4.087-5.584-7.935 0-3.91 1.122-7.909 5.584-7.909 3.642 0 5.341 2.655 5.735 5.909h2.247v-8.177h-2.155l-.577 1.88c-1.334-1.254-3.55-2.178-5.524-2.178-6.312 0-10.076 4.595-10.076 10.205 0 6.357 3.339 10.774 9.712 10.774zm-26.66-9.193h5.642c.033-1.88-.574-3.73-2.73-3.73-2.063 0-2.824 1.85-2.913 3.73zm-4.068 1.612c0-4.357 2.852-7.43 7.041-7.43 4.977 0 7.072 4.387 6.736 7.788h-9.71c-.092 2.329.637 4.834 3.46 4.834 2.183 0 3.278-1.103 3.671-3.163h2.518c-.392 3.402-2.487 5.402-6.522 5.402-4.706 0-7.194-2.596-7.194-7.431zm-9.758 5.013h-1.183c-.851 0-1.214-.328-1.214-1.192v-4.655c0-2.628 1.82-4.268 3.399-4.268 1.609 0 2.669.566 2.669 2.088v6.835c0 .864-.363 1.192-1.212 1.192h-1.154v1.97h8.862v-1.97h-1.7c-.85 0-1.215-.328-1.215-1.192v-7.073c0-2.538-1.639-4.178-4.308-4.178-2.367 0-4.035 1.194-5.28 2.805h-.061v-8.176h-6.524v1.97h1.729c.85 0 1.214.327 1.214 1.193v13.459c0 .864-.364 1.192-1.214 1.192h-1.73v1.97h8.922zm-26.244-9.667h-2.245v-8.15h18.816v8.149h-2.246v-1.344c0-3.164-1.67-4.595-5.038-4.595v14.294c0 .776.303 1.075 1.245 1.075h2.305v2.208h-11.35v-2.207h2.306c.943 0 1.247-.299 1.247-1.075v-14.294c-3.371 0-5.04 1.43-5.04 4.595z" fill="#fff" fill-rule="evenodd"/></svg>