<svg xmlns="http://www.w3.org/2000/svg" width="311" height="72" viewBox="0 0 311 72">
  <g fill="#FFFFFF" fill-rule="evenodd">
    <path d="M19.2616951,43.0299126 L0,28.2389324 L27.4660046,27.6263231 L36.3448559,0.779506059 L46.2080673,27.6773738 C46.2080673,27.6773738 27.922889,34.659549 19.2616951,43.0299126"/>
    <path d="M70.7253051,30.8808099 C40.1787626,26.5356036 14.642261,51.26185 14.642261,51.26185 C39.296368,33.1859488 57.6266465,39.5339162 57.6266465,39.5339162 L70.7253051,30.8808099 Z" opacity=".6"/>
    <path d="M56.1057903,54.8185182 C56.1057903,54.8185182 38.1363131,39.5700445 13.1390527,59.8627274 C13.1390527,59.8627274 31.5281575,38.7453781 52.6056248,45.2111551 L56.1057903,54.8185182 Z" opacity=".6"/>
    <path d="M58.3921729,61.5258046 L62.1982352,72.0461911 C62.1982352,72.0461911 34.8832181,43.9466667 10.0447887,68.7514527 C33.7106136,41.1820709 58.6510087,61.8340727 58.3921729,61.5258046" opacity=".6"/>
    <path d="M75.7835835 65.2917809C72.3422443 62.2680043 71.4304365 58.3292407 71.4304365 54.9166927 71.4304365 52.5251603 72.1677262 48.3782666 75.5384739 45.2818408 78.0680052 42.957067 81.4054179 41.5531707 86.6370379 41.5531707 88.8175331 41.5531707 90.1156337 41.6925786 91.7313964 41.9026722 93.0647928 42.0813499 94.1883753 42.3955085 95.2452881 42.5035005 95.62962 42.5368799 95.7708031 42.7135941 95.7708031 42.9217242 95.7708031 43.2044669 95.6668766 43.6266176 95.5943242 44.8596901 95.5256935 46.0201135 95.5609893 47.9541525 95.4903977 48.6570824 95.4551019 49.1832981 95.3845103 49.4660408 95.0688091 49.4660408 94.7884037 49.4660408 94.7178121 49.1832981 94.7178121 48.6924252 94.6805555 47.6026875 94.2236711 46.3715785 93.34912 45.4565915 92.1882808 44.2254824 89.4489355 43.2751526 86.2154493 43.2751526 83.1623638 43.2751526 81.1603083 44.0507317 79.6131763 45.4565915 77.0483492 47.8127811 76.3836119 51.1526799 76.3836119 54.5652278 76.3836119 62.9336279 82.7368535 67.086412 87.4468801 67.086412 90.5725181 67.086412 92.4686862 66.7349471 93.874635 65.1170302 94.4707416 64.4494432 94.927626 63.4303912 95.0688091 62.7961835 95.1746965 62.2326615 95.2452881 62.0932536 95.5256935 62.0932536 95.7708031 62.0932536 95.8413947 62.3367265 95.8413947 62.6194692 95.8413947 63.0416199 95.4198061 66.1007394 95.0688091 67.2965056 94.8923302 67.893407 94.7531079 68.0720847 94.1550404 68.3175211 92.7490916 68.8810431 90.0822988 69.1264795 87.8331729 69.1264795 83.0192197 69.1264795 78.9817739 68.0720847 75.7835835 65.2917809M97.1942037 59.2862464C97.1942037 55.0706305 99.9747274 49.6239055 107.361351 49.6239055 113.489092 49.6239055 117.304959 53.1994232 117.304959 58.8424973 117.304959 64.4875349 113.367518 68.9485872 107.114281 68.9485872 100.049241 68.9485872 97.1942037 63.6491241 97.1942037 59.2862464M113.859698 59.7535573C113.859698 54.2322197 110.681116 50.8078908 106.645631 50.8078908 103.814125 50.8078908 100.590443 52.3845743 100.590443 58.5224482 100.590443 63.6491241 103.421949 67.7155146 108.147663 67.7155146 109.871274 67.7155146 113.859698 66.8771039 113.859698 59.7535573M122.747765 50.069029C122.820317 49.6488418 122.967383 49.4269673 123.167393 49.4269673 123.36348 49.4269673 123.510546 49.5487038 123.828208 50.1907655L130.550095 64.0922841 137.24649 50.0199417C137.419047 49.621353 137.566113 49.4269673 137.785731 49.4269673 138.009271 49.4269673 138.156337 49.6743672 138.228889 50.1907655L140.468211 65.4215677C140.68979 66.9727259 140.93686 67.6913637 141.676111 67.9132382 142.38987 68.1351127 142.88205 68.1606381 143.203634 68.1606381 143.423252 68.1606381 143.597771 68.1842 143.597771 68.3314619 143.597771 68.527811 143.299717 68.6004602 142.954603 68.6004602 142.340848 68.6004602 138.944609 68.527811 137.960249 68.4551618 137.393556 68.4060746 137.24649 68.3314619 137.24649 68.1842 137.24649 68.0605001 137.344534 67.9878509 137.517091 67.9132382 137.664157 67.8641509 137.736709 67.5421384 137.638665 66.8529529L136.162125 56.0066268 136.064081 56.0066268 130.697161 67.1985274C130.132428 68.3550238 130.008893 68.5788618 129.789274 68.5788618 129.563774 68.5788618 129.318664 68.0860255 128.924528 67.3477527 128.334304 66.2128547 126.391075 62.4409879 126.094982 61.7518024 125.873403 61.2334407 124.396863 58.1271974 123.534077 56.2795521L123.436033 56.2795521 122.157541 66.0891548C122.108519 66.5329038 122.083028 66.8529529 122.083028 67.2495782 122.083028 67.7149256 122.402651 67.9387636 122.820317 68.0349747 123.265437 68.1351127 123.60859 68.1606381 123.857621 68.1606381 124.053709 68.1606381 124.224305 68.2057984 124.224305 68.3314619 124.224305 68.5552999 124.004687 68.6004602 123.632121 68.6004602 122.598738 68.6004602 121.490843 68.527811 121.047685 68.527811 120.579035 68.527811 119.400548 68.6004602 118.612275 68.6004602 118.367166 68.6004602 118.169117 68.5552999 118.169117 68.3314619 118.169117 68.2057984 118.318144 68.1606381 118.563253 68.1606381 118.761302 68.1606381 118.933859 68.1606381 119.300543 68.0860255 119.988811 67.9387636 120.18686 66.9727259 120.310395 66.1382421L122.747765 50.069029z"/>
    <path d="M147.683846 50.069029C147.756399 49.6488418 147.903464 49.4269673 148.099552 49.4269673 148.297601 49.4269673 148.444666 49.5487038 148.764289 50.1907655L155.484215 64.0922841 162.18061 50.0199417C162.351206 49.621353 162.498272 49.4269673 162.719851 49.4269673 162.94143 49.4269673 163.090457 49.6743672 163.16497 50.1907655L165.402331 65.4215677C165.62391 66.9727259 165.870981 67.6913637 166.60827 67.9132382 167.32203 68.1351127 167.816171 68.1606381 168.135794 68.1606381 168.357373 68.1606381 168.526008 68.1842 168.526008 68.3314619 168.526008 68.527811 168.231877 68.6004602 167.888723 68.6004602 167.274969 68.6004602 163.876769 68.527811 162.892408 68.4551618 162.327676 68.4060746 162.18061 68.3314619 162.18061 68.1842 162.18061 68.0605001 162.276693 67.9878509 162.44925 67.9132382 162.596316 67.8641509 162.67279 67.5421384 162.572785 66.8529529L161.094284 56.0066268 160.99624 56.0066268 155.631281 67.1985274C155.066548 68.3550238 154.943013 68.5788618 154.723395 68.5788618 154.499855 68.5788618 154.254745 68.0860255 153.860609 67.3477527 153.270385 66.2128547 151.325195 62.4409879 151.031063 61.7518024 150.807523 61.2334407 149.332944 58.1271974 148.470158 56.2795521L148.372114 56.2795521 147.093622 66.0891548C147.042639 66.5329038 147.019109 66.8529529 147.019109 67.2495782 147.019109 67.7149256 147.338732 67.9387636 147.756399 68.0349747 148.199557 68.1351127 148.544671 68.1606381 148.791742 68.1606381 148.987829 68.1606381 149.158426 68.2057984 149.158426 68.3314619 149.158426 68.5552999 148.938807 68.6004602 148.568202 68.6004602 147.534819 68.6004602 146.426924 68.527811 145.983766 68.527811 145.515116 68.527811 144.334668 68.6004602 143.548356 68.6004602 143.301286 68.6004602 143.105198 68.5552999 143.105198 68.3314619 143.105198 68.2057984 143.252264 68.1606381 143.497374 68.1606381 143.695422 68.1606381 143.866019 68.1606381 144.236624 68.0860255 144.924892 67.9387636 145.12098 66.9727259 145.246476 66.1382421L147.683846 50.069029zM168.902104 59.2862464C168.902104 55.0706305 171.682628 49.6239055 179.071213 49.6239055 185.198953 49.6239055 189.012859 53.1994232 189.012859 58.8424973 189.012859 64.4875349 185.077379 68.9485872 178.824142 68.9485872 171.759102 68.9485872 168.902104 63.6491241 168.902104 59.2862464M185.569559 59.7535573C185.569559 54.2322197 182.392938 50.8078908 178.355493 50.8078908 175.525947 50.8078908 172.296382 52.3845743 172.296382 58.5224482 172.296382 63.6491241 175.131811 67.7155146 179.855563 67.7155146 181.581135 67.7155146 185.569559 66.8771039 185.569559 59.7535573M194.927845 65.2515294C194.974906 67.1737874 195.294529 67.8158491 195.78867 67.9886363 196.204376 68.1339347 196.673025 68.1574965 197.067162 68.1574965 197.337763 68.1574965 197.484828 68.2085473 197.484828 68.3577727 197.484828 68.5541218 197.263249 68.6032091 196.920096 68.6032091 195.318059 68.6032091 194.33566 68.5305599 193.86701 68.5305599 193.645431 68.5305599 192.490475 68.6032091 191.2061 68.6032091 190.888438 68.6032091 190.664898 68.5776837 190.664898 68.3577727 190.664898 68.2085473 190.815886 68.1574965 191.059034 68.1574965 191.380618 68.1574965 191.823776 68.1339347 192.168891 68.0377236 192.808137 67.8374475 192.906181 67.1227366 192.933633 64.9786041L193.153251 50.3898635C193.153251 49.8970272 193.227764 49.5494892 193.472874 49.5494892 193.741514 49.5494892 193.965054 49.8734653 194.382721 50.3152508 194.678813 50.6352999 198.420167 54.6526032 202.012493 58.2261574 203.689043 59.9010155 207.008808 63.4510078 207.428436 63.8456696L207.551971 63.8456696 207.304901 52.7794324C207.283331 51.2753981 207.059791 50.8080871 206.469567 50.5626507 206.100922 50.4114619 205.510698 50.4114619 205.165584 50.4114619 204.869491 50.4114619 204.771447 50.3368492 204.771447 50.1915509 204.771447 49.9932382 205.042049 49.9716398 205.410693 49.9716398 206.693107 49.9716398 207.871594 50.044289 208.391226 50.044289 208.657906 50.044289 209.595205 49.9716398 210.801144 49.9716398 211.122728 49.9716398 211.367838 49.9932382 211.367838 50.1915509 211.367838 50.3368492 211.220772 50.4114619 210.926641 50.4114619 210.677609 50.4114619 210.483482 50.4114619 210.18739 50.4860746 209.497161 50.6843872 209.297152 51.2027489 209.277543 52.5830833L209.00302 68.1339347C209.00302 68.6758583 208.904976 68.8977328 208.685358 68.8977328 208.412796 68.8977328 208.118665 68.6287345 207.848064 68.3577727 206.29701 66.8753367 203.14588 63.6493204 200.586936 61.1105262 197.904456 58.4460684 195.170994 55.367314 194.729796 54.9000031L194.655283 54.9000031 194.927845 65.2515294zM225.014954 65.2917809C221.571654 62.2680043 220.657885 58.3292407 220.657885 54.9166927 220.657885 52.5251603 221.399096 48.3782666 224.769844 45.2818408 227.295454 42.957067 230.634827 41.5531707 235.868408 41.5531707 238.046943 41.5531707 239.347004 41.6925786 240.958845 41.9026722 242.294202 42.0813499 243.419746 42.3955085 244.470776 42.5035005 244.859029 42.5368799 245.000212 42.7135941 245.000212 42.9217242 245.000212 43.2044669 244.896286 43.6266176 244.823734 44.8596901 244.755103 46.0201135 244.788438 47.9541525 244.719807 48.6570824 244.684511 49.1832981 244.611959 49.4660408 244.296258 49.4660408 244.015852 49.4660408 243.947222 49.1832981 243.947222 48.6924252 243.911926 47.6026875 243.455041 46.3715785 242.576568 45.4565915 241.415729 44.2254824 238.678345 43.2751526 235.444859 43.2751526 232.389812 43.2751526 230.389718 44.0507317 228.842586 45.4565915 226.277759 47.8127811 225.61106 51.1526799 225.61106 54.5652278 225.61106 62.9336279 231.966263 67.086412 236.676289 67.086412 239.803888 67.086412 241.700056 66.7349471 243.104044 65.1170302 243.700151 64.4494432 244.157035 63.4303912 244.296258 62.7961835 244.406067 62.2326615 244.470776 62.0932536 244.755103 62.0932536 245.000212 62.0932536 245.068843 62.3367265 245.068843 62.6194692 245.068843 63.0416199 244.647255 66.1007394 244.296258 67.2965056 244.12174 67.893407 243.984478 68.0720847 243.38445 68.3175211 241.978501 68.8810431 239.309747 69.1264795 237.060621 69.1264795 232.25059 69.1264795 228.213144 68.0720847 225.014954 65.2917809M251.671704 62.1702224C251.55013 62.1702224 251.499147 62.2193097 251.452086 62.3685351L250.122612 65.893002C249.877502 66.5056113 249.753967 67.0985857 249.753967 67.3950729 249.753967 67.8388219 249.973585 68.158871 250.738327 68.158871L251.106972 68.158871C251.403064 68.158871 251.475617 68.2079583 251.475617 68.3552201 251.475617 68.5535328 251.32659 68.60262 251.055989 68.60262 250.269677 68.60262 249.212765 68.5280074 248.449983 68.5280074 248.177422 68.5280074 246.822456 68.60262 245.542003 68.60262 245.224341 68.60262 245.075314 68.5535328 245.075314 68.3552201 245.075314 68.2079583 245.175319 68.158871 245.371407 68.158871 245.592986 68.158871 245.936139 68.1333456 246.134188 68.1097837 247.265614 67.9625219 247.734263 67.1241111 248.226443 65.893002L254.405167 50.4128363C254.699299 49.696162 254.846364 49.4271637 255.095396 49.4271637 255.315014 49.4271637 255.466001 49.6490382 255.707189 50.2164872 256.299374 51.5712962 260.236815 61.6282988 261.815321 65.3746403 262.748699 67.591422 263.464419 67.93896 263.98013 68.0606964 264.348774 68.1333456 264.715458 68.158871 265.015473 68.158871 265.21156 68.158871 265.333135 68.1843964 265.333135 68.3552201 265.333135 68.5535328 265.111556 68.60262 264.201709 68.60262 263.315392 68.60262 261.519229 68.60262 259.548547 68.5535328 259.105389 68.5280074 258.811258 68.5280074 258.811258 68.3552201 258.811258 68.2079583 258.911262 68.158871 259.156372 68.1333456 259.33089 68.0842583 259.501486 67.8643473 259.37599 67.5678601L257.40727 62.3430097C257.358248 62.2193097 257.285695 62.1702224 257.16216 62.1702224L251.671704 62.1702224zM256.693511 60.9371499C256.819007 60.9371499 256.840576 60.8645007 256.819007 60.789888L254.601255 54.7011014C254.575763 54.6029268 254.552233 54.4792269 254.47968 54.4792269 254.405167 54.4792269 254.354184 54.6029268 254.332615 54.7011014L252.065841 60.7643626C252.04231 60.8645007 252.065841 60.9371499 252.163885 60.9371499L256.693511 60.9371499zM266.001009 57.1175702C266.001009 53.3692652 266.001009 52.6781163 265.950027 51.8907563 265.902966 51.0543089 265.706878 50.6596472 264.893114 50.4868599 264.697026 50.4377727 264.279359 50.4122473 263.936206 50.4122473 263.661683 50.4122473 263.516578 50.367087 263.516578 50.1903728 263.516578 50.019549 263.687175 49.9704617 264.05778 49.9704617 265.361764 49.9704617 266.912817 50.0431109 267.650107 50.0431109 268.240331 50.0431109 269.793346 49.9704617 270.679662 49.9704617 271.048307 49.9704617 271.218903 50.019549 271.218903 50.1903728 271.218903 50.367087 271.071837 50.4122473 270.826728 50.4122473 270.556127 50.4122473 270.4071 50.4377727 270.112969 50.4868599 269.44627 50.6125234 269.248222 51.0287836 269.201161 51.8907563 269.150178 52.6781163 269.150178 53.3692652 269.150178 57.1175702L269.150178 60.5674245C269.150178 64.1409787 269.865898 65.645013 271.071837 66.6306857 272.177772 67.5456726 273.31312 67.6418837 274.150414 67.6418837 275.230858 67.6418837 276.560332 67.3002362 277.546653 66.3106366 278.901619 64.9538641 278.974172 62.7370824 278.974172 60.1963246L278.974172 57.1175702C278.974172 53.3692652 278.974172 52.6781163 278.92515 51.8907563 278.876128 51.0543089 278.678079 50.6596472 277.866276 50.4868599 277.668228 50.4377727 277.252522 50.4122473 276.97996 50.4122473 276.709359 50.4122473 276.560332 50.367087 276.560332 50.1903728 276.560332 50.019549 276.73485 49.9704617 277.076043 49.9704617 278.334926 49.9704617 279.88598 50.0431109 279.907549 50.0431109 280.201681 50.0431109 281.754696 49.9704617 282.715525 49.9704617 283.06064 49.9704617 283.233197 50.019549 283.233197 50.1903728 283.233197 50.367087 283.08417 50.4122473 282.788078 50.4122473 282.517477 50.4122473 282.370411 50.4377727 282.076279 50.4868599 281.411542 50.6125234 281.211533 51.0287836 281.164472 51.8907563 281.117411 52.6781163 281.117411 53.3692652 281.117411 57.1175702L281.117411 59.7525755C281.117411 62.491646 280.842888 65.3995766 278.776123 67.1745728 277.028982 68.6766437 275.254388 68.9476055 273.658234 68.9476055 272.35229 68.9476055 269.991394 68.8729928 268.191309 67.2491855 266.938309 66.1142875 266.001009 64.2882405 266.001009 60.7166498L266.001009 57.1175702zM285.940188 68.3079C285.546051 68.1331493 285.471538 68.0114128 285.471538 67.4694892 285.471538 66.1146802 285.569582 64.6361712 285.595073 64.2395459 285.618604 63.8704096 285.695078 63.5994478 285.889205 63.5994478 286.114706 63.5994478 286.136275 63.8213223 286.136275 64.0157079 286.136275 64.339684 286.234319 64.8560822 286.355894 65.2762694 286.901017 67.0983893 288.354027 67.7640129 289.87959 67.7640129 292.091459 67.7640129 293.179746 66.2599785 293.179746 64.9542568 293.179746 63.7467096 292.80914 62.5902132 290.763945 61.0096027L289.632519 60.1240681C286.922587 58.0034975 285.98921 56.2795521 285.98921 54.2807179 285.98921 51.5730634 288.252062 49.621353 291.675753 49.621353 293.275829 49.621353 294.309211 49.8726799 294.948457 50.0435036 295.171997 50.0925909 295.293571 50.1672036 295.293571 50.3380273 295.293571 50.6600399 295.193566 51.3727872 295.193566 53.2950453 295.193566 53.8408958 295.121014 54.0352815 294.926887 54.0352815 294.752369 54.0352815 294.679817 53.8880196 294.679817 53.5934959 294.679817 53.3696579 294.55432 52.6058598 294.040571 51.9657616 293.669965 51.4964872 292.956206 50.7582145 291.354169 50.7582145 289.532514 50.7582145 288.42658 51.8184998 288.42658 53.2950453 288.42658 54.4299432 288.993273 55.2919159 291.032585 56.8470011L291.724775 57.3633993C294.679817 59.6567572 295.762221 61.3060899 295.762221 63.6485351 295.762221 65.0779567 295.221019 66.7783402 293.446425 67.9387636 292.216955 68.7261236 290.838458 68.9479982 289.532514 68.9479982 288.104996 68.9479982 287.001022 68.7732474 285.940188 68.3079M300.882267 57.1175702C300.882267 53.3692652 300.882267 52.6781163 300.831284 51.8907563 300.782262 51.0543089 300.586174 50.6596472 299.77241 50.4868599 299.576323 50.4377727 299.156695 50.4122473 298.813541 50.4122473 298.539019 50.4122473 298.391953 50.367087 298.391953 50.1903728 298.391953 50.019549 298.56451 49.9704617 298.937077 49.9704617 300.237138 49.9704617 301.790153 50.0431109 302.482342 50.0431109 303.268654 50.0431109 308.166925 50.0431109 308.633614 50.019549 309.102263 49.9704617 309.496399 49.9213744 309.694448 49.8742507 309.816022 49.8447983 309.963088 49.7721491 310.084663 49.7721491 310.210159 49.7721491 310.23565 49.8742507 310.23565 49.9940236 310.23565 50.1668109 310.110154 50.4613346 310.035641 51.5942691 310.010149 51.841669 309.963088 52.9274797 309.916027 53.2220034 309.888575 53.3476668 309.841514 53.4949287 309.665035 53.4949287 309.496399 53.4949287 309.445417 53.3692652 309.445417 53.1493542 309.445417 52.976567 309.423847 52.5563798 309.298351 52.2598926 309.125794 51.8181071 308.878723 51.5216199 307.651214 51.3723945 307.231587 51.3252707 304.649111 51.27422 304.15301 51.27422 304.031435 51.27422 303.982413 51.3488326 303.982413 51.5216199L303.982413 57.7576684C303.982413 57.9304556 304.005944 58.0286302 304.15301 58.0286302 304.696173 58.0286302 307.525718 58.0286302 308.092412 57.9795429 308.682636 57.9304556 309.053241 57.8538794 309.276781 57.6104065 309.445417 57.4120939 309.543461 57.2883939 309.665035 57.2883939 309.767001 57.2883939 309.841514 57.3394447 309.841514 57.4847431 309.841514 57.6339684 309.716018 58.0286302 309.643465 59.2852646 309.592482 59.7800644 309.543461 60.7637736 309.543461 60.9365608 309.543461 61.13291 309.543461 61.4077987 309.321881 61.4077987 309.151285 61.4077987 309.102263 61.3056972 309.102263 61.1819972 309.076772 60.9365608 309.076772 60.6165117 309.004219 60.2964626 308.878723 59.8036263 308.53557 59.4325265 307.625723 59.3343519 307.159034 59.2852646 304.721664 59.2617027 304.127518 59.2617027 304.005944 59.2617027 303.982413 59.3598773 303.982413 59.5071391L303.982413 61.456886C303.982413 62.2952968 303.954961 64.5611658 303.982413 65.2758767 304.031435 66.9762602 304.42165 67.3453965 306.939416 67.3453965 307.578662 67.3453965 308.610083 67.3453965 309.249329 67.0489093 309.888575 66.7543856 310.182706 66.2379874 310.357225 65.2248259 310.408207 64.9538641 310.457229 64.8556895 310.627826 64.8556895 310.827835 64.8556895 310.827835 65.0540021 310.827835 65.2994386 310.827835 65.8668876 310.627826 67.5456726 310.506251 68.038509 310.333694 68.6766437 310.110154 68.6766437 309.174816 68.6766437 305.458954 68.6766437 303.809856 68.5293818 302.356846 68.5293818 301.790153 68.5293818 300.237138 68.602031 299.25866 68.602031 298.937077 68.602031 298.76648 68.5293818 298.76648 68.3565946 298.76648 68.2348581 298.862563 68.1602454 299.156695 68.1602454 299.529262 68.1602454 299.823393 68.1091947 300.044972 68.0601074 300.537152 67.9619328 300.656766 67.4200092 300.758731 66.7033349 300.882267 65.6705384 300.882267 63.7207915 300.882267 61.456886L300.882267 57.1175702z"/>
  </g>
</svg>
