<?xml version="1.0" encoding="utf-8"?>
<!-- Generator: Adobe Illustrator 21.0.2, SVG Export Plug-In . SVG Version: 6.00 Build 0)  -->
<!DOCTYPE svg PUBLIC "-//W3C//DTD SVG 1.1//EN" "http://www.w3.org/Graphics/SVG/1.1/DTD/svg11.dtd">
<svg version="1.1" id="Layer_1" xmlns="http://www.w3.org/2000/svg" xmlns:xlink="http://www.w3.org/1999/xlink" x="0px" y="0px"
	 width="225px" height="71px" viewBox="0 0 225 71" style="enable-background:new 0 0 225 71;" xml:space="preserve">
<style type="text/css">
	.st0{fill:#FFFFFF;}
</style>
<g>
	<path class="st0" d="M77.3,0H38.7h0H0c6.6,57,37,70,38.6,70.7v0l0,0l0,0v0c0.6-0.3,5.2-2.2,11-7.5c-7.1,1.1-14.5-3-14.4-3.3
		c-1.4-0.2-2.6-0.7-2.6-0.7c-5.8-1.7-16.3-5.3-12.3-17.8c2.5-7.6,7.3-11.7,11.7-15c0,0.1,0,0.3,0,0.4c0,2.2,0.5,4.1,1.1,6.2
		c0.6,1.5,1.2,2.5,1.9,4.1c2.5,4.7,4.3,5.9,3.1,14.2c5.4-3.3,10.2-9,11.3-12c0.4-1,1.2-2.6,1.5-3.6c0.5-1.8,0.6-2.8,0.8-5
		c0.2-2.4-0.8-5-1.6-7.3c-0.4-1.1-0.9-2.3-1.3-3.3c-0.7-1.7-1.5-3.3-2.4-4.9c-0.3-0.6-0.7-1.3-0.9-2c3.7-3.8,6.5-6.2,6.5-6.2L53,6.9
		C53,6.9,54,7,54.1,7c-0.7-1.4-1.7-2.8-5-1.3c-0.7,0.6-1.5,1.1-2.2,1.6c-0.6,0.4-2,1.9-2.1,3.8c-0.1,1.6,0.5,3.1,1.3,4.4
		c0.8,1.5,1.6,3,2.3,4.6c0.4,1,0.7,1.9,1.1,2.9c0.7,2.1,1.6,4.3,1.8,6.5c0.2,1.8-0.1,3.5-0.6,5.2c-0.3,0.9-0.6,1.9-0.9,2.8
		c-1.2,3.2-3.8,7.7-10.5,12.5c1.6-5.2-1.4-9.7-3.7-14.1c-0.7-1.5-1.3-2.4-1.9-3.8c-0.6-1.9-0.7-4-0.7-6c0.2-2.8,1-5.5,2.7-8.1
		c2-3,5.7-5.5,5.3-4.9c-0.2,0.4-0.7,2-0.9,2.4c-0.3,0.8-0.6,1.6-0.8,2.5c-0.5,1.6-0.7,3.2-0.8,4.9c-0.3,2.6,0.2,5.1,0.8,7.5
		c0.2,0.7,0.4,1.4,0.6,2.2c0.3,1,0.6,2,0.9,3c0.3,1,0.7,2.1,0.9,3.1c0.2,0.9,0.4,1.9,0.3,2.8c0-0.2,0.3-0.5,0.3-0.7
		c0.1-0.3,0.1-0.6,0.1-0.9c0-0.6-0.2-1.2-0.3-1.8c-0.2-1.1-0.2-2.3-0.4-3.4c-0.2-1.2-0.5-2.4-0.8-3.5c-0.6-2.3-1.1-4.7-1.3-7.1
		c-0.1-1.4-0.1-2.9,0.2-4.3c0.2-1.6,0.7-3.4,1.4-5.4c0.4-1.2,1-2.4,1.6-3.5c0.4-0.8,0.9-1.6,1.4-2.3c-0.3-0.3-0.6-0.5-0.8-0.8
		c-0.3-0.3-1.2-0.9-2.2-0.7c-0.8,0.1-1.5,0.6-2.2,1.1c-0.7,0.6-1.4,1.1-2.1,1.6c-0.5,0.3-0.9,0.6-1.4,0.8c-1,0.6-2.1,1.2-3.2,1.6
		c-0.9,0.3-1.8,0.3-2.7,0.2c-0.5,0-1-0.1-1.5-0.2c-1.8-0.3-4.4-1.2-7.5-4.2c2.9,0.3,4.9-1.7,6.9-3.3c0.7-0.5,1.1-0.9,1.8-1.3
		c0.9-0.5,2-0.7,3.1-0.9c1.5-0.2,3,0,4.4,0.6c1.8,0.8,3.5,2.6,3.2,2.5c-0.2-0.1-0.5-0.1-0.7-0.1c-0.2,0-0.5-0.1-0.7-0.1
		C38,5.1,37.6,5,37.1,5c-0.9-0.1-1.8-0.1-2.7-0.1c-1.4,0.1-2.6,0.6-3.8,1.2c-0.4,0.2-0.7,0.4-1.1,0.5c-0.5,0.3-1,0.5-1.5,0.8
		c-0.5,0.3-1,0.6-1.5,0.8c-0.5,0.2-0.9,0.4-1.4,0.4c0.1,0,0.3,0.1,0.4,0.1c0.2,0,0.3,0,0.5-0.1c0.3-0.1,0.6-0.2,0.9-0.3
		c0.6-0.2,1.1-0.3,1.7-0.6c0.6-0.2,1.2-0.5,1.7-0.7c1.2-0.5,2.3-1,3.6-1.4c0.7-0.2,1.5-0.3,2.3-0.3c0.9,0,1.9,0,2.9,0.2
		c0.7,0.1,1.3,0.3,2,0.5c0.7,0.2,1.5,0.5,2.1,1c0.5,0.3,0.8,0.8,1.2,1.2c0.3-0.4,0.6-0.7,0.9-1c1.1-1,2.5-1.7,3.7-2.3
		c0.1,0,0.2-0.1,0.2-0.1c1.5-0.6,4.6-1.3,5.6,2.5c3.7,1.9,5.9,8.7,5.5,20.7c-0.2,4.9,3.9,9.5,1.9,19.8C68.8,37.1,74.8,21.7,77.3,0
		 M85.2,52.9c0,3.9,0.3,4,0.9,4h1.5v0.7h-5.9v-0.7h1.1c0.3,0,0.5-0.1,0.5-0.3V44.7c0-3.1-0.1-3.7-0.8-3.7h-1.6v-0.7h7.2
		c3.5,0,5.4,2.2,5.4,4.5c0,3.3-3,4.9-6,4.9c-0.8,0-1.7-0.1-2.5-0.4V52.9z M85.2,48.7c0.7,0.2,1.5,0.4,2.3,0.4c2.4,0,4.4-1.2,4.4-3.7
		c0-1.1-0.5-4.1-4.5-4.1h-1.2c-0.5,0-1,0-1,0.3V48.7z M94.1,46c0.4,0,1.3-0.1,1.9-0.2c0.8-0.1,1.5-0.2,1.9-0.2v7.3
		c0,2.2,0,3.9,2.5,3.9c1.3,0,2.7-0.8,3.7-1.8v-5.9c0-2.4-0.3-2.4-0.8-2.4h-1.4V46c0.4,0,1.3-0.1,1.9-0.2c0.8-0.1,1.5-0.2,1.9-0.2
		v7.9c0,1.7,0,3,1.9,3.4l-0.9,1.2c-1.3-0.2-2.2-1.2-2.5-2.4c-1.3,1.2-2.7,2.4-4.5,2.4c-3.4,0-3.4-3.3-3.4-6.1v-2.9
		c0-2.4-0.3-2.4-0.8-2.4h-1.4V46z M109.3,42.1c0-2.4-0.3-2.4-0.8-2.4h-1.4V39c1.3-0.1,2.5-0.3,3.8-0.6v9.2c1.7-1.3,2.9-2,4.5-2
		c3.2,0,4.6,3.1,4.6,6c0,3.5-2.1,6.6-5.9,6.6c-1.5,0-2.9-0.6-4-1.4l-0.5,1.3h-0.5c0.2-1.1,0.2-2.3,0.2-3.4V42.1z M110.9,56.3
		c0.8,0.7,1.9,1.1,3,1.1c3.1,0,4.5-2.5,4.5-5.4c0-2.6-1.1-5.1-4-5.1c-1.4,0-2.4,0.7-3.4,1.6V56.3z M122.5,42.1
		c0-2.4-0.3-2.4-0.8-2.4h-1.4V39c1.3-0.1,2.5-0.3,3.8-0.6v14.5c0,4.1,0.1,4.1,1.1,4.1h1.1v0.7H121V57h1c0.2,0,0.5,0,0.5-0.3V42.1z
		 M130.5,52.9c0,4.1,0.1,4.1,1.1,4.1h1.1v0.7h-5.3V57h1c0.2,0,0.5,0,0.5-0.3v-7.6c0-2.4-0.3-2.4-0.8-2.4h-1.4V46
		c0.4,0,1.3-0.1,1.9-0.2c0.8-0.1,1.5-0.2,1.9-0.2V52.9z M129.5,40.6c0.5,0,1,0.5,1,1c0,0.6-0.5,1-1,1s-1-0.5-1-1
		C128.5,41.1,129,40.6,129.5,40.6L129.5,40.6z M143.6,56c-1.1,1.3-2.9,2.1-4.6,2.1c-3.5,0-5.4-2.7-5.4-6.1c0-4.3,3.2-6.4,5.9-6.4
		c2.5,0,3.7,1.7,3.7,2.5c0,0.4-0.3,0.7-0.7,0.7c-0.9,0-1.6-1.4-1.7-2.2c-0.4-0.2-0.9-0.3-1.3-0.3c-1.3,0-4.1,0.8-4.3,5.1
		c0,3,1.6,5.6,4.7,5.6c1.3,0,2.5-0.4,3.4-1.3L143.6,56z M153,52.9c0,3.9,0.3,4,0.9,4h1.5v0.7h-5.9v-0.7h1.1c0.3,0,0.5-0.1,0.5-0.3
		V44.7c0-3.1-0.1-3.7-0.8-3.7h-1.6v-0.7h5.9v0.7h-1.1c-0.3,0-0.6,0-0.6,0.3V52.9z M159.9,52.9c0,4.1,0.1,4.1,1.1,4.1h1.1v0.7h-5.3
		V57h1c0.2,0,0.5,0,0.5-0.3v-7.6c0-2.4-0.3-2.4-0.8-2.4h-1.4V46c0.4,0,1.3-0.1,1.9-0.2c0.8-0.1,1.5-0.2,1.9-0.2v2.2
		c1.4-1.2,2.9-2.2,4.6-2.2c2.6,0,3.3,1.7,3.3,3.4v3.9c0,4.1,0.1,4.1,1.1,4.1h1.1v0.7h-5.3V57h1c0.2,0,0.5,0,0.5-0.3v-7.1
		c0-2.2-1-2.8-2.3-2.8c-1.6,0-2.9,0.8-4.1,1.8V52.9z M173.4,46h3c-0.1,0.6-0.2,0.7-0.4,0.7h-2.6v7.8c0,1.2,0.1,2.5,1.9,2.5
		c0.6,0,1.3-0.2,1.9-0.4l0.2,0.5c-0.8,0.5-2.3,1-3.2,1c-1.6,0-2.4-1-2.4-2.5v-8.9h-0.6c-0.6,0-0.7,0-0.7-0.2c0-0.1,0.1-0.3,0.3-0.4
		l2.2-2.6h0.4V46z M188,55.9c-1.3,1.4-3,2.2-5,2.2c-3.4,0-5-2.8-5-5.9c0-3.1,1.7-6.6,5.2-6.6c2.3,0,3.6,1.9,4.6,3.7
		c-2.8,0.9-4.9,1.5-8.1,2.3c0.1,2.8,1.3,5.3,4.5,5.3c1.4,0,2.5-0.5,3.5-1.4L188,55.9z M185.7,49.3c-0.5-1.3-1.5-2.9-3-2.9
		c-1.9,0-3.1,2.5-3.1,4.6L185.7,49.3z M190.9,49.1c0-2.4-0.3-2.4-0.8-2.4h-1.4V46c0.4,0,1.3-0.1,1.9-0.2c0.8-0.1,1.5-0.2,1.9-0.2
		v2.3c2-1.9,2.8-2.3,3.6-2.3c0.5,0,1,0.2,1.3,0.6c-0.3,1.7-0.4,1.8-0.6,1.8c-0.4,0-0.1-0.8-1.6-0.8c-0.9,0-1.6,0.4-2.8,1.6v4.1
		c0,4.1,0.1,4.1,1.1,4.1h1.1v0.7h-5.3V57h1c0.2,0,0.5,0,0.5-0.3V49.1z M207.8,55.9c-1.3,1.4-3,2.2-5,2.2c-3.4,0-5-2.8-5-5.9
		c0-3.1,1.7-6.6,5.2-6.6c2.3,0,3.6,1.9,4.6,3.7c-2.8,0.9-4.9,1.5-8.1,2.3c0.1,2.8,1.3,5.3,4.5,5.3c1.4,0,2.5-0.5,3.5-1.4L207.8,55.9
		z M205.5,49.3c-0.5-1.3-1.5-2.9-3-2.9c-1.9,0-3.1,2.5-3.1,4.6L205.5,49.3z M210.2,48.6c0,2.9,7,1.3,7,5.7c0,2.7-2.9,3.8-5.2,3.8
		c-1,0-2.1-0.2-3.1-0.5c-0.2-1-0.4-2.1-0.4-2.3c0-0.2,0.1-0.2,0.3-0.2c0.2,0,0.3,0.3,0.3,0.5c0.2,1,2.1,1.7,3.5,1.7
		c1.4,0,3.1-0.8,3.1-2.5c0-3.2-6.8-1.3-6.8-5.5c0-1.9,1.9-3.6,4.3-3.6c1.1,0,2.2,0.2,3.1,0.6c0.1,0.7,0.2,1.7,0.2,1.9
		c0,0.1-0.1,0.2-0.2,0.2c-0.2,0-0.2-0.1-0.3-0.2c-0.1-0.2-0.7-1.5-3.1-1.5C211.8,46.5,210.2,47.2,210.2,48.6 M221,46h3
		c-0.1,0.6-0.2,0.7-0.4,0.7H221v7.8c0,1.2,0.1,2.5,1.9,2.5c0.6,0,1.3-0.2,1.9-0.4l0.2,0.5c-0.8,0.5-2.3,1-3.2,1
		c-1.6,0-2.4-1-2.4-2.5v-8.9h-0.6c-0.6,0-0.7,0-0.7-0.2c0-0.1,0.1-0.3,0.3-0.4l2.2-2.6h0.4V46z M82.4,7.6c0-3.9,3.2-6.6,7-6.6
		c1,0,2.1,0.2,3,0.6l-0.1,1.1c0,0.3,0,0.4-0.2,0.4c-0.1,0-0.1-0.1-0.2-0.4c-0.1-0.4-1.2-1.1-2.7-1.1c-3.4,0-5.5,2.4-5.5,5.8
		c0,3.2,2.3,5.3,5.1,5.3c1.4,0,3.4-0.7,3.5-1.8c0-0.1,0-0.3,0.2-0.3c0.2,0,0.2,0.1,0.2,0.2c0,0.2,0,0.5-0.1,1.5
		c-1.3,0.6-2.7,0.9-4.1,0.9C84.8,13.3,82.4,11.3,82.4,7.6 M93.3,1.4h8.5l-0.2,1.3c0,0.2,0,0.3-0.2,0.3c-0.1,0-0.2-0.1-0.2-0.2
		c0-0.3-0.3-0.4-0.5-0.5C100,2,98.9,2,98,2h-1.3C96.3,2,96,2,96,2.2v4.2h1.7c2.6,0,2.7-0.2,2.7-0.6V5h0.5v3h-0.5V7.4
		c0-0.4,0-0.5-2.1-0.5H96v2.9c0,2.5,0.1,2.5,0.7,2.5h1.2c0.9,0,3.6,0,4-0.9c0-0.1,0.1-0.2,0.2-0.2c0.1,0,0.1,0.1,0.1,0.1
		c0,0.1-0.2,0.8-0.5,1.5h-8v-0.5h0.7c0.2,0,0.4,0,0.4-0.2v-8c0-2.1-0.1-2.4-0.5-2.4h-1.1V1.4z M112.8,10.9L112.8,10.9l0-6.4
		c0-2.6-0.2-2.7-0.6-2.7h-1V1.4h3.3v0.5h-0.7c-0.2,0-0.4,0-0.4,0.2v10.8c0,0.2,0,0.3-0.1,0.3c-0.1,0-0.1,0-0.1-0.1L105.2,3h0v6.8
		c0,2.6,0.2,2.7,0.6,2.7h1V13h-3.3v-0.5h0.7c0.2,0,0.4,0,0.4-0.2V3.2c0-0.7-0.2-1.3-0.8-1.3h-0.8V1.4h2.3L112.8,10.9z M122.8,13H118
		v-0.5h1.3c0.2,0,0.4,0,0.4-0.2V2c-1.1,0-3.5,0-3.9,0.9c-0.1,0.1-0.1,0.2-0.2,0.2c-0.1,0-0.2,0-0.2-0.1c0-0.1,0-0.3,0.5-1.5h8.8
		c0.5,1.3,0.5,1.5,0.5,1.5c0,0.1-0.1,0.1-0.2,0.1c-0.1,0-0.2-0.1-0.2-0.2C124.3,1.9,122,2,120.9,2v7.9c0,2.6,0.2,2.7,0.6,2.7h1.3V13
		z M125.6,1.4h8.5l-0.2,1.3c0,0.2,0,0.3-0.2,0.3c-0.1,0-0.2-0.1-0.2-0.2c0-0.3-0.3-0.4-0.5-0.5C132.3,2,131.2,2,130.3,2H129
		c-0.3,0-0.7,0-0.7,0.2v4.2h1.7c2.6,0,2.7-0.2,2.7-0.6V5h0.5v3h-0.5V7.4c0-0.4,0-0.5-2.1-0.5h-2.3v2.9c0,2.5,0.1,2.5,0.7,2.5h1.2
		c0.9,0,3.6,0,4-0.9c0-0.1,0.1-0.2,0.2-0.2c0.1,0,0.1,0.1,0.1,0.1c0,0.1-0.2,0.8-0.5,1.5h-8v-0.5h0.7c0.2,0,0.4,0,0.4-0.2v-8
		c0-2.1-0.1-2.4-0.5-2.4h-1.1V1.4z M136.8,4.3c0-2.1-0.1-2.4-0.5-2.4h-1.1V1.4h4.8c2.4,0,3.6,1.5,3.6,3c0,1.8-1.3,2.8-2.9,3.1
		c1.8,2.6,3.1,4.3,3.7,4.8c0.3,0.2,0.5,0.2,1,0.2V13h-1.9c-0.4,0-0.5-0.1-4.1-5.2H138v2.1c0,2.6,0.2,2.7,0.6,2.7h1V13h-3.9v-0.5h0.7
		c0.2,0,0.4,0,0.4-0.2V4.3z M138,7.2h1c1.6,0,3.4-0.5,3.4-2.5c0-0.7-0.3-2.7-3-2.7h-0.8c-0.3,0-0.7,0-0.7,0.2V7.2z M151.5,4.3
		c0-2.1-0.1-2.4-0.5-2.4h-1.1V1.4h8.5l-0.2,1.3c0,0.2,0,0.3-0.2,0.3c-0.1,0-0.2-0.1-0.2-0.2c0-0.3-0.3-0.4-0.5-0.5
		C156.6,2,155.5,2,154.7,2h-1.3c-0.3,0-0.7,0-0.7,0.2v4.2h1.7c2.6,0,2.7-0.2,2.7-0.6V5h0.5v3h-0.5V7.4c0-0.4,0-0.5-2.1-0.5h-2.3v2.9
		c0,2.6,0.2,2.7,0.6,2.7h1V13h-3.9v-0.5h0.7c0.2,0,0.4,0,0.4-0.2V4.3z M165.6,1c3.7,0,5.7,2.5,5.7,6c0,3.4-2.3,6.3-5.9,6.3
		c-3.7,0-5.7-2.5-5.7-6C159.6,4,162,1,165.6,1 M165.2,1.6c-1.8,0-4.4,1.2-4.4,5.4c0,4.1,2.4,5.8,4.8,5.8c1.8,0,4.4-1.2,4.4-5.4
		C170,3.3,167.6,1.6,165.2,1.6 M173.8,4.3c0-2.1-0.1-2.4-0.5-2.4h-1.1V1.4h4.8c2.4,0,3.6,1.5,3.6,3c0,1.8-1.3,2.8-2.9,3.1
		c1.8,2.6,3.1,4.3,3.7,4.8c0.3,0.2,0.5,0.2,1,0.2V13h-1.9c-0.4,0-0.5-0.1-4.1-5.2H175v2.1c0,2.6,0.2,2.7,0.6,2.7h1V13h-3.9v-0.5h0.7
		c0.2,0,0.4,0,0.4-0.2V4.3z M175,7.2h1c1.6,0,3.4-0.5,3.4-2.5c0-0.7-0.3-2.7-3-2.7h-0.8c-0.3,0-0.7,0-0.7,0.2V7.2z M92.1,18.7
		c0,0.2,0,0.3-0.2,0.3c-0.2,0-0.2-0.2-0.3-0.4c-0.2-1.1-2.4-1.4-3.2-1.4c-2.8,0-3.9,1.9-3.9,3.3c0,4.8,8.9,2.9,8.9,8.9
		c0,3.4-3.2,5.3-6.4,5.3c-1.3,0-2.9-0.3-4.1-0.7c-0.2-1.3-0.4-2.2-0.4-2.4s0.1-0.3,0.3-0.3c0.3,0,0.3,0.3,0.4,0.5
		c0.3,1.5,3,2.1,4.3,2.1c2.3,0,4.6-1.2,4.6-3.6c0-5.4-8.9-3-8.9-9.2c0-2.8,3-4.8,6-4.8c0.9,0,2.1,0.1,2.9,0.5V18.7z M104.9,32.5
		c-1.1,1.3-2.9,2.1-4.6,2.1c-3.5,0-5.4-2.7-5.4-6.1c0-4.3,3.2-6.4,5.9-6.4c2.5,0,3.7,1.7,3.7,2.5c0,0.4-0.3,0.7-0.7,0.7
		c-0.9,0-1.6-1.4-1.7-2.2c-0.4-0.2-0.9-0.3-1.3-0.3c-1.3,0-4.1,0.8-4.3,5.1c0,3,1.6,5.6,4.7,5.6c1.3,0,2.5-0.4,3.4-1.3L104.9,32.5z
		 M109.1,29.4c0,4.1,0.1,4.1,1.1,4.1h1.1v0.7H106v-0.7h1c0.2,0,0.5,0,0.5-0.3v-7.6c0-2.4-0.3-2.4-0.8-2.4h-1.4v-0.7
		c0.4,0,1.3-0.1,1.9-0.2c0.8-0.1,1.5-0.2,1.9-0.2V29.4z M108.1,17.1c0.5,0,1,0.5,1,1c0,0.6-0.5,1-1,1c-0.5,0-1-0.5-1-1
		C107.1,17.6,107.6,17.1,108.1,17.1L108.1,17.1z M122,32.5c-1.3,1.4-3,2.2-5,2.2c-3.4,0-5-2.8-5-5.9c0-3.1,1.7-6.6,5.2-6.6
		c2.3,0,3.6,1.9,4.6,3.7c-2.8,0.9-4.9,1.5-8.1,2.3c0.1,2.8,1.3,5.3,4.5,5.3c1.4,0,2.5-0.5,3.5-1.4L122,32.5z M119.7,25.8
		c-0.5-1.3-1.5-2.9-3-2.9c-1.9,0-3.1,2.5-3.1,4.6L119.7,25.8z M126.2,29.4c0,4.1,0.1,4.1,1.1,4.1h1.1v0.7h-5.3v-0.7h1
		c0.2,0,0.5,0,0.5-0.3v-7.6c0-2.4-0.3-2.4-0.8-2.4h-1.4v-0.7c0.4,0,1.3-0.1,1.9-0.2c0.8-0.1,1.5-0.2,1.9-0.2v2.2
		c1.4-1.2,2.9-2.2,4.6-2.2c2.6,0,3.3,1.7,3.3,3.4v3.9c0,4.1,0.1,4.1,1.1,4.1h1.1v0.7H131v-0.7h1c0.2,0,0.5,0,0.5-0.3v-7.1
		c0-2.2-1-2.8-2.3-2.8c-1.6,0-2.9,0.8-4.1,1.8V29.4z M146.6,32.5c-1.1,1.3-2.9,2.1-4.6,2.1c-3.5,0-5.4-2.7-5.4-6.1
		c0-4.3,3.2-6.4,5.9-6.4c2.5,0,3.7,1.7,3.7,2.5c0,0.4-0.3,0.7-0.7,0.7c-0.9,0-1.6-1.4-1.7-2.2c-0.4-0.2-0.9-0.3-1.3-0.3
		c-1.3,0-4.1,0.8-4.3,5.1c0,3,1.6,5.6,4.7,5.6c1.3,0,2.5-0.4,3.4-1.3L146.6,32.5z M157.4,32.5c-1.3,1.4-3,2.2-5,2.2
		c-3.4,0-5-2.8-5-5.9c0-3.1,1.7-6.6,5.2-6.6c2.3,0,3.6,1.9,4.6,3.7c-2.8,0.9-4.9,1.5-8.1,2.3c0.1,2.8,1.3,5.3,4.5,5.3
		c1.4,0,2.5-0.5,3.5-1.4L157.4,32.5z M155.1,25.8c-0.5-1.3-1.5-2.9-3-2.9c-1.9,0-3.1,2.5-3.1,4.6L155.1,25.8z M166.5,31.1
		c0,2.6,0.2,2.7,0.6,2.7h1v0.5h-3.9v-0.5h0.7c0.2,0,0.4,0,0.4-0.2v-8c0-2.1-0.1-2.4-0.5-2.4h-1.1v-0.5h3.9v0.5h-0.7
		c-0.2,0-0.4,0-0.4,0.2V31.1z M179.1,32.2L179.1,32.2l0-6.4c0-2.6-0.2-2.7-0.6-2.7h-1v-0.5h3.3v0.5h-0.7c-0.2,0-0.4,0-0.4,0.2v10.8
		c0,0.2,0,0.3-0.1,0.3c-0.1,0-0.1,0-0.1-0.1l-8.1-10.1h0v6.8c0,2.6,0.2,2.7,0.6,2.7h1v0.5h-3.3v-0.5h0.7c0.2,0,0.4,0,0.4-0.2v-9.1
		c0-0.7-0.2-1.3-0.8-1.3h-0.8v-0.5h2.3L179.1,32.2z M194.3,34.2h-4.8v-0.5h1.3c0.2,0,0.4,0,0.4-0.2V23.2c-1.1,0-3.5,0-3.9,0.9
		c-0.1,0.1-0.1,0.2-0.2,0.2c-0.1,0-0.2,0-0.2-0.1c0-0.1,0-0.3,0.5-1.6h8.8c0.5,1.3,0.5,1.5,0.5,1.6c0,0.1-0.1,0.1-0.2,0.1
		c-0.1,0-0.2-0.1-0.2-0.2c-0.4-0.9-2.8-0.9-3.9-0.9v7.9c0,2.6,0.2,2.7,0.6,2.7h1.3V34.2z M200.1,28.2v2.9c0,2.6,0.2,2.7,0.6,2.7h1
		v0.5h-3.9v-0.5h0.7c0.2,0,0.4,0,0.4-0.2v-8c0-2.1-0.1-2.4-0.5-2.4h-1.1v-0.5h3.9v0.5h-0.7c-0.2,0-0.4,0-0.4,0.2v4.3h6.5v-2
		c0-2.1-0.1-2.4-0.5-2.4H205v-0.5h3.9v0.5h-0.7c-0.2,0-0.4,0-0.4,0.2v7.7c0,2.6,0.2,2.7,0.6,2.7h1v0.5h-3.9v-0.5h0.7
		c0.2,0,0.4,0,0.4-0.2v-5.4H200.1z M210.3,22.6h8.5l-0.2,1.3c0,0.2,0,0.3-0.2,0.3c-0.1,0-0.2-0.1-0.2-0.2c0-0.3-0.3-0.4-0.5-0.5
		c-0.8-0.2-1.9-0.3-2.7-0.3h-1.3c-0.3,0-0.7,0-0.7,0.2v4.2h1.7c2.6,0,2.7-0.2,2.7-0.6v-0.7h0.5v3h-0.5v-0.7c0-0.4,0-0.5-2.1-0.5H213
		v2.9c0,2.6,0.1,2.6,0.7,2.6h1.2c0.9,0,3.6,0,4-0.9c0-0.1,0.1-0.2,0.2-0.2c0.1,0,0.1,0.1,0.1,0.1c0,0.1-0.2,0.8-0.5,1.6h-8v-0.5h0.7
		c0.2,0,0.4,0,0.4-0.2v-8c0-2.1-0.1-2.4-0.5-2.4h-1.1V22.6z"/>
</g>
</svg>
