<svg xmlns="http://www.w3.org/2000/svg" width="221" height="56" viewBox="0 0 221 56">
  <g fill="#FFFFFF" fill-rule="evenodd">
    <path d="M16.2132056,39.1129515 C16.2132056,47.0173838 16.7837344,51.2547743 25.4051915,51.2547743 C39.8829589,51.2547743 46.391302,40.9872974 46.391302,27.2172791 C46.391302,11.0818148 37.0363079,3.26023313 23.4526886,3.26023313 C20.0355088,3.26023313 17.4333702,3.91223172 16.86404,4.39972975 C16.2947098,4.88962925 16.2132056,6.60067529 16.2132056,10.4298162 L16.2132056,39.1129515 Z M6.77790599,12.4674619 C6.77790599,4.6446795 6.69760047,3.50398214 2.87409871,3.17858321 L1.16490952,3.01528338 C0.596777908,2.60823453 0.596777908,1.14093751 1.24761222,0.733888659 C7.10272385,0.245189896 13.611067,0.000240146812 21.5816898,0.000240146812 C29.3101974,0.000240146812 34.8392926,0.652238743 40.7783055,2.77033363 C50.538423,6.35692627 57.4518895,14.9938064 57.4518895,27.1344285 C57.4518895,36.1795582 52.9787521,45.4696376 42.8938167,50.601575 C37.117812,53.536169 30.1216428,54.5135666 22.7215488,54.5135666 C17.758188,54.5135666 13.9358848,54.0248678 10.9262256,54.0248678 C7.83506228,54.0248678 4.17576733,54.105317 0.596777908,54.2686168 C-0.0540564042,53.9432179 -0.136759107,52.4771216 0.433769683,51.9055722 L2.22326439,51.6606224 C6.04556757,51.1731244 6.77790599,50.9281747 6.77790599,42.2900938 L6.77790599,12.4674619 Z"/>
    <path d="M69.302228,13.5269897 C68.5710881,12.5495921 68.5710881,9.53454889 69.302228,8.63760055 L87.6861998,8.63760055 C88.4173396,9.53454889 88.4173396,12.5495921 87.6861998,13.5269897 L69.302228,13.5269897 Z" opacity=".6"/>
    <path d="M78.9002961 23.8751559C82.3977814 23.8751559 84.2687803 26.2394013 84.2687803 29.1715939 84.2687803 29.9040417 83.9439624 30.5560403 83.4561363 30.8826399 82.8868061 31.2080389 81.8284512 31.4541893 79.4708249 31.4541893L72.0683337 31.4541893C71.091483 31.4541893 70.9296733 31.2080389 70.9296733 30.8826399 70.9296733 29.1715939 73.4515065 23.8751559 78.9002961 23.8751559M90.3696028 44.8988086C88.498604 47.9138519 85.8149612 48.9728993 82.5619882 48.9728993 75.3225053 48.9728993 70.2800376 43.1061127 70.2800376 35.772029 70.2800376 34.7946315 70.4406486 34.7117809 71.9868296 34.7117809L86.0594736 34.7117809C89.3124465 34.7117809 91.1834454 34.3875827 91.6712714 33.6539341 91.9960893 33.0019356 92.0775934 32.5120361 92.0775934 31.7795883 92.0775934 24.6904544 85.8952667 20.7796635 79.8771469 20.7796635 68.978369 20.7796635 62.7133396 29.6602927 62.7133396 38.8675214 62.7133396 48.1576009 68.978369 55.1650849 78.41247 55.1650849 83.3746322 55.1650849 89.3939506 52.7203903 92.1602961 46.2028058 92.0775934 45.4691573 91.1834454 44.6538589 90.3696028 44.8988086M99.910738 32.3494567C99.910738 28.6824148 99.910738 27.7050173 97.8767309 26.48267L96.9010787 25.9135221C96.6565664 25.5869224 96.6565664 24.4450243 96.9825828 24.0379755 100.561572 23.060578 104.953206 21.1045822 107.556543 19.6384859 108.125873 19.6384859 108.450691 19.9650855 108.613699 20.2904845 108.450691 21.8382307 108.450691 23.3859769 108.450691 24.0379755 108.450691 24.6095249 108.695203 24.771624 109.183029 24.8532739 113.169539 22.7339783 115.282653 20.7791832 120.814146 20.7791832 124.311631 20.7791832 126.996472 22.6535291 128.136331 24.2012753 128.622959 24.9349238 129.110785 25.4224219 129.436801 25.4224219 129.761619 25.4224219 130.249445 25.1786728 131.226296 24.6095249 135.048599 22.2452795 137.814945 20.7791832 141.637248 20.7791832 148.470409 20.7791832 151.561572 25.3419727 151.561572 31.6974581L151.561572 44.3279797C151.561572 50.3568654 151.88639 51.2550145 154.651537 51.6608626L156.441032 51.9058123C157.172172 52.4773617 156.767048 53.9422573 156.441032 54.268857 152.943546 54.1055571 150.177201 54.025108 147.16874 54.025108 144.483899 54.025108 141.719951 54.1055571 138.790597 54.268857 138.140961 53.9422573 138.058259 52.4773617 138.628787 51.9058123L139.930456 51.6608626C142.694404 51.1733646 143.020421 50.3568654 143.020421 44.3279797L143.020421 33.246405C143.020421 28.9261639 141.555744 25.6685723 136.432971 25.6685723 134.072947 25.6685723 131.957436 26.8909196 130.981784 28.1132669 130.167941 29.0906644 130.006132 30.0680619 130.006132 32.3494567L130.006132 44.3279797C130.006132 50.3568654 130.332148 51.3366644 133.096096 51.7425125L134.317459 51.9058123C134.88679 52.4773617 134.805286 53.9422573 134.154451 54.268857 131.3078 54.1055571 128.622959 54.025108 125.6133 54.025108 122.929657 54.025108 120.163311 54.1055571 117.479669 54.268857 116.828834 53.9422573 116.748529 52.4773617 117.31666 51.9058123L118.373817 51.7425125C121.140162 51.3366644 121.46498 50.3568654 121.46498 44.3279797L121.46498 33.246405C121.46498 28.9261639 120.001502 25.6685723 115.282653 25.6685723 112.518705 25.6685723 110.403194 26.9713688 109.509046 28.1937161 108.532195 29.4977133 108.450691 30.230161 108.450691 33.4097048L108.450691 44.3279797C108.450691 50.3568654 108.775509 51.3366644 111.541854 51.7425125L112.762019 51.9058123C113.331349 52.4773617 113.249845 53.9422573 112.599011 54.268857 109.75236 54.1055571 106.986014 54.025108 103.977553 54.025108 101.292712 54.025108 98.6090693 54.1055571 95.517906 54.268857 94.8670717 53.9422573 94.7867662 52.4773617 95.3548978 51.9058123L96.8195746 51.6608626C99.5859201 51.1733646 99.910738 50.3568654 99.910738 44.3279797L99.910738 32.3494567zM176.635713 51.9059324C182.24871 51.9059324 183.875196 45.2250481 183.875196 38.9500119 183.875196 32.1058277 181.516371 24.0380956 175.497053 24.0380956 171.349932 24.0380956 168.094562 28.2754861 168.094562 37.3206158 168.094562 44.7351486 170.779403 51.9059324 176.635713 51.9059324M193.473504 37.5643648C193.473504 49.1346382 185.339873 55.1647247 175.66126 55.1647247 166.306266 55.1647247 158.496254 49.2174888 158.496254 38.5417623 158.496254 27.6222867 166.792893 20.7793033 176.310895 20.7793033 185.501683 20.7793033 193.473504 26.9714889 193.473504 37.5643648M198.922054 52.557931C198.108212 51.0101848 197.620385 46.8532435 197.784592 43.3495015 198.27122 42.6987036 199.492583 42.6170537 200.060714 43.1862016 201.525391 47.7513926 204.535051 52.0692322 208.84518 52.0692322 211.368212 52.0692322 213.40102 50.3569855 213.40102 47.5064428 213.40102 44.4901988 210.716179 42.5354038 207.869528 41.1497567 203.640902 39.1133117 199.246872 36.0982685 199.246872 30.8822797 199.166566 24.5267943 204.615356 20.7793033 211.368212 20.7793033 214.70149 20.7793033 217.792653 21.7567008 218.931314 22.4086994 219.745156 24.1197455 220.151478 26.6460899 220.151478 30.3131318 219.908165 30.9651304 218.523793 31.2088794 217.955662 30.7201806 216.735497 26.9714889 214.13216 23.8747957 210.960691 23.8747957 208.357354 23.8747957 206.404851 25.7491416 206.404851 28.113387 206.404851 30.4752309 208.764874 32.1862769 211.854839 33.6535739 216.247671 35.7728695 220.883817 38.5417623 220.883817 44.9788976 220.883817 52.0692322 214.621184 55.1647247 208.194345 55.1647247 204.859868 55.1647247 201.525391 54.5139268 198.922054 52.557931"/>
  </g>
</svg>
