<svg xmlns="http://www.w3.org/2000/svg" width="293" height="43" viewBox="0 0 293 43">
  <g fill="#002F54" fill-rule="evenodd">
    <g opacity=".5" transform="translate(0 14)">
      <path d="M25.7917476 13.4755011L3.81537631 13.4755011C3.75560141 13.9619071 3.72441451 14.4431659 3.72441451 14.9244246 3.72441451 18.0255841 4.8367474 20.650632 7.05881427 22.8021419 9.28348005 24.9536517 11.9109767 26.0294066 14.943903 26.0294066 18.4810177 26.0294066 21.940165 24.6499697 25.3135484 21.8885222L25.3135484 25.2418922C22.1220886 27.7048048 18.5459904 28.9324007 14.5852536 28.9324007 10.5673409 28.9324007 7.24073787 27.5452431 4.61843907 24.7709278 1.98834355 21.9966125.675894692 18.4656657.675894692 14.1832346.675894692 10.1195576 1.88958502 6.75846687 4.31176786 4.09224176 6.73395069 1.42344309 9.78506941.0929041113 13.4599262.0929041113 16.9138758.0929041113 19.8324502 1.29733784 22.2156494 3.69591101 24.5988486 6.09705774 25.7917476 9.35777898 25.7917476 13.4755011M4.21041042 11.1078109L22.2676275 11.1078109C21.2124706 5.70072699 18.273105 2.99847181 13.4495306 2.99847181 11.1676888 2.99847181 9.19251825 3.70363174 7.52921673 5.12167231 5.86071739 6.54228645 4.75618123 8.53423455 4.21041042 11.1078109M51.5170446 1.45715694L51.5170446 4.71273102C48.8505644 3.57006312 46.4335794 2.9961556 44.2738863 2.9961556 41.1629927 2.9961556 38.6290568 4.07191051 36.6798753 6.22342034 34.7306938 8.3723566 33.7561031 11.1621134 33.7561031 14.6055585 33.7561031 18.1030488 34.7306938 20.8825113 36.6824742 22.9413723 38.6368535 25.0002334 41.2539545 26.0322375 44.5311782 26.0322375 46.9169764 26.0322375 49.4249232 25.4969337 52.0550187 24.431473L52.0550187 27.5120439C49.2637908 28.45912 46.672679 28.9326581 44.2842819 28.9326581 40.1935998 28.9326581 36.887788 27.6458699 34.3668466 25.0722936 31.8485042 22.4987172 30.5854346 19.1196114 30.5854346 14.9349763 30.5854346 10.5727644 31.8588998 7.00836113 34.3928357 4.24176655 36.9345683 1.47774555 40.1728085.093161469 44.1153529.093161469 46.2776448.093161469 48.7492069.546110907 51.5170446 1.45715694M70.7853532.0949629724C74.8396506.0949629724 78.2182318 1.47182632 80.9262946 4.22555302 83.6317585 6.98185329 84.9883888 10.4227249 84.9883888 14.5430206 84.9883888 18.6504485 83.6317585 22.0707315 80.9262946 24.8141638 78.2182318 27.5627434 74.8396506 28.9344596 70.7853532 28.9344596 66.7284568 28.9344596 63.3394799 27.5627434 60.6106259 24.8141638 57.8843707 22.0707315 56.5225426 18.6504485 56.5225426 14.5430206 56.5225426 10.4227249 57.8843707 6.98185329 60.6106259 4.22555302 63.3394799 1.47182632 66.7284568.0949629724 70.7853532.0949629724M70.7853532 26.0314655C73.9248348 26.0314655 76.5497325 24.9402691 78.6548485 22.7604499 80.7651623 20.5806307 81.8177203 17.8397719 81.8177203 14.5430206 81.8177203 11.2694315 80.7599644 8.52342553 78.639255 6.31272344 76.5263423 4.10202135 73.9066424 2.9979571 70.7853532 2.9979571 67.6224814 2.9979571 64.9845891 4.09172705 62.8690775 6.28184053 60.750967 8.47452758 59.6880133 11.2282543 59.6880133 14.5430206 59.6880133 17.8397719 60.750967 20.5806307 62.8690775 22.7604499 64.9845891 24.9402691 67.6224814 26.0314655 70.7853532 26.0314655"/>
    </g>
    <path d="M107.443479.000514715271L87.8373124 42.3435665 91.2808663 42.3435665 97.9522648 27.8311694 118.688957 27.8311694 125.362954 42.3435665 128.80131 42.3435665 109.257517.000514715271 107.443479.000514715271zM108.319311 5.29436127L117.436283 25.1108992 99.2049387 25.1108992 108.319311 5.29436127zM135.77834 14.6855987L135.77834 19.5213487 135.900489 19.5213487C138.164138 15.9029004 141.132092 14.0936762 144.788756 14.0936762 149.056164 14.0936762 152.060503 16.3146726 153.801772 20.7540918 156.431867 16.3146726 159.672706 14.0936762 163.52169 14.0936762 166.419473 14.0936762 168.758491 15.1179596 170.538743 17.1665264 172.326792 19.2150931 173.215619 21.9353633 173.215619 25.327337L173.215619 42.3412502 170.224275 42.3412502 170.224275 26.6295666C170.224275 23.6364973 169.584944 21.2842485 168.314077 19.5676731 167.035414 17.8510977 165.244766 16.9940967 162.936935 16.9940967 161.216458 16.9940967 159.716888 17.508812 158.446021 18.5305218 157.167358 19.5522316 155.854909 21.1941733 154.49568 23.4614941L154.49568 42.3412502 151.509534 42.3412502 151.509534 26.5703743C151.509534 23.4975242 150.844213 21.1349811 149.516171 19.4775979 148.190728 17.8227883 146.413074 16.9940967 144.188409 16.9940967 140.950168 16.9940967 138.145946 18.9706034 135.77834 22.9184695L135.77834 42.3412502 132.789595 42.3412502 132.789595 14.6855987 135.77834 14.6855987zM204.662153 27.4755011L182.685782 27.4755011C182.623408 27.9619071 182.59482 28.4431659 182.59482 28.9244246 182.59482 32.0255841 183.707153 34.650632 185.931819 36.8021419 188.151287 38.9536517 190.778783 40.0294066 193.809111 40.0294066 197.351423 40.0294066 200.807972 38.6499697 204.181355 35.8885222L204.181355 39.2418922C200.992494 41.7048048 197.416396 42.9324007 193.455659 42.9324007 189.435148 42.9324007 186.108545 41.5452431 183.483647 38.7709278 180.858749 35.9966125 179.5463 32.4656657 179.5463 28.1832346 179.5463 24.1195576 180.757392 20.7584669 183.179575 18.0922418 185.604356 15.4234431 188.652876 14.0929041 192.330332 14.0929041 195.784282 14.0929041 198.702856 15.2973378 201.088654 17.695911 203.469254 20.0970577 204.662153 23.357779 204.662153 27.4755011M183.080816 25.1078109L201.135434 25.1078109C200.082876 19.700727 197.143511 16.9984718 192.319936 16.9984718 190.038095 16.9984718 188.060325 17.7036317 186.399622 19.1216723 184.733722 20.5422865 183.623988 22.5342346 183.080816 25.1078109M229.968506 17.3873392L228.240232 20.1333452C225.914209 18.0436012 224.050791 16.9961556 222.639584 16.9961556 219.845757 16.9961556 216.872606 19.6469392 213.699338 24.9433594L213.699338 42.3433091 210.710593 42.3433091 210.710593 14.685084 213.699338 14.685084 213.699338 21.9657315 213.821487 21.9657315C217.153288 16.7182093 220.401924 14.095735 223.57779 14.095735 225.391828 14.095735 227.522933 15.189505 229.968506 17.3873392M233.450524 5.3846938L236.439269 5.3846938 236.439269.350778457 233.450524.350778457 233.450524 5.3846938zM233.450524 42.3438238L236.439269 42.3438238 236.439269 14.6881723 233.450524 14.6881723 233.450524 42.3438238zM264.335694 15.4571569L264.335694 18.712731C261.669214 17.5700631 259.254828 16.9961556 257.092536 16.9961556 253.984241 16.9961556 251.450305 18.0719105 249.501124 20.2234203 247.551942 22.3723566 246.574753 25.1621134 246.574753 28.6055585 246.574753 32.1030488 247.551942 34.8825113 249.506322 36.9413723 251.455503 39.0002334 254.072604 40.0322375 257.349828 40.0322375 259.735626 40.0322375 262.243573 39.4969337 264.876267 38.431473L264.876267 41.5120439C262.079842 42.45912 259.491329 42.9326581 257.102932 42.9326581 253.00965 42.9326581 249.706438 41.6458699 247.188095 39.0722936 244.664555 36.4987172 243.406683 33.1196114 243.406683 28.9349763 243.406683 24.5727644 244.677549 21.0083611 247.214084 18.2417666 249.750619 15.4777455 252.991458 14.0931615 256.936601 14.0931615 259.098893 14.0931615 261.567857 14.5461109 264.335694 15.4571569M292.903158 37.6040682L292.903158 40.0592601C290.330238 41.9714273 288.448628 42.9313713 287.25313 42.9313713 286.561821 42.9313713 286.088819 42.7048966 285.82633 42.2596679 285.561241 41.809292 285.368922 40.8930988 285.249372 39.5136619 282.315204 41.7938505 279.401827 42.9313713 276.504044 42.9313713 274.401527 42.9313713 272.623874 42.2493736 271.165886 40.8802309 269.710497 39.5136619 268.980204 37.8537052 268.980204 35.9029343 268.980204 32.8815556 270.388812 30.5009975 273.198233 28.7638335 276.012851 27.0266694 280.028164 26.0204011 285.249372 25.7578963L285.249372 22.2372438C285.249372 18.4643809 283.185838 16.5830966 279.06137 16.5830966 276.431275 16.5830966 273.590668 17.7437795 270.53695 20.0728661L270.53695 17.0411932C273.684228 15.0775544 276.688567 14.0918747 279.53957 14.0918747 282.065709 14.0918747 284.147435 14.7121066 285.782148 15.9499968 287.422059 17.1827399 288.238117 18.9816698 288.238117 21.3339185L288.238117 38.6154838C288.238117 39.5599863 288.461623 40.0283772 288.908635 40.0283772 289.477796 40.0283772 290.811036 39.2254213 292.903158 37.6040682M285.249372 36.9272177L285.249372 28.2465446C281.428976 28.1075715 278.260907 28.7767014 275.742564 30.2565078 273.232018 31.7363142 271.974147 33.6227456 271.974147 35.9183757 271.974147 37.2051639 272.499126 38.2912131 273.549085 39.1739498 274.599044 40.0644072 275.914092 40.5070624 277.489031 40.5070624 280.035961 40.5070624 282.619276 39.3154965 285.249372 36.9272177"/>
  </g>
</svg>