<svg xmlns="http://www.w3.org/2000/svg" width="262" height="80" viewBox="0 0 262 80">
  <g fill="#002F54" fill-rule="evenodd">
    <path d="M5.99133215 2.39275701C5.99133215 1.67926402 5.50688552 1.67926402 4.94648751 1.67926402L4.94648751 1.39918224C5.53972936 1.39918224 6.14734039 1.44620327 6.74058224 1.44620327 7.34819328 1.44620327 7.95580431 1.39918224 8.54904616 1.39918224L8.54904616 1.67926402C7.97222623 1.67926402 7.50420151 1.67926402 7.50420151 2.39275701L7.50420151 6.27505841C7.50420151 6.99059579 7.97222623 6.99059579 8.54904616 6.99059579L8.54904616 7.26863318C7.95580431 7.26863318 7.34819328 7.22365654 6.74058224 7.22365654 6.14734039 7.22365654 5.53972936 7.26863318 4.94648751 7.26863318L4.94648751 6.99059579C5.50688552 6.99059579 5.99133215 6.99059579 5.99133215 6.27505841L5.99133215 2.39275701zM22.4904349 1.52327687C22.4904349 2.17543808 22.1004144 2.73560164 21.2279999 3.20172313 22.474013 4.03992407 22.7552384 4.75341706 22.7552384 5.3442465 22.7552384 6.09044977 22.1784185 7.34775117 20.0415162 7.34775117 18.2966872 7.34775117 17.6254412 6.32351051 17.6254412 5.5609521 17.6254412 4.97012266 18.0462529 4.25662967 19.2163147 3.65148949 18.4978557 3.10768107 18.1386262 2.45551986 18.1386262 1.9260222 18.1386262.607389019 19.419536.000204439252 20.4171676.000204439252 21.913615.000204439252 22.4904349.963113318 22.4904349 1.52327687M18.4978557 5.46895444C18.4978557 6.12111565 18.8878763 6.91229556 20.1051511 6.91229556 21.242369 6.91229556 21.6180205 6.33782126 21.6180205 5.85738902 21.6180205 5.11118575 20.5567539 4.52035631 19.6063353 3.93157126 18.8878763 4.3036507 18.4978557 4.878125 18.4978557 5.46895444M19.2471058 1.36790304C19.2471058 1.80335864 19.5283312 2.1447722 20.7743443 2.89097547 21.353217 2.67222547 21.6323896 2.23881425 21.6323896 1.61731893 21.6323896.94880257 21.1643649.435660047 20.3863765.435660047 19.6987086.435660047 19.2471058.840449766 19.2471058 1.36790304M36.5408242 1.52327687C36.5408242 2.17543808 36.1508036 2.73560164 35.2783891 3.20172313 36.5264551 4.03992407 36.8056277 4.75341706 36.8056277 5.3442465 36.8056277 6.09044977 36.2288078 7.34775117 34.0919054 7.34775117 32.3470765 7.34775117 31.6758305 6.32351051 31.6758305 5.5609521 31.6758305 4.97012266 32.0966422 4.25662967 33.266704 3.65148949 32.548245 3.10768107 32.1910682 2.45551986 32.1910682 1.9260222 32.1910682.607389019 33.4699252.000204439252 34.4675569.000204439252 35.9640043.000204439252 36.5408242.963113318 36.5408242 1.52327687M32.548245 5.46895444C32.548245 6.12111565 32.9382656 6.91229556 34.1555404 6.91229556 35.2927583 6.91229556 35.6684097 6.33782126 35.6684097 5.85738902 35.6684097 5.11118575 34.6071432 4.52035631 33.6567246 3.93157126 32.9382656 4.3036507 32.548245 4.878125 32.548245 5.46895444M33.2974951 1.36790304C33.2974951 1.80335864 33.5787205 2.1447722 34.8247336 2.89097547 35.4036063 2.67222547 35.6827789 2.23881425 35.6827789 1.61731893 35.6827789.94880257 35.2147542.435660047 34.4367658.435660047 33.7490979.435660047 33.2974951.840449766 33.2974951 1.36790304M50.9180097 4.31837033C50.9180097 5.88641939 49.9203781 7.34611565 48.2042875 7.34611565 46.4902496 7.34611565 45.6014132 5.84144276 45.6014132 4.36539136 45.6014132 2.84231893 46.5990448 1.27426986 48.2207094 1.27426986 49.6863657 1.27426986 50.9180097 2.29851051 50.9180097 4.31837033M47.1450736 3.83793808C47.1450736 4.62911799 47.3010819 6.91270444 48.3767176 6.91270444 48.9371156 6.91270444 49.3743493 6.50791472 49.3743493 5.00119743 49.3743493 3.38612734 49.1095458 1.70972547 48.0954923 1.70972547 47.3934552 1.70972547 47.1450736 2.50090537 47.1450736 3.83793808M49.1048245 22.6819217L8.07465795 40.042903C8.74385118 42.4103096 9.53415607 44.7266063 10.5707898 46.938639 14.4443101 55.2020736 21.5673178 60.2415012 29.7885414 60.9406834 33.7277494 61.2759638 37.9194444 60.615625 42.1234559 58.8349591 48.6634854 56.068896 53.000925 51.4649241 54.8114416 44.3483937 55.5093732 40.8463493 55.913763 37.0253797 55.913763 32.834375 55.913763 27.5884638 56.0020308 22.277132 56.0020308 15.3670853 50.6669596 14.6127044 43.835441 14.1547605 36.5707942 13.9666764 41.2797797 15.3854848 45.58027 18.2292348 49.1048245 22.6819217"/>
    <path d="M7.67724749,37.0026869 L34.5660884,25.701285 C30.9655825,19.273715 24.0642707,15.2830607 16.1016923,18.6501752 C8.14116673,22.0193341 7.00394878,29.6162967 7.67724749,37.0026869"/>
    <path d="M.112695424 33.8222255C2.24959773 26.0780666 7.79610114 19.2354848 16.1815439 15.6884638 17.8750544 14.970882 19.5767758 14.4025409 21.2743918 13.9568633 13.4123977 14.142903 5.8891057 14.6212909-.000205273996 15.3674942-.000205273996 21.8114194.0860098048 27.5888727.0860098048 32.8082068.0860098048 33.1537091.106537205 33.4828563.112695424 33.8222255M36.9016959 67.1304907C25.2872932 70.0110397 15.3089242 67.408528 8.51024937 61.5860981 16.7294202 73.5989486 28.0010154 78.0046145 28.0010154 78.0046145 28.0010154 78.0046145 39.2479777 73.9689836 47.4630431 62.0256425 44.4619372 64.3603388 40.9024861 66.1389603 36.9016959 67.1304907M96.2517456 39.3725467L97.3048012 39.3725467 95.1350551 45.1336449C91.7541923 45.0804907 88.1187898 44.9864486 84.7256107 44.9864486 84.1405798 44.9864486 77.0114139 45.1316005 74.6199718 45.1316005L74.4619108 45.1316005 74.4619108 44.0398949 75.5478103 44.0398949C77.5328098 44.0398949 77.9289886 43.6064836 77.9289886 41.1348131L77.9289886 20.2717874C77.9289886 17.8001168 77.5328098 17.3646612 75.5478103 17.3646612L74.4126451 17.3646612 74.4126451 16.2198014C78.407277 16.3301986 82.5332844 16.3710864 86.5299691 16.3710864 89.3996996 16.3710864 92.2612191 16.3179322 95.1288968 16.2198014L95.3362236 22.228271 94.2934317 22.228271C94.0799467 19.0799065 93.6652932 17.6570093 90.2905887 17.6570093L81.8086672 17.6570093 81.8086672 29.3059579 89.8985154 29.3059579C92.0682616 29.3059579 92.3679616 28.0118575 92.4849678 26.0962617L93.5236542 26.0962617 93.5236542 34.3862734 92.4808623 34.3862734C92.4028582 32.2764603 91.8629876 30.5448598 89.4099633 30.5448598L81.8086672 30.5448598 81.8086672 41.5232477C81.8086672 43.1873832 82.3711179 43.7495911 84.0420483 43.7495911L90.7770881 43.7495911C93.9629405 43.7495911 94.7614564 42.0220794 96.2517456 39.3725467M101.488696 44.1271904C103.389533 44.1271904 105.302687 44.067903 105.382744 41.8006717L105.7625 24.9507886C105.803555 22.0457068 104.894191 21.0766647 102.164047 21.0766647L101.246473 21.0766647 101.246473 20.0892231 101.449694 20.0912675C102.502749 20.1321554 103.516803 20.2159755 104.526751 20.2159755 105.663969 20.2159755 106.762185 20.1321554 107.856295 20.0912675L108.00204 20.0892231 117.680709 40.7784755 125.940934 20.0871787C127.182842 20.130111 128.430908 20.2159755 129.674868 20.2159755 130.922934 20.2159755 132.171 20.1280666 133.419066 20.0851343L133.419066 21.0766647 132.628761 21.0766647C130.526755 21.0766647 129.705659 21.7942465 129.705659 23.3132301L130.042309 41.5921437C130.083364 43.6488026 130.561652 44.1271904 132.669816 44.1271904L133.460121 44.1271904 133.460121 45.1166764C131.850773 45.0737442 130.233214 44.9878797 128.61976 44.9878797 126.809243 44.9878797 124.996674 45.0737442 123.18821 45.1166764L123.18821 44.1271904 123.980568 44.1271904C126.000464 44.1271904 126.770241 43.48934 126.731239 42.0194217L126.406906 22.5854264 117.206526 45.5337325 116.241738 45.5337325 107.033146 25.9239194 106.708814 41.8947138C106.630809 43.6958236 107.141942 44.1271904 109.631915 44.1271904L110.506383 44.1271904 110.506383 45.1187208C109.022252 45.0737442 107.531962 44.9878797 106.045779 44.9878797 104.502118 44.9878797 102.864032 45.0614778 101.330635 45.1187208L101.330635 44.1271904 101.488696 44.1271904zM157.629492 40.0921729L158.581963 40.0921729 156.69139 45.1132009C153.78471 45.0682243 150.7056 44.9864486 147.790709 44.9864486 147.283682 44.9864486 141.12341 45.1132009 139.056301 45.1132009L138.89824 45.1132009 138.89824 44.1257593 139.856869 44.1257593C141.558591 44.1257593 141.89524 43.7639019 141.89524 41.6356893L141.89524 23.608236C141.89524 21.4800234 141.558591 21.1181659 139.856869 21.1181659L138.855132 21.1181659 138.855132 20.0857477C142.004035 20.1716121 145.148833 20.2145444 148.297736 20.2145444 151.070988 20.2145444 153.918138 20.1797897 156.69139 20.0837033L156.872031 25.3193925 155.929823 25.3193925C155.745077 22.6044393 155.408427 21.3696262 152.489431 21.3696262L145.290472 21.3696262 145.290472 31.3932827 152.152782 31.3932827C154.026933 31.3932827 154.262998 30.2688668 154.365635 28.6190421L155.30579 28.6190421 155.30579 35.8255257 154.363583 35.8255257C154.295842 34.0101051 153.850398 32.5054322 151.729917 32.5054322L145.290472 32.5054322 145.290472 41.9709696C145.290472 43.3979556 145.766708 43.8742991 147.19952 43.8742991L152.912295 43.8742991C155.658861 43.8742991 156.342424 42.3798481 157.629492 40.0921729M204.17496 20.1744743L204.355601 25.5430491 203.452396 25.4776285C203.2307 22.167757 201.344232 20.6569509 198.074217 20.6569509 194.828835 20.6569509 192.745304 22.3026869 192.745304 24.7007593 192.745304 26.7390187 194.126798 28.1721379 198.480659 30.2328855 201.859469 31.8479556 205.406604 33.6838201 205.406604 38.022021 205.406604 42.3316005 201.769149 45.4492991 196.891839 45.4492991 195.70125 45.4492991 194.63793 45.3225467 193.106586 45.0261098 192.700144 44.9463785 192.244435 44.8196262 191.827729 44.8196262 191.53624 44.8196262 191.062057 44.9341121 190.838309 45.1549065L190.179379 45.1549065 189.202275 39.6820678 190.111639 39.3794977C191.244751 42.6443925 193.240014 44.4639019 196.807676 44.4639019 200.375338 44.4639019 202.725726 42.4501752 202.725726 39.4939836 202.725726 37.2431075 201.508451 35.9367407 196.988318 33.6654206 192.784306 31.5310748 190.025424 29.8096963 190.025424 26.0459696 190.025424 22.235222 193.205118 19.6695093 197.735515 19.6695093 198.800887 19.6695093 199.736936 19.7962617 201.184118 20.0926986 201.71783 20.1949182 202.29465 20.3421145 202.842732 20.3421145 203.099324 20.3421145 203.421605 20.2521612 203.659722 20.1744743L204.17496 20.1744743zM233.378265 32.6015187C233.378265 25.2089953 227.952874 19.5848715 220.815497 19.5848715 212.425948 19.5848715 208.714595 26.7954439 208.714595 32.4747664 208.714595 39.2744159 213.754071 45.4484813 221.575011 45.4484813 228.172517 45.4484813 233.378265 39.7773364 233.378265 32.6015187M229.519114 32.6015187C229.519114 40.1146612 227.671648 44.5060164 221.361526 44.5060164 213.639118 44.5060164 212.577851 36.8681659 212.577851 32.5585864 212.577851 22.9867407 215.702121 20.5723131 220.940714 20.5723131 228.037036 20.5723131 229.519114 27.1266355 229.519114 32.6015187M236.990677 44.1271904C238.288009 44.1271904 239.281535 43.0722839 239.281535 41.7229848L238.944886 23.125146C237.218531 21.2463493 236.869565 21.0766647 235.303325 21.0766647L235.145264 21.0766647 235.145264 20.0892231 235.348485 20.0912675C236.233216 20.1321554 237.117947 20.2159755 238.002678 20.2159755 238.89562 20.2159755 239.979467 20.1403329 240.858039 20.0851343L257.165006 39.3923773 256.959732 23.8631717C256.918677 21.8453563 256.142741 21.0766647 254.1639 21.0766647L253.162163 21.0766647 253.162163 20.0851343C254.547762 20.1280666 255.93952 20.2159755 257.329225 20.2159755 258.647084 20.2159755 259.964943 20.1280666 261.282802 20.0851343L261.282802 21.0766647 260.36728 21.0766647C258.963206 21.0766647 258.244747 21.7329147 258.244747 23.0188376L258.542394 45.4499124 257.930678 45.4499124 240.320221 24.552132 240.56655 41.7597839C240.605552 43.4341414 241.332222 44.1271904 243.107842 44.1271904L244.573499 44.1271904 244.573499 45.1166764 244.413385 45.1125876C242.262113 45.0716998 240.788246 44.9878797 240.240165 44.9878797 238.862776 44.9878797 237.255481 45.0880549 235.904778 45.1166764L235.904778 44.1271904 236.990677 44.1271904zM187.285837 45.0475759L187.285837 44.1684871 185.781178 44.1684871C184.407895 44.1684871 183.436949 43.657389 182.320259 42.1322722 181.772177 41.375847 179.793336 38.3542348 177.810389 35.2488026L175.82539 32.1024825C179.07693 30.0294685 180.322943 28.3203563 180.322943 25.8773072 180.322943 22.0093166 176.911289 19.5846671 171.68296 19.5846671 169.188881 19.6398657 165.598639 19.8831484 163.174353 20.146875L163.174353 21.1179614 164.174037 21.1179614C165.875759 21.1179614 166.210355 21.4798189 166.210355 23.6080315L166.210355 41.6354848C166.210355 43.761653 165.875759 44.1255549 164.135035 44.1255549L163.215408 44.1255549 163.215408 45.1170853C164.915077 45.074153 166.614745 44.9862442 168.310308 44.9862442 169.880655 44.9862442 171.453053 45.074153 173.025452 45.1170853L173.025452 44.1255549 171.643958 44.1255549C169.944289 44.1255549 169.60764 43.7636974 169.60764 41.6354848L169.60764 33.0878797C170.024346 33.0613026 170.960396 32.9672605 171.177986 32.9672605 172.538953 32.9672605 172.863286 33.3781834 172.906393 33.4456484 173.201988 33.8647488 175.267044 37.3483937 176.44737 39.3212325L177.584588 41.2122956C178.114195 42.0872956 178.537059 42.7885222 178.916816 43.3486857 180.056087 45.0209988 180.834075 45.4912091 182.993557 45.4912091 184.409948 45.4912091 185.892026 45.2704147 187.285837 45.0475759M171.557743 32.0247956C170.931657 32.0247956 170.305572 31.9879965 169.60764 31.8796437L169.60764 20.6354848C170.174196 20.5598423 170.677118 20.4862442 171.177986 20.4862442 174.528058 20.4862442 176.506899 22.7861857 176.506899 26.7604848 176.506899 30.4240362 175.008399 32.0247956 171.557743 32.0247956M128.139419 78.246875C129.855509 78.246875 130.183948 77.8870619 130.183948 75.7976928L130.183948 58.0707652C130.183948 55.9773072 129.853457 55.6215829 128.180474 55.6215829L127.154104 55.6215829 127.154104 54.6055199C128.767557 54.6484521 130.385116 54.7343166 131.99857 54.7343166 133.612024 54.7343166 135.22753 54.6484521 136.838931 54.6055199L136.838931 55.6215829 135.566232 55.6215829C133.850141 55.6215829 133.521703 55.9793516 133.521703 58.0707652L133.521703 76.5418516C133.521703 77.5926694 133.926093 77.9565713 135.192633 77.9565713L138.776717 77.9565713C141.638237 77.9565713 142.492177 76.6747371 143.701241 74.1969334L144.649606 74.1969334 142.615341 79.2200058C140.326536 79.1361857 137.109893 79.0932535 134.819035 79.0932535 132.234635 79.0932535 129.652288 79.1361857 127.069941 79.2220502L127.069941 78.246875 128.139419 78.246875zM211.227148 70.8688668C209.511058 70.8688668 209.182619 71.2286799 209.182619 73.3180491L209.182619 79.073014C207.062139 79.3735397 204.576271 79.5473131 202.431158 79.5473131 190.344625 79.5473131 187.047924 71.9871495 187.047924 67.0785631 187.047924 63.7298481 188.478684 60.4261098 190.911181 57.9605724 193.602323 55.3233061 196.759437 54.1968458 201.601851 54.1968458 202.264886 54.1968458 205.541059 54.4033294 206.290309 54.4033294 206.924605 54.4033294 207.784703 54.4094626 208.421053 54.1968458L209.016347 54.1968458 209.016347 59.547021 208.053612 59.547021C207.994083 58.6863318 207.928395 57.7847547 207.443949 57.036507 206.743964 55.8773364 204.59064 55.1658879 201.476633 55.1658879 192.883864 55.1658879 190.884495 60.0131425 190.884495 66.8311916 190.884495 74.2727804 194.930446 78.5353388 202.057559 78.5353388 204.982713 78.5353388 205.844864 77.9915304 205.844864 76.7485397L205.844864 73.3180491C205.844864 71.2245911 205.514373 70.8688668 203.84139 70.8688668L202.026768 70.8688668 202.026768 69.895736C203.792124 69.9386682 205.561586 70.0224883 207.326942 70.0224883 208.983504 70.0224883 210.640065 69.9386682 212.294573 69.895736L212.294573 70.8688668 211.227148 70.8688668zM123.470462 66.9129673C123.470462 59.6431075 118.137443 54.1150701 111.117073 54.1150701 102.867111 54.1150701 99.2193918 61.202979 99.2193918 66.7882593 99.2193918 73.4754673 104.174706 79.5473131 111.86427 79.5473131 118.350928 79.5473131 123.470462 73.9681659 123.470462 66.9129673M119.674946 66.9129673C119.674946 74.3014019 117.858271 78.6191589 111.656943 78.6191589 104.059753 78.6191589 103.014908 71.1080607 103.014908 66.8720794 103.014908 57.4596963 106.089912 55.0841121 111.24229 55.0841121 118.221606 55.0841121 119.674946 61.5300818 119.674946 66.9129673M183.807879 74.1441881L184.745982 74.1441881 182.884146 79.0834404C180.02468 79.0364194 176.998941 78.9566881 174.133316 78.9566881 173.6345 78.9566881 167.576864 79.081396 165.544652 79.081396L165.386591 79.081396 165.386591 78.1103096 166.330851 78.1103096C168.003834 78.1103096 168.334326 77.7545853 168.334326 75.6631717L168.334326 57.9341998C168.334326 55.8427862 168.003834 55.4850175 166.330851 55.4850175L165.347589 55.4850175 165.347589 54.4709988C168.443121 54.5548189 171.534547 54.5997956 174.630079 54.5997956 177.35817 54.5997956 180.160161 54.5629965 182.886199 54.4689544L183.062735 59.6187792 182.136949 59.6187792C181.954255 56.9467582 181.623764 55.7344334 178.754034 55.7344334L171.674133 55.7344334 171.674133 65.5904498 178.42149 65.5904498C180.262798 65.5904498 180.500915 64.4844334 180.599447 62.8632301L181.52318 62.8632301 181.52318 69.9490946 180.595341 69.9490946C180.527601 68.16434 180.090367 66.6841998 178.006836 66.6841998L171.674133 66.6841998 171.674133 75.9923189C171.674133 77.3947722 172.142158 77.8629381 173.552391 77.8629381L179.166634 77.8629381C181.872146 77.8629381 182.543392 76.3930199 183.807879 74.1441881M231.822699 74.1441881L232.756696 74.1441881 230.901019 79.0834404C228.039499 79.0364194 225.013761 78.9566881 222.146083 78.9566881 221.64932 78.9566881 215.591684 79.081396 213.559471 79.081396L213.401411 79.081396 213.401411 78.1103096 214.345671 78.1103096C216.018654 78.1103096 216.349145 77.7545853 216.349145 75.6631717L216.349145 57.9341998C216.349145 55.8427862 216.018654 55.4850175 214.345671 55.4850175L213.362408 55.4850175 213.362408 54.4709988C216.45794 54.5548189 219.549367 54.5997956 222.642846 54.5997956 225.37299 54.5997956 228.17498 54.5629965 230.901019 54.4689544L231.077554 59.6187792 230.149716 59.6187792C229.969075 56.9467582 229.638584 55.7344334 226.7668 55.7344334L219.688953 55.7344334 219.688953 65.5904498 226.434257 65.5904498C228.277617 65.5904498 228.515735 64.4844334 228.614266 62.8632301L229.537999 62.8632301 229.537999 69.9490946 228.610161 69.9490946C228.542421 68.16434 228.105187 66.6841998 226.021656 66.6841998L219.688953 66.6841998 219.688953 75.9923189C219.688953 77.3947722 220.156978 77.8629381 221.56721 77.8629381L227.181454 77.8629381C229.884912 77.8629381 230.558211 76.3930199 231.822699 74.1441881M147.800768 78.246875C149.518911 78.246875 149.845297 77.8870619 149.845297 75.7976928L149.845297 58.0707652C149.845297 55.9773072 149.516858 55.6215829 147.843875 55.6215829L146.817505 55.6215829 146.817505 54.6055199C148.430959 54.6484521 150.048518 54.7343166 151.661971 54.7343166 153.275425 54.7343166 154.888879 54.6484521 156.502332 54.6055199L156.502332 55.6215829 155.227581 55.6215829C153.51149 55.6215829 153.183052 55.9793516 153.183052 58.0707652L153.183052 76.5418516C153.183052 77.5926694 153.589494 77.9565713 154.856035 77.9565713L158.442172 77.9565713C161.299586 77.9565713 162.153525 76.6747371 163.362589 74.1969334L164.310955 74.1969334 162.278743 79.2200058C159.987885 79.1361857 156.771241 79.0932535 154.482436 79.0932535 151.895984 79.0932535 149.31569 79.1361857 146.733343 79.2220502L146.733343 78.246875 147.800768 78.246875zM95.7716097 50.3552278L95.7716097 56.4700058 94.7411343 56.4700058C94.6774993 51.7924357 90.7834516 51.4326227 87.0433594 51.4326227 78.6640748 51.4326227 75.0594634 55.3783002 75.0594634 64.5167348 75.0594634 73.6122371 79.5816496 78.6577979 87.7166581 78.6577979 91.9063004 78.6577979 93.7209225 77.3289428 95.1701569 73.4282418L96.2108961 73.4282418 94.3860103 79.5348423C92.4010107 79.6677278 90.7362386 79.8312792 88.7286589 79.8312792 82.5889136 79.8312792 78.0133562 78.3388727 74.9383518 75.2273072 72.2595261 72.559375 70.7507622 68.7772488 70.7507622 64.8540596 70.7507622 59.330111 74.4046394 50.3552278 86.3680079 50.3552278 88.1497862 50.3552278 90.5576502 50.5944217 90.8963523 50.5944217 91.8262435 50.5944217 94.4291178 50.7129965 95.1968425 50.3552278L95.7716097 50.3552278z"/>
  </g>
</svg>
