<svg width="406" height="102" xmlns="http://www.w3.org/2000/svg"><defs><linearGradient x1="100%" y1="50%" x2="0%" y2="50%" id="a"><stop stop-color="#FFF" stop-opacity=".6" offset="0%"/><stop stop-color="#FFF" stop-opacity=".4" offset="100%"/></linearGradient></defs><g fill="none" fill-rule="evenodd"><path fill="#FFF" d="M.254 11.214v38.64H27.88v-2.595H3.109V31.694h22.026v-2.596H3.109v-15.29h24.497v-2.594zM32.44 11.213h2.69L61.66 44.83V11.213h2.746v38.64h-2.142L35.186 15.52v34.334h-2.747zM82.915 47.26c2.672 0 5.09-.434 7.25-1.302 2.16-.868 3.99-2.05 5.493-3.544a15.781 15.781 0 0 0 3.488-5.261c.824-2.013 1.235-4.182 1.235-6.509v-.11c0-2.289-.411-4.449-1.235-6.48a16.033 16.033 0 0 0-3.488-5.316c-1.502-1.515-3.333-2.714-5.493-3.6-2.16-.886-4.578-1.33-7.25-1.33h-9.941v33.451h9.941zM70.118 11.213h12.797c3.002 0 5.758.488 8.266 1.462 2.508.976 4.67 2.328 6.482 4.058a18.08 18.08 0 0 1 4.201 6.1c.99 2.337 1.483 4.866 1.483 7.59v.11c0 2.724-.494 5.263-1.483 7.617a17.992 17.992 0 0 1-4.201 6.127c-1.813 1.73-3.974 3.092-6.482 4.085-2.508.994-5.264 1.49-8.266 1.49H70.118v-38.64zM125.043 47.922c2.38 0 4.567-.45 6.564-1.353a15.819 15.819 0 0 0 5.163-3.698c1.446-1.564 2.572-3.395 3.378-5.492.804-2.098 1.208-4.342 1.208-6.735v-.11c0-2.392-.412-4.645-1.236-6.762-.824-2.116-1.96-3.955-3.405-5.52-1.447-1.564-3.177-2.806-5.19-3.726-2.015-.92-4.212-1.38-6.592-1.38s-4.568.451-6.563 1.352a15.811 15.811 0 0 0-5.163 3.699c-1.447 1.564-2.573 3.394-3.378 5.492-.806 2.098-1.208 4.343-1.208 6.734v.11c0 2.394.411 4.647 1.235 6.763.824 2.117 1.959 3.956 3.406 5.52 1.446 1.565 3.176 2.805 5.19 3.726 2.013.92 4.21 1.38 6.591 1.38m-.11 2.594c-2.93 0-5.575-.543-7.936-1.628-2.362-1.085-4.386-2.54-6.07-4.361-1.684-1.822-2.985-3.929-3.9-6.32-.915-2.392-1.372-4.913-1.372-7.563v-.11c0-2.65.466-5.18 1.4-7.59.934-2.41 2.243-4.535 3.927-6.376 1.684-1.84 3.716-3.302 6.097-4.388 2.38-1.085 5.034-1.629 7.964-1.629 2.892 0 5.529.544 7.91 1.629 2.38 1.086 4.411 2.539 6.096 4.36 1.684 1.822 2.984 3.93 3.9 6.321.915 2.393 1.373 4.913 1.373 7.562.036.038.036.074 0 .11 0 2.65-.467 5.181-1.4 7.59-.934 2.412-2.244 4.537-3.928 6.376-1.685 1.841-3.726 3.304-6.124 4.389-2.399 1.085-5.045 1.628-7.937 1.628M166.84 50.516c-2.746 0-5.291-.516-7.634-1.546-2.344-1.03-4.367-2.437-6.07-4.223-1.702-1.784-3.03-3.891-3.981-6.32-.953-2.429-1.428-5.023-1.428-7.783v-.11c0-2.723.484-5.3 1.455-7.729.97-2.428 2.307-4.554 4.01-6.375 1.702-1.822 3.725-3.257 6.069-4.306 2.343-1.049 4.906-1.573 7.69-1.573 1.72 0 3.276.148 4.668.442a18.11 18.11 0 0 1 3.872 1.27 20.33 20.33 0 0 1 3.35 1.959 32.164 32.164 0 0 1 3.05 2.511l-2.033 2.098a31.094 31.094 0 0 0-2.637-2.263 16.601 16.601 0 0 0-2.938-1.794 17.345 17.345 0 0 0-3.405-1.187c-1.228-.294-2.554-.442-3.982-.442-2.307 0-4.45.442-6.427 1.325a15.562 15.562 0 0 0-5.135 3.671c-1.447 1.565-2.582 3.395-3.406 5.492-.824 2.098-1.235 4.361-1.235 6.79v.11c0 2.43.42 4.702 1.263 6.818.842 2.116 1.985 3.956 3.433 5.52a15.884 15.884 0 0 0 5.135 3.698c1.977.902 4.12 1.352 6.426 1.352 2.783 0 5.2-.514 7.25-1.545 2.05-1.03 4.046-2.52 5.987-4.471l1.923 1.876a36.27 36.27 0 0 1-3.158 2.733 19.632 19.632 0 0 1-3.46 2.125 19.183 19.183 0 0 1-3.983 1.38c-1.428.331-2.985.497-4.668.497M201.168 31.251c1.611 0 3.104-.203 4.477-.608 1.373-.406 2.554-.988 3.542-1.745a8.266 8.266 0 0 0 2.335-2.77c.567-1.088.851-2.334.851-3.738v-.11c0-2.62-.961-4.687-2.883-6.202-1.923-1.513-4.642-2.27-8.157-2.27h-13.127v17.443h12.962zM185.35 11.214h16.148c2.38 0 4.485.34 6.316 1.02 1.83.682 3.332 1.611 4.504 2.788a9.971 9.971 0 0 1 2.142 3.23c.513 1.233.77 2.548.77 3.946v.11c0 1.62-.285 3.064-.852 4.334a9.84 9.84 0 0 1-2.362 3.284c-1.008.92-2.197 1.666-3.57 2.236-1.373.571-2.866.966-4.476 1.187l12.687 16.505h-3.625l-12.248-16.008h-12.578v16.008h-2.856v-38.64zM220.831 49.853h2.856v-38.64h-2.856zM230.882 11.213h2.69l26.531 33.617V11.213h2.744v38.64h-2.14L233.63 15.52v34.334h-2.747zM268.834 11.213h27.353v2.595H271.69v15.29h22.024v2.595h-22.024v15.566h24.772v2.594h-27.629zM100.436 96.006c-3.076 0-5.85-.516-8.321-1.546-2.472-1.03-4.86-2.575-7.168-4.637l1.868-2.153a27.217 27.217 0 0 0 3.158 2.567 17.788 17.788 0 0 0 3.213 1.767c1.099.46 2.252.81 3.46 1.048 1.209.24 2.527.36 3.955.36s2.746-.194 3.955-.58c1.208-.387 2.232-.92 3.075-1.601a7.41 7.41 0 0 0 1.978-2.429c.475-.938.714-1.96.714-3.064v-.11c0-1.03-.157-1.95-.467-2.76-.312-.809-.879-1.546-1.703-2.208-.824-.662-1.932-1.26-3.323-1.794-1.392-.533-3.185-1.021-5.382-1.463-2.307-.477-4.285-1.039-5.932-1.683-1.648-.644-2.994-1.398-4.037-2.264-1.044-.864-1.805-1.867-2.28-3.008-.476-1.14-.714-2.447-.714-3.92v-.11c0-1.435.31-2.768.934-4.002A10.154 10.154 0 0 1 90 59.187c1.099-.919 2.398-1.637 3.9-2.153 1.501-.514 3.149-.772 4.943-.772 2.782 0 5.19.386 7.223 1.159 2.032.773 4.018 1.951 5.96 3.533l-1.813 2.263c-1.832-1.582-3.672-2.705-5.52-3.367-1.85-.663-3.837-.994-5.96-.994-1.428 0-2.718.193-3.872.58-1.153.386-2.142.91-2.966 1.573-.824.662-1.455 1.435-1.895 2.318a6.236 6.236 0 0 0-.659 2.815v.11c0 1.032.155 1.96.467 2.788.31.828.879 1.583 1.703 2.264.824.681 1.968 1.297 3.433 1.849 1.464.552 3.331 1.068 5.602 1.545 4.467.92 7.69 2.218 9.667 3.892 1.977 1.675 2.966 3.929 2.966 6.762v.11c0 1.546-.321 2.973-.961 4.278a9.957 9.957 0 0 1-2.637 3.34c-1.117.92-2.453 1.638-4.01 2.152-1.556.516-3.267.774-5.135.774M134.875 93.522c2.38 0 4.567-.45 6.563-1.352a15.819 15.819 0 0 0 5.163-3.699c1.446-1.563 2.572-3.395 3.378-5.492.805-2.098 1.209-4.342 1.209-6.735v-.11c0-2.392-.412-4.645-1.236-6.762-.824-2.116-1.96-3.955-3.406-5.52-1.447-1.564-3.177-2.806-5.19-3.726-2.014-.92-4.211-1.38-6.591-1.38-2.381 0-4.568.451-6.564 1.352a15.811 15.811 0 0 0-5.163 3.699c-1.447 1.565-2.573 3.395-3.378 5.492-.806 2.098-1.208 4.343-1.208 6.735v.11c0 2.393.412 4.646 1.236 6.762.824 2.117 1.958 3.956 3.405 5.52 1.446 1.565 3.176 2.806 5.19 3.726 2.014.92 4.21 1.38 6.592 1.38m-.11 2.594c-2.93 0-5.575-.543-7.937-1.63-2.362-1.083-4.385-2.537-6.07-4.359-1.684-1.821-2.984-3.929-3.899-6.32-.916-2.392-1.373-4.913-1.373-7.563v-.11c0-2.65.467-5.18 1.4-7.59.934-2.41 2.243-4.535 3.928-6.376 1.683-1.84 3.716-3.302 6.097-4.388 2.38-1.085 5.034-1.628 7.964-1.628 2.892 0 5.528.543 7.909 1.628 2.38 1.086 4.412 2.54 6.097 4.36 1.683 1.822 2.984 3.93 3.9 6.321.914 2.393 1.373 4.913 1.373 7.563.035.037.035.073 0 .11 0 2.65-.467 5.18-1.401 7.59-.934 2.41-2.244 4.536-3.927 6.376-1.685 1.84-3.727 3.303-6.124 4.387-2.4 1.086-5.045 1.63-7.937 1.63M175.903 96.116c-2.746 0-5.292-.516-7.634-1.545-2.344-1.03-4.367-2.438-6.07-4.224-1.702-1.784-3.03-3.891-3.982-6.32-.953-2.429-1.428-5.023-1.428-7.783v-.11c0-2.723.485-5.3 1.456-7.729.97-2.428 2.307-4.554 4.01-6.375 1.702-1.822 3.725-3.257 6.068-4.306 2.343-1.049 4.907-1.573 7.69-1.573 1.72 0 3.276.148 4.669.442a18.11 18.11 0 0 1 3.872 1.27 20.33 20.33 0 0 1 3.35 1.959 32.164 32.164 0 0 1 3.049 2.511l-2.033 2.098a31.094 31.094 0 0 0-2.636-2.263 16.601 16.601 0 0 0-2.938-1.794 17.345 17.345 0 0 0-3.406-1.187c-1.227-.294-2.554-.442-3.982-.442-2.307 0-4.449.442-6.426 1.325a15.562 15.562 0 0 0-5.136 3.671c-1.447 1.565-2.581 3.395-3.405 5.492-.824 2.098-1.236 4.361-1.236 6.79v.11c0 2.43.42 4.702 1.263 6.818.842 2.116 1.986 3.956 3.433 5.52a15.884 15.884 0 0 0 5.136 3.698c1.977.902 4.12 1.352 6.426 1.352 2.782 0 5.199-.514 7.25-1.545 2.05-1.03 4.046-2.52 5.987-4.471l1.922 1.876a36.27 36.27 0 0 1-3.158 2.733 19.044 19.044 0 0 1-7.442 3.505c-1.428.331-2.985.497-4.669.497M194.961 95.453h2.856v-38.64h-2.856zM203.969 56.813h27.353v2.595h-24.497v15.29h22.025v2.595h-22.025v15.566h24.77v2.594h-27.626zM245.767 59.408h-13.403v-2.594h29.66v2.594h-13.4v36.046h-2.857zM278.832 80.163l-16.48-23.35h3.571l14.392 20.756 14.445-20.756h3.404L281.69 80.108v15.345h-2.857z"/><path d="M388.813 50.336c-.87-4.958-2.159-9.778-3.848-14.325-.085-.228-.182-.449-.269-.675A71.007 71.007 0 0 0 382.405 30a70.858 70.858 0 0 0-9.73-15C367.69 9.088 361.808 4.049 355.31 0H346c8.17 3.606 15.521 8.742 21.767 15 4.47 4.477 8.357 9.538 11.599 15a77.43 77.43 0 0 1 2.907 5.336 76.678 76.678 0 0 1 4.889 12.62 61.746 61.746 0 0 1 2.376 17.38 64.04 64.04 0 0 1-.28 5.667 68.293 68.293 0 0 1-3.155 15.001c-1.72 5.219-4.053 10.254-6.904 15h2.876c1.051-2.087 2.034-4.208 2.89-6.388 1.091-2.775 1.985-5.662 2.73-8.612 1.22-4.856 1.975-9.899 2.281-15.001.112-1.885.184-3.774.176-5.667a89.19 89.19 0 0 0-1.339-15" fill="#FEFEFE"/><path fill="#FFF" opacity=".4" d="M317 0h89v30h-89z"/><path fill="url(#a)" d="M317 35h89v30h-89z"/><path fill="#FFF" opacity=".4" d="M317 71h89v30h-89z"/></g></svg>