<svg version="1.1" id="Layer_1" xmlns="http://www.w3.org/2000/svg" x="0" y="0" viewBox="0 0 200 57" xml:space="preserve"><path d="M72.2 0H45.5v56.2h22V42h4.7c11.6 0 21-9.4 21-21s-9.4-21-21-21M21.1 22.3v-2.7h20.8V0H0v56.2h22V42h19.9V22.3H21.1zM113.9 25.3c0 .8-.2 1-1 1h-4.1c-.8 0-1-.2-1-1V1c0-.8.2-1 1-1h17.3c.8 0 1 .2 1 1v3.2c0 .8-.2 1-1 1h-12.2v5.3h11.8c.8 0 1 .2 1 1v3.2c0 .8-.2 1-1 1h-11.8v9.6zm22-8v8c0 .8-.2 1-1 1h-3.7c-.8 0-1-.2-1-1V8.2c0-.8.2-1 1-1h1.8c.6 0 .8.3 1.2 1l1.1 2.1c1.3-2.2 2.7-3.5 6.6-3.5.9 0 1 .3.9.9l-.6 3.8c-.1.8-.3.9-1.1.9-3.7 0-5.2 2.3-5.2 4.9m21.1-2.4c-.4-1.6-1.2-3.5-3.6-3.5-2.6 0-3.4 1.9-3.8 3.5h7.4zm4.1 7.9c.5.6.6.9.2 1.3-1.7 1.7-4.8 2.7-7.6 2.7-5.7 0-10.1-4.5-10.1-10s4.5-10 10-10c6.4 0 9.4 5.1 9.4 10.7 0 .8-.1 1.1-.9 1.1h-12.5c.6 1.9 2.3 3.3 4.3 3.3.9 0 2.3 0 4.4-1 .8-.3.9-.6 1.5.1l1.3 1.8zm17.1-7.9c-.4-1.6-1.2-3.5-3.6-3.5-2.6 0-3.4 1.9-3.8 3.5h7.4zm4.1 7.9c.5.6.6.9.2 1.3-1.7 1.7-4.8 2.7-7.6 2.7-5.7 0-10.1-4.5-10.1-10s4.5-10 10-10c6.4 0 9.4 5.1 9.4 10.7 0 .8-.1 1.1-.9 1.1h-12.5c.6 1.9 2.3 3.3 4.3 3.3.9 0 2.3 0 4.4-1 .8-.3.9-.6 1.5.1l1.3 1.8zM118 40.6c2.6 0 3.8-.9 3.8-2.8 0-2-1.2-2.8-3.8-2.8h-4.1v5.6h4.1zm-4.1 5.1v9.5c0 .8-.2 1-1 1h-4.1c-.8 0-1-.2-1-1V31c0-.8.2-1 1-1h9.4c4.3 0 9.6 1.8 9.6 7.9 0 6.1-5.3 7.9-9.6 7.9h-4.3zm21.9 1.6v8c0 .8-.2 1-1 1h-3.7c-.8 0-1-.2-1-1V38.1c0-.8.2-1 1-1h1.8c.6 0 .8.3 1.2 1l1.1 2.1c1.3-2.2 2.7-3.5 6.6-3.5.9 0 1 .3.9.9l-.6 3.8c-.1.8-.3.9-1.1.9-3.6.1-5.1 2.3-5.2 5m21.1-2.4c-.4-1.6-1.2-3.5-3.6-3.5-2.6 0-3.4 1.9-3.8 3.5h7.4zm4.1 7.8c.4.6.6.9.2 1.3-1.7 1.7-4.8 2.7-7.6 2.7-5.7 0-10.1-4.5-10.1-10s4.5-10 10-10c6.4 0 9.4 5.1 9.4 10.7 0 .8-.1 1.1-.9 1.1h-12.5c.6 1.9 2.3 3.3 4.3 3.3.9 0 2.3 0 4.4-1 .8-.3.9-.6 1.5.1l1.3 1.8zm14.8-2.1c0-.9-1.4-1.2-3.7-1.5-4.1-.5-7.4-2-7.4-6.1 0-3.9 3.3-6.3 7.9-6.3 2 0 4.5.5 7.4 2.1.7.4.6.8.2 1.4l-1.1 1.9c-.4.7-.6 1-1.4.5-1.2-.8-2.6-1.5-4.8-1.5-2.2 0-2.9.6-2.9 1.6 0 .9 1.4 1.2 3.7 1.5 4.1.5 7.4 1.8 7.4 6 0 3.9-3.3 6.3-8.2 6.3-2 0-5-.6-7.8-2.4-.7-.5-.6-.8-.2-1.4l1.1-1.9c.4-.7.6-1.1 1.4-.5 1.1.8 3 1.8 5.2 1.8 2 .2 3.2-.4 3.2-1.5m18.5 0c0-.9-1.4-1.2-3.7-1.5-4.1-.5-7.4-2-7.4-6.1 0-3.9 3.3-6.3 7.9-6.3 2 0 4.5.5 7.4 2.1.7.4.6.8.2 1.4l-1.1 1.9c-.4.7-.6 1-1.4.5-1.2-.8-2.6-1.5-4.8-1.5-2.2 0-2.9.6-2.9 1.6 0 .9 1.4 1.2 3.7 1.5 4.1.5 7.4 1.8 7.4 6 0 3.9-3.3 6.3-8.2 6.3-2 0-5-.6-7.8-2.4-.7-.5-.6-.8-.2-1.4l1.1-1.9c.4-.7.6-1.1 1.4-.5 1.1.8 3 1.8 5.2 1.8 2 .2 3.2-.4 3.2-1.5" fill="#002F54"/></svg>
