<?xml version="1.0" encoding="utf-8"?>
<!-- Generator: Adobe Illustrator 21.0.2, SVG Export Plug-In . SVG Version: 6.00 Build 0)  -->
<!DOCTYPE svg PUBLIC "-//W3C//DTD SVG 1.1//EN" "http://www.w3.org/Graphics/SVG/1.1/DTD/svg11.dtd">
<svg version="1.1" id="Layer_1" xmlns="http://www.w3.org/2000/svg" xmlns:xlink="http://www.w3.org/1999/xlink" x="0px" y="0px"
	 width="166px" height="96px" viewBox="0 0 166 96" style="enable-background:new 0 0 166 96;" xml:space="preserve">
<style type="text/css">
	.st0{fill:#FFFFFF;}
</style>
<g>
	<path class="st0" d="M74.7,68.3c0,0,1.2,0.4,1.3,0.1c0.1-0.3,0.8,1.4,1.9-0.2c1.1-1.6-1.4-0.1,1.3-1.4l8.7-3.9l-0.5-1.2L77,66.7
		c0,0,0.4,1.2-0.9,1C74.8,67.6,74.7,68.3,74.7,68.3"/>
	<path class="st0" d="M75.4,68.4c-7,3.5-14.4,5.2-21.4,8.3c-4.4,1.8-8.3,3.5-12.7,4.4c-3.9,0.9-7,3.1-10.9,3.9
		c-6.1,2.2-12.2,4.8-18.3,7v-0.4v-0.4c7.9-3.9,16.6-6.1,24.4-10.1h2.1c0.4-0.1,0.8-0.3,1.2-0.4c5.3-2.1,10.2-4.5,16-6.1
		c0.4,0,0.4-0.9,0.9-0.9c6.1-2.2,12.2-4.4,18.3-6.6C75.4,67.1,75.4,68,75.4,68.4z M25.2,82.4c2.6-0.9,5.2-1.8,7.9-2.6
		c6.5-3.1,13.5-5.7,20.1-7.9c3.9-1.7,8.3-3.1,12.2-4.4c2.6-0.9,5.7-2.2,8.3-3.5c0,0,0.4,0.4,0.9,0.9c-7,2.6-13.5,5.2-20.5,7.4
		c-7.5,2.4-14.4,6.1-21.8,8.3c-1.7,0.9-3.9,1.3-5.7,1.8c-4.4,1.7-8.7,3.5-13.1,4.8C16.9,85.1,21.3,83.8,25.2,82.4z M85.4,57.1
		c-1.2,0.5-2.4,1.1-3.7,1.6c1.1-0.3,2.2-0.6,3.2-0.7c0.4,0,0.9,0.4,0.9,0.9c-0.9,2.2-2.8,1.7-4.4,1.7h-1.7c0,0.4,0,0.9-0.4,0.9
		L78.9,61l-0.4,0.4L78,61c0,0.4,0,0.9-0.4,0.9c-0.4-0.4-0.9-0.4-1.3-0.4c0.4,0.4,0.9,0.9,0,1.3h-1.7c-0.4-0.4-1.3-2.2-0.4-2.2
		c1-0.1,2-0.3,3-0.6c-0.6,0.1-1.1,0.1-1.7,0.1c-0.4,0-0.9-0.4-1.3-0.4c0,0.4,0,0.9-0.4,0.9c-0.4,0-0.9-0.4-0.9-0.4
		C64.9,62.3,58,65,50.9,68c-3.1,1.3-3.5,1.5-8.7,3.5c-6.1,2.3-6.7,2.4-8.8,3.3c-4.1,1.4-5.6,1.9-9,3.3c-8.5,3.4-10.2,4.1-24,9.6
		c-0.4,3.1,0.9,6.1,3.5,8.3c2.6-0.9,5.2-2.2,7.9-3.1c2.7-0.9,3.5-1.2,5.2-1.7c4.8-1.7,8.3-3.1,12.7-4.4c5.2-2.2,9.6-4.4,15.7-5.7
		c10-4.4,21.2-8.6,31.6-12.1c0,0-2.2-4.1-0.7-4.5c1.7-0.4,3.1-1.3,4.8-1.8c1.7-0.9,3.9-1.3,5.2-2.6c0.3,0.3,0.6,0.7,0.8,1.1
		L85.4,57.1z M10,0.3v3.5C8.5,3.8,7.7,3.8,7.4,4C7.1,4.1,7,4.5,7,5.1v0.7h3v3.6H8.3v18.4H1.4V9.3H0V5.8h1.4c0-1.5,0.1-2.5,0.2-3
		c0.1-0.5,0.4-0.9,0.8-1.3c0.4-0.4,1-0.7,1.7-0.9c0.7-0.2,1.9-0.3,3.4-0.3H10 M19.8,11.4c0-1.2-0.1-1.9-0.2-2.2
		c-0.1-0.3-0.4-0.5-0.8-0.5c-0.4,0-0.7,0.2-0.8,0.5c-0.1,0.3-0.2,1-0.2,2.2v10.2c0,1.1,0.1,1.8,0.2,2.1c0.1,0.3,0.4,0.5,0.8,0.5
		c0.4,0,0.7-0.1,0.8-0.4c0.1-0.3,0.2-0.9,0.2-1.9V11.4z M26.7,13.2v5.5c0,2-0.1,3.5-0.3,4.5c-0.2,0.9-0.6,1.8-1.3,2.7
		c-0.7,0.8-1.5,1.4-2.6,1.8c-1,0.4-2.2,0.6-3.6,0.6c-1.5,0-2.8-0.2-3.8-0.5c-1-0.3-1.9-0.8-2.4-1.5c-0.6-0.7-1-1.5-1.2-2.5
		c-0.2-1-0.4-2.4-0.4-4.3v-5.8c0-2.1,0.2-3.7,0.7-4.9c0.5-1.2,1.3-2.1,2.4-2.8c1.2-0.7,2.7-1.1,4.5-1.1c1.5,0,2.9,0.2,4,0.7
		c1.1,0.5,2,1.1,2.5,1.8c0.6,0.7,1,1.5,1.2,2.3C26.6,10.4,26.7,11.6,26.7,13.2L26.7,13.2z M37.6,11.4c0-1.2-0.1-1.9-0.2-2.2
		C37.3,9,37,8.8,36.7,8.8c-0.4,0-0.7,0.2-0.8,0.5c-0.1,0.3-0.2,1-0.2,2.2v10.2c0,1.1,0.1,1.8,0.2,2.1c0.1,0.3,0.4,0.5,0.8,0.5
		c0.4,0,0.7-0.1,0.8-0.4c0.1-0.3,0.2-0.9,0.2-1.9V11.4z M44.5,13.2v5.5c0,2-0.1,3.5-0.3,4.5c-0.2,0.9-0.6,1.8-1.3,2.7
		c-0.7,0.8-1.5,1.4-2.6,1.8c-1,0.4-2.2,0.6-3.6,0.6c-1.5,0-2.8-0.2-3.8-0.5c-1.1-0.3-1.9-0.8-2.4-1.5c-0.6-0.7-1-1.5-1.2-2.5
		c-0.2-1-0.4-2.4-0.4-4.3v-5.8c0-2.1,0.2-3.7,0.7-4.9c0.5-1.2,1.3-2.1,2.4-2.8c1.2-0.7,2.7-1.1,4.5-1.1c1.5,0,2.9,0.2,4,0.7
		c1.1,0.5,2,1.1,2.6,1.8c0.6,0.7,1,1.5,1.2,2.3C44.4,10.4,44.5,11.6,44.5,13.2L44.5,13.2z M55.4,10.9c0-0.8-0.1-1.4-0.2-1.7
		c-0.1-0.3-0.4-0.4-0.8-0.4c-0.4,0-0.7,0.1-0.8,0.4c-0.1,0.3-0.2,0.8-0.2,1.7V22c0,0.9,0.1,1.5,0.2,1.8c0.1,0.3,0.4,0.4,0.7,0.4
		c0.4,0,0.7-0.2,0.8-0.5c0.1-0.3,0.2-1.1,0.2-2.4V10.9z M62.3,0.3v27.5h-6.9v-1.6c-0.7,0.7-1.3,1.2-2.1,1.5
		c-0.7,0.3-1.5,0.5-2.3,0.5c-1.1,0-2-0.3-2.7-0.8c-0.8-0.6-1.3-1.2-1.5-1.9c-0.2-0.7-0.3-1.9-0.3-3.6V11.2c0-1.7,0.1-3,0.3-3.7
		c0.2-0.7,0.7-1.4,1.5-1.9c0.8-0.6,1.7-0.8,2.8-0.8c0.8,0,1.6,0.2,2.3,0.5c0.7,0.3,1.3,0.8,1.9,1.4V0.3H62.3L62.3,0.3z M72.6,12.6
		c0.8-1,1.1-2,1.1-2.9c0-0.4-0.1-0.8-0.3-1.1C73.2,8.2,72.9,8,72.5,8c-0.4,0-0.7,0.1-0.8,0.4c-0.2,0.3-0.3,0.6-0.3,1.2
		C71.3,10.6,71.7,11.6,72.6,12.6z M74.2,23.2l-2.2-3.7c-0.9,0.8-1.3,1.6-1.3,2.5c0,0.6,0.1,1.1,0.4,1.5c0.3,0.3,0.7,0.5,1.2,0.5
		C72.8,23.9,73.4,23.7,74.2,23.2z M83.2,17.4V22l-2,1.3l2.4,4.5h-6.4l-0.8-1.5c-2.1,1.4-4.1,2.1-6,2.1c-2,0-3.5-0.7-4.6-2
		c-1.1-1.3-1.6-2.9-1.6-4.8c0-1.5,0.3-2.7,1-3.5c0.6-0.9,1.6-1.5,2.9-2.1c-1.8-1.3-2.7-3.1-2.7-5.3c0-1.9,0.6-3.5,1.9-4.6
		c1.3-1.2,3.1-1.8,5.3-1.8c2,0,3.6,0.6,4.8,1.7c1.2,1.1,1.8,2.6,1.8,4.4c0,1.9-0.7,3.5-2.1,5l2.4,4.4L83.2,17.4L83.2,17.4z
		 M23.8,32.3L21,54.9h-7.4c-0.4-2.8-0.9-6.4-1.4-10.9c-0.2,2-0.5,4-0.8,6l-0.8,4.9H3.3L0.3,32.3h5.8c0.1,0.6,0.6,4.9,1.5,13
		c0.1-0.9,0.6-5.2,1.6-13h5.6l1.4,13c0.3-3.8,0.8-8.1,1.6-13H23.8 M33.2,44.1c-1.1,0.8-1.7,1.5-1.9,2c-0.2,0.5-0.3,1.3-0.3,2.4
		c0,1.2,0.1,1.9,0.2,2.3c0.1,0.3,0.4,0.5,0.9,0.5c0.4,0,0.7-0.1,0.8-0.4c0.1-0.3,0.2-1,0.2-2.1V44.1z M31,41h-6.5v-1.5
		c0-1.7,0.2-3.1,0.6-4c0.4-0.9,1.2-1.8,2.4-2.5c1.2-0.7,2.8-1.1,4.7-1.1c2.3,0,4.1,0.4,5.2,1.2c1.2,0.8,1.9,1.8,2.1,3
		c0.2,1.2,0.4,3.7,0.4,7.4v11.3h-6.7v-2c-0.4,0.8-1,1.4-1.6,1.8c-0.7,0.4-1.4,0.6-2.4,0.6c-1.2,0-2.3-0.3-3.3-1
		c-1-0.7-1.5-2.2-1.5-4.4V48c0-1.7,0.3-2.8,0.8-3.5c0.5-0.6,1.8-1.3,3.9-2.1c2.2-0.9,3.4-1.5,3.6-1.8c0.2-0.3,0.2-0.9,0.2-1.9
		c0-1.2-0.1-1.9-0.3-2.3c-0.2-0.4-0.5-0.5-0.9-0.5c-0.5,0-0.7,0.2-0.8,0.4c-0.1,0.3-0.2,1.1-0.2,2.3V41L31,41z M49.6,29.3v3.6h1.9
		v3.6h-1.9v12.1c0,1.5,0.1,2.3,0.2,2.5c0.2,0.2,0.8,0.3,1.9,0.3v3.6H49c-1.6,0-2.7-0.1-3.4-0.2c-0.7-0.1-1.3-0.4-1.8-0.9
		c-0.5-0.5-0.8-1-1-1.6c-0.1-0.6-0.2-2-0.2-4.3V36.4h-1.4v-3.6h1.4v-3.6H49.6 M61.6,40.3v-1.6c0-1.2-0.1-1.9-0.2-2.3
		c-0.1-0.3-0.4-0.5-0.7-0.5c-0.5,0-0.7,0.1-0.9,0.4c-0.1,0.3-0.2,1.1-0.2,2.3v1.6H61.6z M68.5,44h-8.8v4.9c0,1,0.1,1.7,0.2,2
		c0.1,0.3,0.4,0.4,0.8,0.4c0.5,0,0.8-0.2,1-0.6c0.2-0.4,0.3-1.2,0.3-2.3v-3h6.5v1.7c0,1.4-0.1,2.5-0.3,3.2c-0.2,0.7-0.6,1.6-1.2,2.4
		c-0.6,0.9-1.5,1.5-2.4,1.9c-1,0.4-2.2,0.6-3.7,0.6c-1.4,0-2.7-0.2-3.8-0.6c-1.1-0.4-2-1-2.6-1.7c-0.6-0.7-1-1.5-1.3-2.4
		c-0.2-0.9-0.4-2.2-0.4-3.8v-6.6c0-2,0.3-3.5,0.8-4.7c0.5-1.1,1.4-2,2.6-2.6c1.2-0.6,2.6-0.9,4.2-0.9c1.9,0,3.5,0.4,4.7,1.1
		c1.2,0.7,2.1,1.7,2.6,2.9c0.5,1.2,0.8,2.9,0.8,5.1V44L68.5,44z M77.6,32.3l-0.2,3c1-2.1,2.4-3.3,4.3-3.4v7.9
		c-1.3,0-2.2,0.2-2.8,0.5c-0.6,0.3-0.9,0.8-1.1,1.4c-0.1,0.6-0.2,2-0.2,4.2v8.9h-6.9V32.3H77.6 M106.9,34.9
		c-1.4,7.6-2.2,15.2-2.4,22.7c-2.2-0.2-4.4-0.4-6.6-0.6c-0.6-2.7-1.2-6.2-1.7-10.5c-0.2,1.9-0.4,3.8-0.6,5.7c-0.2,1.5-0.3,3-0.4,4.5
		c-2.2-0.2-4.4-0.5-6.6-0.8c-1.3-6.7-2.1-13.2-2.6-19.5c1.7-0.2,3.5-0.3,5.2-0.5c0.1,0.5,0.1,4.3,1,11.7c0.1-0.8,0.4-4.7,1.8-12
		c1.7-0.1,3.4-0.2,5-0.4c0.1,4.1,0.4,8.3,0.8,12.5c0.2-3.7,0.7-7.9,1.8-12.7C103.4,35,105.2,34.9,106.9,34.9 M115.3,46.9
		c-1,0.8-1.5,1.5-1.7,2.1c-0.2,0.6-0.2,1.4-0.2,2.4c0,1.2,0.1,2,0.2,2.4c0.1,0.4,0.4,0.5,0.8,0.6c0.4,0,0.6-0.1,0.7-0.4
		c0.1-0.3,0.2-1,0.2-2.2V46.9z M113.4,43.7c-1.9,0-3.8,0-5.8,0v-1.5c0-1.8,0.2-3.1,0.5-4.1c0.4-1,1.1-1.8,2.2-2.6
		c1.1-0.8,2.5-1.2,4.2-1.2c2.1-0.1,3.6,0.4,4.7,1.2c1.1,0.9,1.7,1.9,1.9,3.2c0.2,1.3,0.3,3.9,0.3,7.8v11.9c-2,0-4-0.1-6-0.1V56
		c-0.4,0.8-0.9,1.5-1.4,1.9c-0.6,0.4-1.3,0.6-2.1,0.5c-1.1-0.1-2-0.5-2.9-1.2c-0.9-0.7-1.3-2.3-1.3-4.6v-1.9c0-1.7,0.2-2.9,0.7-3.5
		c0.5-0.6,1.6-1.3,3.5-2.2c2-0.9,3.1-1.5,3.2-1.9c0.1-0.3,0.2-1,0.2-1.9c0-1.2-0.1-2-0.2-2.4c-0.2-0.4-0.4-0.6-0.8-0.5
		c-0.4,0-0.7,0.2-0.8,0.5c-0.1,0.3-0.1,1.1-0.1,2.4V43.7L113.4,43.7z M130.1,31.3v3.7c0.6,0,1.1,0,1.7,0v3.7c-0.6,0-1.1,0-1.7,0
		v12.7c0,1.6,0.1,2.4,0.2,2.6c0.1,0.2,0.7,0.3,1.7,0.2v3.8c-0.8,0-1.7,0-2.5,0.1c-1.4,0-2.4,0-3-0.2c-0.6-0.1-1.1-0.4-1.6-0.9
		c-0.5-0.5-0.7-1.1-0.9-1.7c-0.1-0.6-0.2-2.1-0.2-4.5V38.8c-0.4,0-0.9,0-1.3,0v-3.8c0.4,0,0.9,0,1.3,0v-3.8
		C126,31.3,128,31.3,130.1,31.3 M146.6,43.5c-1.9,0-3.8,0-5.8,0v-2.7c0-0.9-0.1-1.6-0.2-1.9c-0.1-0.3-0.4-0.5-0.7-0.5
		c-0.3,0-0.6,0.1-0.7,0.4c-0.1,0.3-0.2,0.9-0.2,2v10.9c0,0.8,0.1,1.4,0.3,1.8c0.2,0.4,0.4,0.6,0.8,0.6c0.4,0,0.7-0.2,0.8-0.7
		c0.1-0.4,0.2-1.2,0.2-2.4v-2.7c1.8,0,3.6-0.1,5.4-0.1c0,1.8-0.1,3.1-0.2,4c-0.1,0.9-0.4,1.8-1,2.8c-0.6,1-1.3,1.7-2.2,2.3
		c-0.9,0.5-2,0.9-3.4,1c-1.7,0.1-3.1-0.2-4.1-0.8c-1-0.6-1.7-1.6-2.1-2.8c-0.4-1.2-0.6-3-0.6-5.3v-6.7c0-2,0.2-3.5,0.5-4.5
		c0.3-1,1.1-1.9,2.2-2.7c1.1-0.8,2.5-1.1,4.1-1c1.6,0.1,3,0.5,4.1,1.3c1.1,0.8,1.9,1.8,2.2,3C146.4,39.8,146.6,41.4,146.6,43.5
		 M154.6,31c0.1,1.9,0.3,3.8,0.3,5.7c0.5-0.5,1.1-0.8,1.7-1c0.6-0.2,1.2-0.3,1.9-0.2c1.1,0.1,2,0.5,2.8,1.1c0.8,0.6,1.3,1.2,1.4,1.9
		c0.2,0.7,0.3,1.9,0.3,3.7c0,4.4-0.1,8.8-0.4,13.2c-2.1,0.3-4.1,0.6-6.2,0.8c0.4-4.8,0.5-9.6,0.4-14.5c0-1.2-0.1-2-0.2-2.3
		c-0.1-0.3-0.4-0.5-0.8-0.5c-0.4,0-0.6,0.1-0.7,0.5c-0.1,0.4-0.2,1.1-0.2,2.1c0.1,5-0.1,10-0.5,14.9c-2.1,0.2-4.1,0.4-6.2,0.6
		c0.7-8.9,0.7-17.9,0-26.8C150.4,30.6,152.5,30.8,154.6,31"/>
	<path class="st0" d="M75.4,68.4c-7,3.5-14.4,5.2-21.4,8.3c-4.4,1.8-8.3,3.5-12.7,4.4c-3.9,0.9-7,3.1-10.9,3.9
		c-6.1,2.2-12.2,4.8-18.3,7v-0.4v-0.4c7.9-3.9,16.6-6.1,24.4-10.1h2.1c0.4-0.1,0.8-0.3,1.2-0.4c5.3-2.1,10.2-4.5,16-6.1
		c0.4,0,0.4-0.9,0.9-0.9c6.1-2.2,12.2-4.4,18.3-6.6C75.4,67.1,75.4,68,75.4,68.4z M25.2,82.4c2.6-0.9,5.2-1.8,7.9-2.6
		c6.5-3.1,13.5-5.7,20.1-7.9c3.9-1.7,8.3-3.1,12.2-4.4c2.6-0.9,5.7-2.2,8.3-3.5c0,0,0.4,0.4,0.9,0.9c-7,2.6-13.5,5.2-20.5,7.4
		c-7.5,2.4-14.4,6.1-21.8,8.3c-1.7,0.9-3.9,1.3-5.7,1.8c-4.4,1.7-8.7,3.5-13.1,4.8C16.9,85.1,21.3,83.8,25.2,82.4z M85.4,57.1
		c-1.2,0.5-2.4,1.1-3.7,1.6c1.1-0.3,2.2-0.6,3.2-0.7c0.4,0,0.9,0.4,0.9,0.9c-0.9,2.2-2.8,1.7-4.4,1.7h-1.7c0,0.4,0,0.9-0.4,0.9
		L78.9,61l-0.4,0.4L78,61c0,0.4,0,0.9-0.4,0.9c-0.4-0.4-0.9-0.4-1.3-0.4c0.4,0.4,0.9,0.9,0,1.3h-1.7c-0.4-0.4-1.3-2.2-0.4-2.2
		c1-0.1,2-0.3,3-0.6c-0.6,0.1-1.1,0.1-1.7,0.1c-0.4,0-0.9-0.4-1.3-0.4c0,0.4,0,0.9-0.4,0.9c-0.4,0-0.9-0.4-0.9-0.4
		C64.9,62.3,58,65,50.9,68c-3.1,1.3-3.5,1.5-8.7,3.5c-6.1,2.3-6.7,2.4-8.8,3.3c-4.1,1.4-5.6,1.9-9,3.3c-8.5,3.4-10.2,4.1-24,9.6
		c-0.4,3.1,0.9,6.1,3.5,8.3c2.6-0.9,5.2-2.2,7.9-3.1c2.7-0.9,3.5-1.2,5.2-1.7c4.8-1.7,8.3-3.1,12.7-4.4c5.2-2.2,9.6-4.4,15.7-5.7
		c10-4.4,21.2-8.6,31.6-12.1c0,0-2.2-4.1-0.7-4.5c1.7-0.4,3.1-1.3,4.8-1.8c1.7-0.9,3.9-1.3,5.2-2.6c0.3,0.3,0.6,0.7,0.8,1.1
		L85.4,57.1z"/>
	<path class="st0" d="M32.2,80.7c7.4-2.2,14.3-6,21.8-8.3c7-2.2,13.5-4.8,20.5-7.4c-0.4-0.4-0.9-0.9-0.9-0.9
		c-2.6,1.3-5.7,2.6-8.3,3.5c-3.9,1.3-8.3,2.6-12.2,4.4c-6.5,2.2-13.5,4.8-20.1,7.9c-2.6,0.9-5.2,1.7-7.9,2.6
		c-3.9,1.3-8.3,2.6-11.8,4.8c4.4-1.3,8.7-3.1,13.1-4.8C28.2,82,30.4,81.6,32.2,80.7"/>
	<path class="st0" d="M77.1,60c1.6-0.2,3.1-0.7,4.6-1.4C80.2,59.1,78.7,59.6,77.1,60"/>
	<path class="st0" d="M74.5,62.8h1.7c0.9-0.4,0.4-0.9,0-1.3c0.4,0,0.9,0,1.3,0.4c0.4,0,0.4-0.4,0.4-0.9l0.4,0.4l0.4-0.4l0.4,0.4
		c0.4,0,0.4-0.4,0.4-0.9h1.7c1.6,0,3.5,0.4,4.4-1.7c0-0.4-0.4-0.9-0.9-0.9c-1.1,0.1-2.2,0.4-3.2,0.7c-1.5,0.6-3.1,1.1-4.6,1.4
		c-1,0.2-2,0.5-3,0.6C73.2,60.6,74.1,62.3,74.5,62.8 M36.5,81.1c-7.9,3.9-16.6,6.1-24.4,10.1v0.4c8.7-3.9,17.6-7.2,26.5-10.5H36.5"
		/>
	<path class="st0" d="M74.9,67.1c-6.1,2.2-12.2,4.4-18.3,6.6c-0.4,0-0.4,0.9-0.9,0.9c-5.7,1.6-10.7,4-16,6.1
		c6.8-2.5,13.5-4.9,20.3-7.4c4.8-1.7,9.2-4.4,14.4-4.8C68,70.6,61,73.3,54.4,75.9c-14,5.6-28.4,10.5-42.3,15.7v0.4
		c6.1-2.2,12.2-4.8,18.3-7c3.9-0.9,7-3.1,10.9-3.9c4.4-0.9,8.3-2.6,12.7-4.4c7-3.1,14.4-4.8,21.4-8.3C75.4,68,75.4,67.1,74.9,67.1"
		/>
	<path class="st0" d="M74.5,68.4c-5.2,0.4-9.6,3.1-14.4,4.8c-6.8,2.6-13.6,5-20.3,7.4c-0.4,0.1-0.7,0.3-1.1,0.4h-0.1
		c-8.9,3.3-17.8,6.6-26.5,10.5c14-5.2,28.3-10.1,42.3-15.7C61,73.3,68,70.6,74.5,68.4 M124.5,84.9c-22.4,0-40.6-18.2-40.6-40.6
		c0-22.5,18.2-40.7,40.6-40.7c22.4,0,40.6,18.2,40.6,40.7C165.1,66.7,146.9,84.9,124.5,84.9z M124.5,2.9
		c-22.8,0-41.2,18.5-41.2,41.3s18.5,41.3,41.2,41.3c22.8,0,41.2-18.5,41.2-41.3S147.3,2.9,124.5,2.9L124.5,2.9z"/>
</g>
</svg>
