<svg xmlns="http://www.w3.org/2000/svg" width="253" height="80" viewBox="0 0 253 80">
  <g fill="#002F54" fill-rule="evenodd">
    <path d="M31.4969187 28.2360494L31.4969187 36.717037 51.7813914 36.717037C51.1607508 41.4745679 49.5735711 44.957037 47.1592 47.4044444 44.1923797 50.3693827 39.5692 53.6098765 31.4969187 53.6098765 19.0080086 53.6098765 9.24576641 43.5437037 9.24576641 31.062716 9.24576641 18.582716 19.0080086 8.51555556 31.4969187 8.51555556 38.2241492 8.51555556 43.1566609 11.1703704 46.7797 14.5837037L52.7469422 8.61925926C47.7106609 3.72345679 40.9488406 0 31.4969187 0 14.3858172 0 .0003953125 13.9288889.0003953125 31.0291358.0003953125 48.1293827 14.3858172 62.057284 31.4969187 62.057284 40.7422898 62.057284 47.7106609 59.0232099 53.161032 53.3688889 58.7507508 47.7837037 60.5098914 39.8893827 60.5098914 33.5446914 60.5098914 31.5802469 60.371532 29.7530864 60.0612117 28.2360494L31.4969187 28.2360494zM85.8658281 53.5070617C79.7938281 53.5070617 74.5500078 48.5075556 74.5500078 41.3717531 74.5500078 34.1658272 79.7938281 29.2354568 85.8658281 29.2354568 91.9378281 29.2354568 97.1806602 34.1658272 97.1806602 41.3717531 97.1806602 48.5075556 91.9378281 53.5070617 85.8658281 53.5070617M85.8658281 21.3411358C74.7911484 21.3411358 65.7533164 29.7529877 65.7533164 41.3717531 65.7533164 52.8868148 74.7911484 61.4023704 85.8658281 61.4023704 96.9395195 61.4023704 105.97834 52.9203951 105.97834 41.3717531 105.97834 29.7529877 96.9395195 21.3411358 85.8658281 21.3411358M174.352776 53.5070617C168.280776 53.5070617 163.659573 48.3357037 163.659573 41.3717531 163.659573 34.3040988 168.280776 29.2354568 174.352776 29.2354568 180.355596 29.2354568 185.046967 34.4078025 185.046967 41.4399012 185.081557 48.4384198 180.355596 53.5070617 174.352776 53.5070617L174.352776 53.5070617zM184.461905 25.8231111L184.150596 25.8231111C182.184905 23.4784198 178.389905 21.3411358 173.593776 21.3411358 163.589405 21.3411358 154.861893 30.0631111 154.861893 41.3717531 154.861893 52.6112593 163.589405 61.4023704 173.593776 61.4023704 178.389905 61.4023704 182.184905 59.2640988 184.150596 56.8512593L184.461905 56.8512593 184.461905 59.6443457C184.461905 67.297679 180.355596 71.4003951 173.766725 71.4003951 168.385534 71.4003951 165.038225 67.5386667 163.659573 64.2636049L156.000393 67.4359506C158.208213 72.7455802 164.038084 79.2601481 173.766725 79.2601481 184.082405 79.2601481 192.809916 73.1929877 192.809916 58.4028642L192.809916 22.3752099 184.461905 22.3752099 184.461905 25.8231111zM130.712944 53.5070617C124.640944 53.5070617 119.398112 48.5075556 119.398112 41.3717531 119.398112 34.1658272 124.640944 29.2354568 130.712944 29.2354568 136.784944 29.2354568 142.028764 34.1658272 142.028764 41.3717531 142.028764 48.5075556 136.784944 53.5070617 130.712944 53.5070617M130.712944 21.3411358C119.639253 21.3411358 110.600432 29.7529877 110.600432 41.3717531 110.600432 52.8868148 119.639253 61.4023704 130.712944 61.4023704 141.786636 61.4023704 150.825456 52.9203951 150.825456 41.3717531 150.825456 29.7529877 141.786636 21.3411358 130.712944 21.3411358"/>
    <polygon points="199.709 61.402 208.368 61.402 208.368 .827 199.709 .827"/>
    <path d="M234.483464,28.8566914 C238.037323,28.8566914 241.072335,30.6838519 242.073464,33.2695309 L223.962221,40.7500247 C223.962221,32.3381728 229.930452,28.8566914 234.483464,28.8566914 M235.104104,53.5065679 C230.619284,53.5065679 227.445913,51.4729877 225.375464,47.4394074 L252.180616,36.3727407 L251.284245,34.0971852 C249.627886,29.6152099 244.522425,21.340642 234.137565,21.340642 C223.823862,21.340642 215.232733,29.4423704 215.232733,41.3712593 C215.232733,52.6107654 223.719104,61.4028642 235.104104,61.4028642 C244.280296,61.4028642 249.593296,55.7821235 251.801116,52.5416296 L244.970116,47.9915062 C242.694104,51.3001481 239.588925,53.5065679 235.104104,53.5065679"/>
  </g>
</svg>
