<svg xmlns="http://www.w3.org/2000/svg" width="225" height="39" viewBox="0 0 225 39">
  <g fill="#002F54" fill-rule="evenodd">
    <path d="M22.0383484 38.8690412L24.3161374 38.2112575C25.7952212 36.447201 25.2035877 34.0851592 25.2923327 32.0221101 25.262751 29.5703706 26.2389463 27.0887318 26.5051814 24.7565893 26.9193249 23.7400144 27.1855599 22.5739432 27.7180301 21.7666631 28.7533887 20.0923044 27.4813767 18.2684494 27.36305 16.5641914L26.8305798 15.9662062C26.7418348 15.3981202 26.5347631 14.8599335 25.8839662 14.6805379 23.0145437 14.0526534 20.2042845 15.1290268 17.423607 15.3981202 17.2756986 15.3981202 17.2756986 15.5177172 17.1573719 15.5775158 14.9091645 15.7569113 12.8088656 16.3847958 10.4423315 16.743587 10.0873514 16.8033855 9.88027967 16.9229826 9.58446292 17.0724789 8.69701265 18.0890538 8.78575767 19.6438155 8.51952259 20.959383 8.81533935 21.2583756 8.81533935 21.7666631 9.14073778 22.0656557 9.14073778 22.4543461 9.40697286 22.7234395 9.52529956 23.0822306 9.52529956 23.2616262 9.79153464 23.3214247 9.88027967 23.5905181 10.4423315 24.0091078 11.3297818 23.8297122 12.0101603 23.6802159 12.3651404 23.4709211 12.8976106 23.4709211 13.2525907 23.351324 14.8500012 23.0523314 16.506575 22.8131373 18.0744038 22.5739432 18.2518939 22.5739432 18.2518939 22.4244469 18.3998023 22.3646483L19.878886 22.1254542C20.0267944 22.1254542 20.1451211 22.1852528 20.2042845 22.215152 20.4113562 22.8131373 20.0267944 23.6802159 19.6422326 24.1287048L16.4769933 26.1618547C16.329085 26.1618547 16.2995033 26.0422576 16.2403399 25.9226606L15.6191248 25.8927613C14.8500012 26.5804443 13.5779891 26.8196384 12.3059771 26.4907466 11.4481085 26.2216532 10.5310765 26.311351 9.70278962 26.1618547 8.9928294 25.3844738 7.69123567 25.5339702 6.53755032 24.9957834 5.32470162 24.8761864 4.52599638 24.3678989 4.17101627 23.5905181 3.72729113 21.9161594 4.02310789 20.2119014 4.91055816 18.8066361 5.32470162 18.3282479 5.32470162 17.7601619 5.76842675 17.4013708 5.85717178 16.8033855 6.44880529 16.5043929 6.567132 15.9662062 7.57290897 14.4413438 8.46035924 13.1855748 9.70278962 11.959705 11.0043833 10.1657492 13.2525907 8.52128981 15.234563 7.175823 15.9741049 6.81703185 16.8023918 6.4582407 17.5419337 6.15924807 18.1631489 6.18914733 18.3998023 6.78713258 18.7252007 7.175823 18.7252007 7.47481562 18.7547824 7.71400972 19.0801808 7.83360677L19.4647426 9.02957727 20.2042845 9.92655514 21.4467149 10.0760515C22.3341651 9.95645441 22.9553803 9.62756252 23.2511971 9.05947653 24.256974 7.175823 22.6595636 5.29216946 22.6595636 3.43841519 21.2692248 1.88365354 19.8197227-.0298992625 16.9798818.209294837 12.9863556 1.01657492 11.0043833 4.0662997 8.81533935 6.15924807 8.0166341 6.39844217 7.39541892 6.84693111 7.04043881 7.50471488 6.98127546 7.8934053 6.86294875 8.25219645 6.6854587 8.52128981 6.53755032 8.52128981 6.27131524 8.3717935 6.09382519 8.49139055 5.29511994 9.17907358 4.20059794 9.92655514 4.20059794 11.0926264L3.49063773 11.7504102.976195297 15.3084224C-.147908378 17.7900612.325398432 20.4809948.325398432 23.0822306.266235081 23.1121299.0591633513 23.0523314 0 23.1121299L.325398432 25.1452797.976195297 27.3578252 1.39033876 27.7764148C1.41992043 28.1053067 1.74531886 28.254803 1.89322724 28.5537957 2.86942254 29.4507735 3.72729113 30.2879529 5.11762989 30.6168448 5.5909367 30.8261396 5.94591681 31.1251322 6.53755032 31.095233 8.34203254 32.0221101 10.5310765 31.4839234 12.5722122 31.8427145 13.311754 31.8427145 14.0512959 31.8427145 14.6725111 31.5138227L19.1689258 30.3477514C19.3464159 31.6334197 19.0210175 33.0087858 19.3464159 34.2944541 19.1985075 35.4605253 18.5772923 37.015287 19.8197227 37.6730707 20.0267944 37.6730707 20.1155395 37.822567 20.1451211 37.9421641L21.9496033 38.8690412 22.0383484 38.8690412zM106.139052 33.8459651C107.174411 33.4572747 108.298515 33.6665696 109.422618 33.6665696 109.659272 33.6665696 109.836762 33.4572747 109.866343 33.2778791 109.955088 32.8891887 110.280487 32.4108005 110.310069 31.9922109 110.842539 25.9226606 110.191742 20.2119014 110.842539 14.2320489L110.753794 11.0926264C110.457977 10.4348426 110.546722 9.71726031 110.931284 9.17907358L111.108774 9.05947653C111.493336 9.23887211 111.493336 9.62756252 111.789152 9.8069581 112.587858 10.1657492 113.800706 10.4348426 114.74732 10.0760515 115.1023 9.77705883 115.27979 9.567764 115.516443 9.38836842 116.492639 9.05947653 117.646324 8.73058465 118.918336 8.79038317 119.569133 9.92655514 118.947918 11.5112161 119.036663 12.8566829L118.592938 13.3051718 116.847619 13.7536607C115.338953 14.7104371 115.546025 16.6538892 115.27979 18.1787516 115.693934 19.4943191 116.078495 20.7500882 117.350507 21.4078719 117.646324 21.7068646 118.119631 21.7965624 118.415448 22.0656557 118.415448 25.3844738 117.202599 29.1218817 118.740846 32.1716064 118.770428 32.2912035 118.770428 32.3809013 118.770428 32.3809013L120.693237 33.6665696 122.408974 33.4273755C125.012161 29.959061 123.089352 24.8462871 124.657181 20.6603904 124.657181 20.3613978 124.834671 20.2119014 124.775508 19.9727073L126.57999 19.4046214 131.372222 17.3415722 132.289254 16.055904 133.413357 15.3981202 133.650011 14.9496312C134.093736 14.4114445 135.247421 14.5609408 135.424911 13.7536607L135.661565 13.5742652C135.691146 13.5742652 135.75031 13.5742652 135.839055 13.663963 135.75031 14.2320489 135.129094 15.0692283 135.069931 15.7569113 134.862859 16.743587 134.448716 17.3415722 134.093736 18.1787516 133.945827 19.1056287 133.650011 20.0026066 133.502102 20.8696852 133.324612 21.4078719 133.324612 21.9161594 133.324612 22.4244469 132.821724 24.607093 133.295031 26.8495377 134.093736 28.9125868 134.448716 29.7796654 135.040349 30.2879529 135.691146 30.9756359L135.839055 31.1251322C136.696923 31.8726138 137.673119 32.5004983 139.004294 32.919088 139.063457 33.038685 139.181784 33.0685843 139.359274 33.0087858 139.359274 33.0087858 139.595927 33.1582821 139.507182 33.1582821 141.163756 33.6665696 143.234474 33.5768718 145.098119 33.4572747 145.778498 33.0087858 146.577203 32.5004983 147.523817 32.1716064 149.890351 31.2746286 149.890351 28.9424861 149.772024 27.1186311 149.505789 25.9226606 149.18039 24.3678989 148.056287 23.7699137L142.28786 25.9824591C142.139952 25.9824591 142.139952 26.0721569 142.051207 26.1618547L140.720031 26.1618547C139.921326 25.5040709 138.264752 25.055582 138.442242 23.7699137L138.471824 23.5008203C138.885967 22.9327343 139.743836 22.5440439 140.720031 22.5440439L140.927103 22.3646483C141.962462 22.3646483 143.234474 22.215152 144.210669 21.7965624 145.186864 21.5573683 146.103896 21.527469 147.020928 21.527469L147.701307 21.2284764 148.500012 21.2583756 151.901905 20.5108941C151.99065 20.5108941 152.138558 20.391297 152.16814 20.3314985 152.227303 20.2418007 152.34563 20.3613978 152.493538 20.2119014 153.558478 19.3448228 153.617642 17.7900612 153.440152 16.6239899 152.996427 15.7569113 152.937263 14.919732 152.493538 14.2021497L152.493538 13.9330563C152.16814 13.5443659 151.81316 13.1855748 151.251108 13.0061792L151.014454 13.0061792C148.854992 14.6805379 145.186864 15.5177172 142.051207 15.3084224 141.93288 15.0692283 141.5779 14.8599335 141.489155 14.5011423L143.234474 11.8401079C143.234474 11.7504102 143.234474 11.6308131 143.264055 11.5112161L146.133478 10.7338352 156.398319 8.40169276C156.487064 8.3717935 156.487064 8.34189423 156.664554 8.22229718L156.782881 8.34189423C156.842044 8.34189423 156.930789 8.22229718 156.960371 8.16249866 157.729495 7.98310308 158.054893 7.35521857 158.35071 6.6974348 158.232383 6.03965102 158.232383 5.44166577 158.439455 4.90347905L158.143638 4.45499011C158.084475 4.21579601 158.409873 3.97660191 158.35071 3.73740781L158.054893 3.73740781C157.906985 3.70750855 157.729495 3.5879115 157.64075 3.43841519L157.46326 2.33214247C157.404096 2.27234395 157.28577 2.27234395 157.108279 2.18264616L156.960371.986675662 155.540451 0 148.204195 2.24244469C145.601008 3.22912035 142.228697 3.13942256 140.187561 4.33539306 140.039653 4.51478864 139.862163 4.60448642 139.832581 4.783882 139.329692 5.89015471 138.885967 7.23562152 138.619732 8.40169276 138.383079 9.11927506 138.116844 9.65746178 137.821027 10.1657492 137.34772 11.0926264 136.874413 11.959705 136.371525 12.7370858 136.371525 12.7968843 136.341943 12.7968843 136.194035 12.7968843 136.194035 10.7338352 136.785668 8.49139055 135.75031 6.33864365 135.661565 5.89015471 135.424911 5.65096061 135.247421 5.2622702 134.892441 4.27559454 134.271226 3.43841519 133.590847 2.69093362L131.490548 2.03314985C131.490548 2.03314985 131.401803 1.9135528 131.401803 1.88365354 130.45519 2.03314985 129.242341 2.00325059 128.502799 1.49496312 128.354891 1.34546681 128.325309 1.25576902 128.177401 1.22586976 128.059074 1.25576902 127.999911 1.34546681 127.911166 1.40526534 127.497022 1.55476165 126.75748 1.52486239 126.4025 1.22586976L125.130488 1.16607124 124.775508 1.55476165 120.486165 1.55476165C120.338257 1.6743587 120.308675 1.88365354 120.21993 2.03314985 119.539551 2.27234395 118.415448 2.72083289 117.646324 2.33214247 117.646324 2.27234395 117.646324 2.18264616 117.616742 2.12284764 117.468834 2.00325059 117.025109 1.88365354 116.729292 2.03314985L115.901005 2.45173952C115.427698 2.42184026 114.74732 2.33214247 114.303595 2.78063141 114.155686 3.13942256 114.03736 3.31881814 113.85987 3.46831445L112.587858 3.70750855 112.232877 3.88690412 111.256682 5.62106135C111.167937 5.65096061 111.108774 5.68085987 110.990447 5.68085987 110.457977 5.17257241 110.665049 4.33539306 110.487559 3.70750855 109.955088 3.13942256 109.363455 2.24244469 108.298515 2.06304911 107.618136 2.00325059 106.908176 2.18264616 106.523614 2.45173952 105.340347 7.23562152 105.961562 12.4978917 105.074112 17.4013708 105.074112 17.4013708 105.04453 17.43127 104.896622 17.43127 103.654192 16.055904 102.618833 14.4114445 101.317239 12.8566829 100.696024 11.6906116 100.074809 10.7338352 99.7494103 9.47806621 99.3352669 7.20572226 99.9269004 5.0230761 99.1577768 2.90022846 98.0632548 2.33214247 96.9391512 1.34546681 95.1346689 1.52486239 94.1584736 2.00325059 93.5668401 2.57133657 93.2710234 3.46831445 93.03437 5.41176651 92.5906448 7.20572226 93.0935333 9.05947653 93.3893501 9.77705883 92.9456249 10.4647419 93.2710234 11.0926264 93.2710234 13.5443659 92.8864616 16.0260047 92.4427364 18.3880464 92.1469197 19.1056287 92.3539914 19.7335132 92.0581747 20.391297 91.4369595 24.0091078 90.4016008 27.9558104 91.6144495 31.2746286 91.6440312 31.3344271 91.7919396 31.3344271 91.8215213 31.3643263 91.8215213 31.3942256 91.9102663 31.6035204 92.0581747 31.6035204L95.6375574 32.1417072 96.1996093 31.6334197C97.6491114 29.2115794 96.6137527 26.311351 97.2349679 23.7400144 97.501203 22.9327343 97.501203 22.215152 97.8266014 21.527469 97.8561831 20.6603904 97.9745098 19.5840169 98.68447 19.1953265 99.4831753 19.7335132 99.9860637 20.5407933 100.370626 21.527469 100.459371 21.9460587 100.696024 22.3048498 100.873514 22.783238 101.051004 23.1121299 101.346821 23.351324 101.405984 23.6802159 103.151303 25.8030635 104.038753 28.6434935 104.275407 31.2746286 104.452897 32.0819086 104.955785 32.6499946 105.340347 33.2778791 105.517837 33.4572747 105.784072 33.7263681 106.139052 33.8459651L106.139052 33.8459651zM125.189651 12.1988991L126.254592 12.0195035 126.57999 11.7803094C128.059074 11.2421227 129.301504 10.5843389 130.10021 9.38836842L130.10021 8.73058465C128.680289 7.59441267 126.432082 7.8934053 124.45011 7.68411046 124.331783 9.17907358 124.45011 10.7936338 125.130488 12.1988991L125.189651 12.1988991zM79.3380541 33.7263681L79.4267992 33.7263681 79.7521976 32.919088C79.7521976 32.8891887 79.8409426 32.8891887 79.9296876 32.8293902L81.083373 33.6665696 81.9708233 32.919088C83.1540903 32.3211027 85.1952259 32.1417072 85.3431343 30.5869455 85.8164411 28.703292 85.372716 26.8495377 84.6923374 25.1452797L84.3077756 24.6668916 83.3315803 23.5008203 83.0949269 23.5008203 81.8820782 24.5173952C81.260863 24.7565893 80.5804845 24.9359849 79.8409426 25.2349775 78.1843688 25.6535672 76.2319782 25.2947761 75.0487112 24.5173952 74.6345677 24.1287048 74.6345677 23.5008203 74.8712211 23.1121299 75.0487112 23.0523314 75.0487112 22.9327343 75.1374562 22.783238 75.3445279 22.5739432 75.9657431 22.5739432 76.2911415 22.3646483 78.0956238 22.0656557 80.1071777 22.1254542 81.5270981 21.2583756 83.7753055 21.6171668 85.6981144 20.4809948 87.73925 19.8830096 88.745027 19.0458302 88.5675369 17.4910686 88.4196286 16.3847958 88.1533935 16.055904 88.1533935 15.7569113 87.9167401 15.5177172 87.73925 14.7104371 87.2955249 14.0825526 86.9997081 13.5144666 86.644728 12.9463807 86.0530945 12.647388 85.4318793 12.4978917 83.6273971 13.5742652 80.8467196 14.5011423 78.2139505 14.5609408 78.0364604 14.5609408 77.8589703 14.4114445 77.799807 14.2021497 78.3914405 13.663963 78.4801855 12.647388 78.9239107 12.0195035 79.3380541 11.1823242 80.2846678 10.8534323 81.172118 10.4647419 82.9470186 10.4647419 84.6035924 9.65746178 86.3784929 9.89665588 88.0646485 9.567764 89.7212223 9.41826768 91.3482145 9.17907358 91.7919396 8.3717935 91.8215213 7.175823 91.7919396 6.15924807 91.2298877 5.41176651 90.5199275 4.51478864 90.6086726 3.5879115 90.0466207 2.90022846 89.0112621 2.45173952 87.8871584 2.42184026 86.9405448 2.45173952 86.0530945 2.69093362 85.372716 2.72083289 83.0949269 3.04972477 81.0242096 3.94670265 78.6576756 4.09619896 77.0898468 4.27559454 75.610763 4.75398274 74.6345677 5.5014643 74.0133525 6.00975176 73.510464 6.30874438 73.2442289 6.90672963 73.5696274 7.98310308 73.2146473 9.11927506 72.9188305 10.1657492 72.7117588 10.7338352 72.6230138 11.1823242 72.3863603 11.6308131 72.3863603 12.1092013 72.0905436 12.2586976 71.9426352 12.647388 71.6468185 13.0360784 71.6764001 13.5144666 71.3510017 13.8433585 70.4635514 16.5641914 70.3748064 19.4046214 69.6648462 22.1254542 69.2211211 24.2483019 69.3986111 26.5505451 70.5522965 28.3744001 71.9130535 29.4507735 71.6468185 31.4839234 73.510464 32.0819086 74.9599661 32.1417072 76.1432332 32.6499946 77.3560819 33.1582821L78.0956238 33.1582821C78.1843688 33.0685843 78.2139505 33.038685 78.3618588 33.0087858L79.2788908 33.7263681 79.3380541 33.7263681zM59.9916382 33.6665696L61.7369571 33.1582821C61.9144472 33.038685 62.0623555 32.8293902 62.4173357 32.8293902 63.2752042 32.5004983 63.9851645 32.1716064 64.2809812 31.3643263 64.9317781 29.390975 64.7247064 27.2382281 63.6301844 25.5638694 63.2752042 25.055582 62.9498058 24.4276975 62.1806822 24.3379997 61.0565786 25.2349775 59.4591681 25.8030635 57.7434309 25.2947761 56.6489089 25.0256827 55.909367 24.7565893 55.4360602 23.9792085 55.4360602 23.5008203 55.4656419 23.0822306 55.7022953 22.783238 55.7910403 22.7234395 55.9685304 22.663641 55.998112 22.5440439 56.826399 21.7666631 58.5717178 22.1254542 59.6662398 21.7068646 59.8141482 21.7666631 59.8141482 21.6171668 59.9916382 21.647066 60.1395466 21.6171668 60.1691283 21.5573683 60.2578733 21.527469 62.7131524 21.0191815 65.67132 21.647066 67.8307823 20.391297 68.0082724 20.2119014 68.2449258 20.2119014 68.2745074 20.0624051 68.1561807 19.5840169 68.0970174 19.1953265 67.949109 18.7169383 67.949109 18.0292553 67.5941289 17.4910686 67.5941289 16.8033855 67.2095671 16.2651988 67.2983121 15.8167099 66.9729137 15.3084224 66.8841687 14.9496312 66.6770969 14.8300342 66.5291886 14.5011423 66.2925352 14.2320489 66.2037901 14.1722504 66.1742085 14.0526534 63.5414393 13.2453733 60.5832718 15.5177172 57.7434309 14.6805379 57.6546859 14.5908401 57.5363592 14.5609408 57.4476141 14.5011423 57.5363592 13.6938622 57.5363592 12.7370858 58.0688293 12.1092013L58.4829728 11.8401079 62.3285906 10.6142382C64.9317781 10.2255478 67.8307823 10.2255478 70.3452247 9.23887211 70.9960216 8.76048391 71.14393 8.10270013 70.9664399 7.4150171 69.9014996 5.68085987 70.1677347 3.37861666 68.1561807 2.24244469 63.9260011 1.82385501 59.6662398 3.70750855 55.4360602 4.33539306 54.5190282 4.75398274 54.0457214 5.80045692 52.7737094 5.44166577 51.7975141 5.65096061 51.2058806 6.60773701 50.6734104 7.23562152 50.4071753 9.02957727 50.4071753 10.6142382 51.1171355 12.2885969 51.7679324 13.1257762 52.5962193 13.8134593 51.9750041 14.9496312 51.620024 16.055904 50.9988088 16.9528818 50.6438287 18.0292553 49.8451235 20.959383 49.6084701 23.8297122 50.3184303 26.7000414 50.6438287 28.0156089 50.9988088 29.3012772 52.0637492 30.1085573 52.7737094 30.7065426 53.4540879 31.4839234 54.4894466 31.6035204L55.820622 32.1417072C55.909367 32.1716064 55.9685304 32.2912035 56.0868571 32.3211027 56.2347654 32.3809013 56.2643471 32.3809013 56.4122555 32.4108005 56.5601639 32.4108005 56.5601639 32.4108005 56.6489089 32.3211027L58.3350644 33.1582821 59.9916382 33.6665696zM33.3089668 33.3376777L34.018927 33.2180806C35.4684291 32.0819086 35.4684291 30.0188595 35.024704 28.3744001 34.8472139 26.5804443 34.3739071 24.5173952 35.9417359 23.3214247 36.296716 23.4410218 36.1783893 23.9493093 36.4742061 24.1287048 37.7462181 24.9957834 38.8999035 25.8927613 39.9944255 26.879437 41.2664376 27.9558104 42.0355611 29.0620831 42.8934297 30.2879529 42.8934297 30.3178522 43.1005014 30.3477514 43.1596648 30.4673485 43.5146449 31.1849308 44.4020952 31.6035204 45.2303821 31.9025131 45.881179 31.9922109 46.6503025 31.9922109 47.0052826 31.6334197 47.7744062 31.095233 47.9518963 30.4374492 48.4843664 29.8095647 49.3718167 28.6434935 49.5493067 26.8495377 48.8097648 25.5339702 48.2772947 24.6668916 47.2715177 23.9792085 46.4728125 23.351324 45.0824737 22.3646483 43.4850632 21.2284764 43.1005014 19.8531103 43.5146449 19.1654273 44.1358601 18.447845 44.4612585 17.9395575 45.052892 17.4013708 45.2303821 16.8033855 45.5261988 16.2352995 46.7094659 12.647388 46.7390475 8.90998022 44.9049837 5.5014643 44.0175334 3.70750855 42.5384496 1.88365354 40.7931307.867078612 38.5153417.4783882 36.0896443.179395575 34.018927 1.13617197 32.5102616 1.82385501 32.0961181 3.22912035 31.6228113 4.60448642 31.3861579 6.03965102 31.6228113 7.50471488 32.3327715 8.73058465 32.5990066 9.11927506 32.8060783 9.29867063 33.0427317 9.62756252L31.6228113 14.7403364 29.9662374 15.3682209C29.9070741 15.3981202 29.8479107 15.3981202 29.7591657 15.5177172L29.5816757 16.2950981 29.2266956 16.4146951C28.8421338 18.2684494 28.8421338 20.3613978 30.4099626 21.7666631 30.5282893 24.9957834 28.6054804 28.4939971 30.5282893 31.5138227 31.0311778 32.0819086 31.3269945 32.7396924 31.918628 33.1582821 31.9777914 33.1582821 32.0073731 33.1881814 32.0961181 33.2180806L32.7764966 33.1582821 33.1314767 33.3376777 33.3089668 33.3376777zM37.5983098 14.4114445C39.0478119 14.2021497 39.5211187 13.1855748 40.1719156 12.3782947 40.7339674 11.1823242 41.4439276 9.8069581 40.7931307 8.73058465 40.4677323 8.16249866 39.9352621 7.50471488 39.1365569 7.47481562 38.8703218 7.47481562 38.6928318 7.35521857 38.5449234 7.35521857 38.1899433 9.567764 38.0124532 12.0195035 37.5687281 14.351646L37.5983098 14.4114445zM170.745432 32.5004983L171.692046 32.5004983 172.283679 32.0221101C174.383978 29.0022846 172.283679 25.4442724 173.082384 22.1254542 173.141548 21.9460587 173.171129 21.9161594 173.259874 21.7965624 174.05858 22.5739432 174.383978 23.9792085 175.241847 24.8761864L176.632185 25.9824591C176.632185 25.9824591 176.661767 26.0721569 176.661767 26.1618547 179.3537 28.5537957 182.075214 30.7065426 185.920832 31.8427145 186.749118 31.9922109 187.547824 32.1716064 188.316947 32.1716064 188.435274 32.1716064 188.346529 32.2912035 188.583182 32.2912035 189.973521 32.3211027 191.482187 32.3211027 192.458382 31.3942256 192.724617 31.1251322 192.96127 30.8261396 193.286669 30.5869455 193.31625 30.3178522 193.552904 30.2879529 193.582486 30.1085573 193.582486 29.9291617 193.730394 29.7796654 193.907884 29.6002699L195.031988 26.8196384C195.031988 26.8196384 195.150314 26.7000414 195.209478 26.7000414 197.073123 28.4640979 198.877605 30.8560389 202.397825 31.1849308L204.468542 31.1849308C205.089757 30.8560389 205.858881 30.9457367 206.657586 30.7065426 208.31416 30.5869455 209.941152 30.2879529 211.242746 29.6002699L212.071033 28.7929898C212.89932 27.3877244 212.89932 25.4442724 212.633085 23.9493093 212.159778 23.3214247 211.508981 23.1121299 211.065256 22.663641 211.006093 22.5739432 211.006093 22.3646483 211.154001 22.215152L213.195137 21.4078719C214.555894 20.0624051 214.85171 17.7900612 214.171332 15.9662062 213.60928 14.8300342 213.195137 13.663963 211.952706 13.0360784 211.686471 12.9463807 211.449818 12.9463807 211.242746 12.8566829 209.112865 14.1722504 205.888463 13.7536607 203.226112 13.5443659 202.811968 13.0360784 203.403602 12.1988991 203.610674 11.4813168 204.024817 10.5544397 205.060176 9.77705883 206.391351 9.71726031 206.539259 9.71726031 206.539259 9.62756252 206.657586 9.567764 206.71675 9.567764 206.835076 9.62756252 206.982985 9.62756252L208.49165 9.38836842C208.639558 9.29867063 208.639558 9.26877137 208.757885 9.23887211L211.154001 8.96977875 218.253603 8.3717935 220.087667 7.98310308C220.413065 8.10270013 220.945536 7.98310308 221.300516 7.86350603 221.566751 7.86350603 221.744241 7.8934053 222.010476 7.83360677L223.371233 8.3717935 223.66705 8.3717935C223.814958 8.22229718 224.140357 8.22229718 224.406592 8.10270013L224.791153 7.83360677 224.791153 7.59441267C224.672827 6.03965102 225.116552 4.45499011 224.436173 3.04972477 223.755795 1.82385501 223.282488.508287462 221.625914.059798525 215.709579 1.6743587 209.881989 2.33214247 203.936072 3.79720634 203.699419 3.73740781 203.669837 3.70750855 203.521929 3.70750855 201.747028 4.09619896 199.557984 4.27559454 198.729697 5.68085987 197.428103 7.50471488 198.522625 9.47806621 197.605593 11.1823242 196.984378 12.6772873 196.422326 14.0825526 195.860275 15.6373143 195.682785 16.3847958 195.386968 17.0724789 195.327804 17.6405649 194.677008 19.3448228 195.298223 21.0490808 194.529099 22.663641 194.440354 22.663641 194.410772 22.663641 194.262864 22.5739432L193.552904 21.2583756C192.60629 21.2583756 192.014657 21.8862601 191.393442 22.4244469 191.304697 22.6038424 191.215951 22.663641 191.097625 22.783238 189.796031 23.6802159 187.48866 23.9493093 185.71376 23.351324 184.915055 23.0822306 183.998023 22.9327343 183.643043 22.4244469 182.045632 21.3779727 179.974915 20.2119014 178.762066 18.5076435 179.087464 17.4910686 179.028301 16.4744936 179.70868 15.6373143 179.88617 14.919732 180.507385 14.5011423 180.832783 13.8433585 181.631489 12.7370858 182.400612 11.7803094 183.376807 10.9431301L185.122126 9.8069581C185.388361 9.89665588 185.388361 9.567764 185.71376 9.62756252L187.015354 9.23887211C187.13368 9.11927506 187.31117 9.11927506 187.48866 9.11927506 187.636569 9.17907358 187.695732 9.23887211 187.873222 9.29867063 188.169039 9.62756252 188.139457 10.2255478 187.961967 10.6142382 187.370334 11.7803094 187.695732 13.1855748 187.961967 14.2021497 187.991549 14.351646 188.050712 14.4114445 188.139457 14.5011423 188.938162 14.9496312 189.470633 15.6373143 190.683481 15.9064076L192.60629 15.9662062C192.78378 15.9064076 192.931689 15.6373143 193.13876 15.5775158 195.327804 12.7968843 195.505294 8.73058465 193.848721 5.62106135 193.227505 4.72408347 192.340055 3.55801224 191.097625 3.07962404 190.505991 3.04972477 189.796031 3.04972477 189.233979 3.13942256 186.216648 3.46831445 183.554297 4.51478864 181.335672 5.68085987 180.211568 6.30874438 178.850811 6.78713258 178.229596 7.74390898 178.052106 8.07280087 177.637962 8.07280087 177.578799 8.3717935L176.484277 8.90998022C176.306787 10.0461522 175.005193 10.6142382 174.709376 11.7504102 174.295233 12.527791 174.028998 13.3350711 173.614854 14.0227541 173.496528 14.0227541 173.437364 14.0227541 173.437364 13.9330563 172.283679 9.62756252 172.313261 4.45499011 168.704296 1.25576902 167.905591 1.13617197 167.077304.4783882 166.249017.986675662 166.041946 1.07637345 166.041946 1.16607124 165.9532 1.34546681 165.568639 1.64445944 165.302404 2.06304911 164.769933 2.42184026 164.030392 3.19922109 163.497921 3.94670265 162.876706 4.72408347 162.255491 5.80045692 161.456786 6.96652816 160.865152 8.16249866 159.711467 10.5843389 158.70569 13.0360784 157.492841 15.3981202 157.315351 16.055904 156.694136 16.5043929 156.220829 16.9229826 155.658777 19.5840169 154.771327 22.783238 152.937263 25.2349775 152.52312 25.8329628 152.671028 26.5804443 152.227303 27.1186311 151.901905 28.3744001 152.316048 29.5105721 152.671028 30.4972477L152.937263 30.9756359C153.913458 31.1849308 154.741745 31.663319 155.392542 32.2912035 156.694136 31.7231175 157.226606 30.7065426 157.729495 29.7198669 158.143638 28.1053067 158.616945 26.5804443 159.563559 25.2349775 160.451009 23.9493093 162.551308 24.0988056 164.119137 23.4410218 165.154495 23.4709211 166.426507 23.0822306 167.313958 23.5905181 168.171826 25.3844738 166.722324 27.7166163 167.668938 29.6002699 167.816846 30.7065426 168.290153 31.4839234 169.325512 32.0819086 169.591747 32.1417072 169.739655 32.2912035 169.917145 32.3211027L170.656687 32.5303976 170.745432 32.5004983zM203.344439 24.0988056C204.438961 24.1586041 205.237666 23.0822306 206.213861 23.4410218 206.391351 23.5008203 206.539259 23.5905181 206.657586 23.5905181 207.692945 23.4709211 208.580395 22.5739432 209.881989 22.663641 209.941152 22.663641 210.059479 22.6038424 210.059479 22.5440439L206.273024 22.0656557C205.267247 22.3646483 204.26147 21.9161594 203.226112 22.2749506 202.397825 22.215152 201.480793 21.7965624 200.977904 22.3048498L200.741251 22.8729358 203.344439 24.0988056zM164.53328 15.2187246L166.603997 15.0692283C166.692742 15.0692283 166.722324 15.0094298 166.870232 14.9496312 167.728101 13.3350711 167.313958 11.4813168 167.313958 9.71726031 167.313958 9.47806621 166.899814 9.567764 166.722324 9.53786473L164.207882 15.0692283C164.207882 15.0991276 164.444535 15.2187246 164.53328 15.2187246L164.53328 15.2187246z"/>
  </g>
</svg>