<svg xmlns="http://www.w3.org/2000/svg" width="250" height="100" viewBox="0 0 250 100">
  <g fill="#FFFFFF" fill-rule="evenodd">
    <path d="M99.4071272,49.8008772 C99.4071272,22.3480263 77.1516447,0.0958333333 49.7020833,0.0958333333 C22.2536184,0.0958333333 0.000328947368,22.3480263 0.000328947368,49.8008772 C0.000328947368,65.202193 7.0058114,78.9653509 18.0036184,88.0837719 L18.0036184,58.2449561 L10.3424342,58.2449561 L34.123136,38.572807 L46.9619518,49.2372807 L46.9619518,35.0596491 L39.301864,35.0596491 L63.0792763,15.385307 L86.5145833,34.8524123 L79.2656798,34.8524123 L79.2656798,89.7526316 C91.4838816,80.697807 99.4071272,66.1758772 99.4071272,49.8008772"/>
    <path d="M53.0729167 47.9076754L49.2110746 51.1028509 46.9599781 52.9614035 29.2911184 67.5820175 36.9533991 67.5820175 36.9533991 97.8462719C37.3525219 97.9515351 37.7560307 98.0458333 38.1551535 98.1423246 41.0038377 98.8199561 43.9468202 99.2640351 46.9599781 99.4252193 47.8689693 99.4745614 48.783443 99.5052632 49.7012061 99.5052632 56.6452851 99.5052632 63.2571272 98.0732456 69.2593202 95.5019737L69.2593202 67.3725877 76.5071272 67.3725877 53.0729167 47.9076754zM116.041886 25.5297149C116.041886 20.0023026 118.636184 17.2391447 123.820395 17.2391447 124.955263 17.2391447 126.068202 17.3970395 127.164693 17.7150219 128.257895 18.0341009 128.808333 18.4189693 128.808333 18.8696272 128.808333 19.210636 128.624123 19.6601974 128.257895 20.2183114 127.894956 20.7775219 127.571491 21.0571272 127.294079 21.0571272 127.248026 21.0571272 127.075877 20.9968202 126.779825 20.8718202 125.926754 20.4979167 124.915789 20.3126096 123.751316 20.3126096 121.067105 20.3126096 119.720614 22.0713816 119.720614 25.5878289 119.720614 29.1042763 121.048465 30.8630482 123.70636 30.8630482 124.325877 30.8630482 124.928947 30.8104167 125.523246 30.6996711L125.523246 27.7435307 123.471711 27.7435307C123.007895 27.7435307 122.773246 27.3542763 122.773246 26.579057L122.773246 25.833443C122.773246 25.0560307 123.007895 24.6689693 123.471711 24.6689693L128.200877 24.6689693C128.821491 24.6689693 129.131798 24.9803728 129.131798 25.5998904L129.131798 32.0746711C129.131798 32.4463816 128.93443 32.7654605 128.538596 33.0286184 128.142763 33.2939693 127.632895 33.4803728 127.012281 33.5900219 125.894956 33.8060307 124.791886 33.9145833 123.70636 33.9145833 121.095614 33.9145833 119.167982 33.2336623 117.916886 31.8783991 116.665789 30.51875 116.041886 28.4036184 116.041886 25.5297149M133.549342 33.0296053L133.549342 18.3563596C133.549342 17.7357456 133.859649 17.4254386 134.479167 17.4254386L139.02193 17.4254386C142.888158 17.4254386 144.822368 18.8848684 144.822368 21.8037281 144.822368 22.6732456 144.577851 23.4309211 144.086623 24.0745614 143.600877 24.7192982 142.935307 25.1962719 142.097588 25.5065789L142.097588 25.6019737C142.391447 25.7083333 142.695175 25.9703947 143.005482 26.3804825 143.315789 26.7927632 143.572368 27.2467105 143.773026 27.7434211L145.822368 32.8662281C145.901316 33.0701754 145.942982 33.2160088 145.942982 33.3092105 145.942982 33.6195175 145.472588 33.7763158 144.54057 33.7763158L143.587719 33.7763158C142.811404 33.7763158 142.358553 33.6129386 142.235746 33.2872807L140.39693 28.7434211C140.133772 28.2324561 139.848684 27.872807 139.547149 27.6600877 139.243421 27.4517544 138.742325 27.3453947 138.044956 27.3453947L137.135965 27.3453947 137.135965 33.0296053C137.135965 33.5274123 136.669956 33.7763158 135.739035 33.7763158L134.945175 33.7763158C134.014254 33.7763158 133.549342 33.5274123 133.549342 33.0296053L133.549342 33.0296053zM137.135965 24.2489035L139.347588 24.2489035C139.828947 24.2489035 140.247807 24.0548246 140.60636 23.6655702 140.961623 23.2774123 141.14364 22.8092105 141.14364 22.2576754 141.14364 21.7050439 140.964912 21.2719298 140.618421 20.9539474 140.267544 20.6348684 139.79057 20.4747807 139.186404 20.4747807L137.135965 20.4747807 137.135965 24.2489035zM150.427193 31.7591009C149.135526 30.3248904 148.492982 28.2634868 148.492982 25.5759868 148.492982 22.8917763 149.135526 20.8292763 150.427193 19.3917763 151.71557 17.9575658 153.562061 17.2382675 155.971053 17.2382675 158.376754 17.2382675 160.221053 17.9575658 161.500658 19.3917763 162.782456 20.8292763 163.423904 22.8917763 163.423904 25.5759868 163.423904 28.2634868 162.782456 30.3248904 161.500658 31.7591009 160.221053 33.1976974 158.376754 33.9158991 155.971053 33.9158991 153.562061 33.9158991 151.71557 33.1976974 150.427193 31.7591009M153.139912 29.5134868C153.783553 30.4115132 154.725439 30.864364 155.971053 30.864364 157.211184 30.864364 158.150877 30.4115132 158.787939 29.5134868 159.426096 28.6132675 159.741886 27.3007675 159.741886 25.5759868 159.741886 23.8533991 159.426096 22.5441886 158.787939 21.6527412 158.150877 20.7601974 157.211184 20.3139254 155.971053 20.3139254 154.725439 20.3139254 153.783553 20.7601974 153.139912 21.6527412 152.496272 22.5441886 152.173904 23.8533991 152.173904 25.5759868 152.173904 27.3007675 152.496272 28.6132675 153.139912 29.5134868M167.301864 28.2774123L167.301864 18.122807C167.301864 17.627193 167.768969 17.3782895 168.700987 17.3782895L169.492654 17.3782895C170.425768 17.3782895 170.888487 17.627193 170.888487 18.122807L170.888487 28.0449561C170.888487 28.8673246 171.184539 29.5449561 171.776645 30.0734649 172.362171 30.5997807 173.125329 30.8640351 174.05625 30.8640351 174.988268 30.8640351 175.753618 30.5997807 176.351206 30.0734649 176.948794 29.5449561 177.249232 28.8673246 177.249232 28.0449561L177.249232 18.122807C177.249232 17.627193 177.716338 17.3782895 178.646162 17.3782895L179.415899 17.3782895C180.345724 17.3782895 180.812829 17.627193 180.812829 18.122807L180.812829 28.2774123C180.812829 30.0635965 180.220724 31.4506579 179.040899 32.435307 177.862171 33.4221491 176.19989 33.9166667 174.05625 33.9166667 171.914803 33.9166667 170.252522 33.4221491 169.072697 32.435307 167.891776 31.4506579 167.301864 30.0635965 167.301864 28.2774123M185.250439 33.0296053L185.250439 18.1239035C185.250439 17.627193 185.717544 17.3782895 186.649561 17.3782895L187.649561 17.3782895C188.394079 17.3782895 188.910526 17.5877193 189.187939 18.0076754L195.315132 27.439693 195.315132 18.1239035C195.315132 17.627193 195.780044 17.3782895 196.710965 17.3782895L197.385307 17.3782895C198.317325 17.3782895 198.785526 17.627193 198.785526 18.1239035L198.785526 33.0296053C198.785526 33.5274123 198.317325 33.7763158 197.385307 33.7763158L196.502632 33.7763158C195.755921 33.7763158 195.24386 33.566886 194.964254 33.1458333L188.72193 23.5964912 188.72193 33.0296053C188.72193 33.5274123 188.254825 33.7763158 187.326096 33.7763158L186.649561 33.7763158C185.717544 33.7763158 185.250439 33.5274123 185.250439 33.0296053M203.293311 32.7961623L203.293311 18.3553728C203.293311 17.7347588 203.602522 17.4233553 204.225329 17.4233553L209.443531 17.4233553C211.849232 17.4233553 213.695724 18.1273026 214.973136 19.5330044 216.257127 20.9365132 216.897478 22.9529605 216.897478 25.576864 216.897478 28.1996711 216.257127 30.2150219 214.973136 31.6196272 213.695724 33.0264254 211.849232 33.7281798 209.443531 33.7281798L204.225329 33.7281798C203.602522 33.7281798 203.293311 33.4167763 203.293311 32.7961623L203.293311 32.7961623zM206.904057 30.6777412L209.443531 30.6777412C210.683662 30.6777412 211.624452 30.2435307 212.261513 29.3729167 212.897478 28.5044956 213.216557 27.2358553 213.216557 25.576864 213.216557 23.9134868 212.897478 22.6503289 212.261513 21.7808114 211.624452 20.9091009 210.683662 20.4759868 209.443531 20.4759868L206.904057 20.4759868 206.904057 30.6777412zM220.775 32.7961623L220.775 18.3553728C220.775 17.7347588 221.085307 17.4233553 221.708114 17.4233553L230.233333 17.4233553C230.698246 17.4233553 230.931798 17.8126096 230.931798 18.5889254L230.931798 19.3104167C230.931798 20.0867325 230.698246 20.4759868 230.233333 20.4759868L224.363816 20.4759868 224.363816 23.8542763 229.602851 23.8542763C230.072149 23.8542763 230.301316 24.2424342 230.301316 25.0176535L230.301316 25.7380482C230.301316 26.5154605 230.072149 26.9036184 229.602851 26.9036184L224.363816 26.9036184 224.363816 30.6777412 230.25636 30.6777412C230.722368 30.6777412 230.953728 31.0658991 230.953728 31.8411184L230.953728 32.5637061C230.953728 33.3411184 230.722368 33.7281798 230.25636 33.7281798L221.708114 33.7281798C221.085307 33.7281798 220.775 33.4167763 220.775 32.7961623M234.788487 32.7961623L234.788487 18.3553728C234.788487 17.7347588 235.098794 17.4233553 235.718311 17.4233553L240.936513 17.4233553C243.344408 17.4233553 245.189803 18.1273026 246.469408 19.5330044 247.751206 20.9365132 248.390461 22.9529605 248.390461 25.576864 248.390461 28.1996711 247.751206 30.2150219 246.469408 31.6196272 245.189803 33.0264254 243.344408 33.7281798 240.936513 33.7281798L235.718311 33.7281798C235.098794 33.7281798 234.788487 33.4167763 234.788487 32.7961623L234.788487 32.7961623zM238.399232 30.6777412L240.936513 30.6777412C242.179934 30.6777412 243.119627 30.2435307 243.756689 29.3729167 244.390461 28.5044956 244.711732 27.2358553 244.711732 25.576864 244.711732 23.9134868 244.390461 22.6503289 243.756689 21.7808114 243.119627 20.9091009 242.179934 20.4759868 240.936513 20.4759868L238.399232 20.4759868 238.399232 30.6777412zM115.507566 56.9479167C115.507566 56.591557 115.683004 56.15625 116.040461 55.6452851 116.40011 55.1310307 116.701645 54.8744518 116.948355 54.8744518 117.042654 54.8744518 117.244408 54.9621711 117.556908 55.1310307 118.517434 55.6748904 119.458224 55.9479167 120.373794 55.9479167 121.83432 55.9479167 122.564583 55.3799342 122.564583 54.2450658 122.564583 53.7494518 122.332127 53.3294956 121.865022 52.9873904 121.397917 52.6474781 120.836513 52.348136 120.176425 52.091557 119.515241 51.8360746 118.860636 51.5422149 118.207127 51.2077851 117.556908 50.8711623 116.997697 50.3569079 116.531689 49.6573465 116.066776 48.9588816 115.832127 48.0838816 115.832127 47.0378289 115.832127 45.9884868 116.111732 45.09375 116.672039 44.348136 117.679715 42.9972588 119.241118 42.3218202 121.352961 42.3218202 122.532785 42.3218202 123.527303 42.4917763 124.33432 42.8338816 125.141338 43.1726974 125.545943 43.5466009 125.545943 43.9512061 125.545943 44.2933114 125.397917 44.716557 125.101864 45.220943 124.806908 45.7253289 124.528399 45.9775219 124.264145 45.9775219 124.201645 45.9775219 124.061294 45.9237939 123.844189 45.8141447 123.224671 45.5367325 122.505373 45.3952851 121.69068 45.3952851 120.875987 45.3952851 120.309101 45.5367325 119.990022 45.8141447 119.672039 46.095943 119.513048 46.4424342 119.513048 46.8634868 119.513048 47.283443 119.744408 47.6551535 120.210417 47.9797149 120.677522 48.3075658 121.236732 48.595943 121.888048 48.8426535 122.540461 49.0904605 123.196162 49.3832237 123.85625 49.7154605 124.517434 50.0509868 125.078838 50.5674342 125.545943 51.2637061 126.008662 51.9654605 126.243311 52.7976974 126.243311 53.7691886 126.243311 54.7406798 126.091996 55.5685307 125.789364 56.2615132 125.488925 56.9533991 125.073355 57.4928728 124.54375 57.8810307 123.518531 58.6255482 122.259759 58.9972588 120.77182 58.9972588 119.280592 58.9972588 118.030592 58.7724781 117.019627 58.3218202 116.009759 57.8733553 115.507566 57.4139254 115.507566 56.9479167M131.255702 56.841886C129.966228 55.4076754 129.321491 53.3473684 129.321491 50.6609649 129.321491 47.9745614 129.966228 45.9120614 131.255702 44.4745614 132.545175 43.0403509 134.39057 42.3210526 136.799561 42.3210526 139.20636 42.3210526 141.049561 43.0403509 142.333553 44.4745614 143.613158 45.9120614 144.253509 47.9745614 144.253509 50.6609649 144.253509 53.3473684 143.613158 55.4076754 142.333553 56.841886 141.049561 58.2804825 139.20636 58.9964912 136.799561 58.9964912 134.39057 58.9964912 132.545175 58.2804825 131.255702 56.841886M133.968421 54.5962719C134.614254 55.4953947 135.55614 55.9471491 136.799561 55.9471491 138.040789 55.9471491 138.979386 55.4953947 139.617544 54.5962719 140.255702 53.6960526 140.573684 52.3824561 140.573684 50.6609649 140.573684 48.9361842 140.255702 47.6269737 139.617544 46.7366228 138.979386 45.8429825 138.040789 45.3967105 136.799561 45.3967105 135.55614 45.3967105 134.614254 45.8429825 133.968421 46.7366228 133.325877 47.6269737 133.002412 48.9361842 133.002412 50.6609649 133.002412 52.3824561 133.325877 53.6960526 133.968421 54.5962719M148.541557 57.8804825L148.541557 43.2072368C148.541557 42.7094298 149.007566 42.4605263 149.94068 42.4605263L150.732346 42.4605263C151.662171 42.4605263 152.12818 42.7094298 152.12818 43.2072368L152.12818 55.7598684 157.322259 55.7598684C157.789364 55.7598684 158.02182 56.1480263 158.02182 56.9254386L158.02182 57.6458333C158.02182 58.4232456 157.789364 58.8114035 157.322259 58.8114035L149.472478 58.8114035C148.851864 58.8114035 148.541557 58.5010965 148.541557 57.8804825M161.377083 53.3607456L161.377083 43.2050439C161.377083 42.7105263 161.846382 42.4594298 162.772917 42.4594298L163.568969 42.4594298C164.498794 42.4594298 164.963706 42.7105263 164.963706 43.2050439L164.963706 53.1282895C164.963706 53.9528509 165.260855 54.627193 165.850768 55.1524123 166.438487 55.6842105 167.201645 55.9473684 168.133662 55.9473684 169.06568 55.9473684 169.829934 55.6842105 170.427522 55.1524123 171.024013 54.627193 171.323355 53.9528509 171.323355 53.1282895L171.323355 43.2050439C171.323355 42.7105263 171.788268 42.4594298 172.721382 42.4594298L173.491118 42.4594298C174.420943 42.4594298 174.886952 42.7105263 174.886952 43.2050439L174.886952 53.3607456C174.886952 55.1480263 174.297039 56.5339912 173.117215 57.5197368 171.93739 58.5054825 170.276206 58.997807 168.133662 58.997807 165.990022 58.997807 164.326645 58.5054825 163.14682 57.5197368 161.966996 56.5339912 161.377083 55.1480263 161.377083 53.3607456M182.646272 58.1123904L182.646272 45.5619518 178.943421 45.5619518C178.476316 45.5619518 178.24386 45.1716009 178.24386 44.3941886L178.24386 43.6737939C178.24386 42.8952851 178.476316 42.5060307 178.943421 42.5060307L189.958772 42.5060307C190.425877 42.5060307 190.65943 42.8952851 190.65943 43.6737939L190.65943 44.3941886C190.65943 45.1716009 190.425877 45.5619518 189.958772 45.5619518L186.257018 45.5619518 186.257018 58.1123904C186.257018 58.6101974 185.792105 58.8591009 184.860088 58.8591009L184.045395 58.8591009C183.113377 58.8591009 182.646272 58.6101974 182.646272 58.1123904M193.947368 58.1123904L193.947368 43.2066886C193.947368 42.6924342 194.414474 42.4369518 195.343202 42.4369518L196.161184 42.4369518C197.091009 42.4369518 197.558114 42.6924342 197.558114 43.2066886L197.558114 58.1123904C197.558114 58.6266447 197.091009 58.8821272 196.161184 58.8821272L195.343202 58.8821272C194.414474 58.8821272 193.947368 58.6266447 193.947368 58.1123904M203.662719 56.841886C202.374342 55.4076754 201.729605 53.3473684 201.729605 50.6609649 201.729605 47.9745614 202.374342 45.9120614 203.662719 44.4745614 204.952193 43.0403509 206.797588 42.3210526 209.207675 42.3210526 211.614474 42.3210526 213.458772 43.0403509 214.74057 44.4745614 216.020175 45.9120614 216.660526 47.9745614 216.660526 50.6609649 216.660526 53.3473684 216.020175 55.4076754 214.74057 56.841886 213.458772 58.2804825 211.614474 58.9964912 209.207675 58.9964912 206.797588 58.9964912 204.952193 58.2804825 203.662719 56.841886M206.375439 54.5962719C207.021272 55.4953947 207.964254 55.9471491 209.207675 55.9471491 210.447807 55.9471491 211.389693 55.4953947 212.024561 54.5962719 212.661623 53.6960526 212.979605 52.3824561 212.979605 50.6609649 212.979605 48.9361842 212.661623 47.6269737 212.024561 46.7366228 211.389693 45.8429825 210.447807 45.3967105 209.207675 45.3967105 207.964254 45.3967105 207.021272 45.8429825 206.375439 46.7366228 205.732895 47.6269737 205.40943 48.9361842 205.40943 50.6609649 205.40943 52.3824561 205.732895 53.6960526 206.375439 54.5962719M220.948465 58.1123904L220.948465 43.2066886C220.948465 42.7099781 221.41557 42.4610746 222.346491 42.4610746L223.347588 42.4610746C224.093202 42.4610746 224.60636 42.6694079 224.885965 43.0904605L231.013158 52.5235746 231.013158 43.2066886C231.013158 42.7099781 231.475877 42.4610746 232.408991 42.4610746L233.083333 42.4610746C234.013158 42.4610746 234.480263 42.7099781 234.480263 43.2066886L234.480263 58.1123904C234.480263 58.6101974 234.013158 58.8591009 233.083333 58.8591009L232.198465 58.8591009C231.453947 58.8591009 230.941886 58.6496711 230.662281 58.2308114L224.419956 48.6803728 224.419956 58.1123904C224.419956 58.6101974 223.952851 58.8591009 223.020833 58.8591009L222.346491 58.8591009C221.41557 58.8591009 220.948465 58.6101974 220.948465 58.1123904M238.2375 56.9479167C238.2375 56.591557 238.412939 56.15625 238.770395 55.6452851 239.126754 55.1310307 239.429386 54.8744518 239.678289 54.8744518 239.772588 54.8744518 239.974342 54.9621711 240.284649 55.1310307 241.246272 55.6748904 242.188158 55.9479167 243.102632 55.9479167 244.562061 55.9479167 245.293421 55.3799342 245.293421 54.2450658 245.293421 53.7494518 245.059868 53.3294956 244.592763 52.9873904 244.127851 52.6474781 243.563158 52.348136 242.90636 52.091557 242.245175 51.8360746 241.588377 51.5422149 240.937061 51.2077851 240.284649 50.8711623 239.726535 50.3569079 239.261623 49.6573465 238.794518 48.9588816 238.559868 48.0838816 238.559868 47.0378289 238.559868 45.9884868 238.839474 45.09375 239.399781 44.348136 240.409649 42.9972588 241.96886 42.3218202 244.080702 42.3218202 245.262719 42.3218202 246.255044 42.4917763 247.063158 42.8338816 247.869079 43.1726974 248.271491 43.5466009 248.271491 43.9512061 248.271491 44.2933114 248.127851 44.716557 247.830702 45.220943 247.536842 45.7253289 247.258333 45.9775219 246.991886 45.9775219 246.930482 45.9775219 246.791228 45.9237939 246.574123 45.8141447 245.952412 45.5367325 245.235307 45.3952851 244.418421 45.3952851 243.603728 45.3952851 243.039035 45.5367325 242.71886 45.8141447 242.401974 46.095943 242.240789 46.4424342 242.240789 46.8634868 242.240789 47.283443 242.473246 47.6551535 242.938158 47.9797149 243.405263 48.3075658 243.964474 48.595943 244.617982 48.8426535 245.269298 49.0904605 245.923904 49.3832237 246.585088 49.7154605 247.245175 50.0509868 247.807675 50.5674342 248.271491 51.2637061 248.738596 51.9654605 248.973246 52.7976974 248.973246 53.7691886 248.973246 54.7406798 248.82193 55.5685307 248.517105 56.2615132 248.214474 56.9533991 247.798904 57.4928728 247.273684 57.8810307 246.246272 58.6255482 244.989693 58.9972588 243.498465 58.9972588 242.007237 58.9972588 240.758333 58.7724781 239.749561 58.3218202 238.7375 57.8733553 238.2375 57.4139254 238.2375 56.9479167M116.601974 83.1951754L116.601974 68.2916667C116.601974 67.7927632 117.067982 67.5460526 117.996711 67.5460526L119 67.5460526C119.745614 67.5460526 120.259868 67.7554825 120.537281 68.1732456L126.664474 77.6052632 126.664474 68.2916667C126.664474 67.7927632 127.129386 67.5460526 128.061404 67.5460526L128.734649 67.5460526C129.666667 67.5460526 130.132675 67.7927632 130.132675 68.2916667L130.132675 83.1951754C130.132675 83.6929825 129.666667 83.941886 128.734649 83.941886L127.85307 83.941886C127.10636 83.941886 126.593202 83.7324561 126.314693 83.3135965L120.072368 73.7642544 120.072368 83.1951754C120.072368 83.6929825 119.605263 83.941886 118.675439 83.941886L117.996711 83.941886C117.067982 83.941886 116.601974 83.6929825 116.601974 83.1951754M137.836842 82.9632675L137.836842 68.5224781C137.836842 67.901864 138.144956 67.5904605 138.767763 67.5904605L147.294079 67.5904605C147.757895 67.5904605 147.991447 67.9797149 147.991447 68.7549342L147.991447 69.4786184C147.991447 70.2560307 147.757895 70.6408991 147.294079 70.6408991L141.422368 70.6408991 141.422368 74.0191886 146.6625 74.0191886C147.129605 74.0191886 147.362061 74.4073465 147.362061 75.1847588L147.362061 75.9051535C147.362061 76.6836623 147.129605 77.0718202 146.6625 77.0718202L141.422368 77.0718202 141.422368 80.8448465 147.314912 80.8448465C147.782018 80.8448465 148.014474 81.2330044 148.014474 82.0082237L148.014474 82.7308114C148.014474 83.5060307 147.782018 83.8941886 147.314912 83.8941886L138.767763 83.8941886C138.144956 83.8941886 137.836842 83.5838816 137.836842 82.9632675M158.022368 83.1951754L158.022368 70.6403509 154.319518 70.6403509C153.852412 70.6403509 153.619956 70.2554825 153.619956 69.4791667L153.619956 68.754386C153.619956 67.9791667 153.852412 67.5910088 154.319518 67.5910088L165.334868 67.5910088C165.800877 67.5910088 166.037719 67.9791667 166.037719 68.754386L166.037719 69.4791667C166.037719 70.2554825 165.800877 70.6403509 165.334868 70.6403509L161.633114 70.6403509 161.633114 83.1951754C161.633114 83.6929825 161.168202 83.941886 160.236184 83.941886L159.421491 83.941886C158.489474 83.941886 158.022368 83.6929825 158.022368 83.1951754M170.616996 68.1494518C170.616996 67.745943 171.097259 67.5452851 172.058882 67.5452851L172.666338 67.5452851C173.599452 67.5452851 174.118092 67.7843202 174.227741 68.2667763L175.974452 75.7667763C176.004057 75.8753289 176.246382 76.99375 176.695943 79.1198465 176.789145 78.5025219 177.052303 77.3819079 177.489803 75.7667763L179.397697 68.0321272C179.475548 67.7064693 179.904276 67.5452851 180.681689 67.5452851L181.563268 67.5452851C182.339583 67.5452851 182.767215 67.7064693 182.843969 68.0321272L184.683882 75.7667763C184.948136 76.9005482 185.21239 78.0716009 185.477741 79.2832237 185.581908 78.8325658 185.728838 78.2009868 185.908662 77.3851974 186.086294 76.5705044 186.206908 76.0310307 186.268311 75.7667763L188.086294 68.2667763C188.192654 67.7843202 188.713487 67.5452851 189.645504 67.5452851L189.90318 67.5452851C190.864803 67.5452851 191.346162 67.745943 191.346162 68.1494518 191.346162 68.1966009 191.331908 68.3139254 191.297917 68.498136L187.502961 83.4531798C187.409759 83.7788377 186.98432 83.9411184 186.222259 83.9411184L184.522697 83.9411184C183.731031 83.9411184 183.302303 83.7788377 183.240899 83.4531798L180.956908 73.8095395 178.583004 83.4531798C178.489803 83.7788377 178.061075 83.9411184 177.303399 83.9411184L175.624671 83.9411184C174.834101 83.9411184 174.405373 83.7788377 174.345066 83.4531798L170.664145 68.498136C170.63125 68.4049342 170.616996 68.2908991 170.616996 68.1494518M198.724232 81.9273026C197.433662 80.4887061 196.788925 78.4316886 196.788925 75.7441886 196.788925 73.0555921 197.433662 70.9974781 198.724232 69.5588816 200.011513 68.1235746 201.858004 67.4042763 204.266996 67.4042763 206.672697 67.4042763 208.516996 68.1235746 209.798794 69.5588816 211.080592 70.9974781 211.720943 73.0555921 211.720943 75.7441886 211.720943 78.4316886 211.080592 80.4887061 209.798794 81.9273026 208.516996 83.3648026 206.672697 84.0819079 204.266996 84.0819079 201.858004 84.0819079 200.011513 83.3648026 198.724232 81.9273026M201.435855 79.6794956C202.079496 80.5797149 203.025768 81.0303728 204.266996 81.0303728 205.508224 81.0303728 206.449013 80.5797149 207.083882 79.6794956 207.720943 78.7792763 208.038925 77.4667763 208.038925 75.7441886 208.038925 74.0194079 207.720943 72.7112939 207.083882 71.8198465 206.449013 70.9262061 205.508224 70.4799342 204.266996 70.4799342 203.025768 70.4799342 202.079496 70.9262061 201.435855 71.8198465 200.792215 72.7112939 200.470943 74.0194079 200.470943 75.7441886 200.470943 77.4667763 200.792215 78.7792763 201.435855 79.6794956M218.863706 83.1951754L218.863706 68.5219298C218.863706 67.9035088 219.174013 67.5910088 219.795724 67.5910088L224.33739 67.5910088C228.204715 67.5910088 230.135636 69.0504386 230.135636 71.9692982 230.135636 72.8388158 229.891118 73.5964912 229.402083 74.2423246 228.915241 74.8848684 228.249671 75.3618421 227.410855 75.6721491L227.410855 75.7675439C227.705811 75.8739035 228.008443 76.1359649 228.316557 76.5482456 228.627961 76.9594298 228.886732 77.4122807 229.08739 77.9089912L231.136732 83.0317982C231.21568 83.2357456 231.254057 83.3826754 231.254057 83.4747807 231.254057 83.7872807 230.786952 83.941886 229.857127 83.941886L228.902083 83.941886C228.125768 83.941886 227.674013 83.7785088 227.55011 83.4528509L225.711294 78.9089912C225.447039 78.3980263 225.163048 78.0383772 224.86261 77.8289474 224.558882 77.6184211 224.057785 77.5131579 223.35932 77.5131579L222.450329 77.5131579 222.450329 83.1951754C222.450329 83.6929825 221.983224 83.941886 221.051206 83.941886L220.259539 83.941886C219.330811 83.941886 218.863706 83.6929825 218.863706 83.1951754L218.863706 83.1951754zM222.450329 74.4144737L224.661952 74.4144737C225.143311 74.4144737 225.562171 74.2203947 225.920724 73.8355263 226.27818 73.4451754 226.458004 72.9747807 226.458004 72.4232456 226.458004 71.875 226.280373 71.4375 225.932785 71.1195175 225.583004 70.8015351 225.104934 70.6403509 224.499671 70.6403509L222.450329 70.6403509 222.450329 74.4144737zM237.558662 83.1951754L237.558662 68.2916667C237.558662 67.7927632 238.025768 67.5460526 238.954496 67.5460526L239.772478 67.5460526C240.703399 67.5460526 241.169408 67.7927632 241.169408 68.2916667L241.169408 74.5328947 241.26261 74.5559211 245.315241 67.9857456C245.486294 67.691886 245.952303 67.5460526 246.712171 67.5460526L247.808662 67.5460526C248.675987 67.5460526 249.111294 67.6611842 249.111294 67.8936404 249.111294 68.0317982 249.04989 68.1951754 248.92489 68.3826754L244.432566 75.2763158 249.53125 83.1030702C249.654057 83.2894737 249.71875 83.4528509 249.71875 83.5932018 249.71875 83.8256579 249.280154 83.941886 248.411732 83.941886L247.061952 83.941886C246.285636 83.941886 245.810855 83.7938596 245.640899 83.5L241.26261 76.4188596 241.169408 76.441886 241.169408 83.1951754C241.169408 83.6929825 240.703399 83.941886 239.772478 83.941886L238.954496 83.941886C238.025768 83.941886 237.558662 83.6929825 237.558662 83.1951754"/>
  </g>
</svg>
