<svg xmlns="http://www.w3.org/2000/svg" width="113" height="132" viewBox="0 0 113 132">
  <g fill="#FFFFFF">
    <path d="M56.5,1.21976221 C35.9699123,1.21976221 19.2226713,17.8874532 19.2226713,38.3199007 C19.2226713,58.7459905 35.9696553,75.4078368 56.5,75.4078368 C77.0303446,75.4078368 93.777328,58.7459907 93.777328,38.3199007 C93.777328,17.8874531 77.0300876,1.21976221 56.5,1.21976221 Z M56.5,0.0938046022 C77.6550515,0.0938046022 94.9088486,17.265646 94.9088486,38.3199007 C94.9088486,59.3678823 77.6552236,76.5337944 56.5,76.5337944 C35.3447763,76.5337944 18.0911506,59.3678821 18.0911506,38.3199007 C18.0911506,17.2656461 35.3449483,0.0938046022 56.5,0.0938046022 Z"/>
    <path d="M24.5773084,47.8227958 C23.1207455,48.6405651 22.5289205,50.3676433 23.2495351,51.942154 C24.2522656,54.1452462 26.5582377,54.7219567 28.5698293,53.8279011 C30.5875548,52.9369011 31.7620081,50.9687664 30.7868746,48.881624 C30.0478595,47.2949082 28.4533042,46.5778378 26.6716971,47.1331887 L27.1071327,48.3293238 C28.1773238,47.9753658 29.3119101,48.3293238 29.7994781,49.418666 C30.4740979,50.9229942 29.2812478,52.0458987 27.92894,52.6470218 C26.5735713,53.24814 25.0004787,53.0528533 24.3289275,51.5424238 C23.868959,50.5202133 24.2859966,49.6902389 25.0004787,49.1257336 L24.5773084,47.8227958 L24.5773084,47.8227958 Z M20.8577024,42.9955216 C21.1244838,45.2718469 23.2403351,46.5778378 25.4144517,46.2330293 C27.5916325,45.8943296 29.2168526,44.3869482 28.9010077,42.0923164 C28.5882287,39.8098873 26.7023594,38.8670138 24.5251788,38.992118 C22.3234659,39.1263791 20.5878535,40.6978367 20.8577024,42.9955216 L20.8577024,42.9955216 Z M21.9708261,42.8185438 C21.7837713,41.1677493 23.096214,40.4262638 24.5650459,40.2706456 C26.0522728,40.1058729 27.6008297,40.6307073 27.8124149,42.2601398 C28.0240025,43.9139849 26.6103651,44.6798831 25.147671,44.9026331 C23.6849717,45.1345376 22.1578779,44.45408 21.9708261,42.8185438 L21.9708261,42.8185438 Z M28.4870347,38.1804524 L28.5391645,36.9599022 L22.6883761,36.4350653 L28.7446157,34.9246358 L28.8550094,33.8230909 L23.2587345,30.5062462 L29.2996472,31.6688191 L29.6093581,30.4726816 L21.8297665,28.9469938 L21.461795,30.7473051 L27.1255296,34.0916107 L27.122459,34.1099196 L20.7503708,35.5135513 L20.6583773,37.573228 L28.4870298,38.18045 L28.4870347,38.1804524 Z M29.98653,29.5206536 L30.4495647,28.2543311 L23.0594153,25.51725 L22.5963825,26.7866207 L29.98653,29.5206536 Z M24.6110389,24.7544073 L25.7578906,22.5818267 L31.3848337,26.063444 L32.0195891,24.8734078 L26.4202475,21.3978942 L27.625363,19.2131102 L26.6471638,18.6119885 L23.5224512,24.2631346 L24.6110389,24.7544073 L24.6110389,24.7544073 Z M33.3994911,22.5299521 L36.9872411,18.3190558 L36.174631,17.4829796 L33.4424237,20.754054 L31.666948,19.1947996 L34.1017099,16.2380176 L33.3350983,15.4751752 L30.8022082,18.4380607 L29.2567145,17.0435819 L31.9827904,13.9494874 L31.1487153,13.0706923 L27.530303,17.3395635 L33.3994911,22.5299524 L33.3994911,22.5299521 Z M41.1913496,15.0052626 L42.3382013,14.2942917 L38.1923566,7.64534858 L37.048573,8.35631964 L41.1913496,15.0052626 L41.1913496,15.0052626 Z M43.4022609,13.680966 L44.5337815,13.1378224 L42.2431413,7.93217798 L42.2768742,7.91691976 L47.4990415,11.9081204 L48.8544126,11.5083899 L46.4656442,4.0630348 L45.1808047,4.43835382 L46.910282,9.98575404 L46.8458868,9.98880716 L41.5439906,5.86944942 L40.2376812,6.52854596 L43.4022609,13.6809682 L43.4022609,13.680966 Z M47.6615625,4.99370373 L49.9644681,4.61228118 L50.9794636,10.9621908 L52.3164378,10.7485955 L51.3014424,4.38342984 L53.7024762,3.95928818 L53.5767514,2.73873722 L47.336518,3.79451233 L47.6615625,4.99370373 L47.6615625,4.99370373 Z M54.9750527,10.5075371 L60.6081273,10.7119802 L60.6265266,9.55245622 L56.3457624,9.36937564 L56.4193548,7.01676409 L60.3106818,7.10525396 L60.3260105,6.00981162 L56.4377468,5.91826987 L56.4714798,3.82502731 L60.6418553,4.02947038 L60.6633253,2.86689456 L55.1437126,2.63804347 L54.9750552,10.5075371 L54.9750527,10.5075371 Z M64.4718552,4.67941149 L66.6061059,5.25917333 C67.2837914,5.43615307 67.765223,5.91826987 67.495379,6.85504331 C67.2684603,7.63314151 66.7839605,7.89861111 65.9652165,7.67280873 L63.7512395,7.06863838 L64.4718552,4.67941149 L64.4718552,4.67941149 Z M61.3563396,10.8462405 L62.5921199,11.1239145 L63.4691276,8.04812776 L65.4623199,8.59432616 C66.6582357,8.92082253 66.6827665,9.61348569 66.2933292,10.9682943 C66.1860038,11.3314095 66.072542,11.7647034 66.1798699,12.1430743 L67.5444407,12.7014766 C67.345121,12.320054 67.4831112,11.306998 67.7284292,10.4465103 C68.0657367,9.27783389 67.5873708,8.76215047 67.1519352,8.5729666 L67.1611471,8.5516046 C67.4217964,8.54245016 68.4398576,8.46006284 68.8446285,7.04117284 C69.2064717,5.79011033 68.6698421,4.68856422 67.0415538,4.24001136 L63.4722032,3.2544182 L61.3563519,10.8462381 L61.3563396,10.8462405 Z M68.09027,12.9394833 L69.2800543,13.494834 L71.9325353,8.52414396 L71.9632099,8.54245529 L72.3833168,15.3653295 L73.4995038,16.1861497 L77.7189435,9.60433393 L76.6395503,8.76215413 L73.5056353,13.632147 L73.1039301,6.66891182 L71.7884234,6.02507107 L68.0902823,12.939487 L68.09027,12.9394833 Z M81.0184329,14.1630828 L81.0368323,14.178341 L81.0429736,14.1813916 L79.4698858,17.5165413 L77.8231983,15.8108251 L81.0184428,14.1630808 L81.0184329,14.1630828 Z M73.8122682,16.4211009 L74.9039292,17.330411 L76.8572571,16.3112515 L79.0283064,18.5051912 L78.0807719,20.6381008 L78.9792423,21.7457504 L82.474998,13.726737 L81.4232063,12.7228361 L73.8122682,16.4211009 L73.8122682,16.4211009 Z M83.5543888,16.7811642 L84.8300335,18.6302964 L79.341083,22.288894 L80.0739667,23.4148513 L85.5690486,19.7593056 L86.9581502,21.7762624 L87.9639485,21.2026039 L84.4804582,16.0640896 L83.5543888,16.7811642 L83.5543888,16.7811642 Z M81.4661365,25.7308456 L82.0364942,26.9483451 L89.169064,23.5948829 L88.5956381,22.3804357 L81.4661365,25.7308456 L81.4661365,25.7308456 Z M91.2021207,28.9042722 C90.576565,26.7042331 88.4177835,25.7888229 86.3080637,26.4906376 C84.2198089,27.1894016 82.806174,29.0202269 83.4163986,31.2355242 C84.0112895,33.4020036 86.1179436,34.1526387 88.2429946,33.5820344 C90.3956446,33.0022709 91.8276764,31.0951618 91.2021207,28.9042722 L91.2021207,28.9042722 Z M90.1380635,29.2490807 C90.5796332,30.7991787 89.3101199,31.9800604 87.8750199,32.3462284 C86.4429881,32.7154422 84.891363,32.4743833 84.4681927,30.9181816 C84.0388885,29.3253644 85.29,28.2055082 86.7067006,27.7752664 C88.120338,27.3450222 89.6872943,27.665418 90.1380635,29.2490807 L90.1380635,29.2490807 Z M84.342468,35.2908013 L84.4129947,36.5693289 L90.1349953,36.2580851 L90.1349953,36.2916547 L84.4191311,40.0509438 L84.3485994,41.4759376 L92.1343215,42.1289318 L92.269246,40.6764771 L86.4245888,40.2889544 L86.4245888,40.2065644 L92.3305755,36.4076069 L92.229384,34.8910711 L84.342468,35.2908013 L84.342468,35.2908013 Z M89.7700889,47.401706 L89.7670182,47.4200149 L89.7608769,47.4352682 L86.0688697,47.5207064 L86.7404213,45.2657407 L89.7700766,47.4017011 L89.7700889,47.401706 Z M84.2504737,42.0923164 L84.0480882,43.4715356 L85.8572944,44.6371616 L84.9802891,47.5817393 L82.8429727,47.715998 L82.3554072,49.0525004 L90.8402824,48.4788431 L91.2389194,47.108776 L84.2504737,42.0923164 L84.2504737,42.0923164 Z M82.1008919,49.6688793 L79.5434685,54.2581453 L80.5676637,54.8226507 L82.4688641,51.4081627 L88.3564515,54.6731338 L89.0096087,53.5014064 L82.1008919,49.6688793 L82.1008919,49.6688793 Z"/>
    <polygon points="74.085 69.51 78.663 66.392 78.01 65.412 74.548 67.807 73.248 65.894 76.391 63.682 75.769 62.764 72.626 64.973 71.463 63.179 74.889 60.826 74.229 59.849 69.691 62.931 74.085 69.51"/>
    <polygon points="68.199 72.15 69.604 71.644 69.137 63.201 67.905 63.75 68.356 70.375 68.334 70.387 64.231 65.083 62.916 65.471 68.199 72.15"/>
    <polygon points="58.193 73.995 63.703 73.336 63.464 72.213 59.336 72.68 59.048 70.321 62.664 69.891 62.446 68.811 58.87 69.238 58.625 67.115 62.621 66.709 62.406 65.555 57.291 66.169 58.193 73.995"/>
    <polygon points="41.23 70.617 46.452 72.554 46.752 71.437 42.886 69.997 43.668 67.782 47.148 69.112 47.427 68.06 44.026 66.754 44.735 64.712 48.457 66.21 48.758 65.112 43.916 63.211 41.23 70.617"/>
    <path d="M41.3376182,66.0666624 L38.5870091,64.333478 L38.0105175,65.1665056 L39.7982585,66.3016176 C39.0439123,67.3512889 37.8571937,67.6045529 36.7103395,66.8020418 C35.3488369,65.8408593 35.6064179,64.2144776 36.4374273,63.0091831 C37.2623027,61.8069442 38.6238078,61.0746131 39.9945125,62.0205373 C40.8009886,62.5758882 41.2486897,63.5126604 40.7856575,64.4097642 L41.9386431,65.0627584 C42.7389877,63.5309718 42.0122381,62.0907222 40.6108686,61.1264818 C38.6912688,59.7899842 36.5447527,60.4399253 35.3151064,62.2310822 C34.0854576,64.0283429 34.1805176,66.3687469 36.0939834,67.6960949 C36.8789944,68.2392382 37.6026784,68.3429853 38.6636698,68.0927744 L38.4796837,69.1912687 L39.2003018,69.6123584 L41.3376182,66.0666624"/>
    <polygon points="48.631 73.135 49.928 73.407 50.952 67.688 50.986 67.695 54.089 73.922 55.54 73.999 55.908 66.16 54.693 66.126 54.451 71.878 54.43 71.872 51.342 65.69 49.971 65.409 48.631 73.135"/>
    <path d="M31.0929068,38.3180698 C31.0929068,52.2425477 42.5051332,63.603287 56.5,63.603287 C70.4920753,63.603287 81.9132246,52.2392201 81.9132246,38.3180698 C81.9132246,24.3969213 70.492075,13.0328548 56.5,13.0328548 C42.5051335,13.0328548 31.0929068,24.3935936 31.0929068,38.3180698 Z M83.0447453,38.3180698 C83.0447453,52.86109 71.1169762,64.7292446 56.5,64.7292446 C41.8801086,64.7292446 29.9613862,52.8642944 29.9613862,38.3180698 C29.9613862,23.7718468 41.8801088,11.9068972 56.5,11.9068972 C71.1169758,11.9068972 83.0447453,23.7750514 83.0447453,38.3180698 Z"/>
    <polygon points="50.993 19.669 62.007 19.669 62.007 32.836 75.236 32.836 75.236 43.803 62.007 43.803 62.007 56.963 50.993 56.963 50.993 43.803 37.761 43.803 37.761 32.836 50.993 32.836"/>
    <polygon points="0 95.679 4.738 95.679 4.738 131.152 0 131.152 0 95.679"/>
    <path d="M37.7514011 106.361364C36.754805 101.347886 32.7132224 98.8121273 27.7762352 98.8121273 19.3005589 98.8121273 15.7097427 105.765609 15.7097427 113.168196 15.7097427 121.267356 19.3005589 128.025311 27.8252969 128.025311 34.0593939 128.025311 37.6502121 123.653415 38.1009789 117.790616L42.8355806 117.790616C41.940176 126.635224 36.4052297 132.000039 27.4297232 132.000039 16.356764 132.000039 10.9720735 123.851999 10.9720735 113.51954 10.9720735 103.232905 16.8565959 94.8373996 27.8252969 94.8373996 35.2583755 94.8373996 41.391281 98.8121273 42.489071 106.361364L37.7514011 106.361364M53.4593051 112.027104L53.4593051 99.6568711 65.2283485 99.6568711C69.6655072 99.6568711 71.5605737 102.238459 71.5605737 105.715202 71.5605737 110.884486 67.7704382 112.027104 63.333282 112.027104L53.4593051 112.027104 53.4593051 112.027104zM48.7185694 131.155295L53.4593051 131.155295 53.4593051 116.001835 65.0290312 116.001835C69.6164431 116.001835 70.462786 118.931707 70.962617 122.411503 71.6586994 125.888246 70.9135553 129.716327 72.2597243 131.155295L77.5462893 131.155295C75.5500313 128.720352 75.7493486 124.846446 75.4488373 121.369703 75.1023253 117.889906 74.252919 114.859216 70.116274 114.064881L70.116274 113.96406C74.4031747 112.775613 76.2982436 109.246935 76.2982436 104.969746 76.2982436 99.3085891 72.1585328 95.6790902 65.4767323 95.6790902L48.7185694 95.6790902 48.7185694 131.155295 48.7185694 131.155295zM107.915823 106.361364C106.919224 101.347886 102.877639 98.8121273 97.9406521 98.8121273 89.4619108 98.8121273 85.8710951 105.765609 85.8710951 113.168196 85.8710951 121.267356 89.4619108 128.025311 97.9897138 128.025311 104.223813 128.025311 107.814629 123.653415 108.26233 117.790616L113 117.790616C112.10153 126.635224 106.569649 132.000039 97.5910768 132.000039 86.5211817 132.000039 81.1364934 123.851999 81.1364934 113.51954 81.1364934 103.232905 87.0210126 94.8373996 97.9897138 94.8373996 105.422797 94.8373996 111.5557 98.8121273 112.65349 106.361364L107.915823 106.361364"/>
  </g>
</svg>
