<svg xmlns="http://www.w3.org/2000/svg" width="187" height="104" viewBox="0 0 187 104">
  <g fill="#002F54" fill-rule="evenodd">
    <path d="M51.4012185,27.2573037 C65.2453163,28.0461683 76.2275011,39.5192681 76.2275011,53.5663434 C76.2275011,68.1196747 64.436338,79.9180794 49.8808272,79.9180794 C35.3334467,79.9180794 23.5361859,68.1196747 23.5361859,53.5663434 C23.5361859,48.0625899 25.2232511,42.9593682 28.1034576,38.7324367 C41.6934793,44.5716609 49.2934033,53.4280888 49.2934033,53.4280888 C49.4946315,53.6619018 49.793425,53.7228965 49.9580663,53.5561777 C50.1247402,53.391492 50.0800228,53.078386 49.8605011,52.8608383 L31.6036098,34.5868314 C36.002175,30.3497341 41.8703163,27.6293713 48.3645011,27.2573037 C48.8665554,27.2288395 49.3706424,27.2146074 49.8808272,27.2146074 C50.391012,27.2146074 50.8991641,27.2288395 51.4012185,27.2573037 Z"/>
    <polygon points="4.047 80.111 21.322 80.111 21.322 27.07 4.047 27.07"/>
    <path d="M169.013649 27.2631999L169.013649 53.0009227C169.013649 53.3140288 168.820551 53.5661401 168.590866 53.5661401 168.359149 53.5661401 168.18841 53.3140288 168.210768 53.0009227 168.210768 53.0009227 169.092921 41.1984517 163.629268 27.2631999L133.552758 27.2631999 133.552758 53.6413669C133.552758 65.6979825 141.63441 75.8596966 152.677573 79.0110885L142.398671 93.1699875 156.171627 103.744432 181.195073 69.2539725C184.398464 64.8867532 186.290823 59.4988896 186.290823 53.6698311L186.290823 27.2631999 169.013649 27.2631999zM106.39487 27.2573037L101.071467 27.2573037C95.6057826 41.1925555 96.4859022 53.0011261 96.4859022 53.0011261 96.5102935 53.3142321 96.3375217 53.5663434 96.1058043 53.5663434 95.8761196 53.5663434 95.6850543 53.3121989 95.6850543 53.0011261L95.6850543 1.87538317 78.5074783 1.87538317 78.5074783 79.9180794C78.5074783 79.9180794 104.331772 79.9729747 104.874478 79.9729747 119.442185 79.9729747 131.245543 68.1583047 131.245543 53.5907413 131.245543 39.5335002 120.255228 28.0461683 106.39487 27.2573037M25.0905217 12.5466062C25.0905217 5.6155771 19.4703587 0 12.5432283 0 5.61609783 0 0 5.6155771 0 12.5466062 0 19.4756021 5.61609783 25.0952455 12.5432283 25.0952455 13.9518261 25.0952455 15.3014783 24.8593994 16.5616957 24.436503 18.2487609 23.8611198 19.7793152 22.9441664 21.0598587 21.7588364 23.5355761 19.4654363 25.0905217 16.1900219 25.0905217 12.5466062"/>
  </g>
</svg>
