<svg xmlns="http://www.w3.org/2000/svg" width="198" height="81" viewBox="0 0 198 81">
  <g fill="#002F54" fill-rule="evenodd">
    <path d="M0.000232353459,78.3824064 L12.3997747,78.3824064 L12.3997747,1.93974602 L0.000232353459,1.93974602 L0.000232353459,0.375303487 L35.9487977,0.375303487 L35.9487977,1.9420706 L23.5469319,1.9420706 L23.5469319,78.4254111 L43.4352262,78.4254111 C49.9887555,78.4254111 55.128414,76.3774559 58.85304,72.2780585 C62.5753424,68.1798235 65.2927161,62.5915325 67.0074846,55.510861 L68.2377962,55.510861 L68.2377962,79.9480112 L0.000232353459,79.9480112 L0.000232353459,78.3824064 Z"/>
    <path d="M84.4183102,78.3824064 C85.6811512,78.5323418 87.1484633,78.6427594 88.8214082,78.7171459 C90.4920296,78.7938571 92.332269,78.8287258 94.3398029,78.8287258 C96.8654849,78.8287258 99.3749023,78.7008739 101.863408,78.4393586 C104.353075,78.1790056 106.732375,77.6187817 109.000144,76.7610116 C111.265591,75.9044038 113.385816,74.6758631 115.355011,73.073065 C117.321883,71.4702669 119.08777,69.3665217 120.650347,66.7583427 C123.027323,62.7344942 124.681679,58.6176625 125.611093,54.4078476 C126.539345,50.1980327 127.005214,45.5942015 127.005214,40.6021653 C127.005214,34.716328 126.446404,29.3697934 125.331107,24.5625613 C124.215811,19.7576539 122.377895,15.6594189 119.813874,12.2678562 C117.249854,8.87745588 113.849361,6.25068015 109.614719,4.38752906 C105.376592,2.52321567 100.138183,1.59105898 93.894846,1.59105898 C92.0360183,1.59105898 90.3433234,1.62825226 88.8214082,1.70380112 C87.2960077,1.7770254 85.8286957,1.85373655 84.4183102,1.92812312 L84.4183102,78.3824064 Z M60.8692871,78.3824064 L73.2699912,78.3824064 L73.2699912,1.93974602 L60.8692871,1.93974602 L60.8692871,0.375303487 L81.6405246,0.375303487 C82.6826298,0.375303487 83.7258968,0.355544554 84.7656786,0.313702109 C85.8066221,0.271859664 86.8510509,0.209095997 87.8919944,0.125411106 C88.9329379,0.125411106 89.9762049,0.105652174 91.0171484,0.0614851485 C92.0580919,0.0208049935 93.1025207,-0.000116229014 94.1434642,-0.000116229014 C96.3740574,-0.000116229014 98.3641648,0.0370770555 100.113786,0.111463625 C101.861084,0.185850194 103.498014,0.31602669 105.024577,0.503155402 C106.551139,0.690284115 108.001024,0.950637107 109.37888,1.28653896 C110.754413,1.62244081 112.22521,2.05132587 113.788949,2.57203186 C118.324489,4.0644124 122.251262,6.06122686 125.561137,8.56015067 C128.873336,11.0579122 131.587224,13.9496901 133.708611,17.2319974 C135.832322,20.5131425 137.392575,24.0941584 138.398666,27.9727206 C139.402433,31.8512828 139.905478,35.9169737 139.905478,40.1674688 C139.905478,45.0920921 139.309491,49.5111192 138.11868,53.4268747 C136.92903,57.3426302 135.290938,60.810904 133.209051,63.8328584 C131.123679,66.8536505 128.687453,69.4641541 125.896888,71.6655316 C123.106323,73.8657469 120.112449,75.6370771 116.91178,76.9783599 C115.127305,77.8012613 113.433448,78.4358717 111.833695,78.8821911 C110.232779,79.3308351 108.597011,79.6678993 106.922904,79.891059 C105.247636,80.1118941 103.406235,80.2629918 101.397539,80.3373784 C99.3876817,80.411765 97.0804119,80.4489582 94.4780532,80.4489582 C93.3615948,80.4489582 92.1696215,80.4268747 90.9067805,80.3861946 C89.6392924,80.3431898 88.372966,80.2804262 87.110125,80.1979036 C85.8449604,80.1142187 84.5983841,80.0526173 83.3715578,80.0096126 C82.1412463,79.9666078 80.9725084,79.9480112 79.85605,79.9480112 L60.8692871,79.9480112 L60.8692871,78.3824064 L60.8692871,78.3824064 Z"/>
    <path d="M134.024844,78.3824064 L146.424387,78.3824064 L146.424387,1.93974602 L134.024844,1.93974602 L134.024844,0.375303487 L197.905781,0.375303487 L197.905781,19.6809427 L196.677793,19.6809427 C195.707717,16.7798666 194.66445,14.2321266 193.547992,12.0365605 C192.430371,9.84448127 191.089692,7.98365476 189.525953,6.45873009 C187.962214,4.93380542 186.099901,3.79824796 183.939014,3.05438226 C181.779289,2.31051657 179.172283,1.93858373 176.119159,1.93858373 L157.572706,1.93858373 L157.572706,38.0927809 L164.836075,38.0927809 C167.293212,38.0927809 169.377423,37.8719458 171.092192,37.4244641 C172.803475,36.9769824 174.276596,36.1378089 175.504584,34.9081059 C176.734895,33.6784029 177.774677,32.0023805 178.633223,29.8788765 C179.489446,27.7553724 180.32708,25.0170168 181.147287,21.6626474 L182.376437,21.6626474 L182.376437,56.5162419 L181.147287,56.5162419 C180.624492,54.3497331 180.08427,52.2610977 179.526622,50.2456866 C178.96665,48.2337624 178.185943,46.441511 177.181014,44.8724193 C176.173762,43.3056522 174.833082,42.0538657 173.157814,41.121709 C171.483707,40.1907146 169.30307,39.7223117 166.620549,39.7223117 L157.572706,39.7223117 L157.572706,78.3824064 L169.97341,78.3824064 L169.97341,79.9480112 L134.024844,79.9480112 L134.024844,78.3824064"/>
  </g>
</svg>
