<svg version="1.1" id="Layer_1" xmlns="http://www.w3.org/2000/svg" x="0" y="0" viewBox="0 0 320 110" xml:space="preserve"><style>.st1{fill:#fff}</style><path d="M47.8.5C21.7.5.5 21.7.5 47.8c0 26.1 21.1 47.3 47.2 47.3S95 73.9 95 47.8C95 21.7 73.8.6 47.8.5zm28.3 63.8H19.4V36l28.3-16.5L76.1 36v28.3z" opacity=".5" fill="#fff"/><path class="st1" d="M58.4 33.7H37.1c-1.9 0-3.7-.9-4.8-2.5-.2-.3-.6-.3-.8-.1-.2.1-.2.3-.2.5v12.8c0 2.3 1.3 4.4 3.4 5.4.3.1.4.5.3.8l-.3.3c-2.1 1-3.4 3.1-3.4 5.4v15.4h5.9c3.3 0 5.9-2.6 5.9-5.9V50.4h11.8v21.3h5.9c3.3 0 5.9-2.6 5.9-5.9V41.9c-.1-4.5-3.8-8.2-8.3-8.2m-31.9 8.2c0-4.6-3.7-8.3-8.3-8.3-1.9 0-3.7-.9-4.8-2.4 0 0 0-.1-.1-.1-.2-.3-.6-.3-.8-.1-.2.1-.2.3-.2.5v12.8c0 3.3 2.6 5.9 5.9 5.9 3.2 0 5.9 2.6 5.9 5.9v1.2c1.3 0 2.3-1 2.3-2.3v-7.1c.1-2.3.1-5.4.1-6m82.1-10.8c-.1-1.1-.2-2.3-.2-3.4v-1.6c0-.4.1-.7.3-.9.2-.2.5-.5.8-.6 1.1-.6 2.3-1.1 3.7-1.4 1.3-.4 2.7-.6 4.1-.8 1.3-.2 2.3-.3 3-.3 2.4 0 4.6.4 6.4 1.1s3.2 1.8 4.3 3.2 1.5 3 1.5 4.9c0 2-.9 4.3-2.6 6.8-1.7 2.5-3.7 4.9-6.1 7.2-2.3 2.3-5.2 5-8.6 8l-.8.7c.9-.1 3.4-.3 7.4-.7l5.3-.4c.2-.2.6-.9 1.2-1.9.6-.9 1.1-1.8 1.6-2.8.3-.4.5-.6.8-.6.4 0 1 .1 1.9.3.5.1.8.2.9.3.1.1.2.2.2.4 0 .8-.2 1.9-.5 3.5-.4 1.6-.8 3.1-1.3 4.3-.2.6-.7.9-1.4.9h-21.6c-.6 0-.9-.2-1.1-.6-.5-1.3-.8-2-.8-2.2s.1-.4.2-.5c.8-.8 2.9-3.1 6.5-6.8 3.5-3.8 5.8-6.2 6.7-7.3 1.1-1.3 2.1-2.7 2.9-4.2s1.2-3 1.2-4.4c0-1.9-.7-3.4-2.1-4.2s-3-1.3-4.9-1.3c-1.2 0-2.3.1-3.3.3l-1.9 5.5c-.2.4-.4.6-.7.6-.3 0-1.2-.1-2.8-.4-.2 0-.3-.1-.4-.2.3-.2.2-.3.2-.5m55.7 21.4c.8-1 1.5-2.1 2.2-3.2.4-.6.8-1.3 1.2-1.9.2-.4.5-.5.8-.5l1.8.3c.3.1.5.3.5.6 0 .8-.2 2.2-.6 4.2-.4 1.9-.9 3.6-1.4 4.8-.1.4-.4.5-.8.5h-30.8c-.3 0-.4-.1-.4-.2 0-.2.1-.8.3-1.9.1-.3.2-.4.5-.6l.9-.4c1-.4 1.6-.6 1.9-.7.3-.1 1-.3 2-.7V20.4c-.4-.1-1.2-.3-2.6-.8-1.4-.5-2.2-.8-2.5-.9-.2-.1-.3-.3-.3-.4 0-.2.1-.8.3-1.8.1-.3.2-.4.6-.4h18.2c.1 0 .1.1.1.2s0 .3-.1.5c-.1.3-.1.7-.3 1.4-.1.3-.2.4-.5.6-.1 0-.4.1-.9.3l-.9.3c-.4.1-.8.3-1.2.4l-2.2.8v33.8c1.2-.3 3.9-.6 7.8-1.1 4-.6 6.1-.8 6.4-.8m15.9-29.1h-.3c-.4 0-1-.2-1.8-.5s-1.5-.7-2.2-1.1c-.7-.5-1.1-.9-1.2-1.2 0-.1-.1-.2-.1-.4 0-.5.2-1.2.6-2 .3-.7.6-1.4 1.1-2.1.4-.7.8-1 1.2-1.2.2 0 .3-.1.4-.1.4 0 1 .2 1.8.5.7.3 1.5.7 2.2 1.1.7.5 1.1.9 1.2 1.2.1.1.1.3.1.4 0 .5-.2 1.1-.6 1.9-1 2.1-1.8 3.2-2.4 3.5m-9.3 33.7c0-.1.1-.6.3-1.7.1-.3.2-.5.5-.6l2.2-.9 1.5-.6V34.5c-.5-.6-1.1-1.1-1.8-1.5s-1.4-.7-2.2-.9c-.2 0-.3-.1-.3-.3 0-.1.1-.4.2-1 .1-.2.2-.4.5-.4 1.7-.5 3.4-.9 5.1-1.2 1.9-.4 3.6-.6 5.3-.6.2 0 .3 0 .4.1.1.1.1.2.1.4v24.4c.6.2 1.3.5 2.1.8s1.5.6 2 .8c.2.1.4.3.4.4 0 .1-.1.6-.3 1.5-.1.3-.3.4-.6.4h-14.7c-.6-.1-.7-.2-.7-.3m17.8 0c0-.2.1-.7.3-1.8.1-.3.2-.5.6-.6.7-.3 1.5-.7 2.2-1l1.4-.6V33.4l-4.4-1.7c-.2-.1-.3-.2-.3-.3 0-.1.1-.8.4-2 .1-.3.3-.4.6-.4h3.7c0-3.6.4-6.6 1.3-8.9.9-2.3 2.2-4 4.1-5.1 1.9-1.1 4.3-1.6 7.3-1.6 1.4 0 2.5.1 3.5.3.9.2 1.8.4 2.6.8.7.3 1.2.7 1.7 1.3.5.5.7 1 .7 1.6 0 .6-.3 1.2-.8 1.9s-1.1 1.4-1.8 1.9-1.3.8-1.8.8c-.7 0-1.5-.4-2.6-1.2l-1-5.2c-1.7.3-2.9 1.1-3.8 2.4-.9 1.3-1.5 2.8-1.7 4.6-.3 1.8-.4 4-.4 6.5h8.8c.3 0 .4.1.4.2 0 .3-.1.8-.3 1.5 0 .2-.1.3-.1.4-.1.1-.2.1-.3.2-.4.2-1.6.5-3.5 1-2 .5-3.6.8-4.9 1.1v20l1.9.4c.2.1 1.1.2 2.6.6 1.5.3 2.4.5 2.7.7.2.1.4.2.4.4 0 .1-.1.6-.2 1.5-.1.3-.3.4-.6.4h-17.9c-.7-.2-.8-.3-.8-.4"/><path class="st1" d="M217.3 32.6c-.5.6-1 1.6-1.4 3s-.6 3.1-.7 5.1l11.7-1.2c-.1-1.6-.4-3-1.1-4.2-.7-1.1-1.5-2-2.6-2.6s-2.2-.9-3.5-.9c-.6 0-1.1 0-1.5.1-.3.2-.7.4-.9.7m13.6 10.5h-15.7c.2 1.8.6 3.5 1.4 5 .8 1.6 1.8 2.9 3 3.9s2.5 1.5 4 1.5c1 0 2-.1 3.1-.3 1.2-.3 2.4-.5 3.6-.9.8-.2 1.3-.4 1.4-.4.1 0 .2.1.3.2.2.3.3.5.3.6s-.1.2-.2.4c-.6.8-1.5 1.6-2.6 2.3-1.2.8-2.4 1.4-3.8 1.9-1.3.5-2.8.7-4.2.7-2.4 0-4.5-.5-6.5-1.5s-3.6-2.6-4.8-4.8-1.8-4.9-1.8-8.2c0-2.8.6-5.4 1.8-7.8 1.2-2.4 2.9-4.3 5.1-5.7 2.2-1.4 4.7-2.1 7.5-2.1 2.1 0 4 .4 5.6 1.3s2.8 2.1 3.6 3.6 1.3 3.2 1.3 5c0 1.5-.2 2.9-.7 4.1-.1.4-.3.6-.5.8-.4.3-.7.4-1.2.4M115.6 98.9l-2-5.9c-.1.4-.3 1-.6 2-.3.9-.7 2.2-1.3 3.9h3.9zm-8.7 5.6s0-.2.1-.7c0 0 0-.1.1-.1l.1-.1 1.4-.5 4.3-12c0-.1.1-.2.1-.3.1-.1.1-.1.2-.1.9-.1 1.4-.2 1.5-.2s.1 0 .2.1.1.1.1.2l4.7 12.4.5.2c.5.2.8.2.9.3.1 0 .1.1.1.1s-.1.3-.2.7c0 .1-.1.1-.2.1h-5.5c-.1 0-.2 0-.2-.1 0 0 0-.2.1-.6 0-.1.1-.2.2-.2l1.4-.5-1-2.9c-.6.1-1.2.1-2 .1H111c-.2.5-.5 1.4-.9 2.7.2.1.6.2 1 .3.4.1.7.2.8.3.1 0 .1.1.1.1 0 .1 0 .3-.1.6 0 .1-.1.1-.2.1h-4.8c.2.1.1.1 0 0 0 .1 0 .1 0 0zm19.5-3.8c.4 0 .7-.1.9-.3.1-.1.2-.3.3-.6.1-.3.1-.7.1-1.1 0-.5-.1-.9-.3-1.3-.2-.4-.4-.7-.8-.9-.3-.2-.8-.3-1.3-.3-.2 0-.4 0-.6.1s-.3.1-.4.2l-.3.6c-.1.3-.1.5-.1.8 0 .5.1 1 .3 1.5s.5.8.9 1.1c.4 0 .8.2 1.3.2m1.4 4.6h-2.9c-.5 0-1-.1-1.5-.1-.4.8-.6 1.4-.6 1.8 0 .2 0 .3.1.4.2.2.6.5 1.1.6.6.2 1.3.3 1.9.3.5 0 .9 0 1.3-.1s.8-.2 1-.4c.1-.1.2-.3.4-.6.1-.3.2-.6.2-.9 0-.2 0-.4-.1-.5l-.3-.3c0-.1-.3-.2-.6-.2m-2.8 4.3c-.6 0-1.3-.1-1.9-.2s-1.1-.3-1.5-.6c-.4-.3-.7-.9-.7-1.4s.2-.9.5-1.3.8-.8 1.3-1.1c-.4-.1-.7-.3-.9-.6-.2-.3-.3-.6-.3-1 0-.5.2-.9.6-1.2.4-.3.8-.6 1.4-.8-.5-.2-.9-.6-1.2-1-.3-.4-.4-1-.4-1.6 0-.7.2-1.4.5-2s.8-1.1 1.4-1.4c.7-.3 1.5-.5 2.5-.5.4 0 .8.1 1.2.2.4.1.8.3 1.1.5.4-.2.9-.4 1.4-.5s.9-.2 1.2-.2h.1l.1.1c.1.1.1.2.1.3 0 0 0 .1-.1.2l-1.6 1.5c.2.4.2.8.2 1.2 0 .8-.2 1.4-.5 2-.4.6-.9 1-1.5 1.3-.6.3-1.4.5-2.2.5-.5 0-1-.1-1.5-.2-.2.3-.3.5-.4.7s-.1.3-.1.5c0 .1 0 .2.1.2l.2.2c.2.1.5.1 1 .1h3.1c1 0 1.7.2 2.2.5s.7.8.7 1.5-.2 1.4-.7 2.1-1.1 1.2-2 1.6c-1.1.2-2.2.4-3.4.4"/><path class="st1" d="M134.1 96.3c-.2.2-.3.5-.5 1-.1.5-.2 1-.2 1.7l3.9-.4c0-.5-.2-1-.4-1.4s-.5-.7-.9-.9c-.4-.2-.8-.3-1.2-.3h-.5c0 .2-.1.2-.2.3m4.6 3.6h-5.3c.1.6.2 1.2.5 1.7s.6 1 1 1.3.9.5 1.3.5c.3 0 .7 0 1-.1s.7-.2 1.2-.3c.3-.1.4-.1.5-.1 0 0 .1 0 .1.1.1.1.1.2.1.2s0 .1-.1.2c-.3.3-.6.6-.9.8-.4.3-.8.5-1.3.6-.5.2-.9.2-1.4.2-.8 0-1.5-.2-2.2-.5s-1.2-.9-1.6-1.6c-.4-.7-.6-1.6-.6-2.7 0-.9.2-1.8.6-2.6s1-1.4 1.7-1.9 1.6-.7 2.5-.7c.7 0 1.3.1 1.9.4.5.3.9.7 1.2 1.2s.4 1.1.4 1.7c0 .5-.1 1-.2 1.4 0 .1-.1.2-.2.3 0-.2-.1-.1-.2-.1m9.1 3.5c.1.1.2.1.3.1.3 0 .6-.1 1-.2s.8-.2 1-.3v-3c-.6.1-1.1.2-1.5.3-.4.1-.8.2-1 .4-.2.1-.4.2-.5.3-.1.1-.2.4-.2.7 0 .3.1.6.2 1l.7.7m-3.2-1.2c0-.6.1-1.2.4-1.5.2-.4.6-.7 1.1-.9.4-.2.9-.3 1.3-.3.5-.1 1-.1 1.4-.1.5 0 .9 0 1.3.1V99c0-.6-.1-1.2-.2-1.7s-.3-.9-.7-1.1c-.1-.1-.3-.1-.5-.2-.2 0-.4-.1-.6-.1-.2 0-.4 0-.6.1l-.3 1.8c-.1.1-.3.2-.4.3-.1.1-.3.1-.4.1-.2 0-.4-.1-.6-.2-.2-.2-.5-.3-.6-.6-.2-.2-.3-.4-.3-.6s.1-.3.3-.5.5-.3.8-.5c.5-.2 1.2-.4 1.9-.6s1.3-.2 1.7-.2c1 0 1.7.3 2.2.8.4.5.7 1.3.7 2.2v4.7c.1.3.4.5.6.6.3.2.6.3 1 .4.1 0 .1.1.1.1s0 .2-.1.4c0 0 0 .1-.1.1l-.1.1c-.3.2-.7.3-1 .4-.4.1-.8.2-1.2.2h-.2l-.1-.1c-.2-.3-.3-.6-.5-.9s-.4-.5-.6-.6c-.2.3-.5.5-.8.8s-.7.4-1.1.6c-.4.2-.9.2-1.3.2-.6 0-1.1-.1-1.5-.4-.4-.2-.7-.6-.9-1 0-.5-.1-1-.1-1.4m9.9 2.3c0-.1 0-.2.1-.6 0-.1.1-.2.2-.2.2-.1.5-.2.8-.3l.5-.2v-6.6l-1.5-.6c-.1 0-.1-.1-.1-.1s0-.3.1-.7c0-.1.1-.1.2-.1h1.2c0-1.1.1-2 .4-2.7.3-.7.7-1.2 1.3-1.5s1.4-.5 2.4-.5c.4 0 .8 0 1.1.1l.9.3c.2.1.4.2.5.4.1.2.2.3.2.5s-.1.4-.2.6l-.6.6c-.2.2-.4.2-.6.2-.2 0-.3 0-.4-.1-.2-.1-.3-.2-.4-.3l-.3-1.7c-.5.1-.9.4-1.2.7-.3.4-.4.9-.5 1.4-.1.7-.1 1.3-.1 2h5c0-1.2.1-2.2.4-3 .3-.8.8-1.3 1.4-1.7.6-.4 1.5-.6 2.5-.6.4 0 .8 0 1.2.1.3.1.6.1.9.3.2.1.4.2.6.4s.2.3.2.5-.1.4-.3.6-.4.5-.6.6c-.2.2-.4.3-.6.3-.1 0-.3-.1-.6-.3-.1-.1-.2-.1-.3-.1l-.3-1.7c-.6.1-1 .4-1.3.8s-.5.9-.6 1.5-.1 1.3-.1 2.2h3c.1 0 .1 0 .1.1s0 .2-.1.3v.3l-.1.1c-.1.1-.5.2-1.2.3-.6.1-1.1.3-1.7.4v6.7c.1 0 .2 0 .3.1.7.1 1.4.3 2.1.5.1 0 .1.1.1.1s0 .2-.1.5c0 .1-.1.1-.2.1h-6c-.1 0-.2 0-.2-.1 0 0 0-.2.1-.6 0-.1.1-.2.2-.2.2-.1.5-.2.8-.3l.5-.2v-6.6l-2.2-.6-1.5.3c-.5.1-1 .2-1.3.2v6.7l1.2.3c.5.1.8.2.9.2.1 0 .1.1.1.1 0 .1 0 .2-.1.5 0 .1-.1.1-.2.1h-5.6c-.4.3-.4.3-.4.2"/><path class="st1" d="M174.1 103.5c.6 0 1-.2 1.3-.5.2-.2.3-.5.3-1 .1-.5.1-.9.1-1.3 0-.9-.1-1.8-.4-2.5-.3-.7-.6-1.2-1.1-1.6-.4-.4-1-.6-1.6-.6-.3 0-.5 0-.7.1s-.3.2-.5.3c-.1.2-.3.5-.3.9-.2 1.2-.2 2.4.2 3.6.2.7.5 1.3 1 1.7.4.7 1 .9 1.7.9m-5.4-3.3c0-.9.2-1.8.6-2.6.4-.8 1-1.5 1.7-2s1.6-.8 2.4-.7c.9 0 1.7.2 2.4.5s1.3.9 1.7 1.6.6 1.6.6 2.6c0 .9-.2 1.8-.6 2.6s-1 1.5-1.7 2-1.5.7-2.3.7c-.9 0-1.7-.2-2.5-.5-.7-.3-1.3-.9-1.7-1.6s-.6-1.6-.6-2.6m11.3 3v-6.1c-.1-.2-.3-.4-.4-.5-.2-.1-.4-.3-.6-.3-.1 0-.2-.1-.3-.1s-.1-.1-.1-.1 0-.1.1-.3c0-.1.1-.1.1-.1s.2-.1.6-.2l1.2-.3c.4-.1.7-.1 1.1-.1h.1v.1l.5 1.8c.4-.7.8-1.2 1.2-1.5s.8-.5 1.3-.5c.4 0 .8.1 1.1.3.2.1.4.3.5.4s.2.3.2.5-.1.4-.3.7c-.2.3-.4.5-.6.7-.2.2-.5.3-.6.3s-.3 0-.5-.1-.3-.2-.4-.3l-.2-1c-.2.1-.5.2-.8.4-.3.2-.6.4-.8.6v5.9c.2 0 .6.1 1.3.3.7.1 1.1.2 1.2.3.1 0 .1.1.1.1s0 .2-.1.5c0 .1-.1.1-.2.1h-6.2v-.1s0-.2.1-.6c0 0 0-.1.1-.1l.1-.1c.2-.1.5-.2.8-.3l.4-.3zm13.2-.3v-5.4c-.3-.4-.7-.7-1.1-.9-.5-.2-.9-.3-1.4-.3-.3 0-.5 0-.7.1s-.4.2-.5.4c-.3.5-.5 1.4-.5 2.5 0 .8.1 1.5.4 2.2.3.6.6 1.1 1 1.5.3.2.5.4.8.4s.7 0 1-.1c.3-.2.7-.3 1-.4m0-7.2v-3.8c-.2-.2-.4-.4-.6-.5-.2-.1-.5-.2-.8-.3-.1 0-.1 0-.1-.1 0 0 0-.1.1-.3 0-.1.1-.1.2-.2.6-.2 1.1-.3 1.7-.4.6-.1 1.2-.2 1.8-.2.1 0 .2 0 .2.1v12.6c.1.3.4.5.7.7s.6.3.9.3c.1 0 .1.1.1.1s0 .2-.1.4c0 0 0 .1-.1.1 0 0-.1 0-.1.1-.2.1-.5.2-1.1.3-.5.1-.9.2-1.2.2-.1 0-.2 0-.2-.1-.1-.3-.3-.6-.5-.8-.2-.3-.4-.5-.6-.6-.3.5-.8.8-1.3 1.1-.5.3-1.1.4-1.7.4-.7 0-1.3-.2-1.9-.5-.6-.3-1.1-.8-1.4-1.5s-.6-1.6-.6-2.6.2-1.9.6-2.7c.4-.8.9-1.5 1.5-1.9.7-.5 1.4-.7 2.2-.7.4 0 .8.1 1.2.2s.7.3 1.1.6m7.7 7.7c.1.1.2.1.3.1.3 0 .6-.1 1-.2s.8-.2 1-.3v-3c-.5.1-1 .1-1.5.3-.4.1-.8.2-1 .4-.2.1-.4.2-.5.3-.1.1-.2.4-.2.7 0 .3.1.6.2 1l.7.7m-3.2-1.2c0-.6.1-1.2.4-1.5.2-.4.6-.7 1.1-.9.4-.2.9-.3 1.3-.3.5-.1 1-.1 1.4-.1.5 0 .9 0 1.3.1V99c0-.6-.1-1.2-.2-1.7s-.3-.9-.7-1.1c-.1-.1-.3-.2-.5-.2s-.4-.1-.6-.1c-.2 0-.4 0-.6.1l-.3 1.8c-.1.1-.3.2-.4.3-.1.1-.3.1-.4.1-.2 0-.4-.1-.6-.2-.2-.2-.5-.3-.6-.6-.2-.2-.3-.4-.3-.6s.1-.3.3-.5.5-.3.8-.5c.5-.2 1.2-.4 1.9-.6.8-.1 1.3-.2 1.7-.2 1 0 1.7.3 2.2.8.4.5.7 1.3.7 2.2v4.7c.1.3.4.5.6.6.3.2.6.3 1 .4.1 0 .1.1.1.1s0 .2-.1.4c0 0 0 .1-.1.1l-.1.1c-.3.2-.7.3-1 .4-.4.1-.8.2-1.2.2h-.2l-.1-.1c-.2-.3-.3-.6-.5-.9s-.4-.5-.6-.6c-.2.3-.5.5-.8.8-.3.2-.7.4-1.1.6-.4.2-.9.2-1.3.2-.6 0-1.1-.1-1.5-.4-.4-.2-.7-.6-.9-1 0-.5-.1-1-.1-1.4m13.2-5.3v5.6c.3.3.7.5 1.2.6s.9.2 1.4.2c.2 0 .4 0 .6-.1.1 0 .3-.1.4-.2.2-.2.3-.5.5-1.1.1-.5.2-1.1.2-1.7 0-.7-.1-1.4-.3-2s-.5-1.1-.8-1.5c-.2-.2-.4-.3-.7-.3-.2 0-.6 0-1.1.1-.6.2-1 .3-1.4.4m-.2 6.7c-1.5.8-2.4 1.3-2.6 1.3-.1 0-.1 0-.1-.1-.2-.3-.3-.5-.3-.5 0-.1 0-.1.1-.2.3-.5.5-1 .8-1.6V91.9c-.2-.2-.4-.4-.6-.5-.2-.1-.5-.2-.8-.3-.1 0-.1 0-.1-.1 0 0 0-.1.1-.3 0-.1.1-.1.2-.2.5-.1 1.1-.3 1.7-.4.6-.1 1.2-.2 1.8-.2h.1v6.4c.5-.4 1-.7 1.6-1s1.1-.4 1.6-.4c.8 0 1.4.2 1.9.7s.8 1 1.1 1.7c.2.7.3 1.5.3 2.3 0 .7-.1 1.5-.3 2.2-.2.6-.5 1.2-1 1.8-.3.4-.8.8-1.2 1-.5.3-1 .4-1.6.4s-1-.1-1.4-.3c-.5-.3-.9-.7-1.3-1.1m8.4-.3V91.9c-.2-.2-.4-.4-.6-.5-.2-.1-.5-.2-.7-.3-.1 0-.1 0-.1-.1 0 0 0-.1.1-.3 0-.1.1-.1.2-.2.6-.2 1.2-.3 1.8-.4s1.1-.2 1.7-.2h.1v13.4c.2.1.4.2.7.3l.7.3c.1 0 .1.1.1.2 0 0 0 .2-.1.5 0 .1-.1.1-.2.1h-4.9c-.1 0-.2 0-.2-.1s0-.2.1-.6c0 0 0-.1.1-.1l.1-.1c.1 0 .3-.1.7-.3l.4-.2z"/><path class="st1" d="M227.4 95.9l-1 .4 2.4 6.2 2-6.2-1.1-.5s-.1 0-.1-.1v-.1s0-.2.1-.5c0-.1 0-.1.1-.1h3.9v.1s0 .2-.1.5c0 0 0 .1-.1.1l-.1.1-1 .5-2.4 6.7c-.5 1.4-1 2.5-1.3 3.4-.4.9-.8 1.5-1.2 2.1-.4.5-.8.9-1.3 1.1-.3.1-.6.2-.9.2-.4 0-.7-.1-1.1-.2-.3-.1-.7-.3-1-.5s-.4-.4-.4-.7c0-.2.1-.4.3-.7.2-.3.4-.5.6-.7s.5-.3.6-.3.3 0 .5.1.3.2.4.3l.3 1.7c.2-.1.6-.6 1.1-1.4s.9-1.7 1.3-2.5h-.4c-.2 0-.3-.1-.4-.3l-3.4-8.3-1.2-.5s-.1 0-.1-.1v-.1s0-.2.1-.5c0-.1 0-.1.1-.1h4.9c.1 0 .2 0 .2.1 0 0 0 .2-.1.5-.1.2-.1.2-.2.3m5 7.9c0-.3.1-.5.2-.9.1-.3.2-.5.4-.8.1-.2.3-.4.4-.4h.1c.2 0 .4.1.7.2s.6.3.8.4c.3.2.4.3.5.4v.1c0 .2-.1.4-.2.8-.1.3-.2.5-.4.8-.2.2-.3.4-.4.4h-.1c-.1 0-.4-.1-.7-.2s-.6-.2-.8-.4c-.3-.1-.5-.2-.5-.4m17.8-.8c.2-.3.5-.7.7-1.1s.4-.6.4-.6c.1-.1.2-.2.3-.2l.6.1c.1 0 .2.1.2.2 0 .3-.1.7-.2 1.4s-.3 1.2-.5 1.6c0 .1-.1.2-.3.2H241c-.1 0-.1 0-.1-.1s0-.3.1-.6c0-.1.1-.2.2-.2l.3-.1c.3-.1.5-.2.6-.2s.3-.1.7-.3V92.2c-.1 0-.4-.1-.9-.3-.5-.2-.7-.3-.8-.3s-.1-.1-.1-.1c0-.1 0-.3.1-.6 0-.1.1-.1.2-.1h6.1v.3c0 .1-.1.2-.1.5 0 .1-.1.2-.2.2-.2.1-.4.1-.6.2-.1.1-.3.1-.4.1l-.7.3v11.4c.4-.1 1.3-.2 2.6-.4 1.4-.3 2.1-.4 2.2-.4m5.4-9.8h-.1c-.1 0-.3-.1-.6-.2s-.5-.2-.7-.4c-.2-.2-.4-.3-.4-.4v-.1c0-.2.1-.4.2-.7.1-.2.2-.5.4-.7.1-.2.3-.3.4-.4h.1c.1 0 .3.1.6.2s.5.2.7.4.4.3.4.4v.2c0 .2-.1.4-.2.6-.3.7-.6 1-.8 1.1m-3.1 11.3s0-.2.1-.6c0-.1.1-.2.2-.2l.8-.3c.3-.1.4-.2.5-.2V97c-.2-.2-.4-.4-.6-.5-.2-.1-.5-.3-.8-.3-.1 0-.1 0-.1-.1 0 0 0-.1.1-.3 0-.1.1-.1.2-.2.6-.2 1.1-.3 1.7-.4.6-.1 1.2-.2 1.8-.2h.1v8.3c.5.2.9.3 1.4.5.1 0 .1.1.1.1s0 .2-.1.5c0 .1-.1.1-.2.1h-5c-.2.1-.2.1-.2 0m11-2l2.1-6.1-1.1-.5s-.1 0-.1-.1v-.1s0-.2.1-.5c0-.1.1-.1.2-.1h3.5c.1 0 .2 0 .2.1 0 0 0 .2-.1.5v.1l-.1.1-1 .6-3.1 7.8c0 .1-.1.2-.2.3-.1.1-.2.1-.4.2-.7.1-1.1.2-1.2.2s-.1 0-.2-.1-.1-.1-.1-.2l-3.2-8.2-1.2-.5c-.1 0-.2-.1-.2-.2 0 0 0-.2.1-.5 0-.1.1-.1.2-.1h4.7c.1 0 .1 0 .1.1v.2l-.1.3s0 .1-.1.1l-.1.1-.9.4 2.2 6.1zm7.3-6.2c-.2.2-.3.5-.5 1s-.2 1-.2 1.7l3.9-.4c0-.5-.2-1-.4-1.4-.2-.4-.5-.7-.9-.9-.4-.2-.8-.3-1.2-.3h-.5c0 .2-.1.2-.2.3m4.6 3.6h-5.3c.1.6.2 1.2.5 1.7s.6 1 1 1.3.9.5 1.3.5c.3 0 .7 0 1-.1s.7-.2 1.2-.3c.3-.1.4-.1.5-.1 0 0 .1 0 .1.1.1.1.1.2.1.2s0 .1-.1.2c-.3.3-.6.6-.9.8-.4.3-.8.5-1.3.6-.5.2-.9.2-1.4.2-.8 0-1.5-.2-2.2-.5s-1.2-.9-1.6-1.6-.6-1.6-.6-2.7c0-.9.2-1.8.6-2.6s1-1.4 1.7-1.9 1.6-.7 2.5-.7c.7 0 1.3.1 1.9.4.5.3.9.7 1.2 1.2.3.5.4 1.1.4 1.7 0 .5-.1.9-.2 1.4 0 .1-.1.2-.2.3 0-.2-.1-.1-.2-.1m12.6-1.1l-1.7 5.3c-.1.2-.1.3-.2.3-.1.1-.2.1-.4.2l-.5.1c-.4.1-.7.1-.8.1-.2 0-.3-.1-.3-.2l-2.5-8.2-1.2-.5c-.1 0-.1 0-.2-.1v-.1c0-.1 0-.2.1-.5 0-.1 0-.1.1-.1h4.8c.1 0 .1 0 .1.1s0 .2-.1.5c0 0 0 .1-.1.1l-.1.1-1 .5 1.6 6.2 2.2-7.3c0-.1.1-.2.2-.2h.7c.1 0 .2.1.2.2l2.7 7.3 1.5-6.2-1.4-.4c-.1 0-.1-.1-.2-.1v-.1c0-.1 0-.2.1-.5 0-.1 0-.1.1-.1h3.8c.1 0 .1 0 .1.1 0 0 0 .2-.1.5 0 .1-.1.1-.1.2l-1 .6-2.2 7.5c-.1.3-.1.4-.2.5s-.2.2-.3.2c-.8.1-1.3.2-1.5.2-.1 0-.2-.1-.2-.2l-2-6zm10.4-2.5c-.2.2-.3.5-.5 1s-.2 1-.2 1.7l3.9-.4c0-.5-.2-1-.4-1.4-.2-.4-.5-.7-.9-.9-.4-.2-.8-.3-1.2-.3h-.5c0 .2-.1.2-.2.3m4.6 3.6h-5.3c.1.6.2 1.2.5 1.7s.6 1 1 1.3.9.5 1.3.5c.3 0 .7 0 1-.1s.7-.2 1.2-.3c.3-.1.4-.1.5-.1 0 0 .1 0 .1.1.1.1.1.2.1.2s0 .1-.1.2c-.3.3-.6.6-.9.8-.4.3-.8.5-1.3.6-.5.2-.9.2-1.4.2-.8 0-1.5-.2-2.2-.5s-1.2-.9-1.6-1.6-.6-1.6-.6-2.7c0-.9.2-1.8.6-2.6s1-1.4 1.7-1.9 1.6-.7 2.5-.7c.7 0 1.3.1 1.9.4.5.3.9.7 1.2 1.2.3.5.4 1.1.4 1.7 0 .5-.1.9-.2 1.4 0 .1-.1.2-.2.3 0-.2-.1-.1-.2-.1m2.5 3.4V91.9c-.2-.2-.4-.4-.6-.5s-.5-.2-.7-.3c-.1 0-.1 0-.1-.1 0 0 0-.1.1-.3 0-.1.1-.1.2-.2.6-.2 1.2-.3 1.8-.4.6-.1 1.1-.2 1.7-.2h.1v13.4c.2.1.4.2.7.3l.7.3c.1 0 .1.1.1.2 0 0 0 .2-.1.5 0 .1-.1.1-.2.1h-4.9c-.1 0-.2 0-.2-.1s0-.2.1-.6c0 0 0-.1.1-.1l.1-.1c.1 0 .3-.1.7-.3l.4-.2zm5.9 0V91.9c-.2-.2-.4-.4-.6-.5s-.5-.2-.7-.3c-.1 0-.1 0-.1-.1 0 0 0-.1.1-.3 0-.1.1-.1.2-.2.6-.2 1.2-.3 1.8-.4.6-.1 1.1-.2 1.7-.2h.1v13.4c.2.1.4.2.7.3l.7.3c.1 0 .1.1.1.2 0 0 0 .2-.1.5 0 .1-.1.1-.2.1h-4.9c-.1 0-.2 0-.2-.1s0-.2.1-.6c0 0 0-.1.1-.1l.1-.1c.1 0 .3-.1.7-.3l.4-.2zm4.8.5c0-.3.1-.5.2-.9.1-.3.2-.5.4-.8.1-.2.3-.4.4-.4h.1c.2 0 .4.1.7.2.3.1.6.3.8.4.3.2.4.3.5.4v.1c0 .2-.1.4-.2.8-.1.3-.2.5-.4.8-.2.2-.3.4-.4.4h-.1c-.1 0-.4-.1-.7-.2-.3-.1-.6-.2-.8-.4-.3-.1-.5-.2-.5-.4m-202.8-37c-1.8 0-2.8 1.1-2.8 2.9s1 2.9 2.8 2.9c1.1 0 2.2-.3 3-.7l.8 2.2c-1 .6-2.4 1-3.8 1-3.5 0-5.4-1.9-5.4-5.4s2-5.4 5.5-5.4c1.6 0 3 .5 3.9 1.3l-1.2 2c-.8-.5-1.7-.8-2.8-.8m14.2 3c0-1.9-1-2.9-2.8-2.9S122 68 122 69.8s1 2.9 2.8 2.9 2.8-1.1 2.8-2.9m-8.3 0c0-3.5 2-5.4 5.5-5.4s5.5 1.9 5.5 5.4-2 5.4-5.5 5.4-5.5-2-5.5-5.4m23.3 5.2l-.5-6.4-2.2 4.4h-1.8l-2.2-4.4-.5 6.4h-2.6l.8-10.5h2.5L139 70l2.8-5.5h2.5l.8 10.5h-2.5zm15.2 0l-.5-6.4-2.2 4.4h-1.8l-2.2-4.4-.5 6.4H148l.8-10.5h2.5l2.8 5.5 2.8-5.5h2.5l.8 10.5h-2.4zm14.5-4.1c0 2.7-1.6 4.2-4.5 4.2s-4.5-1.5-4.5-4.2v-6.4h2.7V71c0 1.1.6 1.6 1.7 1.6s1.7-.6 1.7-1.6v-6.5h2.7v6.4h.2zm12.9-6.4V75h-2.1l-4.6-6v6h-2.7V64.5h2.3l4.3 6v-6h2.8zm3.9 10.5h2.7V64.5h-2.7V75zm14.4-8.1h-3.1V75h-2.7v-8.2h-3.1v-2.4h8.9v2.5zm2.9 8.1h2.7V64.5h-2.7V75zm14.4-2.4V75h-8V64.5h7.9v2.4h-5.2v1.8h4.4V71h-4.4v1.7l5.3-.1zm7.3-5.9c-1.2 0-1.5.2-1.5.8 0 1.7 6.3.3 6.3 4.3 0 2.1-1.6 3.3-4.5 3.3-2 0-3.8-.5-5-1.4l1-2.1c1.1.7 2.7 1.1 3.9 1.1 1.3 0 1.6-.3 1.6-.8 0-1.7-6.1-.1-6.1-4.2 0-2 1.3-3.3 4.2-3.3 2.1 0 3.2.4 4.4 1.2l-1 2c-1.1-.7-2.1-.9-3.3-.9"/></svg>
