<svg height="55" width="340" xmlns="http://www.w3.org/2000/svg"><g fill="#fff" fill-rule="evenodd"><path d="M331.55 54.422h1.052v-9.3c0-2.526 1.248-4.607 3.462-4.607 1.803 0 2.884.888 2.884 3.47v10.437H340V43.487c0-2.75-1.607-3.915-3.657-3.915-1.967 0-3.188 1.249-3.685 2.525h-.056v-2.192h-1.052zm-6.703-13.907c2.769 0 3.683 2.47 3.683 6.662 0 4.164-.914 6.635-3.683 6.635-2.772 0-3.688-2.47-3.688-6.635 0-4.192.916-6.662 3.688-6.662zm-.084 14.238c3.99 0 4.93-3.412 4.93-7.602 0-4.166-.94-7.58-4.765-7.58-3.99 0-4.932 3.414-4.932 7.58 0 4.19.942 7.602 4.767 7.602zm-11.11-13.904h1.968v11.297c0 1.582.64 2.443 2.134 2.443.415 0 .97-.057 1.495-.167v-.945c-.468.14-.856.167-1.3.167-.61 0-1.277-.22-1.277-1.611V40.849h2.412v-.944h-2.412v-4.303h-1.052v4.303h-1.968zm-.843 3.136v-.443c0-1.779-.556-3.972-3.768-3.972-2.3 0-3.962 1.335-3.962 3.75 0 1.86.913 2.914 2.715 3.635l2.132.861c1.61.639 2.163 1.58 2.163 2.97 0 1.61-.886 3.026-3.02 3.026-2.411 0-3.241-1.5-3.241-3.554v-.472h-1.055v.39c0 1.691.277 4.577 4.297 4.577 2.298 0 4.181-1.552 4.181-3.995 0-1.972-.886-3.192-2.63-3.858l-2.216-.833c-1.442-.555-2.163-1.333-2.163-2.858 0-1.916 1.275-2.694 2.8-2.694 2.383 0 2.714 1.75 2.714 3.055v.415zm-14.114-3.47c2.77 0 3.683 2.47 3.683 6.662 0 4.164-.912 6.635-3.683 6.635-2.773 0-3.687-2.47-3.687-6.635 0-4.192.914-6.662 3.687-6.662zm-.084 14.238c3.99 0 4.933-3.412 4.933-7.602 0-4.166-.943-7.58-4.766-7.58-3.99 0-4.932 3.414-4.932 7.58 0 4.19.941 7.602 4.765 7.602zM282.41 53.48v-8.967h3.853c2.825 0 4.96.97 4.96 4.495 0 3.278-1.692 4.472-4.906 4.472zm0-9.91v-8.022h4.294c2.55 0 3.88 1.304 3.88 3.997 0 2.802-1.83 4.025-4.378 4.025zm-1.164 10.853h5.488c3.489 0 5.652-2.054 5.652-5.384 0-2.722-1.442-4.804-4.296-4.998v-.055c2.19-.277 3.656-1.776 3.656-4.441 0-2.942-1.303-4.942-5.18-4.942h-5.32zm-7.438-10.52c-.025-1.748-.192-4.747-4.514-4.747-2.577 0-4.74 1.332-4.74 4.11 0 3.08 1.858 3.607 3.659 4.218 1.8.612 3.629 1.026 3.629 3.026 0 2.107-1.718 2.471-2.466 2.471-2.272 0-2.77-1.639-2.77-3.443h-2.328c0 1.527.056 5.272 5.098 5.272 2.771 0 4.794-1.526 4.794-4.663 0-2.94-1.83-3.579-3.63-4.19-1.83-.611-3.657-.944-3.657-2.69 0-2.082 1.66-2.28 2.411-2.28 1.69 0 2.189 1.029 2.189 2.916zm-15.404-4.358h-2.159v1.83h2.16v10.27c0 1.945.582 2.944 2.992 2.944.97 0 1.58-.112 1.885-.166v-1.915c-.25.027-.526.084-1.025.084-1.219 0-1.523-.473-1.523-1.667v-9.55h2.576v-1.83h-2.576v-4.33h-2.33zm-9.695 14.878h2.33v-9.41c0-2.469 1.881-3.525 3.045-3.525.746 0 1.025.085 1.247.11v-2.274c-.222-.112-.554-.169-1.025-.169-1.663 0-2.55 1.195-3.214 2.61h-.054v-2.22h-2.33zm-8.179-17.016h.056l2.522 9.576h-5.319zm-7.258 17.016h2.55l1.468-5.44h6.315l1.415 5.44h2.547l-5.319-19.819h-3.267zm-13.797-8.994v-.556c0-.888.278-3.885 2.716-3.885 2.052 0 2.577 1.971 2.577 3.637v.804zm7.73 1.833v-.945c0-3.192-.415-7.162-4.957-7.162-4.572 0-5.293 4.304-5.293 8.023 0 5.108 1.524 7.632 5.154 7.632 4.045 0 4.987-3.69 4.987-5.272h-2.328c0 1.11-.305 3.443-2.52 3.443-2.856 0-2.856-3.443-2.856-5.719zm-22.273 7.161h2.327V44.151c0-2.164 1.69-2.998 2.937-2.998 2.105 0 2.188 1.86 2.188 2.998v10.271h2.328V43.875c0-1.75 0-4.72-3.907-4.72-1.44 0-2.993.778-3.601 2.139h-.055v-1.75h-2.217zm-5.041.001h2.325V39.545h-2.325zm0-17.155h2.325v-2.665h-2.325zm-11.738 17.154h2.436v-9.27h7.343v-2.165h-7.343v-6.22h7.786v-2.164h-10.222zm-12.246-.01h2.327V41.366h2.55v-1.834h-2.55v-1.75c0-1.024.5-1.413 1.496-1.413h1.082v-1.998h-1.69c-2.245 0-3.215 1.165-3.215 3.412v1.749h-2.161v1.834h2.161zm-5.346-7.44c0 3.22-.5 5.996-2.965 5.996-2.382 0-2.853-2.776-2.853-5.995 0-3.221.498-5.997 2.853-5.997 2.494 0 2.965 2.776 2.965 5.997zm-2.91-7.826c-4.267 0-5.347 3.634-5.347 7.827 0 4.19 1.053 7.826 5.347 7.826 4.267 0 5.348-3.635 5.348-7.826 0-4.193-1.053-7.827-5.348-7.827zm-27.985 15.276h2.328V44.151c0-2.331 1.69-2.998 2.77-2.998 1.913 0 1.995 1.86 1.995 2.998v10.271h2.327V44.151c0-2.331 1.69-2.998 2.77-2.998 1.912 0 1.996 1.86 1.996 2.998v10.271h2.328V43.875c0-1.75 0-4.72-3.908-4.72-1.522 0-2.853 1.054-3.518 2.359-.47-1.693-1.496-2.36-3.214-2.36-1.44 0-2.993.779-3.602 2.14h-.055v-1.75h-2.217zm-2.768-14.89h-2.326v10.272c0 2.167-1.693 2.998-2.939 2.998-2.105 0-2.187-1.86-2.187-2.998V39.533h-2.328V50.08c0 1.748 0 4.718 3.904 4.718 1.442 0 2.993-.776 3.603-2.137h.055v1.75h2.218zM117.2 45.419v-.556c0-.886.277-3.886 2.714-3.886 2.052 0 2.576 1.971 2.576 3.638v.804zm7.728 1.832v-.943c0-3.192-.413-7.161-4.957-7.161-4.573 0-5.292 4.301-5.292 8.02 0 5.108 1.522 7.632 5.153 7.632 4.044 0 4.987-3.69 4.987-5.272h-2.329c0 1.11-.302 3.443-2.519 3.443-2.854 0-2.854-3.443-2.854-5.719zm-12.217-3.357c-.026-1.751-.192-4.747-4.515-4.747-2.576 0-4.738 1.331-4.738 4.107 0 3.08 1.857 3.61 3.656 4.218 1.802.612 3.632 1.028 3.632 3.027 0 2.11-1.719 2.47-2.467 2.47-2.272 0-2.77-1.637-2.77-3.442h-2.328c0 1.527.055 5.273 5.098 5.273 2.771 0 4.793-1.526 4.793-4.662 0-2.942-1.828-3.58-3.63-4.191-1.827-.61-3.655-.945-3.655-2.693 0-2.082 1.661-2.277 2.409-2.277 1.69 0 2.19 1.028 2.19 2.917zm-11.524-4.36h-2.328v10.27c0 2.168-1.689 3-2.936 3-2.106 0-2.19-1.86-2.19-3v-10.27h-2.327V50.08c0 1.748 0 4.718 3.908 4.718 1.44 0 2.991-.776 3.6-2.137h.057v1.75h2.216zm-28.728-4.94h4.1l3.963 15.71h.055l3.962-15.71h4.1V54.41h-2.438v-17.32h-.055l-4.377 17.32h-2.44l-4.376-17.32h-.057v17.32H72.46zM20.795 35.863a2.85 2.85 0 0 0-.382-.028c-1.79 0-3.451 1.69-3.914 3.708v14.335h7.08V41.893c0-3.082-.328-5.691-2.784-6.03zm-12.38 0a2.87 2.87 0 0 0-.383-.028c-1.766 0-3.408 1.648-3.893 3.632v14.411h7.06V41.893c0-3.082-.328-5.691-2.784-6.03zM0 0v33.866c.538-.115 3.221-.923 3.58-.923.244 0 .472.212.472.472l-.032 3.178c.665-1.77 2.728-3.564 5.825-3.564 3.063 0 4.284 1.304 5.216 2.367.398.454.752 1.213.99 1.884.012-.174.065-.331.122-.445.8-1.597 2.56-3.806 6.052-3.806 3.063 0 4.282 1.304 5.216 2.367.93 1.06 1.439 3.01 1.439 4.452V53.88h4.064l-.001-20.117h-2.646c-.04 0-.03-.05-.03-.05l.184-1.607s.02-.13.174-.13h2.318v-1.248c0-2.718.036-5.496 2.028-7.8 2.044-2.359 4.58-3.27 7.266-3.27 2.688 0 5.68 1.578 5.543 5.068-.15 1.267-.807 2.315-2.537 2.315a2.472 2.472 0 0 1-2.474-2.47c0-1.364 1.102-2.47 2.215-2.47-.102-.399-1.06-1.165-2.556-1.165a4.59 4.59 0 0 0-.906.092c-2.85.561-3.386 2.42-3.386 8.731l.004 2.217h3.41c.057 0 .04.046.04.046l-.185 1.631s-.038.11-.14.11H38.14V53.88h5.302c-1.797-1.315-2.043-3.105-1.936-4.602.117-1.628 1.463-3.962 3.634-5.278 2.072-1.255 4.87-1.863 7.436-1.863.118 0 .234.001.353.004h.232c0-4.667.705-7.184-2.693-7.79a5.15 5.15 0 0 0-.91-.082c-2.294 0-3.45 1.666-3.652 2.153 1.154 0 2.267 1.01 2.267 2.469a2.471 2.471 0 0 1-2.474 2.469c-1.367 0-2.59-1.015-2.59-2.724 0-1.489 1.474-5.753 7.759-5.753 4.638 0 6.22 2.731 6.728 4.421V0zm46.47 48.73c0-4.203 5.198-4.964 6.756-4.992l-.122 7.1c-.598.848-1.725 1.486-3.144 1.486-1.955 0-3.49-1.984-3.49-3.594z"/></g></svg>