<svg xmlns="http://www.w3.org/2000/svg" width="320" height="36" viewBox="0 0 320 36">
  <g fill="#002F54" fill-rule="evenodd">
    <path d="M8.27900592,22.8021158 C8.27900592,23.7684316 9.24373964,24.1691684 10.0872899,24.1691684 L12.5791243,24.1691684 L12.5791243,27.1458 L-0.000284023668,27.1458 L-0.000284023668,24.1691684 L2.37131361,24.1691684 C3.65699408,24.1691684 4.09912426,23.7684316 4.09912426,22.8021158 L4.09912426,4.8258 C4.09912426,3.86043158 3.45628402,3.45874737 2.53226036,3.45874737 L-0.000284023668,3.45874737 L-0.000284023668,0.482115789 L12.6188876,0.482115789 L18.0446864,17.8956947 L18.1251598,17.8956947 L24.2345089,0.482115789 L36.3708402,0.482115789 L36.3708402,3.45874737 L33.6782959,3.45874737 C32.7542722,3.45874737 32.111432,3.86043158 32.111432,4.8258 L32.111432,22.2393789 C32.111432,23.5268526 32.7145089,24.1691684 33.8392426,24.1691684 L36.3708402,24.1691684 L36.3708402,27.1458 L22.4252781,27.1458 L22.4252781,24.1691684 L25.0780592,24.1691684 C26.1630296,24.1691684 26.8058698,23.6073789 26.8058698,22.8021158 L26.8058698,4.50464211 L26.7253964,4.50464211 L19.0491834,27.1458 L15.7137988,27.1458 L8.35947929,4.50464211 L8.27900592,4.50464211 L8.27900592,22.8021158 Z"/>
    <path d="M46.6952899 25.0946526C49.9502012 25.0946526 51.6382485 22.5613895 51.6382485 17.7354947 51.6382485 12.9096 49.9502012 10.3753895 46.6952899 10.3753895 43.4403787 10.3753895 41.7513846 12.9096 41.7513846 17.7354947 41.7513846 22.5613895 43.4403787 25.0946526 46.6952899 25.0946526M46.6952899 7.72181053C52.7232189 7.72181053 57.024284 11.3407579 57.024284 17.7354947 57.024284 24.1292842 52.7232189 27.7491789 46.6952899 27.7491789 40.6664142 27.7491789 36.3662959 24.1292842 36.3662959 17.7354947 36.3662959 11.3407579 40.6664142 7.72181053 46.6952899 7.72181053M66.6194556 11.7431053L66.699929 11.7431053C68.2667929 9.20984211 69.9548402 7.72152632 73.0895148 7.72152632 75.7422959 7.72152632 77.6717633 8.92752632 78.4348402 11.5422632 80.2033609 9.16910526 82.052355 7.72152632 85.1065562 7.72152632 88.1607574 7.72152632 90.6933018 9.77257895 90.6933018 13.3915263L90.6933018 22.8822632C90.6933018 24.0494211 91.1751953 24.4918421 92.299929 24.4918421L94.4301065 24.4918421 94.4301065 27.1454211 83.1770888 27.1454211 83.1770888 24.4918421 84.3434793 24.4918421C85.468213 24.4918421 85.9501065 24.0494211 85.9501065 22.8822632L85.9501065 13.3915263C85.9501065 11.7828947 84.664426 10.8582632 83.0966154 10.8582632 80.7259645 10.8582632 78.6355503 12.9898421 78.6355503 15.6443684L78.6355503 22.8822632C78.6355503 24.0494211 79.1183905 24.4918421 80.244071 24.4918421L81.3290414 24.4918421 81.3290414 27.1454211 71.0805207 27.1454211 71.0805207 24.4918421 72.2857278 24.4918421C73.4114083 24.4918421 73.8942485 24.0494211 73.8942485 22.8822632L73.8942485 14.4374211C73.8942485 12.3465789 73.4918817 10.8582632 71.0805207 10.8582632 68.5886864 10.8582632 66.5796923 13.2314211 66.5796923 15.6443684L66.5796923 22.8822632C66.5796923 24.0494211 67.0615858 24.4918421 68.1872663 24.4918421L69.3924734 24.4918421 69.3924734 27.1454211 57.9785089 27.1454211 57.9785089 24.4918421 60.2289231 24.4918421C61.3546036 24.4918421 61.836497 24.0494211 61.836497 22.8822632L61.836497 12.5881579C61.836497 11.421 61.3546036 10.9785789 60.2289231 10.9785789L57.9785089 10.9785789 57.9785089 8.325 66.6194556 8.325 66.6194556 11.7431053zM98.8979882 19.7860737C99.7017751 23.3244947 102.152899 25.0553368 105.689941 25.0553368 107.096805 25.0553368 108.824615 24.2908105 108.824615 22.6414421 108.824615 18.7003895 96.1647337 20.9522842 96.1647337 13.7541789 96.1647337 9.77238947 99.9829586 7.72133684 103.52 7.72133684 105.650178 7.72133684 107.698935 8.52565263 109.427692 9.69186316L110.231479 8.32481053 112.44213 8.32481053 112.44213 15.0407053 109.829112 15.0407053C108.865325 12.1048105 106.976568 10.6174421 103.881657 10.6174421 102.555266 10.6174421 100.827456 11.1801789 100.827456 12.7888105 100.827456 15.9255474 113.486391 14.4372316 113.486391 21.7973368 113.486391 26.0197579 109.909586 27.7487053 106.132071 27.7487053 103.72071 27.7487053 101.309349 27.3460737 99.4205917 25.6976526L98.6168047 27.1461789 95.9640237 27.1461789 95.9640237 19.7860737 98.8979882 19.7860737zM125.703195 11.6626737L130.445444 11.6626737C134.786272 11.6626737 136.032189 10.2548842 136.032189 7.2792 136.032189 4.78572632 134.383905 3.37793684 130.847811 3.37793684L125.703195 3.37793684 125.703195 11.6626737zM115.615621 27.1455158L115.615621 24.1698316 118.428402 24.1698316C119.67432 24.1698316 120.076686 23.7681474 120.076686 22.7213053L120.076686 4.90698947C120.076686 3.86109474 119.67432 3.45846316 118.428402 3.45846316L115.615621 3.45846316 115.615621.482778947 133.098225.482778947C138.925444.482778947 141.658698 2.77541053 141.658698 7.15888421 141.658698 11.3007789 138.16142 13.3120421 134.102722 13.6739368L134.102722 13.7544632C138.322367 14.2764632 139.287101 16.1257263 139.287101 19.2634105 139.287101 23.5265684 140.251834 24.1698316 140.934438 24.1698316 141.899172 24.1698316 142.301538 23.3247789 142.301538 20.9525684L142.301538 19.7067789 144.953373 19.7067789 144.953373 20.9525684C144.953373 26.1005684 142.743669 27.9498316 139.407337 27.9498316 135.429112 27.9498316 134.222959 25.7784632 134.222959 22.4806737 134.222959 16.0461474 132.776331 14.6383579 128.073846 14.6383579L125.703195 14.6383579 125.703195 22.7213053C125.703195 23.7681474 126.104615 24.1698316 127.350533 24.1698316L130.284497 24.1698316 130.284497 27.1455158 115.615621 27.1455158zM151.333775 0C152.901586 0 154.227976 1.28652632 154.227976 2.89610526 154.227976 4.50378947 152.901586 5.79126316 151.333775 5.79126316 149.766911 5.79126316 148.440521 4.50378947 148.440521 2.89610526 148.440521 1.28652632 149.766911 0 151.333775 0L151.333775 0zM146.028213 27.1458947L146.028213 24.4913684 147.877207 24.4913684C149.002888 24.4913684 149.484781 24.0489474 149.484781 22.8827368L149.484781 12.5876842C149.484781 11.4214737 149.002888 10.9790526 147.877207 10.9790526L146.028213 10.9790526 146.028213 8.32452632 154.227976 8.32452632 154.227976 22.8827368C154.227976 24.0489474 154.70987 24.4913684 155.834604 24.4913684L157.803834 24.4913684 157.803834 27.1458947 146.028213 27.1458947zM162.785799 19.7860737C163.590533 23.3244947 166.04071 25.0553368 169.578698 25.0553368 170.984615 25.0553368 172.712426 24.2908105 172.712426 22.6414421 172.712426 18.7003895 160.053491 20.9522842 160.053491 13.7541789 160.053491 9.77238947 163.870769 7.72133684 167.407811 7.72133684 169.537988 7.72133684 171.587692 8.52565263 173.315503 9.69186316L174.11929 8.32481053 176.329941 8.32481053 176.329941 15.0407053 173.71787 15.0407053C172.753136 12.1048105 170.864379 10.6174421 167.769467 10.6174421 166.443077 10.6174421 164.715266 11.1801789 164.715266 12.7888105 164.715266 15.9255474 177.374201 14.4372316 177.374201 21.7973368 177.374201 26.0197579 173.798343 27.7487053 170.020828 27.7487053 167.609467 27.7487053 165.19716 27.3460737 163.308402 25.6976526L162.504615 27.1461789 159.852781 27.1461789 159.852781 19.7860737 162.785799 19.7860737zM184.80871 0C186.375574 0 187.701964 1.28652632 187.701964 2.89610526 187.701964 4.50378947 186.375574 5.79126316 184.80871 5.79126316 183.241846 5.79126316 181.914509 4.50378947 181.914509 2.89610526 181.914509 1.28652632 183.241846 0 184.80871 0L184.80871 0zM179.503148 27.1458947L179.503148 24.4913684 181.352142 24.4913684C182.477822 24.4913684 182.959716 24.0489474 182.959716 22.8827368L182.959716 12.5876842C182.959716 11.4214737 182.477822 10.9790526 181.352142 10.9790526L179.503148 10.9790526 179.503148 8.32452632 187.701964 8.32452632 187.701964 22.8827368C187.701964 24.0489474 188.183858 24.4913684 189.309538 24.4913684L191.278769 24.4913684 191.278769 27.1458947 179.503148 27.1458947zM201.245444 11.8236316L201.325917 11.8236316C202.973254 9.33015789 205.183905 7.72152632 208.31858 7.72152632 211.854675 7.72152632 214.025562 9.85310526 214.025562 14.1958421L214.025562 22.8822632C214.025562 24.0494211 214.507456 24.4918421 216.436923 24.4918421L217.88355 24.4918421 217.88355 27.1454211 206.148639 27.1454211 206.148639 24.4918421 207.112426 24.4918421C208.800473 24.4918421 209.282367 24.0494211 209.282367 22.8822632L209.282367 14.5179474C209.282367 11.5015263 207.67574 10.8582632 205.746272 10.8582632 203.817751 10.8582632 201.245444 12.9093158 201.245444 15.4833158L201.245444 22.8822632C201.245444 24.0494211 201.727337 24.4918421 202.852071 24.4918421L204.420828 24.4918421 204.420828 27.1454211 192.604497 27.1454211 192.604497 24.4918421 194.895621 24.4918421C196.020355 24.4918421 196.502249 24.0494211 196.502249 22.8822632L196.502249 13.1508947C196.502249 11.421 196.020355 10.9785789 193.929941 10.9785789L192.604497 10.9785789 192.604497 8.325 201.245444 8.325 201.245444 11.8236316zM228.477349 19.6250211C230.808237 19.6250211 231.97368 18.0173368 231.97368 15.0009158 231.97368 11.5818632 230.808237 9.97323158 228.477349 9.97323158 226.187172 9.97323158 225.021728 11.5818632 225.021728 14.7991263 225.021728 18.0173368 226.187172 19.6250211 228.477349 19.6250211L228.477349 19.6250211zM226.629302 28.2318632C223.855337 28.2318632 222.40871 29.3166 222.40871 30.9261789 222.40871 32.3737579 223.976521 33.4196526 228.518059 33.4196526 232.898651 33.4196526 235.269302 32.5746 235.269302 30.5642842 235.269302 29.2370211 234.224095 28.2318632 232.737704 28.2318632L226.629302 28.2318632zM233.340781 24.1695474C237.721373 24.1695474 239.932024 26.0197579 239.932024 29.4776526 239.932024 32.1321789 238.48445 35.6706 228.638296 35.6706 220.359953 35.6706 218.310249 33.5797579 218.310249 31.2075474 218.310249 28.9556526 220.399716 28.1106 222.329183 27.9097579L222.329183 27.8292316C220.158296 27.4266 218.952142 26.6232316 218.952142 24.1695474 218.952142 22.0379684 220.560663 20.4700737 222.65013 20.3497579L222.65013 20.2692316C220.480189 19.1826 219.635692 17.2528105 219.635692 14.8398632 219.635692 9.93344211 223.976521 7.72133684 228.396876 7.72133684 231.049657 7.72133684 233.702438 8.52565263 235.229538 9.69186316 236.273799 8.32481053 237.721373 7.72133684 239.40942 7.72133684 241.740308 7.72133684 243.468118 9.37070526 243.468118 11.6623895 243.468118 13.3515474 242.664331 14.5177579 240.895811 14.5177579 239.570367 14.5177579 238.444686 13.8347053 238.444686 12.3861789 238.444686 11.1394421 239.12729 10.3351263 240.292734 10.0537579 240.373207 9.89365263 240.09297 9.45123158 238.92658 9.45123158 237.801846 9.45123158 236.837112 10.3351263 236.234036 11.2199684 236.957349 12.5472316 237.359716 13.5126 237.359716 14.8398632 237.359716 19.9878632 232.938414 21.8778632 228.396876 21.8778632 227.030722 21.8778632 225.584095 21.7158632 224.137467 21.1938632 223.534391 21.5557579 223.052497 21.9981789 223.052497 22.7219684 223.052497 23.4457579 223.694391 24.1695474 226.468355 24.1695474L233.340781 24.1695474zM247.054485 21.7973368C248.741586 21.7973368 250.028213 23.0838632 250.028213 24.7730211 250.028213 26.4621789 248.741586 27.7487053 247.054485 27.7487053 245.366438 27.7487053 244.079811 26.4621789 244.079811 24.7730211 244.079811 23.0838632 245.366438 21.7973368 247.054485 21.7973368M263.671479 25.0946526C266.926391 25.0946526 268.615385 22.5613895 268.615385 17.7354947 268.615385 12.9096 266.926391 10.3753895 263.671479 10.3753895 260.416568 10.3753895 258.728521 12.9096 258.728521 17.7354947 258.728521 22.5613895 260.416568 25.0946526 263.671479 25.0946526M263.671479 7.72181053C269.700355 7.72181053 274.000473 11.3407579 274.000473 17.7354947 274.000473 24.1292842 269.700355 27.7491789 263.671479 27.7491789 257.64355 27.7491789 253.343432 24.1292842 253.343432 17.7354947 253.343432 11.3407579 257.64355 7.72181053 263.671479 7.72181053M283.869349 11.3809263L283.949822 11.3809263C285.55645 8.96797895 286.803314 7.72124211 288.973254 7.72124211 291.544615 7.72124211 293.83574 9.20955789 293.83574 12.1454526 293.83574 13.9549263 292.750769 15.5237684 290.781538 15.5237684 289.214675 15.5237684 287.928047 14.5981895 287.928047 12.9497684 287.928047 11.4207158 289.134201 10.5766105 290.580828 10.5368211 290.138698 10.0546105 289.494911 9.97408421 288.892781 9.97408421 285.59716 9.97408421 283.909112 13.2718737 283.909112 16.1670316L283.909112 22.8829263C283.909112 24.0491368 284.391953 24.4915579 285.516686 24.4915579L288.048284 24.4915579 288.048284 27.1460842 275.348639 27.1460842 275.348639 24.4915579 277.55929 24.4915579C278.684024 24.4915579 279.166864 24.0491368 279.166864 22.8829263L279.166864 12.5878737C279.166864 11.4207158 278.684024 10.9792421 277.55929 10.9792421L275.348639 10.9792421 275.348639 8.32471579 283.869349 8.32471579 283.869349 11.3809263zM304.390817 19.6250211C306.721704 19.6250211 307.887148 18.0173368 307.887148 15.0009158 307.887148 11.5818632 306.721704 9.97323158 304.390817 9.97323158 302.100639 9.97323158 300.935195 11.5818632 300.935195 14.7991263 300.935195 18.0173368 302.100639 19.6250211 304.390817 19.6250211L304.390817 19.6250211zM302.542769 28.2318632C299.768805 28.2318632 298.322178 29.3166 298.322178 30.9261789 298.322178 32.3737579 299.889988 33.4196526 304.431527 33.4196526 308.812118 33.4196526 311.182769 32.5746 311.182769 30.5642842 311.182769 29.2370211 310.137562 28.2318632 308.651172 28.2318632L302.542769 28.2318632zM309.254249 24.1695474C313.63484 24.1695474 315.845491 26.0197579 315.845491 29.4776526 315.845491 32.1321789 314.397917 35.6706 304.551763 35.6706 296.27342 35.6706 294.223716 33.5797579 294.223716 31.2075474 294.223716 28.9556526 296.313183 28.1106 298.242651 27.9097579L298.242651 27.8292316C296.071763 27.4266 294.865609 26.6232316 294.865609 24.1695474 294.865609 22.0379684 296.47413 20.4700737 298.563598 20.3497579L298.563598 20.2692316C296.393657 19.1826 295.54916 17.2528105 295.54916 14.8398632 295.54916 9.93344211 299.889988 7.72133684 304.310343 7.72133684 306.963124 7.72133684 309.615905 8.52565263 311.143006 9.69186316 312.187266 8.32481053 313.63484 7.72133684 315.322888 7.72133684 317.653775 7.72133684 319.381586 9.37070526 319.381586 11.6623895 319.381586 13.3515474 318.577799 14.5177579 316.809278 14.5177579 315.483834 14.5177579 314.357207 13.8347053 314.357207 12.3861789 314.357207 11.1394421 315.040757 10.3351263 316.206201 10.0537579 316.286675 9.89365263 316.006438 9.45123158 314.840047 9.45123158 313.715314 9.45123158 312.75058 10.3351263 312.147503 11.2199684 312.870817 12.5472316 313.273183 13.5126 313.273183 14.8398632 313.273183 19.9878632 308.851882 21.8778632 304.310343 21.8778632 302.944189 21.8778632 301.496615 21.7158632 300.050935 21.1938632 299.447858 21.5557579 298.965964 21.9981789 298.965964 22.7219684 298.965964 23.4457579 299.607858 24.1695474 302.381822 24.1695474L309.254249 24.1695474z"/>
  </g>
</svg>
