<svg xmlns="http://www.w3.org/2000/svg" width="252" height="71" viewBox="0 0 252 71">
  <g fill="#FFFFFF" fill-rule="evenodd">
    <path d="M151.9275,51.83425 C160.405,51.83425 167.5875,44.88675 167.5875,35.34925 C167.5875,25.81425 160.405,18.86425 151.9275,18.86425 C143.45,18.86425 136.27,25.81425 136.27,35.34925 C136.27,44.88675 143.45,51.83425 151.9275,51.83425 Z M104.5,43.23925 L117.665,43.23925 C117.065,40.59675 116.7325,37.93675 116.7325,35.34925 C116.7325,32.91425 117.03,30.41925 117.56,27.93175 L104.5,27.93175 C102.3825,23.45925 98.495,18.74675 90.3725,18.74675 C81.07,18.27925 74.83,25.93175 74.83,35.34925 C74.83,44.88675 81.07,51.95175 90.3725,51.95175 C98.495,51.95175 102.3825,47.24425 104.5,43.23925 Z M151.9275,0.61675 C175.7125,0.61675 187.13,19.33925 187.13,35.34925 C187.13,51.36175 175.7125,70.08175 151.9275,70.08175 C136.4125,70.08175 126.195,62.09675 120.9425,52.11175 C115.1625,62.61425 104.095,70.20175 90.1375,70.20175 C77.4125,70.20175 66.6175,63.75175 60.515,53.99175 L60.515,68.07675 L40.9725,68.07675 L40.9725,32.40675 C40.9725,27.81675 40.9725,18.86675 30.73,18.86675 C19.5425,18.86675 19.5425,28.52175 19.5425,32.52425 L19.5425,68.07675 L0,68.07675 L0,2.73425 L18.25,2.73425 L18.25,9.68425 L18.485,9.68425 C20.485,6.50425 24.6075,0.50175 36.2625,0.50175 C42.505,0.50175 49.4475,3.08925 52.9825,6.15175 C55.505,8.33925 58.2625,11.62675 59.635,17.99925 C65.47,7.55175 76.515,0.50175 89.665,0.50175 C103.395,0.50175 115.025,7.70175 120.9025,18.66175 C126.145,8.64175 136.375,0.61675 151.9275,0.61675 Z" opacity=".7"/>
    <path d="M215.8715,52.0685 C228.114,52.0685 232.234,41.7085 232.234,35.351 C232.234,27.461 226.819,18.746 215.7515,18.746 C204.5665,18.746 199.6215,28.166 199.6215,35.5835 C199.6215,41.7085 204.0965,52.0685 215.8715,52.0685 L215.8715,52.0685 Z M251.7765,68.0785 L232.234,68.0785 L232.234,61.016 L231.999,61.016 C228.7015,67.3735 220.579,70.3185 212.924,70.3185 C192.2015,70.3185 180.0765,54.0685 180.0765,35.351 C180.0765,13.921 195.5015,0.501 212.924,0.501 C223.639,0.501 229.6465,5.681 231.999,9.6835 L232.234,9.6835 L232.234,2.7385 L251.7765,2.7385 L251.7765,68.0785 Z"/>
  </g>
</svg>
