<svg width="326" height="120" xmlns="http://www.w3.org/2000/svg"><g fill="none" fill-rule="evenodd"><path d="M16.932 114.221c-.531.227-1.809.779-4.032.779-2.93 0-4.9-1.595-4.9-5.308 0-2.047.472-7.692 6.807-7.692 1.752 0 3.68.437 4.328.624l-.49 2.882h-.415c-.116-1.023-.69-2.767-3.423-2.767-3.265 0-4.861 3.279-4.861 6.766 0 2.897 1.182 4.622 3.858 4.622.49 0 .964-.058 1.436-.19l.827-3.998c.06-.227.137-.587.137-.776 0-.871-.746-.986-1.513-.986l.077-.38H20l-.078.38c-1.495 0-1.85.494-2.106 1.762" fill="#003054"/><path d="M16.932 114.221c-.531.227-1.809.779-4.032.779-2.93 0-4.9-1.595-4.9-5.308 0-2.047.472-7.692 6.807-7.692 1.752 0 3.68.437 4.328.624l-.49 2.882h-.415c-.116-1.023-.69-2.767-3.423-2.767-3.265 0-4.861 3.279-4.861 6.766 0 2.897 1.182 4.622 3.858 4.622.49 0 .964-.058 1.436-.19l.827-3.998c.06-.227.137-.587.137-.776 0-.871-.746-.986-1.513-.986l.077-.38H20l-.078.38c-1.495 0-1.85.494-2.106 1.762l-.884 4.282z" stroke="#003054" stroke-width=".147"/><path d="M22.308 108.068c.045-.191.085-.441.085-.592 0-.137-.085-.308-.235-.308-.41 0-1.315.825-1.877 1.322l-.281-.212c.627-.573 2.223-2.278 3.302-2.278.536 0 .86.401.86.88 0 .328-.085.785-.173 1.188l-.321 1.36.042.038c.41-.863 1.593-3.466 3.254-3.466.69 0 1.036.421 1.036.898 0 .557-.474.959-1.013.959-.497 0-.713-.326-.949-.326-.627 0-2.458 2.336-3.622 7.469h-1.68" fill="#003054"/><path d="M22.308 108.068c.045-.191.085-.441.085-.592 0-.137-.085-.308-.235-.308-.41 0-1.315.825-1.877 1.322l-.281-.212c.627-.573 2.223-2.278 3.302-2.278.536 0 .86.401.86.88 0 .328-.085.785-.173 1.188l-.321 1.36.042.038c.41-.863 1.593-3.466 3.254-3.466.69 0 1.036.421 1.036.898 0 .557-.474.959-1.013.959-.497 0-.713-.326-.949-.326-.627 0-2.458 2.336-3.622 7.469h-1.68l1.572-6.932z" stroke="#003054" stroke-width=".147"/><path d="M31.681 108.981c.76 0 1.84-.188 1.84-1.348 0-.566-.493-1.016-1.175-1.016-1.442 0-2.107 1.54-2.28 2.364h1.615zm1.992 5.59c-.435.13-1.405.429-2.6.429-1.878 0-3.073-1.05-3.073-3.243 0-2.551 1.177-5.757 4.61-5.757 1.253 0 2.39.524 2.39 1.761 0 1.652-1.574 1.8-3.016 1.8h-2.047c-.115.62-.248 1.238-.248 1.878 0 1.556.53 2.85 2.844 2.85.418 0 .835-.074 1.235-.247l-.095.528z" fill="#003054"/><path d="M31.681 108.981c.76 0 1.84-.188 1.84-1.348 0-.566-.493-1.016-1.175-1.016-1.442 0-2.107 1.54-2.28 2.364h1.615zm1.992 5.59c-.435.13-1.405.429-2.6.429-1.878 0-3.073-1.05-3.073-3.243 0-2.551 1.177-5.757 4.61-5.757 1.253 0 2.39.524 2.39 1.761 0 1.652-1.574 1.8-3.016 1.8h-2.047c-.115.62-.248 1.238-.248 1.878 0 1.556.53 2.85 2.844 2.85.418 0 .835-.074 1.235-.247l-.095.528z" stroke="#003054" stroke-width=".147"/><path d="M37.695 114.044c1.632 0 3.59-4.03 3.59-6.15 0-.58-.203-1.274-.977-1.274-2.021 0-3.491 4.03-3.491 5.982 0 1.087.47 1.442.878 1.442m2.774-2.023l-.04-.04c-.45.828-1.613 3.019-3.448 3.019-1.632 0-1.981-1.198-1.981-2.267 0-1.875 2.002-6.733 4.958-6.733 1.083 0 1.408.62 1.572 1.015h.043l.14-.827h1.594l-1.492 6.787c-.04.19-.08.432-.08.583 0 .13.08.298.225.298.387 0 1.245-.805 1.774-1.294l.266.208c-.591.563-2.102 2.23-3.123 2.23-.508 0-.817-.393-.817-.862 0-.336.105-.768.186-1.163" fill="#003054"/><path d="M37.695 114.044c1.632 0 3.59-4.03 3.59-6.15 0-.58-.203-1.274-.977-1.274-2.021 0-3.491 4.03-3.491 5.982 0 1.087.47 1.442.878 1.442zm2.774-2.023l-.04-.04c-.45.828-1.613 3.019-3.448 3.019-1.632 0-1.981-1.198-1.981-2.267 0-1.875 2.002-6.733 4.958-6.733 1.083 0 1.408.62 1.572 1.015h.043l.14-.827h1.594l-1.492 6.787c-.04.19-.08.432-.08.583 0 .13.08.298.225.298.387 0 1.245-.805 1.774-1.294l.266.208c-.591.563-2.102 2.23-3.123 2.23-.508 0-.817-.393-.817-.862 0-.336.105-.768.186-1.163l.223-.954z" stroke="#003054" stroke-width=".147"/><path d="M48.54 112.694c-.504.638-1.812 2.306-2.685 2.306-.453 0-.72-.406-.72-.891 0-.348.066-.794.132-1.203l1.125-6.418H45l.102-.6c1.542 0 2.33-.93 2.766-2.888h.437l-.503 2.888H50l-.102.6h-2.196l-1.124 6.418c-.034.197-.084.447-.084.6 0 .138.099.312.25.312.353 0 1.108-.795 1.577-1.339" fill="#003054"/><path d="M48.54 112.694c-.504.638-1.812 2.306-2.685 2.306-.453 0-.72-.406-.72-.891 0-.348.066-.794.132-1.203l1.125-6.418H45l.102-.6c1.542 0 2.33-.93 2.766-2.888h.437l-.503 2.888H50l-.102.6h-2.196l-1.124 6.418c-.034.197-.084.447-.084.6 0 .138.099.312.25.312.353 0 1.108-.795 1.577-1.339l.219.215z" stroke="#003054" stroke-width=".147"/><path d="M60.906 108.013h1.617c1.594 0 3.528-.545 3.528-3.121 0-1.974-1.558-2.129-2.622-2.129-1.381 0-1.498.175-1.755 1.463l-.768 3.787zm-4.828 6.596c1.498 0 1.85-.524 2.108-1.835l1.736-8.548c.04-.234.117-.624.117-.82 0-.876-.73-1.013-1.498-1.013l.078-.393h5.223c2.305 0 4.158.43 4.158 2.774 0 3.532-3.232 4-5.319 4h-1.933l-.808 4c-.039.236-.12.606-.12.822 0 .877.829 1.013 1.678 1.013l-.08.391H56l.078-.39z" fill="#003054"/><path d="M60.906 108.013h1.617c1.594 0 3.528-.545 3.528-3.121 0-1.974-1.558-2.129-2.622-2.129-1.381 0-1.498.175-1.755 1.463l-.768 3.787zm-4.828 6.596c1.498 0 1.85-.524 2.108-1.835l1.736-8.548c.04-.234.117-.624.117-.82 0-.876-.73-1.013-1.498-1.013l.078-.393h5.223c2.305 0 4.158.43 4.158 2.774 0 3.532-3.232 4-5.319 4h-1.933l-.808 4c-.039.236-.12.606-.12.822 0 .877.829 1.013 1.678 1.013l-.08.391H56l.078-.39z" stroke="#003054" stroke-width=".147"/><path d="M74.95 110.894l-.04-.037C74.1 113.03 72.52 115 71.07 115c-.77 0-1.242-.563-1.242-1.501 0-.319.15-1.07.263-1.556l.903-3.916c.04-.187.077-.434.077-.583 0-.13-.077-.298-.189-.298-.377 0-1.168.805-1.656 1.291l-.226-.205c.546-.563 1.94-2.232 2.88-2.232.47 0 .733.393.733.862 0 .32-.074.77-.168 1.165l-1.017 4.496c-.074.282-.131.64-.131.79 0 .3.13.541.434.541 1.316 0 3.839-4.217 4.159-7.666h1.47l-1.356 6.785c-.038.19-.075.434-.075.583 0 .187.075.298.189.298.377 0 1.165-.805 1.636-1.294l.246.208c-.548.563-1.94 2.232-2.882 2.232-.451 0-.734-.395-.734-.864 0-.336.077-.768.151-1.163" fill="#003054"/><path d="M74.95 110.894l-.04-.037C74.1 113.03 72.52 115 71.07 115c-.77 0-1.242-.563-1.242-1.501 0-.319.15-1.07.263-1.556l.903-3.916c.04-.187.077-.434.077-.583 0-.13-.077-.298-.189-.298-.377 0-1.168.805-1.656 1.291l-.226-.205c.546-.563 1.94-2.232 2.88-2.232.47 0 .733.393.733.862 0 .32-.074.77-.168 1.165l-1.017 4.496c-.074.282-.131.64-.131.79 0 .3.13.541.434.541 1.316 0 3.839-4.217 4.159-7.666h1.47l-1.356 6.785c-.038.19-.075.434-.075.583 0 .187.075.298.189.298.377 0 1.165-.805 1.636-1.294l.246.208c-.548.563-1.94 2.232-2.882 2.232-.451 0-.734-.395-.734-.864 0-.336.077-.768.151-1.163l.415-2.08z" stroke="#003054" stroke-width=".147"/><path d="M81.904 114.393c2.172 0 3.184-4.04 3.184-5.553 0-.682-.108-1.751-1.077-1.751-1.396 0-3.4 3.855-3.4 5.79 0 1.217.82 1.514 1.293 1.514m-.473-5.59l.045.037c.278-.627 1.439-2.691 3.351-2.691 1.592 0 2.173 1.124 2.173 2.472 0 2.655-1.935 6.379-5.181 6.379-1.873 0-2.819-1.015-2.819-2.288 0-.513.085-1.03.215-1.528l1.635-7.027c.062-.313.108-.534.108-.702 0-.683-.624-.848-1.612-.848l.062-.313 3.615-.294" fill="#003054"/><path d="M81.904 114.393c2.172 0 3.184-4.04 3.184-5.553 0-.682-.108-1.751-1.077-1.751-1.396 0-3.4 3.855-3.4 5.79 0 1.217.82 1.514 1.293 1.514zm-.473-5.59l.045.037c.278-.627 1.439-2.691 3.351-2.691 1.592 0 2.173 1.124 2.173 2.472 0 2.655-1.935 6.379-5.181 6.379-1.873 0-2.819-1.015-2.819-2.288 0-.513.085-1.03.215-1.528l1.635-7.027c.062-.313.108-.534.108-.702 0-.683-.624-.848-1.612-.848l.062-.313 3.615-.294-1.592 6.804z" stroke="#003054" stroke-width=".147"/><path d="M92.747 112.807c-.563.553-2 2.193-2.972 2.193-.486 0-.775-.386-.775-.848 0-.33.097-.755.174-1.144l1.864-8.851c.057-.313.098-.534.098-.702 0-.68-.566-.848-1.456-.848l.057-.313L93 102l-2.332 11.008a3.394 3.394 0 0 0-.077.571c0 .131.077.296.215.296.368 0 1.184-.791 1.688-1.272" fill="#003054"/><path d="M92.747 112.807c-.563.553-2 2.193-2.972 2.193-.486 0-.775-.386-.775-.848 0-.33.097-.755.174-1.144l1.864-8.851c.057-.313.098-.534.098-.702 0-.68-.566-.848-1.456-.848l.057-.313L93 102l-2.332 11.008a3.394 3.394 0 0 0-.077.571c0 .131.077.296.215.296.368 0 1.184-.791 1.688-1.272l.253.204z" stroke="#003054" stroke-width=".147"/><path d="M95.594 103.08c0-.606.548-1.08 1.203-1.08.675 0 1.203.474 1.203 1.08 0 .607-.528 1.081-1.203 1.081-.655 0-1.203-.474-1.203-1.08m2.364 9.663c-.614.569-2.175 2.256-3.227 2.256-.528 0-.845-.4-.845-.873 0-.34.106-.777.192-1.173l1.136-5.004c.044-.19.086-.435.086-.587 0-.132-.086-.304-.189-.304-.425 0-1.308.816-1.855 1.307l-.256-.21c.614-.566 2.175-2.253 3.228-2.253.505 0 .8.457.8 1.006 0 .227-.103.701-.19 1.04l-1.138 5.005a3.245 3.245 0 0 0-.086.584c0 .134.086.304.233.304.4 0 1.286-.814 1.836-1.308" fill="#003054"/><path d="M95.594 103.08c0-.606.548-1.08 1.203-1.08.675 0 1.203.474 1.203 1.08 0 .607-.528 1.081-1.203 1.081-.655 0-1.203-.474-1.203-1.08zm2.364 9.664c-.614.569-2.175 2.256-3.227 2.256-.528 0-.845-.4-.845-.873 0-.34.106-.777.192-1.173l1.136-5.004c.044-.19.086-.435.086-.587 0-.132-.086-.304-.189-.304-.425 0-1.308.816-1.855 1.307l-.256-.21c.614-.566 2.175-2.253 3.228-2.253.505 0 .8.457.8 1.006 0 .227-.103.701-.19 1.04l-1.138 5.005a3.245 3.245 0 0 0-.086.584c0 .134.086.304.233.304.4 0 1.286-.814 1.836-1.308l.275.21z" stroke="#003054" stroke-width=".147"/><path d="M104.433 114.55a8.73 8.73 0 0 1-2.75.45C99.46 115 98 113.894 98 111.794c0-2.665 1.608-5.794 5.12-5.794 1.609 0 2.88.862 2.88 1.875 0 .486-.382.918-1.037.918-1.714 0-.318-2.173-2.074-2.173-1.968 0-3.005 2.756-3.005 4.742 0 2.233 1.29 2.927 3.133 2.927.527 0 1.057-.094 1.564-.225" fill="#003054"/><path d="M104.433 114.55a8.73 8.73 0 0 1-2.75.45C99.46 115 98 113.894 98 111.794c0-2.665 1.608-5.794 5.12-5.794 1.609 0 2.88.862 2.88 1.875 0 .486-.382.918-1.037.918-1.714 0-.318-2.173-2.074-2.173-1.968 0-3.005 2.756-3.005 4.742 0 2.233 1.29 2.927 3.133 2.927.527 0 1.057-.094 1.564-.225l-.148.486z" stroke="#003054" stroke-width=".147"/><path d="M121.278 104.9c0-1.213-.613-2.159-2.435-2.159-1.406 0-2.544.834-2.544 2.159 0 2.653 4.708 2.558 4.708 6.197 0 2.463-1.75 3.903-4.815 3.903-1.55 0-2.795-.322-3.192-.474l.309-2.52h.413c0 1.477.793 2.253 2.56 2.253 1.442 0 2.941-.871 2.941-2.576 0-2.86-4.527-2.805-4.527-6.062 0-2.104 1.442-3.621 4.237-3.621 1.28 0 2.58.304 3.067.454l-.309 2.446" fill="#003054"/><path d="M121.278 104.9c0-1.213-.613-2.159-2.435-2.159-1.406 0-2.544.834-2.544 2.159 0 2.653 4.708 2.558 4.708 6.197 0 2.463-1.75 3.903-4.815 3.903-1.55 0-2.795-.322-3.192-.474l.309-2.52h.413c0 1.477.793 2.253 2.56 2.253 1.442 0 2.941-.871 2.941-2.576 0-2.86-4.527-2.805-4.527-6.062 0-2.104 1.442-3.621 4.237-3.621 1.28 0 2.58.304 3.067.454l-.309 2.446h-.413z" stroke="#003054" stroke-width=".147"/><path d="M129.433 114.55a8.73 8.73 0 0 1-2.75.45c-2.222 0-3.683-1.106-3.683-3.206 0-2.665 1.608-5.794 5.12-5.794 1.612 0 2.88.862 2.88 1.875 0 .486-.382.918-1.037.918-1.714 0-.318-2.173-2.074-2.173-1.968 0-3.005 2.756-3.005 4.742 0 2.233 1.29 2.927 3.133 2.927.527 0 1.057-.094 1.564-.225" fill="#003054"/><path d="M129.433 114.55a8.73 8.73 0 0 1-2.75.45c-2.222 0-3.683-1.106-3.683-3.206 0-2.665 1.608-5.794 5.12-5.794 1.612 0 2.88.862 2.88 1.875 0 .486-.382.918-1.037.918-1.714 0-.318-2.173-2.074-2.173-1.968 0-3.005 2.756-3.005 4.742 0 2.233 1.29 2.927 3.133 2.927.527 0 1.057-.094 1.564-.225l-.148.486z" stroke="#003054" stroke-width=".147"/><path d="M134.347 104.157c.058-.313.1-.534.1-.702 0-.68-.585-.848-1.536-.848l.08-.313 3.398-.294-2.002 9.072.04.04c.708-1.643 2.527-4.963 4.551-4.963.746 0 1.191.461 1.191 1.217 0 .204-.099.682-.181 1.015l-1.153 4.627c-.038.185-.08.425-.08.571 0 .131.08.296.223.296.384 0 1.23-.791 1.758-1.272l.264.204c-.586.553-2.083 2.193-3.116 2.193-.504 0-.789-.386-.789-.848 0-.33.083-.755.184-1.144l1.092-4.425c.08-.277.141-.627.141-.773 0-.296-.14-.537-.466-.537-1.555 0-4.024 5.458-4.47 7.542H132" fill="#003054"/><path d="M134.347 104.157c.058-.313.1-.534.1-.702 0-.68-.585-.848-1.536-.848l.08-.313 3.398-.294-2.002 9.072.04.04c.708-1.643 2.527-4.963 4.551-4.963.746 0 1.191.461 1.191 1.217 0 .204-.099.682-.181 1.015l-1.153 4.627c-.038.185-.08.425-.08.571 0 .131.08.296.223.296.384 0 1.23-.791 1.758-1.272l.264.204c-.586.553-2.083 2.193-3.116 2.193-.504 0-.789-.386-.789-.848 0-.33.083-.755.184-1.144l1.092-4.425c.08-.277.141-.627.141-.773 0-.296-.14-.537-.466-.537-1.555 0-4.024 5.458-4.47 7.542H132l2.347-10.658z" stroke="#003054" stroke-width=".147"/><path d="M146.263 114.383c2.164 0 2.92-4.053 2.92-5.814 0-1.087-.368-1.952-1.409-1.952-2.123 0-2.96 3.903-2.96 5.703 0 1.482.632 2.063 1.45 2.063M143 111.83c0-2.549 1.653-5.831 4.855-5.831 2.204 0 3.145 1.425 3.145 3.226 0 2.531-1.653 5.774-4.777 5.774-2.285 0-3.223-1.445-3.223-3.169" fill="#003054"/><path d="M146.263 114.383c2.164 0 2.92-4.053 2.92-5.814 0-1.087-.368-1.952-1.409-1.952-2.123 0-2.96 3.903-2.96 5.703 0 1.482.632 2.063 1.45 2.063zM143 111.83c0-2.549 1.653-5.831 4.855-5.831 2.204 0 3.145 1.425 3.145 3.226 0 2.531-1.653 5.774-4.777 5.774-2.285 0-3.223-1.445-3.223-3.169z" stroke="#003054" stroke-width=".147"/><path d="M155.263 114.383c2.164 0 2.92-4.053 2.92-5.814 0-1.087-.368-1.952-1.409-1.952-2.123 0-2.96 3.903-2.96 5.703 0 1.482.632 2.063 1.45 2.063M152 111.83c0-2.549 1.65-5.831 4.855-5.831 2.204 0 3.145 1.425 3.145 3.226 0 2.531-1.653 5.774-4.777 5.774-2.288 0-3.223-1.445-3.223-3.169" fill="#003054"/><path d="M155.263 114.383c2.164 0 2.92-4.053 2.92-5.814 0-1.087-.368-1.952-1.409-1.952-2.123 0-2.96 3.903-2.96 5.703 0 1.482.632 2.063 1.45 2.063zM152 111.83c0-2.549 1.65-5.831 4.855-5.831 2.204 0 3.145 1.425 3.145 3.226 0 2.531-1.653 5.774-4.777 5.774-2.288 0-3.223-1.445-3.223-3.169z" stroke="#003054" stroke-width=".147"/><path d="M164.747 112.807c-.562.553-1.999 2.193-2.967 2.193-.489 0-.78-.386-.78-.848 0-.33.1-.755.176-1.144l1.861-8.851c.059-.313.097-.534.097-.702 0-.68-.562-.848-1.454-.848l.059-.313L165 102l-2.331 11.008a3.396 3.396 0 0 0-.077.571c0 .131.077.296.215.296.368 0 1.183-.791 1.687-1.272" fill="#003054"/><path d="M164.747 112.807c-.562.553-1.999 2.193-2.967 2.193-.489 0-.78-.386-.78-.848 0-.33.1-.755.176-1.144l1.861-8.851c.059-.313.097-.534.097-.702 0-.68-.562-.848-1.454-.848l.059-.313L165 102l-2.331 11.008a3.396 3.396 0 0 0-.077.571c0 .131.077.296.215.296.368 0 1.183-.791 1.687-1.272l.253.204z" stroke="#003054" stroke-width=".147"/><path d="M171.285 108.307c0-.865-.556-1.687-1.771-1.687-.736 0-1.551.43-1.551 1.385 0 1.747 3.421 1.69 3.421 4.128 0 2.025-1.87 2.867-4.157 2.867a7.06 7.06 0 0 1-2.227-.336l.278-2.082h.416c.06.785.278 1.8 1.852 1.8 1.093 0 2.167-.676 2.167-1.743 0-1.783-3.421-1.8-3.421-4.03 0-1.764 1.71-2.609 3.52-2.609 1.017 0 1.75.207 2.188.336l-.299 1.97" fill="#003054"/><path d="M171.285 108.307c0-.865-.556-1.687-1.771-1.687-.736 0-1.551.43-1.551 1.385 0 1.747 3.421 1.69 3.421 4.128 0 2.025-1.87 2.867-4.157 2.867a7.06 7.06 0 0 1-2.227-.336l.278-2.082h.416c.06.785.278 1.8 1.852 1.8 1.093 0 2.167-.676 2.167-1.743 0-1.783-3.421-1.8-3.421-4.03 0-1.764 1.71-2.609 3.52-2.609 1.017 0 1.75.207 2.188.336l-.299 1.97h-.416z" stroke="#003054" stroke-width=".147"/><path d="M182.357 114.796c-.466 2.12-1.177 4.204-4.04 4.204-1.078 0-2.317-.376-2.317-1.24 0-.43.425-.86.995-.86 1.239 0 .854 1.48 1.948 1.48.853 0 1.26-.883 1.587-2.42l1.95-8.97h-1.605l.12-.581h1.605l.204-.957c.428-2.006 1.423-3.452 3.98-3.452 1.16 0 2.216.487 2.216 1.258 0 .524-.508.882-.995.882-1.22 0-.814-1.522-1.95-1.522-.977 0-1.3 1.164-1.585 2.441l-.286 1.35h2.764l-.12.58h-2.783" fill="#003054"/><path d="M182.357 114.796c-.466 2.12-1.177 4.204-4.04 4.204-1.078 0-2.317-.376-2.317-1.24 0-.43.425-.86.995-.86 1.239 0 .854 1.48 1.948 1.48.853 0 1.26-.883 1.587-2.42l1.95-8.97h-1.605l.12-.581h1.605l.204-.957c.428-2.006 1.423-3.452 3.98-3.452 1.16 0 2.216.487 2.216 1.258 0 .524-.508.882-.995.882-1.22 0-.814-1.522-1.95-1.522-.977 0-1.3 1.164-1.585 2.441l-.286 1.35h2.764l-.12.58h-2.783l-1.688 7.807z" stroke="#003054" stroke-width=".147"/><path d="M189.263 114.383c2.164 0 2.92-4.053 2.92-5.814 0-1.087-.368-1.952-1.409-1.952-2.123 0-2.96 3.903-2.96 5.703 0 1.482.635 2.063 1.45 2.063M186 111.83c0-2.549 1.65-5.831 4.855-5.831 2.204 0 3.145 1.425 3.145 3.226 0 2.531-1.653 5.774-4.777 5.774-2.285 0-3.223-1.445-3.223-3.169" fill="#003054"/><path d="M189.263 114.383c2.164 0 2.92-4.053 2.92-5.814 0-1.087-.368-1.952-1.409-1.952-2.123 0-2.96 3.903-2.96 5.703 0 1.482.635 2.063 1.45 2.063zM186 111.83c0-2.549 1.65-5.831 4.855-5.831 2.204 0 3.145 1.425 3.145 3.226 0 2.531-1.653 5.774-4.777 5.774-2.285 0-3.223-1.445-3.223-3.169z" stroke="#003054" stroke-width=".147"/><path d="M197.307 108.068c.045-.191.085-.441.085-.592 0-.137-.085-.308-.236-.308-.409 0-1.315.825-1.878 1.322l-.278-.212c.625-.573 2.222-2.278 3.298-2.278.54 0 .864.401.864.88 0 .328-.085.785-.173 1.188l-.321 1.36.042.038c.41-.863 1.594-3.466 3.256-3.466.69 0 1.034.421 1.034.898 0 .557-.472.959-1.011.959-.498 0-.713-.326-.952-.326-.625 0-2.457 2.336-3.622 7.469h-1.682" fill="#003054"/><path d="M197.307 108.068c.045-.191.085-.441.085-.592 0-.137-.085-.308-.236-.308-.409 0-1.315.825-1.878 1.322l-.278-.212c.625-.573 2.222-2.278 3.298-2.278.54 0 .864.401.864.88 0 .328-.085.785-.173 1.188l-.321 1.36.042.038c.41-.863 1.594-3.466 3.256-3.466.69 0 1.034.421 1.034.898 0 .557-.472.959-1.011.959-.498 0-.713-.326-.952-.326-.625 0-2.457 2.336-3.622 7.469h-1.682l1.574-6.932z" stroke="#003054" stroke-width=".147"/><path d="M207.08 114.61c1.55 0 1.914-.528 2.18-1.834l1.795-8.552c.04-.234.121-.625.121-.818 0-.879-.754-1.015-1.548-1.015l.083-.391H219l-.263 2.36h-.427c0-1.21-.818-1.599-2.225-1.599h-1.567c-1.221 0-1.407.234-1.65 1.463l-.755 3.613h2.834c.937 0 1.833-.273 2.158-1.62h.43l-.838 4h-.427c.022-.097.043-.254.043-.429 0-.663-.287-1.19-1.53-1.19h-2.831l-.878 4.178c-.04.234-.123.604-.123.818 0 .45.266.645 1.326.645h1.774c1.67 0 2.464-.584 2.912-1.795h.43L216.86 115H207" fill="#003054"/><path d="M207.08 114.61c1.55 0 1.914-.528 2.18-1.834l1.795-8.552c.04-.234.121-.625.121-.818 0-.879-.754-1.015-1.548-1.015l.083-.391H219l-.263 2.36h-.427c0-1.21-.818-1.599-2.225-1.599h-1.567c-1.221 0-1.407.234-1.65 1.463l-.755 3.613h2.834c.937 0 1.833-.273 2.158-1.62h.43l-.838 4h-.427c.022-.097.043-.254.043-.429 0-.663-.287-1.19-1.53-1.19h-2.831l-.878 4.178c-.04.234-.123.604-.123.818 0 .45.266.645 1.326.645h1.774c1.67 0 2.464-.584 2.912-1.795h.43L216.86 115H207l.08-.39z" stroke="#003054" stroke-width=".147"/><path d="M222.512 113.106a3.582 3.582 0 0 0-.096.713c0 .186.076.319.231.319.891 0 4.06-2.887 4.06-5.438 0-.959-.522-1.238-.522-1.818 0-.452.367-.882.927-.882.753 0 .888.711.888 1.18 0 3.431-3.905 7.82-6.473 7.82-.387 0-.697-.205-.697-.731 0-.264.058-.563.117-.862l1.12-5.382c.04-.187.06-.432.06-.583 0-.13-.078-.298-.195-.298-.367 0-1.179.805-1.68 1.294l-.252-.208c.697-.711 1.952-2.23 2.84-2.23.54 0 .871.47.871 1.05 0 .244-.155.955-.232 1.368" fill="#003054"/><path d="M222.512 113.106a3.582 3.582 0 0 0-.096.713c0 .186.076.319.231.319.891 0 4.06-2.887 4.06-5.438 0-.959-.522-1.238-.522-1.818 0-.452.367-.882.927-.882.753 0 .888.711.888 1.18 0 3.431-3.905 7.82-6.473 7.82-.387 0-.697-.205-.697-.731 0-.264.058-.563.117-.862l1.12-5.382c.04-.187.06-.432.06-.583 0-.13-.078-.298-.195-.298-.367 0-1.179.805-1.68 1.294l-.252-.208c.697-.711 1.952-2.23 2.84-2.23.54 0 .871.47.871 1.05 0 .244-.155.955-.232 1.368l-.967 4.688z" stroke="#003054" stroke-width=".147"/><path d="M231.68 108.981c.76 0 1.841-.188 1.841-1.348 0-.566-.495-1.016-1.177-1.016-1.441 0-2.106 1.54-2.275 2.364h1.61zm1.99 5.59c-.434.13-1.403.429-2.597.429-1.879 0-3.073-1.05-3.073-3.243 0-2.551 1.18-5.757 4.61-5.757 1.25 0 2.39.524 2.39 1.761 0 1.652-1.574 1.8-3.015 1.8h-2.049c-.115.62-.247 1.238-.247 1.878 0 1.556.532 2.85 2.843 2.85.42 0 .837-.074 1.234-.247l-.095.528z" fill="#003054"/><path d="M231.68 108.981c.76 0 1.841-.188 1.841-1.348 0-.566-.495-1.016-1.177-1.016-1.441 0-2.106 1.54-2.275 2.364h1.61zm1.99 5.59c-.434.13-1.403.429-2.597.429-1.879 0-3.073-1.05-3.073-3.243 0-2.551 1.18-5.757 4.61-5.757 1.25 0 2.39.524 2.39 1.761 0 1.652-1.574 1.8-3.015 1.8h-2.049c-.115.62-.247 1.238-.247 1.878 0 1.556.532 2.85 2.843 2.85.42 0 .837-.074 1.234-.247l-.095.528z" stroke="#003054" stroke-width=".147"/><path d="M238.307 108.068c.042-.191.085-.441.085-.592 0-.137-.085-.308-.236-.308-.409 0-1.315.825-1.878 1.322l-.278-.212c.625-.573 2.222-2.278 3.301-2.278.537 0 .86.401.86.88 0 .328-.084.785-.172 1.188l-.321 1.36.042.038c.41-.863 1.594-3.466 3.256-3.466.69 0 1.034.421 1.034.898 0 .557-.472.959-1.011.959-.498 0-.713-.326-.95-.326-.627 0-2.46 2.336-3.621 7.469h-1.685" fill="#003054"/><path d="M238.307 108.068c.042-.191.085-.441.085-.592 0-.137-.085-.308-.236-.308-.409 0-1.315.825-1.878 1.322l-.278-.212c.625-.573 2.222-2.278 3.301-2.278.537 0 .86.401.86.88 0 .328-.084.785-.172 1.188l-.321 1.36.042.038c.41-.863 1.594-3.466 3.256-3.466.69 0 1.034.421 1.034.898 0 .557-.472.959-1.011.959-.498 0-.713-.326-.95-.326-.627 0-2.46 2.336-3.621 7.469h-1.685l1.574-6.932z" stroke="#003054" stroke-width=".147"/><path d="M248.484 114.227c.6-.932 2.258-3.721 2.258-5.516 0-.878-.547-1.24-.547-1.833 0-.478.42-.878.912-.878.564 0 .893.44.893 1.144 0 3.935-5.738 11.856-8.071 11.856-.564 0-.929-.42-.929-.898 0-.495.346-.915.838-.915.564 0 .727.516 1.147.516.674 0 1.949-1.49 2.333-1.984l-1.186-7.35c-.146-.84-.31-1.185-.6-1.185-.42 0-1.183.742-1.586 1.087l-.219-.247c.401-.382 2.06-2.024 2.681-2.024.636 0 .854.686.982 1.45" fill="#003054"/><path d="M248.484 114.227c.6-.932 2.258-3.721 2.258-5.516 0-.878-.547-1.24-.547-1.833 0-.478.42-.878.912-.878.564 0 .893.44.893 1.144 0 3.935-5.738 11.856-8.071 11.856-.564 0-.929-.42-.929-.898 0-.495.346-.915.838-.915.564 0 .727.516 1.147.516.674 0 1.949-1.49 2.333-1.984l-1.186-7.35c-.146-.84-.31-1.185-.6-1.185-.42 0-1.183.742-1.586 1.087l-.219-.247c.401-.382 2.06-2.024 2.681-2.024.636 0 .854.686.982 1.45l1.094 6.777z" stroke="#003054" stroke-width=".147"/><path d="M267.278 104.9c0-1.213-.613-2.159-2.435-2.159-1.406 0-2.541.834-2.541 2.159 0 2.653 4.705 2.558 4.705 6.197 0 2.463-1.748 3.903-4.815 3.903-1.55 0-2.795-.322-3.192-.474l.306-2.52h.416c0 1.477.793 2.253 2.56 2.253 1.445 0 2.941-.871 2.941-2.576 0-2.86-4.527-2.805-4.527-6.062 0-2.104 1.444-3.621 4.237-3.621 1.28 0 2.58.304 3.067.454l-.309 2.446" fill="#003054"/><path d="M267.278 104.9c0-1.213-.613-2.159-2.435-2.159-1.406 0-2.541.834-2.541 2.159 0 2.653 4.705 2.558 4.705 6.197 0 2.463-1.748 3.903-4.815 3.903-1.55 0-2.795-.322-3.192-.474l.306-2.52h.416c0 1.477.793 2.253 2.56 2.253 1.445 0 2.941-.871 2.941-2.576 0-2.86-4.527-2.805-4.527-6.062 0-2.104 1.444-3.621 4.237-3.621 1.28 0 2.58.304 3.067.454l-.309 2.446h-.413z" stroke="#003054" stroke-width=".147"/><path d="M274.54 112.694c-.502.638-1.812 2.306-2.685 2.306-.453 0-.72-.406-.72-.891 0-.348.066-.794.135-1.203l1.122-6.418H271l.102-.6c1.542 0 2.333-.93 2.766-2.888h.437l-.503 2.888H276l-.102.6h-2.196l-1.124 6.418c-.034.197-.084.447-.084.6 0 .138.101.312.251.312.352 0 1.107-.795 1.576-1.339" fill="#003054"/><path d="M274.54 112.694c-.502.638-1.812 2.306-2.685 2.306-.453 0-.72-.406-.72-.891 0-.348.066-.794.135-1.203l1.122-6.418H271l.102-.6c1.542 0 2.333-.93 2.766-2.888h.437l-.503 2.888H276l-.102.6h-2.196l-1.124 6.418c-.034.197-.084.447-.084.6 0 .138.101.312.251.312.352 0 1.107-.795 1.576-1.339l.219.215z" stroke="#003054" stroke-width=".147"/><path d="M281.95 110.894l-.038-.037c-.808 2.173-2.393 4.143-3.841 4.143-.771 0-1.243-.563-1.243-1.501 0-.319.152-1.07.263-1.556l.905-3.916c.038-.187.075-.434.075-.583 0-.13-.075-.298-.189-.298-.377 0-1.168.805-1.656 1.291l-.226-.205c.546-.563 1.94-2.232 2.882-2.232.469 0 .731.393.731.862 0 .32-.074.77-.168 1.165l-1.017 4.496c-.074.282-.132.64-.132.79 0 .3.132.541.432.541 1.32 0 3.842-4.217 4.162-7.666h1.47l-1.356 6.785c-.038.19-.075.434-.075.583 0 .187.075.298.189.298.377 0 1.165-.805 1.636-1.294l.246.208c-.546.563-1.94 2.232-2.882 2.232-.451 0-.734-.395-.734-.864 0-.336.077-.768.151-1.163" fill="#003054"/><path d="M281.95 110.894l-.038-.037c-.808 2.173-2.393 4.143-3.841 4.143-.771 0-1.243-.563-1.243-1.501 0-.319.152-1.07.263-1.556l.905-3.916c.038-.187.075-.434.075-.583 0-.13-.075-.298-.189-.298-.377 0-1.168.805-1.656 1.291l-.226-.205c.546-.563 1.94-2.232 2.882-2.232.469 0 .731.393.731.862 0 .32-.074.77-.168 1.165l-1.017 4.496c-.074.282-.132.64-.132.79 0 .3.132.541.432.541 1.32 0 3.842-4.217 4.162-7.666h1.47l-1.356 6.785c-.038.19-.075.434-.075.583 0 .187.075.298.189.298.377 0 1.165-.805 1.636-1.294l.246.208c-.546.563-1.94 2.232-2.882 2.232-.451 0-.734-.395-.734-.864 0-.336.077-.768.151-1.163l.415-2.08z" stroke="#003054" stroke-width=".147"/><path d="M288.577 114.06c1.705 0 3.548-4.277 3.548-6.196 0-.702-.436-1.106-1.031-1.106-2.063 0-3.332 4.13-3.332 5.828 0 1.18.478 1.474.815 1.474m2.755-2.101l-.04-.037c-.357.72-1.584 3.078-3.449 3.078-1.485 0-1.843-1.217-1.843-2.23 0-1.936 1.943-6.621 4.757-6.621 1.05 0 1.426.498 1.645.794l.595-2.786c.06-.313.1-.534.1-.7 0-.682-.577-.847-1.489-.847l.06-.314L295 102l-2.379 11.008c-.041.187-.08.425-.08.573 0 .13.08.294.219.294.376 0 1.209-.791 1.723-1.272l.259.204c-.575.553-2.042 2.193-3.034 2.193-.497 0-.792-.386-.792-.848 0-.33.1-.755.178-1.144" fill="#003054"/><path d="M288.577 114.06c1.705 0 3.548-4.277 3.548-6.196 0-.702-.436-1.106-1.031-1.106-2.063 0-3.332 4.13-3.332 5.828 0 1.18.478 1.474.815 1.474zm2.755-2.101l-.04-.037c-.357.72-1.584 3.078-3.449 3.078-1.485 0-1.843-1.217-1.843-2.23 0-1.936 1.943-6.621 4.757-6.621 1.05 0 1.426.498 1.645.794l.595-2.786c.06-.313.1-.534.1-.7 0-.682-.577-.847-1.489-.847l.06-.314L295 102l-2.379 11.008c-.041.187-.08.425-.08.573 0 .13.08.294.219.294.376 0 1.209-.791 1.723-1.272l.259.204c-.575.553-2.042 2.193-3.034 2.193-.497 0-.792-.386-.792-.848 0-.33.1-.755.178-1.144l.238-1.05z" stroke="#003054" stroke-width=".147"/><path d="M299.681 108.981c.76 0 1.84-.188 1.84-1.348 0-.566-.493-1.016-1.175-1.016-1.442 0-2.107 1.54-2.28 2.364h1.615zm1.992 5.59c-.437.13-1.405.429-2.6.429-1.878 0-3.073-1.05-3.073-3.243 0-2.551 1.177-5.757 4.61-5.757 1.253 0 2.39.524 2.39 1.761 0 1.652-1.574 1.8-3.014 1.8h-2.052c-.112.62-.245 1.238-.245 1.878 0 1.556.53 2.85 2.844 2.85.42 0 .838-.074 1.235-.247l-.095.528z" fill="#003054"/><path d="M299.681 108.981c.76 0 1.84-.188 1.84-1.348 0-.566-.493-1.016-1.175-1.016-1.442 0-2.107 1.54-2.28 2.364h1.615zm1.992 5.59c-.437.13-1.405.429-2.6.429-1.878 0-3.073-1.05-3.073-3.243 0-2.551 1.177-5.757 4.61-5.757 1.253 0 2.39.524 2.39 1.761 0 1.652-1.574 1.8-3.014 1.8h-2.052c-.112.62-.245 1.238-.245 1.878 0 1.556.53 2.85 2.844 2.85.42 0 .838-.074 1.235-.247l-.095.528z" stroke="#003054" stroke-width=".147"/><path d="M305.996 108.025c.038-.187.075-.432.075-.58 0-.134-.094-.301-.189-.301-.374 0-1.168.807-1.656 1.294l-.226-.208c.546-.56 1.94-2.23 2.882-2.23.471 0 .731.393.731.862 0 .321-.074.768-.168 1.163l-.603 2.981.04.037c.657-1.667 2.37-5.043 4.253-5.043.68 0 1.094.47 1.094 1.237 0 .208-.075.694-.152 1.03l-1.073 4.708a2.307 2.307 0 0 0-.095.58c0 .134.095.301.209.301.377 0 1.168-.807 1.636-1.294l.246.208c-.546.563-1.94 2.23-2.882 2.23-.469 0-.751-.393-.751-.862 0-.336.074-.768.168-1.163l1.035-4.5c.057-.282.114-.637.114-.788 0-.299-.152-.543-.415-.543-1.47 0-3.804 5.55-4.178 7.668h-1.469" fill="#003054"/><path d="M305.996 108.025c.038-.187.075-.432.075-.58 0-.134-.094-.301-.189-.301-.374 0-1.168.807-1.656 1.294l-.226-.208c.546-.56 1.94-2.23 2.882-2.23.471 0 .731.393.731.862 0 .321-.074.768-.168 1.163l-.603 2.981.04.037c.657-1.667 2.37-5.043 4.253-5.043.68 0 1.094.47 1.094 1.237 0 .208-.075.694-.152 1.03l-1.073 4.708a2.307 2.307 0 0 0-.095.58c0 .134.095.301.209.301.377 0 1.168-.807 1.636-1.294l.246.208c-.546.563-1.94 2.23-2.882 2.23-.469 0-.751-.393-.751-.862 0-.336.074-.768.168-1.163l1.035-4.5c.057-.282.114-.637.114-.788 0-.299-.152-.543-.415-.543-1.47 0-3.804 5.55-4.178 7.668h-1.469l1.374-6.787z" stroke="#003054" stroke-width=".147"/><path d="M317.54 112.694c-.502.638-1.812 2.306-2.683 2.306-.455 0-.722-.406-.722-.891 0-.348.066-.794.135-1.203l1.122-6.418H314l.102-.6c1.542 0 2.333-.93 2.768-2.888h.435l-.503 2.888H319l-.102.6h-2.196l-1.124 6.418c-.034.197-.084.447-.084.6 0 .138.101.312.251.312.354 0 1.107-.795 1.576-1.339" fill="#003054"/><path d="M317.54 112.694c-.502.638-1.812 2.306-2.683 2.306-.455 0-.722-.406-.722-.891 0-.348.066-.794.135-1.203l1.122-6.418H314l.102-.6c1.542 0 2.333-.93 2.768-2.888h.435l-.503 2.888H319l-.102.6h-2.196l-1.124 6.418c-.034.197-.084.447-.084.6 0 .138.101.312.251.312.354 0 1.107-.795 1.576-1.339l.219.215z" stroke="#003054" stroke-width=".147"/><path d="M300 90V0h26v90h-26zm9.422-78H309v5.598h.422c0-1.294.344-1.673 1.666-1.673h2.565c1.186 0 3.177 1.427 3.177 2.72 0 1.095-.612 1.43-2.928 1.43h-2.814c-1.322 0-1.666-.38-1.666-1.673H309V24h.422c0-1.294.344-1.672 1.666-1.672h4.366c1.452 0 2.546-.423 2.546-2.701 0-2.118-1.476-3.143-2.259-3.655v-.047H318L317.54 12h-.423c0 .87-.173 1.672-1.53 1.672h-4.499c-1.322 0-1.666-.378-1.666-1.672zm6.495 18.939v-3.716c.813 0 2.376.41 2.376 1.963 0 1.406-1.064 1.753-2.376 1.753zm-6.377 1.876h.754a5.226 5.226 0 0 1-.357-1.876c0-2.896 2.939-3.716 5.128-3.716V33c1.748 0 3.935-.531 3.935-3.733 0-2.737-1.52-4.267-4.666-4.267-3.46 0-5.334 1.859-5.334 5 0 1.366.398 2.428.54 2.815zm4.23 5.5h-1.205c-1.523 0-2.38-.757-2.38-1.892 0-.837.671-1.251 1.481-1.251 1.96 0 2.084 2.386 2.104 3.144zM309.374 42h.52c-.08-.26-.187-.518-.187-.777 0-.657.46-.896 1.732-.896h4.14c2.378 0 3.421-.797 3.421-3.307 0-1.631-.645-3.642-2.148-3.642-.73 0-1.063.577-1.063 1.135 0 1.814 2.501.459 2.501 2.428 0 1.375-1.582 1.375-2.71 1.375h-1.038c-.064-1.234-.25-5.316-3.167-5.316-1.355 0-2.375 1.234-2.375 2.608 0 1.474.96 2.33 1.415 2.727-.687.141-1.415.378-1.415 1.575 0 .836.145 1.414.374 2.09zm1.127 1c-.825 0-1.501.675-1.501 1.503 0 .822.676 1.497 1.501 1.497.823 0 1.499-.675 1.499-1.497 0-.828-.676-1.503-1.499-1.503zm-.794 10.501c0-1.83 2.082-2.21 4.292-2.21s4.291.38 4.291 2.21-2.081 2.208-4.291 2.208c-2.21 0-4.292-.378-4.292-2.208zM314 49c-3.375 0-4.999 1.452-4.999 4.501 0 3.05 1.624 4.499 4.999 4.499 3.374 0 5.001-1.45 5.001-4.499 0-3.05-1.627-4.501-5.001-4.501zm-4.577 10H309v5.456h.422c0-1.263.344-1.63 1.666-1.63h2.147c1.967 0 3.137.978 3.137 1.652 0 .717-.439.563-.439 1.35 0 .628.399 1.172 1.07 1.172.634 0 .997-.674.997-1.172 0-1.784-1.36-2.59-2.22-2.959v-.043H318L317.54 59h-.423c0 .849-.173 1.63-1.53 1.63h-4.499c-1.322 0-1.666-.372-1.666-1.63zm3.828 14.315c0-1.35 1.03-1.744 2.605-1.744 1.072 0 2.73.227 2.73 1.744 0 1.265-1.26 1.702-2.73 1.702-1.447 0-2.605-.458-2.605-1.702zm-4.07-2.366v4.001c0 .874-.274 1.87-1.177 1.87-.968 0-2.144-1.43-2.144-3.423 0-1.908 1.283-2.841 2.162-2.841.422 0 .779.185 1.159.393zm1.949 4.523v-3.235c0-.666.192-1.1.778-1.1.336 0 .671.206.947.414-.148.396-.317.871-.317 1.764 0 2.242 1.218 3.839 3.318 3.839 1.364 0 2.014-.54 2.498-1.121.315.167.778.373.778.766 0 .146-.104.25-.21.393a1.04 1.04 0 0 0-.23.684c0 .646.503 1.124 1.154 1.124.65 0 1.155-.496 1.155-1.124 0-1.262-1.491-1.928-2.29-2.319.276-.54.59-1.247.59-2.242 0-2.386-1.303-3.883-3.445-3.883-1.658 0-2.288.874-2.71 1.455-.377-.27-1.342-1.244-2.412-1.244-.671 0-.989.414-1.239.663-.421-.499-1.05-1.306-2.016-1.306-.987 0-2.478 1.2-2.478 4.297 0 3.337 1.928 5.307 3.63 5.307 1.976 0 2.499-1.617 2.499-3.132zM159 90V0h140v90H159zm75-14.523c-1.75 0-2.126-.316-2.126-1.955V64.48c0-1.64.375-1.956 2.126-1.956V62h-7v.525c1.778 0 2.126.316 2.126 1.956v9.04c0 1.64-.348 1.956-2.126 1.956V76h12.325v-.523c-1.157 0-1.637-.19-1.637-.841 0-.273.089-.546.197-.8l.831-2.143h5.653l.873 2.268c.11.253.176.528.176.781 0 .652-.787.735-1.637.735V76H250v-.523c-1.53 0-2.03-.379-2.639-1.935L242.905 62h-1.789l-4.386 11.27c-.679 1.745-1.224 2.207-2.73 2.207zM165 28.4v.6h6.011v-.6c-1.833 0-2.192-.36-2.192-2.234v-10.74h.05L177.356 29h2.452V15.834c0-1.873.333-2.231 2.192-2.231V13h-6.011v.603c1.807 0 2.192.358 2.192 2.231v10.067h-.05L170.058 13H165v.603c1.807 0 2.192.358 2.192 2.231v10.332c0 1.873-.385 2.234-2.192 2.234zm23.722-5.43l2.798-7.256 2.727 7.256h-5.525zM183 28.402V29h5.993v-.598c-1.304 0-1.842-.217-1.842-.963 0-.313.097-.623.22-.913l.933-2.452h6.361l.982 2.598c.124.288.196.598.196.888 0 .744-.883.842-1.842.842V29H201v-.598c-1.717 0-2.285-.434-2.971-2.212L193.019 13h-2.014l-4.934 12.878c-.764 1.995-1.376 2.524-3.071 2.524zm19.002-.002v.6h6.996v-.6c-1.748 0-2.124-.36-2.124-2.234V14.104h.95c2.624 0 3.2.843 3.452 2.62H212L211.874 13H199.15L199 16.725h.724c.278-1.756.802-2.62 3.426-2.62h.974v12.06c0 1.874-.374 2.235-2.122 2.235zm13.998 0v.6h7v-.6c-1.749 0-2.127-.36-2.127-2.234V15.834c0-1.873.378-2.231 2.127-2.231V13h-7v.603c1.774 0 2.125.358 2.125 2.231v10.332c0 1.873-.351 2.234-2.125 2.234zm16 .409c-3.437 0-3.975-3.42-3.975-7.309 0-3.868.538-7.311 3.975-7.311 3.408 0 3.972 3.443 3.972 7.311 0 3.888-.564 7.309-3.972 7.309zm-7-7.309c0 5.277 1.667 8.5 7 8.5 5.36 0 7-3.223 7-8.5 0-5.28-1.64-8.5-7-8.5-5.333 0-7 3.22-7 8.5zm17 6.9v.6h6.011v-.6c-1.833 0-2.192-.36-2.192-2.234v-10.74h.05L254.359 29h2.449V15.834c0-1.873.336-2.231 2.192-2.231V13h-6.011v.603c1.804 0 2.192.358 2.192 2.231v10.067h-.052L247.059 13H242v.603c1.807 0 2.192.358 2.192 2.231v10.332c0 1.873-.385 2.234-2.192 2.234zm22.722-5.43l2.8-7.256 2.723 7.256h-5.523zM259 28.402V29h5.992v-.598c-1.299 0-1.841-.217-1.841-.963 0-.313.099-.623.22-.913l.934-2.452h6.359l.984 2.598c.121.288.193.598.193.888 0 .744-.882.842-1.839.842V29H277v-.598c-1.72 0-2.285-.434-2.974-2.212L269.018 13h-2.012l-4.936 12.878c-.76 1.995-1.375 2.524-3.07 2.524zm20-.002v.6h12.842l.158-3.795h-.768c-.45 1.873-1.195 2.69-3.318 2.69h-1.963c-1.537 0-1.778-.36-1.778-1.73v-10.33c0-1.874.4-2.232 2.255-2.232V13H279v.603c1.858 0 2.255.358 2.255 2.231v10.332c0 1.873-.397 2.234-2.255 2.234zm-114 25v.6h11.853l.147-3.483h-.706c-.073 1.514-.753 2.379-2.847 2.379h-2.241c-1.265 0-1.462-.122-1.462-1.73v-4.972h3.191c1.583 0 1.824.504 1.824 1.945h.659v-4.973h-.659c0 1.584-.241 1.924-1.824 1.924h-3.19v-4.254c0-1.346.267-1.732 1.461-1.732h1.559c2.724 0 3.041 1.083 3.14 2.379h.704L176.465 38H165v.6c1.703 0 2.068.362 2.068 2.236v10.33c0 1.872-.365 2.233-2.068 2.233zm18.657-2.234v-10.33c0-1.49.263-1.732 1.53-1.732 4.493 0 4.992 2.43 4.992 6.848 0 4.808-.88 6.944-4.992 6.944-1.455 0-1.53-.528-1.53-1.73zM179 53.4V54h6.187c4.614 0 7.813-1.104 7.813-8.048 0-6.702-3.271-7.952-7.813-7.952H179v.6c1.695 0 2.03.362 2.03 2.236v10.33c0 1.872-.335 2.233-2.03 2.233zm28.912-4.701v-7.906c0-1.847.368-2.203 2.088-2.203V38h-5.973v.59c1.723 0 2.09.355 2.09 2.202v7.906c0 2.959-.884 4.211-3.807 4.211-3.074 0-3.516-1.841-3.516-4.211v-7.906c0-1.847.365-2.203 2.088-2.203V38H194v.59c1.72 0 2.088.355 2.088 2.202v7.906c0 3.455 1.622 5.302 5.901 5.302 5.064 0 5.923-2.627 5.923-5.302zM223 53.11v-1.608c-.762.491-1.97 1.19-4.31 1.19-3.424 0-4.782-3.313-4.782-6.998 0-2.915.59-6.576 4.213-6.576 2.661 0 4.016 2.285 4.117 3.475h.712l-.15-3.893c-1.13-.353-2.732-.701-4.926-.701-5.49 0-6.874 3.452-6.874 7.695 0 5.248 1.923 8.305 7.27 8.305 2.536 0 3.89-.536 4.73-.889zm5.405-5.142l2.645-7.257 2.575 7.257h-5.22zM223 53.397V54h5.66v-.603c-1.227 0-1.737-.213-1.737-.96 0-.312.09-.624.207-.912l.88-2.452h6.008l.927 2.597c.115.288.185.598.185.886 0 .746-.835.84-1.737.84V54H240v-.603c-1.623 0-2.157-.431-2.805-2.21L232.463 38h-1.903l-4.657 12.875c-.72 1.996-1.3 2.522-2.903 2.522zm18.769.002V54h6.46v-.6c-1.617 0-1.963-.362-1.963-2.234V39.104h.878c2.423 0 2.956.843 3.184 2.621H251L250.883 38h-11.746L239 41.725h.67c.253-1.756.735-2.62 3.158-2.62h.9v12.061c0 1.872-.345 2.233-1.96 2.233zm11.231 0V54h7v-.6c-1.751 0-2.123-.362-2.123-2.234v-10.33c0-1.874.372-2.235 2.123-2.235V38h-7v.6c1.776 0 2.126.362 2.126 2.236v10.33c0 1.872-.35 2.233-2.126 2.233zm14.499-.518c-3.19 0-3.691-3.222-3.691-6.884 0-3.637.5-6.88 3.69-6.88 3.168 0 3.692 3.243 3.692 6.88 0 3.662-.524 6.884-3.691 6.884zM261 45.997c0 4.972 1.548 8.003 6.499 8.003 4.976 0 6.501-3.031 6.501-8.003 0-4.966-1.525-7.997-6.501-7.997-4.951 0-6.499 3.031-6.499 7.997zm16 7.402V54h5.66v-.6c-1.728 0-2.066-.362-2.066-2.234v-10.74h.047L288.631 54h2.306V40.836c0-1.874.314-2.235 2.063-2.235V38h-5.657v.6c1.702 0 2.063.362 2.063 2.236v10.066h-.047L281.759 38H277v.6c1.699 0 2.063.362 2.063 2.236v10.33c0 1.872-.364 2.233-2.063 2.233zM169.086 70.725l2.486-6.35 2.424 6.35h-4.91zM164 75.477V76h5.325v-.523c-1.157 0-1.637-.19-1.637-.841 0-.273.086-.546.197-.8l.828-2.143h5.656l.873 2.268c.108.253.173.528.173.781 0 .652-.784.735-1.637.735V76H180v-.523c-1.53 0-2.03-.379-2.641-1.935L172.905 62h-1.789l-4.388 11.27c-.677 1.745-1.222 2.207-2.728 2.207zm24.726-9.946h.588l-.121-3.163c-.608-.103-1.945-.368-3.3-.368-2.955 0-4.633 1.265-4.633 3.47 0 1.632.992 2.61 2.205 3.407 1.862 1.204 4.228 1.937 4.228 3.938 0 1.243-.99 2.204-2.75 2.204-2.652 0-3.116-1.897-3.36-2.937H181l.12 3.366c.687.184 2.002.552 3.6.552 3.075 0 5.28-1.062 5.28-3.94 0-1.388-.707-2.285-1.7-3.06-1.516-1.184-4.956-2.123-4.956-4.122 0-1.061.911-1.897 2.55-1.897 2.144 0 2.67 1.449 2.832 2.55zm11 0h.586l-.119-3.163c-.608-.103-1.944-.368-3.298-.368-2.953 0-4.63 1.265-4.63 3.47 0 1.632.99 2.61 2.202 3.407 1.86 1.204 4.229 1.937 4.229 3.938 0 1.243-.994 2.204-2.751 2.204-2.652 0-3.116-1.897-3.36-2.937H192l.12 3.366c.687.184 2.002.552 3.601.552 3.075 0 5.279-1.062 5.279-3.94 0-1.388-.707-2.285-1.696-3.06-1.52-1.184-4.959-2.123-4.959-4.122 0-1.061.912-1.897 2.55-1.897 2.144 0 2.671 1.449 2.831 2.55zM209 75.019c-2.944 0-3.404-2.814-3.404-6.019 0-3.182.46-6.022 3.404-6.022 2.922 0 3.406 2.84 3.406 6.022 0 3.205-.484 6.02-3.406 6.02zM203 69c0 4.347 1.431 7 5.999 7 4.594 0 6.001-2.653 6.001-7 0-4.347-1.407-7-6.001-7-4.568 0-5.999 2.653-5.999 7zm24 6.223v-1.41c-.637.431-1.643 1.042-3.592 1.042-2.858 0-3.988-2.898-3.988-6.122 0-2.553.494-5.755 3.514-5.755 2.218 0 3.348 2.001 3.43 3.043h.597l-.124-3.408c-.945-.307-2.28-.613-4.108-.613-4.582 0-5.729 3.02-5.729 6.733 0 4.592 1.601 7.267 6.055 7.267 2.117 0 3.247-.47 3.945-.777zm12.086-4.498l2.49-6.35 2.42 6.35h-4.91zm12.222 4.752V76h5.386v-.523c-1.347 0-1.636-.316-1.636-1.955V62.968h.73c2.02 0 2.461.735 2.655 2.29H259L258.905 62h-9.787L249 65.259h.56c.21-1.534.616-2.291 2.633-2.291h.751v10.554c0 1.64-.289 1.955-1.636 1.955zm7.692 0V76h7v-.523c-1.75 0-2.126-.316-2.126-1.955V64.48c0-1.64.375-1.956 2.126-1.956V62h-7v.525c1.775 0 2.126.316 2.126 1.956v9.04c0 1.64-.351 1.956-2.126 1.956zm12-.458c-2.942 0-3.404-2.814-3.404-6.019 0-3.182.462-6.022 3.404-6.022 2.923 0 3.407 2.84 3.407 6.022 0 3.205-.484 6.02-3.407 6.02zM265 69c0 4.347 1.431 7 6 7 4.595 0 6-2.653 6-7 0-4.347-1.405-7-6-7-4.569 0-6 2.653-6 7zm14 6.477V76h4.952v-.523c-1.511 0-1.807-.316-1.807-1.955v-9.397h.043L289.176 76h2.02V64.48c0-1.639.275-1.955 1.804-1.955V62h-4.952v.525c1.488 0 1.805.316 1.805 1.956v8.808h-.041L283.166 62H279v.525c1.488 0 1.807.316 1.807 1.956v9.04c0 1.64-.319 1.956-1.807 1.956zM0 90V0h157v90H0zm86.325-57.96c-.014-2.148 3.029-1.922 3.675-3.695l-.696-.686c-5.29 1.367-10.157-4.102-15.304-.274.124 1.352 2.844.934 2.778 2.629L72 29l1.952 2.443L72 34l12.597-1.032c.268.059.598.04 1.013-.083l3.39-.277-2.675-.568zm-2.907-.617l-3.896-.827c.416-.294.688-.795.74-1.57 2.482-.738 2.73.992 3.156 2.397zM46.852 16.576c-4.004-3.306-6.984-3.947-12.548-3.404-5.06.718-8.756 4.193-10.978 8.516-.294-2.115-.294-4.371-.264-6.682-4.701 3.014-9.804 5.76-14.114 8.9h1.18c1.738.262 2.87 3.304 2.912 5.133 0 13.526-.153 27.755-.18 40.575-.154 2.143-2.502 4.843-4.86 6.286l19.116.1c-1.568-.917-3.723-4.316-3.898-6.2l-.005-32.378c.396-4.58.86-9.177 3.602-12.712 2.223-3.532 6.686-3.63 10.083-2.977 2.812 1.056 4.884 3.42 5.19 6.773l-.153 40.99c-.782 2.623-2.28 4.725-5.148 6.504H57c-2.479-.525-4.385-4.105-5.173-6.2V30.489c-.033-6.52-1.447-10.25-4.975-13.913zm19.953 24.193c1.05-9.711 5.774-18.483 14.172-24.61 8.274 6.127 12.47 14.899 13.913 24.343-8.006 4.395-19.95 3.989-28.085.267zm34.913 7.05c1.052-11.176-.661-21.945-8.141-30.057-6.032-5.99-16.362-5.89-23.358-2.135-8.534 5.06-11.417 14.23-13.521 22.882-2.174 13.776.526 26.864 11.026 35.517 7.48 5.712 19.293 4.788 27.166.261 1.05-3.854 2.752-8.378 3.409-11.836l-2.495 3.196c-4.304 4.593-13.91 4.52-19.809 1.99-4.205-1.792-6.304-5.585-7.878-8.908-1.387-3.88-1.703-7.853-.393-10.91h33.994zM86.696 36.003c-1.045.118-3.406-.498-2.489 1.489.395.868.265 3.102 2.229 2.36 1.174-.999.13-2.614.26-3.85zm-8.122.045c-1.451-.13-4.346-.13-3.381 1.785.323 1.02.48 2.167 2.256 2.167 1.61-.762 1.933-2.674 1.125-3.952zm52.17 30.276c-2.783 2.166-6.632 2.84-10.215 2.028-2.527-1.085-4.913-2.7-5.977-5.54-.793-4.729-.667-10.808 3.852-14.328 3.716-3.648 8.366-5.124 12.34-8.108v25.948zm16.33 1.625c-1.987.81-4.509.403-5.442-1.625 0 0 .145-36.697-.038-39.864-.18-3.165-1.55-6.489-1.55-6.489-5.182-10.537-19.78-8.915-28.407-4.86-1.067 3.644-3.057 7.7-3.19 11.083 3.19-4.598 8.218-5.694 13.397-5.97 3.58-.406 7.314 1.392 8.644 4.348 1.057 2.7 1.72 6.887-1.33 9.05-8.76 5.142-22.833 6.754-24.555 19.73-1.335 7.44-.8 15.68 5.174 20.812 4.246 2.973 9.824 3.92 15.264 2.973 4.519-.68 2.782-6.621 5.703-8.785.8 3.65 4.103 7.303 7.558 8.66 8.596 4.189 7.05-6.095 9.698-9.334-.391 0-.186.023-.926.27z" fill="#003054"/></g></svg>