<svg xmlns="http://www.w3.org/2000/svg" width="250" height="58" viewBox="0 0 250 58">
  <path fill="#FFFFFF" fill-rule="evenodd" d="M195.801325,43.7599338 C195.801325,46.3956954 194.872517,48.7930464 192.084437,48.7930464 C189.139073,48.7930464 188.602649,46.2384106 188.602649,43.7599338 L188.602649,1.08278146 L178.529801,1.08278146 L178.529801,42.4437086 C178.529801,53.2880795 183.718543,57.3178808 191.466887,57.3178808 C199.516556,57.3178808 204.311258,53.2880795 204.311258,42.4437086 L204.311258,1.08278146 L195.801325,1.08278146 L195.801325,43.7599338 Z M157.869205,32.6903974 L167.238411,32.6903974 L167.238411,23.7019868 L157.869205,23.7019868 L157.869205,9.60264901 L170.571192,9.60264901 L170.571192,1.08443709 L147.80298,1.08443709 L147.80298,56.236755 L171.115894,56.236755 L171.115894,47.7119205 L157.869205,47.7119205 L157.869205,32.6903974 Z M236.688742,1.08443709 L231.966887,29.352649 L231.811258,29.352649 L227.321192,1.08443709 L213.918874,1.08443709 L213.918874,56.236755 L221.350993,56.236755 L221.350993,15.7980132 L221.514901,15.7980132 L228.245033,56.236755 L233.822848,56.236755 L240.640728,15.7980132 L240.796358,15.7980132 L240.796358,56.236755 L249.783113,56.236755 L249.783113,1.08443709 L236.688742,1.08443709 Z M47.3096026,32.6903974 L56.6771523,32.6903974 L56.6771523,23.7019868 L47.3096026,23.7019868 L47.3096026,9.60264901 L60.0082781,9.60264901 L60.0082781,1.08443709 L37.2433775,1.08443709 L37.2433775,56.236755 L60.5513245,56.236755 L60.5513245,47.7119205 L47.3096026,47.7119205 L47.3096026,32.6903974 Z M125.503311,8.51821192 C129.528146,8.51821192 129.528146,13.7069536 129.528146,16.8062914 L138.518212,16.8062914 C138.286424,6.89569536 134.801325,0 125.741722,0 C117.220199,0 112.726821,6.7384106 112.726821,15.0248344 C112.726821,31.365894 131.003311,33.6109272 131.003311,43.4453642 C131.003311,45.6986755 129.844371,48.7930464 126.511589,48.7930464 C122.178808,48.7930464 122.178808,43.3741722 122.178808,40.2764901 L113.195364,40.2764901 C113.195364,47.8675497 115.35596,57.3178808 126.130795,57.3178808 C135.18543,57.3178808 139.988411,50.5761589 139.988411,42.1307947 C139.988411,26.102649 121.710265,22.9254967 121.710265,13.5562914 C121.710265,10.5380795 123.107616,8.51821192 125.503311,8.51821192 Z M19.2036424,30.2069536 L19.0513245,30.2069536 L9.83443709,1.08443709 L0,1.08443709 L0,56.236755 L8.51986755,56.236755 L8.51986755,22.852649 L8.67218543,22.852649 L19.4370861,56.236755 L27.2566225,56.236755 L27.2566225,1.08443709 L19.2036424,1.08443709 L19.2036424,30.2069536 Z M100.647351,1.08443709 L107.852649,1.08443709 L100.647351,56.236755 L91.5099338,56.236755 L86.7152318,21.3046358 L86.5546358,21.3046358 L81.5993377,56.236755 L72.7715232,56.236755 L65.4122517,1.08443709 L74.5463576,1.08443709 L78.1109272,33.4536424 L78.2715232,33.4536424 L83.0695364,1.08443709 L92.1357616,1.08443709 L96.5546358,33.4536424 L96.7019868,33.4536424 L100.647351,1.08443709 Z"/>
</svg>
