<svg xmlns="http://www.w3.org/2000/svg" width="200" height="39" viewBox="0 0 200 39">
  <g fill="#002F54" fill-rule="evenodd">
    <path d="M129.359496,29.1677609 C129.359496,30.9244565 128.74605,32.5234565 126.904034,32.5234565 C124.959496,32.5234565 124.604874,30.8210217 124.604874,29.1677609 L124.604874,0.7215 L117.949412,0.7215 L117.949412,28.289413 C117.949412,35.5196739 121.376303,38.205587 126.497311,38.205587 C131.814958,38.205587 134.983025,35.5196739 134.983025,28.289413 L134.983025,0.7215 L129.359496,0.7215 L129.359496,29.1677609 Z M104.298992,21.7882826 L110.488908,21.7882826 L110.488908,15.7975435 L104.298992,15.7975435 L104.298992,6.40023913 L112.690588,6.40023913 L112.690588,0.723195652 L97.6485714,0.723195652 L97.6485714,37.4849348 L113.050252,37.4849348 L113.050252,31.8028043 L104.298992,31.8028043 L104.298992,21.7882826 Z M31.2569748,21.7882826 L37.4468908,21.7882826 L37.4468908,15.7975435 L31.2569748,15.7975435 L31.2569748,6.40023913 L39.6452101,6.40023913 L39.6452101,0.723195652 L24.6048739,0.723195652 L24.6048739,37.4849348 L40.0048739,37.4849348 L40.0048739,31.8028043 L31.2569748,31.8028043 L31.2569748,21.7882826 Z M80.409916,9.03528261 C80.409916,7.02254348 81.332605,5.6778913 82.9157983,5.6778913 C85.5746218,5.6778913 85.5746218,9.13702174 85.5746218,11.2023261 L91.5141176,11.2023261 C91.3628571,4.59606522 89.0586555,0.000847826087 83.0737815,0.000847826087 C77.4435294,0.000847826087 74.4754622,4.49093478 74.4754622,10.0153696 C74.4754622,20.9065435 86.5494118,22.4038043 86.5494118,28.9575 C86.5494118,30.4615435 85.7830252,32.5234565 83.5830252,32.5234565 C80.7208403,32.5234565 80.7208403,28.9117174 80.7208403,26.8447174 L74.7847059,26.8447174 C74.7847059,31.9062391 76.2115966,38.205587 83.3309244,38.205587 C89.3141176,38.205587 92.4872269,33.7121087 92.4872269,28.0825435 C92.4872269,17.3999348 80.409916,15.2820652 80.409916,9.03528261 L80.409916,9.03528261 Z M12.6872269,20.1333261 L12.5880672,20.1333261 L6.49563025,0.723195652 L-0.000168067227,0.723195652 L-0.000168067227,37.4849348 L5.63008403,37.4849348 L5.63008403,15.2311957 L5.72756303,15.2311957 L12.8418487,37.4849348 L18.0082353,37.4849348 L18.0082353,0.723195652 L12.6872269,0.723195652 L12.6872269,20.1333261 Z M66.4956303,0.723195652 L71.2552941,0.723195652 L66.4956303,37.4849348 L60.4586555,37.4849348 L57.2889076,14.2002391 L57.1847059,14.2002391 L53.9090756,37.4849348 L48.0788235,37.4849348 L43.214958,0.723195652 L49.2502521,0.723195652 L51.6048739,22.2969783 L51.712437,22.2969783 L54.8821849,0.723195652 L60.8704202,0.723195652 L63.7897479,22.2969783 L63.8889076,22.2969783 L66.4956303,0.723195652 Z"/>
    <polygon points="156.373 .723 153.254 19.565 153.152 19.565 150.184 .723 141.331 .723 141.331 37.486 146.241 37.486 146.241 10.528 146.348 10.528 150.795 37.486 154.481 37.486 158.985 10.528 159.086 10.528 159.086 37.486 165.024 37.486 165.024 .723"/>
    <path d="M171.354958 11.2523478C171.354958 11.0166522 171.541513 10.803 171.803697 10.803L181.53479 10.803C181.791933 10.803 181.978487 11.0166522 181.978487 11.2523478L181.978487 13.8382174C181.978487 14.0756087 181.791933 14.2892609 181.53479 14.2892609L175.022185 14.2892609 175.022185 17.2295217 180.381849 17.2295217C180.617143 17.2295217 180.828908 17.4431739 180.828908 17.6805652L180.828908 20.2647391C180.828908 20.5258696 180.617143 20.7174783 180.381849 20.7174783L175.022185 20.7174783 175.022185 23.9188696 181.53479 23.9188696C181.791933 23.9188696 181.978487 24.1308261 181.978487 24.3682174L181.978487 26.954087C181.978487 27.1897826 181.791933 27.4034348 181.53479 27.4034348L171.803697 27.4034348C171.541513 27.4034348 171.354958 27.1897826 171.354958 26.954087L171.354958 11.2523478zM191.061849 23.8936043C193.717311 23.8936043 195.646723 21.7825174 195.646723 19.0796478 195.646723 16.3988217 193.717311 14.2894304 191.061849 14.2894304L188.804706 14.2894304 188.804706 23.8936043 191.061849 23.8936043zM185.13916 11.2525174C185.13916 11.0168217 185.325714 10.8031696 185.561008 10.8031696L191.297143 10.8031696C195.833277 10.8031696 199.547563 14.5268217 199.547563 19.0796478 199.547563 23.6816478 195.833277 27.4036043 191.297143 27.4036043L185.561008 27.4036043C185.325714 27.4036043 185.13916 27.1899522 185.13916 26.9542565L185.13916 11.2525174z"/>
    <polygon points="170.887 37.485 199.452 37.485 199.452 33.246 170.887 33.246"/>
    <polygon points="170.887 4.961 199.452 4.961 199.452 .722 170.887 .722"/>
  </g>
</svg>