<svg xmlns="http://www.w3.org/2000/svg" width="74" height="100" viewBox="0 0 74 100">
  <g fill="#002F54" fill-rule="evenodd">
    <path d="M31.7540957 9.11764331C33.5035316 9.11764331 35.4642154 7.07687898 35.4642154 4.94121019 35.4642154 2.7233758 33.7375487.609363057 30.7851385.609363057L19.6452923.609363057 19.6452923 13.1635032 23.3433949 13.1635032 23.3433949 9.33675159 25.3186256 9.33675159C26.6133094 9.33675159 27.3033436 9.20681529 28.5177026 10.4221019 29.2178564 11.1227389 31.2961812 13.1635032 31.2961812 13.1635032L35.9992923 13.1635032 31.7540957 9.11764331zM30.2323521 6.26350318L23.3433949 6.26350318 23.3433949 3.80808917 30.2323521 3.80808917C30.9578051 3.80808917 31.5453778 4.3055414 31.5453778 5.03611465 31.5453778 5.76605096 30.9578051 6.26350318 30.2323521 6.26350318L30.2323521 6.26350318zM47.4876342 9.65038217C46.9873436 9.66694268 42.032506 9.65038217 42.032506 9.65038217L42.032506 3.9433758C42.032506 3.9433758 47.1429333 3.92617834 47.4718222 3.9433758 49.1485231 3.9433758 50.231959 5.09687898 50.231959 6.61917197 50.231959 8.14082803 49.4306085 9.65038217 47.4876342 9.65038217M48.2883521.617898089C47.9607282.599426752 38.3413607.617898089 38.3413607.617898089L38.3413607 13.1421019C38.3413607 13.1421019 47.804506 13.1586624 48.3054291 13.1421019 50.2110872 13.1421019 54.2254291 11.4669427 54.2254291 6.61917197 54.2254291 1.77140127 50.2110872.617898089 48.2883521.617898089M64.9999556 13.6421656C59.2425026 13.6421656 56.1990154 11.2835669 56.1990154 6.82050955 56.1990154 2.35872611 59.2425026.000127388535 64.9999556.000127388535 67.3110325.000127388535 69.620212.634522293 71.1761094 1.69757962L71.2988103 1.78229299 68.9889983 4.42815287 68.8915966 4.35808917C68.0269983 3.73324841 66.3907761 3.40649682 65.222588 3.40649682 61.878041 3.40649682 60.3872889 4.46 60.3872889 6.82050955 60.3872889 9.18165605 61.878041 10.2351592 65.222588 10.2351592 66.3907761 10.2351592 68.0269983 9.90840764 68.8915966 9.28420382L68.9889983 9.21414013 71.2988103 11.8593631 71.1761094 11.9447134C69.618947 13.0077707 67.3104 13.6421656 64.9999556 13.6421656M12.1321419.621847134L12.1321419 7.10528662C11.5458342 5.98426752 6.23933846.621847134.944859829.621847134L-.0000632478623.621847134-.0000632478623 13.1492357 3.69993675 13.1492357 3.69993675 5.51038217C4.64802222 5.51038217 9.31697949 8.78426752 11.8646034 13.1479618L15.8074752 13.1492357 15.8074752.621847134 12.1321419.621847134zM67.087641 54.0056051L67.087641 64.1412739C67.087641 81.8724841 52.763265 96.2979618 35.1563248 96.2979618 17.5487521 96.2979618 3.22374359 81.8724841 3.22374359 64.1412739L3.22374359 22.5081529 67.087641 22.5081529 67.087641 28.3578344 67.0920684 28.4259873C67.0920684 31.2540127 69.2753846 31.6782166 70.3069573 31.6794904L70.3069573 19.2661146.00632478633 19.2661146.00632478633 64.1412739C.00632478633 83.6597452 15.7740171 99.5393631 35.1563248 99.5393631 54.5373675 99.5393631 70.3069573 83.6597452 70.3069573 64.1412739L70.3069573 50.7527389C69.2747521 50.7527389 67.087641 51.1750318 67.087641 54.0056051"/>
    <path d="M18.8527966 38.5466879L18.8407795 38.4759873 17.8756171 36.1084713 21.2796171 35.1001911C21.4288821 35.0447771 21.5035145 34.9116561 21.5035145 34.7772611 21.5035145 34.6435032 21.4288821 34.5103822 21.2796171 34.4549682L17.8756171 33.4466879 18.840147 31.0817197 18.8527966 31.0103822C18.8553265 30.9906369 18.8572239 30.9708917 18.855959 30.9517834 18.8534291 30.9154777 18.8477368 30.8798089 18.8344547 30.8473248 18.8319248 30.8422293 18.8287624 30.8384076 18.8262325 30.8333121 18.7939761 30.7651592 18.7389504 30.7097452 18.6706427 30.6766242 18.6655829 30.6740764 18.661788 30.6708917 18.6567282 30.6683439 18.6244718 30.6549682 18.589053 30.6492357 18.5530017 30.6466879 18.5340274 30.645414 18.5144205 30.6479618 18.4948137 30.6498726L18.4239761 30.6626115 16.0743179 31.633949 15.0731043 28.2059236C15.0187111 28.0549682 14.8858906 27.9804459 14.7524376 27.9804459 14.6196171 27.9804459 14.4867966 28.0556051 14.4330359 28.2059236L13.4318222 31.633949 11.0821641 30.6626115 11.011959 30.6498726C10.9917197 30.6479618 10.9727453 30.646051 10.9531385 30.6466879 10.9170872 30.6492357 10.8816684 30.6549682 10.8500444 30.6683439 10.8449846 30.6708917 10.8405573 30.6740764 10.8354974 30.6766242 10.7678222 30.7097452 10.7127966 30.7645223 10.6805402 30.8333121 10.6780103 30.8384076 10.6742154 30.8422293 10.6723179 30.8479618 10.6584034 30.8798089 10.6527111 30.9154777 10.6508137 30.9517834 10.6495487 30.9715287 10.6514462 30.9906369 10.6539761 31.0110191L10.6659932 31.0817197 11.631788 33.4466879 8.22652308 34.4549682C8.07852308 34.5091083 8.00262564 34.6409554 8.00262564 34.7734395 8.00262564 34.9091083 8.07536068 35.0441401 8.22652308 35.1001911L11.631788 36.1084713 10.6659932 38.4753503 10.6539761 38.5466879C10.6514462 38.5664331 10.6495487 38.5861783 10.6508137 38.6052866 10.6527111 38.6415924 10.6584034 38.6772611 10.6723179 38.7097452 10.6742154 38.7142038 10.6773778 38.7180255 10.6799077 38.723121 10.7127966 38.7919108 10.7678222 38.8479618 10.8361299 38.8804459 10.8411897 38.8829936 10.8449846 38.8861783 10.8500444 38.8880892 10.8823009 38.9021019 10.9177197 38.9078344 10.9537709 38.9097452 10.9727453 38.9110191 10.9917197 38.9091083 11.0113265 38.9071975L11.0827966 38.8944586 13.4318222 37.9212102 14.4324034 41.3492357C14.4867966 41.5001911 14.6196171 41.5747134 14.7524376 41.5753503 14.8858906 41.5747134 15.0187111 41.5001911 15.0724718 41.3498726L16.0736855 37.9212102 18.4239761 38.8944586 18.4954462 38.9071975C18.515053 38.9091083 18.5340274 38.9116561 18.5530017 38.9103822 18.589053 38.9078344 18.6244718 38.9021019 18.6567282 38.8880892 18.6611556 38.8861783 18.6655829 38.8829936 18.6700103 38.8810828 18.7389504 38.8479618 18.7946085 38.7919108 18.826865 38.7224841 18.8293949 38.7180255 18.8325573 38.7142038 18.8344547 38.7097452 18.8477368 38.6772611 18.8534291 38.6415924 18.855959 38.6052866 18.8572239 38.5861783 18.8553265 38.5664331 18.8527966 38.5466879M27.3743077 81.1997452C27.3717778 81.1863694 27.3686154 81.1723567 27.3660855 81.1596178 27.3022051 80.846242 27.2085983 80.5322293 27.0821026 80.2252229 26.4154701 78.6042038 25.0644957 77.5118471 23.3441538 77.1889172L23.339094 77.1882803 23.3378291 77.1831847C23.2473846 76.9443312 23.146188 76.4290446 23.146188 75.8156688 23.1455556 74.4621656 23.6388889 72.6284076 25.8278974 72.2678981L25.8354872 72.2666242 25.8380171 72.2678981C27.9713675 79.646879 32.085641 84.9105732 35.3201368 84.9105732L35.3365812 84.9105732 41.4039487 84.9105732 41.4184957 84.9105732C41.9573675 84.9105732 42.6986325 84.7971975 43.1812137 84.1500637 43.5942222 83.5952866 43.7637265 82.8825478 43.7637265 82.1583439 43.7637265 81.2838217 43.5157949 80.3857325 43.1559145 79.713121 42.6998974 78.8640764 41.5551111 77.4761783 39.0504957 77.2328662L39.0460684 77.2322293 39.0435385 77.2284076C37.9512479 75.4519745 37.3921368 73.0290446 37.3921368 70.4322293 37.3921368 64.8220382 39.9998462 58.391465 45.4865983 55.8761783 45.5643932 55.8398726 45.599812 55.7723567 45.599812 55.7029299 45.599812 55.6233121 45.5511111 55.5424204 45.4568718 55.5124841 45.081812 55.3921019 44.6631111 55.3277707 44.2121538 55.3277707 41.927641 55.3277707 38.8133162 56.969172 36.2764444 61.202293 35.2221026 62.9608917 34.2253162 66.1570701 34.2253162 69.8169427 34.2253162 72.5736306 34.6497094 75.3296815 36.1809402 78.1984713 36.1809402 78.1984713 35.3808547 79.0035669 35.283453 79.8092994L39.0631453 79.8092994C39.884735 79.8092994 41.113641 80.8946497 41.113641 82.0583439L35.3144444 82.0583439C31.9464957 80.4092994 28.9479145 73.1099363 28.5152991 69.102293 28.2654701 66.7863694 28.4071453 64.3698089 28.4071453 64.3698089L24.4908376 64.3755414C24.4908376 59.2838217 26.137812 53.7042038 31.2773333 49.2583439 31.3146496 49.2258599 31.2899829 49.1831847 31.2899829 49.1411465 31.2893504 49.068535 31.2191453 48.9991083 31.1356581 48.990828 31.0325641 48.9806369 30.9168205 48.9755414 30.8099316 48.9755414 28.9763761 48.9749045 26.5147692 50.4475159 24.8001197 52.7933758 22.4713333 55.9780892 21.0703932 60.8405096 21.0703932 65.836051 21.0703932 66.4010191 21.0855726 66.7863694 21.1222564 67.5921019L25.2504444 67.5921019 25.2510769 67.5436943C25.2972479 68.235414 25.366188 69.1819108 25.366188 69.1831847L25.3668205 69.1774522 25.3585983 69.1710828C25.3573333 69.1717197 25.0227521 69.2143949 24.5180342 69.3717197 24.0133162 69.5284076 23.340359 69.7952866 22.6674017 70.2385987 21.3221197 71.1271338 19.9774701 72.6672611 19.9774701 75.48 19.9774701 76.6640764 20.216547 78.0640764 20.7946325 79.6749045L22.3827863 79.6749045C23.2031111 79.6749045 24.7647009 80.8844586 24.7647009 82.1564331L19.2962906 82.1583439C18.3836239 81.6551592 15.3154701 79.6328662 14.1207179 69.9035669 13.9486838 68.4984713 13.8696239 67.1723567 13.8696239 65.9175796 13.8696239 56.7991083 18.041453 51.5921019 20.7921026 49.2067516 23.8665812 46.5411465 27.7025641 45.0927389 30.9503419 45.0927389 31.9110769 45.0927389 32.8199487 45.2940127 33.6428034 45.5538854 33.728188 44.6570701 36.6641538 40.2736306 40.5570598 39.6698089 40.5690769 39.6678981 44.2557949 41.1169427 48.3118803 41.0099363 51.0555726 40.9379618 52.6494188 40.2927389 54.4975214 39.2475159 53.8726325 38.5449682 53.6221709 37.8921019 53.6221709 37.346879 53.6228034 36.268535 54.6006154 35.5768153 55.5784274 35.5749045 55.9863761 35.5742675 56.3898974 35.7010191 56.7270085 35.9621656 56.7327009 35.9666242 56.7383932 35.9698089 56.743453 35.9736306 56.9224444 36.1156688 57.0786667 36.2971975 57.2057949 36.5226752 57.2133846 36.536051 57.2197094 36.5500637 57.2279316 36.5640764 57.3506325 36.7933758 57.4404444 37.0647134 57.4904103 37.3831847 57.4916752 37.3946497 57.4929402 37.4073885 57.4948376 37.4188535 57.5093846 37.5207643 57.5277265 37.6194904 57.5340513 37.7309554 60.0494188 36.5156688 61.9778462 36.0411465 63.3243932 36.0405096 64.5083932 36.0405096 65.2439658 36.4080255 65.5292137 36.9647134L65.5342735 36.9742675 65.5228889 36.9774522C63.9865983 37.4073885 62.8013333 37.8838217 62.3288718 38.1252229 62.7703419 39.1105732 63.7013504 39.3704459 64.8467692 39.3704459 66.1142564 39.3704459 67.6404274 39.0519745 69.0388376 39.0519745 69.5182564 39.0519745 69.9831282 39.0895541 70.4170085 39.1901911L70.4264957 39.1927389 70.3714701 39.202293C70.0811624 40.0405096 69.5840342 41.3436943 69.4088376 41.7570701 69.2424957 42.1507006 67.9440171 42.6290446 66.3122222 43.3067516 64.6823248 43.9831847 62.7798291 44.802293 61.4029231 45.6940127 57.0274359 48.5284076 56.0945299 52.9755414 56.0945299 52.9755414 52.5817436 52.9755414 51.4546667 54.6003822 50.0594188 56.8838217 49.4123932 57.9430573 46.0963077 64.6551592 42.5746667 65.8347771 41.0826496 66.3341401 39.7183932 67.4124841 39.7190256 68.8315924 39.7190256 68.8825478 39.7209231 68.9220382 39.7240855 68.9729936 40.2756068 68.836051 40.9131453 68.7456051 41.6423932 68.7398726 44.8503248 68.713121 46.1507009 70.4793631 46.1507009 70.4793631L46.1570256 70.4844586C44.2602222 72.3952866 43.7586667 74.2042038 43.7586667 75.557707 43.7580342 76.5647134 44.0426496 77.3194904 44.2425128 77.6774522 44.7984615 78.6736306 46.0653162 79.68 47.2240171 79.6793631 47.4175556 79.6793631 47.7470769 79.6271338 48.3890427 79.3984713 49.0291111 79.1717197 52.9150598 76.8608917 54.271094 74.2647134 54.9446838 72.9761783 55.1869231 71.4067516 55.1869231 70.1264968 55.1869231 69.9704459 55.1831282 69.8194904 55.1768034 69.6729936 55.0952137 67.9169427 54.8308376 66.1449682 54.6360342 64.3991083 54.3514188 61.8519745 53.9997607 59.9812739 53.9997607 58.6405096 53.9991282 57.5589809 54.2293504 56.8201274 54.9111624 56.3532484 55.5917094 55.8876433 56.7187863 55.6940127 58.5118632 55.6933758 59.4213675 50.4608917 61.8089744 48.4507006 67.7745128 46.1755414 69.9470769 45.346242 71.6427521 44.6443312 72.4232308 43.0073885L72.4681368 42.8997452C72.6806496 42.3494268 73.3966154 40.48 73.6578291 39.5385987 73.7109573 39.3494268 73.7368889 39.1596178 73.7368889 38.9729936 73.7368889 38.4411465 73.526906 37.9309554 73.126547 37.5194904 72.3087521 36.6768153 70.3942393 36.3214013 68.9585128 36.3220382 68.7244957 36.3220382 68.5031282 36.3309554 68.3013675 36.3494268L68.2944103 36.3500637 68.2918803 36.3436943C67.5139316 34.1583439 65.4292821 33.4870064 63.2459658 33.4863694 61.5401709 33.4863694 59.776188 33.8971975 58.535265 34.3156688L58.5276752 34.3182166 58.5245128 34.3112102C58.0400342 33.3398726 56.9224444 32.7768153 55.5392137 32.7341401 55.4879829 32.7322293 55.4367521 32.7315924 55.3861538 32.7315924 53.1452821 32.7315924 51.6102564 34.2653503 51.2351966 35.5175796 51.134 35.8519745 51.0796068 36.1844586 51.0796068 36.5124841 51.0796068 36.8347771 51.1321026 37.1519745 51.2453162 37.4628025L51.2484786 37.4717197 51.2389915 37.4749045C50.2744615 37.7411465 49.253641 37.846879 48.2404103 37.846879 44.340547 37.846879 40.5602222 36.2793631 40.5298632 36.2666242 40.5146838 36.2704459 40.1668205 36.3513376 39.6013846 36.5392357 39.0232991 36.7303185 38.2219487 37.0322293 37.3301538 37.4729936 35.5446667 38.3551592 33.3917094 39.890828 31.9211966 42.1175796 31.9211966 42.1175796 31.6100171 42.113758 31.4569573 42.113758 27.1984786 42.113758 21.9210769 43.990828 18.691641 46.846879 15.5374701 49.6335032 10.685094 55.5819108 10.685094 65.9315924 10.685094 67.3169427 10.7717436 68.7628025 10.9614872 70.3073885 12.4357949 82.3067516 17.404547 84.9105732 19.1875043 84.9105732L25.4952137 84.9105732C25.8671111 84.9105732 26.2377436 84.8029299 26.5179316 84.5589809 26.5723248 84.5118471 26.6210256 84.4621656 26.6709915 84.4099363 26.7026154 84.3761783 26.7342393 84.3449682 26.7645983 84.3092994 26.9486496 84.090828 27.0972821 83.8366879 27.2098632 83.5532484 27.2212479 83.524586 27.2313675 83.4959236 27.2421197 83.4672611 27.3894872 83.0621656 27.4666496 82.6073885 27.4666496 82.1290446 27.4666496 81.8252229 27.4356581 81.513121 27.3743077 81.1997452M52.0574188 72.1379618C51.6349231 74.0545223 49.7615214 75.3214013 47.6433504 76.6927389L47.6389231 76.6959236 47.6338632 76.6927389C47.1095385 76.3959236 46.9115726 75.9647134 46.7591453 75.5456051 46.7186667 75.4315924 46.6984274 75.3035669 46.6984274 75.1634395 46.6984274 74.5608917 47.0684274 73.7366879 47.7439145 72.8710828L47.7496068 72.8634395 48.6945299 73.702293C49.0436581 73.2226752 49.2156923 72.590828 49.2156923 71.9042038 49.2156923 70.0876433 48.0146154 67.8876433 45.7294701 67.1010191L45.7142906 67.0952866 45.7275726 67.0850955C47.9178462 65.4163057 49.9247009 62.6876433 50.9082051 60.6889172L50.9214872 60.6608917 50.9246496 60.6927389C51.1744786 63.1895541 52.2674017 66.8277707 52.2674017 69.990828 52.2674017 70.7405096 52.2066838 71.4628025 52.0574188 72.1379618"/>
  </g>
</svg>