<svg xmlns="http://www.w3.org/2000/svg" width="320" height="96" viewBox="0 0 320 96">
  <g fill="#002F54" fill-rule="evenodd">
    <path d="M29.5798117,36.15456 C28.5276083,30.77736 28.2624482,25.26516 28.7981921,19.74516 C31.2665913,17.70276 33.9302448,15.83616 36.8006026,14.18016 C38.766403,13.04616 40.7828249,12.05496 42.8167232,11.17956 C34.3008663,16.96776 29.6033145,26.43036 29.5798117,36.15456 M53.9251224,76.54056 C43.2578531,78.77976 32.266968,77.87616 22.2619962,74.15496 C18.9571375,70.89396 16.0120527,67.15176 13.5701695,62.94336 C11.6845198,59.72136 10.1905838,56.36736 9.05702448,52.96116 C11.3090772,41.54376 17.0082109,30.85476 25.6922034,22.53336 C25.1697175,34.04316 27.9400377,45.47256 33.8772128,55.68216 C38.8772881,64.27776 45.7449341,71.36556 53.9251224,76.54056 M61.3550282,80.55696 C64.4700565,81.96996 67.7224859,83.15136 71.1014689,84.04776 C74.05258,84.83736 77.0235782,85.39776 80.0096422,85.72476 C64.7882486,91.84716 47.9451601,90.52356 34.1526177,82.99836 C43.1391337,84.16416 52.4257627,83.40996 61.3550282,80.55696 M34.8655367,10.84356 C33.0250847,11.90736 31.2665913,13.05516 29.5822222,14.26956 C29.8443691,12.89856 30.1438795,11.53296 30.5036535,10.17216 C31.4546139,6.63396 32.7177401,3.23256 34.2689266,-0.00024 L31.0839925,-0.00024 C29.7178154,3.01656 28.5806403,6.16116 27.70742,9.42336 C27.0445198,11.89656 26.5569868,14.39436 26.2110734,16.89096 C17.1010169,24.47376 10.5991714,34.32996 7.09725047,45.12996 C4.33838041,28.91436 9.27939736,12.16056 20.5354426,-0.00024 L0,-0.00024 L0,95.07996 L95.4980038,95.07996 L95.4980038,76.22196 C92.8813559,78.52116 90.0001507,80.60436 86.8646328,82.41336 C86.3722787,82.69236 85.8829379,82.94916 85.3917891,83.20956 C80.8720151,83.08836 76.3239171,82.45356 71.852354,81.25836 C69.6292279,80.67276 67.4778154,79.94496 65.3764218,79.12056 C68.1708475,78.00996 70.920678,76.69656 73.6054237,75.15156 C82.8709605,69.81516 90.2436158,62.45316 95.4980038,53.95236 L95.4980038,40.85316 C91.0583804,52.78176 82.5883239,63.29316 70.6989077,70.15596 C66.5841055,72.51996 62.2879096,74.31816 57.9163842,75.56796 C50.2647081,71.22096 43.6971751,65.18496 38.6651601,57.81756 C48.1838041,67.13076 63.1201507,69.39816 75.2421846,62.41656 C89.7916384,54.03156 94.7561582,35.48496 86.3349153,21.00396 C81.7536723,13.13076 74.1628625,8.07876 65.8428625,6.45456 C76.2714878,6.48636 86.5361959,9.32856 95.4980038,14.65836 L95.4980038,10.20936 C77.1820716,0.22656 54.2222222,-0.30624 34.8655367,10.84356"/>
    <g opacity=".2" transform="translate(29)">
      <path d="M58.3347345 21.00396C66.75658 35.48496 61.7914576 54.03156 47.2426064 62.41656 35.1205725 69.39816 20.1836234 67.13076 10.6649793 57.81756 15.6969944 65.18496 22.2645273 71.22096 29.916806 75.56796 34.2883315 74.31816 38.5845273 72.51996 42.6993296 70.15596 54.5881431 63.29316 63.0581996 52.78176 67.497823 40.85316L67.497823 14.65836C58.5360151 9.32856 48.271307 6.48636 37.8426817 6.45456 46.1632844 8.07876 53.7534915 13.13076 58.3347345 21.00396M.798252354 19.74534C.262508475 25.26474.52766855 30.77754 1.57987194 36.15474 1.60337476 26.43054 6.30092655 16.96794 14.8167834 11.17974 12.7828851 12.05514 10.7664633 13.04634 8.8006629 14.18034 5.93030508 15.83574 3.2666516 17.70294.798252354 19.74534M45.6052429 75.15162C42.9204972 76.69662 40.1706667 78.01002 37.3768437 79.12062 39.4776347 79.94502 41.6290471 80.67282 43.8527759 81.25842 48.324339 82.45362 52.8724369 83.08842 57.3922109 83.20962 57.8827571 82.94922 58.3727006 82.69242 58.864452 82.41342 61.9999699 80.60442 64.8811751 78.52122 67.497823 76.22202L67.497823 53.95242C62.243435 62.45322 54.8707797 69.81462 45.6052429 75.15162"/>
      <path d="M6.26904708,-0.00012 C4.71786064,3.23268 3.45473446,6.63408 2.50377401,10.17228 C2.14339736,11.53308 1.84448964,12.89868 1.58234275,14.26968 C3.26671186,13.05528 5.02520527,11.90748 6.86565725,10.84368 C26.2217401,-0.30612 49.1821921,0.22668 67.4981243,10.20948 L67.4981243,1.40808 C67.3239623,0.93828 67.1540188,0.46908 66.9635857,-0.00012 L6.26904708,-0.00012 Z"/>
    </g>
    <path d="M94.9635254-.00012C95.1539586.46908 95.3239021.93828 95.498064 1.40808L95.498064-.00012 94.9635254-.00012zM125.08354 49.12722C124.156083 50.26602 123.686629 52.14882 123.686629 54.76962 123.686629 57.33822 124.156083 59.19762 125.105838 60.31722 126.048964 61.45122 127.265687 62.02062 128.74516 62.02062 130.164972 62.02062 131.323842 61.45122 132.266968 60.33882 133.188399 59.19762 133.665085 57.35922 133.665085 54.80682 133.665085 51.94482 133.088362 49.92882 131.952392 48.75642 131.086403 47.87202 129.978757 47.42382 128.643917 47.42382 127.20904 47.42382 126.027269 47.98962 125.08354 49.12722M121.891375 62.90142C120.162411 61.04502 119.295819 58.31862 119.295819 54.74862 119.295819 52.59702 119.650169 50.67762 120.355254 48.96882 120.736723 48.03042 121.303202 47.14422 122.092655 46.32702 122.876685 45.50442 123.785461 44.87682 124.825612 44.44422 125.868776 44.01222 126.991488 43.80102 128.215443 43.80102 130.199925 43.80102 131.811375 44.11242 133.03533 44.78202 134.629303 45.64122 135.853258 46.87182 136.695141 48.49962 137.521356 50.10822 137.955254 52.24362 137.955254 54.86982 137.955254 58.41882 137.106742 61.11882 135.413333 62.94342 133.724143 64.76322 131.499209 65.69082 128.706591 65.69082 125.91096 65.69082 123.626365 64.76322 121.891375 62.90142M145.692083 53.53752L149.057205 53.53752C150.275134 53.53752 151.313476 53.20032 152.182478 52.49712 152.733288 52.04352 153.029785 51.39972 153.029785 50.57712 153.029785 49.81272 152.711593 49.14852 152.085454 48.63672 151.456904 48.10932 150.43423 47.85072 149.057205 47.85072L145.692083 47.85072 145.692083 53.53752M153.088241 65.29572L149.507977 56.77212 145.692083 56.77212 145.692083 65.29572 141.557394 65.29572 141.557394 44.19132 147.261951 44.19132C150.334192 44.19132 152.457883 44.40192 153.639653 44.87652 154.80455 45.32472 155.723571 46.09152 156.37261 47.14452 157.027073 48.18852 157.357318 49.40112 157.357318 50.77272 157.357318 52.02732 157.065642 53.06112 156.472648 53.89452 155.882667 54.71172 154.862403 55.41852 153.406433 56.00352L157.262102 65.29572 153.088241 65.29572"/>
    <polygon points="165.232 65.296 165.232 47.814 159.269 47.814 159.269 44.191 175.307 44.191 175.307 47.814 169.37 47.814 169.37 65.296"/>
    <path d="M182.315209,49.12722 C181.393778,50.26602 180.920708,52.14882 180.920708,54.76962 C180.920708,57.33822 181.393778,59.19762 182.339917,60.31722 C183.30052,61.45122 184.502177,62.02062 185.974418,62.02062 C187.39423,62.02062 188.573589,61.45122 189.502252,60.33882 C190.444776,59.19762 190.895548,57.35922 190.895548,54.80682 C190.895548,51.94482 190.344738,49.92882 189.205755,48.75642 C188.319277,47.87202 187.214041,47.42382 185.879202,47.42382 C184.444324,47.42382 183.261348,47.98962 182.315209,49.12722 M179.130275,62.90142 C177.413966,61.04502 176.531104,58.31862 176.531104,54.74862 C176.531104,52.59702 176.885454,50.67762 177.590539,48.96882 C177.96116,48.03042 178.554757,47.14422 179.325529,46.32702 C180.115586,45.50442 181.01713,44.87682 182.060896,44.44422 C183.10406,44.01222 184.225567,43.80102 185.448316,43.80102 C187.435209,43.80102 189.046659,44.11242 190.268203,44.78202 C191.864588,45.64122 193.088542,46.87182 193.928618,48.49962 C194.776527,50.10822 195.189333,52.24362 195.189333,54.86982 C195.189333,58.41882 194.349258,61.11882 192.648015,62.94342 C190.959427,64.76322 188.734493,65.69082 185.959352,65.69082 C183.146245,65.69082 180.86165,64.76322 179.130275,62.90142"/>
    <polygon points="211.796 65.296 202.823 50.578 202.823 65.296 198.713 65.296 198.713 44.191 203.099 44.191 211.779 58.356 211.779 44.191 215.932 44.191 215.932 65.296"/>
    <polygon points="226.266 65.296 226.266 44.386 238.473 44.386 238.473 46.385 228.29 46.385 228.29 53.2 235.816 53.2 235.816 55.26 228.29 55.26 228.29 65.296"/>
    <path d="M242.192814,56.77194 L249.32803,56.77194 L245.789951,45.75774 L242.192814,56.77194 L242.192814,56.77194 Z M252.0869,65.29554 L249.99997,58.83054 L241.497371,58.83054 L239.391759,65.29554 L237.325921,65.29554 L244.177296,44.38614 L247.404414,44.38614 L254.152738,65.29554 L252.0869,65.29554 Z"/>
    <polygon points="275.038 65.296 275.038 46.267 268.11 65.296 266.907 65.296 260.021 46.267 260.021 65.296 258.018 65.296 258.018 44.386 261.419 44.386 267.52 61.219 273.661 44.386 277.048 44.386 277.048 65.296"/>
    <polygon points="283.915 65.296 285.922 65.296 285.922 44.386 283.915 44.386"/>
    <polygon points="292.912 65.296 292.912 44.386 294.939 44.386 294.939 63.237 305.018 63.237 305.018 65.296"/>
    <polygon points="310.823 65.296 310.823 56.199 303.99 44.386 306.257 44.386 311.829 54.026 317.396 44.386 319.657 44.386 312.831 56.199 312.831 65.296"/>
    <polygon points="120.932 95.08 120.932 74.171 134.252 74.171 134.252 76.169 122.94 76.169 122.94 82.988 131.599 82.988 131.599 85.05 122.94 85.05 122.94 95.08"/>
    <path d="M142.425853 77.85162C141.14284 79.38642 140.51429 81.64122 140.51429 84.64902 140.51429 87.63402 141.14284 89.86962 142.378847 91.33602 143.643179 92.82282 145.120241 93.57162 146.810034 93.57162 148.622765 93.57162 150.178772 92.80722 151.472633 91.31982 152.754441 89.80662 153.406493 87.63402 153.406493 84.75282 153.406493 81.69582 152.696588 79.32462 151.277379 77.60382 150.178772 76.25382 148.717981 75.58422 146.931766 75.58422 145.196776 75.58422 143.686569 76.34862 142.425853 77.85162M141.022915 92.82282C139.174026 90.75402 138.251992 88.06602 138.251992 84.79482 138.251992 82.71402 138.622614 80.79942 139.370486 79.02942 140.11655 77.25042 141.163932 75.93762 142.540957 75.07242 143.898094 74.20782 145.413122 73.78062 147.050486 73.78062 148.463066 73.78062 149.724384 74.09682 150.825401 74.71902 151.928226 75.34842 152.833989 76.16922 153.543895 77.17122 154.226682 78.16782 154.777492 79.32462 155.137868 80.59902 155.487397 81.87522 155.671202 83.21982 155.671202 84.67542 155.671202 86.24142 155.466305 87.63402 155.093876 88.81002 154.703367 89.98602 154.226682 90.98802 153.679488 91.76802 153.128678 92.56962 152.574252 93.20262 152.005363 93.65082 151.277379 94.27842 150.454177 94.72662 149.508038 95.02182 148.584196 95.31222 147.754365 95.47002 147.029394 95.47002 144.608 95.47002 142.60122 94.59282 141.022915 92.82282M164.60336 94.31178C163.379405 93.55038 162.558614 92.56998 162.103623 91.39938 161.64803 90.20178 161.41481 89.12118 161.41481 88.12098L161.41481 74.17098 163.442682 74.17098 163.442682 87.84978C163.442682 89.57418 163.933831 90.92418 164.915525 91.92618 165.900234 92.92338 167.79191 93.41358 169.4811 93.41358 170.800271 93.41358 172.457522 93.17958 173.30061 92.72778 174.126825 92.27958 174.75658 91.61178 175.169386 90.72918 175.582795 89.84898 175.779254 88.88898 175.779254 87.84978L175.779254 74.17098 177.848708 74.17098 177.848708 87.83238C177.848708 90.18078 177.1611 92.02338 175.805168 93.41358 174.423322 94.78998 172.039895 95.47038 169.740836 95.47038 167.890742 95.47038 165.805017 95.07978 164.60336 94.31178"/>
    <polygon points="199.717 95.08 186.981 75.995 186.981 95.08 184.958 95.08 184.958 74.171 188.104 74.171 199.672 91.253 199.672 74.171 201.683 74.171 201.683 95.08"/>
    <path d="M210.973409 93.21492L216.566478 93.21492C218.315932 93.21492 219.868324 92.64912 221.207382 91.53432 222.901394 90.12312 223.76678 87.83232 223.76678 84.61752 223.76678 81.36372 222.876685 79.01172 221.126629 77.58252 219.833974 76.50672 218.215895 75.97452 216.227797 75.97452L210.973409 75.97452 210.973409 93.21492M208.946742 95.07972L208.946742 74.17092 216.107872 74.17092C219.158418 74.17092 221.58403 75.07272 223.353371 76.87632 225.122712 78.70572 226.026667 81.20532 226.026667 84.41892 226.026667 86.06232 225.789831 87.59712 225.376422 88.96452 225.042561 90.00192 224.592994 90.90492 224.004218 91.65372 223.41484 92.41692 222.743503 93.04452 221.995028 93.55092 221.446629 93.89892 220.794576 94.22052 220.048512 94.47012 218.829981 94.88472 217.270358 95.07972 215.379887 95.07972L208.946742 95.07972M233.350991 86.55276L241.070162 86.55276 237.171706 75.54516 233.350991 86.55276 233.350991 86.55276zM244.041763 95.07996L241.736075 88.60956 232.657959 88.60956 230.222704 95.07996 228.155661 95.07996 235.55664 74.17056 238.803043 74.17056 246.107601 95.07996 244.041763 95.07996z"/>
    <polygon points="254.375 95.08 254.375 76.169 246.536 76.169 246.536 74.171 264.153 74.171 264.153 76.169 256.377 76.169 256.377 95.08"/>
    <polygon points="269.943 95.08 271.949 95.08 271.949 74.171 269.943 74.171"/>
    <path d="M282.620083,77.85162 C281.359367,79.38642 280.709725,81.64122 280.709725,84.64902 C280.709725,87.63402 281.334659,89.86962 282.595375,91.33602 C283.834998,92.82282 285.313266,93.57162 287.001853,93.57162 C288.813379,93.57162 290.369386,92.80722 291.669273,91.31982 C292.966147,89.80662 293.598313,87.63402 293.598313,84.75282 C293.598313,81.69582 292.890817,79.32462 291.493906,77.60382 C290.369386,76.25382 288.912211,75.58422 287.145883,75.58422 C285.392211,75.58422 283.89707,76.34862 282.620083,77.85162 M281.21835,92.82282 C279.368256,90.75402 278.442606,88.06602 278.442606,84.79482 C278.442606,82.71402 278.816844,80.79942 279.564716,79.02942 C280.318011,77.25042 281.376241,75.93762 282.732776,75.07242 C284.110403,74.20782 285.609763,73.78062 287.244716,73.78062 C288.658501,73.78062 289.935488,74.09682 291.01722,74.71902 C292.122456,75.34842 293.029424,76.16922 293.735714,77.17122 C294.44562,78.16782 294.975337,79.32462 295.330893,80.59902 C295.685243,81.87522 295.86061,83.21982 295.86061,84.67542 C295.86061,86.24142 295.685243,87.63402 295.292927,88.81002 C294.901213,89.98602 294.424527,90.98802 293.873718,91.76802 C293.340384,92.56962 292.770893,93.20262 292.220083,93.65082 C291.471608,94.27842 290.645996,94.72662 289.719744,95.02182 C288.798313,95.31222 287.966072,95.47002 287.220008,95.47002 C284.797409,95.47002 282.791834,94.59282 281.21835,92.82282"/>
    <polygon points="316.507 95.08 303.795 75.995 303.795 95.08 301.765 95.08 301.765 74.171 304.918 74.171 316.49 91.253 316.49 74.171 318.498 74.171 318.498 95.08"/>
  </g>
</svg>
