<svg xmlns="http://www.w3.org/2000/svg" width="124" height="124" viewBox="0 0 124 124">
  <g fill="#FFFFFF" fill-rule="evenodd">
    <polygon points="0 123.748 123.776 123.748 123.776 0 0 0" opacity=".1"/>
    <polygon points=".001 123.746 4.959 123.746 4.959 103.799 .001 103.799" opacity=".8"/>
    <polygon points="4.953 123.746 9.909 123.746 9.909 103.799 4.953 103.799"/>
    <polygon points="9.903 123.746 14.859 123.746 14.859 103.799 9.903 103.799" opacity=".7"/>
    <polygon points="14.854 123.746 19.809 123.746 19.809 103.799 14.854 103.799"/>
    <polygon points="19.805 123.746 24.762 123.746 24.762 103.799 19.805 103.799" opacity=".5"/>
    <polygon points="24.755 123.746 29.711 123.746 29.711 103.799 24.755 103.799" opacity=".9"/>
    <polygon points="29.707 123.746 34.663 123.746 34.663 103.799 29.707 103.799" opacity=".6"/>
    <polygon points="34.656 123.748 39.613 123.748 39.613 103.799 34.656 103.799"/>
    <polygon points="39.609 123.748 44.565 123.748 44.565 103.799 39.609 103.799" opacity=".75"/>
    <polygon points="44.558 123.748 49.516 123.748 49.516 103.799 44.558 103.799" opacity=".9"/>
    <polygon points="49.509 123.748 54.465 123.748 54.465 103.799 49.509 103.799" opacity=".6"/>
    <polygon points="54.461 123.748 59.418 123.748 59.418 103.799 54.461 103.799" opacity=".3"/>
    <polygon points="59.41 123.748 64.367 123.748 64.367 103.799 59.41 103.799" opacity=".6"/>
    <polygon points="64.363 123.748 69.319 123.748 69.319 103.799 64.363 103.799"/>
    <polygon points="69.313 123.746 74.269 123.746 74.269 103.799 69.313 103.799" opacity=".3"/>
    <polygon points="74.263 123.746 79.221 123.746 79.221 103.799 74.263 103.799" opacity=".75"/>
    <polygon points="79.214 123.746 84.171 123.746 84.171 103.799 79.214 103.799" opacity=".6"/>
    <polygon points="84.164 123.746 89.12 123.746 89.12 103.799 84.164 103.799"/>
    <polygon points="89.116 123.746 94.071 123.746 94.071 103.799 89.116 103.799" opacity=".9"/>
    <polygon points="94.067 123.748 99.023 123.748 99.023 103.799 94.067 103.799" opacity=".85"/>
    <polygon points="99.016 123.748 103.973 123.748 103.973 103.799 99.016 103.799" opacity=".7"/>
    <polygon points="103.969 123.748 108.924 123.748 108.924 103.799 103.969 103.799"/>
    <polygon points="108.918 123.748 113.874 123.748 113.874 103.799 108.918 103.799" opacity=".5"/>
    <polygon points="113.868 123.748 118.825 123.748 118.825 103.799 113.868 103.799"/>
    <polygon points="118.82 123.746 123.776 123.746 123.776 103.799 118.82 103.799"/>
    <path d="M19.0146337 30.1927461C21.1811506 30.1927461 22.9868135 30.8796225 24.428836 32.251982 25.8708584 33.6229483 26.591173 35.3436225 26.591173 37.4140045 26.591173 39.4816 25.8638921 41.1939146 24.4079371 42.5509483 22.9533753 43.9051955 21.1198472 44.5837124 18.9045663 44.5837124 16.7896 44.5837124 15.0285213 43.9051955 13.6199371 42.5509483 12.2113528 41.1939146 11.5077573 39.4955326 11.5077573 37.4530157 11.5077573 35.3589483 12.2155326 33.6229483 13.6352629 32.251982 15.0536 30.8796225 16.8467236 30.1927461 19.0146337 30.1927461M19.0954427 32.1015101C17.4890157 32.1015101 16.1696 32.6016899 15.1358022 33.6076225 14.1020045 34.6107685 13.5864989 35.8939596 13.5864989 37.4530157 13.5864989 38.9660944 14.104791 40.2256 15.1413753 41.2301393 16.1779596 42.2332854 17.4764764 42.7362517 19.0341393 42.7362517 20.5987685 42.7362517 21.9056449 42.2235326 22.951982 41.2008809 23.9997124 40.1754427 24.5221843 38.9006112 24.5221843 37.3722067 24.5221843 35.8869933 23.9997124 34.6372404 22.951982 33.6215551 21.9056449 32.6086562 20.6196674 32.1015101 19.0954427 32.1015101M28.5251551 49.1338157L28.5251551 35.1845124 31.7268629 35.1845124C33.3639416 35.1845124 34.6401663 35.5927371 35.5527506 36.4105798 36.4653348 37.2270292 36.9223236 38.3667146 36.9223236 39.8338157 36.9223236 41.2201079 36.4918067 42.3584 35.6321663 43.2472989 34.7739191 44.1389843 33.678818 44.5834337 32.3496494 44.5834337 31.7603011 44.5834337 31.1096494 44.4538607 30.3921213 44.1919281L30.3921213 49.1338157 28.5251551 49.1338157zM31.6878517 36.8898607L30.3921213 36.8898607 30.3921213 42.5757483C30.956391 42.8641528 31.5429528 43.0076584 32.1573798 43.0076584 33.0128404 43.0076584 33.7122562 42.7108944 34.2570202 42.1131865 34.8017843 41.5168719 35.0734697 40.751973 35.0734697 39.8129169 35.0734697 39.2110292 34.9438966 38.6788045 34.6875371 38.217636 34.4311775 37.7550742 34.0800764 37.4192989 33.635627 37.2075236 33.1925708 36.9971416 32.5419191 36.8898607 31.6878517 36.8898607L31.6878517 36.8898607zM46.4647506 39.9646427L39.9665933 39.9646427C40.013964 40.8479685 40.3093348 41.551564 40.8554921 42.074036 41.4002562 42.5951146 42.1052449 42.8570472 42.9704584 42.8570472 44.1742337 42.8570472 45.2860539 42.4822607 46.3031326 41.7312944L46.3031326 43.5202382C45.7416494 43.8950247 45.1843461 44.1625303 44.6326157 44.3227551 44.0808854 44.484373 43.431627 44.5637888 42.687627 44.5637888 41.6719416 44.5637888 40.8471326 44.3534067 40.218773 43.9312494 39.5890202 43.5090921 39.0846607 42.9434292 38.7070876 42.2286876 38.3281213 41.5167326 38.1386382 40.6905303 38.1386382 39.7542607 38.1386382 38.3470697 38.5371101 37.2045978 39.3340539 36.3240584 40.1309978 35.4421258 41.1647955 35.0018562 42.4368404 35.0018562 43.6615146 35.0018562 44.639582 35.432373 45.3710427 36.2878337 46.0997169 37.1460809 46.4647506 38.2941258 46.4647506 39.7333618L46.4647506 39.9646427zM40.0069978 38.8695416L44.6563011 38.8695416C44.6103236 38.1394742 44.391582 37.577991 44.0042562 37.1823056 43.6155371 36.7866202 43.0944584 36.5901708 42.4368404 36.5901708 41.7806157 36.5901708 41.2442112 36.7866202 40.8262337 37.1823056 40.4068629 37.577991 40.1337843 38.1394742 40.0069978 38.8695416L40.0069978 38.8695416zM50.0934921 35.1840944L50.0934921 36.3586112C50.9099416 35.4557798 51.8378517 35.0029708 52.8758292 35.0029708 53.4512449 35.0029708 53.9876494 35.1520494 54.4822562 35.4502067 54.9782562 35.7469708 55.354436 36.1565888 55.6121888 36.6762742 55.8699416 37.1945663 55.9995146 38.0151955 55.9995146 39.1409483L55.9995146 44.422791 54.1715596 44.422791 54.1715596 39.1604539C54.1715596 38.217218 54.0280539 37.5428809 53.7396494 37.1374427 53.4512449 36.7320045 52.9691775 36.529982 52.2920539 36.529982 51.429627 36.529982 50.696773 36.9618921 50.0934921 37.8257124L50.0934921 44.422791 48.2265258 44.422791 48.2265258 35.1840944 50.0934921 35.1840944zM19.7118202 59.0736L24.422427 59.0736 24.422427 65.0186337C22.6947865 65.7682067 20.9810787 66.1429933 19.2799101 66.1429933 16.9573483 66.1429933 15.1001348 65.4644764 13.7110562 64.108836 12.3219775 62.7545888 11.6267416 61.0812854 11.6267416 59.0917124 11.6267416 56.9976449 12.3470562 55.2532854 13.7876854 53.8614202 15.2269213 52.4681618 17.0297978 51.7715326 19.1991011 51.7715326 19.9904719 51.7715326 20.7400449 51.8565213 21.4492135 52.0278921 22.158382 52.1992629 23.0556404 52.5113528 24.1409888 52.9669483L24.1409888 55.0150382C22.4676854 54.0453303 20.8069213 53.5590831 19.1600899 53.5590831 17.6261124 53.5590831 16.3345618 54.0815551 15.2840449 55.1251056 14.2321348 56.1714427 13.7068764 57.4532404 13.7068764 58.9732854 13.7068764 60.5657798 14.2321348 61.8684764 15.2840449 62.8785888 16.3345618 63.8900944 17.6874157 64.3958472 19.3398202 64.3958472 20.1437303 64.3958472 21.1036854 64.2119371 22.2224719 63.8441169L22.4133483 63.7828135 22.4133483 60.8611506 19.7118202 60.8611506 19.7118202 59.0736zM31.2885438 56.7238697C32.6943416 56.7238697 33.8618921 57.1766787 34.7925888 58.0836899 35.7232854 58.9907011 36.1886337 60.1317798 36.1886337 61.5041393 36.1886337 62.8360944 35.7177124 63.9423416 34.7730831 64.8228809 33.8298472 65.7034202 32.6400045 66.1422966 31.2077348 66.1422966 29.822836 66.1422966 28.6636449 65.6964539 27.7329483 64.801982 26.8022517 63.9089034 26.3382966 62.7915101 26.3382966 61.453982 26.3382966 60.0997348 26.8078247 58.973982 27.7482742 58.0753303 28.6887236 57.1724989 29.8688135 56.7238697 31.2885438 56.7238697M31.1882292 58.3707011C30.3104764 58.3707011 29.5901618 58.6577124 29.0286787 59.2331281 28.4671955 59.8085438 28.1857573 60.5441843 28.1857573 61.4316899 28.1857573 62.316409 28.4727685 63.0381169 29.0481843 63.5968135 29.6236 64.1555101 30.3648135 64.4369483 31.2690382 64.4369483 32.1649034 64.4369483 32.9005438 64.1541169 33.473173 63.5870607 34.0458022 63.0213978 34.3314202 62.2969034 34.3314202 61.4135775 34.3314202 60.5358247 34.0332629 59.8085438 33.4369483 59.2331281 32.842027 58.6577124 32.0924539 58.3707011 31.1882292 58.3707011"/>
    <polygon points="43.134 56.743 45.117 56.743 41.034 66.143 40.417 66.143 36.239 56.743 38.24 56.743 40.732 62.427"/>
    <path d="M53.641982 61.5226697L47.1438247 61.5226697C47.1898022 62.4073888 47.4865663 63.109591 48.0327236 63.6320629 48.5774876 64.1545348 49.2824764 64.4150742 50.1462966 64.4150742 51.3514652 64.4150742 52.4632854 64.0402876 53.4817573 63.2921079L53.4817573 65.0782652C52.9188809 65.4530517 52.3615775 65.7219506 51.8084539 65.8821753 51.2567236 66.0424 50.6088584 66.123209 49.8648584 66.123209 48.8477798 66.123209 48.024364 65.9114337 47.3946112 65.4906697 46.7662517 65.0685124 46.2618921 64.5014562 45.8843191 63.7881079 45.5053528 63.0747596 45.3158697 62.2499506 45.3158697 61.3122876 45.3158697 59.9064899 45.7143416 58.7626247 46.5112854 57.8820854 47.306836 57.0029393 48.342027 56.5612764 49.6140719 56.5612764 50.8401393 56.5612764 51.8168135 56.9917933 52.5468809 57.8472539 53.2755551 58.7041079 53.641982 59.8535461 53.641982 61.2913888L53.641982 61.5226697zM47.1842292 60.4289618L51.8335326 60.4289618C51.7875551 59.6988944 51.5688135 59.136018 51.1814876 58.7417258 50.7941618 58.3460404 50.2702966 58.1481978 49.6140719 58.1481978 48.9592404 58.1481978 48.4214427 58.3460404 48.0020719 58.7417258 47.5840944 59.136018 47.3110157 59.6988944 47.1842292 60.4289618L47.1842292 60.4289618zM57.3257573 56.7429573L57.3257573 58.8621034 57.4260719 58.7004854C58.310791 57.2737888 59.1941169 56.5618337 60.0774427 56.5618337 60.7657124 56.5618337 61.4874202 56.9101483 62.2369933 57.6053843L61.2728584 59.2145978C60.6375326 58.6099236 60.046791 58.3089798 59.5048135 58.3089798 58.9154652 58.3089798 58.4055326 58.5918112 57.9736225 59.1532944 57.5417124 59.7147775 57.3257573 60.3821483 57.3257573 61.151227L57.3257573 65.9816539 55.4880494 65.9816539 55.4880494 56.7429573 57.3257573 56.7429573zM65.1139326 56.7429573L65.1139326 57.9174742C65.930382 57.0146427 66.8582921 56.5618337 67.8962697 56.5618337 68.4716854 56.5618337 69.0066966 56.7123056 69.5026966 57.0090697 69.9986966 57.307227 70.3748764 57.7154517 70.6326292 58.2351371 70.8889888 58.752036 71.0199551 59.5754517 71.0199551 60.7012045L71.0199551 65.9816539 69.1906067 65.9816539 69.1906067 60.7193169C69.1906067 59.7760809 69.0471011 59.1017438 68.7586966 58.6963056 68.4716854 58.2908674 67.989618 58.0888449 67.3124944 58.0888449 66.4500674 58.0888449 65.7172135 58.5207551 65.1139326 59.3845753L65.1139326 65.9816539 63.245573 65.9816539 63.245573 56.7429573 65.1139326 56.7429573zM80.8220854 59.2736719L80.8220854 65.980818 78.9843775 65.980818 78.9843775 60.8410876C78.9843775 59.8170427 78.8464449 59.1009079 78.5733663 58.6968629 78.2975011 58.2914247 77.8182202 58.088009 77.1355236 58.088009 76.755164 58.088009 76.4040629 58.174391 76.0877933 58.3499416 75.7687371 58.5227056 75.4050966 58.8334022 74.9968719 59.2736719L74.9968719 65.980818 73.1689169 65.980818 73.1689169 56.7435146 74.9968719 56.7435146 74.9968719 57.958436C75.9275685 57.0263461 76.8373663 56.562391 77.7276584 56.562391 78.8993888 56.562391 79.8064 57.1183011 80.4500854 58.2287281 81.4267596 57.1043685 82.4494112 56.5428854 83.5138607 56.5428854 84.4111191 56.5428854 85.1481528 56.8689079 85.7277483 57.5265258 86.3073438 58.1827506 86.5971416 59.1831101 86.5971416 60.5289978L86.5971416 65.980818 84.7691865 65.980818 84.7691865 60.5080989C84.7691865 59.7390202 84.6103551 59.1496719 84.2968719 58.7414472 83.9819955 58.3332225 83.5291865 58.1298067 82.9412315 58.1298067 82.1832989 58.1298067 81.4783101 58.5115596 80.8220854 59.2736719M96.6159236 61.5226697L90.1177663 61.5226697C90.1651371 62.4073888 90.4619011 63.109591 91.0066652 63.6320629 91.5528225 64.1545348 92.2578112 64.4150742 93.1202382 64.4150742 94.3254067 64.4150742 95.4386202 64.0402876 96.4556989 63.2921079L96.4556989 65.0782652C95.8928225 65.4530517 95.3369124 65.7219506 94.7837888 65.8821753 94.2306652 66.0424 93.5828 66.123209 92.8401933 66.123209 91.8231146 66.123209 90.9983056 65.9114337 90.3699461 65.4906697 89.7401933 65.0685124 89.2358337 64.5014562 88.8582607 63.7881079 88.4792944 63.0747596 88.2898112 62.2499506 88.2898112 61.3122876 88.2898112 59.9064899 88.6882831 58.7626247 89.485227 57.8820854 90.2821708 57.0029393 91.3159685 56.5612764 92.5894067 56.5612764 93.8140809 56.5612764 94.7921483 56.9917933 95.5222157 57.8472539 96.2508899 58.7041079 96.6159236 59.8535461 96.6159236 61.2913888L96.6159236 61.5226697zM90.159564 60.4289618L94.8088674 60.4289618C94.7614966 59.6988944 94.5427551 59.136018 94.1554292 58.7417258 93.7681034 58.3460404 93.2456315 58.1481978 92.5894067 58.1481978 91.933182 58.1481978 91.3953843 58.3460404 90.9774067 58.7417258 90.5594292 59.136018 90.2863506 59.6988944 90.159564 60.4289618L90.159564 60.4289618zM100.245362 56.7429573L100.245362 57.9174742C101.063204 57.0146427 101.989721 56.5618337 103.027699 56.5618337 103.603115 56.5618337 104.138126 56.7123056 104.634126 57.0090697 105.130126 57.307227 105.506306 57.7154517 105.764058 58.2351371 106.021811 58.752036 106.149991 59.5754517 106.149991 60.7012045L106.149991 65.9816539 104.323429 65.9816539 104.323429 60.7193169C104.323429 59.7760809 104.17853 59.1017438 103.890126 58.6963056 103.603115 58.2908674 103.121047 58.0888449 102.445317 58.0888449 101.581497 58.0888449 100.848643 58.5207551 100.245362 59.3845753L100.245362 65.9816539 98.3783955 65.9816539 98.3783955 56.7429573 100.245362 56.7429573zM107.070796 58.2089438L110.506571 54.8344719 110.506571 56.743236 113.428234 56.743236 113.428234 58.3886742 110.506571 58.3886742 110.506571 62.911191C110.506571 63.9672809 110.944054 64.4967191 111.821807 64.4967191 112.478031 64.4967191 113.169088 64.2779775 113.900548 63.8432809L113.900548 65.5514157C113.198346 65.9471011 112.430661 66.1421573 111.600279 66.1421573 110.764324 66.1421573 110.066301 65.8983371 109.511784 65.4093034 109.337627 65.2630112 109.192728 65.0972135 109.079874 64.9133034 108.965627 64.728 108.870885 64.4869663 108.794256 64.188809 108.717627 63.8920449 108.678616 63.3249888 108.678616 62.4876404L108.678616 58.3886742 107.070796 58.3886742 107.070796 58.2089438zM12.0183865 87.5421888L12.0183865 73.4911775 16.4670607 73.4911775C17.8073753 73.4911775 18.8746112 73.8534247 19.6715551 74.5751326 20.4684989 75.299627 20.8655775 76.2693348 20.8655775 77.488436 20.8655775 78.3062787 20.6621618 79.0279865 20.2539371 79.6591326 19.8457124 80.2874921 19.2870157 80.7430876 18.5764539 81.0287056 17.8672854 81.3143236 16.8502067 81.456436 15.5238247 81.456436L14.037218 81.456436 14.037218 87.5421888 12.0183865 87.5421888zM16.1159596 75.2801213L14.037218 75.2801213 14.037218 79.6674921 16.237173 79.6674921C17.0536225 79.6674921 17.6833753 79.4752225 18.1250382 79.0906831 18.5680944 78.7047506 18.7882292 78.1558067 18.7882292 77.4396719 18.7882292 76.000436 17.8979371 75.2801213 16.1159596 75.2801213L16.1159596 75.2801213zM28.0442022 81.9882427L28.0442022 85.9158382C28.0442022 86.2293213 28.1514831 86.3867596 28.3660449 86.3867596 28.587573 86.3867596 28.9317079 86.2223551 29.3998427 85.8949393L29.3998427 87.0095461C28.9860449 87.2784449 28.6516629 87.4595685 28.4022697 87.5570966 28.1500899 87.6532315 27.886764 87.7019955 27.6136854 87.7019955 26.8292809 87.7019955 26.3681124 87.3940854 26.2273933 86.7782652 25.4499551 87.3815461 24.6237528 87.6824899 23.746 87.6824899 23.1037079 87.6824899 22.5686966 87.4707146 22.1409663 87.0443775 21.7104494 86.6194337 21.4972809 86.0858157 21.4972809 85.4435236 21.4972809 84.8597483 21.7076629 84.3400629 22.1242472 83.8802876 22.5422247 83.4232989 23.1371461 83.0596584 23.907618 82.7907596L26.2468989 81.9882427 26.2468989 81.4950292C26.2468989 80.3846022 25.6909888 79.8286921 24.5805618 79.8286921 23.5829888 79.8286921 22.6118876 80.3441978 21.6672584 81.3766022L21.6672584 79.3758831C22.376427 78.5399281 23.3976854 78.1219506 24.7310337 78.1219506 25.7286067 78.1219506 26.5283371 78.3838831 27.1302247 78.9049618 27.3322472 79.0735461 27.5119775 79.2950742 27.6722022 79.5723326 27.832427 79.8509843 27.9369213 80.129636 27.9801124 80.4055011 28.0233034 80.6841528 28.0442022 81.2108045 28.0442022 81.9882427M26.2468989 85.7138157L26.2468989 82.9732764 25.0208315 83.4441978C24.3994382 83.6921978 23.9591685 83.941591 23.7014157 84.1923775 23.4436629 84.4445573 23.3154831 84.7566472 23.3154831 85.1314337 23.3154831 85.5145798 23.4366966 85.8238831 23.6819101 86.0649169 23.9243371 86.3059506 24.242 86.427164 24.6307191 86.427164 25.2117079 86.427164 25.7522921 86.1903101 26.2468989 85.7138157M32.5982067 78.3023775L32.5982067 80.4215236 32.6985213 80.2612989C33.5818472 78.8346022 34.465173 78.1226472 35.3484989 78.1226472 36.0381618 78.1226472 36.7584764 78.4695685 37.5094427 79.167591L36.5439146 80.7726247C35.9085888 80.1707371 35.3192404 79.8697933 34.7758697 79.8697933 34.1879146 79.8697933 33.677982 80.1512315 33.2446787 80.7127146 32.8127685 81.275591 32.5982067 81.9415685 32.5982067 82.7120404L32.5982067 87.5424674 30.7591056 87.5424674 30.7591056 78.3023775 32.5982067 78.3023775zM37.7127191 79.7690607L41.1471011 76.3931955 41.1471011 78.3019596 44.0701573 78.3019596 44.0701573 79.9501843 41.1471011 79.9501843 41.1471011 84.4713079C41.1471011 85.5273978 41.5859775 86.056836 42.4637303 86.056836 43.1199551 86.056836 43.8124045 85.8380944 44.5424719 85.4020045L44.5424719 87.1101393C43.8388764 87.5044315 43.0725843 87.7022742 42.2422022 87.7022742 41.4048539 87.7022742 40.7082247 87.4584539 40.1523146 86.968027 39.9795506 86.8231281 39.8360449 86.6559371 39.7217978 86.472027 39.6075506 86.2881169 39.512809 86.0470831 39.4361798 85.7489258 39.3581573 85.4521618 39.3205393 84.8837124 39.3205393 84.046364L39.3205393 79.9501843 37.7127191 79.9501843 37.7127191 79.7690607zM47.585209 78.3023775L47.585209 79.4768944C48.4030517 78.5726697 49.3295685 78.1226472 50.3675461 78.1226472 50.9429618 78.1226472 51.4793663 78.2703326 51.973973 78.5684899 52.4713663 78.8652539 52.8461528 79.2762652 53.1039056 79.793164 53.3630517 80.3128494 53.4912315 81.1348719 53.4912315 82.2592315L53.4912315 87.5424674 51.6632764 87.5424674 51.6632764 82.2787371C51.6632764 81.3355011 51.5183775 80.6597708 51.2313663 80.2557258 50.9429618 79.8502876 50.4622876 79.6482652 49.785164 79.6482652 48.9213438 79.6482652 48.1884899 80.078782 47.585209 80.9439955L47.585209 87.5424674 45.7182427 87.5424674 45.7182427 78.3023775 47.585209 78.3023775zM63.5314697 83.0827865L57.0333124 83.0827865C57.0820764 83.9661124 57.3760539 84.6697079 57.9222112 85.1907865 58.4683685 85.7146517 59.1733573 85.975191 60.0371775 85.975191 61.2409528 85.975191 62.3541663 85.6004045 63.3712449 84.8508315L63.3712449 86.6369888C62.8083685 87.0131685 62.2510652 87.2806742 61.6993348 87.4422921 61.1462112 87.6025169 60.4983461 87.6833258 59.7557393 87.6833258 58.7386607 87.6833258 57.9138517 87.4715506 57.2854921 87.0493933 56.6557393 86.627236 56.1513798 86.0601798 55.7738067 85.3468315 55.3948404 84.6348764 55.2053573 83.8100674 55.2053573 82.8710112 55.2053573 81.4652135 55.6038292 80.3227416 56.4021663 79.4422022 57.1977169 78.5616629 58.2315146 78.1213933 59.5049528 78.1213933 60.729627 78.1213933 61.7076944 78.5505169 62.4377618 79.4073708 63.166436 80.2642247 63.5314697 81.4108764 63.5314697 82.8528989L63.5314697 83.0827865zM57.0751101 81.9876854L61.7244135 81.9876854C61.6770427 81.2590112 61.4583011 80.6961348 61.0709753 80.3004494 60.6836494 79.9061573 60.1611775 79.7083146 59.5049528 79.7083146 58.8487281 79.7083146 58.3123236 79.9061573 57.8929528 80.3004494 57.4749753 80.6961348 57.2018966 81.2590112 57.0751101 81.9876854L57.0751101 81.9876854zM67.2159416 78.3023775L67.2159416 80.4215236 67.3162562 80.2612989C68.199582 78.8346022 69.0829079 78.1226472 69.967627 78.1226472 70.6558966 78.1226472 71.3776045 78.4695685 72.1271775 79.167591L71.1616494 80.7726247C70.5263236 80.1707371 69.9369753 79.8697933 69.3949978 79.8697933 68.8056494 79.8697933 68.2957169 80.1512315 67.8638067 80.7127146 67.4305034 81.275591 67.2159416 81.9415685 67.2159416 82.7120404L67.2159416 87.5424674 65.3768404 87.5424674 65.3768404 78.3023775 67.2159416 78.3023775zM72.7992854 86.8789978L72.7992854 84.9103236C73.3161843 85.2725708 73.842836 85.5651551 74.382027 85.7894697 74.9198247 86.0137843 75.3754202 86.1266382 75.7432404 86.1266382 76.1249933 86.1266382 76.452409 86.0318966 76.7268809 85.8438067 77.0013528 85.6585034 77.1392854 85.4327955 77.1392854 85.1708629 77.1392854 84.9047506 77.0487236 84.680436 76.8717798 84.5034921 76.694836 84.3265483 76.3102966 84.0701888 75.7223416 83.7344135 74.5436449 83.079582 73.7717798 82.5194921 73.4081393 82.0527506 73.0431056 81.5887955 72.8605888 81.0802562 72.8605888 80.5313124 72.8605888 79.8221438 73.1378472 79.2425483 73.6895775 78.7953124 74.2413079 78.3452899 74.9532629 78.1223685 75.8226562 78.1223685 76.7268809 78.1223685 77.6533978 78.3759416 78.6049933 78.8844809L78.6049933 80.6929303C77.5196449 80.0367056 76.6335326 79.7078966 75.9438697 79.7078966 75.5885888 79.7078966 75.3015775 79.7845258 75.0856225 79.9349978 74.8682742 80.0854697 74.7582067 80.2860989 74.7582067 80.5327056 74.7582067 80.7486607 74.8571281 80.9520764 75.0549708 81.1457393 75.2514202 81.3407955 75.5969483 81.5748629 76.0929483 81.8493348L76.7463865 82.2213348C78.2859371 83.0907281 79.056409 84.0562562 79.056409 85.1123461 79.056409 85.8674921 78.7610382 86.4902787 78.1689034 86.9751326 77.5753753 87.4599865 76.8132629 87.7024135 75.8825663 87.7024135 75.3336225 87.7024135 74.8445888 87.6438966 74.4168584 87.5254697 73.9891281 87.4098292 73.4499371 87.1938742 72.7992854 86.8789978M80.7961708 73.5123551L82.6241258 73.5123551 82.6241258 79.5172989C83.3876315 78.5879955 84.3364404 78.1226472 85.466373 78.1226472 86.0835865 78.1226472 86.6339236 78.2759056 87.1229573 78.5838157 87.6133843 78.8917258 87.9756315 79.3166697 88.2124854 79.8600404 88.4507326 80.4006247 88.5705528 81.2073213 88.5705528 82.2787371L88.5705528 87.5424674 86.7412045 87.5424674 86.7412045 81.8287146C86.7412045 81.151591 86.5754067 80.606827 86.2452045 80.1944225 85.9122157 79.782018 85.4761258 79.577209 84.9355416 79.577209 84.5314966 79.577209 84.1539236 79.6817034 83.800036 79.8892989 83.4447551 80.0955011 83.0518562 80.4410292 82.6241258 80.9217034L82.6241258 87.5424674 80.7961708 87.5424674 80.7961708 73.5123551zM91.6748719 74.4151865C91.9758157 74.4151865 92.2321753 74.5196809 92.4467371 74.7272764 92.6612989 74.9348719 92.7685798 75.1898382 92.7685798 75.4893888 92.7685798 75.7861528 92.6612989 76.0397258 92.4467371 76.2542876 92.2321753 76.4688494 91.9758157 76.5747371 91.6748719 76.5747371 91.3920404 76.5747371 91.1454337 76.4660629 90.9308719 76.2487146 90.7177034 76.0313663 90.6104225 75.7791865 90.6104225 75.4893888 90.6104225 75.2079506 90.7177034 74.9599506 90.9308719 74.741209 91.1454337 74.5238607 91.3920404 74.4151865 91.6748719 74.4151865L91.6748719 74.4151865zM90.7706472 87.5424674L92.5986022 87.5424674 92.5986022 78.3023775 90.7706472 78.3023775 90.7706472 87.5424674zM94.8021798 92.2519596L94.8021798 78.3026562 98.0011011 78.3026562C99.639573 78.3026562 100.915798 78.7108809 101.828382 79.5287236 102.740966 80.3437798 103.197955 81.4862517 103.197955 82.9519596 103.197955 84.3382517 102.767438 85.4765438 101.909191 86.366836 101.050944 87.2585213 99.9558427 87.7015775 98.6252809 87.7015775 98.0373258 87.7015775 97.3852809 87.5720045 96.6705393 87.3114652L96.6705393 92.2519596 94.8021798 92.2519596zM97.9620899 80.0093978L96.6705393 80.0093978 96.6705393 85.6924989C97.2306292 85.9822966 97.8185843 86.1271955 98.4344045 86.1271955 99.2884719 86.1271955 99.9878876 85.8276449 100.532652 85.2313303 101.077416 84.636409 101.350494 83.8687236 101.350494 82.9324539 101.350494 82.3277798 101.220921 81.7969483 100.964562 81.3357798 100.706809 80.873218 100.357101 80.5374427 99.9126517 80.3256674 99.466809 80.1152854 98.8175506 80.0093978 97.9620899 80.0093978L97.9620899 80.0093978z"/>
  </g>
</svg>
