<svg width="300" height="57" xmlns="http://www.w3.org/2000/svg"><g fill="#FFF" fill-rule="evenodd"><path d="M223.73 22.102l-2.344-1.158c-1.512-.756-2.51-1.342-2.991-1.762a4.3 4.3 0 0 1-1.142-1.564c-.283-.621-.414-1.31-.414-2.068 0-1.232.376-2.236 1.14-3.022.76-.783 1.803-1.175 3.127-1.175.921 0 1.907.176 2.975.534 1.066.358 1.856.726 2.372 1.11l1.152-3.511c-1.227-1.066-3.415-1.598-6.571-1.598-2.369 0-4.304.73-5.808 2.194-1.504 1.462-2.255 3.304-2.255 5.523 0 1.827.384 3.39 1.152 4.693.77 1.297 2.129 2.423 4.086 3.367l2.304 1.119c2.064 1.016 3.355 1.956 3.866 2.816.513.86.765 1.792.765 2.796 0 1.342-.46 2.446-1.382 3.313-.924.868-2.148 1.303-3.672 1.303-.85 0-1.817-.184-2.904-.555-1.083-.368-1.99-.832-2.716-1.382l-1.437 3.719c1.789 1.237 3.95 1.856 6.482 1.856 2.879 0 5.186-.778 6.91-2.331 1.722-1.558 2.585-3.452 2.585-5.69 0-2.052-.394-3.75-1.185-5.085-.788-1.334-2.155-2.478-4.095-3.442M252.78 15.513c-1.176 0-2.323.272-3.447.813-1.12.542-1.891 1.216-2.306 2.025-1.184-1.892-3.254-2.838-6.208-2.838-2.127 0-3.895.965-5.31 2.894l-1.223-2.49h-2.384v21.419h3.652V21.53c.35-.713.938-1.36 1.763-1.95.83-.588 1.61-.885 2.343-.885 1.26 0 2.271.304 3.04.91.766.61 1.151 1.438 1.151 2.492v15.238h3.655V21.48c.282-.723.812-1.363 1.586-1.931.778-.569 1.618-.853 2.515-.853 2.838 0 4.253 1.689 4.253 5.066v13.574h3.65V23.012c0-2.373-.583-4.215-1.762-5.529-1.173-1.314-2.831-1.97-4.968-1.97M265.801 7.888c-.66 0-1.215.227-1.667.687a2.278 2.278 0 0 0-.68 1.667c0 .658.23 1.219.688 1.684.465.462 1.015.695 1.66.695.667 0 1.23-.233 1.693-.695a2.298 2.298 0 0 0 .69-1.684 2.27 2.27 0 0 0-.69-1.66 2.302 2.302 0 0 0-1.694-.694M263.984 19.204h-.005v18.132h3.68V16.039h-3.675zM276.167 30.975V7.362h-3.774v24.27c0 4.329 2.454 6.492 7.362 6.492v-3.429c-1.067 0-1.93-.335-2.592-.997-.666-.665-.996-1.57-.996-2.723M284.664 24.35c.137-1.531.737-2.816 1.803-3.85 1.128-1.086 2.524-1.629 4.187-1.629 1.773 0 3.176.557 4.205 1.669.93 1.019 1.399 2.289 1.399 3.81h-11.594zm15.285.465c0-2.72-.82-4.903-2.452-6.547-1.69-1.715-4.026-2.57-7.009-2.57-2.57 0-4.792.953-6.667 2.851-2.095 2.13-3.141 4.954-3.141 8.479 0 3.39 1.019 6.087 3.054 8.095 1.835 1.823 4.067 2.731 6.697 2.731 1.823 0 3.471-.28 4.954-.84 1.173-.428 2.045-.938 2.63-1.527l-1.556-2.709c-1.414 1.268-3.179 1.903-5.291 1.903-1.855 0-3.38-.586-4.565-1.764-1.334-1.348-1.998-3.28-1.998-5.796h15.062c.186-.701.282-1.47.282-2.306zM17.302 31.339c-1.372 2.098-3.366 3.149-5.988 3.149-2.302 0-4.09-1.143-5.362-3.435-1.272-2.292-1.906-5.14-1.906-8.553 0-3.552.616-6.351 1.854-8.414 1.238-2.056 3.043-3.088 5.414-3.088 5.362 0 8.043 3.833 8.043 11.502 0 3.79-.685 6.738-2.055 8.839M11.314 7.362c-3.469 0-6.219 1.444-8.256 4.337C1.018 14.598 0 18.197 0 22.5c0 4.574.998 8.32 3 11.243 1.995 2.926 4.77 4.382 8.314 4.382 3.89 0 6.876-1.38 8.96-4.146 2.084-2.769 3.127-6.594 3.127-11.478 0-4.763-1.04-8.479-3.117-11.144-2.077-2.664-5.069-3.994-8.97-3.994M33.905 34.565c-.716 0-1.45-.159-2.2-.49-.753-.326-1.247-.67-1.475-1.032v-12.52c.43-.471 1.023-.89 1.776-1.266.753-.373 1.393-.561 1.92-.561 2.395 0 4.138.63 5.227 1.888 1.09 1.255 1.635 3.241 1.635 5.956 0 5.35-2.294 8.025-6.883 8.025m1.398-19.052c-1.983 0-3.672.72-5.073 2.165v-1.76h-3.674v29.831h3.674v-9.577c.282.414.927.777 1.93 1.1 1.002.32 1.948.481 2.837.481 3.141 0 5.542-1.032 7.204-3.092 1.664-2.062 2.497-4.723 2.497-7.98 0-3.658-.828-6.436-2.477-8.331-1.65-1.893-3.954-2.837-6.918-2.837M49.716 24.24c.136-1.545.736-2.84 1.8-3.883 1.12-1.099 2.508-1.644 4.167-1.644 1.769 0 3.164.56 4.19 1.683.928 1.025 1.395 2.31 1.395 3.844H49.716zm5.802-8.727c-2.557 0-4.77.958-6.64 2.875-2.084 2.149-3.129 4.995-3.129 8.553 0 3.418 1.013 6.14 3.043 8.163 1.826 1.84 4.05 2.758 6.669 2.758 1.815 0 3.46-.284 4.937-.85 1.169-.43 2.04-.942 2.619-1.536l-1.55-2.735c-1.407 1.28-3.163 1.92-5.27 1.92-1.85 0-3.366-.592-4.547-1.78-1.329-1.362-1.993-3.311-1.993-5.846H64.66a9.187 9.187 0 0 0 .282-2.329c0-2.742-.815-4.943-2.443-6.604-1.682-1.727-4.008-2.59-6.982-2.59zM71.535 19.33v-3.413h-3.7v21.419h3.7v-12.28c0-1.755.492-3.252 1.481-4.495.987-1.245 2.135-1.867 3.447-1.867.822 0 1.635.286 2.432.86l1.56-3.686c-1.257-.24-2.216-.355-2.877-.355-2.676 0-4.691 1.27-6.043 3.818M92.535 32.096c-1.425 1.826-3.056 2.74-4.895 2.74-2.53 0-3.795-1.114-3.795-3.342 0-1.347.581-2.515 1.746-3.503 1.168-.986 2.676-1.481 4.528-1.481.464 0 1.27.14 2.416.406v5.18zm3.65.059v-7.727c0-3.1-.674-5.362-2.023-6.781-1.35-1.422-3.52-2.134-6.508-2.134-1.103 0-2.266.21-3.49.633-1.222.421-2.18.926-2.867 1.52l1.533 3.199c1.221-1.282 2.975-1.92 5.26-1.92 2.964 0 4.445 1.747 4.445 5.241-.973-.355-1.844-.527-2.614-.527-2.838 0-5.168.751-6.99 2.262-1.823 1.503-2.738 3.35-2.738 5.532 0 1.823.593 3.346 1.778 4.573 1.185 1.224 2.583 1.836 4.192 1.836 3.024 0 5.266-.952 6.733-2.851.319 1.015.846 1.747 1.587 2.185.738.444 1.847.666 3.326.666v-1.917c-1.084-.634-1.624-1.895-1.624-3.79zM109.464 34.902c-1.344 0-2.318-.385-2.93-1.157-.607-.769-.912-2.066-.912-3.885V19.077h5.875V16.03h-5.875V9.991l-3.778 1.486v4.553h-2.457v3.047h2.457v12.306c0 1.94.584 3.553 1.752 4.829 1.168 1.275 2.595 1.912 4.28 1.912 1.88 0 3.609-.203 5.183-.605l-.561-3.382c-1.039.509-2.05.765-3.034.765M117.51 7.888a2.25 2.25 0 0 0-1.667.687 2.269 2.269 0 0 0-.68 1.667c0 .658.23 1.221.692 1.684.46.462 1.01.695 1.654.695.668 0 1.235-.233 1.695-.695.46-.463.69-1.026.69-1.684 0-.64-.23-1.195-.69-1.66a2.302 2.302 0 0 0-1.695-.694M115.162 19.202v18.134h3.681V16.039h-3.68zM135.347 32.554c-.966 1.441-2.295 2.163-3.995 2.163-3.656 0-5.483-2.693-5.483-8.08 0-2.488.494-4.44 1.485-5.859.988-1.416 2.322-2.121 3.998-2.121 3.626 0 5.441 2.659 5.441 7.98 0 2.502-.482 4.47-1.446 5.917m-3.995-17.041c-2.814 0-5.075 1.022-6.785 3.065-1.715 2.048-2.569 4.73-2.569 8.06 0 3.435.822 6.165 2.466 8.185 1.647 2.028 3.942 3.039 6.888 3.039 2.862 0 5.133-1 6.804-3.007 1.673-2.005 2.51-4.743 2.51-8.217 0-3.487-.817-6.217-2.451-8.18-1.632-1.962-3.92-2.945-6.863-2.945M152.468 15.513c-2.78 0-4.777 1.053-5.99 3.163l-1.179-2.759h-2.53v21.419h3.688v-15.94c.488-.757 1.194-1.401 2.126-1.92.926-.52 1.82-.78 2.676-.78 1.57 0 2.696.456 3.37 1.37.678.917 1.015 2.514 1.015 4.796v12.474h3.69V24.073c0-5.71-2.285-8.56-6.866-8.56M211.284 39.658c-6.14 8.493-14.241 12.775-23.837 12.954-10.97.203-20.658-5.42-26.01-13.962 5.342 10.658 16.03 17.837 28.213 17.611 10.67-.198 19.96-6.042 25.424-14.777a89.622 89.622 0 0 1-3.497-1.755l-.293-.071z"/><path d="M169.202 17.578c2.521.82 4.897 1.261 7.122 1.4a32.685 32.685 0 0 0-.21 3.677c0 3.145.44 6.228 1.22 9.144a27.9 27.9 0 0 1-7.428-1.852c-.107-.36-.234-.706-.326-1.081-1.01-4.114-1.101-7.908-.378-11.288M182.2 42.426a16.84 16.84 0 0 1-1.46-.431c-4.21-1.48-7.492-4.479-9.54-8.636 1.99.814 4.36 1.42 7.126 1.577 1.015 2.745 2.335 5.278 3.874 7.49m-2.902-23.428c6.496-.355 11.535-3.19 14.968-5.974 1.69 3.196 2.64 6.914 3.274 11.841.694 5.323-.164 10.736-1.206 14.861a17.102 17.102 0 0 1-12.061 3.088 50.422 50.422 0 0 1-2.951-7.89c4.49-.275 9.85-1.715 16.138-5.156l-.452-1.037c-5.847 2.232-11.356 3.316-16.424 3.272a55.977 55.977 0 0 1-1.286-13.005M166.09 30.372c1.77 6.23 4.383 8.87 6.95 10.784l.015.01c9.822 6.887 18.779 2.872 22.818.277-.934 3.245-1.864 5.354-1.881 5.4.007-.012.977.484.977.484 4.28-7.817 6.43-15.006 6.43-21.49 0-.153-.017-.3-.02-.452l.592.886c.015-.013.028-.03.043-.04l.005.003c.014-.01.106-.09.174-.15 1.901-1.263 3.49-3.127 4.66-5.356.006.21.023.414.023.627 0 4.916-1.78 10.44-4.425 13.404 0 0-.012.015-.012.018l.815.77.01-.01c.104-.125 10.697-12.75 4.73-25.044-5.988-12.35-20.344-9.242-20.49-9.21l.163 1.123c9.26-.461 16.131 4.604 18.416 13.171-.694 6.213-4.398 9.465-4.708 9.725-.055-3.09-.59-6.024-1.636-8.778a25.022 25.022 0 0 0-3.065-5.673c1.89-1.894 2.886-3.385 2.923-3.439l-.828-.746a41.373 41.373 0 0 1-3.211 2.735C189.979 2.664 182.39.031 182.293 0l-.057.21c5.414 3.574 8.546 7.376 10.91 10.918-4.28 2.774-8.864 4.407-13.724 4.922.26-3.738.818-6.318 1.009-7.117.057-.118.097-.238.152-.356l-.93-.608-.134.2-.05.077s-.052.189-.08.306a31.485 31.485 0 0 0-2.62 7.67c-2.29.052-4.638-.14-7.047-.574 1.882-5.764 6.391-10.1 13.225-12.317l-.33-1.1s-.008.006-.01.006h-.003c-.085.027-1.23.385-2.906 1.158-.353.159-.689.323-1.022.492-3.674 1.842-8.972 5.362-11.756 11.16a47.26 47.26 0 0 1-2.779-.792s-.077.27-.157.542l-.233.51a38.3 38.3 0 0 0 2.545 1.182 19.251 19.251 0 0 0-1.253 6.902c0 1.34.142 2.762.41 4.253a27.866 27.866 0 0 1-1.774-1.25l-.664.89s.094.08.142.125c.139.196 1.1 1.496 2.933 2.963"/></g></svg>