<svg width="244" height="36" xmlns="http://www.w3.org/2000/svg"><g fill="#FFF" fill-rule="nonzero"><path d="M7.813 17.186h6.383c.923 0 1.717-.399 2.382-1.198.668-.796 1-1.962 1-3.495 0-.8-.103-1.484-.309-2.059a4.219 4.219 0 0 0-.833-1.436 3.203 3.203 0 0 0-1.191-.84 3.602 3.602 0 0 0-1.334-.262H7.813v9.29zM0 35V1h14.435c1.62 0 3.105.335 4.454 1.006a11.455 11.455 0 0 1 3.48 2.633 12.644 12.644 0 0 1 2.286 3.688c.544 1.32.827 2.736.833 4.166 0 1.5-.263 2.937-.786 4.31a12.344 12.344 0 0 1-2.191 3.687 10.325 10.325 0 0 1-3.408 2.586c-1.334.639-2.81.957-4.428.957H7.813V35H0zm44.734-18.58c-1.843.031-3.5.334-4.978.91-1.476.573-2.564 1.436-3.264 2.586V35H28.87V9.86h7.004v5.075c.888-1.69 2.007-3.01 3.357-3.95 1.351-.942 2.788-1.445 4.311-1.51.636 0 1.03.016 1.191.05v6.895zm27.918 11.684V35H48.877V1h23.345v6.896H56.69v6.608h13.34v6.369H56.69v7.231h15.96zm12.671-10.918h6.385c.921 0 1.715-.399 2.382-1.198.668-.796 1-1.962 1-3.495 0-.8-.104-1.484-.31-2.059a4.219 4.219 0 0 0-.834-1.436 3.203 3.203 0 0 0-1.191-.84 3.602 3.602 0 0 0-1.334-.262h-6.098v9.29zM77.51 35V1h14.437c1.62 0 3.104.335 4.454 1.006a11.455 11.455 0 0 1 3.478 2.633 12.644 12.644 0 0 1 2.286 3.688c.545 1.32.829 2.736.835 4.166 0 1.5-.263 2.937-.786 4.31a12.344 12.344 0 0 1-2.192 3.687 10.325 10.325 0 0 1-3.407 2.586c-1.334.639-2.811.957-4.429.957h-6.864V35H77.51h.001z"/><path d="M122.482 1.216h3.22l4.805 12.259 4.85-12.26h3.17l-5.956 14.741 6.535 15.616L151.456.973h3.652l-14.414 34.54h-2.98l-7.16-17.076-7.207 17.076h-2.98L106 .973h3.555l12.398 30.599 6.488-15.616-5.96-14.74zm39.785 32.255c1.441 0 2.875-.318 4.3-.949 1.425-.633 2.554-1.501 3.387-2.604.224-.291.417-.607.577-.948.16-.339.24-.657.24-.949v-4.134a19.8 19.8 0 0 0-3.411-.974 18.546 18.546 0 0 0-3.46-.339c-2.339 0-4.236.479-5.694 1.434-1.458.957-2.185 2.28-2.185 3.964 0 .682.127 1.347.385 1.996a5.017 5.017 0 0 0 1.175 1.751c.565.542 1.226.97 1.947 1.264.769.325 1.681.488 2.739.488zM161.45 36c-1.283 0-2.452-.203-3.51-.609a8.139 8.139 0 0 1-2.713-1.678 7.621 7.621 0 0 1-1.754-2.481 7.245 7.245 0 0 1-.624-2.967c0-1.168.256-2.228.769-3.186a7.308 7.308 0 0 1 2.161-2.458c.93-.68 2.044-1.206 3.34-1.582 1.297-.37 2.73-.56 4.3-.56 1.25 0 2.53.116 3.844.343 1.313.226 2.484.552 3.508.972v-2.287c0-2.237-.633-4.014-1.898-5.327-1.266-1.314-2.971-1.97-5.117-1.97-1.345 0-2.683.26-4.013.778-1.329.52-2.683 1.264-4.059 2.238l-1.153-2.19c1.633-1.102 3.218-1.929 4.756-2.48a14.139 14.139 0 0 1 4.805-.829c3.043 0 5.461.893 7.255 2.677 1.795 1.784 2.692 4.25 2.692 7.395V31.23c0 .908.385 1.361 1.154 1.361v2.92c-.432.054-.865.087-1.3.098a2.878 2.878 0 0 1-1.752-.586c-.53-.387-.826-.972-.89-1.75l-.096-1.995c-1.089 1.493-2.522 2.652-4.3 3.479-1.777.826-3.58 1.24-5.405 1.24V36zm31.473-1.703c-.192.097-.473.228-.84.39-.937.406-1.91.716-2.907.925-.61.13-1.25.194-1.923.194a6.904 6.904 0 0 1-2.018-.292 4.687 4.687 0 0 1-1.68-.9 4.417 4.417 0 0 1-1.156-1.533c-.287-.615-.431-1.33-.431-2.14V12.795h-3.46v-2.628h3.46V1.607h3.267v8.56h5.766v2.628h-5.766v17.221c.065.941.385 1.629.96 2.068.578.438 1.266.657 2.067.657.93 0 1.745-.154 2.451-.463.703-.307 1.153-.526 1.345-.656l.865 2.675zm1.969-11.53c0-1.784.304-3.47.914-5.058a12.646 12.646 0 0 1 2.568-4.16 12.01 12.01 0 0 1 3.963-2.797c1.539-.68 3.237-1.023 5.094-1.023 2.37 0 4.437.546 6.2 1.631a10.444 10.444 0 0 1 3.988 4.402l-3.173 1.022a7.732 7.732 0 0 0-2.93-3.042c-1.249-.73-2.642-1.093-4.181-1.093-1.281 0-2.473.26-3.578.778a9.122 9.122 0 0 0-2.884 2.117 9.741 9.741 0 0 0-1.922 3.186c-.465 1.232-.696 2.58-.696 4.037 0 1.427.238 2.773.718 4.037.483 1.265 1.139 2.361 1.972 3.285a9.38 9.38 0 0 0 2.907 2.19 7.987 7.987 0 0 0 3.532.8c.8 0 1.594-.11 2.38-.338a9.06 9.06 0 0 0 2.184-.949 7.903 7.903 0 0 0 1.73-1.388c.48-.518.816-1.07 1.008-1.652l3.172.972a8.3 8.3 0 0 1-1.537 2.505 10.677 10.677 0 0 1-2.379 1.996 11.57 11.57 0 0 1-3.026 1.312c-1.12.311-2.276.467-3.437.463-1.825 0-3.507-.35-5.044-1.045a12.26 12.26 0 0 1-3.99-2.872 13.342 13.342 0 0 1-2.617-4.21 13.851 13.851 0 0 1-.937-5.107l.001.001zM244 35.514h-3.269V21.357c0-2.886-.488-5.043-1.464-6.47-.978-1.428-2.412-2.14-4.302-2.14a7.258 7.258 0 0 0-2.762.559c-.926.38-1.792.897-2.571 1.532a10.482 10.482 0 0 0-2.09 2.287 9.72 9.72 0 0 0-1.321 2.87v15.519h-3.27V0h3.268v15.908c1.027-1.913 2.42-3.422 4.182-4.524 1.76-1.101 3.652-1.655 5.669-1.655 1.442 0 2.667.268 3.677.804a6.563 6.563 0 0 1 2.451 2.237c.624.958 1.078 2.11 1.368 3.453.289 1.348.433 2.832.433 4.453v14.838H244z" opacity=".518"/></g></svg>