<svg width="293" height="83" xmlns="http://www.w3.org/2000/svg"><g fill="#FFF" fill-rule="nonzero"><path d="M292.997 14.751a.89.89 0 0 0-.09-.413h-.677c-1.475 0-2.42.063-5.077.063-.908 0-2.269-.063-2.597-.063h-.768c-.09.063-.121.382-.121.497a.767.767 0 0 0 .15.497c1.046.156 2.067.44 3.04.848.559.897.855 1.93.857 2.983.027.434.057.874.057 2.073v6.104c.004.419-.015.838-.057 1.256-.502-.556-1.21-1.602-2.39-2.921l-9.862-10.808a2.041 2.041 0 0 0-.439-.382c-.237 0-.65-.027-.883-.027-1.894 0-5.315-.088-5.817-.088a1.095 1.095 0 0 0-.12.408c.018.187.048.372.088.556.837.133 1.612.52 2.216 1.11a9.998 9.998 0 0 1 1.56 1.842c.099.302.14.62.122.937 0 1.518-.09 3.648-.09 5.688v5.932a12.76 12.76 0 0 1-.173 2.218 6.21 6.21 0 0 1-3.1 1.497 1.583 1.583 0 0 0-.116.524c0 .088.028.382.085.413h.561c.593 0 1.951-.088 2.834-.088 1.301 0 2.184.088 3.396.088h1.77c.117-.031.152-.382.152-.497a1.357 1.357 0 0 0-.09-.471 5.673 5.673 0 0 1-3.543-1.812 16.38 16.38 0 0 1-.38-3.62c0-.932-.033-2.221-.033-3.942 0-2.313.032-4.33.058-5.35.18.204.385.466.534.644L287.69 35.61c.142.15.678.173.824.173a.723.723 0 0 0 .354-.057c.178-.416.268-.863.265-1.315 0-.842-.032-1.721-.032-2.161V20.064c0-3.654 1.746-4.68 3.781-4.763.081-.174.121-.364.117-.556m-33.828 9.282c0 4.417-1.238 8.302-2.92 9.673a4.819 4.819 0 0 1-3.13 1.048 4.428 4.428 0 0 1-3.923-1.958 15.404 15.404 0 0 1-1.746-7.594c0-4.061 1.06-7.244 2.951-8.793a4.742 4.742 0 0 1 3.073-1.141 4.93 4.93 0 0 1 4.014 2.015 11.172 11.172 0 0 1 1.682 6.747m5.34.56c.17-3.779-1.874-7.317-5.25-9.087A11.505 11.505 0 0 0 253.65 14c-4.026.047-7.76 2.086-9.947 5.433a11.088 11.088 0 0 0-1.707 5.904 10.828 10.828 0 0 0 4.22 8.558 11.157 11.157 0 0 0 6.731 2.103 12.331 12.331 0 0 0 4.484-.847c1.57-.59 2.977-1.54 4.103-2.774a11.22 11.22 0 0 0 2.978-7.8m-25.947-3.67v-5.956c0-.44-.173-.556-.618-.556-.888 0-5.548.115-10.27.115-3.664 0-6.704-.056-8.354-.056h-2.19c-.381 0-.497.083-.497.497v5.579a.85.85 0 0 0 .47.115c.218.01.437-.01.65-.057a9.858 9.858 0 0 1 4.135-4.878c.883-.089 2.623-.116 3.093-.116.032.32.064 1.348.09 2.57.031 2.096.031 3.01.031 7.972 0 4.298-.032 6.229-.09 6.695-.116.815.033 1.43-3.511 1.574a1.662 1.662 0 0 0-.09.671c-.004.158.006.316.033.472h1.147c1.095 0 3.659-.12 4.728-.12.852 0 3.601.088 5.4.088h.824c.073-.195.104-.404.089-.612a1.086 1.086 0 0 0-.116-.524 6.171 6.171 0 0 1-3.04-.555 8.882 8.882 0 0 1-.27-2.194c-.027-3.157-.057-4.354-.057-6.459 0-2.717.032-4.554.032-9.61.413 0 1.36-.032 2.241 0a5.754 5.754 0 0 1 3.512 2.218c.654.995 1.18 2.067 1.57 3.19.163.043.333.06.502.052.193-.002.383-.04.561-.115m-25.442 9.495a6.284 6.284 0 0 0-.032-.842.664.664 0 0 0-.444-.089c-.219-.01-.437.01-.65.057a11.136 11.136 0 0 1-3.248 4.47 4.61 4.61 0 0 1-2.215.319h-2.42c-.652.01-1.304-.04-1.947-.15-.444-.084-.907-.784-1.12-1.25a3.042 3.042 0 0 1-.329-1.842v-6.399h1.095a4.729 4.729 0 0 1 1.799.414 2.668 2.668 0 0 1 1.328 1.224 9.9 9.9 0 0 1 .502 2.424c.247.088.509.127.771.115.206.011.41-.038.587-.142 0-.79-.18-2.92-.18-4.093 0-1.46.206-3.476.302-4.528a1.292 1.292 0 0 0-.586-.116 2.175 2.175 0 0 0-.767.089c-.09.402-.418 1.633-.477 1.721a3.544 3.544 0 0 1-2.004 1.518c-.56.142-1.135.221-1.713.235h-.625V20.82c0-2.801.058-3.707.085-4.235.032-.35.09-.728.12-.99.589-.065 1.18-.086 1.772-.063 1.707 0 2.506.032 2.77.032a3.32 3.32 0 0 1 1.894.587 12.292 12.292 0 0 1 2.83 3.622c.205.046.415.066.625.057.173 0 .205-.057.444-.178 0-1.78-.12-4.088-.18-4.82-.032-.3-.089-.377-.677-.377-.238 0-1.362-.057-2.538-.057-1.682 0-2.364.027-4.934.027-1.385 0-4.251.031-5.462.031-1.767 0-3.273-.057-4.04-.057h-1.004c-.09.14-.143.3-.152.466.004.202.056.401.152.58a15.19 15.19 0 0 1 2.158.325 2.39 2.39 0 0 1 1.059 1.9c.063.612.089 2.308.089 3.654v6.015c0 1.23-.027 3.009-.058 3.743a8.334 8.334 0 0 1-.646 2.773c-.854.3-1.754.448-2.66.44a1.676 1.676 0 0 0-.151.644c.004.185.056.365.151.524h.973c.946 0 4.426-.088 5.225-.088.74 0 2.158.057 3.866.057.947 0 3.723.178 9.68.178.267.023.536.004.798-.057a.864.864 0 0 0 .116-.472c.064-.58.064-2.308.064-4.673m-24.97 1.025a.984.984 0 0 0-1.004-.7c-.064 0-.152.027-.206.027a6.984 6.984 0 0 1-5.94 3.417c-2.587.013-4.933-1.505-5.96-3.856a15.81 15.81 0 0 1-.907-5.313c-.06-1.746.241-3.486.883-5.113 1.3-3.387 3.19-4.445 5.495-4.445a6.055 6.055 0 0 1 4.721 2.633c.675 1.1 1.18 2.293 1.502 3.54.213.05.431.078.65.083.255-.026.499-.116.708-.262-.025-.325-.322-2.57-.322-3.27 0-.88.233-2.31.233-2.865a2.42 2.42 0 0 0-1.148-.324 6.032 6.032 0 0 0-1.004 1.197 9.801 9.801 0 0 0-6.552-2.073 10.153 10.153 0 0 0-7.41 2.889 11.047 11.047 0 0 0-3.157 8.233 10.644 10.644 0 0 0 4.162 8.737 11.828 11.828 0 0 0 6.88 1.962 9.194 9.194 0 0 0 7.562-3.13c.337-.419.616-.88.83-1.371M165.187 14.75a.95.95 0 0 0-.089-.413h-.682c-1.475 0-2.42.063-5.077.063-.908 0-2.269-.063-2.597-.063h-.767c-.089.063-.12.382-.12.497a.743.743 0 0 0 .15.497c1.046.157 2.067.442 3.042.848.554.898.848 1.93.851 2.983.032.434.064.874.064 2.073v6.104c.006.42-.016.839-.064 1.256-.497-.556-1.21-1.602-2.39-2.921l-9.851-10.808a2.048 2.048 0 0 0-.445-.382c-.237 0-.65-.027-.883-.027-1.893 0-5.315-.088-5.817-.088a1.084 1.084 0 0 0-.116.408c.018.187.046.372.085.556.837.133 1.61.52 2.215 1.11a9.828 9.828 0 0 1 1.566 1.842c.097.302.136.62.116.937 0 1.518-.085 3.648-.085 5.688v5.932a12.66 12.66 0 0 1-.18 2.218 6.21 6.21 0 0 1-3.099 1.497 1.732 1.732 0 0 0-.116.524c0 .088.027.382.085.413h.56c.594 0 1.952-.088 2.835-.088 1.3 0 2.184.088 3.395.088h1.767c.116-.031.151-.382.151-.497a1.351 1.351 0 0 0-.09-.471 5.662 5.662 0 0 1-3.537-1.812 16.717 16.717 0 0 1-.38-3.62c0-.932-.032-2.221-.032-3.942 0-2.313.031-4.33.057-5.35.18.204.386.466.534.644l13.633 15.163c.255.127.539.186.824.173a.704.704 0 0 0 .354-.057c.178-.416.268-.863.265-1.315 0-.842-.032-1.721-.032-2.161V20.064c0-3.654 1.745-4.68 3.78-4.763.083-.174.125-.364.122-.556m-29.19 20.246a1.895 1.895 0 0 0-.089-.587 20.692 20.692 0 0 1-2.184-.262 4.594 4.594 0 0 1-1.004-2.246 440.618 440.618 0 0 1-.058-7.008v-7.186a2.271 2.271 0 0 1 .534-1.575 5.067 5.067 0 0 1 2.629-.759 1.86 1.86 0 0 0 .085-.555.858.858 0 0 0-.152-.472h-.856c-1.237 0-4.13.15-5.142.15-.618 0-3.512-.084-4.812-.115h-.646a.708.708 0 0 0-.151.497c.005.186.024.372.057.555a6.287 6.287 0 0 1 2.3.409 3.21 3.21 0 0 1 .979 2.486c.027.556.053 1.753.085 4.439.031 1.46.057 3.507.057 5.197 0 .848-.057 2.749-.09 3.774a4.993 4.993 0 0 1-.406 1.753c-.354.288-.714.816-2.874.963a2.224 2.224 0 0 0-.089.612c0 .235.058.35.058.497h.502c1.184 0 4.135-.15 5.668-.15.445 0 3.512.089 4.485.089h.989a1.16 1.16 0 0 0 .116-.497m-23.669-15.26a4.549 4.549 0 0 1-2.682 4.24c-.794.172-1.606.25-2.42.23a7.347 7.347 0 0 1-1.094-.056l-.032-2.486V16.29a.93.93 0 0 1 .18-.643 3.054 3.054 0 0 1 1.243-.172c2.3 0 3.305.203 4.13 1.58.469.818.703 1.746.678 2.686m8.562 15.284a1.42 1.42 0 0 0-.151-.618 4.614 4.614 0 0 1-1.947-.377 6.415 6.415 0 0 1-.502-.732 31.184 31.184 0 0 0-1.269-3.361 11.032 11.032 0 0 0-2.184-3.476 9.122 9.122 0 0 0-2.216-.963 43.04 43.04 0 0 1-1.21-.471c.4-.081.804-.139 1.21-.172a5.276 5.276 0 0 0 3.248-1.084 4.583 4.583 0 0 0 1.83-3.795 5.611 5.611 0 0 0-3.692-5.317 14.531 14.531 0 0 0-3.538-.325c-2.215 0-5.314.203-6.789.203-.445 0-3.014-.056-4.046-.056-.444 0-1.565-.057-1.739-.057a1.699 1.699 0 0 0-.151.555c.003.177.023.354.057.528.502.057 1.417.173 1.888.262.562.391.993.94 1.237 1.575.188 2.48.248 4.968.18 7.454 0 2.977.032 6.428-.117 7.537a2.243 2.243 0 0 1-1.21 1.958c-.556.096-1.118.164-1.681.204a1.41 1.41 0 0 0-.151.58c.017.162.056.32.116.472.417 0 4.933-.088 5.876-.088 1.887 0 3.478.088 5.166.088.065-.139.105-.288.117-.44a1.755 1.755 0 0 0-.117-.612c-.593-.057-1.328-.235-1.655-.3a2.194 2.194 0 0 1-1.268-2.073l-.022-6.744c.255-.022.511-.031.767-.027a2.973 2.973 0 0 1 1.561.466 5.629 5.629 0 0 1 2.337 2.13 17.678 17.678 0 0 1 1.855 6.287c.09.612.323 1.136.888 1.198.233.031 1.798.088 2.92.088h4.225a.79.79 0 0 0 .174-.492M88.826 19.886a4.777 4.777 0 0 1-1.502 3.654 4.878 4.878 0 0 1-3.072.785 9.704 9.704 0 0 1-1.269-.057c-.237-.026-.385-.057-.385-.204l.031-8.558c.567-.089 1.14-.139 1.714-.15 2.004 0 3.247.497 3.834 1.722a6.17 6.17 0 0 1 .65 2.805m5.283.115a5.59 5.59 0 0 0-3.155-5.079 14.89 14.89 0 0 0-5.283-.67c-2.268 0-5.816.172-7.377.172-1.103.001-2.753-.119-3.674-.119-.086.142-.138.301-.151.466-.012.2.018.4.09.587.56.172 1.474.319 2.067.465.468.436.75 1.03.792 1.665.09 1.025.151 2.308.151 4.528 0 6.166-.027 9.412-.116 10.112a2.495 2.495 0 0 1-1.682 2.074c-.565.13-1.137.23-1.713.3a3.356 3.356 0 0 0-.058.611.83.83 0 0 0 .085.41c.947 0 3.723-.116 4.785-.116 2.629 0 5.315.115 6.404.115h.74a.813.813 0 0 0 .09-.465 1.357 1.357 0 0 0-.064-.529 4.825 4.825 0 0 1-2.77-.931 2.482 2.482 0 0 1-.593-1.728l-.09-6.422c1.772.116 3.66.173 4.689.173 1.16 0 2.315-.176 3.421-.524a5.364 5.364 0 0 0 3.395-5.09M293 47.405c0-.174-.116-.233-.174-.354-1.207 0-2.796.09-3.419.09-1.498 0-3.32-.122-4.121-.122-.09.18-.12.212-.12.36 0 .12.021.24.063.354.854.174 2.09.38 2.327.792.193.352.284.751.264 1.152.012.374-.049.746-.18 1.095-.264.735-.822 1.887-1.615 3.511-1.358 2.744-2.21 4.452-2.686 5.141-.765-1.3-2.468-4.72-2.88-5.604l-1.653-3.6a2.763 2.763 0 0 1-.116-.798c-.013-.261.027-.522.116-.767.264-.534 1.177-.593 2.415-.74.053-.143.082-.293.084-.445 0-.206-.084-.152-.173-.29h-.528c-1.979 0-1.389.084-4.775.084-1.441 0-3.182-.085-3.413-.085-.121.206-.18.233-.18.439a.606.606 0 0 0 .12.354c1.962.476 2.566.824 2.765 1.21l5.155 10.13c.39.702.708 1.443.945 2.21.206 1.17.286 2.358.237 3.544.102.87-.256 1.729-.945 2.268-.774.195-1.563.324-2.359.385a.713.713 0 0 0-.15.413c.01.122.04.241.089.354 1.509 0 3.066-.032 3.946-.032.617 0 1.561.032 3.297.058 1.002.031 1.767.063 2.295.063a.85.85 0 0 0 .15-.385.653.653 0 0 0-.12-.386 7.014 7.014 0 0 1-2.565-.593 2.27 2.27 0 0 1-.77-1.882l-.232-4.43a1.733 1.733 0 0 1 .116-.708c.081-.284.189-.56.321-.824l4.538-9.005a6.1 6.1 0 0 1 1.883-1.965 8.084 8.084 0 0 1 1.915-.593c.064-.12.104-.25.116-.386m-23.79 6.08V47.76c0-.445-.18-.561-.624-.561-.881 0-4.95.116-9.657.116-3.652 0-6.095-.057-7.746-.057h-2.18c-.38 0-.5.09-.5.502v5.34a.524.524 0 0 0 .353.122c.12.01.242-.01.353-.058 1.15-2.57 1.735-3.931 3.715-4.932.881-.085 3.973-.117 4.443-.117.031.328.063 1.361.089 2.597.031 2.124.031 3.278.031 8.295 0 4.335-.031 6.582-.089 7.052-.116.824.032 1.444-3.504 1.59a.951.951 0 0 0-.089.503c-.005.119.006.238.032.354h1.145c1.093 0 2.533-.117 3.593-.117.855 0 2.475.09 4.274.09h.822a.794.794 0 0 0 .09-.445.657.657 0 0 0-.121-.413 6.111 6.111 0 0 1-3.033-.561 9.114 9.114 0 0 1-.265-2.215c-.027-3.188-.057-4.688-.057-6.815 0-2.744.032-4.839.032-9.945.412 0 2.59-.032 3.47 0a5.293 5.293 0 0 1 3.32 2.241 9.402 9.402 0 0 1 1.325 3.215c.143.047.294.067.444.057a.567.567 0 0 0 .327-.116M244.71 68.058a.966.966 0 0 0-.089-.413c-.73-.05-1.458-.138-2.179-.264a4.668 4.668 0 0 1-1.002-2.269 494.966 494.966 0 0 1-.057-7.375v-7.499a2.368 2.368 0 0 1 .528-1.59 5.025 5.025 0 0 1 2.623-.773.909.909 0 0 0 .09-.381.495.495 0 0 0-.15-.354h-.85c-1.24 0-3.008.151-4.01.151-.617 0-2.384-.089-3.682-.116h-.648a.431.431 0 0 0-.142.38c.006.131.025.26.057.386a6.195 6.195 0 0 1 2.295.413 3.262 3.262 0 0 1 .977 2.512c.027.555.052 2.062.084 4.78.032 1.475.057 3.477.057 5.192 0 .856-.057 3.066-.089 4.102a5.057 5.057 0 0 1-.406 1.77c-.359.303-.712.825-2.86.973a1.212 1.212 0 0 0-.088.445c0 .237.057.237.057.38h.501c1.182 0 3.008-.142 4.538-.142.443 0 2.384.085 3.36.085h.966a.712.712 0 0 0 .122-.385m-14.551-5.43a5.476 5.476 0 0 0-3.329-5.193 16.051 16.051 0 0 0-3.265-1.18 21.69 21.69 0 0 1-4.274-1.623 3.552 3.552 0 0 1-1.735-3.22 3.901 3.901 0 0 1 4.153-3.451 4.943 4.943 0 0 1 4.036 2.067 14.999 14.999 0 0 1 1.826 3.363c.332.139.715.044.945-.233-.13-.882-.21-1.77-.237-2.66.031-.772.121-1.541.268-2.3a.905.905 0 0 0-.885-.413c-.426.304-.812.66-1.15 1.059a7.366 7.366 0 0 0-5.007-1.834 5.756 5.756 0 0 0-4.32 1.478 5.78 5.78 0 0 0-1.891 4.163 5.953 5.953 0 0 0 1.086 3.247 6.39 6.39 0 0 0 2.867 2.151c.85.354 4.678 1.512 5.208 1.713 2.358.908 3.244 1.714 3.244 3.808a4.62 4.62 0 0 1-1.297 2.982 4.114 4.114 0 0 1-3.272 1.385 6.591 6.591 0 0 1-4.95-2.184 13.995 13.995 0 0 1-1.999-3.986 1.101 1.101 0 0 0-.412-.053c-.2 0-.395.061-.56.174 0 .386.116 2.332.116 2.919-.012.886-.12 1.769-.321 2.632.19.35.548.572.945.587.417-.417.919-.74 1.47-.947.255.024.498.117.703.27a8.53 8.53 0 0 0 4.922 1.474c4.153 0 7.122-2.1 7.122-6.2m-26.05-10.184a4.77 4.77 0 0 1-3.233 4.399 16.387 16.387 0 0 1-3.065.233c-.353 0-1.358 0-1.799-.058l-.027-2.596v-5.572c0-.385.09-.592.205-.682a9.925 9.925 0 0 1 2.059-.174c2.77 0 4.036.265 5.038 1.708.555.804.843 1.764.823 2.742m6.186 15.64a.781.781 0 0 0-.143-.445 4.58 4.58 0 0 1-1.947-.38 7.247 7.247 0 0 1-.5-.742 37.065 37.065 0 0 0-1.235-3.685c-.5-1.298-1.24-2.49-2.179-3.515a8.25 8.25 0 0 0-2.122-.972c-.469-.18-.854-.323-1.207-.47a11.43 11.43 0 0 1 1.207-.18 5.4 5.4 0 0 0 3.124-1.09 4.706 4.706 0 0 0 1.942-3.805 5.635 5.635 0 0 0-3.682-5.345 14.436 14.436 0 0 0-3.535-.322c-2.207 0-3.857.205-5.33.205-.438 0-1.883-.057-2.913-.057-.443 0-1.561-.058-1.741-.058-.084.206-.15.265-.15.381.004.14.026.278.062.413.497.064 1.41.18 1.884.27.562.393.992.947 1.234 1.59.151.946.18 3.6.18 7.761 0 3.008.027 6.788-.121 7.91a2.24 2.24 0 0 1-1.207 1.978c-.556.097-1.116.166-1.678.205a.787.787 0 0 0-.151.413c.02.124.061.244.122.354.412 0 3.798-.09 4.738-.09 1.89 0 2.359.09 4.037.09a.737.737 0 0 0 .12-.322.89.89 0 0 0-.12-.445c-.586-.057-1.325-.237-1.65-.29a2.228 2.228 0 0 1-1.262-2.099l-.032-7.376c.237-.031 1.086-.031 1.325-.031a5.423 5.423 0 0 1 2.352.413 6.63 6.63 0 0 1 2.892 2.389 18.643 18.643 0 0 1 1.857 6.433c.085.619.322 1.153.881 1.21.567.073 1.139.102 1.71.09h3.06a.505.505 0 0 0 .174-.386m-24.709-4.484a7.76 7.76 0 0 0-.027-.855.655.655 0 0 0-.443-.09.904.904 0 0 0-.385.058 7.788 7.788 0 0 1-3.035 4.515 5.496 5.496 0 0 1-2.5.328H175.9a13.864 13.864 0 0 1-1.947-.151c-.437-.09-.905-.799-1.113-1.269a3.848 3.848 0 0 1-.328-2.035V57.38h.945a5.811 5.811 0 0 1 2.5.413 3.525 3.525 0 0 1 1.588 1.269c.24.795.38 1.617.416 2.448a.72.72 0 0 0 .47.12.702.702 0 0 0 .469-.15c0-.799-.174-2.95-.174-4.134 0-1.475.206-3.273.29-4.336a.753.753 0 0 0-.47-.116.88.88 0 0 0-.468.085c-.09.412-.328 1.654-.38 1.745a4.287 4.287 0 0 1-2.264 1.565 9.65 9.65 0 0 1-2.415.232h-.469v-2.89c0-2.833.057-3.98.085-4.514.031-.354.089-.735.12-1.004.264-.027 1.119-.058 2.475-.058 1.704 0 2.971.032 3.24.032.672 0 1.33.205 1.883.587a7.519 7.519 0 0 1 2.623 3.664.87.87 0 0 0 .353.052c.173 0 .205-.052.438-.173a69.5 69.5 0 0 0-.174-4.573c-.032-.302-.089-.385-.68-.385-.233 0-1.359-.058-2.528-.058-1.683 0-2.359.032-4.923.032-1.382 0-3.825.027-5.034.027-1.767 0-2.153-.057-2.918-.057h-1.002a.605.605 0 0 0-.15.353.69.69 0 0 0 .15.413 14.87 14.87 0 0 1 2.153.328c.412.354.793.445 1.057 1.856.057.624.089 2.628.089 3.985v6.08c0 1.237-.032 3.279-.064 4.013a8.785 8.785 0 0 1-.649 2.861 7.682 7.682 0 0 1-2.648.445.98.98 0 0 0-.15.476.674.674 0 0 0 .15.407h.97c.945 0 3.304-.085 4.094-.085.74 0 1.736.058 3.445.058.945 0 3.71.18 9.658.18.267.021.536 0 .797-.064a.86.86 0 0 0 .116-.47c.057-.587.057-2.035.057-4.426M163.8 47.495c0-.116-.031-.302-.15-.322h-1.003c-.706 0-1.825.058-2.326.058-2.386 0-3.24-.151-3.593-.151h-.528c-.064.15-.151.232-.151.38 0 .117.063.206.063.329.69.079 1.37.226 2.031.438.468.507.732 1.17.74 1.862a11.144 11.144 0 0 1-.713 2.685l-4.738 11.684-5.825-14.782c.055-.67.41-1.278.966-1.654a13.13 13.13 0 0 1 1.915-.233c.065-.13.104-.27.116-.413 0-.121-.027-.302-.15-.328h-.739c-.905 0-2.289.12-3.85.12-.677 0-2-.063-3.298-.063h-1.15a.671.671 0 0 0-.027.714 10 10 0 0 1 2.475 1 52.25 52.25 0 0 1 2.414 5.37l2.437 5.897c2.031 4.901 3.24 8.18 3.388 8.74.151.09 0 .174.264.174s.237-.057.302-.206l7.598-18.296a5.834 5.834 0 0 1 1.056-1.681 4.716 4.716 0 0 1 2.353-.947c.06-.12.1-.248.122-.38m-25.797 20.563a.89.89 0 0 0-.089-.412c-.73-.05-1.458-.138-2.179-.265a4.715 4.715 0 0 1-1.002-2.268 475.025 475.025 0 0 1-.057-7.376v-7.494a2.31 2.31 0 0 1 .533-1.59 5.004 5.004 0 0 1 2.616-.773.836.836 0 0 0 .09-.381.495.495 0 0 0-.152-.354h-.855c-1.235 0-3.002.151-4.005.151-.617 0-2.384-.089-3.677-.116h-.65a.418.418 0 0 0-.15.38c.006.131.025.26.057.386a6.227 6.227 0 0 1 2.295.413 3.262 3.262 0 0 1 .977 2.512c.027.555.057 2.062.084 4.78.032 1.475.063 3.477.063 5.192 0 .856-.063 3.066-.089 4.102a4.93 4.93 0 0 1-.416 1.77c-.349.303-.702.825-2.855.973a1.212 1.212 0 0 0-.09.445c0 .237.064.237.064.38h.497c1.181 0 3.007-.142 4.537-.142.444 0 2.385.085 3.356.085h.977a.7.7 0 0 0 .116-.385M124.685 47.44a.504.504 0 0 0-.089-.302h-.676c-1.47 0-2.121.057-4.77.057-.917 0-2.263-.057-2.59-.057h-.763c-.084.057-.116.264-.116.385a.38.38 0 0 0 .151.322c1.043.158 2.062.445 3.033.856.555.906.85 1.947.854 3.009.027.445.058.888.058 2.099v8.768c.004.424-.015.847-.058 1.269-.5-.561-1.358-1.65-2.506-3.008l-11.25-13.17a1.95 1.95 0 0 0-.443-.38c-.237 0-.529-.032-.766-.032-1.883 0-3.534-.085-4.036-.085a.557.557 0 0 0-.085.29c.007.13.024.259.053.386a5.09 5.09 0 0 1 2.274.824 8.754 8.754 0 0 1 1.441 1.745c.1.303.14.622.121.94 0 1.54-.089 4.335-.089 6.408v6.281c.006.751-.055 1.501-.18 2.241a6.122 6.122 0 0 1-3.091 1.512.874.874 0 0 0-.117.354c0 .09.027.265.085.303h.56c.591 0 1.946-.085 2.834-.085 1.293 0 1.878.085 3.085.085h1.774c.116-.032.143-.265.143-.386a.55.55 0 0 0-.09-.302 5.643 5.643 0 0 1-3.529-1.824 17.445 17.445 0 0 1-.384-3.723c0-.94-.032-2.48-.032-4.218 0-2.332.032-5.547.063-6.582.174.205.444.533.645.766l13.96 16.385c.152.144.206.174.36.174s.053 0 .174-.057c.115-.433.166-.88.15-1.328 0-.856-.031-1.745-.031-2.19V52.63c0-3.685 1.741-4.72 3.772-4.805a.707.707 0 0 0 .117-.386m-27.273.142a.615.615 0 0 0-.15-.381h-.85c-.918 0-2.154.058-3.213.058-1.177 0-2.5-.058-3.36-.058h-1.057a.72.72 0 0 0-.12.381c.004.133.034.264.089.386.12 0 2.263.031 2.648.56a7.228 7.228 0 0 1 1.15 2.184c.17 1.075.247 2.162.234 3.25 0 2.511 0 4.192-.032 5.075a15.836 15.836 0 0 1-.533 3.932 5.378 5.378 0 0 1-5.767 3.837 8.142 8.142 0 0 1-3.451-.748 4.976 4.976 0 0 1-2.855-3.723l-.151-8.85-.026-3.6c0-.677.85-1.3 1.145-1.654a14.007 14.007 0 0 1 2.264-.29.89.89 0 0 0 .15-.413.516.516 0 0 0-.204-.386l-1.119.032a163.15 163.15 0 0 1-3.445.057c-1.414 0-2.506-.031-3.387-.031h-1.235a.507.507 0 0 0-.15.412.47.47 0 0 0 .122.354c.938.121 1.555.206 1.973.303.482.302.846.761 1.03 1.3.031.381.089 1.328.089 3.175v7.084a18.12 18.12 0 0 0 .301 3.954 5.832 5.832 0 0 0 2.566 3.63 9.634 9.634 0 0 0 5.391 1.416c1.765.043 3.51-.373 5.066-1.21a6.047 6.047 0 0 0 2.913-3.93c.312-1.145.472-2.326.475-3.512v-5.658c0-1.059.057-2.39.057-2.918a5.942 5.942 0 0 1 .886-3.247 11.773 11.773 0 0 1 2.443-.413.724.724 0 0 0 .116-.36M24.97 18.104c-.2.003-.379.092-.463.229l-.976 1.643a.227.227 0 0 1-.077.024c-.03 0-.064-.024-.088-.076a12.968 12.968 0 0 0-.396-.735l-.313-.537a4.52 4.52 0 0 0-.23-.37.516.516 0 0 0-.408-.18.06.06 0 0 1-.019-.048.078.078 0 0 1 .012-.048h.164c.183 0 .339.007.474.007.136 0 .427-.012.605-.012h.106c.017 0 .024.032.024.043a.101.101 0 0 1-.012.054c-.118.009-.384 0-.384.128 0 .038.008.075.024.11l.64 1.158.533-.955a.476.476 0 0 0 .07-.258c0-.107-.099-.155-.366-.18a.142.142 0 0 1-.017-.044.154.154 0 0 1 .017-.057h.076c.118 0 .237.012.508.012.047 0 .23-.007.32-.007h.182a.08.08 0 0 1 .024.043.104.104 0 0 1-.03.056zM27.892 20c-.595 0-.917-.016-.999-.016h-.282c-.082 0-.273.013-.482.013h-.118a.078.078 0 0 1-.01-.043.253.253 0 0 1 0-.058.694.694 0 0 0 .3-.065c.05-.094.071-.2.064-.306v-.297V18.348c0-.22-.109-.22-.33-.245a.301.301 0 0 1-.01-.053c0-.012 0-.043.018-.05h.75c.34 0 .673.007.744.007h.204c.046 0 .064 0 .064.046l.027.454c-.027.013-.032.018-.054.018a.134.134 0 0 1-.046 0 .921.921 0 0 0-.295-.346.33.33 0 0 0-.172-.05h-.26c-.13 0-.204 0-.222.006-.019.007-.019 0-.028.077 0 .049-.009.132-.009.396v.265h.068a.95.95 0 0 0 .222-.022.365.365 0 0 0 .2-.143.837.837 0 0 0 .045-.167.119.119 0 0 1 .064-.013c.018 0 .035.005.05.016 0 .08-.019.234-.019.427 0 .096.01.31.01.397a.07.07 0 0 1-.055.016.216.216 0 0 1-.055-.007c-.018-.17-.045-.287-.186-.347a.522.522 0 0 0-.218-.042 1.23 1.23 0 0 0-.13.01v.528a.66.66 0 0 0 .028.236c.014.034.058.104.118.111.06.01.12.015.182.013h.282c.075 0 .149-.016.218-.046.137-.114.244-.261.313-.427a.128.128 0 0 1 .059-.012c.02 0 .04.006.058.014v.53c-.003.048-.04.055-.108.055zM29.947 18.636c-.013 0-.031 0-.055-.007a1.295 1.295 0 0 0-.146-.296.47.47 0 0 0-.365-.194h-.192v1.486c0 .234.104.234.342.264a.117.117 0 0 1 .018.058.099.099 0 0 1-.013.049h-.087c-.13 0-.411-.01-.498-.01-.058 0-.36.014-.502.014a.067.067 0 0 1-.018-.053.133.133 0 0 1 .014-.053c.315-.024.347-.083.356-.185.01-.065.01-.328.01-.596v-.734a1.226 1.226 0 0 0-.019-.242 1.49 1.49 0 0 0-.305.022.796.796 0 0 0-.392.438.129.129 0 0 1-.05.007.055.055 0 0 1-.045-.021v-.513c0-.046 0-.058.059-.058H28.989c.475 0 .826-.012.914-.012.046 0 .077 0 .095.016a.379.379 0 0 1 0 .074v.513a.055.055 0 0 1-.05.033zM24.946 22.633c-.019 0-.033 0-.059-.007a1 1 0 0 0-.145-.296.46.46 0 0 0-.364-.195h-.19v1.488c0 .234.108.234.345.264.01.018.014.038.013.059a.093.093 0 0 1-.01.049h-.08c-.14 0-.413-.01-.495-.01-.058 0-.358.015-.504.015a.087.087 0 0 1-.013-.053.252.252 0 0 1 .01-.053c.312-.024.345-.083.358-.185v-1.327a1.299 1.299 0 0 0-.013-.244 1.516 1.516 0 0 0-.31.02.789.789 0 0 0-.389.44.16.16 0 0 1-.055.007.06.06 0 0 1-.045-.021v-.514c0-.046.01-.058.058-.058H23.988c.468 0 .823-.012.91-.012.049 0 .081 0 .096.016.014.016 0 .046 0 .074v.514a.06.06 0 0 1-.048.029zM27.881 24c-.589 0-.913-.016-.99-.016h-.285c-.077 0-.272.015-.475.015h-.118a.082.082 0 0 1-.013-.044.136.136 0 0 1 .01-.058.633.633 0 0 0 .293-.065c.036-.04.054-.125.063-.307 0-.093.01-.195.01-.3v-.563-.313c0-.22-.105-.22-.327-.246a.142.142 0 0 1-.012-.053c0-.012.009-.043.021-.05h.743c.344 0 .669.007.746.007h.2c.049 0 .067 0 .067.046l.022.455a.084.084 0 0 1-.055.019.17.17 0 0 1-.045 0 .843.843 0 0 0-.293-.348.306.306 0 0 0-.167-.05h-.267c-.13 0-.203 0-.217.006-.014.007-.023 0-.032.077v.663h.063a.874.874 0 0 0 .221-.024.375.375 0 0 0 .203-.143.858.858 0 0 0 .04-.167.143.143 0 0 1 .064-.014.08.08 0 0 1 .054.015c0 .081-.022.235-.022.429 0 .097.013.31.013.398a.075.075 0 0 1-.054.016.253.253 0 0 1-.059-.007c-.018-.171-.041-.288-.185-.347a.506.506 0 0 0-.212-.043 1.28 1.28 0 0 0-.129.01v.53a.856.856 0 0 0 .022.236c.018.034.063.105.118.111.06.01.12.016.18.015h.285a.516.516 0 0 0 .209-.033c.14-.113.248-.26.316-.429a.133.133 0 0 1 .113.001v.531c-.01.033-.041.04-.119.04zM29.063 23.997a1.991 1.991 0 0 1-.614-.114.38.38 0 0 0-.098-.015.62.62 0 0 0-.197.073.203.203 0 0 1-.154-.057c0-.04.05-.158.05-.233 0-.044-.018-.251-.025-.308a.169.169 0 0 1 .115-.039.264.264 0 0 1 .044 0c.056.077.167.285.246.368.149.122.362.194.589.2a.755.755 0 0 0 .43-.092c.099-.055.154-.142.147-.232a.207.207 0 0 0-.074-.17.675.675 0 0 0-.275-.141c-.116-.04-.526-.112-.675-.17a1.1 1.1 0 0 1-.369-.188.477.477 0 0 1-.154-.345c.003-.15.092-.292.247-.393.154-.101.36-.151.568-.14.225-.01.448.034.632.127.047-.039.098-.075.152-.109.057-.004.111.016.14.05a1.655 1.655 0 0 0-.042.26c0 .05.043.251.043.281a.333.333 0 0 1-.104.027.264.264 0 0 1-.049-.009c-.074-.092-.14-.252-.221-.33a.721.721 0 0 0-.526-.162.555.555 0 0 0-.32.075c-.088.055-.142.132-.15.216.016.133.145.245.324.281.11.032.246.068.398.102.145.033.286.072.423.117.278.086.451.287.435.503-.017.165-.126.318-.302.425a1.099 1.099 0 0 1-.634.142zM25.897 27c-.597 0-.92-.016-1.002-.016h-.282c-.083 0-.274.015-.484.015h-.118a.077.077 0 0 1-.01-.044.27.27 0 0 1 0-.058.694.694 0 0 0 .302-.065c.048-.095.07-.2.063-.307v-.3V25.35c0-.22-.11-.22-.332-.246a.282.282 0 0 1-.009-.053c0-.012 0-.043.018-.05h.752c.341 0 .673.007.746.007h.205c.046 0 .064 0 .064.046l.027.455c-.027.015-.031.019-.055.019a.128.128 0 0 1-.045 0 .924.924 0 0 0-.296-.348.33.33 0 0 0-.173-.05h-.26c-.131 0-.205 0-.223.006-.019.007-.019 0-.028.077 0 .05-.009.133-.009.398v.265h.068a.953.953 0 0 0 .223-.022.366.366 0 0 0 .2-.143.84.84 0 0 0 .046-.168.12.12 0 0 1 .064-.014c.017 0 .035.005.05.016 0 .08-.02.235-.02.428 0 .098.01.31.01.398a.07.07 0 0 1-.055.016.216.216 0 0 1-.054-.007c-.019-.17-.046-.287-.187-.347a.526.526 0 0 0-.219-.041c-.043 0-.087.004-.13.009v.53c-.005.08.004.16.027.237.015.034.06.104.119.111.06.01.121.015.182.013h.283a.547.547 0 0 0 .214-.033c.137-.114.245-.262.314-.428a.128.128 0 0 1 .058-.012c.02 0 .04.006.059.014v.53c.001.03-.031.038-.103.038zM28.995 25.102c-.25.006-.464.115-.464.43v1.005c0 .038.023.322.023.43a.256.256 0 0 1-.102.033.144.144 0 0 1-.062-.032l-1.723-1.48.018.302v.545c0 .043.012.145.023.221-.004.082.042.16.124.208a.74.74 0 0 0 .324.085.08.08 0 0 1 .016.045.09.09 0 0 1-.023.05h-.632c-.106 0-.26.008-.367.008h-.079a.132.132 0 0 1 0-.045c0-.017.004-.033.011-.049a.69.69 0 0 0 .39-.129.526.526 0 0 0 .04-.235v-.7c0-.111 0-.168-.011-.28a.298.298 0 0 0-.089-.219.826.826 0 0 0-.12-.101 1.43 1.43 0 0 0-.276-.097.125.125 0 0 1-.016-.045c0-.018.006-.034.016-.05h.062c.051 0 .323.012.52.012h.118a.25.25 0 0 1 .073.039l1.277 1.115c.095.085.22.198.287.27v-.807a1.695 1.695 0 0 0-.011-.223.465.465 0 0 0-.073-.21c-.039-.05-.276-.077-.4-.097a.118.118 0 0 1-.012-.058.134.134 0 0 1 0-.043h.073c.118 0 .31.014.43.014.294 0 .384-.006.531-.006h.096a.08.08 0 0 1 .011.047.082.082 0 0 1-.003.047zM36.985 18.092c-.241.007-.462.116-.462.433v1.01c0 .038.016.324.016.433a.235.235 0 0 1-.095.032c-.017 0-.034-.012-.068-.032l-1.72-1.488.023.303v.549c0 .043.011.145.016.222.001.08.047.157.124.209.097.05.208.08.323.085.01.014.016.03.016.046a.128.128 0 0 1-.016.049h-.637c-.107 0-.253.009-.361.009h-.08a.17.17 0 0 1-.01-.045c-.001-.018.005-.035.017-.05a.681.681 0 0 0 .384-.13.467.467 0 0 0 .04-.235v-.703-.282c0-.076-.03-.15-.084-.213a1.018 1.018 0 0 0-.124-.102 1.297 1.297 0 0 0-.276-.097.333.333 0 0 1-.011-.046.18.18 0 0 1 .011-.049h.068c.045 0 .31.012.513.012h.118c.028.01.054.023.079.039l1.274 1.12c.095.086.22.2.287.273v-.807c0-.075-.006-.15-.018-.225a.41.41 0 0 0-.072-.211c-.039-.05-.276-.076-.395-.097a.13.13 0 0 1-.017-.059c0-.014.003-.03.012-.042h.072c.118 0 .31.013.43.013.286 0 .383-.007.53-.007h.09c.01.015.017.031.018.048a.104.104 0 0 1-.015.035zM38.691 19.713a1 1 0 0 1-.694.287 1.002 1.002 0 0 1-.7-.273.955.955 0 0 1-.296-.725c-.008-.27.1-.53.296-.722.185-.178.434-.278.695-.28.184.001.365.05.523.141a.984.984 0 0 1 .485.846 1.039 1.039 0 0 1-.309.726zm-.32-1.387a.462.462 0 0 0-.392-.201.422.422 0 0 0-.366.2c-.136.2-.2.436-.183.673a1.13 1.13 0 0 0 .173.669.443.443 0 0 0 .393.21.457.457 0 0 0 .43-.26c.097-.19.142-.4.13-.611.02-.241-.044-.482-.18-.684l-.005.004zM42.976 18.104c-.197.005-.375.093-.457.229l-.975 1.643a.229.229 0 0 1-.076.024c-.03 0-.072-.024-.089-.076-.017-.051-.142-.288-.404-.735l-.31-.537a4.517 4.517 0 0 0-.231-.37.529.529 0 0 0-.41-.18c-.017-.012-.026-.03-.024-.048a.058.058 0 0 1 .02-.048h.159c.17 0 .34.007.47.007.128 0 .428-.012.611-.012h.1c.024 0 .03.032.03.043a.1.1 0 0 1-.012.054c-.124.009-.386 0-.386.128a.202.202 0 0 0 .024.11l.635 1.158.541-.955a.514.514 0 0 0 .065-.258c0-.107-.1-.155-.37-.18a.122.122 0 0 1-.011-.044.15.15 0 0 1 .012-.057h.076c.12 0 .238.012.51.012.043 0 .232-.007.322-.007h.183a.067.067 0 0 1 0 .097l-.003.002zM35.951 22.633c-.018 0-.03 0-.058-.007a1.012 1.012 0 0 0-.146-.296.462.462 0 0 0-.364-.195h-.19v1.488c0 .234.108.234.345.264.01.018.015.038.014.059a.093.093 0 0 1-.009.049h-.083c-.14 0-.413-.01-.495-.01-.059 0-.36.015-.505.015a.087.087 0 0 1-.014-.053.27.27 0 0 1 .009-.053c.313-.024.346-.083.359-.185v-1.327a1.276 1.276 0 0 0-.014-.244 1.519 1.519 0 0 0-.31.02.79.79 0 0 0-.39.44.161.161 0 0 1-.054.007.06.06 0 0 1-.046-.021v-.514c0-.046.01-.058.059-.058H34.989c.468 0 .823-.012.91-.012.05 0 .082 0 .095.016.013.016 0 .046 0 .074v.514a.06.06 0 0 1-.043.029zM38.988 24h-.203c-.132 0-.28-.013-.435-.013-.244 0-.555.013-.683.013a.06.06 0 0 1-.019-.049.132.132 0 0 1 .012-.045c.251-.01.352-.041.352-.118a.537.537 0 0 0-.077-.258c-.077-.141-.12-.207-.138-.243-.012-.015-.017-.021-.072-.021h-.81a1.146 1.146 0 0 0-.191.372.326.326 0 0 0-.02.113c0 .063.078.129.364.14a.078.078 0 0 1 .017.054.126.126 0 0 1 0 .045h-.071c-.191 0-.244-.01-.447-.01-.132 0-.447.01-.555.01a.092.092 0 0 1 0-.09.63.63 0 0 0 .37-.143c.129-.161.238-.33.328-.506.143-.258.316-.589.394-.727.108-.169.143-.225.17-.283.055-.086.113-.172.137-.203A.161.161 0 0 1 37.52 22c.041 0 .08.014.107.038.024.03.044.063.06.097.148.268.268.507.454.84.095.17.143.276.244.452.071.111.112.194.184.296.096.147.25.148.406.178 0 .013.024.027.024.045s.009.036-.01.054zm-1.63-1.548a3.249 3.249 0 0 0-.184.314 6.188 6.188 0 0 1-.208.374h.77c-.067-.111-.265-.47-.376-.684l-.002-.004zM41.98 24l-.832-.01h-.229a.129.129 0 0 1-.015-.05c0-.018.006-.036.02-.05.068 0 .136-.005.203-.018.086-.037.12-.117.12-.237V22.2l-.438.923c-.048.102-.105.213-.152.323-.07.148-.13.299-.182.452a.062.062 0 0 1-.066.037c-.029 0-.048-.009-.061-.055-.058-.12-.096-.198-.115-.25l-.68-1.46h-.015v.373l.015.934c0 .283.152.418.385.418a.158.158 0 0 1 .019.048.11.11 0 0 1-.015.05h-.105c-.043 0-.18-.014-.4-.014h-.426a.17.17 0 0 1-.01-.049.23.23 0 0 1 .01-.043 1.09 1.09 0 0 0 .3-.102c.043-.04.08-.124.08-.32v-1.023c0-.164-.023-.226-.105-.281a.95.95 0 0 0-.272-.053.128.128 0 0 1-.014-.055c0-.019.005-.037.014-.053.081 0 .223.007.366.007h.5a.12.12 0 0 1 .043.05l.614 1.348.11-.263c.095-.216.233-.542.429-.894l.124-.23.78-.013c.01.014.017.031.019.05a.095.095 0 0 1-.015.05c-.086.014-.233.014-.305.131-.025.037-.038.074-.038.237v.961c0 .37.095.406.136.434a.753.753 0 0 0 .21.028.102.102 0 0 1 .013.05c-.005.036-.015.036-.02.054zM35.953 25.632c-.019 0-.033 0-.059-.007a1.01 1.01 0 0 0-.145-.297.46.46 0 0 0-.364-.194h-.192V26.623c0 .234.11.234.346.264.01.018.015.038.013.059a.093.093 0 0 1-.009.049h-.086c-.14 0-.413-.01-.495-.01-.058 0-.359.015-.504.015a.087.087 0 0 1-.013-.053.255.255 0 0 1 .009-.053c.313-.024.346-.083.359-.185V25.38a1.297 1.297 0 0 0-.013-.243 1.518 1.518 0 0 0-.31.02.79.79 0 0 0-.39.44.16.16 0 0 1-.054.007.06.06 0 0 1-.046-.02v-.515c0-.046.01-.058.059-.058H34.989c.468 0 .823-.012.91-.012.05 0 .082 0 .095.016.013.016 0 .046 0 .074v.514a.06.06 0 0 1-.041.028z"/><path d="M38.978 25.104c-.198.005-.375.093-.458.229l-.976 1.643a.229.229 0 0 1-.076.024c-.03 0-.072-.024-.089-.076-.017-.051-.143-.288-.404-.735l-.31-.537a4.517 4.517 0 0 0-.231-.37.529.529 0 0 0-.41-.18c-.017-.012-.026-.03-.024-.048a.058.058 0 0 1 .02-.048h.159c.17 0 .34.007.47.007.128 0 .428-.012.611-.012h.1c.024 0 .031.031.031.043a.1.1 0 0 1-.012.054c-.126.009-.386 0-.386.128a.202.202 0 0 0 .024.11l.636 1.158.54-.955a.508.508 0 0 0 .065-.258c0-.107-.1-.154-.369-.18a.13.13 0 0 1-.012-.044c0-.02.005-.039.012-.057h.077c.119 0 .238.012.51.012.042 0 .231-.007.321-.007h.184a.068.068 0 0 1 .019.043.07.07 0 0 1-.022.056z"/><path d="M41.985 27l-.825-.01h-.233a.11.11 0 0 1-.01-.05.065.065 0 0 1 .014-.05c.07 0 .14-.006.21-.018.08-.037.114-.118.114-.238V25.47v-.264h-.01l-.432.924a5.621 5.621 0 0 0-.337.776c-.01.037-.043.037-.066.037-.023 0-.042-.01-.061-.056-.052-.12-.091-.198-.11-.249l-.685-1.465h-.013v.373l.013.935c0 .284.152.418.39.418a.13.13 0 0 1 .014.05.097.097 0 0 1-.01.048h-.109c-.047 0-.175-.013-.393-.013h-.426a.094.094 0 0 1-.013-.049.111.111 0 0 1 .013-.044c.104-.02.205-.054.3-.101a.458.458 0 0 0 .075-.321v-1.026c0-.163-.019-.225-.104-.28a.944.944 0 0 0-.272-.054.09.09 0 0 1-.019-.055c0-.02.007-.038.019-.053.076 0 .223.007.361.007h.504c.018.012.03.03.038.05l.613 1.35.114-.264a9.05 9.05 0 0 1 .428-.895c.038-.078.095-.178.123-.23l.775-.013c.01.016.024.03.024.05a.103.103 0 0 1-.019.05c-.08.012-.228.012-.299.131-.023.037-.042.074-.042.238v.962c0 .37.095.407.136.435.066.019.135.028.204.027.012.014.019.032.019.05.006.03-.003.034-.013.052z"/><path d="M64.72 13.333l-.095-1.086-1.042.315a26.931 26.931 0 0 1-7.815 1.152c-9.175.026-17.703-4.696-22.51-12.464L32.505 0l-.76 1.25C26.939 9.02 18.41 13.743 9.235 13.72a26.87 26.87 0 0 1-7.798-1.146L.39 12.258l-.096 1.081a75.869 75.869 0 0 0 1.34 22.359 77.167 77.167 0 0 0 8.369 22.084 79.048 79.048 0 0 0 6.99 10.362A80.52 80.52 0 0 0 31.95 82.608l.53.392.53-.392a80.413 80.413 0 0 0 14.993-14.415 78.264 78.264 0 0 0 6.988-10.347 77.167 77.167 0 0 0 8.13-21.075l.217-1.067a76.347 76.347 0 0 0 1.383-22.37zm-18.689 5.89h1.304v2.532h-1.304v-2.533zm0 6.63h1.304v2.535h-1.304v-2.535zM32.84 16.54a2.418 2.418 0 0 1 2.208-.922l2.516.354 3.314.434c.982.06 1.966-.1 2.878-.468v13.76c-.925.317-1.9.46-2.878.425l-3.195-.424-2.635-.366a3.308 3.308 0 0 0-2.208.693V16.54zm-11.342-.576a6.222 6.222 0 0 0 2.761.454l3.32-.437 2.51-.357a2.421 2.421 0 0 1 2.208.922v13.495a3.323 3.323 0 0 0-2.23-.698l-2.633.367-3.175.42c-2.325 0-2.809-.558-2.815-.562-.006-.005.05-12.682.055-13.604h-.001zm-1.895 1.674c.25-.05.99-.206 1.351-.283v12.369c.133.282.703.94 3.304.94l3.292-.43 2.516-.358a2.47 2.47 0 0 1 2.235.926l.075-.043h.388l.074.04a2.417 2.417 0 0 1 2.208-.923l2.516.354 3.314.434c2.638 0 3.293-.69 3.363-.767l.048-12.605 1.202.332v13.664a37.39 37.39 0 0 1-4.767.37 61.279 61.279 0 0 1-6.362-.444l-.304-.042v.925a4.68 4.68 0 0 1-1.543.28 4.215 4.215 0 0 1-1.479-.277v-.928l-.304.042a61.214 61.214 0 0 1-6.346.445 37.334 37.334 0 0 1-4.778-.37l-.003-13.651zm-1.825 1.586h1.276v2.533h-1.276v-2.533zm0 6.63h1.276v2.536h-1.276v-2.536zM32.48 80.741a78.909 78.909 0 0 1-14.102-13.693c-.017-.021-.032-.048-.049-.068l14.15-13.682L46.66 67.006c-.021.02-.038.053-.058.078a78.892 78.892 0 0 1-14.116 13.659l-.007-.002zm28.907-44.363a75.57 75.57 0 0 1-7.832 20.388L32.494 36.627 11.449 56.724a75.637 75.637 0 0 1-8.036-21.206h58.152l-.178.86z"/></g></svg>