<svg xmlns="http://www.w3.org/2000/svg" width="160" height="108" viewBox="0 0 160 108">
  <g fill="#002F54" fill-rule="evenodd">
    <path d="M83.5949495 13.0470968C82.9261983 12.6534194 81.3292064 11.7197419 80.4558243 11.2912258 78.5845399 10.3714839 76.7219632 12.0933871 76.4607322 13.8762581 76.3562399 14.5739032 76.1864397 15.1783548 75.9879042 15.7636452 75.9295626 15.848129 75.8668672 15.9439355 75.8024302 16.0580323 75.0500851 17.3845161 73.7665704 17.2556129 72.8331051 16.6607419 69.462355 14.5050968 66.9989472 13.7656452 63.6726064 12.6760645 61.7630081 12.0472258 59.0888739 7.32570968 57.2933465 5.21883871 53.4697962.739451613 50.3733386-1.59474194 49.9118306 2.70870968 49.7220028 4.45412903 49.9457906 5.886 49.7455136 7.59919355 49.6636612 8.28987097 49.0358361 9.70693548 47.7723491 9.5606129 43.5325708 9.07809677 39.9850544 9.62854839 36.2912488 11.097871 33.7146408 12.1195161 32.7028063 13.2082258 30.2019553 14.1636774 27.7725074 15.0834194 24.8789392 15.9090968 21.7189155 15.2410645 20.8638195 15.0642581 20.5268316 15.7122581 21.2260598 16.5797419 21.9043895 17.4228387 22.0001742 19.3511613 21.8573679 20.223871 20.5529547 22.0720645 17.2466416 23.8636452 15.4537265 30.8435806 14.6317198 34.0400323 13.6216268 35.0939032 11.8504809 34.9667419 10.8194894 34.8944516 2.64992678 33.1150645 1.31068276 34.3492258.469519098 35.1243871 6.81220661 37.2748065 9.29912527 39.4583226 10.7498278 40.7238387 11.6397546 42.6913548 12.1343519 44.0552903 12.8745062 46.0994516 14.3043103 45.2641935 14.3234672 43.9629677 14.3617811 41.8090645 14.7013814 39.069871 15.8412191 36.2453226 16.7102474 34.0905484 18.2323531 32.103871 20.3805423 30.2051613 23.9924955 27.0113226 30.8515496 23.6450323 36.2947318 21.5712581 38.200847 20.844 40.9307105 19.7396129 43.1920997 19.6150645 46.1579418 19.4539355 47.5851336 21.0094839 47.163681 21.9823548 45.8435939 25.0211613 44.0872511 28.539 44.0785434 28.6226129 43.5578231 29.3960323 43.883491 30.7094516 45.0215872 30.348871 47.4362319 29.5745806 49.2570117 28.6713871 51.760475 26.6925484 52.8524203 25.8250645 53.9957411 24.8896452 55.0894281 23.9951613 56.1369642 23.1433548 58.1301563 22.8742258 59.0566555 23.2696452 62.633778 24.7947097 65.9331249 26.2257097 69.7375183 26.9895484 70.5586543 27.1541613 70.5316604 27.9423871 70.4010449 28.1583871 69.8289491 29.1269032 68.9843024 29.9612903 68.4905759 30.9376452 67.8157293 32.2832903 67.8209539 32.9852903 69.2594657 33.9538065 70.0675401 34.4946774 70.9670453 34.3823226 71.5234672 34.4145484 73.1187176 34.5094839 73.2031823 34.263871 74.0661152 33.5191935 77.0145419 30.9637742 84.383867 21.6992903 85.140566 19.1064194 85.7971265 16.8453871 85.2528953 14.0243226 83.5949495 13.0470968M5.37526222 79.7857839C6.47417376 76.7896548 10.7513952 84.562171 10.9978231 86.6882032 10.6695428 86.5262032 3.79742727 84.0909774 5.37526222 79.7857839M77.2581833 90.9176226C77.2120325 90.5962355 76.9264199 90.1285258 76.5354443 89.9430097 75.1988126 89.3045903 68.5025925 86.9529774 62.6928161 87.1933645 51.9797348 87.6314613 51.7968731 85.2937839 48.3494953 87.2734935 43.1588363 90.3828484 34.8847813 87.2447516 30.9558678 85.4732032 29.990184 85.0385903 28.3540075 83.9908161 27.1889175 82.6338484 26.498397 81.8316871 26.7143479 82.1365258 25.6328518 80.5696548 25.6328518 80.5696548 25.4003562 79.7448484 26.0447259 78.9113323 27.2716406 77.3165903 29.3658421 75.1173968 27.7575302 71.8669452 26.3364338 68.9892677 23.3261825 66.902429 20.6442114 64.0796226 19.2518504 62.6146548 18.5561053 62.0668161 16.4819315 62.6312032 16.0778943 62.7426871 14.4243024 63.1468161 13.4377202 63.419429 13.5413418 62.6399129 13.6292895 62.2392677 13.5831387 61.6774935 13.5874926 60.9032032 13.385474 59.3537516 12.9527014 58.4627516L14.1378191 58.0612355C14.7987334 57.4846548 14.7342965 56.8653968 14.5061548 55.8524613 14.5061548 55.8524613 14.0594498 54.5869452 13.2391846 53.7098806 12.3962794 52.8093 11.6761528 53.3310097 11.0117554 53.7447194 10.7923214 53.8814613 10.5824659 54.0364935 10.2820503 54.1923968 9.9807639 53.9798806 9.42260044 53.3858806 9.06819711 53.2369452 7.79687314 52.702171 6.96354641 53.0488161 5.50413616 54.1418806 2.25442311 56.5805903 4.08913517 59.1717194 6.6692262 63.0823645 7.58005145 64.528171 7.97363942 65.3547194 6.73453394 66.0558484 6.73105086 66.0575903 6.5508015 66.1629774 6.45153374 66.2195903 4.96338809 67.0653 3.1643776 68.4135581 2.5983772 69.3289452 1.5099149 71.0900419.825489808 74.7524613.355274095 77.6527839.158480111 78.8756226-.0809815951 81.8151387.0261230952 82.9073323.200277063 84.6187839.803720562 86.0733 2.01670295 86.992171 3.5570948 88.153171 10.5746289 90.2417516 14.0559668 92.7344613 14.9180289 93.8353645 15.0503859 93.7334613 16.2668514 95.4666871 17.5407877 97.2817839 18.7938255 98.9235581 20.5919652 100.600171 23.7197704 103.523139 27.8158718 106.346816 30.0189195 106.929494 31.1326341 107.114139 31.6385514 107.192526 32.8950722 106.553235 35.6353849 105.156203 45.6588165 101.449365 52.3541658 103.900268 54.1226994 104.550881 56.2029685 105.446235 57.737265 105.968816 61.1916089 107.149848 65.1179102 108.615687 68.1351276 107.7273 69.227073 107.162042 68.6009895 106.041106 68.0889768 104.972429 66.9073422 103.264461 61.7933109 106.655139 59.4465862 105.258106 59.307263 105.212816 58.7299426 104.868784 57.9244805 104.356655 55.5159311 102.836816 49.6913517 97.8104613 48.8118741 97.2103645 47.6363349 96.4143 46.5513556 96.523171 46.0463091 96.9124935 45.5342965 97.3053 45.3775579 98.0012032 45.1973085 99.0359129 45.0954285 99.3660097 44.8968929 100.642848 42.9489808 100.021848 40.8243024 99.3433645 37.36038 98.7737516 34.6923412 100.046235 33.1310509 100.794397 31.4826836 101.056558 30.2688304 100.354558 28.5734415 99.3773323 26.1779537 97.1119452 25.1713438 95.0669129 23.9984168 92.6900419 25.9315258 91.5586548 29.1281219 92.6900419 33.1885217 94.1297516 37.8871957 94.9702355 41.2553335 94.9005581 42.4717989 94.876171 42.9428854 94.9118806 43.5663566 94.6401387 44.5329111 94.2194613 44.8864437 93.7143 45.6326934 93.1272677 46.6314665 92.3451387 50.1720166 90.986429 52.8139323 90.9873 55.4532357 90.9907839 57.2766277 91.2755903 60.5872947 93.9477194 62.2408866 95.2829129 64.2393034 96.7287194 66.7183851 97.3523323 68.8857312 97.8932032 73.4163467 98.8564935 74.3263012 98.8756548 75.2362557 98.9000419 76.4640412 98.7667839 76.9211953 97.738171 77.399248 96.6668806 77.467168 92.4644613 77.2581833 90.9176226"/>
    <path d="M49.75396 39.4121613L47.6144785 39.4452581 47.612737 43.6772903 49.7504769 43.6781613C50.8084623 43.6772903 51.551229 42.9500323 51.551229 41.5233871 51.5529705 40.0984839 50.8102038 39.3947419 49.75396 39.4121613M49.8340708 44.7041613L47.6109954 44.6963226 47.6092539 49.0799032 46.7245518 49.0624839 46.7297764 38.4427742 49.8358124 38.3844194C51.3849119 38.3556774 52.4664081 39.5698065 52.4664081 41.5172903 52.4664081 43.4647742 51.3831704 44.7093871 49.8340708 44.7041613M62.8818603 39.2143645L60.4358678 39.2509452 60.4341263 43.3357839 62.8801187 43.3323C63.9598733 43.331429 64.7339877 42.6468484 64.7339877 41.2654935 64.7339877 39.8841387 63.9616149 39.1969452 62.8818603 39.2143645L62.8818603 39.2143645zM64.7461785 49.4133968L62.6336909 44.3870419 60.4341263 44.3826871 60.4323847 49.3297839 59.466701 49.3106226 59.470184 38.2040419 62.9732911 38.1387194C64.5911815 38.1073645 65.7371146 39.281429 65.735373 41.2411065 65.735373 42.8985581 64.9037878 43.981171 63.6995132 44.2799129L65.9173639 49.4360419 64.7461785 49.4133968zM78.7768059 39.7209194C78.3327132 39.1948548 77.6848605 38.8900161 77.0152385 38.9013387 76.3464872 38.9117903 75.7090837 39.2331774 75.2719573 39.7653387 74.6389076 40.5283065 74.5675045 41.3174032 74.5657629 43.7604677 74.5640214 46.2078871 74.6354245 46.9952419 75.2702157 47.7590806 75.7073422 48.2912419 76.3430042 48.6152419 77.0134969 48.6265645 77.6813774 48.6370161 78.3274886 48.3304355 78.7750643 47.8061129 79.4264002 47.046629 79.4995448 46.2479516 79.4995448 43.7630806 79.5012864 41.2799516 79.4281417 40.4804032 78.7768059 39.7209194M79.627548 48.5664677C78.9335444 49.3555645 78.027073 49.7701452 77.0117554 49.7518548 76.0025331 49.7309516 75.1134771 49.2850161 74.4403721 48.4845968 73.5042945 47.3767258 73.5042945 46.2322742 73.5042945 43.7604677 73.5042945 41.2938871 73.5042945 40.1476935 74.4429844 39.0380806 75.1169602 38.2385323 76.0060162 37.7943387 77.0152385 37.7760484 78.0305561 37.7551452 78.9370275 38.1714677 79.6292895 38.9596935 80.6054225 40.0666935 80.6054225 41.2381452 80.603681 43.7639516 80.603681 46.2915 80.603681 47.4638226 79.627548 48.5664677M90.8009183 50.0236839C89.746416 50.0027806 88.9609816 49.643071 88.2852642 48.8766194L89.0698278 48.0126194C89.4695112 48.4655226 89.8874807 48.8339419 90.8026598 48.8487484 92.2551039 48.8722645 93.0919137 47.8584581 93.0919137 46.0311677L93.0953968 37.572329 94.2996715 37.5496839 94.2944469 46.214071C94.2944469 48.6074903 92.8385197 50.0628774 90.8009183 50.0236839"/>
    <polygon points="104.449 50.187 104.453 37.359 112.097 37.216 112.097 38.469 105.743 38.566 105.741 43.104 111.142 43.094 111.14 44.343 105.741 44.332 105.74 48.979 112.092 49.08 112.092 50.335"/>
    <path d="M126.796628,50.7355258 C125.456513,50.7093968 124.238306,50.189429 123.331835,49.2583645 C122.070089,47.9702032 122.071831,46.6428484 122.071831,43.7773645 C122.073572,40.9162355 122.073572,39.5871387 123.333576,38.2998484 C124.243531,37.3705258 125.461738,36.8496871 126.801852,36.8235581 C129.280063,36.7765258 131.141769,38.2597839 131.614597,40.8596226 L130.080301,40.8718161 C129.710224,39.1899774 128.520752,38.1056226 126.801852,38.1317516 C125.898864,38.1465581 125.041156,38.5036548 124.451645,39.1220419 C123.597419,40.0095581 123.504247,40.9423645 123.504247,43.7782355 C123.502505,46.6149774 123.595678,47.5495258 124.448161,48.4353 C125.037673,49.055429 125.897123,49.4142677 126.796628,49.4299452 C128.51814,49.4578161 129.745925,48.3717194 130.119485,46.6907516 L131.614597,46.7020742 C131.157443,49.3053968 129.257423,50.785171 126.796628,50.7355258"/>
    <polygon points="148.258 37.923 148.253 51.039 146.618 51.008 146.624 37.948 142.258 38.014 142.258 36.65 152.763 36.452 152.763 37.854"/>
    <path d="M49.0821611 62.1445065L48.0206927 69.2115387 50.614716 69.5033129 49.0821611 62.1445065zM56.9800435 79.5821516L53.2078686 79.0134097C52.5922343 78.9202161 52.5417297 78.6955065 52.3884742 77.9534419L51.7014368 74.6289581 47.2857629 74.0393129 46.8181595 77.1356032C46.7145379 77.8210548 46.6396517 78.0178935 46.0971621 77.9368935L43.1670216 77.4944419C42.8030398 77.439571 42.5923135 77.1321194 42.726412 76.2916355L46.158116 53.2379903C46.2782822 52.3861839 46.4594023 52.1083452 47.1995567 52.1362161L51.4550089 52.2912484C52.226511 52.3191194 52.4137265 52.6187323 52.6166159 53.5071194L57.909155 78.5099903C58.1721274 79.7258613 57.8055333 79.707571 56.9800435 79.5821516L56.9800435 79.5821516zM77.91962 81.4750258C77.753303 82.4043484 77.5164536 82.6882839 76.5777637 82.5454452L71.6674926 81.8051226C70.7697289 81.6692516 70.5337502 81.3234774 70.3326024 80.3645419L68.7922106 73.2348 67.5574589 79.9203484C67.4329388 80.8583806 67.1917356 81.0891871 66.3244488 80.957671L62.2744983 80.3453806C61.4429131 80.2208323 61.2217376 79.8889935 61.031039 78.9666387L55.6331368 53.6711226C55.371035 52.470929 55.9431308 52.4543806 56.7677499 52.4848645L60.4885494 52.6207355C61.1555591 52.6451226 61.208676 52.8741871 61.3732515 53.6432516L64.9756264 70.3057355 66.2591411 62.7875419 64.3599921 54.0343161C64.083958 52.7897032 64.6943677 52.7740258 65.5842945 52.8071226L69.5924481 52.9525742C70.3090916 52.9795742 70.3665624 53.2190903 70.5415872 54.0168968L74.3616545 71.3639613 77.4328597 54.3365419C77.579149 53.5291548 77.6287829 53.2861548 78.3959311 53.3148968L81.506321 53.4298645C82.5216386 53.4664452 83.2347991 53.5335097 82.9761805 54.8547677L77.91962 81.4750258zM90.8825094 65.4913742L89.249816 73.8169548 92.8791846 74.2210839 90.8825094 65.4913742zM101.638258 86.3379871L96.3213378 85.5323419C95.4540511 85.4016968 95.3896141 85.1369226 95.1884663 84.2546323L94.2941856 80.3013097 88.122169 79.4791161 87.4046547 83.1101806C87.2461745 83.9123419 87.1355868 84.1440194 86.3823709 84.0299226L82.3193588 83.4158903C81.8177954 83.3392452 81.5321829 82.9716968 81.7342015 81.9909871L86.9823313 54.9378581C87.1695468 53.9327613 87.4264239 53.6044065 88.4608985 53.642729L94.4300257 53.860471C95.518488 53.8996645 95.7736236 54.2558903 96.0426915 55.3132452L102.981856 85.0959871C103.328423 86.5478903 102.805961 86.5139226 101.638258 86.3379871L101.638258 86.3379871zM115.461381 62.9618226L113.573552 62.8407581C113.043254 62.8050484 112.943986 63.2596935 112.947469 63.6289839L112.995361 67.6755C113.004069 68.3182742 113.145134 68.5586613 113.707651 68.6074355L116.167576 68.8155968C117.21337 68.9035645 118.146836 68.0012419 118.125066 65.9440161 118.111134 64.4921129 117.22469 63.0759194 115.461381 62.9618226M123.466368 75.126629C122.943036 75.4497581 122.980479 75.3591774 123.172048 75.9462097L127.296885 88.5543387C127.570307 89.3547581 127.810639 90.3415645 126.618555 90.1151129L119.483467 89.0351129C118.209531 88.7947258 118.204306 88.2860806 117.907374 87.4159839L114.694233 77.801371C114.549685 77.4181452 114.478282 77.4111774 114.196153 77.3789516L113.243531 77.2700806C112.998844 77.2413387 112.966626 77.4634355 112.970109 77.8762742L113.071989 86.6164355C113.08505 87.7965968 112.843847 88.0308871 111.316517 87.8018226L105.729658 86.9561129C104.703891 86.8010806 104.730014 86.2750161 104.716082 85.2603387L104.29637 55.3878871C104.285921 54.5343387 104.548023 54.230371 105.481488 54.2652097L116.128391 54.6536613C123.448082 54.9201774 127.364805 60.494371 127.410956 67.0179194 127.444916 71.7934355 124.857859 74.2704677 123.466368 75.126629M151.885684 93.9356129L132.464904 90.9995806C131.950279 90.9211935 131.077768 90.4038387 131.070802 89.1043548L130.869654 56.8123548C130.866171 55.8769355 130.901872 55.1932258 131.938088 55.2289355L150.622197 55.9109032C151.705434 55.9518387 151.841274 56.6372903 151.843016 57.3723871L151.841274 63.8584839C151.843016 65.1109355 151.028846 65.2137097 149.773196 65.1335806L141.54355 64.6014194C140.613568 64.5421935 140.44638 64.9332581 140.44638 65.3356452L140.45683 67.7011935C140.458571 68.5068387 140.922691 68.8935484 141.386812 68.931L148.797063 69.5110645C150.044006 69.6086129 150.266923 70.3524194 150.224255 71.0230645L149.824572 77.2818387C149.693956 79.1204516 148.143986 78.8008065 147.661579 78.7511613L141.754277 78.1197097C141.081172 78.0474194 140.576125 78.4437097 140.579608 79.1430968L140.586574 81.8883871C140.590928 83.0345806 141.432963 83.0877097 142.322889 83.1965806L150.008304 84.1372258C151.976244 84.3767419 152.833081 84.7939355 152.83134 85.8277742L152.829598 92.5864839C152.829598 93.6159677 152.336743 94.0035484 151.885684 93.9356129M157.208177 54.8424871L156.768439 54.8424871 156.768439 55.6681645 157.208177 55.6681645C157.470279 55.6681645 157.654882 55.4957129 157.654882 55.2588097 157.654882 55.0210355 157.470279 54.8424871 157.208177 54.8424871L157.208177 54.8424871zM157.666202 56.9119065L157.124583 55.9494871 156.768439 55.9494871 156.768439 56.9119065 156.441029 56.9119065 156.441029 54.5507129 157.243879 54.5507129C157.654882 54.5507129 157.985775 54.8599065 157.985775 55.2588097 157.985775 55.6028419 157.773307 55.817971 157.480728 55.9076806L158.046729 56.9119065 157.666202 56.9119065zM157.14287 53.8957452C156.143226 53.8957452 155.336022 54.7231645 155.336022 55.7343581 155.336022 56.7455516 156.143226 57.571229 157.14287 57.571229 158.141643 57.571229 158.957554 56.7455516 158.957554 55.7343581 158.957554 54.7231645 158.141643 53.8957452 157.14287 53.8957452L157.14287 53.8957452zM157.14287 57.8873903C155.953398 57.8873903 154.991197 56.9241 154.991197 55.7343581 154.991197 54.5446161 155.953398 53.5821968 157.14287 53.5821968 158.332341 53.5821968 159.294542 54.5446161 159.294542 55.7343581 159.294542 56.9241 158.332341 57.8873903 157.14287 57.8873903L157.14287 57.8873903z"/>
  </g>
</svg>