<?xml version="1.0" encoding="utf-8"?>
<!-- Generator: Adobe Illustrator 21.0.2, SVG Export Plug-In . SVG Version: 6.00 Build 0)  -->
<!DOCTYPE svg PUBLIC "-//W3C//DTD SVG 1.1//EN" "http://www.w3.org/Graphics/SVG/1.1/DTD/svg11.dtd">
<svg version="1.1" id="Layer_1" xmlns="http://www.w3.org/2000/svg" xmlns:xlink="http://www.w3.org/1999/xlink" x="0px" y="0px"
	 width="89px" height="100px" viewBox="0 0 89 100" style="enable-background:new 0 0 89 100;" xml:space="preserve">
<style type="text/css">
	.st0{fill:#FFFFFF;}
</style>
<path class="st0" d="M62.8,73.2c0,18.2-17.4,25.4-26.7,25.4c-10.6,0-22.6-6.2-22.6-22c0-1.3,0.1-2.5,0.4-3.7H25v-1.6l-4.6-0.3
	c-2.7-0.1-3.6-0.5-3.9-4.2c2.7-3.9,7-6.4,11.8-6.4c0.2,0,0.4,0,0.7,0c1.4,4.1,2.5,6.1,4,8c1.4,1.8,3.3,3.2,5.3,4.2
	c-0.4,1-0.9,1.9-1.6,2.3c-1.4,0.6-1.9,0.8-3.7,0.5c-2-0.3-3.1-2.5-3.2-1.2c0,1.7,1.9,3.5,3.9,3.5c2,0,4.6-1.8,5.9-4.7
	c1.6,0.6,3.3,0.9,5,0.9c2.8,0,3.9-0.6,7.7-4.1c0.3-0.3,0.8-0.8,1.4-1.3l-1-1.2c-2.2,1.9-3.9,2.8-5.2,2.8c-3.4,0-7.2-2.9-8.9-6.8
	l-2.1-4.9c-1.3-3-3.3-6.1-5.1-7.8c-1.3-1.4-2.6-1.9-5.3-2.4c2.7-0.3,3.5-0.5,5.1-0.9c3.7-1.1,6.1-3.8,6.7-7.7c0.7,1,1.5,1.9,2.4,2.8
	c7.9,7.9,19,13.4,21.8,24.9c-0.3,3.1-1.3,3.4-3.8,3.6l-4.9,0.3v1.6h9.4C62.8,73,62.8,73.1,62.8,73.2L62.8,73.2z M16.4,60.8V48.3h1.9
	c2.6,0,3.7,0.3,5,1.2c2.1,1.4,2.8,2.8,5.2,9.6c-0.1,0-0.1,0-0.2,0c-5.1,0-9.2,2.3-11.9,5.7C16.4,63.7,16.4,62.4,16.4,60.8L16.4,60.8
	z M16.4,34.2c0-0.6,0.1-1.5,0.1-2.8c0-0.5,0-1.2,0.1-2.3c1.3-0.2,1.9-0.3,2.6-0.3c6.2,0,11.3,4.1,11.3,9c0,2.3-1.1,4.6-3,6
	c-2.5,1.9-5.3,2.5-11.1,2.5L16.4,34.2z M87.8,25.6h-1.4c-0.1,0.2-0.1,0.1-0.1,0.3c-0.1,0.5-0.3,0.8-0.6,0.8c-0.3,0.1-0.6,0.1-2,0.1
	L81.6,27H54v1.6l4.2,0.3c3.8,0.2,4,0.8,4,10.2v10.6c-1-1.2-2.2-2.5-3.4-3.7C51.5,38.6,38.5,32.2,38.5,20c0-9.1,7.4-18.5,18.6-18.5
	c8.6,0,14.5,5,14.5,11.3c0,1-0.2,4.5-2.9,6.6c0.2-3.5-2.5-5-3.9-5c-2.4,0-3,2-3,3.4c0,2.9,2.2,3.9,4.4,3.9c2.9,0,6.8-2.9,6.8-8.3
	C72.9,3.5,62.9,0,56.5,0C46.1,0,32.7,8.9,32.7,25.4c0,1.2,0.1,2.5,0.4,3.8c-2.8-1.6-6.7-2.3-12.2-2.3H1v1.6l4.6,0.3
	c3.8,0.2,4.1,0.8,4.1,10.2v21.8c0,9.4-0.3,10.1-4.1,10.2L0,71.3v1.6h12.7c-0.3,1.4-0.4,2.9-0.4,4.3c0,15.3,11.7,22.7,24.1,22.7
	c15.8,0,29.6-11.4,32.3-27.1h8.2v-1.6l-3.8-0.3c-2.6-0.2-3.6-0.5-3.9-3.5c0,0,0,0,0-0.1c0-1-0.1-2.1-0.2-3c0-1,0-2.2,0-3.6v-11h1.6
	c6.2,0,6.6,0.6,7.1,9.4h1.6c0.3-9,0.3-11.1,0.3-19.2v-1.7h-1.7c-1.1,7.3-1.3,8.1-1.9,8.6c-0.4,0.4-2.6,0.7-4.6,0.7
	c-0.6,0-1.4,0-2.4-0.1v-9.4c0-2.8,0.2-4.6,0.9-8.9c2-0.2,3.2-0.3,5.5-0.3c4.6,0,8.4,0.3,9.1,0.8c1,0.7,2.4,3.8,3.8,8.3H89v-1
	C89,32.4,88.7,29.3,87.8,25.6L87.8,25.6z"/>
</svg>
