<svg xmlns="http://www.w3.org/2000/svg" width="251" height="72" viewBox="0 0 251 72">
  <g fill="#002F54" fill-rule="evenodd">
    <path d="M89.3893471 11.8433302C87.6007929 9.32596146 84.4252843 8.13616744 81.1816471 8.13616744 77.3463671 8.13616744 73.5082186 9.85555615 73.5082186 14.161204 73.5082186 23.5618684 95.7410814 18.2006193 95.7410814 34.8850047 95.7410814 44.9473037 87.7994414 49.8464133 78.6028014 49.8464133 72.7803186 49.8464133 67.0876386 48.0588518 63.2516414 43.4912771L69.5373986 37.399503C71.5884271 40.5096159 75.09669 42.2993302 78.80145 42.2993302 82.6410329 42.2993302 87.00413 40.1787987 87.00413 35.8774565 87.00413 25.6149449 64.7741357 31.5057887 64.7741357 14.7575362 64.7741357 5.0906392 73.3769814.586931561 82.04437.586931561 86.9424557.586931561 91.8348043 1.97765581 95.4750214 5.42145648L89.3893471 11.8433302zM127.24947 30.7772013L120.03573 11.7089223 112.693621 30.7772013 127.24947 30.7772013zM116.661573 1.77722791L123.875313 1.77722791 144.057147 48.6542512 134.52847 48.6542512 130.160353 37.9281648 109.848716 37.9281648 105.614704 48.6542512 96.2832414 48.6542512 116.661573 1.77722791zM158.166431 41.5048664L165.842011 41.5048664C170.140565 41.5048664 176.099305 40.7757767 176.099305 34.6187003 176.099305 29.7203083 172.920928 27.9980492 166.172614 27.9980492L158.166431 27.9980492 158.166431 41.5048664zM158.166431 20.8470857L165.777468 20.8470857C171.333891 20.8470857 174.114254 18.4646272 174.114254 14.9533714 174.114254 10.9182618 171.333891 8.92833488 165.046699 8.92833488L158.166431 8.92833488 158.166431 20.8470857zM149.829645 1.78167708L168.090254 1.78167708C175.173474 1.78167708 182.448171 5.02311229 182.448171 13.5640824 182.448171 18.8593116 179.141425 22.3705674 174.310751 23.8251588L174.310751 23.9571987C180.202079 24.6217037 184.436091 29.2552983 184.436091 35.2803349 184.436091 45.4782618 175.567185 48.6558299 166.701865 48.6558299L149.829645 48.6558299 149.829645 1.78167708 149.829645 1.78167708z"/>
    <polygon points="191.611 48.655 199.947 48.655 199.947 1.778 191.611 1.778"/>
    <polygon points="208.495 1.777 219.542 1.777 242.239 36.603 242.372 36.734 242.239 36.734 242.372 36.603 242.372 1.777 250.71 1.777 250.71 48.654 240.125 48.654 216.964 12.701 216.832 12.701 216.832 48.654 208.495 48.654"/>
    <polygon points="63.494 56.967 65.344 56.967 69.588 68.305 69.626 68.305 74.007 56.967 75.738 56.967 70.345 70.758 68.77 70.758"/>
    <path d="M81.8733314 59.0683934L81.8353229 59.0683934 78.9739229 65.8490711 84.6006257 65.8490711 81.8733314 59.0683934zM81.1339571 56.9672372L82.6715114 56.9672372 88.5305686 70.7575096 86.6229686 70.7575096 85.2209543 67.3696824 78.3299286 67.3696824 76.9078343 70.7575096 75.05904 70.7575096 81.1339571 56.9672372zM100.287982 59.8112611C99.4697223 58.7011216 98.1645223 58.1349289 96.8406766 58.1349289 93.7662851 58.1349289 91.5854537 60.8424638 91.5854537 63.8621581 91.5854537 67.0576664 93.7483566 69.5872346 96.8406766 69.5872346 98.5159223 69.5872346 99.8605651 68.909095 100.831577 67.6604571L102.058608 68.6959654C100.831577 70.3500518 99.041588 71.1078458 96.8406766 71.1078458 92.892088 71.1078458 89.834908 68.0508359 89.834908 63.8621581 89.834908 59.8112611 92.7536794 56.6157528 96.8406766 56.6157528 98.7138537 56.6157528 100.541851 57.2601648 101.707925 58.7786233L100.287982 59.8112611M114.26524 59.8112611C113.448414 58.7011216 112.14178 58.1349289 110.819369 58.1349289 107.744977 58.1349289 105.564146 60.8424638 105.564146 63.8621581 105.564146 67.0576664 107.725614 69.5872346 110.819369 69.5872346 112.491746 69.5872346 113.839257 68.909095 114.808834 67.6604571L116.035866 68.6959654C114.808834 70.3500518 113.018846 71.1078458 110.819369 71.1078458 106.868629 71.1078458 103.812166 68.0508359 103.812166 63.8621581 103.812166 59.8112611 106.730937 56.6157528 110.819369 56.6157528 112.688243 56.6157528 114.517674 57.2601648 115.686617 58.7786233L114.26524 59.8112611"/>
    <polygon points="118.586 70.758 120.22 70.758 120.22 56.967 118.586 56.967"/>
    <polygon points="123.92 56.967 125.983 56.967 133.963 68.423 134.005 68.423 134.005 56.967 135.638 56.967 135.638 70.758 133.575 70.758 125.595 59.305 125.554 59.305 125.554 70.758 123.92 70.758"/>
    <polygon points="138.85 56.967 147.513 56.967 147.513 58.488 140.484 58.488 140.484 62.812 147.045 62.812 147.045 64.332 140.484 64.332 140.484 69.239 147.864 69.239 147.864 70.758 138.85 70.758"/>
    <polygon points="156.349 70.758 157.982 70.758 157.982 56.967 156.349 56.967"/>
    <polygon points="161.685 56.967 163.748 56.967 171.731 68.423 171.769 68.423 171.769 56.967 173.403 56.967 173.403 70.758 171.34 70.758 163.357 59.305 163.319 59.305 163.319 70.758 161.685 70.758"/>
    <path d="M183.640421,59.4020093 C183.095392,58.5229395 182.120795,58.1347136 181.128987,58.1347136 C179.688964,58.1347136 178.190135,58.8164412 178.190135,60.4547402 C178.190135,61.7198831 178.890784,62.2839229 181.089544,62.9857435 C183.230215,63.6667535 185.218852,64.3678565 185.218852,67.0768266 C185.218852,69.8252651 182.861604,71.1076306 180.368815,71.1076306 C178.773172,71.1076306 177.061352,70.5823415 176.126915,69.1987934 L177.526778,68.0513382 C178.109098,69.0631654 179.281627,69.5870193 180.464912,69.5870193 C181.868361,69.5870193 183.468307,68.7703814 183.468307,67.1945143 C183.468307,65.4973714 182.315141,65.2074578 179.862512,64.3872319 C177.917621,63.7471256 176.439589,62.8874312 176.439589,60.5889329 C176.439589,57.9388066 178.715801,56.6155375 181.128987,56.6155375 C182.667258,56.6155375 183.973892,57.0446671 184.985064,58.2330259 L183.640421,59.4020093"/>
    <polygon points="197.441 58.485 192.887 58.485 192.887 70.756 191.253 70.756 191.253 58.485 186.696 58.485 186.696 56.965 197.441 56.965"/>
    <polygon points="199.643 70.758 201.278 70.758 201.278 56.967 199.643 56.967"/>
    <polygon points="214.223 58.485 209.669 58.485 209.669 70.756 208.033 70.756 208.033 58.485 203.477 58.485 203.477 56.965 214.223 56.965"/>
    <path d="M226.757201,65.4974432 C226.757201,68.499915 225.356621,71.1048319 221.560784,71.1048319 C217.764947,71.1048319 216.362932,68.499915 216.362932,65.4974432 L216.362932,56.9643668 L217.998735,56.9643668 L217.998735,65.2649382 C217.998735,67.4852173 218.814127,69.587091 221.560784,69.587091 C224.303138,69.587091 225.124267,67.4852173 225.124267,65.2649382 L225.124267,56.9643668 L226.757201,56.9643668 L226.757201,65.4974432"/>
    <polygon points="239.509 58.485 234.954 58.485 234.954 70.756 233.316 70.756 233.316 58.485 228.763 58.485 228.763 56.965 239.509 56.965"/>
    <polygon points="241.709 56.967 250.371 56.967 250.371 58.488 243.342 58.488 243.342 62.812 249.902 62.812 249.902 64.332 243.342 64.332 243.342 69.239 250.721 69.239 250.721 70.758 241.709 70.758"/>
    <path d="M24.0158951,40.2364944 L24.0187637,39.7793781 L24.0158951,40.2364944 Z M0.000215142857,24.0343415 C0.00164942857,10.7600292 10.7501866,0.00308571429 24.0158951,0.000215282392 C37.2816037,0.00308571429 48.0301409,10.7600292 48.0315751,24.044388 L48.020818,24.525903 L39.7385351,24.525903 L39.7507266,24.0508465 L39.7507266,24.0343415 C39.7385351,15.3376505 32.7055151,8.30150432 24.0187637,8.28786977 C15.3291437,8.30150432 8.29612371,15.3376505 8.27962943,24.0314711 C8.29612371,32.7166804 15.3090637,39.7434977 23.985058,39.7793781 L24.4906437,39.7262751 L24.4906437,48.0655973 L24.030238,48.0655973 L24.0158951,48.0684678 C10.7501866,48.0641621 0.00164942857,37.3072186 0.000215142857,24.0343415 L0.000215142857,24.0343415 Z"/>
    <path d="M0,47.3018472 L0.0114742857,46.8267907 L8.29304,46.8267907 L8.28228286,47.2989767 L8.28228286,47.3161993 C8.29590857,56.0100199 15.32606,63.0461661 24.01568,63.0590831 C32.7053,63.0461661 39.7354514,56.0100199 39.7526629,47.3161993 C39.7354514,38.6230963 32.7053,31.5876678 24.01568,31.5704452 L23.5409314,31.5969967 L23.5409314,23.2842259 L24.01568,23.2842259 C37.2842571,23.2856611 48.0320771,34.0426047 48.0342286,47.3161993 C48.0320771,60.5890764 37.2813886,71.3460199 24.01568,71.353196 C10.7514057,71.3460199 0.00143428571,60.5890764 0,47.3018472"/>
  </g>
</svg>
