<svg xmlns="http://www.w3.org/2000/svg" width="263" height="119" viewBox="0 0 263 119" xmlns:xlink="http://www.w3.org/1999/xlink">
  <defs>
    <polygon id="a" points=".429 .442 8.896 .442 8.896 8.72 .429 8.72 .429 .442"/>
  </defs>
  <g fill="none" fill-rule="evenodd">
    <path fill="#FFFFFF" d="M215.336894 34.9684112C216.178261 34.0442746 216.663531 33.4574015 217.20466 32.9256746 221.488883 28.7153966 226.598182 27.9056161 232.11769 29.692938 237.227571 31.3467478 239.693487 35.289421 240.431283 40.4104844 240.667518 42.0544259 240.793781 43.7273917 240.801927 45.3881673 240.839166 53.1469673 240.826365 60.9063478 240.811819 68.6651478 240.807164 70.8831917 240.435356 71.1925917 238.255133 70.9778112 234.864644 70.6428698 232.957312 68.4764893 232.933456 64.7404698 232.89098 57.9969429 233.039354 51.2493527 232.853741 44.5104698 232.792064 42.2523722 232.271301 39.8857234 231.405496 37.7971283 229.928739 34.2358356 226.602255 32.6046649 222.850432 33.5653722 220.798217 34.0912941 218.893213 35.263299 216.98879 36.2692844 215.584766 37.0111478 215.148954 38.2754502 215.160591 39.903138 215.228087 49.3296795 215.195502 58.756221 215.190848 68.1833429 215.189684 71.10726 214.550803 71.5728112 211.667695 70.7856698 209.16454 70.1018551 207.773898 68.4312112 207.54581 65.7992795 207.49577 65.2228551 207.495188 64.6406259 207.495188 64.061299 207.491697 52.3865283 207.469587 40.712338 207.516135 29.0375673 207.521954 27.4621234 207.705821 25.8443039 208.105558 24.3245868 208.661814 22.2087088 210.039655 20.6141088 212.031356 19.6185722 214.385556 18.4407624 215.180374 18.9063137 215.189102 21.4738112 215.202485 25.099538 215.187356 28.7252649 215.198994 32.3509917 215.201321 33.0475771 215.26998 33.7447429 215.336894 34.9684112M151.34783 34.5236995C154.180317 31.6978849 157.121029 29.5216361 161.114324 28.9759776 169.518105 27.8283532 176.303156 33.0155922 176.617359 41.4901337 176.961237 50.7605239 176.739549 60.0512312 176.796571 69.3326507 176.805299 70.6956361 176.193184 71.05728 174.923569 71.0143239 171.38587 70.8941629 169.183536 68.6900507 169.127678 64.7613093 169.03458 58.2360459 169.199828 51.705558 169.033417 45.1826166 168.975231 42.9065239 168.515563 40.5596117 167.777184 38.402519 166.800826 35.5470995 164.67006 33.6692215 161.517552 33.3754946 157.590589 33.0103678 154.486956 34.832519 151.81099 37.4360068 151.358304 37.8771776 151.36645 38.9127678 151.364122 39.6743678 151.336775 49.2471922 151.349576 58.8194361 151.344921 68.392841 151.343757 71.0056166 150.827649 71.4055727 148.223833 70.8610751 145.24879 70.2393727 143.576529 68.4915239 143.535799 65.1769385 143.423501 55.89668 143.394408 46.6111971 143.566638 37.3320995 143.636461 33.5757629 145.177222 30.3964312 149.116403 29.0444751 150.943439 28.4169678 151.299536 28.6863141 151.342012 30.6170166 151.371105 31.9190507 151.34783 33.2216654 151.34783 34.5236995M121.677299 46.5750327L126.028436 46.5750327C127.479009 46.5744522 128.935983 46.4879595 130.377828 46.5965107 131.888332 46.7102863 132.364874 46.0421449 132.079182 44.6971546 131.616604 42.5133595 131.330912 40.2523595 130.546567 38.184662 129.081447 34.3209351 125.777655 32.2613644 121.718029 32.3884912 117.503047 32.520262 114.254531 34.300618 112.7545 38.373901 112.012631 40.3864522 111.717047 42.5679254 111.283562 44.6861254 111.015908 45.9928034 111.438337 46.6615254 112.975607 46.6040571 115.87268 46.4955059 118.776735 46.5727107 121.677299 46.5750327M124.498149 50.9495888C120.718396 50.9501693 116.937481 51.009379 113.160056 50.9205644 111.670498 50.8857351 110.96354 51.2914961 111.203848 52.8582327 111.521542 54.9299937 111.620458 57.05574 112.14704 59.0711937 113.72504 65.1117498 118.343832 67.9520766 124.541206 66.8677254 127.630292 66.3278717 130.310914 64.9654668 132.624383 62.8588766 133.158529 62.3724278 133.674638 61.770462 134.314682 61.5260766 134.836027 61.3269693 135.661684 61.3943059 136.106806 61.699062 136.437301 61.9254522 136.57462 62.7810912 136.437883 63.2524473 136.24587 63.9130424 135.785038 64.5318424 135.32537 65.0728571 126.987339 74.8801985 109.734655 72.2714863 104.895921 60.2884766 101.928443 52.9400815 101.99012 45.371101 105.47487 38.1213888 108.380671 32.0761888 113.567357 29.0953839 120.119082 28.7331595 130.246328 28.1724083 136.948173 34.1549156 138.270737 44.6158863 138.406892 45.6932717 138.537228 46.7776229 138.563412 47.8613937 138.627416 50.5101595 138.21837 50.9315937 135.618045 50.9443644 131.911607 50.96294 128.204587 50.9490083 124.498149 50.9495888M48.5776128 46.5688215C51.6230597 46.5688215 54.6696704 46.5351532 57.7145354 46.5862361 58.8671969 46.6053922 59.3262832 46.1868605 59.1115774 45.0572312 58.7735177 43.2844215 58.58325 41.4686556 58.0700509 39.7480898 56.6101681 34.8505141 53.442531 32.3950507 48.8097743 32.3729922 43.9576571 32.3509337 40.5747323 34.9294605 39.178854 39.878119 38.7314049 41.4645922 38.6202699 43.1433629 38.3019934 44.7693093 38.0035 46.2954117 38.730823 46.6274507 40.0935354 46.5943629 42.9202035 46.5258654 45.749781 46.5734654 48.5776128 46.5688215M51.3431858 50.9503434C47.4889558 50.9509239 43.6335619 50.9921385 39.7799137 50.9282849 38.4579314 50.9062263 37.9104027 51.2417483 38.1623473 52.661041 38.5405553 54.7949141 38.5556836 57.0146995 39.1241593 59.0887824 40.8377323 65.3446995 45.5653319 68.0787971 51.9593739 66.7767629 54.8948496 66.179441 57.3945133 64.7862702 59.6224491 62.845119 59.9506173 62.5589385 60.206635 62.0649434 60.5732058 61.9738068 61.4011903 61.7671532 62.2768872 61.7520605 63.1333827 61.6591824 63.0827611 62.5188849 63.3742721 63.7048215 62.9198407 64.1784995 61.2801637 65.8886166 59.5904469 67.7154117 57.5585973 68.8589727 46.5626372 75.0475532 32.7196438 68.4067727 30.4823982 55.9175776 29.4303982 50.044202 29.5467699 44.1917239 32.1296394 38.6486459 35.0819889 32.312041 40.30475 29.2499678 47.1247124 28.6967629 59.7242743 27.6751044 64.6613429 37.6467239 65.3816836 45.9865922 65.807604 50.9155141 65.7063606 50.9491824 60.7250708 50.9491824 57.5975819 50.9491824 54.4706748 50.9491824 51.3431858 50.9503434M12.9103907 71.3265683C8.83156327 71.0165878 5.24615177 69.8678024 2.28100133 67.1041 1.70612522 66.5671488 1.18419823 65.9349976.782134071 65.2616317.217149558 64.3142756.0559747788 63.1405293 1.15626903 62.6122854 1.65957655 62.3708024 2.85296814 62.8421585 3.32020044 63.3605341 6.27487743 66.6414512 9.87425354 68.0386854 14.2498288 67.4761927 16.6686142 67.1650512 18.4997226 66.034261 19.3957845 63.6919927 20.3127934 61.294578 19.6262004 59.1247146 17.7933465 57.5823585 15.0818863 55.3010415 12.0986982 53.3442171 9.28599469 51.1789976 7.39553673 49.7237146 5.37881549 48.3433146 3.8019792 46.587339-1.83622876 40.3082024.324211504 32.3764171 8.28927124 29.6307098 14.6082535 27.452139 20.733477 28.8644659 24.3939482 33.3574415 24.7581916 33.8044171 25.2079681 34.2670659 25.3435412 34.7929878 25.4843509 35.3403878 25.5093708 36.214022 25.1876031 36.5019439 24.8507071 36.8026366 23.8824947 36.8101829 23.4682115 36.5327098 22.4546142 35.8547 21.5899726 34.9503 20.6851827 34.116139 18.4450279 32.0525049 15.7964084 31.3506951 12.8260212 31.7924463 10.3874527 32.1546707 8.18104558 33.8856854 7.83716726 35.7734317 7.40659204 38.1424024 8.57845487 39.8263976 10.4159637 41.1249488 13.4963221 43.3006171 16.7407646 45.2736951 19.6459836 47.6589195 21.6307027 49.2883488 23.4920677 51.2695537 24.826269 53.4487049 28.837019 59.9977683 26.3763398 66.9566561 19.1898066 69.7348707 17.1905412 70.5075 15.0085721 70.8087732 12.9103907 71.3265683M87.1456319 59.2409283C87.8432801 57.6997332 88.4164106 56.4754844 88.9546296 55.2367234 92.3328996 47.4616698 95.7030235 39.6831332 99.0772204 31.906338 99.2791252 31.4413673 99.4804482 30.9752356 99.707373 30.5230356 100.258975 29.4253332 101.264426 28.9650063 102.199473 29.6552063 102.760966 30.0702551 103.200851 31.2805722 103.016402 31.9458112 102.538114 33.6768259 101.695583 35.3085771 100.978152 36.9716746 96.5298442 47.2840405 92.1065566 57.6074356 87.5820257 67.8855527 87.0763907 69.035499 85.9871518 69.9300307 85.168477 70.9424015 84.3591119 70.0043332 83.3286407 69.1800405 82.7758752 68.1102015 77.8184416 58.515899 72.926758 48.8885088 68.0560212 39.2500893 66.1975655 35.5721185 66.7450942 32.028821 69.4024416 29.7173185 71.1357978 28.2092112 71.7880611 28.340982 72.7888575 30.3709478 77.1783973 39.2762112 81.5714283 48.1803137 85.969696 57.0820941 86.2769173 57.7043771 86.6324327 58.3022795 87.1456319 59.2409283M191.252844 32.274019C193.989324 27.5267898 198.523746 28.8143117 202.63283 28.7794824 202.821352 28.7783215 203.304877 29.9125946 203.165813 30.370019 202.401251 32.8736629 199.774742 34.7643117 197.05979 34.8687995 195.536485 34.9274288 194.007361 34.9314922 192.484056 34.8740239 191.322667 34.8304873 190.743136 35.1863263 190.748954 36.4546922 190.785029 44.5716532 190.77281 52.6886141 190.798412 60.8055751 190.80074 61.451658 190.949695 62.1000629 191.064903 62.741502 191.73695 66.4926141 194.112678 67.9862093 197.852282 67.1061898 198.542366 66.9436532 199.308673 67.1038678 200.040069 67.1148971 199.639169 67.8852044 199.432609 68.90338 198.808275 69.3875068 193.178795 73.75858 184.06631 69.713741 183.160939 62.4849263 183.053295 61.6258044 183.057368 60.7492678 183.056786 59.880858 183.050386 49.5168288 183.006746 39.152219 183.096352 28.7887702 183.113226 26.9492044 183.496671 25.0492678 184.070965 23.2950337 184.731956 21.2789995 186.354178 19.9641946 188.346461 19.2182678 190.172914 18.5344532 190.723352 18.9152532 190.744299 20.8517605 190.778047 23.967819 190.754773 27.0850385 190.765828 30.2010971 190.768156 30.8251215 190.820523 31.4497263 190.850198 32.0737507 190.984025 32.1405068 191.119016 32.2072629 191.252844 32.274019M19.888735 93.8079902C19.7642173 92.0688488 19.7031221 90.3279659 19.5012173 88.6039171 19.1067173 85.2225756 17.1225801 83.2959366 13.7047438 82.8570878 10.5941288 82.4571317 8.06362655 83.9629171 6.97206018 87.1410878 5.49704912 91.437278 5.47842965 95.8478244 6.71953363 100.188132 7.69647389 103.607785 10.1111863 105.216898 13.3294451 104.977156 16.6204363 104.73161 19.0491133 102.440424 19.506454 99.0050976 19.7351243 97.2862732 19.7677084 95.5413268 19.888735 93.8079902M19.0875159 105.479278C16.7548456 107.88598 13.8665004 108.235434 10.7931243 108.015429 6.15920398 107.68281 2.44171062 104.971351.997538053 100.587507-.380302655 96.4039317-.298842478 92.176239 1.04525044 87.9758293 3.62462876 79.9151756 14.2714739 77.5357561 19.7205779 82.8559268 20.7696686 82.0269902 21.733808 81.0477073 22.8876332 80.4062683 24.3155137 79.613322 24.902027 79.9964439 24.9055181 81.6183268 24.9258832 90.3215805 25.0626199 99.029478 24.8356951 107.727507 24.6407726 115.189678 18.1268677 119.826034 10.2374496 118.251171 8.08457345 117.82219 6.01781239 116.781376 4.04182124 115.768424 3.42970619 115.454961 3.24758451 114.306756 2.86879469 113.540512 3.6409208 113.649644 4.52825487 113.550961 5.16364425 113.903898 7.40729027 115.151366 9.78825487 115.588473 12.3036288 115.468312 16.8252504 115.252951 19.5006354 112.443971 19.5332195 107.905717 19.5378743 107.19462 19.5338013 106.482941 19.5338013 105.771844 19.3848456 105.674322 19.2364717 105.5768 19.0875159 105.479278M150.43408 94.0710093L150.452117 94.0710093C150.452117 92.6946727 150.468991 91.3177556 150.448626 89.941419 150.395095 86.1653459 148.341135 83.5786922 144.89537 82.9209995 141.583432 82.2894288 138.485036 84.0837166 137.235786 87.5974093 135.59669 92.2076434 135.657204 96.8666385 137.513914 101.411858 138.861498 104.711931 141.425166 106.171858 144.530544 105.642453 147.912306 105.065448 150.228684 102.529297 150.418952 99.0695898 150.509721 97.4082337 150.43408 95.7375898 150.43408 94.0710093M150.23683 105.523453C147.888449 107.678804 145.431843 108.689434 142.509168 108.607004 135.496029 108.410219 131.276974 104.204004 130.626456 96.2368093 130.423969 93.7569654 130.629365 91.1169068 131.273483 88.7177507 133.510728 80.3894922 142.936834 77.3361263 149.86444 82.5320727 150.034925 82.6603605 150.228102 82.7602044 150.365421 82.8449556 151.45175 81.9904776 152.419963 81.0065507 153.580188 80.372658 155.00225 79.5965459 155.567817 79.9912776 155.573635 81.6392824 155.601564 90.1950922 155.565489 98.7514824 155.602728 107.307873 155.609129 108.764897 154.872496 109.036565 153.68085 108.865321 151.909091 108.611648 150.823925 107.55458 150.23683 105.523453M192.363728 94.7098941C192.909511 97.0858307 193.235933 99.5447771 194.058099 101.826675 195.145593 104.846953 197.484082 106.249992 200.419557 106.167562 203.34456 106.086294 205.621953 104.503304 206.598894 101.52308 208.083796 96.9917917 208.090779 92.382138 206.589584 87.8508502 205.584714 84.813738 203.379471 83.2516454 200.44865 83.1697966 197.375856 83.0844649 195.017002 84.53046 193.956274 87.625621 193.192876 89.8552746 192.899037 92.2457234 192.363728 94.7098941M186.951281 94.6651966C186.939644 90.8693868 187.617509 87.2535283 190.170703 84.2959429 193.668836 80.2423966 198.282391 79.4152015 203.273573 80.3613966 208.147219 81.2849527 211.246197 84.3110356 212.606 89.0652307 213.646363 92.7025673 213.678947 96.3822795 212.683387 100.020197 210.976214 106.25928 205.701086 109.813026 199.176126 109.233699 192.099564 108.605031 187.789157 104.419133 187.106055 97.4875283 187.014121 96.550621 187.000739 95.6061673 186.951281 94.6651966M222.757858 84.1976083C225.806214 80.7413839 229.146081 79.4080034 233.231891 80.3350424 237.072738 81.2063546 239.43392 83.6751693 239.890097 87.4686571 240.321254 91.0473644 240.186845 94.6968912 240.242121 98.3156522 240.28867 101.35973 240.221174 104.40613 240.261323 107.450789 240.278778 108.803906 239.76267 109.263652 238.405194 109.025652 236.444331 108.682584 235.214865 107.703301 235.064745 105.60716 234.832584 102.359911 234.859931 99.0940863 234.796508 95.8358083 234.754615 93.662462 234.882623 91.4757644 234.689446 89.3169302 234.45263 86.6710668 233.486745 84.3473741 230.669969 83.401179 228.462398 82.6598961 224.697192 83.8516376 223.175632 85.8670912 222.750876 86.4295839 222.636831 87.3357254 222.631595 88.0862961 222.590283 94.1761937 222.640323 100.267252 222.575154 106.356569 222.565263 107.256325 222.098612 108.151438 221.843177 109.048872 220.609055 108.569389 219.181756 108.325003 218.208307 107.527994 217.576409 107.010779 217.387305 105.69075 217.375668 104.725979 217.305263 98.564101 217.315154 92.401062 217.350648 86.2386034 217.363449 83.9590278 218.057606 81.9383498 220.133095 80.6618571 221.902526 79.5746034 222.558281 79.9234766 222.614139 81.9186132 222.629849 82.4851693 222.683962 83.0494034 222.757858 84.1976083M61.773696 83.9623946C62.4678531 83.3377898 62.9310124 82.9175166 63.3982447 82.5007263 66.3505942 79.8693751 69.7544659 79.4496824 73.3689704 80.685541 76.8240456 81.8679946 78.7325412 84.5364971 78.9356097 88.0449654 79.2399217 93.3175361 79.1549704 98.6127459 79.2288664 103.899248 79.2434128 104.985921 79.2486496 106.073756 79.2242115 107.160429 79.1805721 109.083585 78.8599681 109.318102 77.0306053 108.965746 75.3176142 108.636609 74.2475765 107.597536 74.0637093 105.932117 73.8338752 103.852809 73.8117646 101.745639 73.7791805 99.6494971 73.7355412 96.8236824 73.7739438 93.9967068 73.7628885 91.1703117 73.7605611 90.5190044 73.7559062 89.8601507 73.6587358 89.2192922 73.259581 86.5861995 72.3542093 84.1992337 69.5100854 83.3917751 66.6170854 82.5692239 64.2291385 83.9020239 62.2147447 85.802541 61.7032912 86.2843459 61.6142668 87.3820483 61.6078664 88.1993751 61.560154 94.2863702 61.6078664 100.375107 61.5525898 106.462682 61.5444438 107.313678 61.1295788 108.889702 60.9183642 108.88738 59.8198155 108.873448 58.4047358 108.78057 57.7140699 108.097336 56.8855035 107.278268 56.2908442 105.845043 56.2634969 104.66259 56.1250146 98.5779166 56.1447978 92.4874385 56.2320765 86.4004434 56.2634969 84.181819 56.850592 82.0357556 58.9383 80.7720337 59.5667071 80.3918141 60.4173841 80.377302 61.1662358 80.1956093 61.3041363 80.8039605 61.4682204 81.4082483 61.572373 82.0218239 61.6643066 82.563419 61.6893265 83.1166239 61.773696 83.9623946M41.2967022 92.2422405C42.530242 92.2422405 43.7643637 92.242821 44.9979035 92.2422405 48.8474788 92.240499 48.9143925 92.1534259 47.967127 88.3175624 47.8635562 87.8972893 47.7594035 87.4735332 47.6133571 87.0671917 46.2966115 83.3961868 43.2220717 81.7510844 39.5191248 82.7245624 36.4713504 83.5267966 33.576023 88.3355576 34.4138991 91.3854405 34.5203792 91.7714649 35.3448726 92.171421 35.8557442 92.1992844 37.664742 92.2979673 39.4824677 92.2375966 41.2967022 92.2422405M43.3105142 95.2363966C40.8387796 95.2369771 38.3658814 95.2915429 35.8964743 95.2172405 34.4156447 95.1725429 33.9181558 95.7158795 34.2387597 97.1566502 34.4261181 98.00126 34.3923704 98.8934698 34.566346 99.7421429 35.9092752 106.303977 40.820742 107.469597 45.9242221 105.28406 47.1600894 104.754655 48.1469212 103.670884 49.3321668 102.986489 49.8535119 102.684636 50.5837442 102.742684 51.2191336 102.637616 51.139419 103.303436 51.2947752 104.152689 50.9404235 104.603148 49.0296004 107.036553 46.5305186 108.562075 43.3925562 108.885987 33.9676137 109.858884 27.9110496 103.911206 28.2886757 94.0191137 28.3410429 92.647421 28.5074544 91.263538 28.7873283 89.9208698 30.3065606 82.6467771 36.937419 78.4521722 44.2094854 80.1158502 48.6915407 81.1415722 52.1157774 85.5503771 52.7342929 91.0911332 53.185815 95.1336502 53.0944633 95.2346551 48.9807243 95.2352356 47.0908482 95.2358161 45.2003903 95.2358161 43.3105142 95.2363966M95.6456522 92.2366098L95.6456522 92.2424146 98.2570327 92.2424146C103.398334 92.2435756 103.874294 91.4993902 101.8663 86.5942683 101.839535 86.5275122 101.804042 86.464239 101.775531 86.3969024 100.699674 83.8712 98.7446301 82.5465268 96.0372429 82.4635171 93.3438204 82.3810878 91.1711611 83.4671805 90.0923956 86.014361 89.4529332 87.5236293 89.1649133 89.1838244 88.7587761 90.7865512 88.5039221 91.7913756 88.9042407 92.2708585 89.9876611 92.2482195 91.8728823 92.2075854 93.7598491 92.2366098 95.6456522 92.2366098L95.6456522 92.2366098zM97.8334398 95.2383122C95.3611235 95.2383122 92.8864796 95.3073902 90.4176544 95.2139317 88.7983425 95.1518195 88.335765 95.8391171 88.6261124 97.3007854 88.7244465 97.7976829 88.7791412 98.3038683 88.861765 98.8042488 90.094723 106.273385 96.2321655 108.696341 102.348079 104.12558 102.754216 103.821985 103.075984 103.36282 103.521688 103.165454 104.17046 102.878693 104.895455 102.764337 105.588449 102.576259 105.452294 103.342502 105.55761 104.2916 105.136927 104.841902 103.391933 107.129605 100.985949 108.459502 98.1348425 108.84959 89.4028934 110.044815 83.199119 104.85119 82.7929819 96.0713122 82.6329708 92.6208927 82.9099354 89.2465171 84.5862695 86.1374244 87.115608 81.444761 91.3224442 79.6713707 96.3881035 79.8362293 101.399068 79.9987659 104.611508 82.8640537 106.219765 87.4429415 106.858064 89.2587073 107.009929 91.2538439 107.295621 93.1799024 107.519055 94.6880098 106.703871 95.2638537 105.250389 95.2412146 102.778654 95.202322 100.305756 95.2301854 97.8334398 95.2301854L97.8334398 95.2383122zM166.183474 82.0723844C168.256636 79.5582917 170.954713 79.9536039 173.553293 79.973921 174.794397 79.9832088 175.133038 80.4452771 174.508122 81.5627161 173.491034 83.3802234 171.999149 84.211482 169.874784 84.1934868 166.185802 84.163882 166.184638 84.2294771 166.184638 87.8714576 166.184056 92.2198917 166.171255 96.5694868 166.195693 100.917921 166.20093 101.852506 166.229441 102.815536 166.450547 103.715872 167.020187 106.044789 168.453886 106.888819 170.82554 106.447067 171.365505 106.346643 171.914779 106.292077 172.459399 106.216033 172.577516 106.397726 172.695052 106.579419 172.813169 106.760531 172.119594 107.360175 171.51737 108.15254 170.718479 108.526375 166.299846 110.594653 161.322629 107.775223 160.907764 102.932794 160.704113 100.556858 160.797793 98.1530576 160.796047 95.7626088 160.791974 90.326921 160.791392 84.8900722 160.832122 79.4549649 160.848996 77.1730673 161.512897 75.1222039 163.611078 73.8962137 164.239485 73.5287649 165.08318 73.5276039 165.82854 73.3592624 165.94724 73.9769015 166.156127 74.592799 166.167764 75.21276 166.208494 77.498721 166.183474 79.7858429 166.183474 82.0723844M116.156161 84.1794971C119.754955 80.0232044 123.747668 79.1321556 128.296637 80.899741 129.403913 81.3298824 131.090721 81.5313117 130.692148 83.3772629 130.412274 84.6752337 128.49505 85.3961995 126.823953 84.9619946 126.270024 84.8180337 125.74286 84.5510093 125.223261 84.2979166 120.733641 82.110058 116.049681 85.0577751 116.042117 90.0946678 116.033971 95.6011751 116.047935 101.107682 116.039789 106.613609 116.036298 109.005219 115.187949 109.54217 112.992015 108.587268 111.491984 107.9348 110.746042 106.732609 110.737896 105.164712 110.705312 98.6446727 110.665163 92.1234727 110.771062 85.6045946 110.805391 83.5101946 111.684579 81.6497312 113.672789 80.563058 115.380544 79.6296337 115.976367 79.971541 116.045608 81.8807654 116.065973 82.444419 116.099139 83.0074922 116.156161 84.1794971M182.764751 94.4570917C182.765333 98.5808771 182.778134 102.704662 182.760096 106.828448 182.751369 108.850287 182.214313 109.28217 180.277888 108.821843 178.527658 108.405633 177.425037 107.284711 177.414563 105.471267 177.373251 98.6720137 177.353468 91.870438 177.465185 85.0723454 177.500096 82.9123502 178.66265 81.2184868 180.724756 80.3227941 182.146236 79.7051551 182.737404 80.0784088 182.751369 81.6521112 182.787444 85.920438 182.763588 90.1887649 182.764751 94.4570917"/>
    <g transform="translate(239.726 .139)">
      <mask id="b" fill="white">
        <use xlink:href="#a"/>
      </mask>
      <path fill="#FFFFFF" d="M8.89591681,4.05958341 C8.55785708,6.15108098 8.57240354,7.88383707 6.2059854,7.7538078 C5.65962035,7.72362244 5.0085208,7.91053951 4.55234381,8.2158761 C3.17217566,9.1394322 2.25865796,8.7249639 1.2677531,7.5349639 C0.220407965,6.27704683 0.159312832,5.2124322 1.05304735,3.85118829 C3.87040575,-0.436875122 2.4273969,-0.383470244 7.15557832,2.36397854 C7.92363142,2.81037366 8.47116018,3.63466634 8.89591681,4.05958341" mask="url(#b)"/>
    </g>
    <path fill="#FFFFFF" d="M236.491753 15.6107683C234.963793 15.8539927 234.050857 15.1318659 233.59468 13.6847098 231.99806 8.62459756 231.010647 10.0148659 236.270647 7.79391951 237.740421 7.17337805 238.680704 7.59365122 239.67801 8.69831951 240.665423 9.79253902 240.839399 10.7248024 239.91308 11.9298951 239.487742 12.4825195 239.23347 13.2168366 239.072295 13.9081976 238.743545 15.317622 237.866684 15.7895585 236.491753 15.6107683M258.808059 11.6451659C259.444031 12.2012732 260.364531 12.9669366 261.240227 13.7807805 263.415214 15.8014585 263.40765 15.8107463 261.432241 17.9208195 261.038323 18.3410927 260.590292 18.7195707 260.248159 19.1775756 259.380608 20.3385512 258.431597 20.4993463 257.052011 19.943239 255.609584 19.3610098 254.965466 18.5843171 255.223812 17.0291902 255.327964 16.4016829 255.243013 15.732961 255.177845 15.0897805 254.98234 13.1672049 256.454442 11.5499659 258.808059 11.6451659M237.465667 17.111039C237.569238 17.160961 238.267468 17.2712537 238.525813 17.6671463 239.425948 19.0458049 240.288263 20.4749659 240.94169 21.9807512 241.405431 23.0505902 238.91915 25.4474244 237.663499 25.2605073 237.310311 25.2076829 236.973415 25.0526927 236.628373 24.9482049 232.260362 23.6293366 232.345313 23.654878 233.621329 19.4266049 234.174094 17.5940049 235.344212 17.109878 237.465667 17.111039M257.762518 24.8846995C257.762518 25.3264507 257.774155 25.6880946 257.760772 26.049158 257.664184 28.7344946 257.541412 28.8291141 254.772929 28.454119 254.270786 28.386202 253.755259 28.2741678 253.260098 28.3229288 251.623912 28.4831434 250.811056 27.7906215 250.293202 26.2087922 249.770111 24.6095483 250.273418 23.7481044 251.602965 23.0480361 251.914259 22.8843385 252.157476 22.5877093 252.422803 22.3421629 253.430582 21.4087385 254.090991 20.1368898 256.021016 21.0732166 257.935912 22.0025776 258.013881 23.3040312 257.762518 24.8846995M257.781894 8.37115659C258.163593 10.0812737 256.609449 10.4144737 255.472498 11.1255712 254.389659 11.8041615 253.782199 11.2608249 253.106662 10.4783273 252.690051 9.99652244 252.140777 9.54200049 251.557173 9.30748341 249.923314 8.65095171 249.785414 7.46443463 250.045504 5.95806878 250.324796 4.3437322 251.323847 4.00472732 252.791876 3.82303463 257.681232 3.21642488 256.799135 2.15993707 257.744073 7.76164439 257.767929 7.90328341 257.763274 8.05014683 257.781894 8.37115659M249.011949 27.6990205C248.989257 28.581362 244.665467 32.2001229 244.148777 31.6765229 242.698204 30.2084693 241.440226 28.4553961 240.515071 26.6106059 240.065876 25.7131717 242.174531 23.6123863 243.119469 23.6472156 247.03014 23.7882741 249.075954 25.1953766 249.011949 27.6990205"/>
  </g>
</svg>
