<svg xmlns="http://www.w3.org/2000/svg" width="288" height="96" viewBox="0 0 288 96">
  <g fill="#FFFFFF" fill-rule="evenodd">
    <g transform="translate(167.554 16.673)">
      <path d="M.364821015 19.5027993L1.43261942 18.2717377C3.85002418 20.5114324 6.07911178 21.5515539 9.31322539 21.5515539 12.608108 21.5515539 14.8682479 19.6900547 14.8682479 17.1672996L14.8682479 17.1049928C14.8682479 14.769493 13.6448541 13.4134828 8.6541153 12.4048498 3.37956516 11.3335749 1.24563783 9.53471755 1.24563783 6.19058472L1.24563783 6.12626803C1.24563783 2.84846179 4.22565683.323696782 8.30786548.323696782 11.5092573.323696782 13.6134679 1.20771627 15.8425555 3.00456376L14.8058094 4.29826715C12.7343206 2.50108468 10.6611623 1.80666543 8.2437575 1.80666543 5.01131337 1.80666543 2.87771994 3.66615469 2.87771994 5.97016607L2.87771994 6.03280784C2.87771994 8.3662977 4.06972754 9.78662458 9.28050361 10.8595743 14.3664027 11.8996958 16.5016656 13.7297066 16.5016656 16.9468809L16.5016656 17.0095227C16.5016656 20.5740742 13.4562031 23.0341875 9.21806511 23.0341875 5.70180965 23.0341875 3.00226303 21.8674426.364821015 19.5027993M20.8954657 11.7415169L20.8954657 11.6792101C20.8954657 5.65421034 25.3222547.259313097 31.975794.259313097 38.6313367.259313097 42.9956872 5.59156856 42.9956872 11.6165684L42.9956872 11.6792101C42.9956872 17.703875 38.5688982 23.0987722 31.9133555 23.0987722 25.2598162 23.0987722 20.8954657 17.7665167 20.8954657 11.7415169M41.299831 11.7415169L41.299831 11.6792101C41.299831 6.2220061 37.3455044 1.74228175 31.9133555 1.74228175 26.48321 1.74228175 22.5913219 6.15936433 22.5913219 11.6165684L22.5913219 11.6792101C22.5913219 17.1360792 26.5456485 21.6158035 31.975794 21.6158035 37.4079429 21.6158035 41.299831 17.198721 41.299831 11.7415169M47.5779714 11.7415169L47.5779714 11.6792101C47.5779714 5.43379169 52.2244638.259313097 58.564809.259313097 62.4897528.259313097 64.8450529 1.71112835 67.1031894 3.79271118L65.9419002 4.99094449C64.0263407 3.13145522 61.8303088 1.74228175 58.5337567 1.74228175 53.260876 1.74228175 49.2738276 6.06389424 49.2738276 11.6165684L49.2738276 11.6792101C49.2738276 17.2610278 53.3233145 21.6158035 58.564809 21.6158035 61.7351485 21.6158035 63.9017976 20.3847419 66.1305513 18.1762006L67.229402 19.2491504C64.905488 21.5514869 62.3945925 23.0987722 58.5027044 23.0987722 52.2244638 23.0987722 47.5779714 18.0824055 47.5779714 11.7415169"/>
      <polygon points="71.938 .64 73.572 .64 73.572 22.718 71.938 22.718"/>
      <path d="M88.6703799,0.481808642 L90.2380201,0.481808642 L100.472257,22.7199737 L98.6829098,22.7199737 L95.8898724,16.5351871 L82.9250368,16.5351871 L80.1303299,22.7199737 L78.4344738,22.7199737 L88.6703799,0.481808642 Z M95.1977067,15.0542284 L89.4229808,2.27865613 L83.6155331,15.0542284 L95.1977067,15.0542284 Z"/>
      <polygon points="105.119 .64 106.75 .64 106.75 21.204 119.653 21.204 119.653 22.718 105.119 22.718"/>
      <polygon points="1.24 31.898 3.103 31.898 3.103 45.454 1.24 45.454"/>
      <polygon points="16.797 45.455 8.896 34.748 8.896 45.455 7.074 45.455 7.074 31.9 8.876 31.9 16.797 42.606 16.797 31.9 18.619 31.9 18.619 45.455"/>
      <polygon points="32.23 45.455 24.331 34.748 24.331 45.455 22.507 45.455 22.507 31.9 24.311 31.9 32.23 42.606 32.23 31.9 34.053 31.9 34.053 45.455"/>
      <path d="M43.5542613,45.6786866 C39.7448454,45.6786866 37.0105737,42.5238191 37.0105737,38.6966411 C37.0105737,34.8711381 39.7448454,31.6958366 43.5542613,31.6958366 C47.3620077,31.6958366 50.0962795,34.8711381 50.0962795,38.6966411 C50.0962795,42.5238191 47.3620077,45.6786866 43.5542613,45.6786866 M43.5542613,33.3238527 C40.7174836,33.3238527 38.8530101,35.6241793 38.8530101,38.6966411 C38.8530101,41.7704429 40.7174836,44.0506705 43.5542613,44.0506705 C46.3893696,44.0506705 48.2334755,41.7704429 48.2334755,38.6966411 C48.2334755,35.6241793 46.3893696,33.3238527 43.5542613,33.3238527"/>
      <polygon points="57.387 45.455 55.706 45.455 50.561 31.9 52.424 31.9 56.537 43.075 60.667 31.9 62.532 31.9"/>
      <path d="M72.1323263,45.4545162 L70.7970774,42.0149133 L64.7605773,42.0149133 L63.4036252,45.4545162 L61.5591855,45.4545162 L66.9896649,31.8997741 L68.54829,31.8997741 L73.9764321,45.4545162 L72.1323263,45.4545162 Z M67.7769909,33.9337893 L65.2660954,40.5708026 L70.2698561,40.5708026 L67.7769909,33.9337893 Z"/>
      <polygon points="79.709 33.528 79.709 45.455 77.865 45.455 77.865 33.528 73.288 33.528 73.288 31.9 84.266 31.9 84.266 33.528"/>
      <polygon points="86.535 31.898 88.397 31.898 88.397 45.454 86.535 45.454"/>
      <path d="M97.9796587,45.6786866 C94.1702428,45.6786866 91.4359711,42.5238191 91.4359711,38.6966411 C91.4359711,34.8711381 94.1702428,31.6958366 97.9796587,31.6958366 C101.787405,31.6958366 104.521677,34.8711381 104.521677,38.6966411 C104.521677,42.5238191 101.787405,45.6786866 97.9796587,45.6786866 M97.9796587,33.3238527 C95.142881,33.3238527 93.2784075,35.6241793 93.2784075,38.6966411 C93.2784075,41.7704429 95.142881,44.0506705 97.9796587,44.0506705 C100.814767,44.0506705 102.657203,41.7704429 102.657203,38.6966411 C102.657203,35.6241793 100.814767,33.3238527 97.9796587,33.3238527"/>
      <polygon points="117.201 45.455 109.3 34.748 109.3 45.455 107.477 45.455 107.477 31.9 109.281 31.9 117.201 42.606 117.201 31.9 119.025 31.9 119.025 45.455"/>
      <polygon points="1.205 55.573 1.205 78.4 2.892 78.4 2.892 68.062 15.744 68.062 15.744 66.499 2.892 66.499 2.892 57.139 17.203 57.139 17.203 55.573"/>
      <path d="M20.836867 67.0515243L20.836867 66.9872076C20.836867 60.7582033 25.4135752 55.1817454 32.2924941 55.1817454 39.1717469 55.1817454 43.6823437 60.6922117 43.6823437 66.921216L43.6823437 66.9872076C43.6823437 73.214202 39.1076389 78.7906599 32.2267166 78.7906599 25.3477977 78.7906599 20.836867 73.2785187 20.836867 67.0515243M41.9297253 67.0515243L41.9297253 66.9872076C41.9297253 61.3444231 37.8418404 56.7142915 32.2267166 56.7142915 26.6132624 56.7142915 22.5894855 61.2801064 22.5894855 66.921216L22.5894855 66.9872076C22.5894855 72.6279821 26.6773703 77.2564388 32.2924941 77.2564388 37.9059483 77.2564388 41.9297253 72.6922988 41.9297253 67.0515243M49.4240807 55.5713303L58.9658177 55.5713303C61.7551822 55.5713303 63.9952884 56.4533399 65.3595862 57.8220794 66.4290541 58.899049 67.0774795 60.4312601 67.0774795 62.0609512L67.0774795 62.1272778C67.0774795 65.9434013 64.2550592 68.1264839 60.4256096 68.648387L67.9219017 78.3994 65.7809625 78.3994 58.5427719 68.9421669 51.1125912 68.9421669 51.1125912 78.3994 49.4240807 78.3994 49.4240807 55.5713303zM58.7701548 67.4099558C62.5685521 67.4099558 65.3906385 65.4861498 65.3906385 62.1932694L65.3906385 62.1272778C65.3906385 59.0625206 62.9895946 57.1387146 58.8689879 57.1387146L51.1125912 57.1387146 51.1125912 67.4099558 58.7701548 67.4099558zM72.5278925 68.9110135L72.5278925 55.5713303 74.216403 55.5713303 74.216403 68.7475419C74.216403 74.1273649 77.1046006 77.2252854 81.9066884 77.2252854 86.5147827 77.2252854 89.4687579 74.4214798 89.4687579 68.9110135L89.4687579 55.5713303 91.1555989 55.5713303 91.1555989 68.7143786C91.1555989 75.2686512 87.358871 78.7578315 81.8409109 78.7578315 76.3887283 78.7578315 72.5278925 75.3014795 72.5278925 68.9110135"/>
      <polygon points="117.373 55.573 108.256 69.073 99.135 55.573 97.546 55.573 97.546 78.4 99.168 78.4 99.168 58.574 108.159 71.713 108.289 71.713 117.278 58.574 117.278 78.4 118.965 78.4 118.965 55.573"/>
    </g>
    <polygon points="36.596 95.22 34.527 95.22 34.527 54.247 12.686 54.247 12.686 95.22 10.619 95.22 10.619 52.167 36.596 52.167"/>
    <polygon points="74.114 95.22 72.045 95.22 72.045 26.44 43.084 26.44 43.084 95.22 41.017 95.22 41.017 24.362 74.114 24.362"/>
    <path d="M119.679029 37.4879232L78.1984347 37.4879232 86.2537577 26.0438665 111.623315 26.0438665 119.679029 37.4879232zM82.1950195 35.4078273L115.682444 35.4078273 110.553415 28.1220015 87.3240481 28.1220015 82.1950195 35.4078273zM72.2160664 22.2472995L42.7170178 22.2472995 42.7170178 13.3115937 72.2160664 13.3115937 72.2160664 22.2472995zM44.7860635 20.1672036L70.1470207 20.1672036 70.1470207 15.3897286 44.7860635 15.3897286 44.7860635 20.1672036z"/>
    <polygon points="56.532 10.853 58.601 10.853 58.601 .015 56.532 .015"/>
    <polygon points="63.174 10.853 61.105 10.853 61.105 5.434 63.174 5.434"/>
    <polygon points="54.023 10.853 51.956 10.853 51.956 5.434 54.023 5.434"/>
    <path d="M36.6148771,49.768685 L10.5764862,49.768685 L10.5827407,48.7231467 C10.6147947,42.3644223 16.4533109,37.1932037 23.5954862,37.1932037 C30.7400069,37.1932037 36.5785232,42.3644223 36.6105772,48.7231467 L36.6148771,49.768685 Z M12.7225397,47.6885892 L34.4707782,47.6885892 C33.8468981,42.9605282 29.2002429,39.2713387 23.5954862,39.2713387 C17.9950294,39.2713387 13.3464197,42.9605282 12.7225397,47.6885892 L12.7225397,47.6885892 Z"/>
    <polygon points="80.604 95.22 80.604 41.766 116.997 41.766 116.997 95.22 119.066 95.22 119.066 39.689 78.535 39.689 78.535 95.22"/>
    <polygon points="126.354 95.22 126.354 21.066 143.344 27.898 143.344 95.22 145.413 95.22 145.413 26.489 124.287 17.997 124.287 95.22"/>
    <path d="M41.0167884 65.3170484L5.12179694 65.3170484C3.92289969 65.3170484 2.94759854 64.3362189 2.94759854 63.1294967 2.94759854 61.9247353 3.92289969 60.9439058 5.12179694 60.9439058L10.617101 60.9439058 10.617101 58.3002546 5.05534355 58.3002546C2.44372552 58.3386877.316435384 60.505062.316435384 63.1294967.316435384 65.757853 2.44372552 67.9242274 5.05964348 67.9606996L41.0167884 67.9606996 41.0167884 65.3170484zM41.0167884 79.3509891L5.22030431 79.3509891C4.01945255 79.3509891 3.0441514 78.3678065 3.0441514 77.1634373 3.0441514 75.9586759 4.01945255 74.9778464 5.22030431 74.9778464L10.617101 74.9778464 10.617101 72.3341952 5.05964348 72.3341952 4.70978595 72.3361561 4.70978595 72.3596866C2.27641935 72.6157768.412988244 74.6637143.412988244 77.1634373.412988244 79.7768911 2.44997995 81.8977731 5.05964348 81.9903264L41.0167884 81.9926794 41.0167884 79.3509891z"/>
    <polygon points="10.617 86.366 1.799 86.366 1.799 89.01 10.617 89.01"/>
    <polygon points="78.535 58.3 36.595 58.3 36.595 60.944 78.535 60.944"/>
    <polygon points="78.535 86.366 36.595 86.366 36.595 89.01 78.535 89.01"/>
    <polygon points="78.535 72.334 36.595 72.334 36.595 74.978 78.535 74.978"/>
    <polygon points="74.114 67.961 124.287 67.961 124.287 65.317 74.114 65.317"/>
    <polygon points="124.287 79.351 74.114 79.349 74.114 81.993 124.287 81.993"/>
    <polygon points="119.066 60.944 153.516 60.944 153.516 58.3 119.066 58.3"/>
    <path d="M149.74856 65.3170484L145.413063 65.3170484 145.413063 67.9606996 149.675852 67.9606996C150.874359 67.9606996 151.84966 68.9415291 151.84966 70.1462905 151.84966 71.3530128 150.874359 72.3318814 149.675852 72.3318814L119.065859 72.3318814 119.065859 74.9755326 149.74856 74.9755326 149.754814 74.9755326C152.360178 74.9323934 154.480823 72.7664112 154.480823 70.1462905 154.480823 67.5285229 152.360178 65.3601877 149.74856 65.3170484M149.74856 79.3509891L145.413063 79.3509891 145.413063 81.9926794 149.675852 81.9926794C150.874359 81.9926794 151.84966 82.9735089 151.84966 84.1802312 151.84966 85.3849926 150.874359 86.3658221 149.675852 86.3658221L119.065859 86.3658221 119.065859 89.0094733 149.74856 89.0094733 149.754814 89.0094733C152.360178 88.966334 154.480823 86.8003519 154.480823 84.1802312 154.480823 81.5601105 152.360178 79.3941283 149.74856 79.3509891"/>
  </g>
</svg>
