<svg xmlns="http://www.w3.org/2000/svg" width="231" height="50" viewBox="0 0 231 50">
  <g fill="#002F54" fill-rule="evenodd">
    <g transform="translate(52.535 19.922)">
      <polygon points="3.978 1.347 .357 1.347 .357 .627 8.369 .627 8.369 1.347 4.75 1.347 4.75 11.131 3.978 11.131"/>
      <path d="M10.2551639.176894947L10.9810559.176894947 10.9810559 4.90329122C11.4860242 4.00369016 12.3322407 3.29757314 13.7120272 3.29757314 15.6253838 3.29757314 16.7378921 4.6190492 16.7378921 6.44916888L16.7378921 11.1306848 16.0110139 11.1306848 16.0110139 6.58380984C16.0110139 5.00900931 15.137182 3.97277261 13.6064967 3.97277261 12.1251247 3.97277261 10.9810559 5.11373005 10.9810559 6.70349069L10.9810559 11.1306848 10.2551639 11.1306848 10.2551639.176894947 10.2551639.176894947zM25.1079395 6.94454787C25.0043816 5.39867021 24.1285771 3.97347074 22.3917622 3.97347074 20.8936237 3.97347074 19.7367334 5.24807181 19.6035874 6.94454787L25.1079395 6.94454787zM18.8313409 7.31855053L18.8313409 7.28962766C18.8313409 5.06855053 20.3748476 3.29827128 22.4213502 3.29827128 24.5437952 3.29827128 25.8939937 5.03863032 25.8939937 7.30458777 25.8939937 7.44022606 25.8939937 7.48410904 25.8791997 7.60478723L19.6035874 7.60478723C19.7367334 9.51070479 21.0859456 10.6207447 22.5712626 10.6207447 23.742947 10.6207447 24.5437952 10.0951463 25.1681018 9.41994681L25.6710976 9.86974734C24.8998373 10.709508 23.9954312 11.3109043 22.5397021 11.3109043 20.5523756 11.3109043 18.8313409 9.70518617 18.8313409 7.31855053L18.8313409 7.31855053zM38.1499303 5.90871011L38.1499303 5.87978723C38.1499303 4.07859043 36.8451 2.57759309 35.0047271 2.57759309 33.1643542 2.57759309 31.8871394 4.04867021 31.8871394 5.84886968L31.8871394 5.87978723C31.8871394 7.6799867 33.1939422 9.1799867 35.0343151 9.1799867 36.874688 9.1799867 38.1499303 7.70890957 38.1499303 5.90871011M29.4993887 5.90871011L29.4993887 5.87978723C29.4993887 2.89375 31.829936.447273936 35.0343151.447273936 38.2396805.447273936 40.5396535 2.86283245 40.5396535 5.84886968L40.5396535 5.87978723C40.5396535 8.86482713 38.2100925 11.3113032 35.0047271 11.3113032 31.7993617 11.3113032 29.4993887 8.89574468 29.4993887 5.90871011M48.5817673 7.12466755L48.5817673 7.09375C48.5817673 5.75831117 47.6921551 4.87466755 46.6378365 4.87466755 45.5835178 4.87466755 44.7086996 5.75831117 44.7086996 7.09375L44.7086996 7.12466755C44.7086996 8.46010638 45.5835178 9.34574468 46.6378365 9.34574468 47.6921551 9.34574468 48.5817673 8.47506649 48.5817673 7.12466755L48.5817673 7.12466755zM42.4836829 3.08743351L44.7392739 3.08743351 44.7392739 4.24335106C45.2886242 3.49335106 46.0450904 2.93882979 47.2157885 2.93882979 49.0709554 2.93882979 50.8373583 4.40791223 50.8373583 7.09375L50.8373583 7.12466755C50.8373583 9.80950798 49.1015296 11.2805851 47.2157885 11.2805851 46.0155025 11.2805851 45.2738302 10.7260638 44.7392739 10.0797872L44.7392739 13.5315824 42.4836829 13.5315824 42.4836829 3.08743351zM58.4502491 7.12466755L58.4502491 7.09375C58.4502491 5.75831117 57.5606369 4.87466755 56.5063182 4.87466755 55.4519996 4.87466755 54.5761951 5.75831117 54.5761951 7.09375L54.5761951 7.12466755C54.5761951 8.46010638 55.4519996 9.34574468 56.5063182 9.34574468 57.5606369 9.34574468 58.4502491 8.47506649 58.4502491 7.12466755L58.4502491 7.12466755zM52.3511784 3.08743351L54.6067694 3.08743351 54.6067694 4.24335106C55.1561197 3.49335106 55.9115997 2.93882979 57.0842703 2.93882979 58.9394371 2.93882979 60.7038675 4.40791223 60.7038675 7.09375L60.7038675 7.12466755C60.7038675 9.80950798 58.9680389 11.2805851 57.0842703 11.2805851 55.8820117 11.2805851 55.1403394 10.7260638 54.6067694 10.0797872L54.6067694 13.5315824 52.3511784 13.5315824 52.3511784 3.08743351zM68.2136934 7.15388963L68.2136934 7.12496676C68.2136934 5.93912899 67.367477 4.90388963 66.1208364 4.90388963 64.8298138 4.90388963 64.0585536 5.90821144 64.0585536 7.0940492L64.0585536 7.12496676C64.0585536 8.30980718 64.9047701 9.34504654 66.1494381 9.34504654 67.4424332 9.34504654 68.2136934 8.33972739 68.2136934 7.15388963M61.8325506 7.15388963L61.8325506 7.12496676C61.8325506 4.81313165 63.6729235 2.93813165 66.1494381 2.93813165 68.6131313 2.93813165 70.4387102 4.78321144 70.4387102 7.0940492L70.4387102 7.12496676C70.4387102 9.43580452 68.5993236 11.3108045 66.1208364 11.3108045 63.6581295 11.3108045 61.8325506 9.46472739 61.8325506 7.15388963M71.9228437 3.08763298L74.1774484 3.08763298 74.1774484 4.70930851C74.639021 3.59827128 75.379707 2.87918883 76.7151115 2.93902926L76.7151115 5.32466755 76.5967596 5.32466755C75.0986211 5.32466755 74.1774484 6.23922872 74.1774484 8.16010638L74.1774484 11.1301862 71.9228437 11.1301862 71.9228437 3.08763298zM78.9413117 8.85006649L78.9413117 5.03823138 77.9925236 5.03823138 77.9925236 3.08743351 78.9413117 3.08743351 78.9413117 1.03191489 81.1969027 1.03191489 81.1969027 3.08743351 83.0668636 3.08743351 83.0668636 5.03823138 81.1969027 5.03823138 81.1969027 8.47506649C81.1969027 9.00066489 81.4197989 9.2549867 81.923781 9.2549867 82.3399853 9.2549867 82.7108215 9.14926862 83.0372756 8.96974734L83.0372756 10.8008644C82.5628815 11.0851064 82.0125449 11.265625 81.257065 11.265625 79.8762922 11.265625 78.9413117 10.7101064 78.9413117 8.85006649M84.5208173 8.29494681L84.5208173 3.08783245 86.775422 3.08783245 86.775422 7.57486702C86.775422 8.65398936 87.2803904 9.20950798 88.1414008 9.20950798 89.0024113 9.20950798 89.5517616 8.65398936 89.5517616 7.57486702L89.5517616 3.08783245 91.8073526 3.08783245 91.8073526 11.1303856 89.5517616 11.1303856 89.5517616 9.98942819C89.031013 10.665625 88.364297 11.280984 87.2202281 11.280984 85.5149737 11.280984 84.5208173 10.1400266 84.5208173 8.29494681M93.6755382 3.08763298L95.9301429 3.08763298 95.9301429 4.22859043C96.4499052 3.55339096 97.1176075 2.93902926 98.2606901 2.93902926 99.967917 2.93902926 100.962073 4.07799202 100.962073 5.92307181L100.962073 11.1301862 98.7064825 11.1301862 98.7064825 6.6431516C98.7064825 5.56402926 98.2015141 5.00851064 97.3405037 5.00851064 96.4794932 5.00851064 95.9301429 5.56402926 95.9301429 6.6431516L95.9301429 11.1301862 93.6755382 11.1301862 93.6755382 3.08763298zM102.874148 11.1299867L105.129739 11.1299867 105.129739 3.08743351 102.874148 3.08743351 102.874148 11.1299867zM102.815958 2.20279255L105.188915 2.20279255 105.188915.177194149 102.815958.177194149 102.815958 2.20279255zM107.475573 8.85006649L107.475573 5.03823138 106.525799 5.03823138 106.525799 3.08743351 107.475573 3.08743351 107.475573 1.03191489 109.730178 1.03191489 109.730178 3.08743351 111.601125 3.08743351 111.601125 5.03823138 109.730178 5.03823138 109.730178 8.47506649C109.730178 9.00066489 109.953074 9.2549867 110.457056 9.2549867 110.873261 9.2549867 111.244097 9.14926862 111.570551 8.96974734L111.570551 10.8008644C111.096157 11.0851064 110.546806 11.265625 109.79034 11.265625 108.409567 11.265625 107.475573 10.7101064 107.475573 8.85006649M113.603147 13.0215426L114.360599 11.3709441C114.657466 11.5514628 115.027315 11.6861037 115.325168 11.6861037 115.710798 11.6861037 115.9189 11.5664229 116.111222 11.1615027L112.994621 3.08803191 115.384344 3.08803191 117.195129 8.56542553 118.929971 3.08803191 121.274326 3.08803191 118.217887 11.3260638C117.610347 12.9617021 116.956452 13.5770612 115.606254 13.5770612 114.790612 13.5770612 114.182085 13.3666223 113.603147 13.0215426M130.326377 7.48410904L127.594419 1.40731383 124.84964 7.48410904 130.326377 7.48410904zM127.239363.552593085L127.981035.552593085 132.818671 11.1303856 131.973441 11.1303856 130.652831 8.18922872 124.523186 8.18922872 123.202575 11.1303856 122.402713 11.1303856 127.239363.552593085zM140.907534 6.94454787L140.907534 6.91462766C140.907534 5.14335106 139.349234 4.00339096 137.776139 4.00339096 136.189236 4.00339096 134.851859 5.11343085 134.851859 6.89966755L134.851859 6.92859043C134.851859 8.65398936 136.217838 9.85478723 137.776139 9.85478723 139.349234 9.85478723 140.907534 8.68490691 140.907534 6.94454787M134.407053 12.3910239L134.838052 11.790625C135.74443 12.496742 136.781982 12.8707447 137.894491 12.8707447 139.63032 12.8707447 140.863152 11.8664229 140.863152 9.90066489L140.863152 8.790625C140.210244 9.73510638 139.201294 10.5609043 137.702169 10.5609043 135.87659 10.5609043 134.065805 9.14966755 134.065805 6.95950798L134.065805 6.92859043C134.065805 4.72347074 135.87659 3.29827128 137.702169 3.29827128 139.216088 3.29827128 140.238846 4.10910904 140.863152 5.00871011L140.863152 3.47779255 141.589044 3.47779255 141.589044 9.94554521C141.589044 11.0555851 141.233002 11.9262633 140.624476 12.540625 139.97354 13.2008644 138.994178 13.5619016 137.880683 13.5619016 136.619249 13.5619016 135.446578 13.1719415 134.407053 12.3910239M150.182678 6.94454787C150.07912 5.39867021 149.203316 3.97347074 147.466501 3.97347074 145.968362 3.97347074 144.810486 5.24807181 144.67734 6.94454787L150.182678 6.94454787zM143.90608 7.31855053L143.90608 7.28962766C143.90608 5.06855053 145.4486 3.29827128 147.496089 3.29827128 149.618534 3.29827128 150.968733 5.03863032 150.968733 7.30458777 150.968733 7.44022606 150.968733 7.48410904 150.953939 7.60478723L144.67734 7.60478723C144.810486 9.51070479 146.161671 10.6207447 147.645015 10.6207447 148.816699 10.6207447 149.618534 10.0951463 150.241854 9.41994681L150.745836 9.86974734C149.974576 10.709508 149.069184 11.3109043 147.614441 11.3109043 145.627114 11.3109043 143.90608 9.70518617 143.90608 7.31855053L143.90608 7.31855053zM153.164556 3.47769282L153.891434 3.47769282 153.891434 4.90388963C154.395416 4.00329122 155.241633 3.29817154 156.622405 3.29817154 158.535762 3.29817154 159.649257 4.61865027 159.649257 6.44876995L159.649257 11.1302859 158.922378 11.1302859 158.922378 6.58440824C158.922378 5.00861037 158.046574 3.97337101 156.517861 3.97337101 155.03353 3.97337101 153.891434 5.11432846 153.891434 6.7040891L153.891434 11.1302859 153.164556 11.1302859 153.164556 3.47769282zM168.685724 7.3190492L168.685724 7.29012633C168.685724 5.32436835 167.171805 4.00388963 165.597724 4.00388963 163.95066 4.00388963 162.630049 5.21964761 162.630049 7.27516622L162.630049 7.3040891C162.630049 9.31472739 164.011808 10.6062832 165.597724 10.6062832 167.171805 10.6062832 168.685724 9.27084441 168.685724 7.3190492M161.843995 7.33500665L161.843995 7.3040891C161.843995 4.81273271 163.699162 3.29777261 165.524741 3.29777261 167.038659 3.29777261 168.016049 4.1684508 168.640356 5.12888963L168.640356.177094415 169.367234.177094415 169.367234 11.1308843 168.640356 11.1308843 168.640356 9.41944814C167.987448 10.4247673 167.022879 11.3104056 165.524741 11.3104056 163.699162 11.3104056 161.843995 9.82636303 161.843995 7.33500665M177.410926 8.26422872L177.410926 7.39454787C176.772812 7.22898936 175.926595 7.04946809 174.843675 7.04946809 173.240992 7.04946809 172.350394 7.76954787 172.350394 8.83570479L172.350394 8.86462766C172.350394 9.97466755 173.389918 10.6209441 174.547795 10.6209441 176.090315 10.6209441 177.410926 9.66050532 177.410926 8.26422872M171.579133 8.90950798L171.579133 8.88058511C171.579133 7.28982713 172.929332 6.38922872 174.888057 6.38922872 175.941389 6.38922872 176.668267 6.52386968 177.395146 6.7193484L177.395146 6.38922872C177.395146 4.84335106 176.460165 4.04847074 174.902851 4.04847074 173.981678 4.04847074 173.227184 4.30279255 172.528908 4.66382979L172.26163 4.01855053C173.092066 3.62859043 173.908694 3.35831117 174.947233 3.35831117 175.971963 3.35831117 176.786619 3.64255319 177.33597 4.19807181 177.841924 4.70970745 178.10723 5.41382979 178.10723 6.35930851L178.10723 11.1305851 177.395146 11.1305851 177.395146 9.8549867C176.87637 10.5900266 175.941389 11.3111037 174.502427 11.3111037 173.092066 11.3111037 171.579133 10.5012633 171.579133 8.90950798"/>
    </g>
    <path d="M24.4554586,39.3916223 C32.6680979,39.3916223 38.5038355,33.0505319 38.5038355,24.9650931 C38.5038355,16.8756649 32.4511193,10.7549867 24.4554586,10.7549867 C16.4568391,10.7549867 10.404123,16.8756649 10.404123,24.9650931 C10.404123,33.0505319 16.2418331,39.3916223 24.4554586,39.3916223 M24.4554586,0.216090426 C37.5629375,0.216090426 48.9109172,11.6875 48.9109172,24.947141 C48.9109172,38.2027926 37.8173942,49.9285239 24.4554586,49.9285239 C11.0945094,49.9285239 0,38.2027926 0,24.947141 C0,11.6875 11.345021,0.216090426 24.4554586,0.216090426"/>
    <path d="M26.4742471,19.454488 L26.4742471,21.6276928 L19.8573866,21.6276928 C17.2487123,21.6526263 15.7910107,21.420246 15.7910107,18.3165226 L15.7910107,17.9026263 L14.7682526,17.9026263 L14.7682526,24.136004 C14.7948818,25.7137965 14.7948818,26.954488 15.943882,28.1712434 C16.9173268,29.2314162 18.0929562,29.3351396 19.4490724,29.3351396 L26.4742471,29.3351396 L26.4742471,31.4554854 L35.4512427,25.4554854 L26.4742471,19.454488 Z"/>
  </g>
</svg>