<svg xmlns="http://www.w3.org/2000/svg" width="250" height="25" viewBox="0 0 250 25">
  <g fill="#002F54" fill-rule="evenodd">
    <g opacity=".5">
      <path d="M0 11.5048701L0 .335227273 4.30032468.335227273 4.30032468 11.3928571C4.30032468 14.5762987 5.89204545 16.224026 8.51704545 16.224026 11.1420455 16.224026 12.7337662 14.6323052 12.7337662 11.5324675L12.7337662.335227273 17.0340909.335227273 17.0340909 11.3652597C17.0340909 17.2849026 13.711039 20.1891234 8.46103896 20.1891234 3.21103896 20.1891234 0 17.2573052 0 11.5048701M20.1517857 10.1647727L20.1517857 10.1087662C20.1517857 4.55194805 24.3409091 0 30.3441558 0 34.0308442 0 36.237013 1.2288961 38.0519481 3.01623377L35.3149351 6.17126623C33.8068182 4.80275974 32.2711039 3.9650974 30.3165584 3.9650974 27.0211039 3.9650974 24.6477273 6.70211039 24.6477273 10.0527597L24.6477273 10.1087662C24.6477273 13.4602273 26.9659091 16.2524351 30.3165584 16.2524351 32.5503247 16.2524351 33.9188312 15.3587662 35.4545455 13.9626623L38.1915584 16.7272727C36.1810065 18.8774351 33.9464286 20.2175325 30.1769481 20.2175325 24.424513 20.2175325 20.1517857 15.7775974 20.1517857 10.1647727"/>
      <polyline points="53.194 .335 53.194 8.071 45.264 8.071 45.264 .335 40.963 .335 40.963 19.883 45.264 19.883 45.264 12.036 53.194 12.036 53.194 19.883 57.494 19.883 57.494 .335 53.194 .335"/>
      <polygon points="62.032 19.883 66.332 19.883 66.332 .335 62.032 .335"/>
      <path d="M69.8133117 10.1647727L69.8133117 10.1087662C69.8133117 4.55194805 74.0024351 0 80.0056818 0 83.6923701 0 85.898539 1.2288961 87.713474 3.01623377L84.976461 6.17126623C83.4691558 4.80275974 81.9326299 3.9650974 79.9780844 3.9650974 76.6826299 3.9650974 74.3092532 6.70211039 74.3092532 10.0527597L74.3092532 10.1087662C74.3092532 13.4602273 76.6274351 16.2524351 79.9780844 16.2524351 82.2118506 16.2524351 83.5803571 15.3587662 85.1160714 13.9626623L87.8530844 16.7272727C85.8425325 18.8774351 83.6087662 20.2175325 79.838474 20.2175325 74.086039 20.2175325 69.8133117 15.7775974 69.8133117 10.1647727M97.4472403.195616883L89.0698052 19.8831169 93.4537338 19.8831169 95.2410714 15.4983766 103.506494 15.4983766 105.293831 19.8831169 109.789773 19.8831169 101.412338.195616883 97.4472403.195616883 97.4472403.195616883zM99.3733766 5.36201299L101.970779 11.700487 96.7767857 11.700487 99.3733766 5.36201299 99.3733766 5.36201299zM110.198864 10.1647727L110.198864 10.1087662C110.198864 4.55194805 114.527597 0 120.44724 0 123.965909 0 126.088474.948863636 128.126623 2.68100649L125.418019 5.94805195C123.909903 4.69155844 122.569805 3.9650974 120.30763 3.9650974 117.180195 3.9650974 114.694805 6.72970779 114.694805 10.0527597L114.694805 10.1087662C114.694805 13.6834416 117.152597 16.3084416 120.61526 16.3084416 122.178571 16.3084416 123.574675 15.9172078 124.663961 15.1355519L124.663961 12.3433442 120.336039 12.3433442 120.336039 8.62905844 128.824675 8.62905844 128.824675 17.1185065C126.814123 18.8214286 124.049513 20.2175325 120.475649 20.2175325 114.387987 20.2175325 110.198864 15.9456169 110.198864 10.1647727M131.69724 10.1647727L131.69724 10.1087662C131.69724 4.55194805 136.080357 0 142.112825 0 148.144481 0 152.472403 4.49594156 152.472403 10.0527597L152.472403 10.1087662C152.472403 15.6663961 148.088474 20.2175325 142.056818 20.2175325 136.025162 20.2175325 131.69724 15.7215909 131.69724 10.1647727M147.976461 10.1647727L147.976461 10.1087662C147.976461 6.75811688 145.520292 3.9650974 142.056818 3.9650974 138.594156 3.9650974 136.19237 6.70211039 136.19237 10.0527597L136.19237 10.1087662C136.19237 13.4602273 138.650162 16.2524351 142.112825 16.2524351 145.576299 16.2524351 147.976461 13.5154221 147.976461 10.1647727"/>
    </g>
    <polygon points="156.015 19.883 160.315 19.883 160.315 .335 156.015 .335"/>
    <path d="M164.344968 4.91477273L168.589286 4.91477273 168.589286 7.03733766C169.566558 5.78084416 170.851461 4.63555195 173.001623 4.63555195 174.956169 4.63555195 176.436688 5.50162338 177.218344 7.00892857 178.530844 5.47321429 180.094968 4.63555195 182.133117 4.63555195 185.288961 4.63555195 187.1875 6.53409091 187.1875 10.1371753L187.1875 19.8823052 182.943182 19.8823052 182.943182 11.5332792C182.943182 9.52272727 182.049513 8.48944805 180.457792 8.48944805 178.866071 8.48944805 177.888799 9.52272727 177.888799 11.5332792L177.888799 19.8823052 173.644481 19.8823052 173.644481 11.5332792C173.644481 9.52272727 172.75 8.48944805 171.159091 8.48944805 169.566558 8.48944805 168.589286 9.52272727 168.589286 11.5332792L168.589286 19.8823052 164.344968 19.8823052 164.344968 4.91477273M190.681818 4.91477273L194.926136 4.91477273 194.926136 7.06493506C195.959416 5.66883117 197.383929 4.63555195 199.590097 4.63555195 203.080357 4.63555195 206.404221 7.37256494 206.404221 12.3709416L206.404221 12.4269481C206.404221 17.4253247 203.136364 20.161526 199.590097 20.161526 197.327922 20.161526 195.931818 19.1282468 194.926136 17.9277597L194.926136 24.3506494 190.681818 24.3506494 190.681818 4.91477273 190.681818 4.91477273zM202.159091 12.4269481L202.159091 12.3709416C202.159091 9.88555195 200.483766 8.23782468 198.500812 8.23782468 196.517857 8.23782468 194.870942 9.88555195 194.870942 12.3709416L194.870942 12.4269481C194.870942 14.9123377 196.517857 16.5592532 198.500812 16.5592532 200.483766 16.5592532 202.159091 14.9399351 202.159091 12.4269481L202.159091 12.4269481zM208.116883 15.5819805L208.116883 15.525974C208.116883 12.2589286 210.602273 10.7508117 214.148539 10.7508117 215.656656 10.7508117 216.745942 11.0024351 217.806818 11.3652597L217.806818 11.1136364C217.806818 9.35470779 216.717532 8.37743506 214.595779 8.37743506 212.975649 8.37743506 211.831169 8.68425325 210.462662 9.1875L209.401786 5.94805195C211.048701 5.22159091 212.668831 4.74675325 215.210227 4.74675325 217.527597 4.74675325 219.203734 5.3612013 220.26461 6.42207792 221.381494 7.53977273 221.883929 9.1875 221.883929 11.1980519L221.883929 19.8823052 217.779221 19.8823052 217.779221 18.262987C216.745942 19.4074675 215.321429 20.161526 213.255682 20.161526 210.435065 20.161526 208.116883 18.5422078 208.116883 15.5819805M217.862825 14.6047078L217.862825 13.8506494C217.136364 13.5154221 216.1875 13.2922078 215.154221 13.2922078 213.339286 13.2922078 212.221591 14.0178571 212.221591 15.3587662L212.221591 15.413961C212.221591 16.5592532 213.171266 17.2297078 214.539773 17.2297078 216.522727 17.2297078 217.862825 16.1404221 217.862825 14.6047078M224.404221 12.4829545L224.404221 12.4269481C224.404221 8.15340909 227.671266 4.63636364 232.250812 4.63636364 235.071429 4.63636364 236.831169 5.58522727 238.227273 7.14935065L235.62987 9.94155844C234.681006 8.93587662 233.731331 8.29383117 232.223214 8.29383117 230.100649 8.29383117 228.593344 10.1655844 228.593344 12.3709416L228.593344 12.4269481C228.593344 14.7167208 230.073052 16.5600649 232.390422 16.5600649 233.814935 16.5600649 234.792208 15.9456169 235.825487 14.9683442L238.310877 17.4813312C236.858766 19.0722403 235.183442 20.2183442 232.195617 20.2183442 227.699675 20.2183442 224.404221 16.7556818 224.404221 12.4829545M241.582792 8.54464286L239.795455 8.54464286 239.795455 4.91477273 241.582792 4.91477273 241.582792 1.08928571 245.82711 1.08928571 245.82711 4.91477273 249.345779 4.91477273 249.345779 8.54464286 245.82711 8.54464286 245.82711 14.9399351C245.82711 15.9172078 246.245942 16.3920455 247.195617 16.3920455 247.977273 16.3920455 248.676136 16.1964286 249.289773 15.8612013L249.289773 19.2678571C248.396916 19.7987013 247.363636 20.1339286 245.939123 20.1339286 243.341721 20.1339286 241.582792 19.1006494 241.582792 15.637987L241.582792 8.54464286z"/>
  </g>
</svg>