<svg xmlns="http://www.w3.org/2000/svg" width="318" height="64" viewBox="0 0 318 64">
  <path fill="#FFFFFF" fill-rule="evenodd" d="M364.235761,88.51278 L364.256157,88.473406 L364.253244,88.428928 C364.210995,87.6560307 364.188414,86.6578267 364.188414,85.617332 L364.188414,85.4117122 L363.986641,85.4569194 C363.72878,85.5159804 362.413249,85.5159804 361.142152,85.5159804 L357.211586,85.5159804 C356.407408,85.5159804 355.692826,85.4984808 354.743692,85.4532736 L354.702172,85.4510862 L354.663565,85.470044 C354.487287,85.5560835 354.45815,85.8069106 354.453051,85.8820128 C354.440668,86.069404 354.4953,86.2174211 354.603106,86.2881485 L355.013936,86.3566884 C356.098557,86.4879351 356.151003,86.6060571 356.151003,88.8882914 L356.151003,96.5837228 C356.151003,98.8440826 356.098557,98.9607464 355.014665,99.0919931 L354.425371,99.1627205 L354.385308,99.2020945 C354.263661,99.3231331 354.243994,99.5214614 354.267303,99.6672911 C354.293527,99.8262454 354.36564,99.9472841 354.46762,99.9990536 L354.506954,100.018011 L354.549203,100.015824 C355.548598,99.9749917 356.269008,99.9523881 357.211586,99.9523881 C358.074038,99.9523881 358.813386,99.9757209 360.047334,100.016553 L360.088125,100.018011 L360.125275,99.9990536 C360.26586,99.9290554 360.325591,99.7387476 360.335789,99.5834391 C360.345987,99.3989645 360.291355,99.2524057 360.184277,99.1816783 L359.383013,99.0919931 C358.29475,98.9993912 358.22992,98.8586656 358.22992,96.5837228 L358.22992,93.6109851 C358.22992,93.1982872 358.22992,93.1982872 358.771138,93.1982872 L360.223612,93.1982872 C360.973158,93.1982872 361.53113,93.2150576 361.818128,93.2974513 C362.11751,93.3929698 362.279219,93.5891107 362.392853,93.9930588 L362.617207,94.8782449 L362.656542,94.9125149 C362.868513,95.0940728 363.320863,95.0838647 363.457078,94.8782449 L363.48403,94.8366834 L363.48403,94.7878305 C363.48403,94.5654403 363.467276,94.2803433 363.448337,93.9631638 C363.425027,93.5752568 363.400261,93.1355804 363.400261,92.7134035 C363.400261,92.2802894 363.425027,91.8223843 363.447609,91.4191652 C363.466548,91.0866736 363.48403,90.7862645 363.48403,90.5543953 L363.48403,90.5055424 L363.457078,90.4639809 C363.355827,90.3108598 363.138758,90.2948185 363.04989,90.2948185 C362.872883,90.2948185 362.718458,90.3524212 362.637603,90.449398 L362.412521,91.3732289 C362.292331,91.8916534 362.148832,91.9426937 361.985665,92.0010256 C361.761311,92.076857 361.101361,92.1220642 360.223612,92.1220642 L358.771138,92.1220642 C358.22992,92.1220642 358.22992,92.1220642 358.22992,91.7093663 L358.22992,87.1981256 C358.22992,86.5076221 358.22992,86.5076221 358.707765,86.5076221 L360.009456,86.5076221 C360.892303,86.5076221 361.589404,86.5076221 362.039568,86.6315773 C362.955195,86.8700088 363.229082,87.4832226 363.414101,88.5317379 L363.424299,88.5893406 L363.468733,88.6272563 C363.551045,88.6987128 363.665407,88.7373577 363.791424,88.7373577 C363.956047,88.7373577 364.15782,88.6680886 364.235761,88.51278 L364.235761,88.51278 Z M349.902598,92.6696546 C349.902598,89.0603704 347.53304,85.174739 342.328463,85.174739 C337.900385,85.174739 334.561297,88.4894473 334.561297,92.8847534 C334.561297,96.5669524 337.229508,100.294359 342.328463,100.294359 C346.647279,100.294359 349.902598,97.0168369 349.902598,92.6696546 L349.902598,92.6696546 Z M347.439074,93.3339087 C347.439074,97.7401521 344.835693,99.3034461 342.607449,99.3034461 C338.200495,99.3034461 337.02555,94.8388709 337.02555,92.2008122 C337.02555,87.7464451 339.686476,86.1656515 341.965709,86.1656515 C346.006996,86.1656515 347.439074,90.0272211 347.439074,93.3339087 L347.439074,93.3339087 Z M329.972237,129.773096 C329.972237,139.00776 336.839802,147.164742 348.2163,147.164742 C358.108274,147.164742 366,139.622432 366,129.259776 C366,120.232191 360.054618,111.664698 348.2163,111.664698 C337.659277,111.664698 329.972237,119.513979 329.972237,129.773096 L329.972237,129.773096 Z M335.096688,128.131783 C335.096688,116.897066 342.014513,113.25497 347.345836,113.25497 C357.133645,113.25497 360.874821,122.386095 360.874821,130.851507 C360.874821,140.956773 355.032875,145.575199 348.882806,145.575199 C338.786875,145.575199 335.096688,135.723676 335.096688,128.131783 L335.096688,128.131783 Z M323.773364,86.2757529 C323.883356,86.1809637 323.940173,86.0263842 323.92779,85.863055 C323.915407,85.6997258 323.834552,85.5560835 323.71072,85.4780647 L323.667015,85.450357 L323.61384,85.4532736 C322.09508,85.5415006 321.200577,85.5415006 319.595863,85.4532736 L319.552158,85.4510862 L319.513551,85.4707732 C319.39409,85.5305634 319.311778,85.6508728 319.287741,85.8003482 C319.26006,85.9731564 319.313235,86.1517977 319.427598,86.2670032 L319.468389,86.3085646 L319.908356,86.3566884 C320.323557,86.4084579 320.581418,86.5098096 320.656446,86.565954 C320.589431,86.8721963 319.842798,88.2590364 319.38972,89.1012027 L319.291383,89.2827606 C318.777117,90.2780481 318.183452,91.3506253 317.432449,92.6397595 C316.870836,91.6218685 316.321605,90.5026258 315.789857,89.4176531 C315.5808,88.9925596 315.372471,88.5681953 315.164142,88.1518516 C315.009717,87.8419635 314.527501,86.7496994 314.51876,86.5798078 C314.51876,86.536788 314.617826,86.4507485 315.277048,86.3566884 L315.60848,86.305648 L315.647086,86.2670032 C315.762177,86.1503394 315.812438,85.9396156 315.767276,85.7558702 C315.732312,85.6093114 315.639802,85.5021266 315.51597,85.4612943 L315.484648,85.4510862 L315.451869,85.4532736 C314.928862,85.4948351 314.164019,85.5159804 313.17992,85.5159804 C312.191451,85.5159804 311.409126,85.4962934 310.714211,85.4532736 L310.665407,85.450357 L310.62243,85.4744189 C310.518266,85.5349382 310.44688,85.6464979 310.422114,85.7908693 C310.392977,85.9622192 310.438139,86.1415897 310.537933,86.2589825 L310.575811,86.3027314 L311.232119,86.4193952 C311.797375,86.5149136 312.08146,86.5630374 312.800412,87.9564398 L315.318568,92.8745453 C315.92243,94.038266 315.985074,94.278885 315.985074,95.4506263 L315.985074,96.5399739 C315.985074,98.8601239 315.931899,98.9789751 314.851649,99.0919931 L314.130511,99.1612622 L314.08972,99.2035528 C313.968073,99.3253205 313.949863,99.5251072 313.974629,99.671666 C314.000124,99.8284329 314.073694,99.9480132 314.176402,99.9990536 L314.212823,100.018011 L314.255071,100.015824 C315.40525,99.9742626 316.15334,99.9523881 317.046385,99.9523881 C317.913208,99.9523881 318.678051,99.97645 319.944777,100.016553 L319.986297,100.018011 L320.022719,99.9990536 C320.126154,99.9480132 320.200454,99.8277037 320.22522,99.6687494 C320.249258,99.5229197 320.230319,99.3238622 320.107944,99.2020945 L320.064967,99.1598039 L319.194502,99.0912639 C318.206762,99.0168908 318.06472,98.8542907 318.06472,96.5399739 L318.06472,95.4280227 C318.06472,93.8260839 318.109882,93.6678587 319.045176,92.0476911 L320.392029,89.7180622 C320.514404,89.5073383 320.630223,89.3039059 320.7424,89.1070359 C321.58227,87.6385312 322.188318,86.5768912 323.095932,86.4193952 L323.739129,86.305648 L323.773364,86.2757529 Z M316.290283,112.433949 C315.417633,112.229788 312.702075,111.665427 309.780374,111.665427 C302.041616,111.665427 296.968156,114.075262 293.534373,117.667047 C290.356996,121.051753 288.921275,125.46383 288.921275,129.824866 C288.921275,134.339752 290.562411,138.39163 293.637081,141.470094 C297.582944,145.47166 303.169214,147.164742 309.267565,147.164742 C312.035569,147.164742 315.725027,146.548612 318.442771,145.83113 C319.415214,145.575199 320.338854,145.36885 320.951457,145.36885 C321.158329,145.215 321.158329,144.90657 321.004632,144.753449 C320.082449,144.393979 319.774327,143.163905 319.774327,141.111353 L319.774327,138.237779 C319.774327,135.621595 319.826045,134.185902 321.977804,133.928513 L322.798736,133.825703 C323.156391,133.51946 323.105401,132.74948 322.747018,132.54386 C321.055621,132.645941 319.312507,132.696981 317.314445,132.696981 C314.290764,132.696981 311.47177,132.645941 309.985789,132.54386 C309.626677,132.696981 309.575687,133.621541 309.985789,133.825703 L312.240984,134.083092 C315.417633,134.441833 315.57133,134.750263 315.57133,139.0588 L315.57133,141.111353 C315.57133,142.752666 315.315654,143.676497 315.059978,144.034508 C314.494722,144.90657 312.600096,145.575199 309.421262,145.575199 C299.119915,145.575199 294.046454,137.82654 294.046454,127.977933 C294.046454,120.283231 298.403876,113.203201 308.345382,113.203201 C313.573268,113.203201 317.417152,114.948053 318.852144,120.488122 C319.159538,120.796551 320.082449,120.745511 320.236146,120.334271 C319.774327,117.255807 319.466204,114.587853 319.466204,112.896229 C318.852144,112.99831 317.263455,112.63884 316.290283,112.433949 L316.290283,112.433949 Z M307.553587,85.1885928 L307.568884,85.1295318 L307.541932,85.0741165 C307.463991,84.914433 307.242551,84.8969335 307.15077,84.8969335 C307.097595,84.8969335 307.018925,84.9027666 306.949725,84.9304743 L306.89655,84.9516196 L306.867413,85.0012017 C306.593527,85.4780647 306.479893,85.5159804 305.343554,85.5159804 L296.516534,85.5159804 C295.560844,85.5159804 295.131803,85.4663983 295.043664,84.988077 L295.034195,84.9377658 L294.997045,84.9020375 C294.938043,84.8422473 294.841891,84.8138105 294.702763,84.8138105 C294.652501,84.8138105 294.479137,84.8181854 294.384442,84.8816213 L294.32544,84.9209954 L294.313785,84.9902644 C294.16373,85.8440971 293.848323,87.1973964 293.508879,88.148935 L293.485569,88.2145583 L293.516891,88.2779942 C293.64655,88.5353836 294.083604,88.6607971 294.318156,88.4843432 L294.352391,88.458823 L294.369874,88.4187199 C294.587672,87.9236282 294.792358,87.4562441 295.291328,86.9990681 C295.761888,86.565954 296.82757,86.5076221 297.808026,86.5076221 L298.982243,86.5076221 C299.457903,86.5076221 299.457903,86.5076221 299.457903,87.0267757 L299.457903,96.5837228 C299.457903,98.8994979 299.324601,99.0001204 298.284415,99.0919931 L297.515929,99.155429 L297.443815,99.1787617 C297.315613,99.2575097 297.244228,99.4179224 297.252969,99.6075009 C297.259524,99.7518723 297.316341,99.9297845 297.456927,99.9990536 L297.493348,100.017282 L297.534868,100.016553 C298.842386,99.97645 299.630539,99.9523881 300.497361,99.9523881 C301.332861,99.9523881 302.020492,99.9728043 303.288675,100.016553 L303.329467,100.018011 L303.366616,99.9997827 C303.542894,99.9122849 303.572031,99.6621871 303.577859,99.5870848 C303.589513,99.4004228 303.534882,99.2531349 303.428532,99.1824075 L302.668788,99.0919931 C301.600921,98.9993912 301.537548,98.8586656 301.537548,96.5837228 L301.537548,87.0005264 C301.53682,86.7832402 301.53682,86.5783495 301.572512,86.5440795 C301.608205,86.5076221 301.839843,86.5076221 301.99354,86.5076221 L303.508659,86.5076221 C304.65301,86.5076221 305.431693,86.6716805 305.888414,87.0100053 C306.090187,87.1580224 306.26428,87.6997796 306.356789,88.4580939 L306.361888,88.5054885 L306.392482,88.5426751 C306.470423,88.6381935 306.615379,88.6950671 306.780003,88.6950671 C306.983233,88.6950671 307.152226,88.6082984 307.221427,88.468302 L307.242551,88.4260114 L307.237452,88.3786167 C307.175536,87.765403 307.323406,86.0438838 307.553587,85.1885928 L307.553587,85.1885928 Z M288.084318,96.5399739 L288.084318,88.930582 C288.084318,86.5943908 288.149148,86.4500194 289.234497,86.3581467 L289.812864,86.3122104 L289.847828,86.2881485 C289.954178,86.2166919 290.009538,86.069404 289.996427,85.882742 C289.991328,85.8076397 289.962191,85.5568127 289.786641,85.470044 L289.749491,85.4518153 L289.7087,85.4532736 C288.69765,85.4933768 287.941548,85.5159804 287.066712,85.5159804 C286.149629,85.5159804 285.415379,85.4941059 284.38102,85.4532736 L284.3395,85.4518153 L284.300893,85.4707732 C284.1268,85.5575418 284.097664,85.809098 284.093293,85.8842003 C284.08091,86.0701331 284.135542,86.2174211 284.241163,86.2881485 L284.276855,86.3122104 L284.853037,86.3574176 C285.9413,86.4500194 286.00613,86.5943908 286.00613,88.930582 L286.00613,96.5399739 C286.00613,98.8411661 285.951498,98.9607464 284.84721,99.0919931 L284.25646,99.1627205 L284.216396,99.2028236 C284.095478,99.3245914 284.077268,99.5236489 284.100577,99.6694786 C284.126072,99.8277037 284.198914,99.9472841 284.300893,99.9990536 L284.338771,100.018011 L284.38102,100.015824 C285.467826,99.9742626 286.181679,99.9523881 287.066712,99.9523881 C287.915324,99.9523881 288.621165,99.9742626 289.7087,100.015824 L289.749491,100.018011 L289.787369,99.9990536 C289.962919,99.9115558 289.992056,99.6599996 289.996427,99.5848973 C290.00881,99.3996937 289.95345,99.2531349 289.847828,99.1824075 L289.241053,99.0919931 C288.138222,98.9607464 288.084318,98.8411661 288.084318,96.5399739 L288.084318,96.5399739 Z M284.566039,145.061149 C282.362562,144.804489 281.696056,144.034508 280.209346,139.622432 L273.188084,118.99993 C272.420327,116.743216 271.600124,114.382963 270.932889,112.126249 C270.83091,111.767508 270.472526,111.664698 270.165132,111.664698 C269.600605,112.331868 268.73014,113.25497 267.499835,113.61444 C267.654261,114.435461 267.346138,115.408874 266.628642,117.255807 L261.401484,131.107438 C259.248997,136.853127 257.813277,140.187522 256.890366,142.547046 C256.174327,144.393979 255.047457,144.959069 253.816424,145.061149 L252.125027,145.215 C251.817633,145.47166 251.921069,146.292681 252.228463,146.497572 C253.611737,146.446531 255.456102,146.343721 257.147499,146.343721 C259.555662,146.394762 261.146537,146.394762 262.478092,146.497572 C262.939184,146.292681 262.939184,145.47166 262.580071,145.215 L260.888675,145.061149 C259.659098,144.959069 259.401965,144.650639 259.401965,144.034508 C259.401965,143.470877 259.761078,142.085495 260.530291,139.776282 L262.323667,134.390793 C262.682779,133.312382 262.989445,133.15999 264.270739,133.15999 L272.010225,133.15999 C273.546468,133.15999 273.752611,133.312382 274.111723,134.441833 L276.365462,141.419053 C276.77702,142.649856 277.031968,143.573687 277.031968,144.137318 C277.031968,144.650639 276.314472,144.959069 275.240049,145.061149 L273.752611,145.215 C273.392771,145.47166 273.444489,146.292681 273.855319,146.497572 C275.3413,146.446531 277.287644,146.343721 279.748255,146.343721 C282.054439,146.343721 283.849272,146.394762 285.949313,146.497572 C286.204989,146.292681 286.308425,145.47166 285.949313,145.215 L284.566039,145.061149 Z M271.344447,131.107438 L265.039953,131.107438 C263.60569,131.107438 263.553972,131.056397 263.963345,129.876635 L267.192441,120.949672 C267.75624,119.411169 268.268321,118.179638 268.422018,117.922978 L268.524725,117.922978 C268.832848,118.53765 269.293211,119.92449 269.702584,121.154563 L272.470588,129.516436 C272.932408,130.902547 272.831157,131.107438 271.344447,131.107438 L271.344447,131.107438 Z M273.435019,88.374971 C273.435019,87.5503042 273.744599,86.1656515 275.813318,86.1656515 C277.696289,86.1656515 278.270286,87.392079 278.559469,88.4602813 L278.59152,88.5215298 C278.659992,88.6053818 278.774354,88.6513182 278.914211,88.6513182 C279.075921,88.6513182 279.292262,88.586424 279.387686,88.4427818 L279.413909,88.4019495 L279.413909,88.3530965 C279.413909,87.4795768 279.234717,86.2589825 279.021289,85.6866011 L278.981226,85.5801454 L278.867592,85.5801454 C278.716809,85.5801454 278.432724,85.5422297 278.160294,85.4583777 C277.650399,85.3212978 276.849863,85.174739 276.133824,85.174739 C273.42992,85.174739 271.613235,86.718346 271.613235,89.0151632 C271.613235,90.9678224 273.104316,92.2431028 273.992991,92.8293381 L276.021647,94.1563881 C277.496701,95.1057392 277.699203,96.0893603 277.699203,97.0110038 C277.699203,98.1521209 276.92489,99.3034461 275.19343,99.3034461 C273.032202,99.3034461 272.088895,97.6358839 271.678065,96.2366482 L271.656941,96.191441 C271.592839,96.0959226 271.47702,96.0434239 271.330607,96.0434239 C271.189294,96.0434239 270.985335,96.0981101 270.874615,96.2519603 L270.842565,96.2978967 L270.84475,96.3540411 C270.885542,97.3208918 271.159428,98.9031437 271.440599,99.4186515 L271.462452,99.4587547 L271.502515,99.4820874 C271.921358,99.7263521 273.091204,100.294359 274.915902,100.294359 C277.734896,100.294359 279.629522,98.639192 279.629522,96.1761289 C279.629522,94.4662761 278.72992,93.0787068 276.882642,91.9332148 L275.173035,90.8635542 C274.52401,90.4610643 273.435019,89.6013985 273.435019,88.374971 L273.435019,88.374971 Z M268.05635,100.046448 C268.154687,99.9684294 268.204948,99.8415576 268.186009,99.716144 C268.168527,99.5994803 268.097141,99.5054202 267.992977,99.465317 L267.946358,99.4543798 C267.435734,99.4171932 266.921468,99.2086568 266.565269,98.8936647 C265.095313,97.6592166 263.925467,95.856762 262.307642,93.2464109 C262.195465,93.0663113 262.180168,92.9839175 262.182353,92.9481893 C262.891836,92.6521551 264.895726,91.6043689 264.895726,89.249949 C264.895726,87.4598898 263.883219,86.5557459 263.035335,86.1131529 C261.965283,85.5312925 260.592936,85.4532736 259.391767,85.4532736 C257.436682,85.4532736 255.919379,85.5072306 254.616231,85.6238943 L254.556501,85.6406648 C254.432669,85.7026424 254.350357,85.8404514 254.337246,86.0088847 C254.321949,86.19263 254.390421,86.3683548 254.511339,86.4565817 L254.545574,86.4813728 L255.271811,86.571058 C255.968183,86.6556392 256.067977,86.8065729 256.067977,88.9079784 L256.067977,96.5829937 C256.067977,98.8433535 256.014802,98.9607464 254.931638,99.0919931 L254.333604,99.1634496 L254.292084,99.2115734 C254.171165,99.352299 254.159511,99.5564606 254.187919,99.7001028 C254.217056,99.8444742 254.288441,99.9502007 254.386778,99.9997827 L254.423928,100.018011 L254.466905,100.015824 C255.415311,99.9771791 256.191809,99.9523881 257.12856,99.9523881 C258.011407,99.9523881 258.752213,99.9771791 259.663469,100.015824 L259.705717,100.018011 L259.743595,99.9990536 C259.900206,99.9210347 259.939541,99.7154149 259.94901,99.6315628 C259.970135,99.4419843 259.920602,99.2779259 259.816438,99.1918864 L259.781473,99.1627205 L259.286146,99.0927222 C258.189142,98.9396011 258.146894,98.8462701 258.146894,96.5829937 L258.146894,93.8887906 C258.146894,93.5840066 258.146894,93.5840066 258.986036,93.5840066 C259.80624,93.5840066 260.085225,93.7808767 260.367853,94.1957621 C260.69273,94.6682502 261.070052,95.2661518 261.434992,95.8450956 C261.817413,96.4495595 262.177982,97.0212118 262.462067,97.42516 C263.928381,99.5163574 265.035583,100.187174 267.016163,100.187174 C267.429178,100.187174 267.789019,100.145612 268.006817,100.073427 L268.05635,100.046448 Z M261.620011,92.0921691 C261.010322,92.5544492 260.177735,92.6142393 259.521427,92.6142393 C258.556267,92.6142393 258.259799,92.5777819 258.17166,92.5508034 C258.146894,92.4618473 258.146894,92.2102912 258.146894,91.9652973 L258.146894,86.9633398 C258.146894,86.4828311 258.146894,86.4434571 259.370643,86.4434571 C261.771523,86.4434571 262.623048,88.129248 262.623048,89.5715034 C262.623048,90.7563694 262.303999,91.5577034 261.620011,92.0921691 L261.620011,92.0921691 Z M250.585143,96.914027 L250.594612,96.8622575 L250.57276,96.8148629 C250.480979,96.609243 250.253711,96.5166412 250.070877,96.5166412 C249.964527,96.5166412 249.869832,96.545078 249.795533,96.599035 L249.743087,96.6588251 C249.131212,97.8830652 248.580525,98.5028412 248.300082,98.6581498 C247.841176,98.8878315 247.195066,98.9622047 245.639885,98.9622047 C243.860349,98.9622047 243.4029,98.7492934 243.176361,98.5225282 C242.873337,98.2002447 242.815063,97.5046372 242.815063,96.4116438 L242.815063,93.3980738 C242.815063,92.9846467 242.815063,92.9846467 243.354824,92.9846467 L244.594599,92.9846467 C245.340503,92.9846467 245.897746,93.0014171 246.198584,93.0867275 C246.495052,93.1603714 246.646564,93.3535957 246.741259,93.7765018 L246.932106,94.6091892 L246.965613,94.677 C247.045011,94.7739767 247.195066,94.8315794 247.366245,94.8315794 C247.561462,94.8315794 247.71953,94.7579354 247.790187,94.6347094 L247.81204,94.5967936 L247.81204,94.5530447 C247.81204,94.3437792 247.795286,94.0681611 247.777075,93.7590022 C247.753037,93.3689079 247.726086,92.927044 247.726086,92.4997631 C247.726086,92.0527951 247.753037,91.59489 247.776347,91.191671 C247.795286,90.8642834 247.81204,90.5711657 247.81204,90.341484 L247.81204,90.2977351 L247.790187,90.2598194 C247.71953,90.1358642 247.560734,90.0614911 247.364788,90.0614911 C247.195066,90.0614911 247.045011,90.1190938 246.965613,90.2153414 L246.760926,91.1646925 C246.663318,91.6532219 246.543128,91.7261367 246.35738,91.7881143 C246.128656,91.8646749 245.486187,91.9084238 244.594599,91.9084238 L243.354824,91.9084238 C242.815063,91.9084238 242.815063,91.9084238 242.815063,91.4731222 L242.815063,87.1981256 C242.815063,86.5076221 242.815063,86.5076221 243.29218,86.5076221 L244.829151,86.5076221 C245.735308,86.5076221 246.428766,86.5287674 246.861449,86.6315773 C247.834621,86.875842 248.029838,87.4919724 248.326306,88.4245531 L248.367826,88.5528832 L248.397691,88.6075693 C248.469805,88.6957962 248.592908,88.7446492 248.74442,88.7446492 C248.891561,88.7446492 249.098433,88.6943379 249.1924,88.552154 L249.225179,88.5040302 L249.19677,88.1897673 C249.08605,86.944382 248.984799,85.8871169 248.869709,85.5626459 L248.819447,85.4226494 L248.67522,85.4576485 C248.437754,85.5159804 247.113483,85.5159804 245.832916,85.5159804 L241.818582,85.5159804 C240.995465,85.5159804 240.29108,85.4984808 239.306253,85.4532736 L239.264733,85.4510862 L239.226855,85.470044 C239.051306,85.5560835 239.02144,85.8069106 239.015613,85.8812837 C239.003958,86.0679457 239.057133,86.2166919 239.163483,86.2881485 L239.577955,86.3574176 C240.66986,86.4864768 240.735418,86.6286607 240.735418,88.8882914 L240.735418,96.5837228 C240.735418,98.8994979 240.602117,99.0001204 239.560473,99.0919931 L238.797815,99.160533 L238.755566,99.2028236 C238.634648,99.3238622 238.615709,99.5221906 238.639019,99.6687494 C238.664513,99.8269746 238.737356,99.9472841 238.840792,99.9990536 L238.877213,100.018011 L238.919461,100.016553 C240.15268,99.9757209 240.896399,99.9523881 241.818582,99.9523881 L243.740159,99.9523881 C245.603463,99.9523881 247.474052,99.9735334 249.460459,100.016553 L249.565352,100.018741 L249.611242,99.9232222 C249.898241,99.3231331 250.435088,97.6643207 250.585143,96.914027 L250.585143,96.914027 Z M235.935115,86.2670032 C236.050206,86.1510686 236.069874,85.9476362 236.050935,85.809098 C236.02981,85.6530603 235.961339,85.5349382 235.856446,85.4744189 L235.814197,85.450357 L235.765393,85.4532736 C235.049354,85.4962934 234.394502,85.5159804 233.70323,85.5159804 C232.864087,85.5159804 232.058452,85.4933768 231.494654,85.4532736 L231.444393,85.4496279 L231.400687,85.4751481 C231.283411,85.5429589 231.202556,85.6844137 231.186531,85.8535761 C231.169777,86.0241968 231.224409,86.1816928 231.332944,86.2757529 L231.372279,86.3092938 L231.804962,86.3574176 C232.552323,86.4427279 232.620794,86.5994948 232.621523,86.5994948 C232.621523,86.7394913 232.601127,86.9538609 232.440874,87.3738503 C232.073021,88.3049727 231.054687,90.7527237 230.45738,92.1570633 C230.299313,92.5209084 230.099725,92.9955839 229.879013,93.5176541 C229.474739,94.4786716 228.981597,95.6482255 228.562754,96.5669524 C227.551704,94.2431567 226.620781,91.9120695 225.677474,89.5299419 C225.051759,87.9950847 224.692647,86.8787586 224.626361,86.6009531 C224.65914,86.5331423 224.844887,86.4412696 225.483714,86.3566884 L225.851567,86.3078355 L225.888716,86.2757529 C225.997251,86.182422 226.051883,86.0249259 226.035858,85.8543052 C226.019832,85.6851428 225.939706,85.5429589 225.821701,85.4751481 L225.779453,85.4510862 L225.731377,85.4532736 C224.781515,85.4984808 224.034882,85.5159804 223.154948,85.5159804 C222.263359,85.5159804 221.582284,85.4970225 220.944915,85.4532736 L220.892468,85.4496279 L220.847306,85.4780647 C220.723474,85.5553544 220.641891,85.6997258 220.629508,85.863055 C220.615668,86.0263842 220.673942,86.1809637 220.782477,86.2757529 L220.821811,86.3092938 L221.257408,86.3574176 C222.087809,86.4536651 222.371165,86.8350097 222.854109,88.0096677 L226.61204,97.2851635 C227.060019,98.3956564 227.387081,99.3457367 227.586668,100.107697 L227.607793,100.187903 L227.683549,100.218527 C227.808109,100.268838 227.936311,100.294359 228.066699,100.294359 C228.188345,100.294359 228.304893,100.262276 228.393032,100.203215 L228.441108,100.171133 L228.45859,100.116446 C228.824986,98.968767 229.849148,96.4495595 230.673722,94.5537739 L231.826086,91.9251942 C232.815283,89.6772299 233.639129,87.9834183 234.20657,87.028234 C234.478271,86.5885576 234.763813,86.393875 235.188483,86.3581467 L235.892139,86.3114812 L235.935115,86.2670032 Z M221.992386,116.025005 C218.096056,119.051699 215.533466,123.926056 215.533466,129.619975 C215.533466,136.236996 218.711572,140.905733 222.811861,143.728266 C226.553037,146.240911 230.959992,147.164742 235.57309,147.164742 C238.852446,147.164742 242.54409,146.394762 243.669502,145.98498 C244.23403,145.78009 244.849546,145.575199 245.463606,145.47166 C246.232092,144.496789 247.565104,141.111353 247.924217,138.443399 C247.71953,138.084658 246.949588,137.981848 246.591932,138.237779 C245.412617,141.265203 242.490915,145.575199 235.879755,145.575199 C227.47522,145.575199 220.659373,139.622432 220.659373,128.850724 C220.659373,118.231408 227.321523,113.25497 235.163716,113.25497 C242.594351,113.25497 244.900536,117.255807 245.66975,120.745511 C246.026677,121.051753 246.796619,121.000713 247.052295,120.642701 C246.642922,117.513196 246.387246,114.281611 246.335528,113.10112 C245.87298,113.15216 245.516053,113.04935 244.900536,112.896229 C242.490915,112.229788 238.59677,111.665427 235.828766,111.665427 C230.4989,111.665427 225.732834,113.10112 221.992386,116.025005 L221.992386,116.025005 Z M215.4395,96.5399739 L215.4395,88.930582 C215.4395,86.6177235 215.514527,86.4492902 216.591864,86.3581467 L217.168046,86.3122104 L217.20301,86.2881485 C217.30936,86.2166919 217.363991,86.0686748 217.352336,85.8812837 C217.347237,85.8069106 217.317372,85.5560835 217.141094,85.470044 L217.103944,85.4518153 L217.062424,85.4532736 C216.05356,85.4933768 215.298186,85.5159804 214.421165,85.5159804 C213.503353,85.5159804 212.770561,85.4941059 211.737658,85.4532736 L211.696138,85.4518153 L211.658988,85.470044 C211.48271,85.5568127 211.452845,85.8076397 211.447746,85.882742 C211.436091,86.069404 211.490723,86.2174211 211.597073,86.2881485 L211.632765,86.3122104 L212.208219,86.3574176 C213.285555,86.4492902 213.360583,86.6177235 213.360583,88.930582 L213.360583,96.5399739 C213.360583,98.8411661 213.305951,98.9607464 212.202391,99.0919931 L211.613098,99.1627205 L211.572306,99.2028236 C211.45066,99.3245914 211.432449,99.524378 211.455759,99.6702077 C211.481253,99.8284329 211.555553,99.9487424 211.65826,99.9990536 L211.69541,100.018011 L211.737658,100.015824 C212.822279,99.9742626 213.535404,99.9523881 214.421165,99.9523881 C215.266135,99.9523881 216.001113,99.9749917 217.062424,100.015824 L217.103944,100.018011 L217.141094,99.9997827 C217.318829,99.9122849 217.347237,99.6607288 217.352336,99.5863556 C217.363991,99.4004228 217.30936,99.2531349 217.202281,99.1824075 L216.597691,99.0919931 C215.493403,98.9607464 215.4395,98.8411661 215.4395,96.5399739 L215.4395,96.5399739 Z M204.720767,138.546209 L204.720767,120.283231 C204.720767,114.845243 204.822746,113.973181 207.846427,113.71725 L209.127721,113.61444 C209.435115,113.408091 209.332408,112.48499 209.025014,112.332598 C206.462424,112.433949 204.720767,112.48499 202.670258,112.48499 C200.517771,112.48499 198.776113,112.433949 196.212795,112.332598 C195.90613,112.48499 195.803422,113.408091 196.110816,113.61444 L197.392111,113.71725 C200.415792,113.973181 200.517771,114.845243 200.517771,120.283231 L200.517771,138.546209 C200.517771,143.984926 200.415792,144.701679 197.392111,145.061149 L196.110816,145.215 C195.803422,145.5227 195.90613,146.343721 196.212795,146.497572 C198.776113,146.394762 200.517771,146.343721 202.670258,146.343721 C204.720767,146.343721 206.462424,146.394762 209.025014,146.497572 C209.332408,146.343721 209.435115,145.41989 209.127721,145.215 L207.846427,145.061149 C204.822746,144.701679 204.720767,143.984926 204.720767,138.546209 L204.720767,138.546209 Z M207.364211,86.2670032 C207.465462,86.1641932 207.518637,85.9964891 207.498969,85.8302433 C207.480759,85.6778513 207.405731,85.5495212 207.291369,85.4780647 L207.247664,85.450357 L207.194489,85.4532736 C206.493747,85.4941059 205.93796,85.5159804 205.004852,85.5159804 C204.250935,85.5159804 203.54655,85.4984808 202.492523,85.4532736 L202.459016,85.4518153 L202.428422,85.4634817 C202.303862,85.5094181 202.21718,85.6260818 202.188043,85.784307 C202.153079,85.9753438 202.210624,86.1685681 202.335184,86.2757529 L202.373062,86.3092938 L202.785349,86.3566884 C203.518142,86.4485611 203.890366,86.5579333 203.990159,86.7095962 C204.245107,87.1135444 204.392977,88.6936088 204.392977,91.0458413 L204.392977,95.6205179 C204.392977,95.827596 204.392977,96.0667567 204.378408,96.230815 C203.638332,95.4652093 202.86329,94.5967936 201.901045,93.5176541 L198.930539,90.1818005 C196.817386,87.809881 195.608205,86.2538785 195.335047,85.5568127 L195.287699,85.4350449 L195.157312,85.4547319 C194.900907,85.4941059 194.551993,85.5159804 194.198708,85.5159804 C193.826484,85.5159804 192.689417,85.5159804 191.798557,85.4532736 L191.753395,85.450357 L191.713332,85.4707732 C191.600426,85.5276468 191.521756,85.6450396 191.49699,85.7930568 C191.467853,85.9709689 191.519571,86.1576309 191.627378,86.2670032 L191.668169,86.3078355 L192.086284,86.3566884 C192.65591,86.4281449 193.08058,86.5892867 193.309305,86.8182393 C193.709208,87.2549991 193.737617,87.6487392 193.737617,88.2459117 L193.737617,94.6179389 C193.739074,95.6511421 193.741259,98.0711854 193.473928,98.7595014 C193.423667,98.8688737 193.24229,99.0154325 192.665379,99.0919931 L192.031652,99.1619913 L191.99086,99.2028236 C191.896165,99.2976129 191.847361,99.4500049 191.860473,99.6104175 C191.874313,99.7715593 191.94497,99.9079101 192.054233,99.9859289 L192.100852,100.01947 L192.159126,100.015824 C192.90066,99.9749917 193.473928,99.9523881 194.370616,99.9523881 C195.093211,99.9523881 195.815077,99.971346 196.862548,100.015824 L196.918637,100.018741 L196.963799,99.9859289 C197.064321,99.9144724 197.131336,99.8007253 197.153189,99.6651037 C197.177226,99.5090659 197.137892,99.347195 197.044654,99.2210523 L197.00022,99.1627205 L196.262328,99.0919931 C195.750247,99.0497025 195.391864,98.929393 195.302996,98.7667929 C195.073543,98.3606573 194.94097,96.7776763 194.94097,94.4232563 L194.94097,89.7632694 C194.94097,89.3811957 194.947526,88.9736018 194.985404,88.6826716 C195.324849,89.063287 195.890833,89.731916 196.398543,90.3334634 C196.747457,90.7468905 197.070148,91.1289642 197.279206,91.368854 L202.234662,97.0110038 C203.879439,98.8863733 204.668321,99.8174957 204.956047,100.22509 L205.00558,100.294359 L205.090805,100.294359 C205.371248,100.294359 205.580305,100.16457 205.65169,99.9465549 L205.663345,99.9122849 L205.658975,99.8765567 C205.629838,99.627188 205.59633,98.7799176 205.59633,96.1557128 L205.594874,90.7570986 C205.591231,89.6619178 205.583947,87.3833293 205.898626,86.7161585 C205.925577,86.6622016 206.181982,86.4799145 206.97232,86.3566884 L207.324876,86.3063772 L207.364211,86.2670032 Z M188.21909,86.2356498 C188.313785,86.1211735 188.358219,85.9447196 188.333452,85.7857653 C188.310871,85.6523311 188.2424,85.543688 188.136778,85.4780647 L188.093802,85.450357 L188.041355,85.4532736 C187.299093,85.4941059 186.723639,85.5159804 185.808013,85.5159804 C184.989266,85.5159804 184.195286,85.4955642 183.382367,85.4532736 L183.328463,85.450357 L183.282573,85.4809813 C183.184236,85.5466046 183.116493,85.6683724 183.095368,85.8142021 C183.073516,85.9738855 183.113579,86.128465 183.206089,86.2371081 L183.249794,86.2896068 L183.851471,86.3355431 C184.341699,86.3756463 184.675316,86.506893 184.789678,86.7030339 C185.03807,87.1419812 185.175742,88.6841299 185.175742,91.0458413 L185.175742,93.5052586 C185.175742,96.0237369 184.462617,99.0256406 181.068169,99.0256406 C178.221495,99.0256406 176.895767,97.2647474 176.895767,93.482655 L176.895767,88.8664169 C176.895767,86.5929325 176.970066,86.4274158 178.026278,86.3355431 L178.582064,86.2910651 L178.617029,86.2670032 C178.723378,86.1962758 178.77801,86.0519044 178.765627,85.8718048 C178.756157,85.7223294 178.695698,85.538584 178.55657,85.470044 L178.518692,85.4518153 L178.477172,85.4532736 C177.464665,85.4941059 176.747169,85.5159804 175.857037,85.5159804 C174.980745,85.5159804 174.224643,85.4933768 173.216506,85.4532736 L173.174986,85.4518153 L173.137837,85.470044 C172.99798,85.538584 172.937521,85.7216002 172.926594,85.8696173 C172.915668,86.0504461 172.968114,86.1948175 173.075192,86.2670032 L173.110885,86.2910651 L173.687067,86.3355431 C174.744008,86.4274158 174.817578,86.5929325 174.817578,88.8664169 L174.817578,93.9099359 C174.817578,96.4954959 175.349327,98.0901433 176.540297,99.0810559 C177.48069,99.8860356 178.860322,100.294359 180.640585,100.294359 C182.323969,100.294359 183.933054,99.6760409 184.839211,98.6814826 C185.875027,97.5709897 186.377639,95.8640534 186.377639,93.4615097 L186.377639,91.0458413 C186.377639,89.9623269 186.377639,87.4241616 186.662452,86.7533451 C186.761517,86.5375172 187.127185,86.3734588 187.593375,86.3355431 L188.175385,86.2888776 L188.21909,86.2356498 Z M163.671262,113.61444 C163.977927,113.408091 163.87522,112.48499 163.569283,112.332598 C161.364349,112.433949 159.622691,112.48499 157.6239,112.48499 C155.419695,112.48499 153.677309,112.383638 151.165709,112.332598 C150.858315,112.48499 150.755607,113.408091 151.064458,113.61444 L152.395286,113.71725 C155.061311,113.922141 155.419695,114.794202 155.419695,120.18115 L155.419695,138.649019 C155.419695,144.034508 155.316987,144.548558 152.447004,145.061149 L151.577268,145.215 C151.268417,145.5227 151.371124,146.343721 151.67779,146.497572 C153.677309,146.446531 155.419695,146.343721 157.6239,146.343721 C159.622691,146.343721 161.364349,146.394762 164.132353,146.497572 C164.439747,146.343721 164.541726,145.41989 164.23506,145.215 L162.749808,145.061149 C159.878367,144.753449 159.622691,144.034508 159.622691,138.649019 L159.622691,131.414409 C159.622691,129.876635 159.72467,129.773826 162.184552,129.773826 L176.841864,129.773826 C179.301745,129.773826 179.405181,129.876635 179.405181,131.414409 L179.405181,138.649019 C179.405181,144.034508 179.405181,144.548558 176.278065,145.061149 L175.304164,145.215 C174.997499,145.5227 175.100206,146.343721 175.4076,146.497572 C177.662067,146.394762 179.507161,146.343721 181.60793,146.343721 C183.607449,146.343721 185.349107,146.394762 187.809717,146.497572 C188.116383,146.343721 188.21909,145.41989 187.912424,145.215 L186.681391,145.061149 C183.7087,144.701679 183.607449,144.034508 183.607449,138.649019 L183.607449,120.18115 C183.607449,114.794202 183.7087,114.024222 186.681391,113.71725 L187.758727,113.61444 C188.066121,113.408091 187.962686,112.48499 187.655291,112.332598 C185.349107,112.433949 183.607449,112.48499 181.60793,112.48499 C179.507161,112.48499 177.764046,112.433949 175.4076,112.332598 C175.100206,112.48499 174.997499,113.408091 175.304164,113.61444 L176.278065,113.71725 C179.301745,114.024222 179.405181,114.794202 179.405181,120.18115 L179.405181,126.07996 C179.405181,127.670962 179.301745,127.722002 176.841864,127.722002 L162.184552,127.722002 C159.72467,127.722002 159.622691,127.670962 159.622691,126.07996 L159.622691,120.18115 C159.622691,114.794202 159.72467,114.024222 162.697361,113.71725 L163.671262,113.61444 Z M161.603999,96.914027 L161.614197,96.8622575 L161.593802,96.8148629 C161.500563,96.6085139 161.274024,96.5166412 161.090462,96.5166412 C160.985569,96.5166412 160.889417,96.545078 160.81439,96.599035 L160.762672,96.6588251 C160.150069,97.8830652 159.599382,98.5028412 159.320396,98.6581498 C158.860033,98.8878315 158.213922,98.9622047 156.659469,98.9622047 C154.880662,98.9622047 154.422485,98.7485642 154.195946,98.5225282 C153.89365,98.2002447 153.834648,97.5046372 153.834648,96.4116438 L153.834648,93.3980738 C153.834648,92.9846467 153.834648,92.9846467 154.375137,92.9846467 L155.614912,92.9846467 C156.35936,92.9846467 156.916603,93.0014171 157.218169,93.0867275 C157.515366,93.1611006 157.666877,93.3543249 157.760115,93.7772309 L157.952419,94.6091892 L157.985926,94.677 C158.065324,94.7739767 158.214651,94.8315794 158.38583,94.8315794 C158.580319,94.8315794 158.739115,94.7579354 158.809772,94.6347094 L158.832353,94.5967936 L158.832353,94.5530447 C158.832353,94.3437792 158.814871,94.0681611 158.79666,93.7590022 C158.773351,93.3689079 158.746399,92.927044 158.746399,92.4997631 C158.746399,92.0527951 158.773351,91.59489 158.795932,91.191671 C158.814871,90.8642834 158.832353,90.5711657 158.832353,90.341484 L158.832353,90.2977351 L158.8105,90.2598194 C158.739115,90.1358642 158.580319,90.0614911 158.384373,90.0614911 C158.214651,90.0614911 158.065324,90.1190938 157.985926,90.2153414 L157.779783,91.1646925 C157.682903,91.6532219 157.563441,91.7261367 157.376965,91.7881143 C157.148969,91.8646749 156.506501,91.9084238 155.614912,91.9084238 L154.375137,91.9084238 C153.834648,91.9084238 153.834648,91.9084238 153.834648,91.4731222 L153.834648,87.1981256 C153.834648,86.5076221 153.834648,86.5076221 154.311765,86.5076221 L155.848736,86.5076221 C156.755621,86.5076221 157.448351,86.5287674 157.880305,86.6315773 C158.854206,86.875842 159.050151,87.4919724 159.346619,88.4252822 L159.387411,88.5528832 L159.416548,88.6075693 C159.48939,88.6957962 159.613222,88.7446492 159.764005,88.7446492 C159.911146,88.7446492 160.11729,88.6943379 160.211985,88.5528832 L160.244764,88.5040302 L160.216355,88.188309 C160.104907,86.9436528 160.004384,85.8871169 159.889294,85.5626459 L159.839761,85.4226494 L159.695533,85.4576485 C159.458068,85.5159804 158.133796,85.5159804 156.851773,85.5159804 L152.837438,85.5159804 C152.015049,85.5159804 151.310665,85.4984808 150.325838,85.4532736 L150.28359,85.4510862 L150.24644,85.470044 C150.070891,85.5560835 150.040297,85.8069106 150.035926,85.8812837 C150.022815,86.0679457 150.076718,86.2166919 150.184524,86.2881485 L150.59754,86.3574176 C151.690902,86.4864768 151.755731,86.6286607 151.755731,88.8882914 L151.755731,96.5837228 C151.755731,98.8994979 151.62243,99.0001204 150.580786,99.0919931 L149.818128,99.160533 L149.77588,99.2028236 C149.653505,99.3245914 149.636023,99.5236489 149.658604,99.6702077 C149.684098,99.8277037 149.758397,99.9480132 149.860377,99.9990536 L149.897526,100.018011 L149.939046,100.016553 C151.172993,99.9757209 151.915984,99.9523881 152.837438,99.9523881 L154.759744,99.9523881 C156.62232,99.9523881 158.492908,99.9735334 160.479316,100.016553 L160.584937,100.018741 L160.630099,99.9232222 C160.917097,99.3260497 161.453944,97.6672372 161.603999,96.914027 L161.603999,96.914027 Z M143.756198,96.5837228 L143.756198,88.8882914 C143.756198,86.6111612 143.8203,86.4697064 144.888895,86.3574176 L145.336146,86.315127 L145.411174,86.2881485 C145.518252,86.2174211 145.572883,86.0701331 145.561229,85.8842003 C145.556858,85.809098 145.527721,85.5575418 145.352172,85.470044 L145.314294,85.4510862 L145.272045,85.4532736 C144.239871,85.4984808 143.535487,85.5159804 142.75826,85.5159804 C141.833164,85.5159804 141.086531,85.4919185 140.182559,85.4532736 L140.141039,85.4510862 L140.103161,85.470044 C139.927611,85.5560835 139.897746,85.8069106 139.893375,85.8820128 C139.880264,86.0686748 139.934167,86.2166919 140.041245,86.2881485 L140.521275,86.3574176 C141.611723,86.4697064 141.676553,86.6118903 141.676553,88.8882914 L141.676553,91.3455213 C141.676553,91.865404 141.676553,91.865404 140.774038,91.865404 L134.665489,91.865404 C133.762974,91.865404 133.762974,91.865404 133.762974,91.3455213 L133.762974,88.8882914 C133.762974,86.6111612 133.826347,86.4697064 134.896399,86.3574176 L135.301402,86.315127 L135.375701,86.2881485 C135.482779,86.2174211 135.537411,86.069404 135.525756,85.8820128 C135.519929,85.8069106 135.490792,85.5568127 135.314513,85.470044 L135.276636,85.4510862 L135.234387,85.4532736 C134.262672,85.4984808 133.546633,85.5159804 132.765036,85.5159804 C132.207064,85.5159804 131.721207,85.5006683 131.190187,85.4838979 C130.848557,85.4729606 130.487988,85.4612943 130.078615,85.4532736 L130.038551,85.4518153 L130.002859,85.470044 C129.827309,85.5560835 129.796715,85.8054523 129.792345,85.8798254 C129.779233,86.0679457 129.833136,86.2159628 129.940943,86.2881485 L129.975907,86.3122104 L130.573942,86.3581467 C131.515792,86.4303324 131.6826,86.6242858 131.6826,88.8882914 L131.6826,96.5837228 C131.6826,98.8090835 131.641809,98.9024145 130.579769,99.0934514 L130.166754,99.1663662 L130.130333,99.2028236 C130.007958,99.3245914 129.989019,99.5236489 130.013057,99.6702077 C130.038551,99.8277037 130.111394,99.9480132 130.21483,99.9990536 L130.250522,100.017282 L130.291314,100.016553 C130.585596,100.009262 130.866039,99.9990536 131.145753,99.9888455 C131.65055,99.971346 132.172828,99.9523881 132.765036,99.9523881 C133.567029,99.9523881 134.24956,99.9720751 135.471853,100.016553 L135.514101,100.018011 L135.551979,99.9990536 C135.691108,99.9290554 135.750838,99.7380185 135.760308,99.5834391 C135.771234,99.3989645 135.715874,99.2524057 135.609524,99.1816783 L134.918252,99.0919931 C133.893362,98.9811625 133.762974,98.8790818 133.762974,96.5837228 L133.762974,93.5679654 C133.762974,93.0495409 133.762974,93.0495409 134.665489,93.0495409 L140.774038,93.0495409 C141.676553,93.0495409 141.676553,93.0495409 141.676553,93.5679654 L141.676553,96.5837228 C141.676553,98.8572073 141.655429,98.904602 140.512534,99.0927222 L140.053628,99.1649079 L140.017207,99.2028236 C139.894832,99.3253205 139.876622,99.5251072 139.90066,99.671666 C139.926883,99.8284329 139.999725,99.9487424 140.102433,99.9990536 L140.140311,100.018011 L140.182559,100.015824 C141.205264,99.971346 141.951168,99.9523881 142.75826,99.9523881 C143.599588,99.9523881 144.341121,99.9757209 145.335418,100.015824 L145.377666,100.018011 L145.415544,99.9997827 C145.591094,99.9130141 145.620959,99.6621871 145.62533,99.5870848 C145.637713,99.401152 145.583081,99.2531349 145.47746,99.1824075 L144.893266,99.0927222 C143.810102,98.9607464 143.756198,98.8440826 143.756198,96.5837228 L143.756198,96.5837228 Z M126.19831,85.1885928 L126.214335,85.1280735 L126.186655,85.0719291 C126.104343,84.9100581 125.866149,84.8969335 125.794764,84.8969335 C125.741589,84.8969335 125.662919,84.9034958 125.594447,84.9312034 L125.541273,84.9523487 L125.512864,85.0012017 C125.238249,85.4780647 125.123887,85.5159804 123.990462,85.5159804 L115.161256,85.5159804 C114.205566,85.5159804 113.777254,85.4663983 113.68693,84.988077 L113.67746,84.9377658 L113.642496,84.9020375 C113.582765,84.8422473 113.485885,84.8138105 113.346756,84.8138105 C113.295767,84.8138105 113.123131,84.8189146 113.028436,84.8823505 L112.971619,84.9209954 L112.958507,84.9902644 C112.809181,85.8411805 112.493046,87.1922924 112.155058,88.148935 L112.130291,88.2145583 L112.161614,88.2772651 C112.289816,88.5346545 112.729054,88.660068 112.96215,88.4843432 L112.996385,88.4580939 L113.013868,88.4187199 C113.230937,87.9250865 113.434896,87.4591607 113.935322,86.9983389 C114.405154,86.565954 115.471564,86.5076221 116.45202,86.5076221 L117.625509,86.5076221 C118.103353,86.5076221 118.103353,86.5076221 118.103353,87.0267757 L118.103353,96.5837228 C118.103353,98.8994979 117.969324,99.0001204 116.929137,99.0919931 L116.16138,99.155429 L116.087809,99.1794909 C115.960335,99.2575097 115.889678,99.4164641 115.897691,99.6060426 C115.904247,99.7496849 115.960335,99.9290554 116.100921,99.9990536 L116.137342,100.018011 L116.178862,100.016553 C117.48638,99.97645 118.27599,99.9523881 119.141355,99.9523881 C119.975399,99.9523881 120.665214,99.9728043 121.934126,100.016553 L121.976374,100.018011 L122.013524,99.9990536 C122.152653,99.9290554 122.213112,99.7387476 122.221853,99.5834391 C122.233507,99.3989645 122.178876,99.2524057 122.072526,99.1816783 L121.312782,99.0919931 C120.244915,98.9993912 120.181542,98.8586656 120.181542,96.5837228 L120.181542,87.0041721 C120.181542,86.7854276 120.180814,86.5790786 120.216506,86.5440795 C120.252199,86.5076221 120.483837,86.5076221 120.637534,86.5076221 L122.152653,86.5076221 C123.297004,86.5076221 124.074959,86.6716805 124.533136,87.0100053 C124.734909,87.1587516 124.910459,87.6997796 125.000783,88.4580939 L125.006611,88.5054885 L125.037933,88.5426751 C125.115874,88.6381935 125.26083,88.6950671 125.424725,88.6950671 C125.627955,88.6950671 125.79622,88.6082984 125.865421,88.4675728 L125.886545,88.4260114 L125.881446,88.3786167 C125.820987,87.7632155 125.968857,86.0416963 126.19831,85.1885928 L126.19831,85.1885928 Z M111.652446,129.619975 C111.652446,136.236996 114.830553,140.905733 118.930113,143.728266 C122.671289,146.240911 127.078972,147.164742 131.691341,147.164742 C134.971427,147.164742 138.660885,146.394762 139.788483,145.98498 C140.352281,145.78009 140.967798,145.575199 141.581858,145.47166 C142.3518,144.496789 143.683356,141.111353 144.042468,138.443399 C143.837782,138.084658 143.068568,137.981848 142.710184,138.237779 C141.531597,141.265203 138.609896,145.575199 131.998736,145.575199 C123.5942,145.575199 116.777625,139.622432 116.777625,128.850724 C116.777625,118.231408 123.439775,113.25497 131.28124,113.25497 C138.712603,113.25497 141.019516,117.255807 141.787273,120.745511 C142.145657,121.051753 142.914871,121.000713 143.171275,120.642701 C142.761174,117.513196 142.505498,114.281611 142.45378,113.10112 C141.99196,113.15216 141.633576,113.04935 141.019516,112.896229 C138.609896,112.229788 134.715022,111.665427 131.947018,111.665427 C126.617881,111.665427 121.851086,113.10112 118.109909,116.025005 C114.215764,119.051699 111.652446,123.926056 111.652446,129.619975 L111.652446,129.619975 Z M98.3252336,120.964255 L98.3237768,85.2301542 C69.6457944,82.4623072 48,85.2301542 48,85.2301542 L48,120.969359 C50.2857889,145.192396 72.9499175,148.038262 73.1655305,147.999617 C77.2133727,147.268281 96.2149945,143.443169 98.3252336,120.964255 L98.3252336,120.964255 Z M56.0803876,129.883198 C56.5385651,130.194544 57.078326,130.331624 57.5729247,130.543077 C58.1855278,132.146474 57.5874931,133.722893 57.2436778,133.069576 C56.6412727,131.922626 56.4023502,130.971087 56.0803876,129.883198 L56.0803876,129.883198 Z M56.108796,112.319473 L56.0709181,112.282286 C56.0264843,112.282286 52.8855278,114.26557 50.8459456,113.313302 C52.3654343,112.471865 57.63047,109.122887 59.0720176,108.172806 C59.7509071,108.319365 60.0255223,108.074371 60.2425921,107.922708 C59.6919049,107.956249 57.8679357,108.242075 58.7901182,106.608054 C59.1448598,108.072184 61.7030786,106.724718 62.621619,106.513265 C65.1805662,105.924113 65.1616273,108.662065 64.943829,109.793703 C64.8622457,110.21588 65.7276113,110.514831 66.1537383,110.454311 C65.4202172,112.263328 64.1687878,110.557851 64.0194612,111.247625 C63.9590022,111.526889 63.1198598,111.747091 63.1235019,112.44197 C63.1286009,113.391321 63.5000962,112.872896 63.5343321,113.608607 C63.5707532,114.321714 63.23058,113.766832 63.3070643,114.538271 C63.4294393,115.762511 65.4537246,114.374942 66.2906817,114.706704 C66.7080676,114.871492 66.9855965,115.247003 67.3935129,115.17263 C67.5122457,115.074924 67.4590709,114.611915 67.4401319,114.446399 C67.397155,114.057762 66.6789307,114.012555 66.3445849,113.481006 C66.0532161,113.017997 66.6752886,111.625324 67.0118197,111.215542 C67.4947636,113.516005 69.6479797,112.794878 69.9692139,115.212733 C70.1724437,115.897404 69.2291369,116.657176 69.9947086,117.770586 C69.4258109,118.322551 68.7432793,120.940923 69.9327927,122.170996 C69.7302914,122.728065 69.4658741,124.013554 70.5242716,124.763118 C70.1680731,125.522162 70.2496564,126.449638 70.5497664,127.393885 C69.8905443,127.396802 70.0216603,123.694187 66.0728835,123.576794 C65.9840159,123.548357 65.9628917,123.996054 66.0765256,124.19657 C66.55,125.029257 67.1851842,124.980404 67.0489692,126.938168 C67.0023502,127.608984 66.6097306,126.821504 66.4006734,126.637029 C65.9221001,126.214123 65.55279,126.15725 65.3444612,124.779889 C63.7397471,126.039128 63.8978147,127.563777 63.9976086,128.338132 C63.998337,128.339591 63.6435954,127.372011 63.2378642,126.37964 C63.21674,126.326412 64.8688015,124.338025 65.1303051,123.865537 C68.4628367,117.861729 62.9792743,125.8058 62.9676196,125.778822 C62.6726086,125.094881 62.4147471,124.505 62.2413826,124.318338 C62.2843595,124.235215 63.1992578,123.213678 63.6122732,122.351825 C66.189431,116.980189 62.0804013,124.141155 61.9339885,124.009179 C61.6229522,123.729915 61.3665476,123.379195 61.1698736,123.505337 C61.123983,124.330004 60.9265805,124.218444 60.9841259,125.059882 C60.5543568,125.63445 59.6329027,126.536407 58.988249,126.982646 C58.988249,126.982646 58.8279962,125.492267 58.8702446,125.439039 C59.1943925,125.044569 60.4618472,123.685437 60.7204371,123.277843 C64.943829,116.638948 58.7434992,124.877594 58.7318444,124.806867 C58.6881391,124.544374 58.3486943,124.11126 57.9866685,123.740852 C57.9866685,123.740852 59.3561023,121.873503 59.6933617,121.179354 C62.2625069,115.890841 57.6275563,123.523566 57.5765668,123.495129 C57.4651182,123.436797 57.4541919,123.438256 57.3245327,123.393778 C57.195602,123.350758 57.466575,121.871316 57.6457669,120.980297 C57.9932243,119.217945 57.0601154,120.638326 56.8058961,123.430235 C56.5684305,123.468151 55.9893348,123.527941 55.7708081,123.726998 C55.9128505,124.472188 56.0884002,123.899077 56.4008933,124.615101 C56.7738455,125.473309 55.8807999,126.879107 56.6580264,127.908664 C56.9581363,128.30605 56.9763469,128.239697 56.9173447,128.500003 C56.4380429,128.465733 56.1474024,128.456254 55.8451072,128.870411 C55.2572705,126.195895 55.2762095,124.908219 55.4131528,122.189954 C55.4750687,120.954047 55.8807999,119.084511 55.6950522,119.049512 C55.5195025,119.015971 52.7209043,126.228706 52.045657,127.642525 C50.865613,127.243681 52.7799065,121.000713 55.2135651,117.995893 C55.4422897,117.040708 53.9373694,118.96566 53.0384964,119.731995 C52.2146509,120.434894 51.1715503,121.352162 50.0352117,121.037899 C51.4949698,119.492834 54.840613,116.601761 55.2135651,115.879904 C55.5246014,115.260857 52.9299615,117.807043 50.1889087,116.860609 C51.9626168,115.90907 56.1015118,113.793811 56.108796,112.319473 L56.108796,112.319473 Z M61.0445849,125.886736 C61.0547828,126.544428 61.0081638,127.031499 61.1997389,127.700128 C61.5100467,128.709269 61.3541644,128.397923 60.9309511,128.050848 C60.5951484,127.676795 60.2811985,127.368365 60.1187603,126.930876 C60.0786971,126.620259 60.3285459,126.602759 61.0445849,125.886736 L61.0445849,125.886736 Z M67.6695849,109.631832 C67.2704096,108.949349 68.1474299,108.297491 68.1474299,108.297491 C68.1204783,110.217338 70.5723474,108.899767 71.8514568,109.510064 C72.158851,109.651519 72.374464,109.922033 72.5012095,110.20713 C71.1252199,109.254862 68.5815695,111.190022 67.6695849,109.631832 L67.6695849,109.631832 Z M53.2519241,94.2978428 C51.0637438,94.2978428 51.1096344,91.0144879 53.2519241,91.0144879 C55.4044118,91.0144879 55.4044118,94.2978428 53.2519241,94.2978428 L53.2519241,94.2978428 Z M53.2519241,100.856532 C51.0134827,100.856532 51.0134827,97.5746354 53.2519241,97.5746354 C55.4044118,97.5746354 55.4175234,100.856532 53.2519241,100.856532 L53.2519241,100.856532 Z M55.496193,93.7713977 L57.4032023,93.7713977 L57.4032023,91.8931117 L55.496193,91.8931117 L55.496193,93.7713977 Z M55.496193,100.314046 L57.4032023,100.314046 L57.4032023,98.4357596 L55.496193,98.4357596 L55.496193,100.314046 Z M72.8129742,103.549277 C72.8129742,103.549277 70.8178257,102.465033 68.4737631,102.308995 C66.20837,102.158791 61.6309648,103.970725 58.1163277,103.731564 L58.1163277,88.2721611 C58.1163277,88.2721611 62.1241067,88.8058976 63.7703408,88.1700803 C69.3675371,86.0088847 72.8129742,88.4230948 72.8129742,88.4230948 L72.8129742,103.549277 Z M76.6801677,106.058276 C76.7777763,106.642324 76.237287,106.788883 76.2387438,106.788154 C77.0786146,106.985024 77.4807037,106.484099 77.6453271,106.168378 C77.9680181,107.511469 76.6153381,107.5873 76.1928532,107.667507 C76.1921248,107.667507 76.8782985,107.865106 76.9147196,108.312803 C77.0035871,109.448816 77.7341946,109.351839 77.8908054,109.262154 C77.8653106,109.399963 77.6394997,110.085362 76.8192963,109.466315 C76.6801677,109.603395 77.0429219,109.815578 77.1143073,110.379938 C77.2075454,111.093045 77.1842358,111.754383 78.0080814,112.188955 C77.5025563,112.590716 76.9088922,111.545117 76.8579027,111.670531 C76.7981721,111.809798 77.5579164,112.194059 76.7224162,114.166406 C76.3414513,113.946932 76.5541506,113.988493 76.1112699,113.462777 C75.773282,113.179139 75.6407092,113.114974 75.9226086,113.582358 C76.4157504,114.199217 76.5315695,115.60939 76.3618472,115.989276 C75.9553876,115.812823 76.0602804,115.487622 75.5809786,115.045029 C75.5365448,115.233879 75.7273914,116.168647 76.2227185,116.616344 C77.0786146,117.389241 77.3816383,118.32328 77.3976636,118.507755 C77.4654068,119.210654 77.2446949,120.136672 77.1616548,121.042274 C76.7508246,120.983213 76.4026388,119.815847 76.3021165,119.88147 C76.1811985,119.960947 76.3538345,121.024046 77.1288758,121.748819 C77.5025563,122.844729 77.3525014,123.433881 77.2527075,123.473255 C77.1208631,123.530128 76.7042056,122.351825 76.4762095,122.556715 C77.5783123,125.363936 76.8069131,126.341724 76.5155443,127.206494 C76.2875481,126.31985 76.1724574,125.656325 75.8869159,124.652288 C75.2859676,125.124047 75.1424684,125.824029 74.4074904,126.46495 C74.4074904,125.320188 73.7468114,122.555986 73.2223474,121.912148 C73.1983095,121.882253 72.2753986,124.389794 71.855099,125.505391 C71.3087823,126.949834 71.2242853,128.756664 71.855099,130.164649 C70.4936778,128.227302 70.3479934,124.620205 71.52221,124.133863 C71.6241891,123.875745 71.4522815,123.027016 71.1900495,123.132743 C71.1142936,123.547628 71.1652831,123.901994 70.8214678,124.307401 C69.9204096,124.043449 70.3312397,122.942435 70.4120946,122.577132 C71.5804838,121.17425 70.8498763,120.849779 70.7959731,120.886966 C70.6692276,121.20852 70.5585074,121.60226 70.2015805,121.748819 C69.4520341,120.458226 69.9327927,118.433382 71.3568582,116.920399 C71.4165888,116.355309 70.7194887,117.341117 70.2656817,117.306847 C70.1476773,116.218229 70.5417537,114.329735 72.552199,114.260466 C72.1683205,114.148177 71.9629054,114.078179 71.8696674,113.757353 C72.4778999,113.666939 74.3849093,113.521838 74.0702309,112.015418 C73.8895822,112.196976 73.8313084,112.46749 73.3352529,112.770087 C73.0009071,112.973519 72.6374244,112.991018 72.4473062,112.696443 C73.3316108,112.404054 73.0395135,111.326373 71.8849643,111.643552 C71.5309511,111.740529 71.0137713,111.370122 70.9882765,110.959611 C71.2446811,111.217001 71.7662314,111.026693 72.0670698,110.830552 C73.3673035,109.985469 74.1598268,111.209709 74.3353766,111.472932 C74.3870946,111.472932 74.9181143,110.249421 73.0730209,109.920575 C72.9193238,109.490377 72.4975673,108.730605 71.2446811,108.825394 C70.8323942,107.368556 69.5838785,108.087496 69.6253986,108.746646 C68.2989417,107.768858 69.6479797,106.535139 70.1840984,106.344831 C70.5548653,106.375456 70.473282,107.55303 71.1252199,107.354702 C71.2832875,107.308036 70.618238,106.543889 70.8731858,106.197544 C71.4712205,105.855573 71.4581089,106.635762 71.7523914,106.344831 C71.8995327,105.833699 72.486641,105.547872 72.9703134,105.493186 C74.3251787,105.300691 75.379934,106.788154 76.6801677,106.058276 L76.6801677,106.058276 Z M88.8805113,103.78625 C85.9355003,103.986766 79.8262232,102.308995 78.273227,102.308995 C75.0688977,102.308995 73.5195437,103.561672 73.5195437,103.561672 C73.5195437,103.561672 73.5231858,89.0005802 73.5195437,88.4763226 C73.5195437,88.4763226 77.7298241,86.5003306 80.7935679,87.6319688 C84.5449423,89.0180798 88.8805113,88.4041369 88.8805113,88.4041369 L88.8805113,103.78625 Z M92.7586311,97.8371288 C94.3808274,97.6001556 94.6248488,99.5170866 94.6248488,99.5170866 L94.6219351,99.5170866 C94.2227598,99.1991779 93.4193101,99.0555357 92.8751787,99.4069852 C91.0621358,100.575081 89.4282848,100.588205 89.4282848,100.588205 L89.4282848,97.6599458 C89.4282848,97.6599458 89.7728285,98.2731595 92.7586311,97.8371288 L92.7586311,97.8371288 Z M94.6787521,93.8282713 C94.6663689,93.7415027 94.6481583,93.6087977 94.6219351,93.4206774 C94.5818719,93.1275598 93.7412727,92.9583974 93.148337,93.2179742 C92.3179357,93.58109 90.2397471,94.7688727 89.4814596,94.544295 L89.4814596,91.6167644 C91.3520478,92.4290357 92.0826553,91.6955125 92.6843321,91.6955125 C94.5323392,91.6955125 94.6248488,93.4206774 94.6248488,93.4206774 C94.6496152,93.6087977 94.6670973,93.7415027 94.6787521,93.8282713 L94.6787521,93.8282713 Z M92.5874519,124.177612 C92.0411352,124.319796 90.5988593,124.896552 90.2506734,125.463101 C90.4356927,122.342346 89.4282848,119.277006 89.107779,118.536921 C88.4827927,117.094665 89.3882216,121.89319 89.449409,122.998579 C89.4515943,123.048161 84.2746976,116.340726 87.4003573,121.506013 C88.2096344,122.844729 89.4749038,123.718978 89.4756322,123.740852 C89.4967565,124.672704 89.4341121,125.358103 89.2571056,125.85757 C88.938785,126.112043 82.2103491,116.894149 85.9304013,123.277843 C86.3907642,124.070427 89.0895684,126.46568 89.0669874,126.513803 C88.8958081,126.877648 88.5927845,127.40701 88.1753986,127.797834 C88.1032848,127.727106 86.6224024,126.633384 86.6122045,126.567031 C86.5000275,125.854653 86.495657,125.18092 85.6164513,125.68622 C85.6164513,125.68622 82.3014019,121.822463 83.8369159,124.529791 C84.5070643,125.713928 84.9477598,125.844445 85.1262232,126.055169 C85.1262232,126.055169 84.6119571,126.753693 84.4466053,127.494508 C84.3810473,127.791271 81.5722512,124.378128 82.6736256,126.522553 C83.0269104,127.209411 84.3111187,127.958975 84.2972787,128.007828 C84.1654343,128.454067 84.032133,128.886452 83.8915476,129.167903 C83.7159978,129.523728 81.2495602,131.49097 81.2532023,131.489512 C81.2532023,131.488782 81.7354178,129.931322 82.7836174,129.167903 C83.3823804,128.729685 83.3838373,128.825933 83.780099,128.576564 C83.7713579,128.346153 83.5499175,127.970642 83.2629192,127.870748 C82.9030786,127.743877 81.7361462,127.956059 81.7361462,127.956059 C81.8454096,127.372011 81.3347856,126.112043 81.3413414,124.726661 C80.9021028,124.769681 80.1307037,125.449976 79.944956,125.836425 C79.8094695,128.131783 79.3112287,127.444197 78.8450385,129.095718 C78.3380566,128.403027 78.8800027,127.407739 78.3839472,126.760255 C77.6999588,125.868507 77.5965228,125.267689 77.4952721,124.170321 C77.655525,124.081365 78.3526251,123.309926 77.7181693,121.691945 C77.6147334,119.147947 78.7496152,118.175992 76.7195025,116.39687 C76.8899533,116.341455 77.0130566,115.066904 77.0130566,115.065445 C78.5085074,115.863863 78.2120396,114.140885 78.7947774,113.802561 C79.7198736,113.265178 79.5523364,112.708109 79.1364074,112.01396 C81.7820368,112.76717 79.0169461,114.577645 80.2144722,114.617019 C81.0834799,114.643269 81.6654893,114.423066 82.042812,113.838289 C82.4441726,113.2207 81.9728835,112.841543 83.0953821,111.839693 C83.2075591,111.739071 83.5047554,111.071171 82.6146234,110.887426 C82.4201347,110.846593 82.6168087,110.084633 82.6168087,110.084633 C81.9036833,110.688368 81.6807861,111.538555 80.5342496,111.001173 C79.9485981,110.724825 79.5676333,110.996069 79.327254,111.112003 C79.327254,111.112003 79.2056075,110.632224 79.6907367,110.470353 C80.9443513,110.048905 81.2546592,109.54798 81.185459,109.27382 C81.0164651,108.621962 80.9654755,109.27382 81.0018966,108.586963 C81.0171935,108.314261 81.3340572,107.943125 81.5970176,107.625945 C82.4470863,106.599304 83.0494915,106.984295 83.2658329,107.075438 C83.7604316,106.692635 83.8471138,106.719614 84.3074766,106.538056 C85.094901,106.228168 86.8008659,106.742217 87.7543705,107.18554 C88.2161902,107.394805 88.7683342,107.520948 89.3080951,107.401367 C89.3029962,107.679902 89.107779,107.830107 88.9140187,107.885522 C88.616094,107.978853 88.2613524,107.885522 88.2846619,108.103537 C88.2992303,108.231138 88.7064184,108.253013 88.9606377,108.322282 C90.3737768,108.70873 92.202845,109.97599 91.0016767,109.709122 C90.8603628,109.677768 91.8677708,110.463061 92.628972,111.484598 L95.3234057,114.104428 C95.1988455,114.253174 94.2548103,114.118282 91.2624519,111.31179 C90.8370533,111.691676 94.9016493,114.758474 96.5792056,118.013392 C96.434978,118.114744 94.3436778,117.352055 93.5897609,116.574053 C92.4279274,115.370959 91.0927295,112.312911 90.544956,112.759878 C90.4779412,112.785399 92.7528037,116.330518 93.8767592,118.433382 C94.4442001,119.497938 94.9111187,121.022587 94.9497251,122.170996 C95.1296454,127.83502 94.2781198,127.399719 94.2788483,127.400448 C92.9523914,122.935873 92.3332325,117.752357 90.3985432,115.36148 C89.6256872,114.405566 92.4658054,119.544604 92.5874519,124.177612 L92.5874519,124.177612 Z M86.7265668,129.269984 C86.1278037,129.7957 85.7380979,129.982362 85.8684854,129.721327 C86.0134415,129.430397 86.1212479,129.183215 86.2028312,128.966658 C86.2297828,128.893743 86.7265668,129.269984 86.7265668,129.269984 L86.7265668,129.269984 Z M86.3339472,128.567085 C86.4665201,128.090951 86.4665201,127.762834 86.5277075,127.342845 C86.5553876,127.162745 86.5590297,127.18462 86.5684992,127.032957 C86.5706844,126.982646 87.8643623,128.110638 87.9364761,128.156575 C87.6115998,128.563439 87.3340709,128.709269 87.0252199,128.998012 C86.8052364,128.808433 86.3222925,128.613021 86.3339472,128.567085 L86.3339472,128.567085 Z M90.5333013,130.007882 C88.7370121,131.784087 86.0440352,131.140979 83.9206844,132.091788 C81.9976498,132.793958 80.6041781,134.574538 78.587177,135.023693 C77.9935129,135.215459 77.8959043,135.512223 78.2739555,135.502744 C78.4961242,135.496182 79.7249725,136.780941 81.6924409,135.790758 C82.3494777,135.459724 84.3897883,134.321524 84.7343321,134.256629 C83.630044,135.30952 83.0764431,136.250121 82.0879742,136.806461 C81.4841121,137.144786 79.0235019,138.027055 76.5687191,137.550192 C75.4819131,137.33801 74.6442276,138.342047 74.9217565,138.319444 C75.5037658,138.164135 76.1571605,138.242883 76.5483233,138.757662 C77.2614486,139.31619 78.2928944,140.012526 79.1815695,138.974948 C79.4758521,138.63079 80.8853491,137.897996 82.2096207,139.244004 C80.8015805,139.169631 80.9407092,141.705609 78.2717702,141.408116 C77.2833013,141.401554 75.1002199,139.139007 74.4788758,139.83826 C73.3753161,141.07927 76.8491616,142.256845 75.3449698,143.817951 C73.9864623,145.227395 72.3642661,142.695063 72.3642661,142.695063 C73.2121495,143.050887 74.7753436,143.27984 74.0862562,141.90102 C73.8130979,141.352701 73.2930044,140.860526 73.2930044,139.84701 C73.1742716,139.343168 70.0646372,143.855138 68.0083013,141.817168 C67.1997526,141.015834 65.5644447,139.259316 64.0806487,138.590687 C68.0068444,138.256008 68.6056075,139.82951 68.792812,140.081795 C70.0486119,141.777065 71.2097169,140.055546 71.4763194,139.753679 C71.8856927,139.287024 72.4640599,138.646102 72.2593733,138.548396 C70.7362424,137.82581 68.9974986,137.67196 67.6965366,138.269133 C70.4791094,134.441104 72.6439802,138.025597 72.6439802,138.024868 C72.9484607,138.215176 72.5653106,135.755029 69.8147883,135.618678 C68.0949835,135.534097 66.582779,137.082808 65.3969076,137.080621 C64.4332051,137.079163 61.5115036,135.1039 60.8246014,133.349569 C62.5247389,134.622662 64.6932518,135.353998 66.044475,134.54683 C68.5859401,133.030931 71.7866273,135.316811 71.9388675,135.04411 C71.2279274,134.487769 69.6115585,132.318553 65.2483095,133.555189 C63.5554563,134.527873 62.842331,132.833332 61.8036009,132.804166 C63.5707532,131.23358 64.7966877,132.032727 65.4151182,132.080851 C65.5608026,132.080851 64.6772265,131.353161 64.0573392,131.287537 C59.2351842,130.785883 56.1816383,129.458104 56.1816383,129.458104 C56.1568719,129.458104 56.5837273,128.48542 58.6553601,129.186861 C58.6553601,129.186861 56.797155,128.047931 56.8124519,126.583802 C56.8729109,125.681845 57.3099643,124.715724 56.61942,123.963972 C59.4180181,123.848766 57.4308824,127.754814 59.3947086,128.761768 C59.4369571,128.777809 58.8163414,127.828458 59.6911765,127.092018 C60.0969076,128.239697 61.0955745,128.832495 61.7992303,129.018428 C61.9631253,128.928013 62.167812,128.575835 62.167812,128.576564 C61.427735,127.353053 61.3308549,125.926839 61.5304426,124.293547 L61.5595794,124.277505 C61.7176471,124.284797 61.9871633,124.83895 62.1758246,125.245814 C62.5844695,126.124438 62.5742716,127.388052 63.3879192,128.430005 C63.8380841,129.004574 64.1170698,129.577685 64.5206157,129.85549 C64.6954371,129.448625 64.5657779,128.749372 64.5388263,128.563439 C64.4470451,127.899914 64.0318444,126.737652 65.1652694,125.71174 C65.6948323,127.242952 66.4159703,126.7989 66.5135789,127.533153 C66.648337,128.561981 66.6031748,128.397923 66.4990104,129.18759 C66.5521853,130.276209 67.5406542,130.582451 68.418403,131.278059 C70.3960693,132.35574 71.7086861,132.938329 72.5696811,134.318607 C72.9892523,131.990436 66.7117097,131.52524 67.5209868,127.032228 C67.4372183,125.237794 67.7446124,125.087589 66.4749725,123.991679 C68.9938565,124.066052 70.3654755,128.204698 70.5024189,128.960096 C70.7551814,130.348394 71.5965091,130.42058 72.7525151,132.230326 C72.9193238,132.291575 70.6852529,127.407739 73.3483645,123.226803 C73.3483645,123.226803 74.2465091,125.398936 73.8232958,126.823691 C73.5668911,127.68117 73.8036284,128.629792 73.8524327,129.167903 C73.9005085,129.716223 73.7424409,127.186807 75.6443513,125.877986 C75.7630841,126.834629 76.6794393,128.317716 75.8104316,129.906531 C74.7542194,131.839503 74.6770066,131.144624 74.6609813,133.522377 C74.757133,133.481545 75.0302914,131.883252 75.7550715,130.976191 C77.2869434,129.05926 76.1928532,128.028244 77.688304,126.367245 C77.8070368,127.197744 78.0182793,126.868899 78.1078752,127.608984 C78.3081913,129.269255 76.5760033,131.085563 76.9591534,131.030877 C77.4005772,130.96817 78.1078752,130.583909 78.3453408,129.323941 C78.3453408,129.323941 78.9827103,130.474537 78.3992441,130.858069 C77.3430319,131.552218 77.1230484,132.299595 77.2869434,133.138845 C78.1348268,132.126058 79.2930181,131.00317 79.0919736,129.560914 C79.1881253,128.690311 80.1321605,128.337403 80.3186366,126.314017 C80.3499588,125.978608 80.685033,125.571744 81.0193788,125.393102 C80.8729659,126.529845 81.7550852,127.705232 80.7527763,129.095718 C80.9815008,129.218214 81.8293843,128.010745 83.0691589,128.45115 C80.5808686,128.899577 81.3063771,131.598155 79.4000962,132.847186 C78.8260995,133.224155 78.9237081,133.646332 78.7518004,133.694456 C80.4541231,133.598208 81.7660115,131.56826 81.9932793,131.41368 C83.704343,130.255793 84.0794805,130.07861 84.7627405,128.201053 C85.0307999,127.487216 84.8370396,127.171495 85.7847169,126.20829 C86.2013744,127.15837 85.5967839,129.126342 85.4525563,129.549977 C85.1458906,130.456308 84.070011,131.240872 84.2980071,131.240872 C88.8848818,129.214569 88.8273364,127.854707 89.9243403,126.402973 C90.2535871,125.84882 91.8852529,124.886344 92.4956707,124.797388 C92.3463441,125.099985 91.7118884,125.60893 91.6820231,126.157979 C91.626663,127.172953 91.3003299,127.792 90.7875206,128.606459 C91.0723337,128.960096 91.6193788,127.93783 92.1795355,128.45115 C91.4387301,128.696873 91.1087548,129.522269 90.5333013,130.007882 L90.5333013,130.007882 Z M91.3010583,129.738826 C91.0286284,131.076814 90.5668087,132.315637 89.7619021,133.46842 C89.1995602,134.285066 88.9701072,132.696981 89.4552364,131.159936 C90.1443238,130.885048 90.8319544,130.350582 91.3010583,129.738826 L91.3010583,129.738826 Z M87.8068169,95.802805 C87.7004673,95.7619727 87.4782985,95.7211404 87.3362562,95.7211404 C87.1949423,95.7211404 87.1199148,95.9216562 87.296193,95.9683216 C87.4069131,95.9989459 87.6145135,96.0361324 87.8148296,96.0456114 C87.9503161,96.0580069 87.9066108,95.8443664 87.8068169,95.802805 L87.8068169,95.802805 Z M87.2852666,96.4444555 C87.3952584,96.4772672 87.5970313,96.5071623 87.801718,96.5217452 C87.9321056,96.5385156 87.8891286,96.3212294 87.7893348,96.2803971 C87.689541,96.2446689 87.4659153,96.2016491 87.328972,96.1987325 C87.1803738,96.1987325 87.1104453,96.3912277 87.2852666,96.4444555 L87.2852666,96.4444555 Z M87.2852666,99.3690694 C87.1840159,99.2502183 86.9108576,99.0234531 86.6661078,98.8499158 C86.5247938,98.9658504 86.2363386,99.1765743 86.0520478,99.2728219 C85.9136476,99.1175133 85.7315421,98.9031437 85.4532848,98.6865866 C85.2857477,98.8010629 84.8035322,99.2421976 84.5995739,99.3588614 C84.8931281,99.3661529 85.3316383,99.4631296 85.3476636,99.7365602 C85.3578615,99.9582213 85.3316383,101.342145 85.3476636,101.595159 C85.5275838,101.633804 85.7402831,101.615575 86.0017867,101.600992 C86.0141699,101.404852 86.0097993,99.809475 86.0141699,99.6155216 C86.102309,99.5666686 86.2064733,99.5178157 86.2567345,99.4726085 C86.3579852,99.5484399 86.6661078,99.9020769 86.8445712,99.9975953 C86.9654893,99.9042643 87.2852666,99.6242714 87.4258521,99.4915664 C87.5744502,99.3442784 87.4149258,99.2502183 87.2852666,99.3690694 L87.2852666,99.3690694 Z M86.4796317,97.0445446 C86.6464404,96.7412189 86.8941039,96.2497729 86.8773502,95.876449 C86.8554975,95.4163564 86.5735981,94.7346027 85.900536,94.510025 C85.0460968,94.8140798 84.5179907,95.488542 84.4946811,96.2862303 C84.4786559,96.7528852 84.875646,97.7146319 85.6951209,97.7204651 C85.947155,97.4776587 86.2137576,97.2195402 86.4796317,97.0445446 L86.4796317,97.0445446 Z M85.9617235,97.2261025 C85.802199,97.1488128 85.2252886,96.7033032 85.0934442,96.3627909 C84.9208081,95.9026983 84.9208081,95.3944819 85.4095794,95.0962602 C85.7912727,95.2369859 86.2363386,95.6124973 86.2756734,95.9573844 C86.3303051,96.4050815 86.2021028,96.9359015 85.9617235,97.2261025 L85.9617235,97.2261025 Z M85.9391424,93.6707753 L86.5532023,92.9985005 C86.5532023,92.9985005 86.280044,92.7848601 86.1183342,92.5858026 C86.1183342,92.4450769 86.1183342,91.0997983 86.1780649,91.0276126 C85.7162452,90.6156438 85.3789857,90.5638743 85.1801264,90.5893944 C84.8071743,90.646268 84.4240242,91.1260476 84.3023777,91.2864602 C84.2135102,91.4133321 84.2368197,91.5730155 84.3023777,91.6328057 C84.3766767,91.693325 84.4742853,91.7553026 84.5748076,91.8158219 C84.5580539,91.8056139 84.5420286,91.7954058 84.5245465,91.7881143 C84.3489967,91.9529018 84.0940489,92.4275774 84.10279,92.7491318 C84.1071605,93.0728736 84.3970726,93.541716 84.5922897,93.7174408 C84.810088,93.5504658 85.1291369,93.2697437 85.5996976,93.1786002 C85.6514156,93.4046361 85.7592221,93.541716 85.9391424,93.6707753 L85.9391424,93.6707753 Z M85.5698323,92.1206059 C85.2668087,92.012692 84.6709593,91.7319699 84.4553463,91.5525994 C84.3970726,91.5073922 84.3919736,91.4811428 84.4619021,91.368854 C84.5995739,91.1639633 84.7561847,90.985322 84.865448,90.9933426 C84.9608714,90.9933426 85.5669186,91.3178136 85.5465228,91.4891635 C85.5683755,91.609473 85.5712892,91.865404 85.5698323,92.1206059 L85.5698323,92.1206059 Z M85.5742029,93.0313122 C85.4168637,93.040062 85.2791919,93.0823526 85.0774189,93.1786002 C84.9127955,93.0437077 84.4837548,92.5252833 84.79989,91.9448812 C84.7561847,91.9186318 84.7110225,91.8960282 84.6687741,91.8690498 C84.9608714,92.032379 85.2995877,92.1752921 85.5683755,92.2620607 C85.5661902,92.4924716 85.5581776,92.7002788 85.5581776,92.7761103 C85.5574491,92.8745453 85.5661902,92.9540225 85.5742029,93.0313122 L85.5742029,93.0313122 Z M83.8092358,90.26784 C83.6642798,90.26784 82.6940214,90.2882562 82.6692551,90.2335701 C82.5985981,90.0250336 82.5803876,89.7720192 82.7471963,89.4205697 C82.8302364,89.2448449 82.6692551,89.1712009 82.6066108,89.3476548 C82.5454233,89.520463 82.0595657,90.1927378 81.5547691,90.4092948 C81.2947224,90.5113756 81.8709043,90.7505362 81.832298,90.739599 C81.8286559,91.3870827 81.9218939,92.3575791 82.0595657,92.7462152 C82.1447911,92.9780844 82.4084799,93.3543249 82.5891286,93.2398486 C82.7056762,93.1654755 82.9591671,92.6623631 83.0392936,92.5981981 C83.1791506,92.4837218 83.0422073,92.2897683 82.9256597,92.4064321 C82.7952721,92.5201792 82.6852804,92.3429962 82.6503161,92.2248741 C82.6066108,92.1096687 82.487878,90.6863712 82.5476086,90.6586635 C82.5476086,90.6586635 83.695602,90.5193962 83.8092358,90.5193962 C83.8879054,90.5193962 83.8915476,90.26784 83.8092358,90.26784 L83.8092358,90.26784 Z M80.6573529,92.892774 L81.1322842,92.2759145 C80.7877405,92.2168535 80.6456982,92.1534176 80.4060473,91.8792578 L80.4147883,90.3487755 L79.9303876,89.8638919 L79.7650357,89.8821206 L79.0052914,90.5500204 C78.9266218,90.6666842 79.1320368,90.6666842 79.2325591,90.528146 L79.7839747,90.8438672 L79.8080126,92.3247675 C79.8502611,92.5019505 79.996674,92.6740295 80.2159291,92.892774 L80.6573529,92.892774 Z M80.2465228,89.4949428 L80.5131253,89.2630736 L80.5131253,88.8919371 L80.1540132,88.5426751 L79.7978147,88.8467299 L79.8058274,89.2754692 L80.0265393,89.4949428 L80.2465228,89.4949428 Z M79.0300577,89.0224547 C78.8275563,88.9983928 78.152309,89.0552664 77.9097444,89.0931821 C77.6664513,89.1303686 77.6664513,89.2484907 77.8689527,89.2732817 C78.0714541,89.294427 78.1093321,89.3367176 78.2156817,89.6086899 C78.3140187,89.8821206 77.8281611,91.1224019 77.7065146,91.4140612 C77.5637438,91.2011499 77.0487493,90.0665951 77.0487493,89.9127448 C77.0487493,89.8026434 77.276017,89.6918129 77.374354,89.6662927 C77.5637438,89.6072316 77.5601017,89.4759849 77.4158741,89.4475482 C77.0130566,89.3906746 75.5933617,89.2652611 75.3420561,89.2339077 C75.1614074,89.2185956 75.0783672,89.4285903 75.2983507,89.4285903 C75.5263469,89.4351526 75.7630841,89.3673418 76.0107477,89.731916 C76.297746,90.1438848 77.1973474,92.0797736 77.412232,92.8942323 C77.5178532,92.7228824 78.4159978,90.1176355 78.4677158,89.8412883 C78.5318169,89.5715034 78.7212067,89.3082808 78.985624,89.230262 C79.2573255,89.156618 79.2325591,89.0406834 79.0300577,89.0224547 L79.0300577,89.0224547 Z M74.7702446,95.3215671 C74.7826278,96.4050815 75.2138538,96.4969542 75.7055388,96.7805929 C76.171729,97.0445446 76.9547828,96.9913168 77.5418911,96.8367373 C77.7655168,96.771114 77.8857064,96.7579893 77.8776938,96.9504844 C77.8776938,97.0707939 78.0466877,97.0445446 78.0466877,96.9548593 C78.0466877,96.8666324 78.0547004,95.9573844 78.0547004,95.8574911 C78.0547004,95.743744 77.890077,95.7605144 77.890077,95.8574911 C77.890077,96.009154 77.890077,96.0543612 77.7414788,96.2701891 C77.3372045,96.8688198 76.3261545,96.8447579 75.7849368,96.1134222 C75.5991891,95.8640534 75.431652,95.5308327 75.6458081,95.4673967 C75.8585074,95.4025025 76.5089885,95.537395 76.9387576,95.5738524 C77.1973474,95.5906228 77.79174,95.6511421 77.8667675,95.6941619 C77.9323255,95.743744 78.0328477,95.8064507 78.0328477,95.6766623 C78.0394035,95.5490614 78.0394035,95.1312594 78.0394035,95.0022001 C78.0394035,94.8775158 77.9417949,94.9373059 77.8689527,94.981784 C77.7961105,95.0328243 77.1616548,95.13928 76.9074354,95.183758 C76.6517592,95.2311527 75.8657916,95.2945886 75.6581913,95.2245904 C75.4469489,95.153863 75.5168774,94.7287695 75.7055388,94.485234 C76.2533123,93.7590022 77.360514,93.8100426 77.7611462,94.4137774 C77.898818,94.6237721 77.898818,94.6733542 77.898818,94.8315794 C77.898818,94.9263687 78.0576141,94.9373059 78.0576141,94.8315794 C78.067812,94.7287695 78.0714541,93.6314013 78.0714541,93.5439035 C78.0714541,93.4585931 77.9104728,93.4272397 77.9104728,93.5439035 C77.9104728,93.6241098 77.734923,93.6707753 77.5608301,93.6241098 C77.2170148,93.5154667 76.2154343,93.6707753 75.7681831,93.9157691 C75.3719214,94.1418051 74.7629604,94.6646044 74.7702446,95.3215671 L74.7702446,95.3215671 Z M74.9618197,97.2443312 C74.9749313,97.552761 75.0871083,100.203944 75.0536009,100.572164 C75.0332051,100.782159 75.314376,101.005278 75.5715091,101.180274 C75.6967977,101.02934 75.9684992,100.632683 76.1935816,100.466438 C76.3261545,100.357065 76.2343733,100.285609 76.1323942,100.326441 C75.9291644,100.420501 75.7252062,100.346857 75.7055388,100.112072 C75.6865998,99.8772858 75.6865998,97.5965099 75.7055388,97.267664 C75.5496564,97.267664 75.108961,97.2589142 74.9618197,97.2443312 L74.9618197,97.2443312 Z M77.1463579,99.41136 C76.9708081,99.5776059 76.6568582,100.008533 76.663414,100.326441 C76.6685129,100.650912 76.8258521,100.963717 77.0130566,101.139442 C77.3342908,100.914864 77.5353353,100.605705 78.0707257,100.400085 C78.1355553,100.649454 78.3125618,100.688099 78.5194338,100.844866 C78.6454508,100.709244 79.0992578,100.149987 79.1990517,100.053011 C79.2995739,99.956763 79.2420286,99.8590571 79.0992578,99.956763 C78.9557587,100.053011 78.8581501,99.9939496 78.6184992,99.7365602 C78.6272402,99.5972929 78.6024739,98.457634 78.657834,98.3941981 C78.4393073,98.1594124 78.2389912,97.8393163 77.9818582,97.8633781 C77.6074491,97.8940024 77.131061,98.5473193 77.0130566,98.7172108 C76.9190902,98.8397078 77.0174272,99.3070918 77.0873557,99.3661529 C77.1128505,99.3894856 77.1245052,99.391673 77.1463579,99.41136 L77.1463579,99.41136 Z M77.4078615,99.6016678 C77.6169186,99.7183315 77.7225399,99.6461458 78.0466877,99.6111467 C78.0452309,99.8153082 78.0408604,99.9997827 78.0394035,100.098218 C77.8959043,100.200299 77.7203546,100.289984 77.5178532,100.389877 C77.3576003,100.257172 77.12232,100.144883 77.4078615,99.6016678 L77.4078615,99.6016678 Z M77.2374107,98.6617956 C77.374354,98.4532591 77.4603079,98.413156 77.5681143,98.413156 C77.6664513,98.4189892 78.0466877,98.6800243 78.0270203,98.8564782 C78.0452309,98.9709545 78.0496014,99.209386 78.0481446,99.4521924 C77.7647883,99.4871915 77.5637438,99.519274 77.2446949,99.2502183 C77.1856927,99.2028236 77.1696674,98.7704387 77.2374107,98.6617956 L77.2374107,98.6617956 Z M79.5304838,98.241077 C79.2879192,98.3621156 79.8539032,98.5859641 79.8160253,98.5757561 C79.8080126,99.2181357 79.6790819,100.26738 79.8990654,100.599872 C80.034552,100.804033 80.3455882,100.937467 80.5524601,100.857261 C80.7513194,100.777784 81.0055388,100.379669 81.0812947,100.314775 C81.2291644,100.203944 81.1038758,100.085822 80.9793156,100.200299 C80.857669,100.314775 80.5269654,100.23311 80.4818032,100.117905 C80.4475673,99.9975953 80.4053189,98.5969014 80.4628642,98.5684646 C80.4628642,98.5684646 80.862768,98.5604439 80.9683892,98.5633605 C81.0521578,98.5633605 81.0579852,98.3096169 80.9756734,98.3096169 C80.8314458,98.3067003 80.5087548,98.2782635 80.4898158,98.2206608 C80.44174,98.088685 80.5007422,97.6621332 80.5837823,97.4885959 C80.6690077,97.3136003 80.5065695,97.2370397 80.44174,97.4076604 C80.3769104,97.5899475 79.9566108,98.0310823 79.5304838,98.241077 L79.5304838,98.241077 Z M79.6470313,95.3266711 C79.6710693,95.9333225 79.3556625,96.5705982 79.0125756,96.8586118 C79.6055113,96.7047615 79.682724,96.3503954 80.0076003,95.9333225 C80.1867922,96.1987325 80.5204096,96.5195578 80.7637026,96.658096 C80.9348818,96.5443488 81.420011,95.9989459 81.5278175,95.886657 C81.1774464,95.7933261 80.5007422,95.4353142 80.3324766,95.0576154 C80.1999038,94.7776224 80.2312259,94.6449174 80.3637988,94.4239855 C80.4818032,94.5792941 81.3034634,94.9577221 81.6735019,94.3262796 C81.2692276,94.1789917 80.9057449,93.9143108 80.7819131,93.6999412 C80.6741067,93.7896264 80.3128092,94.1833665 80.1095794,94.3087801 C80.062232,94.0914939 79.7300715,93.8581664 79.4605553,93.8100426 C79.373873,93.9033736 78.7401457,94.3875281 78.4502336,94.5289829 C78.3606377,94.5712735 78.3941451,94.7659561 78.5194338,94.716374 C78.6374382,94.6646044 78.8333837,94.5158582 79.059923,94.4079442 C79.322155,94.510025 79.6200797,94.7776224 79.6470313,95.3266711 L79.6470313,95.3266711 Z M82.4871495,95.424377 C82.5607202,95.0568862 82.8178532,94.9059525 82.936586,94.7958511 C83.1033947,94.981784 83.2723887,95.1917787 83.5236943,95.1917787 C83.769901,95.1939661 84.0263057,95.0794898 84.1057037,94.9781382 C83.9024739,94.8140798 83.4406542,94.3262796 83.3466877,94.2351361 C83.1121358,94.3649245 82.09453,94.893557 82.0085761,95.5045833 C81.8847444,96.4050815 82.1695574,96.5851811 82.5643623,97.0795437 C82.7865311,97.360995 83.1587548,97.3733905 83.3277488,97.3303707 C83.5098543,97.2034989 84.1763606,96.5705982 84.2506597,96.491121 C84.3176745,96.4138313 84.2207944,96.3423747 84.1384827,96.4218519 C84.0547141,96.4969542 84.0874931,96.5297659 83.9775014,96.5465363 C83.8638675,96.564765 83.4115173,96.6405964 83.1471001,96.5027874 C82.8178532,96.3299792 82.3880841,95.9231145 82.4871495,95.424377 L82.4871495,95.424377 Z M81.9896372,98.3008671 C81.8395822,98.4532591 81.5766218,98.629713 81.3311435,98.9024145 C81.5343733,98.9169975 81.7033672,98.9607464 81.8024327,99.1561581 C81.9022265,99.3501116 81.8177295,100.167487 81.832298,100.482479 C81.8475948,100.787992 82.0326141,100.852886 82.2744502,101.10663 C82.5162864,101.044652 83.1908054,100.762472 83.4180731,100.606434 C83.3976773,100.857261 83.7159978,101.139442 83.9024739,101.194857 C84.0277625,101.057777 84.1639775,100.982675 84.3489967,100.810596 C84.1698048,100.690286 84.1923859,100.673516 84.1246427,100.434355 C84.0721963,100.203944 84.1384827,99.3304246 84.1443101,98.9563715 C84.0015393,98.7398144 83.7669874,98.4802376 83.5273364,98.3008671 C83.3576141,98.4547174 83.1288895,98.6617956 82.862287,98.943976 C83.0611462,98.9169975 83.4537658,98.9972038 83.4727048,99.1649079 C83.4836311,99.381465 83.5164101,99.8546822 83.4727048,100.222173 C83.4275426,100.59258 82.4317894,100.422689 82.4179494,100.17332 C82.3960968,99.9166598 82.4696674,99.1787617 82.4747664,98.8294997 C82.3334524,98.6136718 82.2496839,98.4948206 81.9896372,98.3008671 L81.9896372,98.3008671 Z M75.3777488,107.267933 L75.3777488,107.231476 C74.8022952,107.149082 74.349945,106.745863 73.8232958,106.546076 C73.0948736,106.270458 72.3220176,106.833361 72.3220176,106.923046 C72.3220176,107.119187 72.5296179,107.219809 73.1196399,106.848673 C72.6570918,107.383868 73.1822842,107.819169 73.1822842,107.819169 C72.9892523,107.790733 72.7153656,107.726568 72.5405443,107.625945 C72.5048516,107.819169 72.7707257,107.889897 72.8974711,107.973749 C73.8750137,108.376239 74.518939,107.434179 75.3777488,107.267933 L75.3777488,107.267933 Z M73.7315146,107.765942 C73.7315146,107.765942 73.9901045,107.48449 73.989376,107.283245 C73.9886476,107.009815 73.732243,106.810757 73.732243,106.810757 C73.9522265,106.874193 74.4766905,107.170227 74.6646234,107.293453 L73.7315146,107.765942 Z M68.3717839,100.343941 L68.6522265,100.033324 C68.3368197,99.9742626 68.483961,99.9779083 68.3171523,99.824058 L68.3069544,98.5378404 L67.8968527,97.9348347 L67.7409703,97.9567091 L67.0977735,98.5582565 C66.9280511,98.7070028 67.0773777,98.7791884 67.2755085,98.6136718 L67.7009071,98.8346037 L67.7118334,100.196653 C67.7475261,100.365086 67.8968527,100.403731 68.1037246,100.617371 L68.3717839,100.343941 Z M68.511641,95.8676992 C68.7287108,96.4852878 69.2400632,96.6799704 69.6217565,96.7098655 C69.7346619,96.4991416 69.9451759,96.1775872 70.0609951,96.028841 C70.2321743,95.8006175 70.0580814,95.6635376 69.9378917,95.926031 C69.8461105,96.1280051 69.3507834,95.9078023 69.1715915,95.7349942 C68.9312122,95.5104165 68.7811572,94.9219938 68.9727323,94.7149157 C69.1664926,94.5056501 69.4447499,94.6011685 69.8031336,94.5916896 C70.0391424,94.5792941 70.0901319,94.3612787 70.1301952,94.2504482 C70.0158329,94.1964912 69.8461105,94.0995145 69.6217565,93.964622 C69.3908466,94.1111809 69.0339197,94.4145066 68.8802226,94.5421075 C68.6879192,94.7047076 68.2952996,95.2661518 68.511641,95.8676992 L68.511641,95.8676992 Z M69.4403793,99.2677178 C69.2080126,99.5076076 69.0339197,99.7730176 69.0368334,100.106968 C69.0484882,100.424147 69.1541094,100.740597 69.4775289,100.883511 C69.7630704,100.672787 70.1309236,100.416856 70.4856652,100.349774 C70.6590297,100.55904 70.9263606,100.698307 71.0873419,100.82445 C71.1973337,100.690286 71.5513469,100.403002 71.6489555,100.313317 C71.7421935,100.218527 71.6489555,100.085093 71.5513469,100.210507 C71.475591,100.324983 71.2264706,100.24186 71.1550852,100.124467 C71.1550852,99.9895747 71.0268829,98.5604439 71.0829714,98.4948206 C70.8775563,98.2644097 70.5220863,97.7459853 70.2831638,97.7722346 C69.9364349,97.8079629 69.4163414,98.305242 69.3041644,98.4678421 C69.218939,98.5896099 69.3303876,99.1780326 69.3959456,99.234177 C69.4141561,99.2473017 69.4228972,99.2516766 69.4403793,99.2677178 L69.4403793,99.2677178 Z M70.3538208,99.3902147 C70.0915888,99.3960479 69.8657779,99.3151125 69.579508,99.0628271 C69.5256047,99.0168908 69.4738868,98.6909615 69.5365311,98.5845058 C69.6632765,98.3839901 69.6632765,98.3220124 69.7718114,98.3241999 C69.8570368,98.3241999 70.3851429,98.6435669 70.3581913,98.8141876 C70.3778587,98.9359553 70.3676608,99.1656371 70.3538208,99.3902147 L70.3538208,99.3902147 Z M69.6596344,99.4376094 C69.9000137,99.6002095 70.038414,99.5790642 70.3414376,99.5491691 C70.3297828,99.7139566 70.3173997,99.8648903 70.3173997,99.9327011 C70.3173997,100.004887 70.347265,100.063219 70.3676608,100.124467 C70.21105,100.180612 70.0114623,100.214152 69.8570368,100.291442 C69.7179082,100.168216 69.2043705,99.8174957 69.6596344,99.4376094 L69.6596344,99.4376094 Z M71.6387576,96.7886135 L71.9257559,96.4794546 C71.6045217,96.4182062 71.6045217,96.4393515 71.4318857,96.2855012 L71.4449973,94.7965803 L71.1638263,94.3809657 L71.0137713,94.4013819 L70.3669324,94.9985544 C70.1928395,95.1545921 70.3487218,95.2289652 70.5432106,95.0561571 L70.8768279,95.2603186 L70.8884827,96.6624709 C70.9227185,96.8309041 71.0698598,96.8885068 71.2760033,97.100689 L71.6387576,96.7886135 Z M71.1332325,91.5781196 C71.0006597,91.5700989 70.7981583,91.8136345 71.5768417,91.8938408 C71.6977598,91.9076946 71.8587411,91.6218685 71.1332325,91.5781196 L71.1332325,91.5781196 Z M71.142702,91.1129229 C71.0144997,91.1056315 70.8141836,91.4599975 71.5884964,91.4308316 C71.7094145,91.4264567 71.7997389,91.1501095 71.142702,91.1129229 L71.142702,91.1129229 Z M71.2913002,93.4520308 L70.9591396,93.1064145 L70.6240654,93.4082819 L70.6313496,93.8231673 L70.8353079,94.0338911 L71.0429082,94.0338911 L71.2913002,93.8085843 L71.2913002,93.4520308 Z M70.6145959,90.2656526 C70.3880566,90.110344 70.1418499,89.7341035 69.5962617,89.7093124 C69.0477598,89.687438 68.4293293,90.1832588 68.2282848,90.4953343 C67.9616822,90.9080323 68.2880154,91.2696898 68.6369296,91.5380164 C68.4140324,91.7290533 68.104453,92.0236292 67.8174546,92.2926849 C67.9325454,92.4173693 68.5604453,92.7141327 68.9122732,92.706112 C69.4454783,92.6937165 69.9378917,92.4195567 70.2416438,92.1752921 C70.7959731,91.7363448 70.6036696,91.2696898 70.0391424,90.9401148 C69.9852391,90.9080323 69.9342496,90.8985533 69.8803463,90.8883453 C70.229989,90.6105397 70.5351979,90.3633585 70.6145959,90.2656526 L70.6145959,90.2656526 Z M69.21384,91.4140612 C69.3995877,91.4979133 69.5875206,91.5817653 69.7936641,91.7028039 C70.0908604,91.8712372 69.9378917,92.1913333 69.6173859,92.3393504 C69.2917812,92.489555 68.7090434,92.0681072 68.6179907,91.8952991 C68.7374519,91.79176 68.9625344,91.6138478 69.21384,91.4140612 L69.21384,91.4140612 Z M69.8016767,90.6309559 C69.7536009,90.6703299 69.6130154,90.784077 69.4615036,90.9051157 C69.3726361,90.9196986 69.2823117,90.9306359 69.1898021,90.9189695 C68.9108164,90.8788663 68.7760583,90.6688716 68.647856,90.4997092 C68.5145547,90.3225262 68.8576416,90.1759673 69.0273639,90.1941961 C69.1978147,90.2175288 69.5758659,90.420232 69.8016767,90.6309559 L69.8016767,90.6309559 Z M67.5078752,91.8398838 C66.6920423,92.0455037 66.3096207,91.3914576 66.2287658,91.216462 C66.5580126,90.8788663 67.1188977,90.326901 67.4597993,90.0469081 C67.2354453,89.8383717 67.1422073,89.4934845 66.7401182,89.4635894 C66.3904755,89.4730684 65.5753711,89.869725 65.4326003,90.906574 C65.295657,91.9011323 66.2287658,92.4385146 66.9681143,92.4691388 C67.2143211,92.4691388 67.5217152,92.1497719 67.6746839,92.0739404 C68.0024739,91.9135278 67.8808274,91.7545735 67.5078752,91.8398838 L67.5078752,91.8398838 Z M66.1697636,91.0203211 C65.9636201,90.3567961 66.0408329,90.1285727 66.4523914,89.8011851 C66.544901,90.0294085 66.7816383,90.1941961 66.9120258,90.2729441 C66.6803876,90.4997092 66.3190902,90.9087614 66.1697636,91.0203211 L66.1697636,91.0203211 Z M65.2264568,90.429711 C65.3655855,90.2926311 65.2169874,90.1934669 65.0931556,90.3123181 C65.0013744,90.2022167 64.7653656,89.9594103 64.6393485,89.810664 C64.5053189,89.9222237 64.1993815,90.1066983 64.0267455,90.2022167 C63.8934442,90.0483664 63.7280924,90.0483664 63.4593046,89.8383717 C63.3114349,89.9521188 62.9829164,90.1934669 62.8051814,90.4078365 C63.1169461,90.4997092 63.3522265,90.5172088 63.3718939,90.7855353 C63.3835487,91.0042798 63.3500412,92.3473711 63.3675234,92.5938232 C63.5343321,92.6302806 63.7390187,92.6142393 63.9764843,92.6018438 C63.9946949,92.4093487 63.9866822,90.7235577 63.9866822,90.5368958 C64.0762782,90.4873137 64.1687878,90.4377316 64.2117647,90.3968993 C64.3108301,90.4720016 64.5053189,90.7556403 64.6626581,90.8497004 C64.7835761,90.7600152 65.0931556,90.5638743 65.2264568,90.429711 L65.2264568,90.429711 Z M62.6522128,93.9106651 C62.2974711,93.9427476 61.7853903,94.357633 61.6324217,94.7149157 C61.5712342,94.8570996 61.6586449,95.3718783 61.7242029,95.4287519 C61.7708219,95.4695842 61.8065146,95.4972918 61.8473062,95.5293744 C61.6142111,95.7452023 61.3964129,95.9296768 61.4029687,96.2512312 C61.4124382,96.5611192 61.6586449,96.8367373 61.9762369,96.9818378 C62.1466877,96.722261 62.4125618,96.5633067 62.6966465,96.496225 C62.719956,96.7434063 62.7775014,96.9249643 62.9392111,97.0496486 C63.0557587,96.9205894 63.5219489,96.5173703 63.6122732,96.4262268 C63.7113386,96.3328958 63.6370396,96.2213361 63.5219489,96.3328958 C63.4542056,96.3963317 63.2881253,96.3022716 63.2378642,96.2213361 C63.2378642,96.0864437 63.2378642,94.6609587 63.2975948,94.5960645 C63.0870808,94.3671119 62.8867647,93.8851449 62.6522128,93.9106651 L62.6522128,93.9106651 Z M62.6798928,95.3580245 C62.2843595,95.6139556 62.1583425,95.6059349 61.886641,95.2982343 C61.7511545,95.1421966 61.7635377,94.8461624 61.8254535,94.7346027 C61.9485569,94.5421075 62.1641699,94.3474249 62.266149,94.3496124 C62.3550165,94.3554456 62.673337,94.7426233 62.6522128,94.9110566 C62.6675096,95.0051167 62.6747938,95.1771957 62.6798928,95.3580245 L62.6798928,95.3580245 Z M62.6842633,96.0711316 C62.6813496,96.1476921 62.6842633,96.2133155 62.6849918,96.2833137 C62.6085074,96.3022716 62.5225536,96.3205003 62.4154755,96.3744573 C62.2705195,96.2512312 61.5850742,96.0266535 62.0345107,95.6635376 C62.3098543,95.8261377 62.4169324,95.6992659 62.6842633,95.5344784 C62.6849918,95.7670767 62.6842633,95.9872795 62.6842633,96.0711316 L62.6842633,96.0711316 Z M62.3754123,93.0524575 C62.3273364,92.991209 62.2355553,92.8920449 62.2311847,92.7673605 C62.2311847,92.6856959 62.2413826,91.82603 62.2413826,91.7188452 C62.2413826,91.6174936 62.0381528,91.6277017 62.0381528,91.7188452 C62.0294118,91.8712372 62.0519929,92.1315432 61.9157779,92.342267 C61.5391836,92.9255857 60.8216877,93.1662046 60.3168911,92.4509101 C60.1457119,92.2132078 60.1049203,91.8537376 60.0830676,91.5970774 C60.0495602,91.2543777 60.3088785,90.8117847 60.3234469,90.7709524 C60.9651869,89.9295152 61.8560473,90.5543953 61.9274327,90.897095 C61.9755085,91.1253185 62.0264981,91.4045823 62.0264981,91.5511411 C62.0213991,91.648847 62.2311847,91.639368 62.2355553,91.5380164 C62.2355553,91.4330191 62.2413826,90.1395099 62.2413826,90.0490955 C62.2450247,89.9652435 62.0723887,89.9375358 62.0680181,90.0490955 C62.0585487,90.2532571 61.938359,90.2714858 61.7810198,90.2211745 C61.4568719,90.1241978 60.7379192,89.9696184 60.3190764,90.2102373 C59.9519516,90.4267944 59.386696,90.9342816 59.3968939,91.5730155 C59.4078202,92.6244474 59.8048103,92.7126744 60.2644447,92.9955839 C60.6956707,93.2493275 61.2915201,93.0852692 61.8356515,92.9277731 C62.0519929,92.8687121 62.0782161,93.0050628 62.1823804,93.158184 C62.3586586,93.3944281 62.5014294,93.2434944 62.3754123,93.0524575 L62.3754123,93.0524575 Z M59.4653656,94.5377326 C59.1018829,95.0940728 58.9022952,95.9719674 59.5323804,96.4852878 C59.8288483,96.7331982 60.0743266,96.9264225 60.6796454,96.8192377 C60.7991067,96.5786188 60.8522815,96.4991416 61.0642523,96.2220653 C60.6483233,96.2891469 60.3263606,96.2133155 60.0218802,95.9829046 C59.3954371,95.4965627 59.5891974,94.7134574 59.7742166,94.4451308 C60.1122045,93.9427476 60.5929632,94.6609587 60.6796454,94.7586646 C60.7903656,94.6252304 60.9841259,94.4341936 61.1713304,94.2861765 C60.9848543,94.0389952 60.8326141,93.8100426 60.706597,93.6605672 C60.304508,93.8049386 59.7159428,94.1644087 59.4653656,94.5377326 L59.4653656,94.5377326 Z M59.7239555,99.347195 C59.5891974,100.347586 60.5317757,100.942572 60.9848543,101.135067 C61.0984882,100.905385 61.3301264,100.532061 61.5581226,100.270297 C61.7300302,100.069052 61.539912,100.015824 61.3847581,100.170403 C61.1764294,100.399356 60.5543568,100.18207 60.3882765,99.8809316 C60.6891149,99.6541664 61.4736256,98.9979329 61.8145272,98.71794 C61.5901732,98.506487 61.2412589,97.9800419 61.1873557,97.6789036 C60.8828752,97.8837943 59.8769241,98.3067003 59.7239555,99.347195 L59.7239555,99.347195 Z M60.6971275,98.2629514 C60.7881803,98.4948206 61.0773639,98.9359553 61.2084799,99.0132451 C60.9833975,99.239281 60.430525,99.6147924 60.2753711,99.7241647 C59.9920148,99.3683403 59.8397746,98.7886674 60.6971275,98.2629514 L60.6971275,98.2629514 Z M62.757834,97.8998356 C62.5626168,98.0843101 62.4089197,98.2527434 62.1226498,98.4787793 C62.2559511,98.6319005 62.4810335,98.8243956 62.5014294,99.086889 C62.5181831,99.352299 62.5079852,100.583831 62.5240104,100.891531 C62.733796,100.891531 62.6966465,100.913406 63.0557587,100.899552 C63.0207944,100.690286 63.0499313,99.0927222 63.0499313,98.8637697 C63.1854178,98.7354395 63.2043568,98.7150234 63.3587823,98.6005471 C63.4702309,98.6975238 63.7302776,98.7551266 63.7302776,98.9264764 C63.7302776,99.0985554 63.7812672,99.8568697 63.7208081,100.136863 C63.6457806,100.478833 63.6792881,100.724556 63.8643073,101.070172 C64.003436,100.913406 64.5257147,100.548102 64.6393485,100.45623 C64.7507971,100.359253 64.6932518,100.286338 64.5482958,100.325712 C64.3931418,100.359253 64.3661902,100.389148 64.3661902,100.291442 C64.3661902,100.106968 64.293348,99.2750093 64.2824217,98.7434602 C64.2627543,98.2104528 64.003436,98.0536859 63.8541094,97.9800419 C63.7011407,98.1499334 63.3609676,98.3635739 63.1577378,98.5371112 C63.0040407,98.4240932 62.9282848,98.1688913 62.757834,97.8998356 L62.757834,97.8998356 Z M64.9001237,96.6107013 C65.0793156,96.4670591 65.21116,96.225711 65.2847306,96.1681083 C65.4224024,96.0543612 65.3087686,95.9376974 65.192221,96.0470697 C65.0997114,96.1389424 64.8556899,95.926031 64.8447636,95.9121772 C64.7653656,95.8188462 64.6495465,94.5997102 64.7034497,94.5720026 C64.7034497,94.5720026 65.4784909,94.4764842 65.58047,94.4779425 C65.6576828,94.4837757 65.6671523,94.2365944 65.5848406,94.2322195 C65.4580951,94.2322195 64.8680731,94.3138841 64.8462205,94.2562814 C64.8134415,94.1272221 64.7340434,93.6926497 64.9285322,93.3185966 C65.0203134,93.1559966 64.9263469,92.9985005 64.8658879,93.1654755 C64.7959593,93.3346379 64.3108301,94.0893064 63.9968802,94.2132616 C63.741204,94.318259 63.7696124,94.37732 63.9349643,94.4188815 C64.0653518,94.4444016 64.2015668,94.6011685 64.176072,94.5997102 C64.1505772,95.2253195 64.0893898,95.9974876 64.2838785,96.3248752 C64.4069819,96.5319533 64.747155,96.7463229 64.9001237,96.6107013 L64.9001237,96.6107013 Z M67.56105,96.8885068 C67.4656267,97.0773563 67.3112012,97.2501644 67.0293018,97.3784945 C67.2012095,97.5279699 67.4241067,97.7211942 67.5719764,97.818171 C67.7409703,97.6293215 67.8968527,97.4543259 68.0913414,97.2698514 C67.8983095,97.2319357 67.6746839,97.134959 67.56105,96.8885068 L67.56105,96.8885068 Z M66.3416712,96.1980034 C66.587878,96.1775872 66.9841396,96.3256043 67.4241067,96.2891469 C67.9478422,96.2512312 68.3586723,95.4396891 68.132133,94.8082467 C67.921619,94.2081576 67.2536559,94.3138841 66.8042194,94.170971 C66.3904755,94.057953 66.2200247,93.7976471 66.6709181,93.5008837 C67.2012095,93.158184 67.8582463,93.7079618 67.921619,93.8238964 C68.0184992,93.9981629 68.1000825,93.9952463 68.1000825,93.7684811 C68.1146509,93.2719311 68.0680319,93.5526532 68.0184992,93.0852692 C68.0024739,92.9182942 67.8808274,92.9037112 67.869901,93.0641239 C67.8582463,93.2274531 67.6608439,93.177871 67.5107889,93.177871 C67.3585487,93.1742253 66.9163964,93.1064145 66.5354316,93.3185966 C66.2921385,93.4600514 65.735624,93.8968113 66.0466603,94.4188815 C66.2287658,94.7243946 67.2966328,94.972305 67.56105,95.1480298 C67.828381,95.3222962 67.88884,95.7707225 67.6331638,95.9770714 C67.3155717,96.2293567 66.4523914,96.0171746 66.3190902,95.8640534 C66.1442688,95.6701 66.0787108,95.5104165 66.0408329,95.286568 C66.0044118,95.0561571 65.8113799,95.0758441 65.8113799,95.286568 C65.8113799,95.4951044 65.8609126,96.2133155 65.899519,96.3824779 C65.9330264,96.5574735 66.1085761,96.4998708 66.1246014,96.3664366 C66.1442688,96.2432106 66.2265805,96.2074823 66.3416712,96.1980034 L66.3416712,96.1980034 Z M65.2228147,98.4372179 C65.0203134,98.5896099 65.4624656,98.8032503 65.4224024,98.7908548 C65.4384277,99.4179224 65.3473749,100.063219 65.5608026,100.381856 C65.6962892,100.579456 66.1165888,100.724556 66.189431,100.535707 C66.2608164,100.343941 66.5791369,99.9545755 66.6505223,99.8889522 C66.7830951,99.7715593 66.6658191,99.6643745 66.5543705,99.77958 C66.3241891,100.023845 66.1952584,99.9115558 66.025536,99.7496849 C65.9432243,99.6563539 65.9119021,98.7791884 65.9716328,98.7529391 C65.9716328,98.7529391 66.3948461,98.6909615 66.4960968,98.6909615 C66.5747664,98.6909615 66.568939,98.447426 66.4858988,98.447426 C66.358425,98.447426 65.9811023,98.4510717 65.959978,98.3912815 C65.9119021,98.2702429 66.0342771,97.6789036 66.0561297,97.4127645 C66.0736119,97.2261025 65.9730896,97.1663123 65.9221001,97.3413079 C65.8689252,97.5119287 65.4624656,98.2629514 65.2228147,98.4372179 L65.2228147,98.4372179 Z" transform="translate(-48 -84)"/>
</svg>
