<svg xmlns="http://www.w3.org/2000/svg" width="221" height="96" viewBox="0 0 221 96">
  <g fill="#002F54" fill-rule="evenodd">
    <path d="M155.989119,54.0775164 C156.359366,53.9012776 157.217534,53.5201433 157.596392,53.3353075 C158.038392,53.1117851 157.978119,52.9312478 157.846093,52.5744716 C157.269197,50.8235463 156.983619,48.9694567 156.983619,47.0494567 C156.983619,37.1628896 165.032898,29.1218149 174.930541,29.1218149 C184.803788,29.1218149 192.844456,37.1628896 192.844456,47.0494567 C192.844456,49.5726806 192.312047,52.0013373 191.367775,54.1735164 C191.281671,54.3282627 191.268755,54.6377552 191.528502,54.7724418 C191.82269,54.8956657 192.910469,55.3856955 193.227619,55.5103522 C193.551944,55.6378746 193.749982,55.5619343 193.920755,55.2237851 C195.004229,52.701994 195.605521,49.9480836 195.605521,47.0494567 C195.605521,35.6354866 186.336437,26.372203 174.930541,26.372203 C163.497379,26.372203 154.236905,35.6354866 154.236905,47.0494567 C154.236905,49.3892776 154.627242,51.6230687 155.34334,53.7250388 C155.442359,54.0416955 155.614567,54.2494567 155.989119,54.0775164"/>
    <path d="M150.739364,56.5094687 C151.158403,56.2888119 152.637955,55.6239761 153.026858,55.4248119 C153.432981,55.258603 153.338267,54.9190209 153.272254,54.7642746 C152.40978,52.3499463 151.939079,49.7679761 151.939079,47.0484537 C151.939079,34.3750209 162.24428,24.0886925 174.930254,24.0886925 C187.578916,24.0886925 197.886988,34.3750209 197.886988,47.0484537 C197.886988,50.2909612 197.218247,53.3715582 195.986962,56.1698866 C195.925254,56.3160358 195.819059,56.6642149 196.209397,56.8089313 C196.558118,56.9679761 198.211312,57.7030209 198.515546,57.8405731 C198.839871,57.972394 199.042215,57.9150806 199.204377,57.5368119 C200.613611,54.3301254 201.384241,50.772394 201.384241,47.0484537 C201.384241,32.4664836 189.521994,20.594006 174.930254,20.594006 C160.314118,20.594006 148.44039,32.4664836 148.44039,47.0484537 C148.44039,50.2565731 149.028767,53.3371701 150.087845,56.1928119 C150.149553,56.3690507 150.284449,56.7186627 150.739364,56.5094687"/>
    <path d="M143.584992,59.7976836 C144.095875,59.541206 147.208531,58.1040716 147.745245,57.8662209 C148.31066,57.6240716 148.063829,57.2013851 147.984901,56.9678328 C146.835414,53.868609 146.20542,50.5286687 146.20542,47.0497433 C146.20542,31.2154746 159.082258,18.3514746 174.93255,18.3514746 C190.732615,18.3514746 203.623803,31.2154746 203.623803,47.0497433 C203.623803,51.0502209 202.790031,54.8529672 201.313349,58.3261612 C201.210024,58.5353552 201.111005,58.9551761 201.637673,59.182997 C202.128466,59.4093851 205.156453,60.7390567 205.574056,60.9024 C205.98018,61.1001313 206.294459,61.0585791 206.572862,60.4539224 C208.322206,56.3144597 209.285134,51.7809672 209.285134,47.0497433 C209.285134,28.1004896 193.873972,12.6731463 174.93255,12.6731463 C155.953816,12.6731463 140.542654,28.1004896 140.542654,47.0497433 C140.542654,51.406997 141.356336,55.5679522 142.845933,59.392191 C142.926297,59.6071164 143.079849,60.012609 143.584992,59.7976836"/>
    <path d="M174.93786,39.5882507 C176.956996,39.5882507 178.627412,37.9476537 178.627412,35.9158925 C178.627412,33.8640716 176.956996,32.2277731 174.93786,32.2277731 C172.879977,32.2277731 171.258353,33.8640716 171.258353,35.9158925 C171.258353,37.9476537 172.879977,39.5882507 174.93786,39.5882507"/>
    <path d="M176.28883,58.854591 C176.999187,58.854591 177.576083,58.2728597 177.576083,57.555009 L177.576083,49.4867104 C177.61483,48.4622328 178.340973,47.1483224 179.0542,46.3874866 L186.661479,38.7948896 C187.176668,38.2848 187.176668,37.437994 186.661479,36.9450985 L185.275206,35.5595463 C184.774369,35.0451582 183.931986,35.0451582 183.429713,35.5595463 L176.567232,42.429994 C176.095096,42.875606 175.776512,43.1535761 174.938434,43.1535761 C174.077395,43.1535761 173.74733,42.875606 173.30533,42.429994 L166.431369,35.5595463 C165.91044,35.0451582 165.092453,35.0451582 164.593051,35.5595463 L163.193862,36.9450985 C162.684414,37.437994 162.684414,38.2848 163.193862,38.7948896 L170.814057,46.3874866 C171.533025,47.1483224 172.239077,48.4622328 172.274953,49.4867104 L172.274953,57.555009 C172.274953,58.2728597 172.85759,58.854591 173.576557,58.854591 L176.28883,58.854591 Z"/>
    <path d="M200.278523 61.7090866C198.992705 62.1847881 196.587536 64.5561313 195.505497 65.5204299L195.202699 65.5648478C195.588731 65.1421612 197.247666 63.0416239 197.681056 62.3237731 198.992705 60.1487284 196.518653 58.1040716 193.80064 59.6601313 192.764523 60.2504597 191.039575 62.0615642 190.202932 62.7221015L189.943186 62.7880119C190.314868 62.4140418 191.853257 60.4066388 192.25364 59.7532657 193.449049 57.9937433 190.959212 56.3244896 188.812355 57.6240716 187.291186 58.5367881 186.048419 59.7790567 184.772647 60.7677134L184.550212 60.8250269C184.891757 60.492609 185.747056 59.4838925 186.071381 59.1314149 187.338543 57.7071761 185.524621 56.0680119 183.608809 57.070997 181.770491 58.0023403 179.128536 60.6387582 176.235445 62.4885493 177.577231 63.2135642 179.937913 63.3224597 183.679127 64.917206 187.433257 66.5162507 188.645887 70.240191 186.194796 73.181803 183.931699 75.9027582 180.486108 74.9871761 177.521264 74.0615642 174.077108 72.9855045 172.857303 71.8764896 168.712835 70.4407881 166.006303 69.4965493 164.898432 69.5094448 164.94866 68.7371463 164.993147 67.8516537 167.333738 68.3803701 169.522212 69.1741612 175.602582 71.3778627 183.670517 76.3698627 185.652342 70.9866985 187.217997 66.7426388 180.216316 64.9014448 177.531309 64.3927881 173.80301 63.6749373 171.228504 60.9482507 167.996738 59.2059224 163.108906 56.5752358 159.349036 56.5093254 156.56214 57.0122507 153.559984 57.5466985 149.284926 59.9925493 146.696069 61.5471761 144.895062 62.6074746 145.029958 64.2351761 146.785043 66.7240119 153.018965 75.5689075 163.29116 81.3489672 174.920926 81.3489672 187.252439 81.3489672 198.077134 74.8109373 204.135978 65.0776836 205.484939 62.9026388 203.371088 60.6115343 200.278523 61.7090866M101.721564 85.3424239C101.72874 86.3296478 105.258999 87.401409 107.108798 87.401409 108.948551 87.401409 111.538844 86.7079164 112.873454 83.4338866 114.274077 79.9879164 120.08896 60.1058866 120.08896 60.1058866L120.744785 60.0915582C122.049259 59.8623045 122.521395 59.0871403 122.521395 57.0912 122.521395 56.3733493 122.419506 56.3117373 121.838305 56.3117373L117.066714 56.3117373C116.608928 56.3246328 116.564441 56.3948418 116.420934 56.8662448L112.448675 72.1975881 108.357305 56.8662448C108.229584 56.3948418 108.167876 56.3246328 107.715831 56.3117373L102.916973 56.3117373C102.341512 56.3117373 102.236753 56.3733493 102.236753 57.0912 102.236753 59.0914388 102.727545 59.8723343 104.039194 60.0915582L104.709369 60.1058866C104.709369 60.1058866 108.525207 73.4484537 110.532863 79.0422448L110.24011 80.1254687C109.597201 82.2188418 108.48072 83.1788418 106.727071 83.1788418 106.300856 83.1788418 103.954525 82.8220657 103.954525 82.8220657 102.62422 82.7160358 102.268324 83.2719761 102.121947 83.7519761 101.879421 84.434006 101.721564 85.2063045 101.721564 85.3424239M85.4523766 48.8597015L79.7609091 48.8597015C79.2615065 48.8597015 79.2543312 48.9127164 79.1739675 49.4156418L75.9622922 69.2718806 72.0919221 49.5159403C71.9914675 48.9829254 71.913974 48.8597015 71.3069416 48.8597015L68.6965584 48.8597015C67.7408052 48.8597015 67.7006234 49.0058507 67.5901234 49.5517612L63.5389351 69.2718806 60.5066429 49.4156418C60.4291494 48.9127164 60.420539 48.8597015 59.9297468 48.8597015L54.0718117 48.8597015C53.4647792 48.8597015 53.3671948 48.9170149 53.3671948 49.6620896 53.3671948 51.8471642 53.9053442 52.6452537 55.4509091 52.8214925L56.0407208 52.8601791 60.4937273 77.2914627C60.6501494 77.8602985 60.7046818 77.9749254 61.2356558 77.9749254L65.0945455 77.9749254C65.7173636 77.9749254 65.7388896 77.943403 65.8407792 77.2914627L69.6881883 58.2949254 72.9156494 77.3072239C73.0433701 77.943403 73.0433701 77.9749254 73.6704935 77.9749254L77.6025714 77.9749254C78.1249351 77.9749254 78.2009935 77.8602985 78.3373247 77.2914627L83.3916234 52.8386866 83.9512987 52.8214925C85.5097792 52.6452537 86.0278377 51.8428657 86.0278377 49.6620896 86.0278377 48.9700299 85.9316883 48.8955224 85.4523766 48.8597015"/>
    <path d="M95.2161279 73.1269254C94.686589 73.7086567 93.5658032 74.902209 92.0030175 74.902209 90.4029201 74.902209 89.1701994 73.5281194 89.1701994 71.7299104 89.1701994 67.7165373 93.9159591 67.9586866 95.2161279 68.0546866L95.2161279 73.1269254zM100.289082 74.1485373C100.058037 73.2988657 99.8399071 72.2285373 99.8399071 70.2626866L99.8399071 62.5726567C99.8399071 57.7296716 97.7346669 55.5789851 92.9429851 55.5789851 89.6107643 55.5789851 86.0848097 57.0118209 86.0848097 57.9145075 86.0848097 58.0248358 86.2311864 58.7340896 86.4579266 59.3774328 86.5641214 59.6611343 86.7779461 60.3216716 88.19005 60.2199403 88.7612058 60.1755224 91.2065565 59.7084179 92.2369331 59.7084179 94.9463357 59.7084179 95.2161279 61.2859701 95.2161279 63.1414925L95.2161279 64.6760597C91.8408552 64.6760597 84.5492903 64.7104478 84.5492903 72.0336716 84.5492903 76.1631045 86.841089 78.7235821 90.5449916 78.7235821 93.3462383 78.7235821 94.7482968 77.1904478 95.5820695 76.2619701L95.903524 75.9037612 96.0082838 76.4625672C96.1804916 77.3566567 96.345524 77.974209 97.0329201 77.974209L101.943712 77.974209C102.55505 77.974209 102.631108 77.9269254 102.631108 77.2205373 102.631108 75.0268657 102.11018 74.2545672 100.289082 74.1485373L100.289082 74.1485373zM65.7944266 38.1204537L65.2734981 38.1075582 65.2734981 20.7788418C65.2734981 20.3518567 65.2404916 20.3031403 64.8386734 20.3031403L57.9776279 20.3031403C57.3792058 20.3031403 57.3074526 20.3518567 57.3074526 21.065409 57.3074526 23.4224239 57.934576 24.1417075 59.9723682 24.1417075L60.4631604 24.1417075 60.4631604 38.1075582 59.9422318 38.1204537C57.8986994 38.1204537 57.2801864 38.8483343 57.2801864 41.2010507 57.2801864 41.906006 57.3749006 41.9633194 57.9632773 41.9633194L67.7791214 41.9633194C68.3517123 41.9633194 68.4622123 41.906006 68.4622123 41.2010507 68.4622123 38.8698269 67.7977773 38.1204537 65.7944266 38.1204537M62.8178149 12.0831045C61.1703604 12.0831045 59.8960227 13.4557612 59.8960227 15.1966567 59.8960227 16.9103284 61.2004968 18.327403 62.8178149 18.327403 64.4049968 18.327403 65.6735942 16.9103284 65.6735942 15.1966567 65.6735942 13.4858507 64.4049968 12.0831045 62.8178149 12.0831045M30.3382773 17.5654209L30.4659981 17.5654209C32.5511474 17.5654209 33.2069721 16.7959881 33.2069721 14.3888239 33.2069721 13.6767045 33.1194331 13.6036299 32.5152708 13.6036299L23.0639331 13.6036299C22.5272188 13.6036299 22.4497253 13.6938985 22.3923227 14.0177194L22.3693617 14.3888239C22.3693617 16.7902567 23.0223162 17.5496597 25.0701539 17.5654209L25.2036149 17.5654209 25.2036149 31.7877493C25.2036149 34.5158687 25.2036149 38.2211821 20.8266669 38.2211821 16.7783487 38.2211821 16.454024 35.3082269 16.454024 31.7877493L16.454024 17.5654209 16.5917903 17.5654209C18.6252773 17.5496597 19.2868422 16.7902567 19.2868422 14.3888239L19.2552708 13.9389134C19.1978682 13.6824358 19.1160695 13.6036299 18.5937058 13.6036299L9.1581539 13.6036299C8.55542662 13.6036299 8.45640714 13.6767045 8.45640714 14.3888239 8.45640714 16.8232119 9.08066039 17.5654209 11.2031214 17.5654209L11.326537 17.5654209 11.326537 31.7877493C11.326537 39.4462567 14.1708357 42.7260179 20.8266669 42.7260179 27.4868032 42.7260179 30.3382773 39.4462567 30.3382773 31.7877493L30.3382773 17.5654209zM52.2370812 38.1204537L52.2370812 26.4199164C52.2370812 21.6729313 50.6786006 19.546603 47.1842175 19.546603 44.057211 19.546603 42.3308279 21.3648716 40.9890422 22.7446925 40.8728019 22.2417672 40.7723474 21.8448716 40.7723474 21.8448716 40.5613929 20.8949015 40.3805747 20.3031403 39.769237 20.3031403L34.4666721 20.3031403C33.8768604 20.3031403 33.7907565 20.3518567 33.7907565 21.065409 33.7907565 23.2949015 34.3533019 24.0886925 36.2318019 24.137409 36.497289 25.0759164 36.6694968 25.8381851 36.6694968 28.073409L36.6694968 38.1204537C34.6704513 38.1333493 34.0619838 38.8669612 34.0619838 41.2010507 34.0619838 41.906006 34.1624383 41.9633194 34.7465097 41.9633194L41.0622305 41.9633194C41.4468279 41.9633194 41.4726591 41.906006 41.4726591 41.4962149L41.4726591 25.8109612C42.0509903 25.2120358 43.3626396 23.9038567 45.0431006 23.9038567 47.4353539 23.9038567 47.4353539 26.6305433 47.4353539 27.7997373L47.4353539 41.4962149C47.4353539 41.906006 47.4525747 41.9633194 47.8615682 41.9633194L54.1457175 41.9633194C54.7226136 41.9633194 54.8273734 41.906006 54.8273734 41.2010507 54.8273734 38.8956179 54.1815942 38.1419463 52.2370812 38.1204537M77.5902299 42.7253015C80.3886065 42.7253015 82.6674896 41.9974209 82.6674896 41.3898985 82.6674896 41.2838687 82.5024571 40.4599881 82.4034377 40.0544955 82.0131 38.4239284 81.858113 37.825003 78.8875286 38.1946746 78.5129766 38.2390925 78.1743013 38.1574209 77.9389506 37.9224358 77.3677948 37.3407045 77.3677948 36.0626149 77.3677948 35.0352716L77.3677948 24.1414209 80.0327104 24.1414209C82.0805481 24.1414209 82.6918857 23.4221373 82.6918857 21.0651224 82.6918857 20.3515701 82.6043468 20.3042866 82.0131 20.3042866L77.3677948 20.3042866 77.3677948 14.2233313C77.3677948 13.6387343 77.3161325 13.6100776 77.0936974 13.6043463 76.8841779 13.6043463 75.9040286 13.7333015 75.4074961 13.8035104 74.0327039 14.0370627 72.5631974 15.0973612 72.5631974 17.5503761L72.5631974 20.3042866 69.8150481 20.3042866C69.2338468 20.3042866 69.1319571 20.3515701 69.1319571 21.0651224 69.1319571 23.4221373 69.7648208 24.1414209 71.7911325 24.1414209L72.5631974 24.1414209 72.5631974 34.290197C72.5631974 38.4325254 72.5631974 42.7253015 77.5902299 42.7253015M89.4056935 28.6684657L89.4343948 28.2930627C89.5635506 26.8172418 89.8677844 23.3798687 92.9431286 23.3798687 95.9510247 23.3798687 95.9625052 26.8831522 95.9625052 28.6684657L89.4056935 28.6684657zM100.913479 31.5241075C100.913479 23.5818985 98.257174 19.5470328 93.0507584 19.5470328 87.8830896 19.5470328 84.4317584 24.2811224 84.4317584 31.3521672 84.4317584 40.7386746 89.2263104 42.7260179 93.2602779 42.7260179 96.5035247 42.7260179 100.27057 41.2014806 100.27057 40.2443463 100.27057 40.0953313 100.115583 39.3631522 99.8960182 38.7069134 99.7482065 38.2312119 99.4640636 37.7411821 98.0964468 37.8085254 97.0373688 37.8615403 95.3425571 38.3501373 93.7754662 38.3501373 90.7718753 38.3501373 89.2464013 36.4774209 89.2263104 32.488406L100.135674 32.488406C100.780018 32.488406 100.913479 32.3264955 100.913479 31.5241075L100.913479 31.5241075zM111.601556 38.579391C108.681199 38.579391 108.102868 35.9042866 108.102868 31.2647642 108.102868 26.3501373 108.708465 23.690794 111.852692 23.690794 113.096894 23.690794 114.0139 23.9573015 115.051452 24.6393313L115.051452 36.9316299C114.432939 37.6566448 113.544634 38.579391 111.601556 38.579391M120.298049 38.1208836C120.031127 37.2712119 119.866095 36.3799881 119.866095 34.250794L119.866095 12.650794C119.866095 12.2496 119.833088 12.1922866 119.43414 12.1922866L113.111244 12.1922866C112.521432 12.1922866 112.409497 12.2496 112.409497 12.9373612 112.409497 15.2198687 113.02514 15.9821373 114.920861 16.0222567L115.051452 16.0222567 115.051452 21.0070925 114.659679 20.7405851C113.932101 20.2276299 112.951952 19.5470328 110.842406 19.5470328 105.911523 19.5470328 103.285355 23.8598687 103.285355 32.0270328 103.285355 38.9175403 105.673303 42.7260179 110.007199 42.7260179 113.442744 42.7260179 115.698666 40.2142567 115.698666 40.2142567L115.972764 41.1484657C116.176543 41.8806448 116.216725 41.9623164 116.800796 41.9623164L122.370283 41.9623164C122.947179 41.9623164 123.050504 41.905003 123.050504 41.2000478 123.050504 38.8831522 122.437731 38.1208836 120.298049 38.1208836M208.244282 84.7743045L208.746555 84.7743045C209.307665 84.7743045 209.531535 84.699797 209.531535 84.290006 209.531535 83.9805134 209.340671 83.8400955 208.86423 83.8400955L208.244282 83.8400955 208.244282 84.7743045zM208.244282 86.4965731L207.793671 86.4965731 207.793671 83.451797 208.934548 83.451797C209.6406 83.451797 209.993626 83.7326328 209.993626 84.315797 209.993626 84.857409 209.6406 85.0909612 209.257438 85.1396776L210.07399 86.4965731 209.525795 86.4965731 208.714983 85.1525731 208.244282 85.1525731 208.244282 86.4965731zM210.891977 84.9376478C210.891977 83.7211701 209.962055 82.7769313 208.768081 82.7769313 207.582717 82.7769313 206.649925 83.7211701 206.649925 84.9376478 206.649925 86.1971104 207.582717 87.1313194 208.768081 87.1313194 209.962055 87.1313194 210.891977 86.1971104 210.891977 84.9376478L210.891977 84.9376478zM206.151957 84.9376478C206.151957 83.4876179 207.348801 82.3628418 208.768081 82.3628418 210.197405 82.3628418 211.39999 83.4876179 211.39999 84.9376478 211.39999 86.4249313 210.197405 87.554006 208.768081 87.554006 207.348801 87.554006 206.151957 86.4249313 206.151957 84.9376478L206.151957 84.9376478z"/>
    <path d="M219.091364,93.2215881 L131.629896,93.2215881 L131.693039,1.90552836 L219.091364,1.90552836 L219.091364,93.2215881 Z M1.93016234,93.2215881 L129.794448,93.2215881 L129.794448,1.90552836 L1.93016234,1.90552836 L1.93016234,93.2215881 Z M0.0287012987,-0.000143283582 L0,95.1114985 L220.926812,95.1114985 L220.989955,-0.000143283582 L0.0287012987,-0.000143283582 Z"/>
  </g>
</svg>
