<svg xmlns="http://www.w3.org/2000/svg" width="200" height="64" viewBox="0 0 200 64">
  <g fill="#002F54" fill-rule="evenodd">
    <path d="M127.102222 30.67392L133.254269 30.67392C133.732632 30.67392 133.876491 31.08352 133.816842 31.5687564 133.757193 32.0551564 131.906901 47.1126109 131.746667 48.5159564 131.582924 49.9181382 132.720936 50.5802473 134.056608 50.5802473 135.39462 50.5802473 136.613333 50.2625745 136.884678 48.3833018 137.153684 46.5017018 138.891696 32.0993745 138.988772 31.4942836 139.084678 30.8891927 139.458947 30.67392 139.818012 30.67392L146.296374 30.67392C146.771228 30.67392 146.915088 31.0974836 146.871813 31.4349382 146.830877 31.7712291 144.498713 50.5022836 144.498713 50.5022836L146.163041 50.5022836C146.556023 50.5022836 146.798129 50.8153018 146.756023 51.1888291 146.712749 51.5611927 146.577076 52.7248291 146.501053 53.3310836 146.426199 53.9385018 145.891696 54.2119564 145.069474 54.3934836 144.249591 54.5750109 141.90807 54.9776291 140.116257 54.9776291 138.324444 54.9776291 136.587602 54.6587927 136.587602 52.9366109 133.461287 54.4086109 131.647251 54.9566836 128.103392 54.9566836 124.558363 54.9566836 123.357193 52.8539927 123.661287 50.5930473 123.860117 49.1268655 125.951345 31.9969745 126.002807 31.4745018 126.054269 30.9531927 126.345497 30.67392 127.102222 30.67392M156.624094 36.8653964C156.624094 33.4303418 159.586667 30.3211055 167.488421 30.3211055 169.901287 30.3211055 171.272047 30.4374691 172.06386 30.5608145 172.856842 30.6829964 173.116491 30.8831418 173.014737 31.6534691 172.914152 32.4226327 172.859181 32.8950691 172.731696 33.8038691 172.60538 34.7126691 172.272047 34.8022691 171.481404 34.8022691L166.615906 34.8022691C165.158596 34.8022691 163.680234 36.4220509 165.557427 38.38976 167.435789 40.3563055 170.771462 43.5819055 172.041637 46.0592873 173.312982 48.5355055 172.130526 51.0908509 170.43345 52.6908509 168.735205 54.2885236 165.370292 55.0879418 161.914152 55.0879418 158.460351 55.0879418 156.073216 54.7702691 155.500117 54.6539055 154.925848 54.5375418 154.814737 54.2547782 154.883743 53.6880873 154.953918 53.1202327 155.196023 51.71456 155.270877 51.1222691 155.344561 50.5334691 155.842807 50.4613236 156.303626 50.4613236L162.501287 50.4613236C164.370292 50.4613236 165.422924 48.5157236 163.689591 46.68416 161.956257 44.85376 159.440468 42.1762327 158.431111 41.0719418 157.421754 39.9676509 156.624094 38.3990691 156.624094 36.8653964M193.580468 34.8016873L198.445965 34.8016873C199.236608 34.8016873 199.567602 34.7132509 199.696257 33.8044509 199.823743 32.8944873 199.876374 32.4220509 199.979298 31.6528873 200.079883 30.8837236 199.821404 30.6835782 199.028421 30.5602327 198.236608 30.4368873 196.864678 30.3216873 194.452982 30.3216873 190.999181 30.3216873 187.739532 31.5423418 185.498596 33.64736 183.255322 35.7512145 181.719649 39.5807418 181.416725 44.8380509 181.244795 47.8029964 181.54655 50.6539055 183.209708 52.5227055 184.874035 54.3891782 187.787485 55.1245964 191.497427 55.1245964 193.996842 55.1245964 196.043626 54.7196509 196.730175 54.5462691 197.417895 54.3717236 197.641287 54.0598691 197.724327 53.4210327 197.806199 52.78336 197.925497 51.9408873 197.983977 51.2694691 198.040117 50.6003782 197.750058 50.4712145 197.290409 50.4712145L191.679883 50.4712145C190.047135 50.4712145 189.383977 49.3413236 189.580468 47.7133964 189.776959 46.0854691 190.685731 38.6544873 190.843626 37.2790691 190.999181 35.9036509 192.14538 34.8016873 193.580468 34.8016873M94.6272515 30.67392L100.779298 30.67392C101.257661 30.67392 101.40152 31.08352 101.343041 31.5687564 101.283392 32.0551564 99.434269 47.1126109 99.2716959 48.5159564 99.1091228 49.9181382 100.245965 50.5802473 101.582807 50.5802473 102.91848 50.5802473 104.138363 50.2625745 104.410877 48.3833018 104.678713 46.5017018 106.419064 32.0993745 106.514971 31.4942836 106.610877 30.8891927 106.983977 30.67392 107.344211 30.67392L113.822573 30.67392C114.296257 30.67392 114.440117 31.0974836 114.398012 31.4349382 114.357076 31.7712291 112.024912 50.5022836 112.024912 50.5022836L113.686901 50.5022836C114.081053 50.5022836 114.324327 50.8153018 114.281053 51.1888291 114.237778 51.5611927 114.102105 52.7248291 114.027251 53.3310836 113.951228 53.9385018 113.417895 54.2119564 112.595673 54.3934836 111.775789 54.5750109 109.434269 54.9776291 107.640117 54.9776291 105.849474 54.9776291 104.113801 54.6587927 104.113801 52.9366109 100.986316 54.4086109 99.1722807 54.9566836 95.6284211 54.9566836 92.0845614 54.9566836 90.8822222 52.8539927 91.1863158 50.5930473 91.3839766 49.1268655 93.4775439 31.9969745 93.5278363 31.4745018 93.5792982 30.9531927 93.8705263 30.67392 94.6272515 30.67392M88.694269 24.5938036C87.8194152 24.2772945 87.1083041 24.0236218 86.217076 23.7140945 85.6065497 23.5011491 84.7083041 23.6628945 84.2065497 24.0701673 76.6357895 30.2130036 68.6252632 35.6634764 60.3644444 40.8474764 59.817076 41.1907491 59.0884211 41.2000582 58.7352047 40.8707491 58.3819883 40.5426036 58.539883 40.0061673 59.0895906 39.6675491 68.0205848 34.1693673 76.5445614 28.2290036 84.5866667 21.5031855 85.0814035 21.0889309 84.9796491 20.5955491 84.3609357 20.4058764 83.4205848 20.1161309 82.6626901 19.8892218 81.7059649 19.6087855 81.0860819 19.4272582 80.1796491 19.6157673 79.6802339 20.02304 72.139883 26.1821673 64.1387135 31.6186764 55.9036257 36.8108218 55.3574269 37.1552582 54.6311111 37.1866764 54.2814035 36.8841309 53.9305263 36.5839127 54.0895906 36.0626036 54.6369591 35.7204945 61.2615205 31.5593309 67.7153216 27.2108218 73.9363743 22.4724945 74.4498246 22.0815127 74.3679532 21.5939491 73.7550877 21.3879855 72.8451462 21.0819491 72.1129825 20.8399127 71.2018713 20.5431855 70.5866667 20.34304 69.6778947 20.5047855 69.1667836 20.9004218 67.7726316 21.9802764 66.3562573 23.0461673 64.9153216 24.0969309 64.6989474 24.2551855 64.3691228 24.2272582 64.1808187 24.0352582 57.571462 17.2512582 53.1901754 10.0576582 51.2112281.882385455 51.0311111.0445672727 50.3316959-.247505455 49.6135673.227258182 48.2790643 1.10813091 46.9176608 1.96922182 45.5293567 2.80936727 45.300117 2.94784 45.2112281 3.25387636 45.3328655 3.49358545 47.6556725 8.08878545 49.1819883 11.99744 47.1059649 16.2179491 45.7773099 18.9199127 44.1515789 22.6388945 45.4404678 25.94944 45.5375439 26.1996218 45.8322807 26.3055127 46.0802339 26.1996218 50.6591813 24.2551855 56.2416374 23.3801309 60.3235088 26.7732945 60.5305263 26.9455127 60.5094737 27.2154764 60.2860819 27.3667491 56.5164912 29.9081309 52.6977778 32.3517673 48.8182456 34.7255855 48.3843275 35.0106764 47.9293567 35.2922764 47.4556725 35.5657309 47.2217544 35.6995491 46.9854971 36.0172218 46.9305263 36.2802036 45.2930994 44.0847127 43.7925146 52.1871127 44.1948538 60.1859491 44.2088889 60.4535855 44.422924 60.58624 44.6708772 60.4780218 59.314152 54.2188218 72.8802339 46.36544 85.4580117 36.6386036 85.9679532 36.2452945 85.9164912 35.6762764 85.3433918 35.3772218 84.5024561 34.9385309 83.8287719 34.58944 82.9960234 34.1635491 82.4217544 33.8679855 81.5352047 33.9424582 81.0147368 34.3252945 75.7749708 38.1839127 70.4135673 41.8179491 64.8790643 45.2425309 64.3293567 45.5834764 63.5960234 45.5636945 63.2392982 45.2064582 62.8825731 44.8480582 63.0381287 44.2883491 63.5878363 43.9497309 72.4825731 38.4690036 80.9211696 32.4855855 88.9024561 25.7516218 89.3960234 25.33504 89.3024561 24.8137309 88.694269 24.5938036M8.26502924 19.1107491C8.70947368 19.8322036 9.08842105 20.4140218 9.56912281 21.1122036 9.93520468 21.6428218 10.7469006 21.9407127 11.3726316 21.7778036 17.0018713 20.3116218 22.4404678 18.5394036 27.8463158 16.3983127 28.4463158 16.1609309 29.1059649 16.3063855 29.3281871 16.7241309 29.5504094 17.14304 29.2533333 17.6759855 28.6533333 17.9145309 19.5515789 21.5311127 10.2907602 24.0306036.641637427 25.7225309.00538011696 25.83424-.193450292 26.3346036.207719298 26.8396218.797192982 27.5820218 1.29660819 28.1743127 1.95157895 28.9050764 2.3819883 29.3856582 3.25333333 29.67424 3.88842105 29.5508945 13.1983626 27.7588945 22.1340351 25.2768582 30.8498246 21.5415855 31.4439766 21.2867491 32.1270175 21.3856582 32.3854971 21.7626764 32.6439766 22.1408582 32.3808187 22.6540218 31.7866667 22.9076945 22.2369591 26.98624 12.4369591 29.7312582 2.22292398 31.6012218 1.58666667 31.7175855 1.43461988 32.18304 1.89192982 32.6380218 2.67087719 33.4141673 3.31064327 34.01344 4.16912281 34.7663127 4.65450292 35.1922036 5.56561404 35.4249309 6.19719298 35.2876218 15.9281871 33.2000582 25.2720468 30.3828945 34.2966082 26.17984 34.8825731 25.9075491 35.5854971 25.9587491 35.8778947 26.2973673 36.1702924 26.6348218 35.9422222 27.1328582 35.3574269 27.4098036 28.1352047 30.8250764 20.739883 33.4130036 13.022924 35.4877673 12.3995322 35.6553309 12.2977778 36.1172945 12.8042105 36.5175855 13.6755556 37.2029673 14.3784795 37.72544 15.3059649 38.3747491 15.8357895 38.7436218 16.771462 38.8914036 17.3901754 38.7052218 19.2837427 38.1338764 21.1480702 37.5229673 22.9843275 36.8771491 23.2392982 36.7875491 23.5644444 36.8969309 23.7129825 37.1226764 28.9808187 45.1203491 33.6112281 53.0016582 35.3118129 62.4480582 35.4638596 63.2916945 36.2182456 63.7466764 37.0287719 63.4546036 38.2369591 63.0159127 39.4381287 62.5655855 40.6287719 62.1047855 40.8802339 62.00704 41.1106433 61.71264 41.1422222 61.4461673 41.9983626 54.2921309 42.3691228 45.6544582 38.9188304 39.0985309 38.7936842 38.8611491 38.4708772 38.7028945 38.2030409 38.7308218 34.5749708 39.1194764 30.7808187 38.1815855 28.3562573 35.3492945 28.1819883 35.1456582 28.2521637 34.8884945 28.500117 34.7826036 32.7316959 32.9975855 36.822924 31.0426764 40.8790643 28.8783127 41.8545029 28.3581673 42.5890058 27.9311127 43.6030409 27.3551127 43.8369591 27.2224582 43.8521637 27.0223127 43.6264327 26.8756945 39.4018713 24.1260218 35.0977778 19.2643491 38.4966082 14.1641309 40.5890058 11.0223127 44.1445614 7.91191273 44.4755556 3.91016727 44.4977778 3.64253091 44.3106433 3.53314909 44.0767251 3.66580364 32.894269 10.00064 21.2299415 14.6074764 8.79368421 17.8237673 8.16795322 17.9866764 7.92701754 18.5626764 8.26502924 19.1107491"/>
  </g>
</svg>