<?xml version="1.0" encoding="utf-8"?>
<!-- Generator: Adobe Illustrator 21.0.2, SVG Export Plug-In . SVG Version: 6.00 Build 0)  -->
<!DOCTYPE svg PUBLIC "-//W3C//DTD SVG 1.1//EN" "http://www.w3.org/Graphics/SVG/1.1/DTD/svg11.dtd">
<svg version="1.1" id="Layer_1" xmlns="http://www.w3.org/2000/svg" xmlns:xlink="http://www.w3.org/1999/xlink" x="0px" y="0px"
	 width="225px" height="50px" viewBox="0 0 225 50" style="enable-background:new 0 0 225 50;" xml:space="preserve">
<style type="text/css">
	.st0{fill:#FFFFFF;}
</style>
<g>
	<path class="st0" d="M14.7,41.1c0-3.9-3.1-7-7-7c-3.8,0-7,3.1-7,7c0,3.8,3.1,7,7,7C11.6,48.1,14.7,45,14.7,41.1z M29.7,33.2h-4.8
		c-4.4,0-7.9,3.6-7.9,7.9c0,4.4,3.6,7.9,7.9,7.9h4.8V33.2L29.7,33.2z M68.3,41.1c0,3.8,3.1,7,7,7c3.9,0,7-3.1,7-7c0-3.9-3.1-7-7-7
		C71.5,34.1,68.3,37.3,68.3,41.1z M53.3,49h4.8c4.4,0,7.9-3.6,7.9-7.9c0-4.4-3.6-7.9-7.9-7.9h-4.8V49L53.3,49z M41.5,14.3
		c3.9,0,7-3.1,7-7c0-3.8-3.1-7-7-7c-3.8,0-7,3.1-7,7C34.6,11.2,37.7,14.3,41.5,14.3z M49.5,26.8v-2.3c0-4.4-3.6-7.9-7.9-7.9
		c-4.4,0-7.9,3.6-7.9,7.9v2.3l0.5-0.4l7.4-6.8l7.5,6.8L49.5,26.8L49.5,26.8z"/>
	<path class="st0" d="M22.6,22.2c2.7-2.7,2.7-7.1,0-9.9c-2.7-2.7-7.1-2.7-9.9,0c-2.7,2.7-2.7,7.1,0,9.9
		C15.4,24.9,19.9,24.9,22.6,22.2z M36.2,24.5l-0.8-0.8c-3.1-3.1-8.1-3.1-11.2,0c-3.1,3.1-3.1,8.1,0,11.2l5.5,5.5v-7.3h-3.1l7.4-6.8
		L36.2,24.5L36.2,24.5z M60.5,22.2c2.7,2.7,7.1,2.7,9.9,0c2.7-2.7,2.7-7.1,0-9.9s-7.1-2.7-9.9,0C57.8,15,57.8,19.4,60.5,22.2z
		 M53.3,40.5l5.5-5.5c3.1-3.1,3.1-8.1,0-11.2c-3.1-3.1-8.1-3.1-11.2,0l-0.8,0.8l2.1,1.9l7.5,6.8h-3.1V40.5L53.3,40.5z M42.1,43.8
		h4.8V39h-4.8V43.8z M36.2,38H41v-4.8h-4.8V38z M42.1,38h4.8v-4.8h-4.8V38z M36.2,43.8H41V39h-4.8V43.8z M220.2,22.4
		c0-1.7-0.5-2.9-1.6-3.5c-1.1-0.7-2.7-1-4.8-1h-0.9c-0.3,0-0.7,0-1,0c-0.3,0-0.7,0-1,0c-0.3,0-0.6,0-0.8,0.1v9.3c0.7,0,1.5,0,2.1,0
		c0.7,0,1.2,0,1.6,0c1,0,2-0.1,2.8-0.2c0.8-0.1,1.5-0.4,2-0.8c0.5-0.4,1-0.8,1.2-1.5c0.3-0.6,0.4-1.4,0.4-2.3V22.4z M224.2,40.1
		c0,0.3-0.1,0.4-0.4,0.4h-2.2c-0.2,0-0.4,0-0.5-0.1c-0.1,0-0.3-0.2-0.4-0.4L214.6,30h-0.9c-0.6,0-1.1,0-1.6,0c-0.5,0-1.2,0-2.1-0.1
		v10c0,0.2-0.1,0.3-0.2,0.5c-0.1,0.1-0.3,0.2-0.4,0.2h-1.8c-0.2,0-0.3-0.1-0.4-0.2c-0.1-0.1-0.2-0.3-0.2-0.5V16.1
		c0-0.2,0.1-0.4,0.2-0.5c0.1-0.1,0.3-0.2,0.6-0.2c0.4,0,0.8-0.1,1.3-0.1c0.5,0,1-0.1,1.5-0.1c0.5,0,1.1,0,1.6-0.1c0.5,0,1.1,0,1.6,0
		c1.3,0,2.6,0.1,3.7,0.4c1.2,0.2,2.2,0.7,3,1.2c0.8,0.6,1.5,1.3,2,2.2c0.5,0.9,0.7,2.1,0.7,3.5v0.2c0,1-0.1,1.8-0.4,2.6
		c-0.3,0.8-0.6,1.4-1.1,2c-0.5,0.6-1,1-1.7,1.4c-0.7,0.4-1.4,0.7-2.1,0.9l6.2,10.3C224.2,39.8,224.2,39.9,224.2,40.1z M204.6,16
		l-3.8,22.9c-0.1,0.7-0.4,1.2-0.7,1.4c-0.4,0.2-0.8,0.3-1.4,0.3h-1.5c-0.5,0-0.9-0.2-1.2-0.5c-0.3-0.3-0.6-0.7-0.7-1.2L192,26.4
		c0-0.2-0.1-0.2-0.1-0.3c0,0-0.1,0-0.1,0h-0.1c0,0-0.1,0-0.1,0c0,0-0.1,0.1-0.1,0.3l-3.4,12.5c-0.1,0.5-0.4,0.9-0.7,1.2
		c-0.3,0.3-0.7,0.5-1.2,0.5h-1.4c-0.5,0-1-0.1-1.4-0.3c-0.4-0.2-0.6-0.7-0.7-1.4L178.9,16v-0.1c0-0.4,0.2-0.6,0.6-0.6h2
		c0.3,0,0.5,0.2,0.6,0.6l3.3,21.6c0,0.2,0.1,0.3,0.1,0.4c0,0.1,0,0.1,0.1,0.1c0.1,0,0.2-0.2,0.2-0.5l3.3-12.5
		c0.2-0.9,0.8-1.4,1.6-1.4h2.2c0.8,0,1.4,0.5,1.6,1.4l3.3,12.5c0.1,0.3,0.1,0.5,0.2,0.5c0.1,0,0.1,0,0.1-0.1c0-0.1,0-0.2,0.1-0.4
		l3.3-21.6c0.1-0.4,0.3-0.6,0.6-0.6h2c0.4,0,0.6,0.2,0.6,0.6V16z M173.9,25.7c0-1.4-0.1-2.6-0.4-3.6c-0.3-1-0.7-1.8-1.2-2.4
		c-0.5-0.6-1.2-1.1-1.9-1.4c-0.7-0.3-1.6-0.4-2.5-0.4c-0.9,0-1.8,0.1-2.5,0.4c-0.7,0.3-1.4,0.7-1.9,1.4c-0.5,0.6-0.9,1.4-1.2,2.4
		c-0.3,1-0.4,2.2-0.4,3.6v4.4c0,1.4,0.1,2.6,0.4,3.6c0.3,1,0.7,1.8,1.2,2.4c0.5,0.6,1.2,1.1,1.9,1.4c0.7,0.3,1.6,0.4,2.5,0.4
		c0.9,0,1.8-0.1,2.5-0.4c0.7-0.3,1.4-0.7,1.9-1.4c0.5-0.6,0.9-1.4,1.2-2.4c0.3-1,0.4-2.2,0.4-3.6V25.7z M177.1,30.1
		c0,1.9-0.2,3.5-0.7,4.8c-0.5,1.3-1.1,2.4-1.9,3.3c-0.8,0.9-1.8,1.5-2.9,1.9c-1.1,0.4-2.3,0.6-3.7,0.6s-2.6-0.2-3.7-0.6
		c-1.1-0.4-2.1-1-2.9-1.9c-0.8-0.9-1.5-2-1.9-3.3c-0.5-1.3-0.7-3-0.7-4.8v-4.4c0-1.9,0.2-3.5,0.7-4.8c0.5-1.3,1.1-2.4,1.9-3.3
		c0.8-0.9,1.8-1.5,2.9-1.9c1.1-0.4,2.3-0.6,3.7-0.6s2.6,0.2,3.7,0.6c1.1,0.4,2.1,1,2.9,1.9c0.8,0.9,1.4,2,1.9,3.3
		c0.5,1.3,0.7,3,0.7,4.8V30.1z M153.4,22.4c0-1.7-0.5-2.9-1.6-3.7c-1-0.7-2.7-1.1-4.8-1.1c-0.5,0-1.1,0-1.8,0
		c-0.7,0-1.2,0.1-1.6,0.1v9.9c0.2,0,0.4,0,0.7,0c0.3,0,0.6,0,0.9,0.1c0.3,0,0.6,0,0.9,0c0.3,0,0.6,0,0.8,0c2.3,0,4-0.4,4.9-1.2
		c1-0.8,1.5-2.1,1.5-3.8V22.4z M156.5,22.9c0,1.4-0.2,2.6-0.7,3.6c-0.5,1-1.1,1.7-2,2.3c-0.8,0.6-1.9,1-3,1.3
		c-1.2,0.3-2.4,0.4-3.8,0.4c-0.5,0-1.1,0-1.8-0.1c-0.6,0-1.2-0.1-1.6-0.1v9.5c0,0.2-0.1,0.3-0.2,0.5c-0.1,0.1-0.3,0.2-0.4,0.2h-1.8
		c-0.2,0-0.3-0.1-0.4-0.2c-0.1-0.1-0.2-0.3-0.2-0.5V16.2c0-0.5,0.3-0.8,0.8-0.8c0.7-0.1,1.6-0.2,2.6-0.2c1,0,2-0.1,3-0.1
		c1.4,0,2.6,0.1,3.8,0.4c1.2,0.3,2.2,0.7,3,1.3c0.8,0.6,1.5,1.3,2,2.3c0.5,0.9,0.7,2.1,0.7,3.4V22.9z M137.5,39.7
		c0,0.4-0.2,0.6-0.7,0.7c-0.6,0.1-1.4,0.2-2.4,0.3c-1,0.1-2.4,0.2-4.2,0.2c-1.1,0-2.1-0.1-3.1-0.3c-1-0.2-1.9-0.5-2.6-1.1
		c-0.8-0.5-1.4-1.3-1.8-2.2c-0.5-1-0.7-2.2-0.7-3.7V22.3c0-1.5,0.2-2.8,0.7-3.7c0.4-1,1.1-1.7,1.8-2.2c0.8-0.5,1.6-0.9,2.6-1.1
		c1-0.2,2.1-0.3,3.1-0.3c0.9,0,1.7,0,2.4,0.1c0.7,0,1.3,0.1,1.8,0.1c0.5,0,1,0.1,1.3,0.1c0.4,0,0.7,0.1,1,0.1
		c0.5,0.1,0.7,0.3,0.7,0.7v3.2c0,0.2-0.1,0.3-0.2,0.5c-0.1,0.1-0.3,0.2-0.5,0.2h-6.9c-0.8,0-1.3,0.2-1.7,0.5
		c-0.3,0.3-0.5,0.9-0.5,1.8v3.1h8.8c0.2,0,0.3,0.1,0.5,0.2c0.1,0.1,0.2,0.3,0.2,0.5v3.2c0,0.2-0.1,0.3-0.2,0.5
		c-0.1,0.1-0.3,0.2-0.5,0.2h-8.8v3.6c0,0.9,0.2,1.5,0.5,1.8c0.3,0.3,0.9,0.5,1.7,0.5h6.9c0.2,0,0.3,0.1,0.5,0.2
		c0.1,0.1,0.2,0.3,0.2,0.5V39.7z M120.6,15.8L117.4,38c-0.1,1-0.5,1.7-1,2c-0.5,0.4-1.2,0.5-2.1,0.5h-1.9c-0.7,0-1.4-0.2-2-0.5
		c-0.6-0.3-0.9-0.9-1.2-1.8l-2.7-10.1c0-0.1-0.1-0.2-0.1-0.2s-0.1,0-0.2,0s-0.1,0-0.2,0c0,0-0.1,0.1-0.1,0.2l-2.7,10.1
		c-0.2,0.9-0.6,1.5-1.2,1.8s-1.2,0.5-1.9,0.5h-1.9c-0.9,0-1.6-0.2-2.1-0.5c-0.5-0.4-0.8-1-1-2L92,15.8v-0.1c0-0.2,0.1-0.3,0.2-0.4
		c0.1-0.1,0.2-0.1,0.4-0.1h4.6c0.3,0,0.5,0.2,0.5,0.6l1.9,18.2c0,0.3,0.1,0.4,0.2,0.4c0.1,0,0.2-0.1,0.2-0.4l2.4-9.3
		c0.2-0.7,0.5-1.1,0.8-1.3c0.4-0.2,0.8-0.3,1.3-0.3h3.4c0.5,0,0.9,0.1,1.3,0.3c0.4,0.2,0.7,0.6,0.8,1.3l2.4,9.3
		c0.1,0.3,0.1,0.4,0.2,0.4c0.1,0,0.2-0.1,0.2-0.4l1.9-18.2c0-0.4,0.2-0.6,0.5-0.6h4.6c0.1,0,0.3,0,0.4,0.1
		C120.5,15.4,120.6,15.6,120.6,15.8L120.6,15.8L120.6,15.8z"/>
</g>
</svg>
