<svg xmlns="http://www.w3.org/2000/svg" width="218" height="96" viewBox="0 0 218 96">
  <g fill="#002F54" fill-rule="evenodd">
    <path d="M6.97405041 11.0976497L4.46084715 18.3366741C4.29070081 18.7854545 4.34918862 19.0089579 4.62744878 19.0089579 5.07585528 19.0089579 6.69401789 17.7796896 7.70071707 16.6603991 8.03569268 16.7171619 8.20052195 16.8839024 8.14735122 17.2741463 6.91910732 19.1189357 4.18081463 21.1056319 2.39427805 21.1056319 1.83598537 21.1056319 1.38935122 20.6000887 1.38935122 20.153082 1.38935122 19.7628381 1.47265203 19.3708204 1.72432683 18.6169401L4.29070081 11.0976497 2.17096098 11.0976497C2.00081463 10.845765 2.17096098 10.3721508 2.44744878 10.2036364L4.79582276 9.75662971 6.58058699 7.04443459C6.75073333 6.93268293 6.97405041 6.90607539 7.25408293 6.90607539 7.64400163 6.90607539 8.03569268 7.04443459 8.14735122 7.26793792L7.36574146 9.86838137 10.1572049 9.86838137C10.4921805 10.2036364 10.2670911 10.9291353 9.9338878 11.0976497L6.97405041 11.0976497zM16.7478943 4.52807095C17.2512439 3.10190687 17.3646748 2.76842572 16.8311951 2.45977827L16.1612439 2.06776053C16.1080732 1.90101996 16.1080732 1.67751663 16.2729024 1.56576497 16.9428537 1.28549889 19.2912276.783503326 20.5176992.726740576 20.6293577.783503326 20.6878455.893481153 20.7410163.950243902 20.2412114 2.34802661 19.5712602 4.0810643 19.0377805 5.61720621L16.0495854 14.0606652 16.1080732 14.1156541C17.5295041 12.354235 18.6744472 11.3484701 19.5411301 10.7045676 20.6045447 9.89392461 21.6626423 9.30678492 22.6143984 9.30678492 23.8975854 9.30678492 24.5675366 10.257561 24.5675366 11.4602217 24.5675366 13.5835033 23.2559919 16.4908204 22.1092764 18.2256319 21.2744959 19.5098891 19.5712602 21.1045676 18.034626 21.1045676 17.1413577 21.1045676 16.6947236 20.6007982 16.6947236 20.0970288 16.6947236 19.5666519 17.1661707 19.0362749 17.5879919 19.0362749 17.7528211 19.0362749 17.9211951 19.1462528 18.0877967 19.3147672 18.3678293 19.5950333 18.6212764 19.7617738 18.7861057 19.7617738 19.0377805 19.7617738 19.2327398 19.3697561 19.5411301 18.6726386 20.3794553 16.7160976 21.6626423 13.0265188 21.6626423 11.5719734 21.6626423 11.0699778 21.497813 10.8180931 21.161065 10.8180931 20.8810325 10.8180931 20.4343984 11.0132151 19.9044634 11.4052328 19.0679106 12.0207539 18.227813 12.9147672 17.0279268 14.5076718 15.6029512 16.3524612 14.0946748 19.6784035 13.5080244 20.657561 13.3148374 20.9910421 13.0082195 21.1045676 12.559813 21.1045676 12.0582358 21.1045676 11.1064797 20.9360532 11.3882846 20.1537916L16.7478943 4.52807095zM34.817613 10.3146785C35.1809463 10.3146785 35.347548 10.6499335 35.347548 11.0153437 35.347548 11.4605765 35.0125724 12.4131264 34.3142634 13.1102439 33.4227675 14.0326386 32.5578569 14.5080266 31.1311089 15.0100222 31.4394992 14.0042572 32.1112228 12.5231042 33.1445073 11.433969 33.8410439 10.6499335 34.425922 10.3146785 34.817613 10.3146785M30.3211415 21.1049224C32.1643935 21.1049224 34.1193041 20.265898 35.6275805 18.1709978 35.6842959 17.8889579 35.4592065 17.6104656 35.1809463 17.6104656 33.895987 18.784745 32.8910602 19.3701109 31.8879057 19.3701109 31.1027512 19.3701109 30.6561171 18.8131264 30.6561171 17.77898 30.6561171 16.9967184 30.7677756 16.352816 30.9077919 15.9625721 34.0076455 15.1235477 37.8075805 13.7523725 37.8075805 11.2370732 37.8075805 10.3146785 36.9143122 9.30891353 35.5744098 9.30891353 34.5109951 9.30891353 33.197678 9.67254989 31.6628163 10.8184479 29.0113691 12.8317517 27.6962797 15.9625721 27.6962797 18.0574723 27.6962797 19.595388 28.4778894 21.1049224 30.3211415 21.1049224M72.6620585 3.10332594C71.3753268 3.35521064 70.9588228 3.96895787 69.9255382 6.26252772 67.8022537 10.9862528 65.985587 14.8159645 64.4241398 18.7290466 64.0040911 19.7631929 63.780774 20.5170732 63.5290992 21.0492239 63.4457984 21.1042129 63.2472943 21.1609756 63.0541073 21.1609756 62.859148 21.1609756 62.6606439 21.1325942 62.5507577 21.0492239 61.9658797 19.3161863 60.2059285 15.7099778 59.0875707 13.3064302 57.8309691 15.8501109 56.6009528 18.4221729 55.5410829 21.0492239 55.4577821 21.1042129 55.2628228 21.1609756 55.0643187 21.1609756 54.8711317 21.1609756 54.6761724 21.1325942 54.5645138 21.0492239 54.1178797 19.7915743 53.4195707 18.2820399 52.6096033 16.5773836L47.2198634 5.14323725C46.6296683 3.88558758 46.3514081 3.46696231 45.2082374 3.15831486L44.4230829 2.9631929C44.2298959 2.79645233 44.2582537 2.3210643 44.5099285 2.18093126 45.5148553 2.23769401 46.6881561 2.26430155 47.8862699 2.26430155 48.8947415 2.26430155 49.952839 2.23769401 51.2945138 2.18093126 51.5178309 2.3210643 51.547961 2.79645233 51.379587 2.9631929L50.681278 3.13170732C50.3197171 3.21507761 50.0379122 3.32682927 50.0379122 3.57871397 50.0379122 3.83059867 50.2346439 4.38935698 50.7096358 5.4518847L54.0328065 12.6643016C54.9810179 14.7875831 55.7094569 16.2403548 55.9877171 16.6873614 56.5743675 15.5698448 57.1610179 14.2572062 57.8575545 12.8026608 58.0277008 12.3822616 58.2510179 11.9086475 58.2510179 11.740133 58.2510179 11.6017738 58.1393593 11.2665188 57.9993431 10.9011086L55.0643187 4.6962306C54.5077984 3.57871397 54.2011805 3.29844789 53.4461561 3.13170732L52.637961 2.9631929C52.4412293 2.76984479 52.4678146 2.3210643 52.7212618 2.18093126 53.8662049 2.23769401 54.7878309 2.26430155 55.7378146 2.26430155 56.8544 2.26430155 57.9408553 2.23769401 59.0609854 2.18093126 59.2843024 2.29268293 59.3126602 2.79645233 59.1141561 2.9631929L58.3626764 3.13170732C58.0542862 3.21507761 57.8876846 3.32682927 57.8876846 3.52195122 57.8876846 3.69046563 57.9408553 3.99911308 58.1393593 4.44611973 58.7508228 5.84390244 59.395961 7.26829268 60.0375545 8.52771619 60.5125463 7.5751663 60.9574081 6.54101996 61.4040423 5.50687361 61.8258634 4.52949002 62.0208228 3.83059867 62.0208228 3.57871397 62.0208228 3.38359202 61.8506764 3.24345898 61.4625301 3.15831486L60.6809203 2.9631929C60.4841886 2.73968958 60.5409041 2.29268293 60.7642211 2.18093126 61.5174732 2.23769401 62.2990829 2.26430155 63.3607252 2.26430155 64.3390667 2.26430155 65.0090179 2.23769401 65.9040585 2.18093126 66.1823187 2.3210643 66.1823187 2.8248337 65.9590016 2.99157428L65.2606927 3.13170732C64.2274081 3.35521064 63.9473756 3.66208426 63.0541073 5.31175166 62.4373268 6.42926829 61.7407902 7.9405765 61.1275545 9.19822616 60.9875382 9.50332594 60.847522 9.89534368 60.847522 9.9804878 60.847522 10.0638581 60.9308228 10.313969 61.070839 10.6509978L62.2724976 13.2514412C62.859148 14.5090909 63.5840423 16.2137472 63.8374894 16.6873614 65.2606927 13.3614191 66.7689691 9.67184035 68.2488878 6.12239468 68.7221073 4.97649667 69.1155707 3.88558758 69.1155707 3.52195122 69.1155707 3.32682927 68.6122211 3.21507761 68.165587 3.10332594L67.6888228 2.9631929C67.4389203 2.76984479 67.4389203 2.3210643 67.7189528 2.18093126 68.7522374 2.23769401 69.617148 2.26430155 70.5653593 2.26430155 71.5171154 2.26430155 72.382026 2.23769401 73.2487089 2.18093126 73.472026 2.3210643 73.5251967 2.7113082 73.3320098 2.9631929L72.6620585 3.10332594zM87.9658358 2.93534368C92.4073642 2.93534368 94.3055593 7.82758315 94.3055593 12.0493126 94.3055593 17.667051 91.7356407 20.0422173 88.5524862 20.0422173 83.7777545 20.0422173 82.1276894 14.7881153 82.1276894 10.9300222 82.1276894 4.97525499 85.1726 2.93534368 87.9658358 2.93534368M88.3291691 1.81782705C82.4644374 1.81782705 78.3295268 6.03778271 78.3295268 11.7406652 78.3295268 16.7162749 81.9610878 21.1597339 88.2724537 21.1597339 93.9138683 21.1597339 98.1054943 17.0515299 98.1054943 11.5437694 98.1054943 6.45818182 94.7823236 1.81782705 88.3291691 1.81782705M130.585545 19.9859867C130.863805 20.0977384 130.838992 20.6866519 130.528829 20.7966297 129.327171 20.7416408 128.238943 20.7132594 127.122358 20.7132594 125.810813 20.7132594 124.607382 20.7416408 123.380911 20.7966297 123.157593 20.6866519 123.044163 20.1545011 123.322423 19.9859867L124.077447 19.8476275C125.194033 19.6791131 125.279106 19.4556098 125.279106 17.5558315L125.279106 8.7221286 125.279106 6.12345898 125.224163 6.12345898C124.469138 7.65960089 124.077447 8.49685144 123.54574 9.61614191L121.145967 14.5367627C120.197756 16.4915299 118.801138 19.5957428 118.296016 20.9101552 118.184358 21.020133 117.767854 21.020133 117.56935 20.9101552 117.097902 19.4006208 115.894472 16.6600443 115.25465 15.2622616L112.76626 9.89640798C112.234553 8.7221286 111.483073 6.96070953 111.146325 6.12345898L111.08961 6.12345898C111.036439 7.49286031 110.977951 9.67290466 110.923008 10.847184 110.866293 12.5518404 110.81135 15.0387583 110.81135 17.3323282 110.81135 19.1753437 110.837935 19.6241242 112.039593 19.8192461L112.964764 19.9859867C113.157951 20.1545011 113.157951 20.6866519 112.932862 20.7966297 111.899577 20.7416408 111.036439 20.7132594 110.001382 20.7132594 109.108114 20.7132594 108.099642 20.7416408 107.013187 20.7966297 106.763285 20.6582705 106.763285 20.1261197 106.928114 19.9859867L107.404878 19.9309978C108.74478 19.7624834 108.96987 19.3438581 109.132927 17.6392018 109.358016 15.8777827 109.416504 14.0613747 109.554748 11.1540576 109.666407 9.25250554 109.833008 6.934102 109.833008 5.22944568 109.833008 3.91325942 109.416504 3.32611973 108.322959 3.15937916L107.374748 2.99263858C107.211691 2.79751663 107.236504 2.26536585 107.488179 2.18199557 108.322959 2.23698448 109.079756 2.26536585 110.113041 2.26536585 111.08961 2.26536585 112.067951 2.26536585 113.101236 2.18199557 113.212894 3.85827051 113.937789 5.31281596 114.63787 6.8205765L117.709366 13.2791131C117.932683 13.7527273 118.65935 15.15051 119.024455 15.7944124 119.471089 14.9837694 119.859236 14.1997339 120.474244 12.8870953L123.099106 7.52124169C123.992374 5.67645233 124.887415 4.02678492 125.364179 2.18199557 126.117431 2.23698448 127.037285 2.26536585 127.652293 2.26536585 128.825593 2.26536585 129.805707 2.23698448 130.585545 2.18199557 130.892163 2.29197339 130.947106 2.82412417 130.668846 2.99263858L129.74722 3.13099778C128.518976 3.2995122 128.238943 3.77312639 128.238943 5.25605322 128.238943 9.39263858 128.293886 13.5292239 128.488846 17.6658093 128.573919 19.53898 128.880537 19.734102 129.775577 19.8476275L130.585545 19.9859867zM143.12533 6.29073171C143.12533 3.32665188 142.871883 3.2432816 141.560338 3.04815965L141.113704 2.99317073C140.918745 2.79627494 140.947102 2.29250554 141.168647 2.18252772 142.230289 2.23751663 143.543607 2.26412417 144.775395 2.26412417L150.104875 2.26412417C151.893184 2.26412417 153.513119 2.23751663 153.876452 2.18252772 153.989883 2.65614191 154.158257 4.86456763 154.323086 6.06722838 154.2132 6.29073171 153.653135 6.34572062 153.428046 6.17898004 152.983184 4.55592018 152.564907 3.85880266 151.669867 3.63529933 151.028273 3.44017738 150.189948 3.38341463 149.438468 3.38341463L147.565086 3.38341463C146.363428 3.38341463 146.363428 3.44017738 146.363428 5.03308204L146.363428 9.7568071C146.363428 10.482306 146.391785 10.5106874 147.035151 10.5106874L148.375054 10.5106874C150.804956 10.5106874 151.28172 10.482306 151.474907 9.28141907L151.669867 8.33064302C151.893184 8.13552106 152.424891 8.13552106 152.564907 8.35902439 152.538322 9.11290466 152.479834 10.1186696 152.479834 11.152816 152.479834 12.2171175 152.538322 13.1945011 152.564907 14.0885144 152.424891 14.2854102 151.893184 14.2854102 151.669867 14.1168958L151.474907 12.9976053C151.28172 11.8250998 150.804956 11.768337 148.375054 11.768337L147.035151 11.768337C146.391785 11.768337 146.363428 11.8250998 146.363428 12.5239911L146.363428 16.0734368C146.363428 17.4978271 146.420143 18.5053659 146.840192 18.9807539 147.173395 19.3709978 147.650159 19.5962749 149.994989 19.5962749 153.541476 19.6512639 154.158257 18.8406208 155.133054 16.5772062 155.384728 16.3803104 155.863265 16.4636807 156.026322 16.7457206 155.863265 17.9182262 155.246485 20.0432816 154.854793 20.7971619 153.62655 20.7403991 151.223233 20.7137916 147.95855 20.7137916L144.775395 20.7137916C143.543607 20.7137916 141.838598 20.7403991 140.581997 20.7971619 140.356907 20.6854102 140.332094 20.1816408 140.527054 19.9865188L141.560338 19.8747672C142.871883 19.7346341 143.12533 19.6512639 143.12533 16.687184L143.12533 6.29073171zM183.202415 15.9609756C183.202415 16.8 183.202415 20.237694 183.285715 20.8798226 183.062398 21.1866962 182.670707 21.3002217 182.339276 21.2718404 181.889098 20.6847007 181.07913 19.7339246 179.069276 17.4421286L172.531049 9.97960089C170.717927 7.93968958 169.824659 6.87716186 169.351439 6.45853659 169.268138 6.45853659 169.268138 6.76363636 169.268138 8.24478936L169.268138 13.697561C169.268138 15.7924612 169.292951 18.3645233 169.767943 19.2035477 170.02139 19.6221729 170.49461 19.7906874 171.194691 19.902439L171.806154 19.9858093C172.057829 20.1809313 172.029472 20.713082 171.751211 20.7964523 170.717927 20.7396896 169.629699 20.713082 168.566285 20.713082 167.394756 20.713082 166.639732 20.7396896 165.663163 20.7964523 165.441618 20.6563193 165.38313 20.1809313 165.606447 19.9858093L166.221455 19.8456763C166.754935 19.762306 167.25474 19.6505543 167.449699 19.2035477 167.813033 18.3361419 167.813033 15.9059867 167.813033 13.697561L167.813033 7.07228381C167.813033 4.89223947 167.84139 4.44523282 166.891407 3.6345898 166.584789 3.3827051 165.804951 3.15742794 165.411488 3.07405765L164.994984 2.99068736C164.79648 2.82394678 164.824837 2.26341463 165.10487 2.18004435 166.166512 2.29179601 167.701374 2.26341463 168.399683 2.26341463 168.986333 2.26341463 169.656285 2.2368071 170.326236 2.18004435 170.801228 3.3827051 173.847911 6.90554324 174.820935 7.96629712L177.619488 10.9853659C178.789244 12.2713969 181.389293 15.2337029 181.66578 15.4022173 181.752626 15.318847 181.752626 15.178714 181.752626 14.7317073L181.752626 9.2789357C181.752626 7.18403548 181.722496 4.61374723 181.219146 3.772949 180.967472 3.35432373 180.520837 3.18758315 179.822528 3.07405765L179.17739 2.99068736C178.92926 2.79556541 178.955846 2.26341463 179.23765 2.18004435 180.325878 2.2368071 181.359163 2.26341463 182.44739 2.26341463 183.649049 2.26341463 184.373943 2.2368071 185.380642 2.18004435 185.602187 2.32017738 185.662447 2.79556541 185.437358 2.99068736L184.793992 3.1308204C184.265829 3.21419069 183.789065 3.32594235 183.595878 3.772949 183.202415 4.64035477 183.202415 7.07228381 183.202415 9.2789357L183.202415 15.9609756zM197.557803 4.02572062C197.557803 6.14900222 195.659608 7.71529933 193.731283 8.19068736 193.507966 8.02217295 193.453023 7.68691796 193.534551 7.46341463 194.73621 6.95964523 195.797852 6.14900222 195.797852 4.91973392 195.797852 3.99733925 194.959527 3.54855876 194.289576 3.46696231 193.871299 3.41019956 193.424665 3.07494457 193.424665 2.4594235 193.424665 1.98580931 193.757868 1.14678492 195.01447 1.14678492 196.384502 1.14678492 197.557803 2.48780488 197.557803 4.02572062M205.433098 19.9859867C204.929748 19.4006208 204.569959 17.4706874 204.594772 15.7376497 204.763146 15.4573836 205.239911 15.4307761 205.463228 15.625898 205.963033 17.0520621 207.471309 20.0427494 210.207829 20.0427494 212.334659 20.0427494 213.531 18.7567184 213.531 17.0520621 213.531 15.4573836 212.781293 14.1731264 210.684593 12.998847L209.482935 12.328337C207.38978 11.1540576 205.542984 9.44940133 205.542984 6.934102 205.542984 4.16514412 207.611325 1.8183592 211.687748 1.8183592 213.144626 1.8183592 214.202724 2.15361419 215.512496 2.40549889 215.822659 3.02101996 216.104463 4.86580931 216.104463 6.17844789 215.960902 6.42855876 215.459325 6.45871397 215.211195 6.26359202 214.789374 4.80727273 213.814577 2.93587583 211.437846 2.93587583 209.202902 2.93587583 208.281276 4.38864745 208.281276 5.87157428 208.281276 7.04407982 209.093016 8.30350333 210.934496 9.28088692L212.666089 10.2032816C214.482756 11.1540576 216.49261 12.8870953 216.49261 15.7110421 216.49261 18.8968514 214.062707 21.1602661 210.01287 21.1602661 207.444724 21.1602661 205.99139 20.3212417 205.433098 19.9859867M9.17904065 35.9677162C10.9673496 35.9677162 12.5323415 35.9393348 13.1189919 35.8843459 13.1189919 36.499867 13.1189919 38.5947672 13.1721626 39.9091796 13.0605041 40.1326829 12.5589268 40.1894457 12.2806667 40.0209313 12.0006341 38.3996452 11.5522276 37.5890022 10.4923577 37.31051 9.73733333 37.1136142 9.03902439 37.0870067 8.1457561 37.0870067L6.72078049 37.0870067C5.54925203 37.0870067 5.54925203 37.1419956 5.54925203 38.7065188L5.54925203 43.71051C5.54925203 44.4094013 5.5758374 44.4661641 6.21920325 44.4661641L7.86572358 44.4661641C10.295626 44.4661641 10.7440325 44.4094013 10.993935 43.2368958L11.217252 42.2861197C11.385626 42.0892239 11.915561 42.0892239 12.0555772 42.3127273 12.0272195 43.04 11.9722764 44.0741463 11.9722764 45.1082927 11.9722764 46.142439 12.0272195 47.1499778 12.0555772 48.0156098 11.915561 48.2391131 11.385626 48.2391131 11.217252 48.0439911L10.993935 46.953082C10.7440325 45.7788027 10.295626 45.7238137 7.86572358 45.7238137L6.21920325 45.7238137C5.5758374 45.7238137 5.54925203 45.7788027 5.54925203 46.477694L5.54925203 50.3907761C5.54925203 53.3548559 5.79915447 53.4382262 7.11247154 53.5499778L8.28577236 53.688337C8.48073171 53.8852328 8.45237398 54.3890022 8.22905691 54.49898 6.44252033 54.4439911 5.1859187 54.4156098 3.9576748 54.4156098 2.72765854 54.4156098 1.47105691 54.4439911.186097561 54.49898-.0372195122 54.3890022-.0655772358 53.8852328.132926829 53.688337L.744390244 53.6049667C2.05770732 53.4382262 2.30938211 53.3548559 2.30938211 50.3907761L2.30938211 39.9943237C2.30938211 37.0302439 2.05770732 36.9468736.744390244 36.7499778L.381056911 36.6949889C.186097561 36.499867.214455285 35.9960976.437772358 35.8843459 1.41611382 35.9393348 2.67271545 35.9677162 3.90095935 35.9677162L9.17904065 35.9677162zM27.7524634 36.6382262C32.1922195 36.6382262 34.092187 41.5304656 34.092187 45.7521951 34.092187 51.3699335 31.5222683 53.7450998 28.3391138 53.7450998 23.5626098 53.7450998 21.9143171 48.4909978 21.9143171 44.6329047 21.9143171 38.6781375 24.9592276 36.6382262 27.7524634 36.6382262M28.1157967 35.5207095C22.2492927 35.5207095 18.1161545 39.7406652 18.1161545 45.4435477 18.1161545 50.4191574 21.7459431 54.8626164 28.0590813 54.8626164 33.6987236 54.8626164 37.8903496 50.7544124 37.8903496 45.2466519 37.8903496 40.1610643 34.5671789 35.5207095 28.1157967 35.5207095M45.2908293 39.9936142C45.2908293 37.0295344 45.0391545 36.9461641 43.7276098 36.7510421L43.2543902 36.665898C43.0558862 36.4725499 43.0842439 35.995388 43.307561 35.8854102 44.4241463 35.9403991 45.6842927 35.9670067 46.9107642 35.9670067 48.1673659 35.9670067 49.4239675 35.9403991 50.6522114 35.8854102 50.8755285 35.995388 50.9038862 36.4725499 50.7106992 36.665898L50.0939187 36.7510421C48.782374 36.9461641 48.5306992 37.0295344 48.5306992 39.9936142L48.5306992 46.3936142C48.5306992 50.2517073 49.704 53.4942794 53.5872358 53.4942794 57.2436098 53.4942794 58.7518862 50.7270953 58.7518862 46.4769845L58.7518862 42.9843016C58.7518862 40.8876275 58.7253008 38.287184 58.2219512 37.476541 57.9702764 37.0579157 57.5236423 36.86102 56.8253333 36.7510421L56.2670407 36.665898C56.0153659 36.4725499 56.0437236 35.9670067 56.3237561 35.8854102 57.2719675 35.9403991 58.3336098 35.9670067 59.4253821 35.9670067 60.5951382 35.9670067 61.351935 35.9403991 62.3852195 35.8854102 62.6085366 36.0237694 62.6617073 36.4725499 62.4383902 36.665898L61.8251545 36.806031C61.2934472 36.9195565 60.7918699 37.0295344 60.5951382 37.476541 60.2052195 38.3173392 60.2052195 40.7758758 60.2052195 42.9843016L60.2052195 46.3102439C60.2052195 48.8539246 59.8135285 51.2007095 58.3619675 52.7670067 56.9104065 54.3333038 54.8154797 54.8636807 52.8871545 54.8636807 50.264065 54.8636807 48.420813 54.3031486 47.1340813 53.0738803 45.8774797 51.8729933 45.2908293 49.9164523 45.2908293 47.0925055L45.2908293 39.9936142zM84.6704911 49.6638581C84.6704911 50.5028825 84.6704911 53.9405765 84.7537919 54.5827051 84.5304748 54.8895787 84.1387837 55.0031042 83.8073528 54.9747228 83.357174 54.3875831 82.5472065 53.4368071 80.5373528 51.1450111L74.0008976 43.6824834C72.1860033 41.6425721 71.292735 40.5800443 70.8195154 40.1614191 70.7362146 40.1614191 70.7362146 40.4665188 70.7362146 41.9476718L70.7362146 47.4004435C70.7362146 49.4953437 70.7610276 52.0674058 71.2360195 52.9064302 71.4894667 53.3250554 71.9626862 53.4935698 72.6627675 53.6053215L73.2742309 53.6886918C73.5259057 53.8838137 73.4993203 54.4159645 73.2192878 54.4993348 72.1860033 54.4425721 71.0960033 54.4159645 70.0361333 54.4159645 68.8628325 54.4159645 68.1078081 54.4425721 67.131239 54.4993348 66.9096943 54.3592018 66.8512065 53.8838137 67.0745236 53.6886918L67.6895317 53.5485588C68.2194667 53.4651885 68.7228163 53.3534368 68.9177756 52.9064302 69.2811089 52.0390244 69.2811089 49.6088692 69.2811089 47.4004435L69.2811089 40.7751663C69.2811089 38.595122 69.3094667 38.1481153 68.3594829 37.3374723 68.052865 37.0855876 67.2730276 36.8603104 66.8795642 36.7769401L66.4630602 36.6935698C66.2645561 36.5268293 66.2929138 35.9662971 66.5729463 35.8829268 67.6345886 35.9946785 69.1694504 35.9662971 69.8677593 35.9662971 70.4544098 35.9662971 71.124361 35.9396896 71.7943122 35.8829268 72.2693041 37.0855876 75.315987 40.6084257 76.2907837 41.6691796L79.0875642 44.6882483C80.2590927 45.9742794 82.8573691 48.9365854 83.1338569 49.1050998 83.2207024 49.0217295 83.2207024 48.8815965 83.2207024 48.4345898L83.2207024 42.9818182C83.2207024 40.886918 83.1905724 38.3166297 82.6872228 37.4758315 82.435548 37.0572062 81.9889138 36.8904656 81.2906049 36.7769401L80.647239 36.6935698C80.3973366 36.4984479 80.423922 35.9662971 80.7057268 35.8829268 81.7939545 35.9396896 82.827239 35.9662971 83.9154667 35.9662971 85.1171252 35.9662971 85.8420195 35.9396896 86.8487187 35.8829268 87.0720358 36.0230599 87.1305236 36.4984479 86.9072065 36.6935698L86.2620683 36.8337029C85.7339057 36.9170732 85.2571415 37.0288248 85.0639545 37.4758315 84.6704911 38.3432373 84.6704911 40.7751663 84.6704911 42.9818182L84.6704911 49.6638581zM97.4057675 39.4618182C97.4057675 38.1491796 97.4358976 37.5620399 97.6290846 37.3935255 97.8240439 37.2250111 98.7173122 37.0015078 99.890613 37.0015078 104.555459 37.0015078 107.768743 39.6853215 107.768743 45.2196896 107.768743 49.9434146 105.5338 53.4644789 100.560564 53.4644789 97.6007268 53.4644789 97.4057675 52.0117073 97.4057675 49.301286L97.4057675 39.4618182zM94.1658976 50.3904213C94.1658976 53.3545011 93.9142228 53.4378714 92.6009057 53.6063858L91.9876699 53.6879823C91.7909382 53.884878 91.8228407 54.3886475 92.0461577 54.4986253 93.2726293 54.4436364 94.5292309 54.4170288 95.5926455 54.4170288 96.6259301 54.4170288 97.9357024 54.5837694 99.6407106 54.5837694 102.180499 54.5837694 104.583816 54.2485144 106.567085 53.2409756 110.028499 51.4813304 111.565133 48.2937472 111.565133 45.1913082 111.565133 41.0281153 109.190174 38.0640355 105.840418 36.8329933 103.802207 36.1074945 101.902239 35.8839911 99.2490195 35.8839911 96.5107268 35.8839911 94.2775561 35.9673614 92.2694748 36.1358758 92.0461577 36.2760089 92.0461577 36.7780044 92.2393447 36.9181375L92.8259951 36.9749002C94.1375398 37.1416408 94.1658976 37.4768958 94.1658976 40.1607095L94.1658976 50.3904213zM122.06653 46.309357C121.396579 46.309357 121.311506 46.309357 121.619896 45.5004878L122.793197 42.2295344C123.294774 40.915122 123.518091 40.2162306 123.631522 40.0211086L123.686465 40.0211086C123.826481 40.2162306 123.993083 40.7466075 124.468075 42.2295344L125.643148 45.5838581C125.868237 46.2543681 125.753034 46.309357 124.973197 46.309357L122.06653 46.309357zM125.33653 47.5687805C126.116367 47.5687805 126.199668 47.5687805 126.479701 48.3226608L127.791246 52.1239911C128.158124 53.3266519 128.07305 53.4951663 127.064579 53.6051441L126.453115 53.6885144C126.284741 53.8570288 126.313099 54.3607982 126.536416 54.4991574 127.512985 54.4725499 128.744774 54.4157871 129.941115 54.4157871 131.397993 54.4157871 132.431278 54.4441685 133.572676 54.4991574 133.77118 54.3607982 133.77118 53.8854102 133.547863 53.6885144L133.126042 53.6051441C131.702839 53.3550333 131.56105 53.1581375 130.919457 51.2867406L126.901522 39.574102C126.453115 38.3164523 126.091554 37.0020399 125.643148 35.7443902 125.529717 35.6042572 125.389701 35.5208869 125.166384 35.5208869 125.111441 35.5208869 124.189815 36.6667849 123.213246 36.8619069 123.294774 37.3372949 123.044872 38.0078049 122.683311 38.9018182L118.855018 48.8548115C118.268367 50.3625721 117.819961 51.5368514 117.486758 52.2641242 117.070254 53.1865188 116.760091 53.4384035 115.950124 53.5501552L115.111798 53.6885144C114.916839 53.9421729 114.943424 54.3607982 115.140156 54.4991574 116.12027 54.4441685 116.983408 54.4157871 117.905034 54.4157871 119.049977 54.4441685 119.971603 54.4441685 120.866644 54.4991574 121.088189 54.3891796 121.116546 53.8854102 120.921587 53.6885144L120.11162 53.5501552C119.078335 53.4100222 118.966676 53.3266519 119.524969 51.6769845L120.669912 48.3226608C120.921587 47.5687805 120.893229 47.5687805 121.619896 47.5687805L125.33653 47.5687805zM144.381932 38.3168071C144.381932 37.1425277 144.353574 37.0875388 143.626907 37.0875388L142.063688 37.0875388C139.493769 37.0875388 138.738745 37.3926386 137.70546 39.6578271 137.510501 39.8263415 136.92385 39.7411973 136.812192 39.4627051 137.287184 37.9531707 137.70546 36.2183592 137.902192 35.2427494 137.958907 35.1576053 138.067021 35.1292239 138.212354 35.1292239 138.320468 35.1292239 138.435672 35.1576053 138.488842 35.2427494 138.628859 35.939867 139.022322 35.9682483 140.918745 35.9682483L152.316777 35.9682483C153.681493 35.9682483 154.099769 35.884878 154.436517 35.2427494 154.546403 35.1842129 154.659834 35.1292239 154.771493 35.1292239 154.938094 35.1292239 155.078111 35.1842129 155.133054 35.269357 154.854793 36.415255 154.631476 38.8188027 154.714777 39.712816 154.576533 39.9363193 154.099769 39.993082 153.849867 39.7979601 153.486533 37.6161419 152.956598 37.0875388 149.966631 37.0875388L148.375054 37.0875388C147.650159 37.0875388 147.621802 37.1425277 147.621802 38.3168071L147.621802 50.3913082C147.621802 53.355388 147.875249 53.4369845 149.185021 53.5788914L150.189948 53.6888692C150.388452 53.8839911 150.358322 54.3895344 150.135005 54.4995122 148.51507 54.4445233 147.258468 54.4161419 146.031997 54.4161419 144.800208 54.4161419 143.486891 54.4445233 141.700354 54.4995122 141.477037 54.3895344 141.450452 53.8290022 141.645411 53.6888692L142.81694 53.55051C144.130257 53.4369845 144.381932 53.355388 144.381932 50.3913082L144.381932 38.3168071zM165.077398 50.3905987C165.077398 53.3546785 165.330846 53.4380488 166.640618 53.6065632L167.255626 53.6881596C167.450585 53.8850554 167.422228 54.3888248 167.198911 54.4988027 165.970667 54.4438137 164.714065 54.4172062 163.487593 54.4172062 162.255805 54.4172062 160.942488 54.4438137 159.716016 54.4988027 159.492699 54.3888248 159.462569 53.8850554 159.657528 53.6881596L160.272537 53.6065632C161.585854 53.4380488 161.837528 53.3546785 161.837528 50.3905987L161.837528 39.9941463C161.837528 37.0300665 161.585854 36.9466962 160.272537 36.7781818L159.657528 36.6948115C159.462569 36.4996896 159.492699 35.9959202 159.716016 35.8841685 160.942488 35.9409313 162.200862 35.9675388 163.487593 35.9675388 164.714065 35.9675388 165.970667 35.9409313 167.198911 35.8841685 167.422228 35.9959202 167.450585 36.4996896 167.255626 36.6948115L166.640618 36.7781818C165.330846 36.9466962 165.077398 37.0300665 165.077398 39.9941463L165.077398 50.3905987zM182.279902 36.6382262C186.721431 36.6382262 188.619626 41.5304656 188.619626 45.7521951 188.619626 51.3699335 186.05148 53.7450998 182.866553 53.7450998 178.091821 53.7450998 176.443528 48.4909978 176.443528 44.6329047 176.443528 38.6781375 179.488439 36.6382262 182.279902 36.6382262M182.643236 35.5207095C176.778504 35.5207095 172.643593 39.7406652 172.643593 45.4435477 172.643593 50.4191574 176.275154 54.8626164 182.588293 54.8626164 188.229707 54.8626164 192.419561 50.7544124 192.419561 45.2466519 192.419561 40.1610643 189.09639 35.5207095 182.643236 35.5207095M215.347135 49.6638581C215.347135 50.5028825 215.347135 53.9405765 215.432208 54.5827051 215.208891 54.8895787 214.8172 55.0031042 214.483997 54.9747228 214.037363 54.3875831 213.227395 53.4368071 211.213997 51.1450111L204.677541 43.6824834C202.86442 41.6425721 201.969379 40.5800443 201.497932 40.1614191 201.414631 40.1614191 201.414631 40.4665188 201.414631 41.9476718L201.414631 47.4004435C201.414631 49.4953437 201.439444 52.0674058 201.914436 52.9064302 202.166111 53.3250554 202.641102 53.4935698 203.341184 53.6053215L203.952647 53.6886918C204.204322 53.8838137 204.175964 54.4159645 203.897704 54.4993348 202.86442 54.4425721 201.776192 54.4159645 200.712777 54.4159645 199.539476 54.4159645 198.786224 54.4425721 197.807883 54.4993348 197.586338 54.3592018 197.529623 53.8838137 197.75294 53.6886918L198.367948 53.5485588C198.899655 53.4651885 199.401233 53.3534368 199.596192 52.9064302 199.957753 52.0390244 199.957753 49.6088692 199.957753 47.4004435L199.957753 40.7751663C199.957753 38.595122 199.987883 38.1481153 199.037899 37.3374723 198.729509 37.0855876 197.951444 36.8603104 197.55798 36.7769401L197.141476 36.6935698C196.942972 36.5268293 196.97133 35.9662971 197.24959 35.8829268 198.313005 35.9946785 199.847867 35.9662971 200.544403 35.9662971 201.131054 35.9662971 201.801005 35.9396896 202.472728 35.8829268 202.94772 37.0855876 205.994403 40.6084257 206.9692 41.6691796L209.764208 44.6882483C210.937509 45.9742794 213.535785 48.9365854 213.812273 49.1050998 213.897346 49.0217295 213.897346 48.8815965 213.897346 48.4345898L213.897346 42.9818182C213.897346 40.886918 213.867216 38.3166297 213.365639 37.4758315 213.113964 37.0572062 212.665558 36.8904656 211.970793 36.7769401L211.325655 36.6935698C211.075753 36.4984479 211.102338 35.9662971 211.384143 35.8829268 212.470598 35.9396896 213.503883 35.9662971 214.593883 35.9662971 215.795541 35.9662971 216.520436 35.9396896 217.525363 35.8829268 217.74868 36.0230599 217.807167 36.4984479 217.58385 36.6935698L216.938712 36.8337029C216.412322 36.9170732 215.933785 37.0288248 215.740598 37.4758315 215.347135 38.3432373 215.347135 40.7751663 215.347135 42.9818182L215.347135 49.6638581zM4.92130569 87.5042129C4.2797122 87.5042129 3.91637886 86.8886918 3.91637886 86.0514412 3.91637886 83.9831486 5.3697122 80.6572062 6.68125691 78.9507761 7.40437886 78.0283814 7.99102927 77.7197339 8.49615122 77.7197339 9.27953333 77.7197339 9.38941951 78.475388 9.38941951 79.2310421 9.38941951 81.0474501 8.04951707 84.4017738 7.04459024 85.8545455 6.20626504 87.0572062 5.59302927 87.5042129 4.92130569 87.5042129M1.3446878 84.8487805C1.29151707 86.8886918 2.46127317 88.5099778 4.80964715 88.5099778 6.03789106 88.5099778 7.60288293 88.1747228 9.22281789 86.5800443 11.0926553 84.7937916 11.9593382 82.248337 11.9593382 80.5152993 12.0160537 78.4203991 11.0111268 76.713969 8.52450894 76.713969 7.26790732 76.713969 5.87128943 77.0776053 4.2797122 78.5889135 2.5481187 80.151663 1.40317561 82.8088692 1.3446878 84.8487805M19.8062748 78.3345455C18.8562911 81.1301109 17.5713317 86.2174723 16.7064211 88.9562749 16.0081122 91.1380931 15.2566325 92.8143681 14.5565512 93.7083814 13.9699008 94.4640355 12.4899821 95.6383149 10.760161 95.6383149 9.41848618 95.6383149 8.41178699 94.7425277 8.41178699 93.7651441 8.41178699 93.00949 8.91336423 92.4507317 9.47165691 92.4507317 9.86512033 92.4507317 10.1150228 92.6458537 10.3383398 93.00949 10.8700472 93.8485144 11.4850553 94.4090466 11.9582748 94.4090466 12.3800959 94.4090466 12.7682423 93.9602661 13.3283073 92.0321064 14.2765187 88.6777827 15.6164211 83.2533925 17.013039 78.3345455L14.5281935 78.3345455C14.248161 77.9425277 14.471478 77.2720177 14.8631691 77.1052772L17.3480146 77.1052772C17.9931528 74.9536142 18.6046163 73.0236807 19.7531041 71.3740133 21.1461772 69.334102 22.9061285 68.1332151 25.0861285 68.1332151 26.8159496 68.1332151 27.8793642 69.1372062 27.8793642 70.284878 27.8793642 71.4591574 26.9843236 72.1846563 26.3693154 72.1846563 25.9776244 72.1846563 25.8127951 72.0179157 25.7543073 71.6276718 25.5309902 69.7243459 24.7210228 69.1372062 24.1627301 69.1372062 23.5494943 69.1372062 22.8777707 69.8378714 22.2911203 71.0121508 21.3694943 72.8569401 20.7562585 74.9802217 20.1412504 77.1052772L23.4644211 77.1052772C23.6877382 77.4405322 23.5760797 78.1110421 23.1294455 78.3345455L19.8062748 78.3345455zM52.1206098 74.3668293C51.9256504 74.5903326 51.4205285 74.618714 51.2273415 74.4218182 50.7523496 72.6621729 49.495748 70.3402217 45.8056992 70.3402217 42.2609837 70.3402217 38.6861382 72.8590687 38.6861382 78.5885588 38.6861382 84.5415521 42.401 87.4488692 46.0042033 87.4488692 49.5241057 87.4488692 51.0571951 85.1003104 51.8405772 83.2821286 52.0904797 83.0320177 52.5371138 83.1437694 52.6771301 83.3956541 52.4839431 85.2688248 51.7271463 87.1136142 51.339 87.6439911 51.0040244 87.7007539 50.6690488 87.8107317 50.3606585 87.8958758 49.7474228 88.0909978 47.8190976 88.5663858 46.0042033 88.5663858 43.2393252 88.5663858 40.8625935 88.0058537 38.8545122 86.6932151 36.589439 85.2120621 34.8862033 82.6683814 34.8862033 79.007184 34.8862033 75.7362306 36.3413089 73.1925499 38.407878 71.5996452 40.4744472 70.035122 43.2960407 69.2244789 46.1158618 69.2244789 47.707439 69.2244789 49.6357642 69.5029712 50.9473089 69.8382262 51.2805122 69.9215965 51.4790163 69.9499778 51.7271463 70.0067406 51.7856341 70.6488692 51.8405772 72.2985366 52.1206098 74.3668293M61.5311203 80.0122395C60.8611691 80.0122395 60.7778683 80.0122395 61.0844862 79.2033703L62.257787 75.9324169C62.7611366 74.6180044 62.9844537 73.9191131 63.0961122 73.7239911L63.1510553 73.7239911C63.2910715 73.9191131 63.4594455 74.44949 63.9344374 75.9324169L65.1077382 79.2867406C65.3310553 79.9572506 65.2176244 80.0122395 64.437787 80.0122395L61.5311203 80.0122395zM64.799348 81.271663C65.5809577 81.271663 65.6642585 81.271663 65.9442911 82.0255432L67.2576081 85.8268736C67.6227138 87.0295344 67.5376407 87.1980488 66.5309415 87.3080266L65.9177057 87.3913969C65.7493317 87.5599113 65.7776894 88.0636807 66.0010065 88.2020399 66.9775756 88.1754324 68.2075919 88.1186696 69.407478 88.1186696 70.8608114 88.1186696 71.8940959 88.147051 73.0372667 88.2020399 73.2357707 88.0636807 73.2357707 87.5865188 73.0124537 87.3913969L72.5906325 87.3080266C71.1674293 87.0579157 71.027413 86.86102 70.3840472 84.9896231L66.3643398 73.2769845C65.9177057 72.0193348 65.5543724 70.7049224 65.1077382 69.4472727 64.9943073 69.3071397 64.8560634 69.2237694 64.630974 69.2237694 64.5760309 69.2237694 63.6544049 70.3678936 62.6760634 70.5647894 62.7611366 71.0401774 62.5094618 71.7106874 62.1479008 72.6047007L58.3196081 82.557694C57.7329577 84.0654545 57.2863236 85.2397339 56.951348 85.9670067 56.5330715 86.8894013 56.2246813 87.1395122 55.4147138 87.2530377L54.5763886 87.3913969C54.3814293 87.6450554 54.409787 88.0636807 54.6065187 88.2020399 55.5848602 88.147051 56.4497707 88.1186696 57.3713967 88.1186696 58.5163398 88.147051 59.4379659 88.147051 60.3312341 88.2020399 60.5545512 88.0920621 60.5829089 87.5865188 60.3861772 87.3913969L59.5762098 87.2530377C58.5429252 87.1129047 58.4312667 87.0295344 58.9895593 85.379867L60.1362748 82.0255432C60.3861772 81.271663 60.3595919 81.271663 61.0844862 81.271663L64.799348 81.271663zM81.528987 83.507051C81.528987 84.9030599 81.5839301 85.9105987 82.0057512 86.3859867 82.3389545 86.7762306 82.7855886 87.0015078 85.0223041 87.0015078 88.1203854 87.0015078 88.5687919 86.8613747 89.8502065 83.982439 90.1320114 83.8405322 90.5768732 83.9256763 90.7186618 84.1491796 90.4953447 85.3216851 89.8785642 87.4485144 89.5435886 88.2006208 88.3702878 88.1456319 85.9687431 88.1190244 82.8405317 88.1190244L79.9391821 88.1190244C78.5124341 88.1190244 77.1158163 88.1456319 75.9442878 88.2006208 75.7209707 88.090643 75.6358976 87.5318847 75.8858 87.3899778L76.7241252 87.2516186C78.0374423 87.084878 78.2891171 87.0015078 78.2891171 84.0924169L78.2891171 73.6959645C78.2891171 70.7886475 78.0374423 70.7035033 76.7241252 70.5083814L75.9442878 70.3966297C75.7475561 70.2564967 75.7475561 69.6977384 75.9974585 69.5859867 77.3940764 69.6427494 78.650678 69.669357 79.9391821 69.669357 81.1656537 69.669357 82.4222553 69.6427494 83.6504992 69.5859867 83.902174 69.6977384 83.9287593 70.2564967 83.7072146 70.3966297L83.0922065 70.5083814C81.7824341 70.7035033 81.528987 70.7886475 81.528987 73.6959645L81.528987 83.507051zM99.3459675 84.0934812C99.3459675 87.057561 99.601187 87.1409313 100.910959 87.3076718L101.524195 87.3910421C101.720927 87.5879379 101.692569 88.0917073 101.469252 88.2016851 100.241008 88.1466962 98.9844065 88.1200887 97.757935 88.1200887 96.5261463 88.1200887 95.2128293 88.1466962 93.9863577 88.2016851 93.7630407 88.0917073 93.7329106 87.5879379 93.9278699 87.3910421L94.542878 87.3076718C95.8544228 87.1409313 96.1078699 87.057561 96.1078699 84.0934812L96.1078699 73.6970288C96.1078699 70.732949 95.8544228 70.6495787 94.542878 70.4810643L93.9278699 70.397694C93.7329106 70.2025721 93.7630407 69.6988027 93.9863577 69.587051 95.2128293 69.6438137 96.4694309 69.6704213 97.757935 69.6704213 98.9844065 69.6704213 100.241008 69.6438137 101.469252 69.587051 101.692569 69.6988027 101.720927 70.2025721 101.524195 70.397694L100.910959 70.4810643C99.601187 70.6495787 99.3459675 70.732949 99.3459675 73.6970288L99.3459675 84.0934812zM115.042854 69.6705987C116.82939 69.6705987 118.396154 69.6422173 118.982805 69.5872284 118.982805 70.2027494 118.982805 72.2976497 119.035976 73.6120621 118.924317 73.8355654 118.420967 73.8923282 118.142707 73.7238137 117.864447 72.1025277 117.416041 71.2918847 116.354398 71.0133925 115.601146 70.8164967 114.902837 70.7898891 114.009569 70.7898891L112.584593 70.7898891C111.411293 70.7898891 111.411293 70.844878 111.411293 72.4094013L111.411293 77.4133925C111.411293 78.1122838 111.43965 78.1690466 112.081244 78.1690466L113.729537 78.1690466C116.159439 78.1690466 116.606073 78.1122838 116.857748 76.9397783L117.081065 75.9907761C117.249439 75.7921064 117.779374 75.7921064 117.91939 76.0156098 117.891033 76.7428825 117.834317 77.7770288 117.834317 78.8111752 117.834317 79.8453215 117.891033 80.8528603 117.91939 81.7184922 117.779374 81.9419956 117.249439 81.9419956 117.081065 81.7468736L116.857748 80.6559645C116.606073 79.4816851 116.159439 79.4266962 113.729537 79.4266962L112.081244 79.4266962C111.43965 79.4266962 111.411293 79.4816851 111.411293 80.1805765L111.411293 84.0936585C111.411293 87.0577384 111.662967 87.1411086 112.976285 87.2528603L114.147813 87.3912195C114.344545 87.5881153 114.316187 88.0918847 114.09287 88.2018625 112.304561 88.1468736 111.047959 88.1184922 109.821488 88.1184922 108.589699 88.1184922 107.333098 88.1468736 106.051683 88.2018625 105.826593 88.0918847 105.798236 87.5881153 105.99674 87.3912195L106.608203 87.3078492C107.92152 87.1411086 108.171423 87.0577384 108.171423 84.0936585L108.171423 73.69898C108.171423 70.7331264 107.92152 70.6497561 106.608203 70.4528603L106.24487 70.3978714C106.051683 70.2027494 106.076496 69.69898 106.299813 69.5872284 107.278154 69.6422173 108.534756 69.6705987 109.763 69.6705987L115.042854 69.6705987zM132.721413 70.3411086C137.161169 70.3411086 139.061137 75.2333481 139.061137 79.4550776 139.061137 85.072816 136.491218 87.4479823 133.308063 87.4479823 128.531559 87.4479823 126.883267 82.1938803 126.883267 78.3357871 126.883267 72.38102 129.928177 70.3411086 132.721413 70.3411086M133.084746 69.223592C127.220015 69.223592 123.086876 73.4435477 123.086876 79.1464302 123.086876 84.1220399 126.716665 88.5654989 133.028031 88.5654989 138.671218 88.5654989 142.859299 84.4572949 142.859299 78.9513082 142.859299 73.8639468 139.536128 69.223592 133.084746 69.223592M150.540166 72.0750333C150.540166 70.7890022 150.570296 70.7038581 152.020085 70.7038581 154.449987 70.7038581 155.874963 72.6337916 155.874963 74.8422173 155.874963 77.4976497 154.616589 78.8386696 151.880068 78.8386696 150.540166 78.8386696 150.540166 78.7819069 150.540166 77.8878936L150.540166 72.0750333zM147.300296 84.0927716C147.300296 87.0568514 147.048621 87.1402217 145.735304 87.3087361L145.120296 87.3921064C144.870393 87.5872284 144.955467 88.0909978 145.178784 88.2027494 146.461971 88.1459867 147.718572 88.1193792 148.950361 88.1193792 150.176833 88.1193792 151.433434 88.1459867 152.661678 88.2027494 152.884995 88.0909978 152.913353 87.5872284 152.718393 87.3921064L152.103385 87.3087361C150.793613 87.1402217 150.540166 87.0568514 150.540166 84.0927716L150.540166 80.5167184C150.540166 79.9295787 150.570296 79.9011973 151.405076 79.9011973 152.326702 79.9011973 152.636865 80.012949 153.13667 80.8519734 153.808393 81.9411086 154.588231 83.4790244 155.343255 84.6533038 157.046491 87.2537472 158.498052 88.3428825 161.179629 88.3428825 162.159743 88.3428825 162.687906 88.2595122 163.022881 88.1743681 163.107954 88.0360089 163.107954 87.7273614 162.967938 87.6173836 162.632963 87.5872284 161.822995 87.4204878 161.041385 86.748204 159.729841 85.6590687 158.33145 83.2821286 156.100052 79.5091796 155.984849 79.342439 155.929906 79.1189357 156.100052 79.0355654 157.464767 78.4750333 159.446263 77.1907761 159.446263 74.6169401 159.446263 72.6054102 158.412979 71.2909978 156.99332 70.5371175 155.761532 69.8648337 153.863337 69.5881153 151.685109 69.5881153 149.395223 69.5881153 147.022036 69.6697118 145.260312 69.8382262 145.038767 69.9783592 145.038767 70.4253659 145.233727 70.6222616L145.958621 70.7038581C147.271938 70.845765 147.300296 71.1792461 147.300296 73.8648337L147.300296 84.0927716zM183.160941 83.3667406C183.160941 84.205765 183.160941 87.643459 183.244242 88.2855876 183.020925 88.5924612 182.629234 88.7059867 182.294259 88.6776053 181.847624 88.0904656 181.037657 87.1396896 179.026031 84.8478936L172.489576 77.3853659C170.676454 75.3472284 169.781413 74.2829268 169.309966 73.8643016 169.226665 73.8643016 169.226665 74.1694013 169.226665 75.6505543L169.226665 81.1033259C169.226665 83.1982262 169.251478 85.7702882 169.72647 86.6093126 169.979917 87.0279379 170.453137 87.1964523 171.153218 87.308204L171.764681 87.3915743C172.016356 87.5866962 171.987998 88.118847 171.709738 88.2022173 170.676454 88.1454545 169.586454 88.118847 168.524811 88.118847 167.351511 88.118847 166.598259 88.1454545 165.621689 88.2022173 165.400145 88.0620843 165.341657 87.5866962 165.564974 87.3915743L166.179982 87.2514412C166.709917 87.168071 167.213267 87.0563193 167.408226 86.6093126 167.769787 85.7419069 167.769787 83.3117517 167.769787 81.1033259L167.769787 74.4780488C167.769787 72.2980044 167.799917 71.8509978 166.849933 71.0403548 166.541543 70.7884701 165.763478 70.5631929 165.370015 70.4798226L164.953511 70.3964523C164.755007 70.2297118 164.783364 69.6691796 165.061624 69.5858093 166.125039 69.697561 167.659901 69.6691796 168.35821 69.6691796 168.94486 69.6691796 169.614811 69.6425721 170.284763 69.5858093 170.759754 70.7884701 173.806437 74.313082 174.783007 75.3720621L177.576242 78.3911308C178.747771 79.6771619 181.34782 82.6394678 181.624307 82.8079823 181.70938 82.724612 181.70938 82.5844789 181.70938 82.1374723L181.70938 76.6847007C181.70938 74.5898004 181.67925 72.021286 181.177673 71.178714 180.925998 70.7600887 180.477592 70.5933481 179.781055 70.4798226L179.139462 70.3964523C178.887787 70.2013304 178.914372 69.6691796 179.196177 69.5858093 180.282633 69.6425721 181.315917 69.6691796 182.405917 69.6691796 183.607576 69.6691796 184.33247 69.6425721 185.339169 69.5858093 185.560714 69.7259424 185.620974 70.2013304 185.394112 70.3964523L184.748974 70.5365854C184.224356 70.6199557 183.74582 70.7317073 183.55086 71.178714 183.160941 72.0461197 183.160941 74.4780488 183.160941 76.6847007L183.160941 83.3667406zM194.442353 84.0934812C194.442353 87.057561 194.697572 87.1409313 196.007345 87.3076718L196.62058 87.3910421C196.817312 87.5879379 196.788954 88.0917073 196.565637 88.2016851 195.337393 88.1466962 194.080792 88.1200887 192.85432 88.1200887 191.622532 88.1200887 190.309215 88.1466962 189.082743 88.2016851 188.859426 88.0917073 188.829296 87.5879379 189.024255 87.3910421L189.639263 87.3076718C190.950808 87.1409313 191.204255 87.057561 191.204255 84.0934812L191.204255 73.6970288C191.204255 70.732949 190.950808 70.6495787 189.639263 70.4810643L189.024255 70.397694C188.829296 70.2025721 188.859426 69.6988027 189.082743 69.587051 190.309215 69.6438137 191.565816 69.6704213 192.85432 69.6704213 194.080792 69.6704213 195.337393 69.6438137 196.565637 69.587051 196.788954 69.6988027 196.817312 70.2025721 196.62058 70.397694L196.007345 70.4810643C194.697572 70.6495787 194.442353 70.732949 194.442353 73.6970288L194.442353 84.0934812zM206.201592 80.0122395C205.529868 80.0122395 205.446567 80.0122395 205.753185 79.2033703L206.926486 75.9324169C207.429836 74.6180044 207.653153 73.9191131 207.764811 73.7239911L207.821527 73.7239911C207.959771 73.9191131 208.128145 74.44949 208.601364 75.9324169L209.77821 79.2867406C210.001527 79.9572506 209.888096 80.0122395 209.108259 80.0122395L206.201592 80.0122395zM209.471592 81.271663C210.249657 81.271663 210.33473 81.271663 210.614763 82.0255432L211.92808 85.8268736C212.291413 87.0295344 212.20634 87.1980488 211.199641 87.3080266L210.588177 87.3913969C210.418031 87.5599113 210.448161 88.0636807 210.669706 88.2020399 211.646275 88.1754324 212.878063 88.1186696 214.076177 88.1186696 215.529511 88.1186696 216.564567 88.147051 217.707738 88.2020399 217.906242 88.0636807 217.906242 87.5865188 217.682925 87.3913969L217.261104 87.3080266C215.837901 87.0579157 215.696112 86.86102 215.054519 84.9896231L211.034811 73.2769845C210.588177 72.0193348 210.224844 70.7049224 209.77821 69.4472727 209.664779 69.3071397 209.524763 69.2237694 209.301446 69.2237694 209.24473 69.2237694 208.323104 70.3678936 207.346535 70.5647894 207.429836 71.0401774 207.178161 71.7106874 206.818372 72.6047007L202.99008 82.557694C202.403429 84.0654545 201.955023 85.2397339 201.620047 85.9670067 201.201771 86.8894013 200.895153 87.1395122 200.085185 87.2530377L199.24686 87.3913969C199.051901 87.6450554 199.080259 88.0636807 199.275218 88.2020399 200.255332 88.147051 201.11847 88.1186696 202.038324 88.1186696 203.185039 88.147051 204.104893 88.147051 204.999933 88.2020399 205.221478 88.0920621 205.251608 87.5865188 205.056649 87.3913969L204.244909 87.2530377C203.213397 87.1129047 203.101738 87.0295344 203.658259 85.379867L204.804974 82.0255432C205.056649 81.271663 205.028291 81.271663 205.753185 81.271663L209.471592 81.271663z"/>
  </g>
</svg>
