<svg xmlns="http://www.w3.org/2000/svg" width="330" height="84" viewBox="0 0 330 84">
  <g fill="#002F54" fill-rule="evenodd">
    <polyline points="94.489 35.694 90.935 48.814 87.162 48.814 84.802 40.267 82.496 48.814 78.732 48.814 75.178 35.694 78.73 35.694 80.755 44.726 83.189 35.694 86.583 35.694 88.894 44.726 91.019 35.694 94.489 35.694"/>
    <path d="M102.283766 46.2761907C102.490089 46.0246674 102.645349 45.7200218 102.748658 45.3643085 102.851968 45.0094756 102.903623 44.5178751 102.903623 43.8889199 102.903623 43.3072171 102.850787 42.8197255 102.74364 42.4258581 102.63797 42.0331647 102.490089 41.7179534 102.300886 41.4825721 102.111682 41.2427885 101.884696 41.0716821 101.618453 40.9716011 101.353095 40.872694 101.065894 40.8230937 100.759803 40.8230937 100.451646 40.8230937 100.179794 40.8633022 99.9395259 40.9460672 99.6998479 41.0285387 99.4713864 41.1926012 99.253551 41.4391352 99.0578533 41.6686466 98.9034794 41.9829774 98.7874776 42.3815407 98.6726565 42.781278 98.6148032 43.2837377 98.6148032 43.8889199 98.6148032 44.4295338 98.6638014 44.8976549 98.7659302 45.2929897 98.8651073 45.6906725 99.013873 46.0094057 99.2086852 46.2497764 99.3975939 46.4795813 99.6233989 46.6462852 99.8869857 46.7528231 100.149392 46.8581871 100.448989 46.9121897 100.786073 46.9121897 101.075635 46.9121897 101.352209 46.8631764 101.614911 46.7660303 101.876726 46.6688842 102.10017 46.5054087 102.283766 46.2761907zM106.209821 43.8704299C106.209821 45.4984347 105.732236 46.7804114 104.778542 47.7175341 103.823962 48.6543633 102.484481 49.1224843 100.759803 49.1224843 99.0345349 49.1224843 97.6947585 48.6543633 96.7401789 47.7175341 95.7864848 46.7804114 95.309195 45.4984347 95.309195 43.8704299 95.309195 42.2312724 95.788551 40.9460672 96.7493292 40.0118795 97.7098122 39.0776917 99.0463417 38.6110381 100.759803 38.6110381 102.497174 38.6110381 103.838721 39.0803332 104.786512 40.0206843 105.734597 40.9598614 106.209821 42.2438926 106.209821 43.8704299L106.209821 43.8704299zM115.709275 41.9407144L115.426503 41.9407144C115.290134 41.8946361 115.072594 41.8600039 114.772996 41.836231 114.472513 41.8124581 114.220438 41.8013053 114.020018 41.8013053 113.566637 41.8013053 113.165501 41.8297742 112.818086 41.8890597 112.470671 41.9480518 112.095805 42.0472523 111.69585 42.1881289L111.69585 48.8143169 108.495912 48.8143169 108.495912 38.9183251 111.69585 38.9183251 111.69585 40.3728757C112.396878 39.7735633 113.006699 39.3758805 113.525313 39.1795338 114.044517 38.9826001 114.521512 38.8833995 114.957478 38.8833995 115.069347 38.8833995 115.197156 38.8869214 115.337657 38.8924978 115.479633 38.8989546 115.604195 38.9071724 115.709275 38.9183251L115.709275 41.9407144"/>
    <polygon points="117.517 48.814 120.717 48.814 120.717 35.104 117.517 35.104"/>
    <path d="M130.200054,46.0904098 L130.200054,41.2284073 C129.975134,41.1339026 129.739884,41.0661058 129.492236,41.0256038 C129.244293,40.9836343 129.018193,40.9639703 128.810394,40.9639703 C127.973587,40.9639703 127.346351,41.2240049 126.927504,41.7443677 C126.509249,42.265024 126.299383,42.9876034 126.299383,43.9112254 C126.299383,44.8823932 126.467925,45.5858956 126.804714,46.0246674 C127.140027,46.4634392 127.678712,46.6823848 128.42195,46.6823848 C128.711807,46.6823848 129.016717,46.6275017 129.34229,46.5186158 C129.666091,46.410317 129.951816,46.2670925 130.200054,46.0904098 Z M133.398515,48.8143169 L130.200054,48.8143169 L130.200054,47.7838635 C129.649857,48.2296791 129.136852,48.5595651 128.659562,48.7705864 C128.180796,48.9813143 127.628828,49.0878522 127.003953,49.0878522 C125.794052,49.0878522 124.825894,48.62384 124.100367,47.6961091 C123.375429,46.7669108 123.012075,45.5160443 123.012075,43.9411617 C123.012075,43.1020656 123.134866,42.3571808 123.380447,41.7082681 C123.624553,41.0590619 123.95898,40.502306 124.38432,40.0377068 C124.785456,39.5974676 125.272191,39.2552549 125.845411,39.0119494 C126.417156,38.7674698 126.9889,38.6459638 127.561825,38.6459638 C128.156887,38.6459638 128.645689,38.7087712 129.026458,38.8352667 C129.407227,38.9617621 129.797442,39.1217157 130.200054,39.3160079 L130.200054,35.1035051 L133.398515,35.1035051 L133.398515,48.8143169 L133.398515,48.8143169 Z"/>
    <polyline points="152.703 38.232 146.631 38.232 146.631 40.672 152.259 40.672 152.259 43.21 146.631 43.21 146.631 48.814 143.246 48.814 143.246 35.694 152.703 35.694 152.703 38.232"/>
    <path d="M161.121762 46.2761907C161.328086 46.0246674 161.48364 45.7200218 161.58695 45.3643085 161.689669 45.0094756 161.741324 44.5178751 161.741324 43.8889199 161.741324 43.3072171 161.687898 42.8197255 161.582818 42.4258581 161.475671 42.0331647 161.328086 41.7179534 161.138292 41.4825721 160.949383 41.2427885 160.722692 41.0716821 160.457039 40.9716011 160.190796 40.872694 159.904776 40.8230937 159.596914 40.8230937 159.289052 40.8230937 159.016315 40.8633022 158.777522 40.9460672 158.538435 41.0285387 158.309383 41.1926012 158.090367 41.4391352 157.894964 41.6686466 157.741181 41.9829774 157.625179 42.3815407 157.510063 42.781278 157.452209 43.2837377 157.452209 43.8889199 157.452209 44.4295338 157.502979 44.8976549 157.603336 45.2929897 157.703694 45.6906725 157.851279 46.0094057 158.046091 46.2497764 158.235295 46.4795813 158.4611 46.6462852 158.724097 46.7528231 158.986798 46.8581871 159.287281 46.9121897 159.623479 46.9121897 159.913336 46.9121897 160.190206 46.8631764 160.452907 46.7660303 160.715903 46.6688842 160.937871 46.5054087 161.121762 46.2761907zM165.047818 43.8704299C165.047818 45.4984347 164.569642 46.7804114 163.616243 47.7175341 162.662254 48.6543633 161.321887 49.1224843 159.596914 49.1224843 157.872531 49.1224843 156.532755 48.6543633 155.577585 47.7175341 154.623596 46.7804114 154.147191 45.4984347 154.147191 43.8704299 154.147191 42.2312724 154.626252 40.9460672 155.586735 40.0118795 156.547218 39.0776917 157.884043 38.6110381 159.596914 38.6110381 161.333989 38.6110381 162.676422 39.0803332 163.624803 40.0206843 164.573184 40.9598614 165.047818 42.2438926 165.047818 43.8704299L165.047818 43.8704299zM173.582361 46.2761907C173.788095 46.0246674 173.943059 45.7200218 174.047549 45.3643085 174.150268 45.0094756 174.201923 44.5178751 174.201923 43.8889199 174.201923 43.3072171 174.147907 42.8197255 174.043417 42.4258581 173.93568 42.0331647 173.788095 41.7179534 173.598891 41.4825721 173.409982 41.2427885 173.183292 41.0716821 172.915868 40.9716011 172.6511 40.872694 172.363605 40.8230937 172.057513 40.8230937 171.749651 40.8230937 171.476914 40.8633022 171.237531 40.9460672 170.999034 41.0285387 170.769392 41.1926012 170.550376 41.4391352 170.356154 41.6686466 170.20178 41.9829774 170.085188 42.3815407 169.970367 42.781278 169.913399 43.2837377 169.913399 43.8889199 169.913399 44.4295338 169.962987 44.8976549 170.062755 45.2929897 170.164293 45.6906725 170.311878 46.0094057 170.506691 46.2497764 170.695009 46.4795813 170.921699 46.6462852 171.184696 46.7528231 171.446216 46.8581871 171.746699 46.9121897 172.084079 46.9121897 172.373936 46.9121897 172.649034 46.8631764 172.911735 46.7660303 173.174732 46.6688842 173.39847 46.5054087 173.582361 46.2761907zM177.507236 43.8704299C177.507236 45.4984347 177.030832 46.7804114 176.075072 47.7175341 175.122558 48.6543633 173.783372 49.1224843 172.057513 49.1224843 170.33254 49.1224843 168.993354 48.6543633 168.037889 47.7175341 167.083309 46.7804114 166.60661 45.4984347 166.60661 43.8704299 166.60661 42.2312724 167.086852 40.9460672 168.047335 40.0118795 169.007227 39.0776917 170.343462 38.6110381 172.057513 38.6110381 173.794293 38.6110381 175.137021 39.0803332 176.085403 40.0206843 177.033784 40.9598614 177.507236 42.2438926 177.507236 43.8704299L177.507236 43.8704299zM186.271717 46.0904098L186.271717 41.2284073C186.048569 41.1339026 185.812728 41.0661058 185.564785 41.0256038 185.317138 40.9836343 185.089857 40.9639703 184.884714 40.9639703 184.045841 40.9639703 183.419195 41.2240049 183.000054 41.7443677 182.582093 42.265024 182.373408 42.9876034 182.373408 43.9112254 182.373408 44.8823932 182.540474 45.5858956 182.877263 46.0246674 183.212281 46.4634392 183.751852 46.6823848 184.494794 46.6823848 184.782585 46.6823848 185.089857 46.6275017 185.413953 46.5186158 185.738936 46.410317 186.023775 46.2670925 186.271717 46.0904098zM189.47136 48.8143169L186.271717 48.8143169 186.271717 47.7838635C185.723882 48.2296791 185.209106 48.5595651 184.732406 48.7705864 184.253936 48.9813143 183.702853 49.0878522 183.076798 49.0878522 181.867191 49.0878522 180.899329 48.62384 180.173506 47.6961091 179.447683 46.7669108 179.084919 45.5160443 179.084919 43.9411617 179.084919 43.1020656 179.20712 42.3571808 179.451521 41.7082681 179.697692 41.0590619 180.03153 40.502306 180.457755 40.0377068 180.858301 39.5974676 181.345036 39.2552549 181.91678 39.0119494 182.489705 38.7674698 183.062335 38.6459638 183.632898 38.6459638 184.231503 38.6459638 184.719123 38.7087712 185.099007 38.8352667 185.478891 38.9617621 185.870877 39.1217157 186.271717 39.3160079L186.271717 35.1035051 189.47136 35.1035051 189.47136 48.8143169 189.47136 48.8143169zM206.9711 39.7932273C206.9711 39.4243068 206.871333 39.1055736 206.670617 38.8393756 206.470197 38.5725906 206.237308 38.3859291 205.970769 38.2805652 205.61568 38.1399821 205.270921 38.0616195 204.934132 38.0478254 204.597639 38.0340312 204.147209 38.0252264 203.586977 38.0252264L203.00195 38.0252264 203.00195 41.9465843 203.97542 41.9465843C204.55602 41.9465843 205.031834 41.9116587 205.407585 41.8415139 205.782451 41.7710756 206.097692 41.630786 206.351243 41.4197646 206.57085 41.2316357 206.72847 41.0077007 206.826467 40.747666 206.923283 40.4861639 206.9711 40.1674307 206.9711 39.7932273zM210.490116 39.7177996C210.490116 40.3044918 210.386216 40.8794443 210.181073 41.4406026 209.972979 42.0008805 209.677809 42.473404 209.293792 42.8540642 208.768095 43.3717856 208.181592 43.7615441 207.535465 44.0265681 206.887567 44.2912986 206.083229 44.4230769 205.118614 44.4230769L203.00195 44.4230769 203.00195 48.6963327 199.599231 48.6963327 199.599231 35.5760286 205.200081 35.5760286C206.038953 35.5760286 206.74559 35.6479344 207.322648 35.7923328 207.898524 35.9355574 208.408283 36.1515681 208.851038 36.4394846 209.382639 36.7860996 209.788497 37.2289803 210.069204 37.7704746 210.349911 38.3105015 210.490116 38.9597076 210.490116 39.7177996L210.490116 39.7177996zM219.592567 41.8236108L219.310089 41.8236108C219.174606 41.7766519 218.955295 41.7411393 218.655107 41.7179534 218.353444 41.6941805 218.104025 41.6821472 217.903309 41.6821472 217.450224 41.6821472 217.048792 41.71179 216.701377 41.7701951 216.353077 41.8288937 215.978801 41.9295617 215.577665 42.0701448L215.577665 48.6963327 212.379204 48.6963327 212.379204 38.800928 215.577665 38.800928 215.577665 40.255772C216.280465 39.6561661 216.889106 39.2578964 217.408014 39.0609627 217.927513 38.8646159 218.404213 38.7660023 218.84254 38.7660023 218.952639 38.7660023 219.078676 38.7689373 219.220063 38.7745136 219.362925 38.7809705 219.485716 38.7891883 219.592567 38.800928L219.592567 41.8236108M227.303292 46.1587936C227.509615 45.9066833 227.66517 45.6026247 227.76966 45.2472048 227.872084 44.8914915 227.924034 44.3995975 227.924034 43.7709358 227.924034 43.1901135 227.871199 42.7023284 227.763757 42.308461 227.657791 41.9148871 227.509615 41.6005562 227.321002 41.365175 227.130912 41.1248043 226.904812 40.954285 226.63975 40.8544974 226.372621 40.7544164 226.086306 40.7042291 225.779034 40.7042291 225.471762 40.7042291 225.199615 40.7461986 224.959642 40.8277896 224.721735 40.9096741 224.490912 41.0746171 224.271896 41.3211511 224.077084 41.5494885 223.923301 41.8646998 223.807299 42.2638501 223.691887 42.6632938 223.634919 43.1657536 223.634919 43.7709358 223.634919 44.3112561 223.685098 44.7796707 223.784866 45.1773535 223.886404 45.5726884 224.033399 45.8920086 224.228211 46.1320858 224.41712 46.3615972 224.64322 46.5291816 224.906216 46.6351325 225.168918 46.7402029 225.469401 46.7930316 225.805304 46.7930316 226.095456 46.7930316 226.37203 46.7448988 226.635027 46.6477527 226.898023 46.551487 227.120581 46.3880115 227.303292 46.1587936zM231.229642 43.7533263C231.229642 45.3813311 230.751762 46.6633078 229.798953 47.59955 228.844079 48.5372596 227.503712 49.0053807 225.779034 49.0053807 224.054061 49.0053807 222.714875 48.5372596 221.76 47.59955 220.806011 46.6633078 220.329311 45.3813311 220.329311 43.7533263 220.329311 42.1141687 220.808962 40.8277896 221.768855 39.8938953 222.729338 38.9597076 224.066163 38.4927605 225.779034 38.4927605 227.515814 38.4927605 228.858542 38.9632295 229.806923 39.9021131 230.755304 40.8424642 231.229642 42.1267889 231.229642 43.7533263L231.229642 43.7533263zM239.64966 45.5782648L239.64966 41.0919331C239.46636 41.0159185 239.24144 40.9557525 238.977263 40.9117285 238.7122 40.8677046 238.472818 40.8453992 238.261476 40.8453992 237.423193 40.8453992 236.795367 41.0848893 236.377996 41.5635761 235.959445 42.04285 235.748399 42.7108397 235.748399 43.5672518 235.748399 44.5196361 235.927567 45.1835169 236.285018 45.5591877 236.641288 45.9360325 237.170528 46.123868 237.872147 46.123868 238.19034 46.123868 238.502925 46.0733872 238.808426 45.9741866 239.115698 45.8746925 239.395814 45.7423273 239.64966 45.5782648zM242.848712 47.5605154C242.848712 48.4882463 242.71559 49.2701112 242.449052 49.9037623 242.183399 50.5388808 241.812075 51.0357642 241.332424 51.3932385 240.853953 51.7574631 240.277487 52.0192587 239.600662 52.1815603 238.924428 52.3435683 238.159937 52.4245723 237.308962 52.4245723 236.618265 52.4245723 235.937603 52.3840703 235.266977 52.3010119 234.596055 52.2179534 234.016637 52.1184593 233.526064 52.0013557L233.526064 49.5251565 233.915098 49.5251565C234.304132 49.6774793 234.779356 49.8171819 235.339589 49.9442643 235.900116 50.0698792 236.4022 50.1326867 236.844955 50.1326867 237.433524 50.1326867 237.913175 50.079271 238.282138 49.9700917 238.65051 49.8612058 238.932397 49.7074156 239.126029 49.50696 239.309329 49.3188311 239.443336 49.0778734 239.525689 48.7846741 239.608041 48.4911812 239.64966 48.1386963 239.64966 47.7272194L239.64966 47.5429059C239.266234 47.8540083 238.840304 48.0999553 238.374231 48.2828013 237.908453 48.4644734 237.389249 48.5551627 236.816619 48.5551627 235.424302 48.5551627 234.350474 48.1386963 233.593953 47.3048832 232.839499 46.470483 232.462272 45.2011265 232.462272 43.497694 232.462272 42.6814904 232.577683 41.9765206 232.80703 41.3833715 233.037558 40.789342 233.361655 40.2725011 233.780796 39.8322619 234.17042 39.4213719 234.650662 39.1002907 235.217979 38.8713663 235.788837 38.6424419 236.370912 38.5285666 236.965975 38.5285666 237.503775 38.5285666 237.992871 38.5913741 238.432084 38.7178695 238.871887 38.8440714 239.270957 39.0189932 239.631655 39.2426347L239.746476 38.800928 242.848712 38.800928 242.848712 47.5605154 242.848712 47.5605154zM252.730411 41.8236108L252.448524 41.8236108C252.31186 41.7766519 252.094025 41.7411393 251.792361 41.7179534 251.492174 41.6941805 251.241869 41.6821472 251.040859 41.6821472 250.588068 41.6821472 250.186932 41.71179 249.840403 41.7701951 249.490626 41.8288937 249.117531 41.9295617 248.715805 42.0701448L248.715805 48.6963327 245.517343 48.6963327 245.517343 38.800928 248.715805 38.800928 248.715805 40.255772C249.418014 39.6561661 250.027835 39.2578964 250.546744 39.0609627 251.063882 38.8646159 251.543533 38.7660023 251.978614 38.7660023 252.090483 38.7660023 252.217996 38.7689373 252.359678 38.7745136 252.501064 38.7809705 252.624445 38.7891883 252.730411 38.800928L252.730411 41.8236108M260.219168 46.1091933L260.219168 44.0529824C259.787335 44.0887886 259.321556 44.1363344 258.820063 44.1976744 258.316798 44.2593079 257.935733 44.3312137 257.676279 44.4133917 257.356905 44.5134727 257.112504 44.6572842 256.944848 44.8480546 256.775716 45.0382379 256.692182 45.2888808 256.692182 45.5991028 256.692182 45.8036673 256.710778 45.9703712 256.745313 46.0995081 256.781029 46.2289384 256.869875 46.3519119 257.011556 46.4690155 257.14822 46.5855322 257.310268 46.6715256 257.499177 46.7275827 257.688971 46.7827594 257.982961 46.8106412 258.385277 46.8106412 258.704061 46.8106412 259.028157 46.7454858 259.356091 46.6178164 259.682549 46.4892665 259.971225 46.3193342 260.219168 46.1091933zM260.219168 47.6485633C260.04856 47.7777001 259.835447 47.9326644 259.581601 48.1149234 259.32805 48.2980629 259.088667 48.4415809 258.864043 48.5469449 258.550868 48.6878214 258.22559 48.7928919 257.889097 48.8598083 257.552308 48.9270181 257.182165 48.9610633 256.781029 48.9610633 255.83619 48.9610633 255.043953 48.6699184 254.407567 48.0888025 253.768229 47.5073932 253.448855 46.7639758 253.448855 45.8597244 253.448855 45.136558 253.612084 44.5463439 253.936476 44.0887886 254.261753 43.6303528 254.723399 43.2684761 255.319642 43.004039 255.909982 42.740189 256.642594 42.55206 257.516592 42.4402393 258.39059 42.329299 259.297943 42.2468275 260.238354 42.1939988L260.238354 42.1405831C260.238354 41.5943929 260.013435 41.2169611 259.563891 41.0085812 259.114642 40.8002013 258.452871 40.6957178 257.579463 40.6957178 257.053175 40.6957178 256.492057 40.788168 255.895519 40.9730685 255.298095 41.1582625 254.870984 41.3009 254.609758 41.4006876L254.318131 41.4006876 254.318131 39.0128298C254.653739 38.9239015 255.20246 38.8202985 255.961637 38.70026 256.720519 38.5793409 257.482057 38.5194684 258.243005 38.5194684 260.056825 38.5194684 261.368265 38.7968191 262.174079 39.3524011 262.980188 39.9076895 263.383095 40.7776023 263.383095 41.9644874L263.383095 48.6963327 260.219168 48.6963327 260.219168 47.6485633 260.219168 47.6485633zM275.694633 41.6821472L275.694633 48.6963327 272.494401 48.6963327 272.494401 43.7533263C272.494401 43.2717045 272.482889 42.861695 272.459866 42.5244717 272.435662 42.1866614 272.37161 41.9116587 272.264463 41.7006373 272.158497 41.4887355 271.99763 41.3343582 271.78186 41.2380926 271.566386 41.1403595 271.262361 41.0919331 270.872737 41.0919331 270.559857 41.0919331 270.254651 41.1553276 269.960072 41.281236 269.664902 41.4086119 269.398658 41.5418577 269.161932 41.6821472L269.161932 48.6963327 265.964061 48.6963327 265.964061 38.800928 269.161932 38.800928 269.161932 39.8938953C269.711243 39.4648088 270.237531 39.1299335 270.738435 38.8889758 271.239338 38.6486052 271.794553 38.5285666 272.402308 38.5285666 273.056699 38.5285666 273.634937 38.6738456 274.135841 38.964697 274.637335 39.2552549 275.031091 39.6819935 275.313569 40.2457933 275.951136 39.7119298 276.570993 39.2913545 277.172254 38.986122 277.773515 38.6808894 278.364445 38.5285666 278.942093 38.5285666 280.016807 38.5285666 280.831771 38.8484738 281.390528 39.4885817 281.946923 40.1283961 282.225859 41.0514311 282.225859 42.2553388L282.225859 48.6963327 279.026216 48.6963327 279.026216 43.7533263C279.026216 43.2655411 279.015886 42.8540642 278.995814 42.5194823 278.974267 42.185194 278.91051 41.9116587 278.805429 41.7006373 278.704481 41.4887355 278.543614 41.3343582 278.325778 41.2380926 278.106762 41.1403595 277.800671 41.0919331 277.405733 41.0919331 277.138309 41.0919331 276.878265 41.1374245 276.624419 41.2284073 276.370868 41.3205641 276.060644 41.4714194 275.694633 41.6821472M302.581664 44.1557049C302.581664 45.7170869 302.103488 46.9127767 301.150089 47.7433615 300.193739 48.5748267 298.785778 48.9898256 296.926208 48.9898256 295.068703 48.9898256 293.660152 48.5748267 292.707934 47.7433615 291.75483 46.9127767 291.280492 45.7185543 291.280492 44.1648032L291.280492 36.0984459 294.573408 36.0984459 294.573408 43.9784353C294.573408 44.8545114 294.757299 45.506946 295.128032 45.9366195 295.497585 46.36688 296.09678 46.5817168 296.926208 46.5817168 297.74678 46.5817168 298.343023 46.3753913 298.720841 45.9615664 299.098658 45.5489155 299.290519 44.8879696 299.290519 43.9784353L299.290519 36.0984459 302.581664 36.0984459 302.581664 44.1557049M315.811181 44.7579523C315.811181 46.0023619 315.282826 47.0113903 314.223166 47.7879724 313.160555 48.5663154 311.720125 48.9569544 309.898927 48.9569544 308.848122 48.9569544 307.930143 48.8627432 307.150894 48.6790167 306.368694 48.4949966 305.636673 48.2631373 304.95483 47.9807972L304.95483 44.9528315 305.311986 44.9528315C305.987925 45.4902169 306.746512 45.9031613 307.584794 46.1916648 308.423077 46.4801683 309.231843 46.6233928 310.002236 46.6233928 310.202952 46.6233928 310.462701 46.6066637 310.787388 46.572912 311.112075 46.5388668 311.377728 46.4831032 311.581395 46.4032731 311.83229 46.3014311 312.038909 46.1740552 312.198301 46.0220259 312.360644 45.8697032 312.443292 45.6431267 312.443292 45.3434705 312.443292 45.0661197 312.325224 44.8263361 312.089088 44.6252935 311.852952 44.4245444 311.507603 44.2716346 311.053041 44.1648032 310.574866 44.050928 310.070125 43.9438031 309.538819 43.844896 309.007513 43.7462824 308.505725 43.6218415 308.042308 43.4680512 306.970841 43.1243711 306.203399 42.655076 305.734079 42.0636879 305.264758 41.4728869 305.028623 40.7403287 305.028623 39.8642526 305.028623 38.6885202 305.559928 37.7270377 306.619589 36.9830333 307.6822 36.2396159 309.045886 35.8695215 310.710644 35.8695215 311.545975 35.8695215 312.372451 35.949058 313.190072 36.1095986 314.004741 36.2719002 314.710197 36.4744102 315.309392 36.7174223L315.309392 39.6268169 314.95814 39.6268169C314.447496 39.2203293 313.818784 38.8778231 313.077907 38.6039943 312.33703 38.3295785 311.578444 38.1931043 310.805098 38.1931043 310.53059 38.1931043 310.261986 38.2098334 309.990429 38.247694 309.721825 38.2837936 309.459123 38.3545254 309.208229 38.4557804 308.986852 38.5408933 308.797943 38.6682692 308.638551 38.840843 308.479159 39.0134168 308.399463 39.2109375 308.399463 39.4316441 308.399463 39.765052 308.526386 40.0195103 308.783184 40.1985409 309.039982 40.3758106 309.524061 40.5401666 310.232469 40.6875 310.698837 40.7831787 311.147496 40.8759224 311.578444 40.9669052 312.00644 41.0575945 312.466905 41.1820354 312.962791 41.3399346 313.9339 41.6563199 314.654114 42.0859934 315.117531 42.6327706 315.580948 43.1774933 315.811181 43.8874525 315.811181 44.7579523M324.73712 43.8592772L323.175671 39.3347915 321.61127 43.8592772 324.73712 43.8592772zM329.793381 48.7271495L326.407782 48.7271495 325.525224 46.1740552 320.823166 46.1740552 319.940608 48.7271495 316.637657 48.7271495 321.330859 36.0984459 325.100179 36.0984459 329.793381 48.7271495 329.793381 48.7271495zM39.5675313 20.8039468C39.9364937 20.0100486 40.2794812 19.3766911 40.772415 18.6256429 40.9917263 18.2904741 41.2367174 18.0609627 41.4557335 17.7228589 41.3488819 17.6940966 41.1962791 17.78009 41.1298658 17.8261684 40.9108497 17.983774 40.8128533 18.2417542 40.636932 18.3791089 40.2248748 18.703125 40.2363864 18.9983788 40.0173703 19.1501146 39.824034 19.2848278 39.7694275 19.3737561 39.6309928 19.5859515 39.5415564 19.729176 39.4754383 19.8439317 39.3803936 20.1218694 39.3455635 20.222244 39.2764937 20.1333156 39.1150358 20.3540222 38.9016279 20.6434062 38.8095349 20.9530411 38.7200984 21.3025911 38.6914669 21.4173468 38.4951789 21.4775129 38.368551 21.7155356 38.2011896 22.0336818 38.0916816 22.331577 38.0196601 22.7988176 37.9995886 22.9077035 37.8151073 22.9822507 37.691136 23.2830808 37.5987478 23.4952762 37.5355814 23.543996 37.4576565 23.9422658 37.4086583 24.1861583 37.2961986 24.2234319 37.1692755 24.5759168 37.0712791 24.8453432 37.0683274 25.1059649 37.0337925 25.4584498 37.0281843 25.5274206 36.9098211 25.6621338 36.8032648 25.859948 36.6246869 26.1921819 36.6273435 26.4128885 36.5582737 26.7542207 36.529347 26.8771942 36.3912075 27.0406697 36.258381 27.5680764 36.1403131 28.0382519 36.2468694 28.3475934 36.2067263 28.5797462 36.1057782 29.1787651 35.9989267 29.7008889 36.05678 30.2943314 36.0827549 30.5807804 36.1288014 30.8789691 36.1087299 31.1569069 36.0538283 32.031222 36.0048301 32.7476381 36.0107335 33.7364155 36.01339 34.2752683 36.05678 35.0119354 36.1373614 35.6224005 36.2297496 36.2989015 36.3563775 36.8289496 36.3563775 36.8289496L38.5760555 36.8289496C38.5760555 36.8289496 38.4895707 35.5537232 38.6049821 34.2092324 38.6711002 33.406823 38.8641413 32.5527588 39.0400626 31.9537399 39.2620304 31.1912455 39.3975134 30.7959107 39.8184258 29.7868823 39.8269857 29.7639898 39.8154741 29.6694851 39.705966 29.7610549 39.4724866 29.9559341 39.2794454 30.124986 39.0976208 30.3973474 38.8180948 30.8158682 38.6480769 31.1627767 38.4231574 31.5898088 38.1580948 32.0913881 38.0111002 32.5269315 37.7401342 33.1318202 37.7227191 32.6959833 37.7947406 32.2774625 37.8841771 31.8733229 37.9765653 31.4636069 38.0485868 31.1369494 38.1781664 30.7815295 38.4116458 30.1537483 38.6336136 29.6322115 39.0055277 29.0469868 39.2189356 28.7115245 39.4955098 28.4077594 39.7723792 28.158584 40.1065116 27.8548189 40.4149642 27.5880339 40.7638551 27.2927801 40.3978444 27.1037707 39.9078623 27.4964641 39.8098658 27.5164216 39.2965653 27.6167962 39.0861091 28.0925481 38.9276029 28.158584 38.7029785 28.2501537 38.5701521 28.3878019 38.4145975 28.5768113 38.2935778 28.7203293 38.2590429 28.9410359 38.1321199 29.0182245 37.918712 29.1473614 37.7661091 29.344882 37.621771 29.6207653 37.5612612 29.7325861 37.4000984 30.268504 37.2212254 30.1995332 37.5267263 28.381932 38.1725581 26.6767386 39.2100805 25.1605546 39.867424 24.1976045 40.5793739 23.3720092 41.6343113 22.6327007 41.772746 22.5352611 41.7987209 22.4891827 41.6056798 22.4979875 40.6227639 22.6153846 40.5619589 23.0623742 40.4007961 23.1055177 40.2449463 23.1427913 40.0548569 23.3262243 39.9338372 23.4436214 39.7145259 23.6587517 39.7174776 23.8392498 39.6339445 23.8964809 39.4550716 24.0197479 39.3195886 24.1488847 39.1959123 24.3666564 39.1324508 24.4784772 39.0229428 24.7276526 38.9276029 24.7851772 38.6770036 24.9284017 38.4290608 25.140597 38.3080411 25.369815 38.2186047 25.5388668 38.1840698 25.7193649 38.0657066 25.8828405 37.9390787 26.0604036 37.7631574 26.1921819 37.6102594 26.3213188 37.7256708 25.5444432 38.0946333 24.6246366 38.3481843 23.8307385 38.6885152 22.7700553 39.1035242 21.8071053 39.5675313 20.8039468M41.8332558 27.1008358C42.6721288 25.226297 43.5570483 23.8163573 44.7014222 22.1654601 44.854025 21.9503298 44.9868515 21.738428 45.1193828 21.534744 45.176941 21.4431742 45.4594186 21.0419695 45.5199284 20.9559761 45.9033542 20.3769147 46.0648122 20.1993515 46.4597496 19.6490524 46.5663059 19.4999581 46.6527907 19.379626 46.6961807 19.2076392 46.7826655 18.8836231 46.5028444 18.6658514 46.439678 18.3562165 46.3732648 18.0410051 46.4107513 17.6940966 46.5547943 17.4276051 46.6471825 17.2614881 46.7363238 17.1954523 46.8316637 16.9691693 47.0072898 16.5392023 46.94678 15.6020796 47.1516279 15.5788937 47.099678 16.0232418 47.0881664 16.5218862 47.1572361 16.9462768 47.2381127 17.4449212 47.5439088 17.7457513 47.6678801 18.2702231 48.0049642 18.210057 48.370975 18.2244382 48.6564043 18.2502655 48.9362254 18.273158 49.293381 18.1956759 49.5817621 18.0982362 49.9737478 17.963523 50.2996154 17.7228589 50.6972093 17.6283542 50.3601252 17.9520768 49.878703 18.0753438 49.4778623 18.3189429 49.3308676 18.4108061 49.1897764 18.5340731 49.09178 18.6858089 48.930322 18.9352778 48.8033989 19.173007 48.5498479 19.2848278 48.1029606 19.4770656 47.7168784 19.3852024 47.2062343 19.4797071 46.4452862 20.2595176 45.7274329 21.3199072 45.0703846 22.4319516 43.3955903 25.2494829 41.9976655 28.1670953 41.1877191 31.1598418 41.4672451 30.6380115 41.7352594 30.1337908 42.0407603 29.6407228 42.3751878 29.0901303 42.7527102 28.5512774 43.1650626 28.0094896 44.127907 26.7483508 45.0848479 25.6448178 46.151297 24.4840536 47.0131932 23.5469309 47.9589177 22.7586091 49.0138551 22.1023591 50.4061717 21.2339138 52.1240608 20.6263836 53.6347406 20.93866 53.807415 20.9788685 54.0527013 21.0246534 54.1592576 21.1364742 52.2654472 20.8726241 50.5705814 21.5321025 49.3078444 22.5379025 48.3078086 23.3318006 47.4656887 24.1400799 46.6096959 25.1863819 46.1657603 25.6935376 45.7678712 26.2467716 45.3729338 26.7856244 44.9608766 27.3503047 44.5948658 27.9463886 44.2315116 28.5424726 43.0036047 30.554953 42.0752952 32.687472 41.3922719 34.8971797 41.3722004 34.9661505 41.3692487 35.0377627 41.3488819 35.1064401 41.383712 35.0577203 41.4297585 35.0034241 41.4613417 34.9517693 42.3810912 33.466989 43.4850268 32.0338635 44.8859034 31.0709135 45.0069231 30.987855 45.1338462 30.8302493 45.168381 30.7040474 45.3183274 30.1135398 44.8658318 29.8300257 45.491297 29.0155831 45.6353399 28.8292151 45.8313327 28.7602443 45.9668157 28.5856161 46.2233184 28.1929226 46.4308229 27.4879528 46.6471825 27.2986499 46.5376744 27.7573792 46.2723166 28.2416424 46.2177102 28.7144594 46.1572004 29.2333548 46.2897317 29.6580389 46.3127549 30.208338 46.6846691 30.2570578 46.9698032 30.4146635 47.2581843 30.5035918 47.710975 30.6438814 47.981941 30.6066078 48.4258766 30.5693342 48.6162612 30.5523116 48.9648569 30.4431323 49.1697048 30.4833408 48.7372809 30.7184286 48.1549106 30.6752851 47.7139267 30.8989267 47.4051789 31.0565323 47.3157424 31.2886852 46.8892218 31.3691022 46.5116995 31.4436494 46.1917352 31.4034409 45.9467442 31.2772389 45.7534079 31.1827342 45.6037567 31.1425257 45.4334436 31.2229428 44.9723882 31.4436494 44.6580322 31.7529908 44.2890698 32.1227918 43.4301252 32.9827258 42.7296869 33.9427409 42.0782469 35.1983033 41.9052773 35.5334722 41.7497227 35.8630646 41.5997764 36.2041033 41.5277549 36.3705138 41.3488819 36.8289496 41.3488819 36.8289496L39.1064758 36.8289496C39.1064758 36.8289496 39.1005725 36.1870807 39.1209392 35.951993 39.164034 35.4847523 39.2274955 35.1381373 39.3195886 34.6620919 39.4494633 33.9800145 39.5763864 33.3610381 39.7549642 32.6989183 39.9279338 32.0541145 40.1153667 31.4492257 40.3373345 30.8302493 40.8013417 29.5403483 41.2942755 28.3047434 41.8332558 27.1008358M20.1477102 44.4697423C20.9665116 43.804981 21.57161 43.4207989 22.3904114 42.9336007 22.7218873 42.7387215 23.223381 42.5150799 23.6097585 42.3404517 25.0253936 41.7044527 26.8988372 41.2342772 28.6660197 41.2028734 28.6976029 41.2028734 28.6946512 41.2055149 28.6946512 41.2055149L41.8562791 41.2055149C41.8562791 41.2055149 41.8072809 41.2028734 41.9023256 41.2028734 42.3232379 41.2028734 42.7355903 41.3490329 42.992093 41.5867621 43.2485957 41.8303611 43.3725671 42.2028036 43.4389803 42.575246 43.4965385 42.8907508 43.4676118 43.1716234 43.3955903 43.5097272 43.3350805 43.7791536 43.2916905 43.9367593 43.1420394 44.1633358 43.0526029 44.3036253 42.9661181 44.39813 42.7990519 44.5302018 42.6260823 44.6675565 42.3810912 44.7162763 42.0986136 44.7192112 42.0696869 44.7192112 42.0062254 44.7221461 42.0091771 44.7221461 42.0121288 44.7192112 26.613703 44.7192112 26.613703 44.7192112L26.4693649 44.7192112C25.4634258 44.7162763 24.402585 44.767931 23.4052057 44.8941329 22.6413059 45.0000839 21.8774061 45.117481 21.1394812 45.3067839 20.2111717 45.5503829 19.3147406 45.8858453 18.4212612 46.2154377 18.9168515 45.5588942 19.4877102 45.0059537 20.1477102 44.4697423"/>
    <path d="M24.716941 39.2652337C25.5268873 38.6835309 26.5068515 38.207779 27.3773077 37.8752516 27.8185868 37.7088411 28.4065653 37.5254081 28.8705725 37.4109459 29.432576 37.2674279 30.0813596 37.1644119 30.6088283 37.1470958 30.7673345 37.1441609 30.6318515 37.1470958 30.6318515 37.1470958L41.9197406 37.1441609C41.9197406 37.1441609 42.16178 37.158542 42.2456082 37.1729232 42.4587209 37.2187081 42.6287388 37.3076364 42.7010555 37.3507799 42.8766816 37.4623071 43.0956977 37.6973949 43.2111091 37.8837629 43.5050984 38.3624497 43.5570483 38.8810515 43.4590519 39.4199044 43.3524955 40.0362394 42.882585 40.7356328 42.2426565 40.7526554 42.1331485 40.7585253 41.9111807 40.7526554 41.9111807 40.7526554L29.6834705 40.7526554C29.6834705 40.7526554 28.9715206 40.7670366 28.645653 40.7784828 28.0461628 40.8043102 27.3773077 40.870346 26.8527907 40.9475347 26.4059034 41.0135706 25.9649195 41.096629 25.5153757 41.2169611 24.0076476 41.6211007 22.698864 42.3803667 21.3295707 42.9738093 22.2519767 41.3689904 23.5002504 40.1421903 24.716941 39.2652337M18.4008945 46.8916452C20.3640698 45.7396858 22.7304472 45.2838914 24.8928623 45.2122792 24.944517 45.2122792 25.0484168 45.2064093 25.0484168 45.2064093L41.9226923 45.2093443C41.9226923 45.2093443 41.9542755 45.2093443 42.1071735 45.2064093 43.127576 45.2064093 43.5021467 46.2154377 43.4994902 47.0322283 43.4965385 47.2987198 43.4475403 47.5740161 43.3755188 47.7574491 43.2775224 47.9981133 43.1706708 48.1959274 42.9950447 48.3849368 42.9315832 48.4539076 42.7066637 48.6115133 42.6057156 48.6373407 42.3722361 48.6916369 42.0841503 48.6860605 42.0868068 48.6860605 42.0868068 48.6860605 29.5335242 48.6887019 29.5335242 48.6860605 29.5335242 48.6860605 28.8561091 48.6602331 28.3861986 48.6144482 28.0491145 48.582751 27.7896601 48.5454774 27.4378175 48.479735 26.5762165 48.3077482 25.8583631 48.0268756 25.1089267 47.8002991 24.6100894 47.6456284 24.0852773 47.5308727 23.5347853 47.4478142 22.5288462 47.2957849 21.4275671 47.2271076 20.4101163 47.3016547 19.1157961 47.3990944 17.965814 47.6512047 16.7349553 48.0383218 16.9424597 47.7172406 17.8073077 47.2414887 18.4008945 46.8916452"/>
    <path d="M27.4927191 52.1539719C26.9162522 51.9505814 26.3542487 51.6926012 25.8468515 51.3600738 25.1895081 50.9271718 24.8668873 50.5834917 24.0162075 50.1934397 23.2897943 49.8582709 22.707424 49.5286784 21.6955814 49.1618124 21.2055993 48.9868907 20.413068 48.7432916 19.7327013 48.6285359 18.761297 48.4653539 17.8244275 48.3908067 17.8244275 48.3908067 17.8244275 48.3908067 18.0233721 48.2675397 18.1414401 48.233201 19.1332111 47.9320774 20.0095707 47.7859179 21.0270215 47.7113708 21.9205009 47.6456284 22.7393023 47.7316218 23.6357335 47.8689764 24.0017442 47.926501 24.4805098 48.0409632 24.8955188 48.1586538 26.2417889 48.5399011 27.7722451 49.1444963 29.1329785 49.1474312 29.2079517 49.1474312 29.1990966 49.1444963 29.1990966 49.1444963L41.7438193 49.1444963C41.7438193 49.1444963 41.6487746 49.1444963 41.7813059 49.1444963 42.16178 49.1444963 42.8737299 49.2648284 43.1591592 49.7664076 43.4879785 50.345469 43.5915832 51.0334163 43.3120572 51.72107 43.2285242 51.9303304 43.0900894 52.2255842 42.8881932 52.4060823 42.7152236 52.5639814 42.4271377 52.6640625 42.2627281 52.6640625 42.2137299 52.6669974 42.1331485 52.6640625 42.1331485 52.6640625L31.1593202 52.6640625C31.1593202 52.6640625 31.202415 52.6640625 31.1017621 52.6640625 29.9804114 52.6640625 28.5680233 52.5293493 27.4927191 52.1539719M32.491127 56.0233816C32.1797227 55.7078768 31.7532021 55.2206787 31.363873 54.7593079 30.6203399 53.8764814 30.2859123 53.0825833 30.2859123 53.0825833L37.6046512 53.0825833C37.6046512 53.0825833 37.621771 53.9222663 37.4547048 54.8940211 37.2961986 55.7968051 36.961771 56.7483089 36.6043202 57.4362561 36.5898569 58.1441609 36.8927013 58.8007044 36.9416995 59.4998043 36.3392576 59.8666704 35.6934258 60.230895 35.1544454 60.7439205 35.1199106 60.7753242 35.0650089 60.7753242 35.0419857 60.6922658 34.7538998 59.61456 34.6010018 58.6571864 34.3645707 57.5909269 33.6960107 57.0779014 33.0705456 56.6224005 32.491127 56.0233816M40.0318336 55.4270041C39.824034 55.0460504 39.6714311 54.5444712 39.4320483 54.2462824 39.3830501 54.5127739 39.4435599 54.6762494 39.409025 54.9312947 39.3744902 55.1461315 39.1985689 55.0574966 39.164034 54.9541872 39.0604293 54.6677381 38.9506261 54.3093834 38.8585331 54.0141296 38.7029785 53.5210616 38.6510286 53.0855182 38.6510286 53.0855182L39.8703757 53.0825833C39.8703757 53.0825833 39.9164222 53.0940295 39.9364937 53.2117201 39.994347 53.5184202 39.9828354 53.8133805 40.0663685 54.1688003 40.1729249 54.6245947 40.3113596 55.0401806 40.4813775 55.4642777 40.6283721 55.8370136 40.815805 56.2153259 40.9684079 56.5851269 40.9917263 56.6338467 41.0002862 56.7254165 40.9627996 56.7770712 40.9167531 56.8316609 40.84178 56.825791 40.7954383 56.7770712 40.4468426 56.3814429 40.3054562 55.9344533 40.0318336 55.4270041M41.9167889 56.292808C41.7092844 55.8540362 41.4182469 55.3612617 41.4442218 54.8626174 41.5797048 55.0372456 41.6343113 55.1634476 41.8187925 55.2638221 41.9023256 55.2896495 42.0811986 55.2638221 42.0378086 55.1176627 41.9542755 54.8423664 41.8276476 54.6102136 41.7092844 54.2348362 41.5363148 53.6786673 41.3633453 53.0825833 41.3633453 53.0825833L40.120975 53.0825833C40.120975 53.0825833 40.1903399 53.5841626 40.4728175 54.3551683 40.7234168 55.0346042 41.1068426 55.8141212 41.5248032 56.5449184 41.8677907 57.1468722 42.179195 57.6713439 42.5655725 58.1098222 42.6981038 58.2618515 43.0236762 58.1271383 42.882585 57.9322591 42.5165742 57.4133637 42.1732916 56.8401722 41.9167889 56.292808M49.9852594 14.5328852C49.7142934 14.6476409 49.4778623 14.7993767 49.3426744 15.0573569 49.2443828 15.2407899 49.1782648 15.5245975 49.3656977 15.6822032 49.6942218 15.9601409 50.0862075 15.6763333 50.2447138 15.3928192 50.4436583 15.0285946 50.3917084 14.3380059 50.3917084 14.3380059 50.3917084 14.3380059 50.158229 14.458338 49.9852594 14.5328852"/>
    <path d="M50.2706887,16.2612645 C50.3887567,16.0405579 50.6455546,15.7996003 50.9306887,15.6305484 C51.2479964,15.4356692 51.5794723,15.2466598 51.81,15.1090116 C52.0405277,14.9713635 52.0865742,14.8739239 52.0865742,14.8739239 C52.0865742,14.8739239 51.8964848,14.9399597 51.792585,15.0027672 C51.2220215,15.3382295 50.6021646,15.7224117 50.3486136,15.8342324 C50.0313059,15.9715871 49.5991771,15.9974145 49.2071914,16.0490692 C49.1437299,15.5589362 49.0168068,15.3555456 49.0197585,14.9197087 C49.0227102,14.7104483 49.0717084,14.4383805 49.1062433,14.2520125 C49.2302147,13.6212964 49.2532379,13.3031502 49.2532379,13.3031502 C49.2532379,13.3031502 49.1581932,13.3950134 49.1233631,13.6700162 C49.08322,13.9194851 49.0542934,14.0139898 48.9967352,14.3092436 C48.930322,14.6502823 48.8612522,14.9399597 48.6564043,15.1518616 C48.362415,15.4556267 48.0858408,15.9974145 48.3163685,16.4130003 C48.4488998,16.6565994 48.6708676,16.6193258 48.7399374,16.6824268 C48.8093023,16.7455277 48.8523971,16.8946221 49.0628533,16.9632994 C49.5183005,17.1153287 50.0313059,16.7082541 50.2706887,16.2612645"/>
    <path d="M49.6797585 17.553807C49.8353131 17.307273 49.9941145 17.1323513 50.2361538 16.9835504 50.6396512 16.7396579 50.9395438 16.5735409 51.1845349 16.447339 51.2910912 16.3930428 51.3805277 16.3299419 51.4065027 16.2181211 51.2969946 16.2583296 50.8816905 16.4532089 50.4696333 16.6968079 50.1726923 16.8743711 49.6623435 17.0924363 49.319356 17.1094589 49.1868247 17.1153287 49.0858766 17.08099 48.9763685 17.0780551 48.7458408 17.0695438 48.4548032 17.12384 48.4548032 17.12384 48.4548032 17.12384 48.3798301 16.8001174 48.2818336 16.5679646 48.2328354 16.4502739 48.1519589 16.3270069 48.108864 16.1063003 48.0799374 15.9545645 48.0743292 15.730923 48.0858408 15.5991447 48.117424 15.195005 48.226932 14.8052465 48.2068605 14.395237 47.9530143 14.9226437 48.0598658 15.5703824 47.7570215 15.977457 47.6330501 16.1494438 47.5323971 16.284157 47.4341055 16.4989937 47.2696959 16.8514786 47.2897674 17.2212796 47.5120304 17.5623183 47.6389535 17.7542626 47.9214311 17.7486863 47.9704293 17.7859599 48.0454025 17.840256 48.108864 18.0439401 48.3827818 18.1041061 48.8553488 18.210057 49.4146959 17.9922853 49.6797585 17.553807M49.8122898 27.8430792C49.9217979 27.622666 49.9941145 27.3329886 50.1352057 27.1295981 49.8181932 27.1753829 49.7662433 27.2097216 49.3078444 27.2613763 49.2071914 27.2698876 48.9993918 27.3731971 48.930322 27.4418744 48.7517442 27.6253075 48.5902862 27.7943593 48.6623077 28.0984179 48.6909392 28.21875 48.794839 28.3047434 48.8553488 28.3247009 49.2358229 28.4479679 49.6222004 28.2216849 49.8122898 27.8430792"/>
    <path d="M50.201619,28.4479679 C50.6340429,28.3446584 51.1355367,28.1356915 51.3371377,28.2014339 C50.9306887,28.4165642 50.4176834,28.4937528 49.9651878,28.6228896 C49.6222004,28.7203293 49.3772093,28.9783095 49.0687567,29.2131038 C48.7862791,29.4279405 48.4114132,29.5139339 48.0769857,29.3563283 C47.9648211,29.3020321 47.8523614,29.121534 47.8349463,29.0270293 C47.8175313,28.9495472 47.6563685,28.8720651 47.5725403,28.8033877 C47.488712,28.7347104 47.4485689,28.5597887 47.4485689,28.4937528 C47.4311538,27.8976688 47.8898479,27.6570047 48.3308318,27.3071612 C48.6623077,27.0436047 49.09178,25.920114 49.354186,25.6908961 C49.3078444,26.0518923 48.8352773,26.7310348 48.6304293,27.2613763 C48.4663148,27.6854735 48.5209213,28.0209358 48.4143649,28.4679254 C48.7284258,28.4852415 49.0802683,28.5539188 49.3972809,28.5568538 C49.6452236,28.5597887 49.9451163,28.505199 50.201619,28.4479679"/>
    <path d="M49.74322 29.3677745C49.5011807 29.4109179 49.201288 29.4881066 48.9993918 29.531837 48.2903936 29.6809314 47.9530143 29.3363708 47.3907156 29.3419471 47.4397138 28.7000783 47.2147943 28.4106943 47.3992755 27.9951085 47.5639803 27.6253075 47.7168784 27.235549 47.8579696 26.9203377 47.973381 26.6682273 48.0079159 26.456032 48.0079159 26.456032 48.0079159 26.456032 47.837898 26.7110773 47.3476208 27.6570047 47.1802594 27.9865972 46.8777102 28.0552745 46.6067442 28.3678444 46.2953399 28.7232642 46.1197138 29.4766603 46.693229 29.7927521 46.8056887 29.8529182 46.7882737 30.0507323 46.8718068 30.127921 47.2552326 30.4862757 48.0279875 30.4519371 48.5153131 30.0134587 48.8987388 29.6665502 49.3683542 29.6093191 49.7662433 29.5054226 49.9997227 29.4452566 50.2042755 29.344882 50.2042755 29.344882 50.2042755 29.344882 50.0947674 29.3020321 49.74322 29.3677745M32.2718157 27.5680764C32.0383363 27.8777113 31.9288283 28.2331311 31.6667174 28.505199 31.5312343 28.6457821 31.3237299 28.5797462 31.2168784 28.4165642 31.0958587 28.2331311 30.9028175 27.972216 31.0468605 27.788783 31.2832916 27.4879528 31.7791771 27.295715 32.1997943 27.3503047 32.2228175 27.3532396 32.3583005 27.4506792 32.2718157 27.5680764zM31.1419052 29.3419471C31.0093739 29.6923776 30.6144365 29.7296512 30.2800089 29.7983285 30.2168426 29.8127096 30.026458 29.7983285 29.9399732 29.71527 29.7959302 29.5720455 29.6690072 29.3821556 29.6949821 29.1414915 29.7094454 28.9926906 29.8334168 28.8462377 29.9860197 28.7860717 30.2658408 28.6801208 30.5973166 28.505199 30.8738909 28.6601632 31.110322 28.7919415 31.2342934 29.0927717 31.1419052 29.3419471zM30.4154919 31.1941805C30.3204472 31.3347635 30.0725045 30.8730993 30.0409213 30.6638389 29.9485331 30.0533738 30.4848569 29.898703 30.9344007 29.9186606 30.9459123 30.2828852 30.6634347 30.8446305 30.4154919 31.1941805zM29.9314132 32.8392078C29.8449284 33.0857418 29.8015385 33.3123183 29.703542 33.5359599 29.611449 33.7537316 29.205 33.8309202 28.9771288 33.7593079 28.6571646 33.6618683 28.3805903 32.9425173 28.7466011 32.670156 29.026127 32.4608956 29.3174597 32.4294918 29.6719589 32.383707 29.7383721 32.3749022 29.9745081 32.3922182 29.9860197 32.4121758 30.043873 32.5612701 30.0063864 32.6358173 29.9314132 32.8392078zM29.3924329 34.7366391C29.3260197 34.925942 29.297093 35.1178863 29.2135599 35.2983844 29.1731216 35.3902477 29.1155635 35.2699156 29.1155635 35.2640457 28.9886404 34.9517693 28.908059 34.6879193 29.0146154 34.4129165 29.0780769 34.2608872 29.2885331 34.1205976 29.4845259 34.1091514 29.4730143 34.3040306 29.458551 34.5446948 29.3924329 34.7366391zM28.7525045 35.6596741C28.6081664 35.5936382 28.6081664 35.4102052 28.5476565 35.292808 28.4930501 35.1809873 28.366127 35.0263165 28.4180769 34.8772222 28.6976029 35.0348278 28.8301342 35.3127655 28.7525045 35.6596741zM28.2681306 34.5074212C27.933703 34.2324184 27.9050716 33.7965815 27.6831038 33.4614127 27.9280948 33.303807 28.3431038 33.3352108 28.4700268 33.6448457 28.5736315 33.8940211 28.645653 34.2608872 28.392102 34.4501901 28.366127 34.4701476 28.2997138 34.5332485 28.2681306 34.5074212zM27.0228086 32.2519287C26.9708587 32.1800229 26.8731574 31.9736975 26.9478354 31.9478701 27.5476208 31.7444795 27.9942129 31.7359682 28.1240877 32.3749022 28.2161807 32.8277616 27.9021199 33.2178136 27.4637925 33.0599145 27.3401163 33.0111947 27.2161449 32.5298664 27.0228086 32.2519287zM26.1523524 30.8129333C26.1092576 30.7612785 26.0744275 30.6036729 26.1293292 30.5608229 26.4377818 30.311354 26.8961807 30.2943314 27.2506798 30.3286701 27.7146869 30.37152 27.8126834 30.801487 27.7347585 31.1598418 27.6311538 31.6297238 26.9133005 31.6898899 26.7116995 31.6097663 26.5098032 31.5322842 26.3713685 31.0852946 26.1523524 30.8129333zM26.2533005 29.1388501C26.6567979 28.8779349 27.4266011 28.6859906 27.5561807 29.3906669 27.5936673 29.6034492 27.5417174 29.8843219 27.2536315 29.9761852 26.9566905 30.0706898 26.6077996 30.1737058 26.3368336 30.06482 26.0053578 29.9274653 25.9389445 29.3419471 26.2533005 29.1388501zM25.8353399 27.9548999C25.8639714 27.8201867 26.0168694 27.7544443 26.1408408 27.7227471 26.4693649 27.6426235 26.8327191 27.5222915 27.1323166 27.7113009 27.2506798 27.7858481 27.2592397 27.8891575 27.273703 28.035317 27.3026297 28.2730462 27.2677996 28.465284 27.1092934 28.5568538 26.7922809 28.7402868 26.4693649 28.7576029 26.1004025 28.6859906 25.7978533 28.6258246 25.7748301 28.2331311 25.8353399 27.9548999zM25.5009123 29.7813059C25.2213864 29.5746869 25.097415 29.284716 24.8899106 28.9953321 24.8409123 28.9266547 24.8899106 28.8949575 24.9300537 28.8864462 25.4259392 28.7461566 25.7919499 28.9926906 25.7169767 29.531837 25.7028086 29.6351465 25.6334436 29.8787455 25.5009123 29.7813059zM24.1313238 28.1183754C23.944186 27.9578349 24.0737657 27.6798971 24.2352236 27.5994801 24.5209481 27.4591905 24.9648837 27.439233 25.2615295 27.5366726 25.4489624 27.602415 25.5469589 27.8718415 25.512424 28.1670953 25.4979606 28.2874273 25.4604741 28.4221405 25.3999642 28.4623491 25.1750447 28.6140849 24.8294007 28.6199547 24.555483 28.5627236 24.3621467 28.5225151 24.2927818 28.2589585 24.1313238 28.1183754zM23.9182111 26.4387159C24.0967889 26.0489574 24.7514758 26.0460225 25.1089267 26.2180093 25.3999642 26.3615273 25.4374508 26.9003801 25.1174866 27.112282 24.8668873 27.2813339 24.4660465 27.2185264 24.197737 27.1698066 23.817263 27.1008358 23.7853846 26.7254584 23.9182111 26.4387159zM23.9297227 24.9826979C24.2036404 24.7247177 24.555483 24.8424083 24.8840072 24.8881932 24.9474687 24.8967045 25.0253936 24.9427829 25.0655367 24.9856328 25.2904562 25.2092744 25.3078712 25.5790754 25.0599284 25.7625084 24.7715474 25.9773451 24.4114401 25.8370556 24.0652057 25.8197395 23.9728175 25.8168046 23.8692129 25.7079187 23.8488462 25.6392414 23.7853846 25.4185348 23.7481932 25.1520433 23.9297227 24.9826979zM24.105644 23.7647026C24.394025 23.6443705 24.8928623 23.5897809 25.097415 23.910862 25.2240429 24.1116111 25.1868515 24.4755423 24.9849553 24.5298384 24.7860107 24.5785583 24.1142039 24.690379 23.9556977 24.3208715 23.8748211 24.1400799 23.909356 23.8477611 24.105644 23.7647026zM24.9964669 22.7301403C25.08 22.7674139 25.1319499 22.8331563 25.1520215 22.9364658 25.1954114 23.1571724 25.1349016 23.3978365 24.9214937 23.4380451 24.6015295 23.4952762 24.1227639 23.5125922 24.1227639 23.0623742 24.1257156 22.5581535 24.6245528 22.5637299 24.9964669 22.7301403zM24.3506351 21.7927242C24.5209481 21.7269818 24.8034258 21.7410694 24.9560286 21.8214865 25.0339535 21.861695 25.1378533 21.9905383 25.0944633 22.1223166 25.0398569 22.2972384 24.8783989 22.3603393 24.690966 22.3603393 24.5150447 22.3632743 24.3101968 22.3488931 24.2381753 22.2056686 24.1688104 22.0680205 24.197737 21.8502488 24.3506351 21.7927242zM24.5495796 21.0390345C24.7054293 20.9818034 24.9389088 20.9844449 25.0513685 21.1077119 25.2069231 21.2767638 25.0859034 21.5461902 24.7889624 21.534744 24.6850626 21.5291676 24.5610912 21.4948289 24.4979249 21.4601968 24.3447317 21.3742034 24.3969767 21.0933307 24.5495796 21.0390345zM25.2529696 20.5518364C25.2733363 20.4858005 25.376941 20.4083184 25.4288909 20.3883609 25.5469589 20.3481524 25.6824419 20.3396411 25.7949016 20.385426 26.0198211 20.4772892 25.9908945 20.752292 25.7488551 20.8497317 25.6422987 20.8928751 25.4778891 20.9216374 25.3970125 20.8928751 25.2473614 20.8412204 25.2039714 20.7094421 25.2529696 20.5518364zM25.9534079 21.6295422C25.7084168 21.7011544 25.3654293 21.7155356 25.2934079 21.4660666 25.1694365 21.0419695 25.7054651 20.9788685 25.9852862 21.0677968 26.1783274 21.1279629 26.2447406 21.5461902 25.9534079 21.6295422zM26.1148658 20.2307553C26.189839 19.9698401 26.4897317 19.8266156 26.7606977 19.9067392 26.9941771 19.97571 27.0487835 20.2909213 26.8902773 20.445592 26.8182558 20.5116279 26.7001878 20.5832402 26.5762165 20.6120025 26.2963953 20.6721685 26.0254293 20.5201392 26.1148658 20.2307553zM27.3312612 21.1937053C27.2881664 21.3656921 27.1612433 21.4833827 26.959347 21.5262327 26.757746 21.5720176 26.4808766 21.5834638 26.3684168 21.4601968 26.2618605 21.3427996 26.2128623 21.1793241 26.3022987 21.0534157 26.4808766 20.8010119 26.8037925 20.7150184 27.0948301 20.7781194 27.2621914 20.8183279 27.3832111 20.9844449 27.3312612 21.1937053zM27.2247048 20.1879053C27.3312612 19.9498826 27.6051789 19.8295505 27.8702415 19.9096741 27.9221914 19.9269902 28.0316995 20.0100486 28.0461628 20.0931071 28.077746 20.2595176 28.0201878 20.4112534 27.8790966 20.4972468 27.7031753 20.6090675 27.5561807 20.6751034 27.3516279 20.5917515 27.1957782 20.5260091 27.1582916 20.3281949 27.2247048 20.1879053zM28.3575671 20.8556015C28.4785868 21.0589921 28.2941055 21.2626761 28.2017174 21.3169723 27.9942129 21.4373043 27.706127 21.5118515 27.5821556 21.308461 27.4581843 21.1077119 27.5591324 20.8726241 27.7722451 20.7839893 27.977093 20.7009308 28.1875492 20.5717939 28.3575671 20.8556015zM28.7005546 21.6295422C28.8330859 21.7410694 28.9511538 21.9732223 28.7899911 22.1566553 28.6400447 22.331577 28.4496601 22.3832318 28.2135242 22.4205054 28.0520662 22.4463327 27.8472182 22.3286421 27.8185868 22.1883525 27.7955635 22.0650855 27.7722451 21.8443789 27.8962165 21.7410694 28.1326476 21.5406138 28.4496601 21.4258581 28.7005546 21.6295422zM28.9859839 20.3108788C29.1126118 20.3481524 29.1934884 20.4802242 29.1300268 20.6090675 29.0925403 20.6891911 28.9771288 20.7751845 28.9051073 20.8183279 28.7035063 20.9415949 28.5334884 20.8928751 28.4700268 20.7467157 28.3546154 20.4772892 28.7436494 20.2392665 28.9859839 20.3108788zM29.4730143 20.9788685C29.611449 20.9903147 29.6775671 21.0877544 29.703542 21.1937053 29.7410286 21.3372233 29.6920304 21.4690016 29.5710107 21.5491251 29.4269678 21.6465647 29.2480948 21.7040893 29.1040519 21.7040893 28.908059 21.7096657 28.729186 21.4258581 28.8330859 21.2394902 28.9455456 21.0419695 29.2280233 20.9586175 29.4730143 20.9788685zM30.2773524 22.0019846C30.3608855 22.2455836 30.1820125 22.3603393 29.9919231 22.457779 29.7988819 22.5607949 29.5420841 22.6555931 29.4095528 22.5293912 29.2395349 22.3688506 29.1645617 22.1023591 29.3549463 21.9245025 29.6170572 21.678262 30.1043828 21.4948289 30.2773524 22.0019846zM30.6259481 22.6124497C30.9344007 22.6497233 30.9949106 23.0882016 30.9344007 23.2458072 30.8623792 23.3805205 30.7068247 23.4867649 30.6259481 23.5296148 30.3983721 23.6443705 30.135966 23.6901554 29.9255098 23.5812696 29.7383721 23.4838299 29.6545438 23.1970874 29.7584436 22.9737394 29.8968784 22.6699743 30.3378623 22.5751761 30.6259481 22.6124497zM31.2602683 23.9625168C31.3668247 24.1116111 31.3438014 24.3695913 31.2803399 24.4526498 31.0872987 24.7162064 30.542415 24.8682357 30.3204472 24.7593498 30.1504293 24.6759979 29.9833631 24.3035555 30.1820125 24.0799139 30.3898122 23.850696 30.7499195 23.7101129 31.0757871 23.7790837 31.1507603 23.7961063 31.1968068 23.8765234 31.2602683 23.9625168zM31.398703 24.7966234C31.5456977 24.8107111 31.678229 24.9741866 31.7502504 25.1520433 31.8423435 25.3812612 31.7472987 25.6477527 31.6752773 25.6964725 31.4966995 25.8168046 30.9344007 26.1552018 30.5799016 25.9515178 30.3868605 25.839697 30.3319589 25.5875867 30.3204472 25.4384923 30.2800089 24.9542291 31.0208855 24.75348 31.398703 24.7966234zM29.3204114 28.2616C29.2424866 28.0696556 29.1731216 27.7858481 29.3260197 27.6684509 29.6315206 27.4274933 30.3263506 27.2185264 30.5884615 27.5824575 30.7614311 27.8175453 30.7097764 28.21875 30.4098837 28.3704858 30.1014311 28.5280915 29.4930859 28.7115245 29.3204114 28.2616zM27.8327549 28.281851C28.138551 28.1268867 28.5821914 27.9408123 28.9139624 28.1527141 29.0665653 28.2501537 29.2221199 28.648717 29.1155635 28.8292151 28.8879875 29.2045925 28.2911538 29.3020321 27.9106798 29.2045925 27.5877639 29.121534 27.4871109 28.4564792 27.8327549 28.281851zM27.5561807 26.9775688C27.9280948 26.7169471 28.6601163 26.5505367 28.8360376 27.1181518 28.8820841 27.2643113 28.908059 27.4274933 28.8330859 27.5481189 28.6285331 27.8747764 28.1037209 27.9607698 27.7551252 27.9149849 27.3773077 27.8574603 27.1987299 27.2241028 27.5561807 26.9775688zM27.2421199 25.6536225C27.5992755 25.4528734 28.3605188 25.1863819 28.5390966 25.7625084 28.6111181 25.9973027 28.6025581 26.289915 28.4006619 26.392931 28.1096243 26.5449603 27.6482737 26.702566 27.3141413 26.4962405 27.0343202 26.3183838 26.9968336 25.7939121 27.2421199 25.6536225zM29.2395349 23.2775045C29.0895886 23.4092828 28.9396422 23.4380451 28.7409928 23.5037875 28.4611717 23.5985856 28.1701342 23.3863903 28.138551 23.1198988 28.0836494 22.6670394 28.5736315 22.5980685 28.8965474 22.5437724 29.1329785 22.5006289 29.2799732 22.7098893 29.3204114 22.8534073 29.366458 22.9881205 29.3605546 23.1715536 29.2395349 23.2775045zM29.839025 24.343764C29.6285689 24.6589753 28.772576 24.8567895 28.5821914 24.5327734 28.4440519 24.2950442 28.3605188 23.9625168 28.6170215 23.8049111 28.890644 23.6385007 29.2135599 23.5384196 29.5305725 23.5956507 29.8275134 23.6473055 29.9774597 24.1345036 29.839025 24.343764zM30.2944723 26.289915C30.4184436 26.4818593 30.5019767 26.742481 30.3204472 26.9805037 30.1563327 27.2012103 29.5710107 27.3015849 29.2711181 27.2299726 29.1099553 27.1897641 29.0320304 26.989015 29.0060555 26.8572367 28.9715206 26.6767386 28.9541055 26.4933056 29.1155635 26.3442112 29.3460912 26.1349508 29.6574955 26.1378857 29.9544365 26.1378857 30.0754562 26.1378857 30.2484258 26.2180093 30.2944723 26.289915zM30.1244544 25.6392414C29.9429249 25.9717688 29.3260197 26.0116838 29.0491503 25.9773451 28.8531574 25.9485828 28.7150179 25.6363065 28.7206261 25.3753913 28.7235778 25.2406781 28.7640161 25.1491083 28.8590608 25.1003885 29.1645617 24.936913 29.4815742 24.8250922 29.8130501 24.8796819 30.135966 24.9313367 30.2628891 25.3841961 30.1244544 25.6392414zM26.875814 24.9198904C26.6653578 24.2777281 27.4726476 24.0743375 27.942263 24.1744186 28.2710823 24.2433894 28.3805903 24.8682357 28.0750894 25.0660499 27.7002236 25.3096489 27.028712 25.3897725 26.875814 24.9198904zM25.6594186 26.4962405C25.901458 26.2497065 26.3368336 26.2353254 26.6768694 26.2781753 26.8873256 26.3098725 26.9767621 26.5191329 27.0056887 26.7483508 27.0862701 27.3731971 26.2417889 27.479148 25.8382916 27.3329886 25.5729338 27.235549 25.4344991 26.7283933 25.6594186 26.4962405zM25.4894007 25.2808866C25.7402952 24.9856328 26.163864 24.9169555 26.5154114 25.0114602 26.7288193 25.0686913 26.8268157 25.3181602 26.8212075 25.5960979 26.8182558 25.7537036 26.7087478 25.8684593 26.6107513 25.9086678 26.3628086 26.0087489 26.0744275 26.0832961 25.8034615 26.0518923 25.4693292 26.0087489 25.2644812 25.5444432 25.4894007 25.2808866zM25.529839 23.9595818C25.8409481 23.8333799 26.417415 23.7189177 26.5183631 24.1603309 26.6482379 24.7479036 25.9504562 24.8424083 25.5788372 24.7420338 25.2934079 24.6645517 25.2385063 24.0743375 25.529839 23.9595818zM27.7636852 22.9881205C27.9971646 23.1169639 28.0461628 23.4896998 27.9050716 23.7016016 27.7146869 23.9854092 27.0747585 24.1515262 26.7288193 23.9023507 26.5298748 23.7588327 26.4233184 23.1771299 26.8297674 23.0368403 27.1497317 22.9250196 27.461136 22.8161337 27.7636852 22.9881205zM27.435161 22.5637299C27.1727549 22.7272054 26.7952326 22.7903064 26.5472898 22.6526582 26.3309302 22.5352611 26.3397853 22.2197563 26.4463417 22.0507044 26.622263 21.7698317 27.0602952 21.738428 27.3657961 21.8270628 27.6252504 21.90161 27.7232469 22.3861667 27.435161 22.5637299zM25.3019678 22.1052941C25.3279428 22.0193006 25.3654293 21.9964082 25.4173792 21.9705808 25.639347 21.8672714 25.8843381 21.8388025 26.0947943 21.9732223 26.2473971 22.0709554 26.2358855 22.3001733 26.1207692 22.4175704 25.9563596 22.5895572 25.6189803 22.5980685 25.4029159 22.4836063 25.2615295 22.4119941 25.2559213 22.2400073 25.3019678 22.1052941zM25.3713327 23.0251006C25.4693292 22.7471629 25.8179249 22.7615441 26.0832826 22.7958827 26.4088551 22.8390262 26.4752683 23.2516771 26.3598569 23.4265988 26.1983989 23.667263 25.8353399 23.6214781 25.5440072 23.5842045 25.3078712 23.5554422 25.2934079 23.2431658 25.3713327 23.0251006zM29.9629964 31.3949296C30.043873 31.7101409 29.9629964 32.0080361 29.6805188 32.1084107 29.3204114 32.2346126 28.8301342 32.4209805 28.5420483 32.2287427 28.2105725 32.0080361 28.0520662 31.3834833 28.4325403 31.1369494 28.8820841 30.8446305 29.772907 30.6553276 29.9629964 31.3949296zM29.475966 30.4175984C29.230975 30.6926012 28.8360376 30.6840899 28.4470036 30.7985521 28.2970572 30.8387606 28.1181843 30.7069823 28.0405546 30.5722691 27.8962165 30.3172238 27.7521735 29.9732502 28.0260912 29.7267162 28.256619 29.5198038 28.5680233 29.5374133 28.8475492 29.4537679 28.9715206 29.4164943 29.1241234 29.3736443 29.2799732 29.4766603 29.594034 29.6894426 29.7150537 30.148172 29.475966 30.4175984zM32.0527996 26.3040027C32.1221646 26.5047518 32.2142576 26.6509112 32.1336762 26.8487254 32.041288 27.0952594 31.8048569 27.1266631 31.5802326 27.2097216 31.3727281 27.2842688 31.0238372 27.3787735 30.8479159 27.1953405 30.6463148 26.989015 30.5654383 26.5678528 30.8077728 26.3873547 31.1188819 26.1578432 31.8857335 25.839697 32.0527996 26.3040027zM36.2814043 24.5098809C36.4658855 23.7647026 36.6937567 23.008078 36.7513148 22.2197563 36.8348479 21.0446109 36.5783453 19.8210392 35.8203488 18.9323429 35.895322 19.316525 35.9962701 19.6402477 36.0452683 20.0414524 36.1087299 20.528944 36.0393649 21.0704383 35.9124419 21.5605713 35.8173971 21.9333072 35.6503309 22.2943034 35.4829696 22.6382771 35.2843202 23.0453516 34.9900358 23.4896998 34.6989982 23.8536309 33.8775403 24.8711706 32.5976834 26.8516603 32.5976834 26.8516603 32.5976834 26.8516603 32.491127 26.8428555 32.4276655 26.8428555 32.4132021 26.5963216 33.0011807 25.7510622 33.2981216 25.2779517 33.9495617 24.2404545 34.4454472 23.6816441 35.0133542 22.7815016 35.3678533 22.2141799 35.6388193 21.5232977 35.7253041 20.8984515 35.9038819 19.6232251 35.2120036 18.0955948 34.217576 17.5881457 34.4454472 18.5396495 34.4194723 19.8838467 33.9120751 20.4485269 32.9465742 21.5147864 32.3727639 22.3171959 31.6838372 23.6872205 31.6637657 23.7244941 31.5023077 23.501146 31.3697764 23.4151526 31.2198301 23.317713 31.3033631 23.0224592 31.2514132 22.824645 31.202415 22.6582346 31.1218336 22.5264563 31.0988104 22.4979875 30.8969141 22.2485186 30.6979696 22.2341374 30.6548748 22.1595902 30.6058766 22.0765318 30.6288998 21.8672714 30.450322 21.6266072 30.3638372 21.5089166 30.135966 21.4173468 30.043873 21.3055261 29.9458766 21.1822591 29.8995349 20.8068817 29.6259123 20.652211 29.4930859 20.5776638 29.432576 20.3510873 29.3086047 20.2422015 28.9225224 19.9011628 28.5361449 19.9671987 28.4641234 19.9440127 28.3631753 19.9184789 28.1701342 19.6719449 27.824195 19.6144203 27.4871109 19.5571892 27.3026297 19.7808307 27.1267084 19.7004137 26.6857245 19.4970231 26.2648122 19.4797071 25.7978533 19.9986024 25.6564669 20.1532731 25.4144275 20.0071137 25.1145349 20.2392665 24.8465206 20.4400157 24.8409123 20.6263836 24.7080859 20.652211 24.4515832 20.6979959 24.2641503 20.9013864 24.1632021 21.122093 24.1142039 21.2339138 24.0767174 21.4660666 24.044839 21.615161 24.0046959 21.8270628 23.8978444 22.0193006 23.8951878 22.1710364 23.8951878 22.3861667 23.9613059 22.5006289 23.9412343 22.5954271 23.9123077 22.7357167 23.7998479 22.8619186 23.7853846 22.990762 23.773873 23.0653091 23.7682648 23.2601884 23.8231664 23.3690742 23.8892844 23.5067224 23.773873 23.6241195 23.7133631 23.7676375 23.6587567 23.9023507 23.5982469 24.1315686 23.6153667 24.2950442 23.6413417 24.5183922 23.7682648 24.5988093 23.6702683 24.773731 23.5058587 25.06018 23.2983542 25.5045282 23.6617084 26.0718498 23.7278265 26.1780943 23.5088104 26.3785499 23.4972987 26.6767386 23.4828354 26.9978198 23.6788283 27.2384839 23.7337299 27.3817084 23.7422898 27.4333631 23.6472451 27.4304282 23.6442934 27.4850179 22.7794454 26.576364 22.0184973 25.7422574 21.0181664 24.9542291 20.4071646 24.4726073 19.801771 24.0684677 19.1246512 23.7101129 17.3173256 22.744228 15.2157156 22.0994242 13.3103936 22.334512 14.0282469 22.9106384 14.9332379 23.317713 15.6682111 23.9710281 16.3659928 24.587363 17.0000179 25.1147697 17.6343381 25.7739546 18.6317174 26.8029405 19.4443202 27.8460141 20.2890966 29.061368 20.5396959 29.4194292 20.7041055 29.6580389 20.937585 30.0334163 21.1710644 30.4087936 21.4334705 30.804422 21.6495349 31.1768644 22.7304472 33.0428919 23.6153667 34.7712712 24.512093 36.6827901 24.7600358 37.2101968 24.9704919 37.7663657 25.2128265 38.2908374 25.2789445 38.4340619 25.3713327 38.328111 25.4374508 38.2908374 25.7633184 38.1044695 26.1063059 37.9497987 26.44339 37.7892582 26.7116995 37.6689261 26.9566905 37.5829327 27.1957782 37.4910694 27.8011717 37.2618515 28.3776386 37.1385845 29.0119589 37.0068062 30.0725045 36.7860996 31.9778265 36.8318845 31.9778265 36.8318845L35.5868694 36.8289496 35.6878175 36.8289496C35.6503309 35.7999637 35.4023882 34.79974 35.3418784 33.7681127 35.2984884 32.9310711 35.3244633 32.1227918 35.3563417 31.2860437 35.4339714 29.0155831 35.7713506 26.576364 36.2814043 24.5098809L36.2814043 24.5098809zM11.6645259 15.9918381C10.9581843 16.6882966 10.7480233 16.9462768 10.3386225 17.719924 10.0965832 18.1727834 9.78813059 18.7547797 9.7016458 19.5084694 11.1485689 18.9611052 12.3304293 17.840256 13.3968784 16.6049447 14.1867531 15.6907144 14.8007066 14.4756541 15.5790698 13.5699352 14.2068247 14.028371 12.7599016 14.9053276 11.6645259 15.9918381"/>
    <path d="M7.51945438,17.9550117 C8.0643381,17.0378466 8.84535778,16.0461343 9.65530411,15.3696333 C9.28073345,16.2096098 8.81938283,17.0407815 8.66087657,18.0324939 C8.34681574,20.0044723 8.04692308,21.3885845 7.71839893,23.1915111 C8.61778175,22.5522837 9.56911449,21.5491251 10.5231038,20.8470902 C11.2610286,20.3108788 12.0019052,19.9498826 12.7599016,19.4309873 C13.2094454,19.1216458 13.5034347,18.7230825 13.8812522,18.3506401 C13.4343649,20.2248854 11.7799374,22.1167403 10.5951252,22.9995667 C9.10776386,24.1057413 8.57439177,24.2835979 6.18499106,26.699631 C5.88214669,23.7159828 5.9340966,20.6149374 7.51945438,17.9550117"/>
    <path d="M2.64236136,27.8662651 C2.75482111,26.3154489 2.94195886,25.0774961 3.31977639,23.5639535 C3.584839,22.5094337 4.15569767,20.93866 4.98010733,20.2938562 C4.87915921,20.6751034 4.8272093,21.2512299 4.78677102,21.6380534 C4.62531306,23.234361 4.93376565,25.0889423 4.97125224,26.682315 C4.98866726,27.4647669 4.98010733,28.0696556 4.86174419,28.8092576 C4.74072451,29.5805568 4.84167263,30.5291257 4.84167263,30.5291257 C4.84167263,30.5291257 5.2681932,30.0448625 5.64866726,29.4423217 C6.47898032,28.1298217 6.74699463,27.7400632 7.41555456,27.0292235 C8.24586762,26.146397 9.1741771,25.3325414 10.2232111,24.6073206 C10.0965832,25.0974536 9.56025939,26.0518923 9.33829159,26.4331395 C9.04430233,26.946165 8.91177102,27.4104707 8.21133274,28.5712349 C7.22841682,30.2024681 6.79008945,30.4231748 5.69766547,32.1659353 C5.46123435,32.5442475 4.49278175,33.9888193 4.25635063,34.4272976 C3.74629696,33.3754193 3.55325581,32.4582541 2.92749553,30.7442559 C2.53285331,29.6665502 2.59041145,28.5911924 2.64236136,27.8662651"/>
    <path d="M1.12607335,35.9261656 C0.532191413,34.3985353 0.261225403,32.9797909 0.0596243292,31.3691022 C-0.0643470483,30.3859012 -0.00678890877,29.0728142 0.344758497,28.1268867 C0.44009839,28.3563981 0.627236136,28.9436773 0.653211091,29.0326057 C0.915617174,29.9130842 1.02512522,30.3342464 1.39408766,31.1827342 C1.6765653,31.8334079 2.01955277,32.3520097 2.38585868,32.9941721 C2.71999106,33.5817447 3.00246869,34.3527504 3.24480322,34.9458995 C4.0228712,36.8403958 4.08072451,38.61456 4.380322,38.8067979 C4.59372987,38.3510035 4.66014311,37.9151666 4.6858229,37.7003298 C4.9166458,35.602443 5.19322004,33.696207 7.85093023,31.2255842 C8.09296959,31.9622512 7.96899821,33.3178947 7.82495528,34.0431155 C7.50794275,35.6309118 7.24848837,36.3963411 6.54805009,37.9354176 C6.17347943,38.7436969 5.67759392,39.9387998 5.54211091,40.3344281 C5.18466011,41.3631205 5.06364043,41.9019734 4.83872093,42.5095036 C3.584839,40.4318677 2.0399195,38.2879025 1.12607335,35.9261656"/>
    <path d="M3.18990161,45.484347 C2.29937388,44.2463942 1.97350626,43.6271243 1.39408766,42.3116894 C0.904105546,41.2084498 0.762719141,40.7987338 0.477584973,39.5634224 C0.321735242,38.8898563 0.235250447,38.2793912 0.356565295,37.8808279 C1.05405188,39.1390318 1.53252236,40.5463299 2.44636852,41.589697 C3.16983005,42.4176403 3.87026834,43.1229036 4.44673524,43.8220036 C5.33165474,44.8941329 6.02914132,45.9116726 6.87952594,47.0292934 C6.95154741,46.470483 6.97752236,45.8999329 6.85355098,44.9827678 C6.6805814,43.724564 6.78448122,42.6958715 7.00644902,41.4778762 C7.28597496,39.9329299 7.49347943,39.1648591 8.03245975,37.6028902 C8.69275492,38.8898563 8.68980322,40.3772781 8.85421288,41.7417263 C9.1741771,44.3896187 8.34091234,47.5452538 8.17679785,48.8636237 C8.13340787,49.2075973 8.19391771,50.0645964 8.21133274,50.4000587 C6.96601073,49.422434 5.85912343,48.4365916 4.78411449,47.3673971 C4.29383721,46.880199 3.62232558,46.0748547 3.18990161,45.484347"/>
    <path d="M7.91439177,55.1922099 C7.34648479,54.7851353 5.82163685,53.627306 5.10112701,52.7157172 C4.05179785,51.3888361 3.81831843,50.8212209 3.12644007,49.2935907 C3.03995528,49.1072227 2.64796959,48.2446472 2.6163864,47.6570746 C4.88771914,50.3827426 6.91996422,50.7898172 9.08769231,53.053821 C9.88317531,53.8823513 10.6960733,54.6618683 11.1255456,55.0516268 C11.4570215,55.3553919 11.8664222,55.4443202 11.8664222,55.4443202 C11.8664222,55.4443202 11.8230322,54.8652588 11.6099195,54.4611192 C10.1627013,51.7125587 9.89173524,48.8407312 10.1107513,45.7596433 C10.7710465,46.5708576 10.978551,47.1123519 11.3965116,47.9006736 C11.8519589,48.7547378 12.0854383,49.2850794 12.2988462,49.8095511 C13.5353131,52.870388 13.8552773,56.4072702 14.6191771,58.1843694 C12.2613596,57.3960476 10.4047406,56.9719505 7.91439177,55.1922099"/>
    <path d="M17.5879964 62.4147753C16.948068 62.4576252 15.6971377 62.4520489 15.0312343 62.343163 11.655966 61.8072451 8.51683363 59.3738959 6.93708408 56.702524 8.369839 57.5680344 9.40470483 58.1500307 10.664195 58.5826392 11.7828891 58.9668213 12.8463864 59.081577 14.7201252 59.6116251 15.8500358 59.9268364 16.965483 60.3770544 17.3604204 60.5232139 18.6113506 60.9875196 19.1388193 60.8727639 19.1388193 60.8727639 19.1388193 60.8727639 19.1388193 60.6837545 18.6718605 60.1763053 17.7379428 59.1646355 17.397907 58.9236779 16.6310555 58.1470958 16.3775045 57.8891156 15.8039893 57.0177354 15.5097048 56.4360325 14.6796869 54.7965815 14.5872987 53.4811466 13.832254 51.681155 16.5935689 53.2947786 17.939839 55.5188674 19.3982737 58.3220176 19.8481127 59.1816581 20.4532111 60.1733704 21.0096064 60.7210281 21.3815206 61.0849592 21.9089893 61.6408346 21.9089893 61.6408346 21.9089893 61.6408346 21.522907 61.7326979 20.3236315 61.9073261 19.7846512 61.9848083 18.6402773 62.3402281 17.5879964 62.4147753M30.974839 62.6269706C32.4306172 62.8646998 33.7246422 63.2171847 35.0508408 63.6700442 35.4079964 63.7906697 35.9499284 64.0598027 36.3247943 64.2461706 37.2646154 64.7219225 37.8062522 65.0315575 38.613542 65.5847915 39.9134705 66.4731943 41.3113953 67.4335029 42.5741324 68.8921623 42.6001073 68.9179897 42.8046601 69.1357614 42.6691771 69.2420058 42.4212343 69.4339501 41.8131843 69.7092464 41.6083363 69.5313898 40.4583542 68.5109151 40.5129606 68.1842576 39.1150358 66.9260538 38.757585 66.6023312 38.215653 66.1521131 37.5701163 65.7136348 36.9387478 65.2836678 36.1748479 64.8137858 35.4688014 64.4668772 34.8229696 64.1516659 33.8314937 64.0598027 33.2750984 64.0598027L33.2836583 64.0627376C33.0301073 64.0512914 31.5743292 64.045715 31.2372451 64.0656725 28.3805903 64.2605518 28.5216816 64.515597 26.8731574 64.9599452 25.5183274 65.3268113 24.0652057 65.5877264 22.6209392 65.7796707 21.1421377 65.9774849 19.819186 66.0033123 18.4327728 65.8627292 16.5560823 65.6707849 14.500814 65.1489546 12.9674061 64.1660471 14.3682826 64.1889395 15.8095975 64.4583659 17.2048658 64.3494801 17.7898927 64.3063367 18.7438819 64.2177018 19.3897138 64.0198876 20.6695707 63.6301291 21.4045438 63.4751649 22.7623256 63.0997876 23.926771 62.7787064 25.105975 62.6668856 26.3223703 62.5380423 28.0086762 62.3601856 29.5710107 62.4003941 30.974839 62.6269706M57.1023971 15.9918381C57.8084436 16.6882966 58.0188998 16.9462768 58.4283005 17.719924 58.6703399 18.1727834 58.9787925 18.7547797 59.0652773 19.5084694 57.6154025 18.9611052 56.4364937 17.840256 55.367093 16.6049447 54.5772182 15.6907144 53.9662165 14.4756541 53.1878533 13.5699352 54.5598032 14.028371 56.0070215 14.9053276 57.1023971 15.9918381"/>
    <path d="M61.2474687,17.9550117 C60.702585,17.0378466 59.9186136,16.0461343 59.1113238,15.3696333 C59.4891413,16.2727108 60.042585,17.3962014 60.1057513,18.0324939 C60.3076476,20.0185599 60.7170483,21.3885845 61.0485242,23.1915111 C60.1491413,22.5522837 59.1948569,21.5491251 58.2408676,20.8470902 C57.5058945,20.3108788 56.7650179,19.9498826 56.0070215,19.4309873 C55.5542308,19.1216458 55.2631932,18.7230825 54.8856708,18.3506401 C55.3352147,20.2248854 56.9869857,22.1167403 58.1717979,22.9995667 C59.6591592,24.1057413 60.1922361,24.2835979 62.5789803,26.699631 C62.8844812,23.7159828 62.8298748,20.6149374 61.2474687,17.9550117"/>
    <path d="M66.1245617,27.8662651 C66.012102,26.3154489 65.8276208,25.0774961 65.4471467,23.5639535 C65.1820841,22.5094337 64.6112254,20.93866 63.7868157,20.2938562 C63.8877639,20.6751034 63.9397138,21.2512299 63.9798569,21.6380534 C64.1413148,23.234361 63.835814,25.0889423 63.7983274,26.682315 C63.7782558,27.4647669 63.7868157,28.0696556 63.9022272,28.8092576 C64.0261986,29.5805568 63.9252504,30.5291257 63.9252504,30.5291257 C63.9252504,30.5291257 63.4984347,30.0448625 63.1179606,29.4423217 C62.2879428,28.1298217 62.0199284,27.7400632 61.3510733,27.0292235 C60.5210555,26.146397 59.592746,25.3325414 58.5434168,24.6073206 C58.6703399,25.0974536 59.2063685,26.0518923 59.4256798,26.4331395 C59.7226208,26.946165 59.8551521,27.4104707 60.5555903,28.5712349 C61.5385063,30.2024681 61.9765385,30.4231748 63.0663059,32.1659353 C63.3024419,32.5442475 64.2738462,33.9888193 64.5073256,34.4272976 C65.0206261,33.3754193 65.2136673,32.4582541 65.8391324,30.7442559 C66.2370215,29.6665502 66.1765116,28.5911924 66.1245617,27.8662651"/>
    <path d="M67.6408497,35.9261656 C68.2344365,34.3985353 68.5054025,32.9797909 68.7072987,31.3691022 C68.8312701,30.3859012 68.773712,29.0728142 68.4189177,28.1268867 C68.3268247,28.3563981 68.1364401,28.9436773 68.1134168,29.0326057 C67.8483542,29.9130842 67.7388462,30.3342464 67.3725403,31.1827342 C67.0900626,31.8334079 66.7444186,32.3520097 66.3781127,32.9941721 C66.0439803,33.5817447 65.7641592,34.3527504 65.5191682,34.9458995 C64.7437567,36.8403958 64.6861986,38.61456 64.3863059,38.8067979 C64.1702415,38.3510035 64.1038283,37.9151666 64.080805,37.7003298 C63.8502773,35.602443 63.5734079,33.696207 60.9156977,31.2255842 C60.6707066,31.9622512 60.794678,33.3178947 60.9390161,34.0431155 C61.2616369,35.6309118 61.5184347,36.3963411 62.218873,37.9354176 C62.5904919,38.7436969 63.0893292,39.9387998 63.2248122,40.3344281 C63.5793113,41.3631205 63.7032826,41.9019734 63.9282021,42.5095036 C65.1820841,40.4318677 66.7240519,38.2879025 67.6408497,35.9261656"/>
    <path d="M65.5740698,45.484347 C66.4675492,44.2463942 66.7934168,43.6271243 67.3725403,42.3116894 C67.8628175,41.2084498 68.0009571,40.7987338 68.2893381,39.5634224 C68.4448927,38.8898563 68.5313775,38.2793912 68.4103578,37.8808279 C67.7128712,39.1390318 67.2344007,40.5463299 66.3205546,41.589697 C65.5941413,42.4176403 64.8966547,43.1229036 64.3201878,43.8220036 C63.4352683,44.8941329 62.7348301,45.9116726 61.8873971,47.0292934 C61.8150805,46.470483 61.786449,45.8999329 61.9130769,44.9827678 C62.0860465,43.724564 61.9794902,42.6958715 61.7604741,41.4778762 C61.4809481,39.9329299 61.2761002,39.1648591 60.7341682,37.6028902 C60.0771199,38.8898563 60.0771199,40.3772781 59.9127102,41.7417263 C59.592746,44.3896187 60.4257156,47.5452538 60.5901252,48.8636237 C60.63322,49.2075973 60.5727102,50.0645964 60.5555903,50.4000587 C61.8009123,49.422434 62.9104562,48.4365916 63.9828086,47.3673971 C64.4727907,46.880199 65.1416458,46.0748547 65.5740698,45.484347"/>
    <path d="M60.8525313,55.1922099 C61.4201431,54.7851353 62.9449911,53.627306 63.6657961,52.7157172 C64.7177818,51.3888361 64.9486047,50.8212209 65.6401878,49.2935907 C65.7240161,49.1072227 66.1186583,48.2446472 66.1505367,47.6570746 C63.8792039,50.3827426 61.8440072,50.7898172 59.6792308,53.053821 C58.8837478,53.8823513 58.0708497,54.6618683 57.6413775,55.0516268 C57.3099016,55.3553919 56.9005009,55.4443202 56.9005009,55.4443202 C56.9005009,55.4443202 56.9435957,54.8652588 57.1570036,54.4611192 C58.6039267,51.7125587 58.8748927,48.8407312 58.6558766,45.7596433 C57.9988283,46.5708576 57.7883721,47.1123519 57.3704114,47.9006736 C56.9149642,48.7547378 56.6814848,49.2850794 56.4710286,49.8095511 C55.23161,52.870388 54.9086941,56.4072702 54.1447943,58.1843694 C56.5055635,57.3960476 58.3618873,56.9719505 60.8525313,55.1922099"/>
    <path d="M51.1786315 62.4147753C51.8185599 62.4576252 53.0694902 62.4520489 53.7353936 62.343163 57.1109571 61.8072451 60.2500894 59.3738959 61.8295438 56.702524 60.3941324 57.5680344 59.3592665 58.1500307 58.1024329 58.5826392 56.9810823 58.9668213 55.917585 59.081577 54.0497496 59.6116251 52.9168873 59.9268364 51.8014401 60.3770544 51.4065027 60.5232139 50.1552773 60.9875196 49.6278086 60.8727639 49.6278086 60.8727639 49.6278086 60.8727639 49.6278086 60.6837545 50.0947674 60.1763053 51.0286852 59.1646355 51.3690161 58.9236779 52.1355725 58.1470958 52.3864669 57.8891156 52.9629338 57.0177354 53.2569231 56.4360325 54.0842844 54.7965815 54.1763775 53.4811466 54.9346691 51.681155 52.173059 53.2947786 50.8270841 55.5188674 49.3683542 58.3220176 48.9188104 59.1816581 48.3104651 60.1733704 47.7570215 60.7210281 47.3851073 61.0849592 46.8576386 61.6408346 46.8576386 61.6408346 46.8576386 61.6408346 47.2437209 61.7326979 48.4432916 61.9073261 48.9822719 61.9848083 50.1266458 62.3402281 51.1786315 62.4147753M37.7920841 62.6269706C36.3363059 62.8646998 35.0419857 63.2171847 33.7131306 63.6700442 33.3556798 63.7906697 32.8166995 64.0598027 32.4391771 64.2461706 31.499356 64.7219225 30.9603757 65.0315575 30.153381 65.5847915 28.8505009 66.4731943 27.4552326 67.4335029 26.1927907 68.8921623 26.1668157 68.9179897 25.9619678 69.1357614 26.0974508 69.2420058 26.3453936 69.4339501 26.9537388 69.7092464 27.1553399 69.5313898 28.3085689 68.5109151 28.2507156 68.1842576 29.6489356 66.9260538 30.0063864 66.6023312 30.5483184 66.1521131 31.1968068 65.7136348 31.8281753 65.2836678 32.5891234 64.8137858 33.2981216 64.4668772 33.9410018 64.1516659 34.9354293 64.0598027 35.4918247 64.0598027L35.4829696 64.0627376C35.7368157 64.0512914 37.1896422 64.045715 37.5267263 64.0656725 40.3863327 64.2605518 40.2449463 64.515597 41.890814 64.9599452 43.2485957 65.3268113 44.7014222 65.5877264 46.1453936 65.7796707 47.6215385 65.9774849 48.9447853 66.0033123 50.3311986 65.8627292 52.2105456 65.6707849 54.265814 65.1489546 55.799517 64.1660471 54.3983453 64.1889395 52.9599821 64.4583659 51.5620572 64.3494801 50.9740787 64.3063367 50.022746 64.2177018 49.3772093 64.0198876 48.0973524 63.6301291 47.3591324 63.4751649 46.0043023 63.0997876 44.8369052 62.7787064 43.660653 62.6668856 42.4442576 62.5380423 40.7579517 62.3601856 39.1959123 62.4003941 37.7920841 62.6269706"/>
    <polyline points="32.578 .158 30.009 9.634 27.285 9.634 25.582 3.461 23.915 9.634 21.197 9.634 18.629 .158 21.194 .158 22.658 6.68 24.417 .158 26.867 .158 28.536 6.68 30.073 .158 32.578 .158"/>
    <polyline points="41.043 1.99 36.659 1.99 36.659 3.753 40.723 3.753 40.723 5.587 36.659 5.587 36.659 9.634 34.215 9.634 34.215 .158 41.043 .158 41.043 1.99"/>
    <path d="M48.0654741,3.20259392 C48.0654741,2.93610242 47.9934526,2.7068845 47.8494097,2.51494018 C47.702415,2.32006093 47.5350537,2.18798915 47.3417174,2.11080054 C47.0852147,2.00925201 46.8372719,1.95319488 46.5952326,1.94174866 C46.3502415,1.9317699 46.0243739,1.92736751 45.6208766,1.92736751 L45.1999642,1.92736751 L45.1999642,4.75898647 L45.9004025,4.75898647 C46.3213148,4.75898647 46.6643023,4.7331591 46.9352683,4.68179785 C47.2062343,4.63278455 47.4341055,4.52976856 47.6188819,4.37773927 C47.7773882,4.24302605 47.8898479,4.07984403 47.9618694,3.89054114 C48.0309392,3.70417319 48.0654741,3.47495528 48.0654741,3.20259392 Z M50.608068,3.14829774 C50.608068,3.5723949 50.5330948,3.98798077 50.3831485,4.39212042 C50.2332021,4.79919499 50.0197943,5.13729875 49.74322,5.41552996 C49.362746,5.78797238 48.9388819,6.06884504 48.4719231,6.26078936 C48.0049642,6.45302717 47.4225939,6.54782536 46.7277639,6.54782536 L45.1999642,6.54782536 L45.1999642,9.6344896 L42.7411986,9.6344896 L42.7411986,0.157605657 L46.785322,0.157605657 C47.3907156,0.157605657 47.9040161,0.210727862 48.3193202,0.312276386 C48.7343292,0.418520796 49.1032916,0.573191525 49.4232558,0.780984459 C49.8066816,1.03192084 50.1006708,1.35124106 50.3022719,1.74276051 C50.5041682,2.13369298 50.608068,2.60093359 50.608068,3.14829774 L50.608068,3.14829774 Z"/>
    <polyline points="14.668 75.785 12.956 81.283 11.074 81.283 9.947 77.577 8.834 81.283 6.934 81.283 5.234 75.785 7.093 75.785 8.041 79.574 9.223 75.785 10.794 75.785 11.915 79.574 12.849 75.785 14.668 75.785"/>
    <path d="M19.1101878 74.9568985L18.9776565 74.9568985C18.89678 74.934006 18.7958318 74.9081787 18.6692039 74.8797099 18.5452326 74.8480126 18.4097496 74.8336315 18.2654114 74.8336315 17.9168157 74.8336315 17.6833363 74.8967324 17.5593649 75.0199994 17.4383453 75.1432664 17.3748837 75.3839306 17.3748837 75.7393504L17.3748837 75.7854288 18.7412254 75.7854288 18.7412254 76.9775967 17.4353936 76.9775967 17.4353936 81.2825498 15.6569946 81.2825498 15.6569946 76.9775967 14.898703 76.9775967 14.898703 75.7854288 15.6569946 75.7854288 15.6569946 75.6333995C15.6569946 74.9598334 15.8385242 74.4553192 16.195975 74.1201504 16.5560823 73.7846881 17.100966 73.6156362 17.8303309 73.6156362 18.0924419 73.6156362 18.328873 73.6241475 18.5422809 73.6414636 18.7556887 73.6614211 18.9457782 73.6843135 19.1101878 73.7130758L19.1101878 74.9568985M23.223381 78.4937807C23.223381 77.9607977 23.131288 77.5710392 22.9468068 77.3300816 22.7649821 77.0894175 22.4739445 76.9690854 22.0790072 76.9690854 21.911941 76.9690854 21.7389714 76.9949128 21.5630501 77.0465675 21.3871288 77.0952873 21.2171109 77.1668996 21.0559481 77.2614043L21.0559481 80.0243459C21.1740161 80.0701308 21.3009392 80.0988931 21.4364222 80.1132743 21.5689535 80.1247205 21.7014848 80.1332318 21.8340161 80.1332318 22.300975 80.1332318 22.6498658 79.9955836 22.8803936 79.7235158 23.1082648 79.4511544 23.223381 79.0411449 23.223381 78.4937807zM25.0510733 78.4565072C25.0510733 78.9093666 24.9787567 79.3249525 24.8406172 79.6947535 24.7021825 80.0671959 24.5177013 80.3738959 24.2927818 80.6148535 24.0566458 80.8698988 23.7883363 81.0647781 23.4913953 81.1936214 23.1917979 81.3227583 22.8718336 81.3885007 22.5317979 81.3885007 22.2174419 81.3885007 21.9494275 81.354162 21.7304114 81.2884196 21.5111002 81.2223837 21.2864758 81.127879 21.0559481 81.007547L21.0559481 83.3003131 19.2802057 83.3003131 19.2802057 75.7854288 21.0559481 75.7854288 21.0559481 76.3586203C21.3295707 76.1408486 21.6064401 75.9659269 21.8918694 75.8341486 22.1740519 75.6994354 22.4999195 75.6333995 22.8718336 75.6333995 23.5607603 75.6333995 24.0938372 75.8828684 24.477263 76.3870891 24.857737 76.8886684 25.0510733 77.5795505 25.0510733 78.4565072L25.0510733 78.4565072z"/>
    <polygon points="44.01 81.283 45.852 81.283 45.852 79.357 44.01 79.357"/>
    <path d="M50.5564132 79.8723166C50.6715295 79.7320271 50.7580143 79.5629752 50.8158676 79.365161 50.8704741 79.1673468 50.9023524 78.8949855 50.9023524 78.5454355 50.9023524 78.2214194 50.8704741 77.951993 50.8129159 77.7315798 50.7524061 77.5135146 50.6715295 77.3388864 50.5679249 77.2097496 50.4613685 77.0750363 50.3344454 76.9805316 50.1874508 76.925942 50.0404562 76.8687109 49.8789982 76.8399486 49.7089803 76.8399486 49.5389624 76.8399486 49.3860644 76.8631345 49.2535331 76.9118543 49.1210018 76.9576392 48.9940787 77.0465675 48.873059 77.1839222 48.763551 77.3101241 48.6770662 77.4850458 48.6136047 77.7083939 48.5501431 77.9291005 48.5185599 78.2099732 48.5185599 78.5454355 48.5185599 78.8462657 48.5471914 79.1042459 48.602093 79.3249525 48.6566995 79.5456591 48.7402326 79.7235158 48.8470841 79.858229 48.9536404 79.9841374 49.0776118 80.0760007 49.2246064 80.1361667 49.3716011 80.1963327 49.5360107 80.225095 49.7261002 80.225095 49.8846064 80.225095 50.0375045 80.1992677 50.1844991 80.144678 50.3314937 80.0903818 50.4554651 79.9985186 50.5564132 79.8723166zM52.7383095 78.5369242C52.7383095 79.4397082 52.4732469 80.1505479 51.9428265 80.6720846 51.4124061 81.1936214 50.668873 81.4545366 49.7089803 81.4545366 48.7520394 81.4545366 48.0082111 81.1936214 47.4777907 80.6720846 46.9473703 80.1505479 46.6823077 79.4397082 46.6823077 78.5369242 46.6823077 77.6253354 46.9473703 76.9118543 47.4836941 76.392959 48.0141145 75.8740636 48.7576476 75.613442 49.7089803 75.613442 50.6744812 75.613442 51.420966 75.8740636 51.9457782 76.3958939 52.4732469 76.9174307 52.7383095 77.6312053 52.7383095 78.5369242L52.7383095 78.5369242zM57.5117979 77.4647948L57.3532916 77.4647948C57.2783184 77.436326 57.1572987 77.41901 56.9902326 77.4046288 56.8228712 77.3931826 56.6847317 77.3846713 56.5722719 77.3846713 56.3213775 77.3846713 56.0994097 77.4016939 55.9034168 77.4333911 55.7133274 77.4677298 55.5028712 77.5223194 55.2809034 77.5995081L55.2809034 81.2825498 53.505161 81.2825498 53.505161 75.7854288 55.2809034 75.7854288 55.2809034 76.5907731C55.6699374 76.2582458 56.0099732 76.0375391 56.2983542 75.9286533 56.5864401 75.8197674 56.8517979 75.7651778 57.0938372 75.7651778 57.154347 75.7651778 57.2263685 75.7651778 57.3042934 75.7681127 57.3822182 75.7739826 57.451288 75.776624 57.5117979 75.7854288L57.5117979 77.4647948M61.6108229 79.548594L61.6108229 77.0580138C61.5069231 77.0148703 61.3829517 76.9805316 61.2359571 76.9576392 61.0889624 76.9318118 60.9564311 76.9203656 60.8383631 76.9203656 60.374356 76.9203656 60.0254651 77.0521439 59.7919857 77.3186354 59.5585063 77.5851269 59.4430948 77.9549279 59.4430948 78.4336147 59.4430948 78.9610214 59.5440429 79.3308223 59.7400358 79.5400827 59.9389803 79.7493431 60.2329696 79.8523591 60.6220036 79.8523591 60.7979249 79.8523591 60.9738462 79.8235968 61.143864 79.7693006 61.3138819 79.714711 61.4694365 79.6401638 61.6108229 79.548594zM63.3892218 80.6491922C63.3892218 81.1651526 63.3142487 81.600696 63.1645975 81.9531809 63.0176029 82.3056658 62.8127549 82.5809621 62.5447406 82.7787763 62.279678 82.9821668 61.9597138 83.1283263 61.5848479 83.2172546 61.2073256 83.3088244 60.7834615 83.3519678 60.3108945 83.3519678 59.9274687 83.3519678 59.5499463 83.3290754 59.1750805 83.2832905 58.8031664 83.2372121 58.4805456 83.1829159 58.2066279 83.11688L58.2066279 81.7412791 58.425644 81.7412791C58.6417084 81.8272725 58.9041145 81.9044611 59.2155188 81.9734319 59.5266279 82.0450442 59.806449 82.0793828 60.0514401 82.0793828 60.3799642 82.0793828 60.6450268 82.0506205 60.8528265 81.9904545 61.0544275 81.9273535 61.2129338 81.8442951 61.3197853 81.7324743 61.4204383 81.6294583 61.4954114 81.4947451 61.5417531 81.3312696 61.5877996 81.1677941 61.6108229 80.9729148 61.6108229 80.7436969L61.6108229 80.6406809C61.397415 80.8126677 61.1612791 80.9500224 60.9018247 81.0503969 60.6423703 81.1537064 60.3539893 81.2050676 60.0369767 81.2050676 59.2615653 81.2050676 58.6650268 80.9729148 58.246771 80.5086091 57.8261538 80.0443034 57.6186494 79.3393336 57.6186494 78.3934062 57.6186494 77.9405467 57.6818157 77.5481468 57.8087388 77.2182608 57.9356619 76.8886684 58.1171914 76.6022194 58.3506708 76.3586203 58.5667352 76.1294024 58.832093 75.9515457 59.1491055 75.8227024 59.4661181 75.6965004 59.789034 75.6333995 60.1205098 75.6333995 60.4174508 75.6333995 60.6884168 75.6677381 60.9334079 75.736709 61.1783989 75.8083212 61.4003667 75.9057608 61.5993113 76.0290278L61.6627728 75.7854288 63.3892218 75.7854288 63.3892218 80.6491922 63.3892218 80.6491922zM31.2838819 81.2825498L29.5140429 81.2825498 29.5140429 80.6779545C29.1881753 80.924195 28.8885778 81.1105629 28.6176118 81.2396998 28.3466458 81.3685432 28.0237299 81.4316441 27.648864 81.4316441 27.040814 81.4316441 26.5738551 81.2596573 26.2450358 80.9101073 25.9165116 80.5661337 25.7523971 80.0501733 25.7523971 79.3707374L25.7523971 75.8053863 27.5222361 75.8053863 27.5222361 78.522543C27.5222361 78.7975458 27.5337478 79.0270572 27.5508676 79.2131317 27.5682826 79.3965647 27.6113775 79.548594 27.674839 79.6659912 27.7383005 79.7863232 27.8306887 79.8752516 27.9573166 79.9298412 28.081288 79.9870723 28.260161 80.0128997 28.4847853 80.0128997 28.6347317 80.0128997 28.802093 79.9870723 28.9836225 79.9298412 29.1681038 79.8752516 29.344025 79.795128 29.5140429 79.6888836L29.5140429 75.8053863 31.2838819 75.8053863 31.2838819 81.2825498M37.2365742 79.5456591C37.2365742 80.1132743 36.9827281 80.5661337 36.4726744 80.9127488 35.9623256 81.2596573 35.2615921 81.4316441 34.3766726 81.4316441 33.8866905 81.4316441 33.4427549 81.3885007 33.0422093 81.2969309 32.6443202 81.2050676 32.324356 81.1049866 32.0823166 80.9931658L32.0823166 79.551529 32.2437746 79.551529C32.3332111 79.611695 32.433864 79.6803723 32.5492755 79.7519846 32.6673435 79.8265318 32.8317531 79.9040139 33.0422093 79.9900073 33.2266905 80.0645544 33.434195 80.1276554 33.6647227 80.1819516 33.8982021 80.2365413 34.1461449 80.2623686 34.4115027 80.2623686 34.7571467 80.2623686 35.0139445 80.225095 35.1839624 80.1476129 35.3480769 80.0730657 35.4319052 79.95831 35.4319052 79.8095092 35.4319052 79.674796 35.382907 79.5799978 35.2849106 79.5198317 35.186619 79.4596657 34.9994812 79.4024346 34.7255635 79.3452035 34.5959839 79.3164412 34.4171109 79.284744 34.1951431 79.2504053 33.9702236 79.2160666 33.7656708 79.1758581 33.5811896 79.1271383 33.0826476 78.99536 32.7107335 78.7949044 32.4713506 78.5196081 32.2293113 78.2446053 32.1082916 77.9032731 32.1082916 77.4935571 32.1082916 76.9661505 32.3562343 76.5276722 32.8606798 76.1781222 33.3621735 75.8282787 34.0481485 75.653357 34.9159481 75.653357 35.3280054 75.653357 35.7232379 75.6965004 36.1007603 75.7795589 36.4812343 75.8626174 36.7725671 75.9515457 36.9856798 76.0460504L36.9856798 77.4304562 36.8330769 77.4304562C36.5736225 77.2499581 36.2737299 77.1067336 35.9393023 76.9949128 35.6048748 76.8801571 35.2645438 76.8258609 34.9215564 76.8258609 34.6390787 76.8258609 34.3970394 76.8631345 34.203703 76.9432581 34.0077102 77.0207402 33.9126655 77.129626 33.9126655 77.2728505 33.9126655 77.4046288 33.9560555 77.5020684 34.0451968 77.5710392 34.1316816 77.6397166 34.339186 77.7083939 34.6680054 77.7744298 34.8465832 77.8117034 35.0396243 77.846042 35.247424 77.8803807 35.4549284 77.9150129 35.6656798 77.9578628 35.8731843 78.0095176 36.3371914 78.1298496 36.6801789 78.318859 36.9050984 78.5768392 37.1241145 78.8348194 37.2365742 79.1588355 37.2365742 79.5456591M41.2399642 79.8494242L41.2399642 78.7115524C41.0008766 78.7318034 40.7443739 78.7576308 40.4645528 78.7919695 40.1879785 78.8263081 39.9775224 78.8665167 39.8334794 78.9123015 39.6575581 78.9665977 39.5220751 79.0470148 39.4270304 79.1529657 39.3346422 79.2562752 39.2885957 79.3965647 39.2885957 79.5685515 39.2885957 79.6803723 39.3001073 79.774877 39.3201789 79.8438478 39.3375939 79.9154601 39.3865921 79.9841374 39.464517 80.0501733 39.5394902 80.1132743 39.6315832 80.1619941 39.735483 80.1933978 39.8390877 80.225095 40.0034973 80.2391827 40.2254651 80.2391827 40.4040429 80.2391827 40.5829159 80.2019091 40.7614937 80.1332318 40.9430233 80.0616195 41.1044812 79.9671148 41.2399642 79.8494242zM41.2399642 80.7008469C41.1478712 80.7724592 41.0295081 80.8584526 40.8884168 80.9588271 40.7470304 81.0618431 40.6144991 81.1393252 40.4905277 81.1994913 40.3175581 81.2769734 40.1389803 81.3342045 39.9515474 81.3714781 39.7641145 81.4087517 39.5595617 81.4287092 39.3375939 81.4287092 38.8160286 81.4287092 38.3779964 81.2681686 38.0234973 80.944446 37.6716547 80.6233648 37.4930769 80.2136488 37.4930769 79.7120695 37.4930769 79.3105713 37.5851699 78.9868487 37.7640429 78.7318034 37.9426208 78.4793996 38.1994186 78.278944 38.5279428 78.1327845 38.8564669 77.9866251 39.2596691 77.8803807 39.7469946 77.8202147 40.2284168 77.7571137 40.7299106 77.7113288 41.2514758 77.6825665L41.2514758 77.6540977C41.2514758 77.3529741 41.1275045 77.1440072 40.8769052 77.0263165 40.6289624 76.9118543 40.2629517 76.8543297 39.7785778 76.8543297 39.4875403 76.8543297 39.1790877 76.9059845 38.847907 77.0092939 38.5164311 77.109375 38.28 77.189792 38.1386136 77.2440882L37.9744991 77.2440882 37.9744991 75.9227834C38.161932 75.8740636 38.4644812 75.8168325 38.8853936 75.7507966 39.3060107 75.6821193 39.7266279 75.6507156 40.1475403 75.6507156 41.1508229 75.6507156 41.8772361 75.8024514 42.3238283 76.1120863 42.7677639 76.4187863 42.9926834 76.9001146 42.9926834 77.5566581L42.9926834 81.2825498 41.2399642 81.2825498 41.2399642 80.7008469 41.2399642 80.7008469z"/>
  </g>
</svg>
