<svg xmlns="http://www.w3.org/2000/svg" width="315" height="82" viewBox="0 0 315 82">
  <g fill="#FFFFFF" fill-rule="evenodd">
    <path d="M147.02891 79.1444639C147.514803 79.5077694 148.185312 79.6637972 148.782201 79.6637972 149.680366 79.6637972 150.498115 79.1262417 150.498115 77.9896306 150.498115 76.970325 149.996366 76.3940472 148.281584 75.3212139 146.672136 74.3189917 145.404738 73.3919361 145.404738 71.4729083 145.404738 69.2805472 147.158029 68.0699083 149.266961 68.0699083 150.666875 68.0699083 151.432523 68.319325 152.312566 68.3979083 152.160796 69.088075 152.050932 70.0492972 151.994301 71.1847694 151.902559 71.2838528 151.450645 71.2838528 151.378158 71.2018528 151.21053 70.0492972 151.006659 69.4923806 150.555878 69.1677972 150.147004 68.8614361 149.680366 68.7407139 149.101599 68.7407139 148.016552 68.7407139 147.382287 69.5721028 147.382287 70.4946028 147.382287 71.3761028 147.811548 71.9147972 148.57833 72.4557694 149.3621 72.972825 149.996366 73.300825 150.74276 73.7814361 151.976179 74.5695472 152.667075 75.4111861 152.667075 76.7972139 152.667075 78.7788806 151.098401 80.4268528 148.297441 80.4268528 147.065154 80.4268528 145.925742 80.065825 145.477226 79.8164083 145.291477 79.5259917 144.936968 77.472575 144.897326 76.7972139 144.957355 76.683325 145.42286 76.5477972 145.516867 76.6047417 145.906487 77.8746028 146.353871 78.6444917 147.02891 79.1444639zM171.445404 78.9498278C172.37868 78.04555 172.715067 76.3941611 172.715067 74.70405 172.715067 72.7223833 172.173676 70.6644111 170.90288 69.6063833 170.326378 69.12805 169.706837 68.8740778 168.906077 68.8740778 168.346565 68.8740778 167.801776 69.0301056 167.392902 69.3216611 166.25349 70.1074944 165.804973 71.7839389 165.804973 73.6460222 165.804973 75.4887444 166.369016 77.7221056 167.766665 78.8746611 168.346565 79.3176889 168.978565 79.5671056 169.821232 79.5671056 170.416988 79.5671056 171.034264 79.3381889 171.445404 78.9498278M164.77769 78.6821889C163.621289 77.4316889 163.192027 75.7575222 163.192027 74.2029389 163.192027 72.7041611 163.621289 71.2019667 164.721059 70.0926889 165.766465 68.8740778 167.485776 68.0700222 169.447468 68.0700222 173.294966 68.0700222 175.309891 70.8363833 175.309891 74.0469111 175.309891 75.5479667 174.954249 76.9112167 174.170479 77.9692444 172.976701 79.6217722 171.127138 80.4269667 169.202823 80.4269667 167.204887 80.4269667 165.766465 79.7561611 164.77769 78.6821889M194.613187 69.2804333C193.958535 68.91485 193.174764 68.8009611 192.389861 68.8009611 190.166535 68.8009611 188.729244 70.5502944 188.729244 73.9544333 188.729244 76.7207944 190.038549 79.4677944 193.16004 79.4677944 193.772786 79.4677944 194.502191 79.3379611 195.044714 78.83685 195.506822 78.4336833 196.031223 77.7013778 196.46275 76.9314889 196.58847 76.9554056 196.906735 77.1467389 196.984886 77.2936556 196.759495 78.1068222 195.993847 79.6215444 195.490965 79.9654889 194.912198 80.1636556 193.976657 80.4267389 192.67075 80.4267389 188.507252 80.4267389 186.081187 78.2400722 186.081187 74.1446278 186.081187 72.01035 187.049574 69.9728778 189.105273 68.89435 190.089517 68.3567944 191.328599 68.0709333 192.893875 68.0709333 194.385531 68.0709333 195.805832 68.3567944 196.648499 68.3989333 196.535237 69.0298778 196.36761 70.5502944 196.347223 71.5320167 196.277001 71.6265444 195.717488 71.6834889 195.697101 71.5901 195.506822 70.3202389 195.339194 69.7063778 194.613187 69.2804333M208.138214 68.35725C208.715848 68.35725 209.614013 68.4176111 210.788536 68.4176111 212.320966 68.4176111 213.051504 68.35725 213.458113 68.35725 213.515877 68.4369722 213.536264 68.8743056 213.458113 68.9745278 213.069626 69.0303333 212.730973 69.0690556 212.491991 69.1465 212.078586 69.30025 212.042343 69.5713056 212.025353 70.1270833 211.986844 70.7819444 211.986844 72.242 211.986844 73.9138889 211.986844 76.08575 211.986844 77.6403333 212.025353 78.3532778 212.042343 78.7780833 212.078586 79.1801111 212.617712 79.3179167 212.86349 79.3908056 213.295016 79.4488889 213.683504 79.5081111 213.759389 79.6060556 213.703891 80.0843889 213.608751 80.1424722 212.956364 80.1208333 212.135217 80.0843889 210.939174 80.0843889 209.46111 80.0843889 208.790601 80.1424722 208.115561 80.1424722 208.024952 80.0650278 208.024952 79.5866944 208.115561 79.5081111 208.507447 79.46825 208.773611 79.4295278 208.994472 79.3748611 209.503016 79.2575556 209.593626 79.0457222 209.649124 78.3942778 209.688766 77.7792778 209.688766 75.6427222 209.688766 73.7612778 209.688766 71.8775556 209.688766 70.8366111 209.649124 69.9938333 209.614013 69.5713056 209.516608 69.2808889 209.166629 69.1681389 208.846099 69.0690556 208.567475 69.0303333 208.115561 68.9745278 208.047604 68.8743056 208.063461 68.4369722 208.138214 68.35725M224.581087 68.35725C225.233474 68.35725 226.337775 68.4176111 227.291438 68.4176111L231.022277 68.4176111C231.734692 68.4176111 232.75971 68.39825 233.319223 68.3196667 233.36113 68.3196667 233.396241 68.35725 233.396241 68.39825 233.263725 68.9745278 233.154994 70.2455278 233.098363 71.2021944 233.003223 71.299 232.518463 71.3195 232.423323 71.2602778 232.347438 70.5883333 232.259094 70.2238889 232.124313 69.9175278 231.958951 69.5155 231.699581 69.3765556 231.328083 69.3401111 230.875037 69.30025 228.897488 69.30025 228.635854 69.3401111 228.519194 69.3571944 228.429718 69.5883889 228.429718 69.6851944 228.408198 70.8798889 228.408198 72.3763889 228.429718 73.5323611 228.429718 73.60525 228.485216 73.6861111 228.536184 73.6861111 229.120614 73.6861111 230.465029 73.7020556 231.077775 73.64625 231.474191 73.62575 231.622563 73.431 231.734692 73.0118889 231.810578 72.7989167 231.847954 72.5529167 231.898922 72.2989444 232.015581 72.2215 232.518463 72.2590833 232.609072 72.3399444 232.573961 72.7829722 232.498076 73.5505833 232.498076 74.1826667 232.498076 74.7794444 232.518463 75.5470556 232.533187 76.0458889 232.440313 76.1221944 231.938563 76.1438333 231.847954 76.0686667 231.715438 75.5276944 231.734692 75.5276944 231.657675 75.2782778 231.567065 75.0117778 231.411897 74.7794444 231.022277 74.7395833 230.615667 74.7042778 229.139868 74.7042778 228.536184 74.7042778 228.485216 74.7042778 228.429718 74.8193056 228.429718 74.8546111 228.408198 75.9331389 228.429718 77.4729167 228.429718 78.3942778 228.429718 78.7370833 228.614334 79.0081389 228.839725 79.0650833 229.211223 79.1448056 230.3529 79.2006111 231.302033 79.2006111 232.142434 79.1801111 232.385947 79.0833056 232.778965 78.6038333 233.115352 78.2018056 233.472126 77.5082222 233.753015 76.8556389 233.860614 76.8374167 234.310262 76.9900278 234.38275 77.1050556 234.289875 77.5856667 233.860614 79.2404722 233.567266 79.8554722 233.472126 80.0456667 233.36113 80.1629722 232.518463 80.1629722 230.949789 80.1629722 229.306363 80.0843889 227.324284 80.0843889 226.26189 80.0843889 225.04999 80.1424722 224.116714 80.1424722 224.058951 80.0263056 224.058951 79.6060556 224.116714 79.5081111 224.731725 79.4488889 225.216485 79.3748611 225.492843 79.2951389 225.871137 79.2006111 226.038764 78.9682778 226.056886 78.3168333 226.114649 77.4729167 226.114649 75.8773333 226.114649 73.7020556 226.114649 72.1622778 226.094262 70.5883333 226.056886 70.0154722 226.020642 69.4152778 225.910778 69.2649444 225.53475 69.1465 225.253861 69.0690556 224.934463 69.01325 224.54371 68.9745278 224.47009 68.8743056 224.508599 68.4176111 224.581087 68.35725M253.546847 80.1421306C252.874073 80.1421306 251.845657 80.0840472 250.617901 80.0840472 249.029973 80.0840472 248.058188 80.1421306 247.477156 80.1421306 247.388811 80.045325 247.403535 79.6057139 247.477156 79.5259917 247.983435 79.4679083 248.468195 79.4086861 248.735492 79.338075 249.250833 79.2173528 249.385614 78.9497139 249.420725 78.0830194 249.494346 76.2995194 249.478489 72.552575 249.478489 69.4923806 249.478489 69.4536583 249.420725 69.3409083 249.385614 69.3409083 249.049227 69.3215472 247.888295 69.3215472 247.388811 69.3409083 247.01165 69.3568528 246.751148 69.5151583 246.505371 69.9729917 246.28451 70.3955194 246.040998 70.9922972 245.817872 71.6687972 245.741987 71.7394083 245.200596 71.6255194 245.171148 71.4934083 245.314991 70.7064361 245.481485 69.108575 245.534718 68.2646583 245.534718 68.2236583 245.667234 68.1279917 245.724998 68.1484917 246.231277 68.3569083 246.848553 68.4172694 247.366159 68.4172694L254.068984 68.4172694C255.039636 68.4172694 255.58669 68.3409639 256.088439 68.165575 256.143937 68.165575 256.21869 68.2646583 256.239077 68.3022417 256.032941 69.0687139 255.869844 70.4342417 255.789428 71.6255194 255.716941 71.7029639 255.174417 71.7234639 255.115521 71.6471583 255.039636 70.9512972 254.927507 70.3761583 254.763277 69.9342694 254.610374 69.5151583 254.405371 69.3762139 254.050862 69.3409083 253.416596 69.2999083 252.205829 69.3215472 251.870575 69.3409083 251.829801 69.3568528 251.790159 69.4149361 251.790159 69.4923806 251.790159 72.2416583 251.77317 77.2402417 251.829801 78.354075 251.870575 78.8369639 251.958919 79.1615472 252.354202 79.2947972 252.650948 79.4086861 252.949958 79.4291861 253.606876 79.5259917 253.674833 79.6057139 253.639722 80.065825 253.546847 80.1421306M266.950231 68.35725C267.549385 68.35725 268.503048 68.4176111 269.452181 68.4176111 270.496453 68.4176111 271.752525 68.3788889 272.04927 68.35725 272.121758 68.4176111 272.142145 68.8948056 272.067392 68.9745278 271.879378 68.9938889 271.599622 69.0690556 271.467105 69.1089167 271.186216 69.1875 271.208869 69.3936389 271.318733 69.6635556 271.710618 70.5313889 273.110532 73.31825 273.411808 73.8774444 273.449184 73.8956667 273.502417 73.8956667 273.542059 73.8774444 274.154804 72.8194167 275.314604 70.5678333 275.577371 69.8195833 275.670245 69.454 275.635134 69.2421667 275.184353 69.1465 274.904596 69.0690556 274.664482 69.0303333 274.252209 68.9745278 274.196711 68.839 274.232955 68.39825 274.305442 68.35725 274.811722 68.35725 275.635134 68.4176111 276.493657 68.4176111 277.445055 68.4176111 277.969457 68.35725 278.566346 68.35725 278.638833 68.39825 278.638833 68.8948056 278.566346 68.9745278 278.26507 69.0303333 277.94907 69.0690556 277.742933 69.1465 277.199277 69.3218889 276.920654 69.5496667 276.400783 70.3958611 275.670245 71.6065 274.476467 73.8182222 274.06646 74.6860556 273.931679 74.9525556 273.854661 75.1826111 273.854661 75.5106111 273.854661 76.3761667 273.878446 77.2041389 273.894303 78.1790278 273.918087 78.8361667 273.987177 79.2176944 274.513844 79.3543611 274.811722 79.4090278 275.143578 79.46825 275.597758 79.5263333 275.653256 79.6060556 275.614747 80.0843889 275.539994 80.1424722 274.960095 80.1424722 273.710819 80.0843889 272.611048 80.0843889 271.169227 80.0843889 270.517973 80.1424722 269.805557 80.1424722 269.73307 80.0843889 269.73307 79.5866944 269.805557 79.5263333 270.334489 79.46825 270.702589 79.4090278 270.983478 79.3384167 271.485227 79.2176944 271.557715 78.8179444 271.557715 78.2553333 271.599622 77.3556111 271.580367 76.6039444 271.599622 75.77825 271.599622 75.4889722 271.504482 75.1256667 271.374231 74.8193056 270.983478 73.9321111 269.921084 71.8775556 269.229055 70.6099722 268.556281 69.3936389 268.315034 69.2421667 267.773643 69.1089167 267.512009 69.0303333 267.268496 68.9938889 266.932109 68.9563056 266.852826 68.8606389 266.894733 68.4369722 266.950231 68.35725M153.838994 59.7377972C153.116384 59.6318806 152.323553 59.524825 151.879567 59.3858806 150.881732 59.135325 150.812642 58.3904917 150.777531 57.6160472 150.710707 56.3029083 150.710707 53.4351861 150.710707 49.4354083 150.710707 46.3558528 150.710707 43.6635194 150.777531 42.4597139 150.812642 41.4324361 150.881732 40.9392972 151.63832 40.6557139 152.084571 40.5133528 152.705244 40.4438806 153.425589 40.3379639 153.5649 40.162575 153.529789 39.342575 153.425589 39.2059083 152.671266 39.2059083 151.327983 39.3072694 148.510033 39.3072694 147.138434 39.3072694 145.977503 39.2651306 145.037431 39.2366583 144.800714 39.5384639 144.587782 39.9325194 144.377115 40.4450194 144.791653 40.5087972 145.143897 40.5805472 145.515395 40.6910194 146.17118 40.9051306 146.34447 41.4324361 146.412427 42.2137139 146.481517 43.7728528 146.481517 45.6816306 146.481517 49.151825 146.481517 52.6208806 146.481517 56.5511861 146.412427 57.6832417 146.311624 58.8870472 146.138334 59.2776861 145.208456 59.4895194 144.796184 59.596575 144.313689 59.6637694 143.594477 59.7377972 143.420054 59.8801583 143.420054 60.7627972 143.594477 60.9040194 144.831295 60.9040194 146.068112 60.8015194 148.786391 60.8015194 150.9848 60.8015194 152.49571 60.8698528 153.700814 60.9040194 153.871839 60.8015194 153.97604 59.9131861 153.838994 59.7377972M156.755708 39.2054528C158.028768 39.2054528 159.026604 39.3068139 161.674661 39.3068139 164.083736 39.3068139 165.386245 39.2054528 166.488281 39.2054528 166.625328 39.3421194 166.625328 40.1621194 166.488281 40.3375083 165.594647 40.4753139 165.182374 40.5493417 164.80408 40.6552583 164.012381 40.904675 163.908181 41.2930361 163.875335 42.1415083 163.840224 42.9558139 163.805113 45.506925 163.805113 49.012425 163.771134 52.835675 163.840224 56.7272583 163.908181 57.8604528 163.942159 58.4959528 164.28874 58.8182583 164.5617 58.9230361 165.386245 59.1348694 167.830432 59.1713139 169.377586 59.1348694 170.067349 59.1348694 170.68689 58.8547028 171.369858 57.9276472 172.026776 57.0097028 172.9895 55.2045639 173.571665 53.7900639 173.778933 53.7160361 174.672568 53.9996194 174.776768 54.250175 174.604611 55.2763139 173.50484 59.241925 172.745987 60.5163417 172.639521 60.8010639 172.265758 60.9753139 170.923607 60.9753139 168.343507 60.9753139 163.908181 60.8010639 161.501371 60.8010639 159.196496 60.8010639 157.442073 60.9047028 156.380811 60.9047028 156.243765 60.7304528 156.243765 59.8797028 156.380811 59.7373417 157.478317 59.6325639 157.822632 59.5961194 158.476152 59.4195917 159.162518 59.2054806 159.369786 58.8182583 159.438876 57.9663694 159.541944 57.120175 159.577055 53.399425 159.577055 49.4748139 159.577055 45.506925 159.611034 43.5241194 159.509098 42.3203139 159.47512 41.3636472 159.335808 40.8682306 158.476152 40.6552583 158.06388 40.5128972 157.309557 40.443425 156.652639 40.3375083 156.520123 40.1268139 156.584682 39.3068139 156.755708 39.2054528"/>
    <path d="M182.793768 58.6745306C183.585467 59.3453361 185.096377 59.561725 185.990011 59.561725 187.470341 59.561725 188.881581 59.0651694 190.15351 57.5811972 191.494528 55.9457528 192.351918 53.7898361 192.351918 50.0736417 192.351918 46.7423917 191.151345 43.5591972 188.74227 41.8576972 187.401252 40.9044472 185.680807 40.5491139 183.826714 40.5491139 183.276262 40.5491139 182.691832 40.6185861 182.484563 40.7245028 182.346384 40.7962528 182.209338 41.0456694 182.176492 41.2575028 182.141381 42.4601694 182.141381 46.8186972 182.141381 50.0030306 182.141381 53.2932806 182.141381 56.4821694 182.241051 57.4376972 182.241051 57.7918917 182.484563 58.3590583 182.793768 58.6745306M174.953796 39.205225C175.677538 39.205225 178.771847 39.3065861 179.771947 39.3065861 182.209338 39.2724194 183.413309 39.1653639 186.268635 39.1653639 189.328965 39.1653639 191.697266 39.9147528 193.55589 41.470475 195.792807 43.3826694 197.000176 46.3198639 197.000176 49.5417806 197.000176 53.6861972 195.308047 56.4821694 193.247818 58.2166972 190.735675 60.3042806 187.711589 61.0502528 184.065696 61.0502528 182.004334 61.0502528 179.181854 60.9409194 176.020721 60.904475L174.575503 60.904475C174.440721 60.6937806 174.440721 59.807725 174.575503 59.7382528 175.506513 59.6630861 176.055832 59.561725 176.677639 59.4193639 177.365137 59.2416972 177.703789 58.7815861 177.771746 57.7554472 177.878212 56.3728361 177.878212 53.3650306 177.878212 49.5759472 177.878212 46.3563083 177.878212 43.8051972 177.80799 42.2836417 177.703789 41.2928083 177.532764 40.9773361 176.74333 40.691475 176.294814 40.5491139 175.506513 40.4090306 174.851861 40.3372806 174.749925 40.1618917 174.819015 39.3453083 174.953796 39.205225M198.34731 39.2054528C199.546751 39.2054528 201.577533 39.3068139 203.330823 39.3068139L210.211468 39.3068139C211.513977 39.3068139 213.405447 39.2726472 214.438393 39.1325639 214.505217 39.1325639 214.575439 39.2054528 214.575439 39.2726472 214.334192 40.3375083 214.131454 42.6722306 214.027253 44.4420639 213.856228 44.6197306 212.960328 44.6538972 212.790436 44.5525361 212.653389 43.3088694 212.478966 42.6380639 212.239984 42.073175 211.929647 41.3283417 211.444887 41.0800639 210.759654 41.0094528 209.932844 40.9388417 206.289217 40.9388417 205.804457 41.0094528 205.598321 41.0447583 205.428429 41.4695639 205.428429 41.6460917 205.397848 43.8441472 205.397848 46.603675 205.428429 48.7265639 205.428429 48.868925 205.532629 49.012425 205.63683 49.012425 206.700357 49.012425 209.176257 49.0465917 210.314536 48.9418139 211.033748 48.9030917 211.310106 48.5545917 211.513977 47.7710361 211.653289 47.3849528 211.722378 46.9225639 211.823181 46.4613139 212.031583 46.3200917 212.960328 46.3929806 213.131353 46.5330639 213.062264 47.3473694 212.925217 48.7652861 212.925217 49.9337861 212.925217 51.0282583 212.960328 52.4473139 212.992042 53.3652583 212.818751 53.5076194 211.892271 53.542925 211.722378 53.399425 211.483396 52.4097306 211.513977 52.4097306 211.379196 51.9473417 211.208171 51.4553417 210.934077 51.0282583 210.211468 50.9576472 209.452615 50.8858972 206.733203 50.8858972 205.63683 50.8858972 205.532629 50.8858972 205.428429 51.1000083 205.428429 51.1683417 205.397848 53.1522861 205.428429 55.9847028 205.428429 57.683925 205.428429 58.3239806 205.773877 58.8182583 206.185016 58.9230361 206.872515 59.0642583 208.97012 59.1713139 210.722278 59.1713139 212.27283 59.1348694 212.721346 58.9583417 213.442823 58.0722861 214.062364 57.3274528 214.712486 56.0575917 215.227827 54.854925 215.436228 54.8162028 216.258508 55.100925 216.400085 55.3150361 216.225662 56.1965361 215.436228 59.241925 214.885776 60.3739806 214.712486 60.7304528 214.505217 60.9411472 212.960328 60.9411472 210.067626 60.9411472 207.04807 60.8010639 203.399913 60.8010639 201.439353 60.8010639 199.205834 60.9047028 197.486522 60.9047028 197.382321 60.6940083 197.382321 59.9138694 197.486522 59.7373417 198.621404 59.6325639 199.515038 59.4902028 200.030378 59.3455639 200.721275 59.1713139 201.030479 58.749925 201.059927 57.5438417 201.16526 55.9847028 201.16526 53.0440917 201.16526 49.0465917 201.16526 46.214175 201.132414 43.3088694 201.059927 42.2531194 200.993103 41.1495361 200.784701 40.8682306 200.101733 40.6552583 199.584128 40.5128972 198.997432 40.4092583 198.277088 40.3375083 198.141174 40.1621194 198.203468 39.3068139 198.34731 39.2054528M229.193441 49.5077278C228.5739 49.8243389 226.992767 49.9336722 225.240609 49.8607833 225.136409 49.8607833 225.032208 49.7582833 225.032208 49.6136444 225.032208 45.5762833 225.032208 42.2530056 225.101297 41.3282278 225.101297 41.1494222 225.240609 40.8681167 225.342545 40.7963667 225.616638 40.6562833 226.136509 40.6187 226.375491 40.6187 229.365599 40.6187 230.982975 42.63795 230.982975 45.7197833 230.982975 47.9873111 230.1539 49.0123111 229.193441 49.5077278M262.621484 39.2053389C262.004208 39.2053389 260.386832 39.3067 258.708294 39.3067 256.538201 39.3067 254.95367 39.2053389 254.095147 39.2053389 253.993211 39.2725333 253.95357 40.1938944 254.062301 40.3373944 254.95367 40.4433111 255.573211 40.5492278 256.227864 40.7246167 257.290258 41.0093389 257.603993 41.5389222 257.705928 42.7097 257.909799 45.0808667 257.842975 50.3208944 257.842975 54.8548111 257.812394 54.8548111 257.773885 54.8855611 257.741039 54.8855611 255.644566 52.3697556 249.972423 45.0467 247.048007 41.1847278 246.255176 40.1938944 245.945971 39.7349222 245.773814 39.2360889 245.361541 39.2725333 244.467907 39.3067 243.541427 39.3067 241.50838 39.3067 239.827577 39.1654778 238.725541 39.2053389 238.621341 39.3067 238.588495 40.2292 238.694961 40.3704222 239.725642 40.4752 240.41314 40.6562833 241.063262 40.97745 241.853828 41.3282278 242.194746 42.3202 242.194746 43.0638944 242.165297 49.0123111 242.058832 55.4550056 241.853828 57.3273389 241.749627 58.5345611 241.406444 59.09945 240.649857 59.34545 240.243247 59.4969222 239.832108 59.5755056 239.364337 59.6449778 238.212466 59.4422556 237.806989 59.1643667 236.754789 58.1108944 235.072853 56.3718111 232.082746 51.9142 231.257068 50.3926444 231.221957 50.3208944 231.221957 50.1443667 231.288781 50.1056444 233.493986 49.1523944 235.281254 47.4896167 235.281254 44.6537833 235.281254 41.5058944 233.044337 39.2360889 228.884237 39.2360889 227.062989 39.2360889 225.203233 39.3067 222.627663 39.3067 221.386315 39.3067 218.911548 39.2053389 218.085871 39.2053389 217.913713 39.2725333 217.844624 40.1267 218.015649 40.3373944 218.672566 40.4091444 219.327219 40.5492278 219.767806 40.6562833 220.492681 40.8362278 220.767907 41.2929222 220.805283 42.2530056 220.875505 43.66295 220.875505 46.28695 220.875505 49.7582833 220.875505 51.8743389 220.838129 56.6542556 220.767907 57.6838111 220.703348 58.8545889 220.45757 59.3147 219.703247 59.4900889 219.292108 59.5960056 218.739391 59.6632 218.085871 59.7748111 217.880867 59.8795889 217.946559 60.7633667 218.085871 60.9045889 218.807348 60.9045889 220.322789 60.80095 222.968581 60.80095 225.552079 60.80095 227.200036 60.9045889 227.921513 60.9045889 228.08914 60.8339778 228.16276 59.8431444 227.990602 59.7395056 227.095835 59.63245 226.715276 59.5618389 226.136509 59.4194778 225.379921 59.2053667 225.17152 58.8181444 225.101297 57.7179778 225.065054 56.3387833 225.032208 53.78995 225.032208 51.6670611 225.032208 51.5953111 225.136409 51.4552278 225.17152 51.4552278L226.545384 51.4552278C226.956523 51.4916722 227.269125 51.6670611 227.510373 52.0918667 228.6781 53.9664778 230.432523 57.1508111 231.804122 58.8181444 232.148437 59.2771167 232.770244 59.9137556 233.493986 60.2668111 234.833871 60.9410333 238.096939 61.0856722 239.953297 60.9410333 239.969154 60.9296444 246.322 60.9045889 247.426301 60.9045889 247.598459 60.7303389 247.598459 59.8795889 247.494258 59.7372278 246.635735 59.63245 246.017326 59.5253944 245.465742 59.38645 244.501885 59.1712 244.019391 58.6359222 243.950301 57.1508111 243.847233 55.5244778 243.81552 48.1251167 243.884609 44.2995889 243.884609 44.2642833 243.98428 44.1982278 244.052237 44.2995889 246.255176 47.2071722 254.544796 58.2156722 256.504222 61.0503667 257.084122 60.9752 259.082057 60.9410333 259.595133 61.0127833 259.565685 59.7748111 259.530573 57.7179778 259.530573 56.1258111 259.565685 50.8857833 259.595133 45.7562278 259.800136 42.7461444 259.941713 41.4318667 260.24752 40.97745 261.213642 40.6562833 261.65876 40.5139222 262.07443 40.4433111 262.621484 40.3373944 262.726817 40.1938944 262.726817 39.3067 262.621484 39.2053389M264.600958 39.2054528C265.803796 39.2054528 267.833445 39.3068139 269.58447 39.3068139L276.465115 39.3068139C277.767624 39.3068139 279.663624 39.2726472 280.694305 39.1325639 280.763395 39.1325639 280.833617 39.2054528 280.833617 39.2726472 280.587839 40.3375083 280.387366 42.6722306 280.278635 44.4420639 280.10761 44.6197306 279.21171 44.6538972 279.039553 44.5525361 278.907037 43.3088694 278.734879 42.6380639 278.491366 42.073175 278.183295 41.3283417 277.7008 41.0800639 277.017832 41.0094528 276.18989 40.9388417 272.542865 40.9388417 272.06037 41.0094528 271.854234 41.0447583 271.684341 41.4695639 271.684341 41.6460917 271.64923 43.8441472 271.64923 46.603675 271.684341 48.7265639 271.684341 48.868925 271.788542 49.012425 271.888212 49.012425 272.958535 49.012425 275.432169 49.0465917 276.568184 48.9418139 277.287395 48.9030917 277.561488 48.5545917 277.767624 47.7710361 277.906936 47.3849528 277.978291 46.9225639 278.081359 46.4613139 278.287495 46.3200917 279.21171 46.3929806 279.385001 46.5330639 279.315911 47.3473694 279.178865 48.7652861 279.178865 49.9337861 279.178865 51.0282583 279.21171 52.4473139 279.252485 53.3652583 279.074664 53.5076194 278.145918 53.542925 277.978291 53.399425 277.737044 52.4097306 277.767624 52.4097306 277.632843 51.9473417 277.461818 51.4553417 277.185459 51.0282583 276.465115 50.9576472 275.708528 50.8858972 272.989115 50.8858972 271.888212 50.8858972 271.788542 50.8858972 271.684341 51.1000083 271.684341 51.1683417 271.64923 53.1522861 271.684341 55.9847028 271.684341 57.683925 271.684341 58.3239806 272.027524 58.8182583 272.440929 58.9230361 273.128427 59.0642583 275.223768 59.1713139 276.980456 59.1713139 278.528743 59.1348694 278.972728 58.9583417 279.69647 58.0722861 280.313746 57.3274528 280.966133 56.0575917 281.481474 54.854925 281.689875 54.8162028 282.516685 55.100925 282.652599 55.3150361 282.481574 56.1965361 281.689875 59.241925 281.134893 60.3739806 280.966133 60.7304528 280.763395 60.9411472 279.21171 60.9411472 276.328069 60.9411472 273.297187 60.8010639 269.65809 60.8010639 267.695266 60.8010639 265.459481 60.9047028 263.742434 60.9047028 263.638234 60.6940083 263.638234 59.9138694 263.742434 59.7373417 264.875051 59.6325639 265.768685 59.4902028 266.281761 59.3455639 266.972657 59.1713139 267.281861 58.749925 267.314707 57.5438417 267.418908 55.9847028 267.418908 53.0440917 267.418908 49.0465917 267.418908 46.214175 267.386062 43.3088694 267.314707 42.2531194 267.249015 41.1495361 267.042879 40.8682306 266.353115 40.6552583 265.84004 40.5128972 265.253345 40.4092583 264.530735 40.3375083 264.394822 40.1621194 264.463911 39.3068139 264.600958 39.2054528M288.109432 59.0648278C289.000801 59.7379111 290.242149 60.0214944 291.34192 60.0214944 292.989877 60.0214944 294.504185 59.0295222 294.504185 56.9419389 294.504185 55.0661889 293.575439 54.0001889 290.409776 52.0185222 287.457045 50.1792167 285.115927 48.4788556 285.115927 44.9403278 285.115927 40.9052444 288.35068 38.6707444 292.235554 38.6707444 294.809991 38.6707444 296.221232 39.1319944 297.838608 39.2720778 297.56678 40.5487722 297.358378 42.3208833 297.254178 44.4084667 297.084285 44.5872722 296.258608 44.5872722 296.121561 44.4414944 295.812357 42.3208833 295.429533 41.2936056 294.610651 40.6934111 293.849533 40.1262444 292.989877 39.91555 291.927482 39.91555 289.927282 39.91555 288.761819 41.43255 288.761819 43.1329111 288.761819 44.7615222 289.553518 45.7557722 290.963626 46.7431889 292.407712 47.7009944 293.575439 48.3023278 294.953834 49.1849667 297.221332 50.6416056 298.495525 52.1973278 298.495525 54.7461611 298.495525 58.3906056 295.603956 61.4348556 290.447153 61.4348556 288.178522 61.4348556 286.078651 60.7629111 285.254106 60.3039389 284.908658 59.7743556 284.256271 55.9852722 284.189447 54.7461611 284.293647 54.5297722 285.149905 54.2883278 285.322063 54.3896889 286.04807 56.7266889 286.87488 58.1423278 288.109432 59.0648278M304.598743 59.0648278C305.496908 59.7379111 306.731459 60.0214944 307.834628 60.0214944 309.482585 60.0214944 310.998026 59.0295222 310.998026 56.9419389 310.998026 55.0661889 310.06928 54.0001889 306.905882 52.0185222 303.948621 50.1792167 301.609768 48.4788556 301.609768 44.9403278 301.609768 40.9052444 304.84452 38.6707444 308.72713 38.6707444 311.303832 38.6707444 312.715072 39.1319944 314.332449 39.2720778 314.058356 40.5487722 313.847689 42.3208833 313.748019 44.4084667 313.580391 44.5872722 312.747918 44.5872722 312.615402 44.4414944 312.303933 42.3208833 311.923373 41.2936056 311.097696 40.6934111 310.341108 40.1262444 309.482585 39.91555 308.416793 39.91555 306.421123 39.91555 305.25566 41.43255 305.25566 43.1329111 305.25566 44.7615222 306.045094 45.7557722 307.456334 46.7431889 308.897022 47.7009944 310.06928 48.3023278 311.445409 49.1849667 313.708377 50.6416056 314.987101 52.1973278 314.987101 54.7461611 314.987101 58.3906056 312.097796 61.4348556 306.938728 61.4348556 304.67123 61.4348556 302.570227 60.7629111 301.74908 60.3039389 301.404764 59.7743556 300.750112 55.9852722 300.683287 54.7461611 300.782958 54.5297722 301.643746 54.2883278 301.813639 54.3896889 302.537381 56.7266889 303.368721 58.1423278 304.598743 59.0648278M108.16714 36.1602917C109.77772 36.1602917 111.111943 36.2775972 113.941219 36.2775972 116.965305 36.2775972 118.063943 36.1602917 119.440072 36.1602917 119.597505 36.2775972 119.637147 37.2912083 119.440072 37.4529306 118.537376 37.6157917 117.949548 37.7752361 117.515756 37.9790972 117.004946 38.1806806 116.926796 38.7079861 117.042323 39.190875 118.105849 43.2829028 120.067541 49.912375 121.129935 53.3882639 121.205821 53.469125 121.287369 53.4304028 121.363254 53.3472639 122.896817 49.266625 125.567527 41.1736806 126.551771 37.4916528 127.139599 37.5725139 128.554237 37.5725139 129.065047 37.4916528 130.04476 40.8490972 133.934165 51.3633194 135.033935 54.032875 135.075842 54.0750139 135.191369 54.032875 135.232143 53.9542917 136.407799 50.3144028 138.568832 42.9947639 139.041133 40.4072083 139.316358 39.190875 139.237075 38.340125 138.137305 37.9790972 137.469061 37.7342361 136.800817 37.6157917 135.66367 37.4529306 135.466595 37.2912083 135.541348 36.2434306 135.699914 36.1602917 136.606007 36.1602917 138.451039 36.2775972 140.530523 36.2775972 143.123082 36.2775972 144.302136 36.1602917 145.130079 36.1602917 145.207097 36.2775972 145.246738 37.2502083 145.130079 37.4529306 144.341778 37.6545139 143.94876 37.694375 143.440215 37.899375 142.53752 38.2604028 142.025577 38.8708472 141.475125 40.3639306 139.631226 45.4217361 136.329649 56.0566806 134.759842 61.1919306 134.205993 61.1520694 132.679226 61.1133472 132.168416 61.2352083 131.184172 57.9973472 127.609634 47.8532639 126.393204 44.8568472 126.353563 44.8169861 126.235771 44.8568472 126.194996 44.8955694 124.585548 49.3406528 121.757405 57.271875 120.579484 61.1919306 120.067541 61.1133472 118.537376 61.0712083 117.986925 61.1919306 116.807871 55.9780972 113.390767 44.4525417 111.978394 40.4857917 111.544602 39.190875 111.073434 38.3014028 110.132229 37.9392361 109.463986 37.694375 109.070968 37.6157917 108.049348 37.4529306 107.931556 37.2912083 107.970065 36.2434306 108.16714 36.1602917M231.77524 26.9980444L314.201405 26.9980444 314.201405 24.9685444 231.77524 24.9685444 231.77524 26.9980444zM107.76053 26.9980444L189.84238 26.9980444 189.84238 24.9685444 107.76053 24.9685444 107.76053 26.9980444z"/>
    <polygon points="281.949 75.544 313.99 75.544 313.99 73.522 281.949 73.522"/>
    <polygon points="107.968 75.544 140.007 75.544 140.007 73.522 107.968 73.522"/>
    <path d="M202.634377 30.0943417C202.112241 30.0943417 201.309216 30.0476472 200.348757 30.0476472 199.106277 30.0476472 198.349689 30.0943417 197.897775 30.0943417 197.825287 30.0203139 197.841144 29.6729528 197.897775 29.6125917 198.291925 29.5670361 198.670219 29.5226194 198.87409 29.4611194 199.282965 29.373425 199.3849 29.1615917 199.415481 28.4873694 199.47551 27.0922306 199.459653 24.1641472 199.459653 21.7770361 199.459653 21.7485639 199.415481 21.6574528 199.3849 21.6574528 199.121001 21.6437861 198.219438 21.6437861 197.825287 21.6574528 197.533072 21.6699806 197.326936 21.7895639 197.138922 22.1540083 196.964499 22.4820083 196.774219 22.9478139 196.602062 23.4717028 196.539768 23.5332028 196.117302 23.4420917 196.088986 23.3384528 196.205646 22.721175 196.335897 21.4775083 196.381201 20.8180917 196.381201 20.7850639 196.482004 20.712175 196.526176 20.7269806 196.920327 20.8887028 197.402822 20.9388139 197.809431 20.9388139L203.045517 20.9388139C203.80437 20.9388139 204.224571 20.8773139 204.618721 20.7417861 204.662893 20.7417861 204.720657 20.8180917 204.735381 20.845425 204.574549 21.4478972 204.446563 22.5138972 204.38427 23.4420917 204.328771 23.5058694 203.906305 23.5183972 203.859868 23.4568972 203.80437 22.9170639 203.716026 22.4694806 203.58351 22.1187028 203.470248 21.7895639 203.309416 21.6847861 203.030793 21.6574528 202.532442 21.6278417 201.587839 21.6437861 201.325072 21.6574528 201.293359 21.6699806 201.265044 21.7155361 201.265044 21.7770361 201.265044 23.9238417 201.251452 27.8268139 201.293359 28.696925 201.325072 29.0738972 201.39756 29.3290083 201.703366 29.4326472 201.935553 29.5226194 202.170004 29.537425 202.680814 29.6125917 202.738578 29.6729528 202.70913 30.0317028 202.634377 30.0943417M205.640681 20.8887028C205.990659 20.8887028 206.647577 20.9388139 207.695247 20.9388139 208.775763 20.9388139 209.34547 20.8887028 209.737355 20.8887028 209.783792 20.9650083 209.783792 21.3248972 209.726029 21.3715917 209.474588 21.4023417 209.186903 21.460425 209.03853 21.5059806 208.748581 21.6118972 208.673828 21.7770361 208.657971 22.2417028 208.64438 22.9011194 208.64438 23.7723694 208.64438 24.8087583 208.657971 24.8691194 208.688552 24.9135361 208.718 24.9317583 208.848251 24.9602306 209.054387 24.9602306 210.806545 24.9602306 211.940294 24.9602306 212.449971 24.9602306 212.626659 24.9465639 212.654975 24.9317583 212.712738 24.8827861 212.712738 24.8395083 212.712738 24.0912583 212.712738 22.7667306 212.686688 22.0321472 212.668566 21.8225917 212.598344 21.5948139 212.380882 21.5355917 212.173613 21.4478972 211.9301 21.4182861 211.573326 21.3715917 211.505369 21.3100917 211.505369 20.9524806 211.573326 20.8887028 212.102258 20.8887028 212.654975 20.9388139 213.661871 20.9388139 214.712939 20.9388139 215.296237 20.8887028 215.64848 20.8887028 215.701713 20.9524806 215.716437 21.2952861 215.64848 21.3715917 215.354 21.4182861 215.105957 21.4478972 214.929269 21.5253417 214.65291 21.6278417 214.566832 21.7770361 214.550975 22.2553694 214.520394 23.0947306 214.520394 23.8224806 214.520394 25.652675 214.520394 26.7460083 214.520394 28.0785083 214.550975 28.696925 214.580423 29.1012306 214.639319 29.3290083 214.903219 29.4178417 215.105957 29.4941472 215.337011 29.537425 215.820638 29.6023417 215.86481 29.6729528 215.834229 30.0476472 215.764007 30.0943417 215.372122 30.0943417 214.608738 30.0476472 213.661871 30.0476472 212.772767 30.0476472 211.911978 30.0943417 211.573326 30.0943417 211.505369 30.0317028 211.505369 29.6923139 211.563133 29.6023417 211.896122 29.5670361 212.102258 29.5226194 212.306129 29.4611194 212.566631 29.3882306 212.686688 29.2082861 212.699147 28.7424806 212.712738 28.1274806 212.712738 26.8803972 212.712738 25.9043694 212.712738 25.8645083 212.686688 25.7995917 212.626659 25.7995917 212.348036 25.7836472 211.445341 25.7836472 210.76124 25.7836472 209.257125 25.7995917 208.775763 25.7995917 208.688552 25.8314806 208.673828 25.8451472 208.64438 25.9043694 208.64438 25.919175 208.64438 26.8234528 208.64438 28.0648417 208.657971 28.6228972 208.673828 29.0875639 208.731591 29.3290083 209.082703 29.4326472 209.270717 29.4941472 209.581054 29.5522306 209.914043 29.6023417 209.974072 29.6923139 209.914043 30.0476472 209.857412 30.0943417 209.581054 30.0943417 208.894688 30.0476472 207.680523 30.0476472 206.647577 30.0476472 205.917039 30.0943417 205.612366 30.0943417 205.570459 30.0476472 205.554602 29.6729528 205.612366 29.6023417 205.94762 29.5522306 206.107319 29.5226194 206.313455 29.4782028 206.704208 29.373425 206.793685 29.1297028 206.822 28.4725639 206.840122 28.1548139 206.854846 26.8029528 206.854846 25.4863972 206.854846 24.0286194 206.840122 22.6175361 206.822 22.2280361 206.793685 21.7633694 206.720065 21.5948139 206.427849 21.5253417 206.193398 21.4478972 205.961211 21.4182861 205.624824 21.3715917 205.570459 21.3100917 205.596509 20.9388139 205.640681 20.8887028M217.061986 20.8887028C217.568265 20.8887028 218.431319 20.9388139 219.174315 20.9388139L222.08967 20.9388139C222.645785 20.9388139 223.44881 20.9240083 223.88147 20.8579528 223.915448 20.8579528 223.943763 20.8887028 223.943763 20.9240083 223.839563 21.3715917 223.755749 22.3647028 223.709312 23.1140917 223.63909 23.1847028 223.25853 23.2040639 223.182645 23.1596472 223.129412 22.628925 223.054659 22.3453417 222.952724 22.1084528 222.820208 21.7895639 222.618602 21.6847861 222.324122 21.6574528 221.977541 21.6278417 220.43152 21.6278417 220.225384 21.6574528 220.139305 21.6699806 220.063419 21.8510639 220.063419 21.9273694 220.053226 22.8567028 220.053226 24.0286194 220.063419 24.9317583 220.063419 24.9932583 220.109857 25.0502028 220.150631 25.0502028 220.605943 25.0502028 221.654746 25.0661472 222.134975 25.0205917 222.439649 25.0046472 222.555176 24.8543139 222.645785 24.5240361 222.704681 24.3554806 222.734129 24.1641472 222.778301 23.9693972 222.866645 23.9090361 223.25853 23.9386472 223.328753 24.002425 223.302703 24.3418139 223.242674 24.9465639 223.242674 25.4397028 223.242674 25.9043694 223.25853 26.5057028 223.273254 26.8974806 223.198502 26.954425 222.806616 26.9715083 222.734129 26.9111472 222.632194 26.4897583 222.645785 26.4897583 222.588022 26.2961472 222.514401 26.0843139 222.395477 25.9043694 222.08967 25.8747583 221.76914 25.8451472 220.617269 25.8451472 220.150631 25.8451472 220.109857 25.8451472 220.063419 25.9373972 220.063419 25.9613139 220.053226 26.8029528 220.063419 28.0067583 220.063419 28.7288139 220.063419 28.9953139 220.209527 29.2082861 220.385082 29.2515639 220.67843 29.311925 221.564136 29.3597583 222.309398 29.3597583 222.968581 29.3415361 223.156595 29.2697861 223.461269 28.8928139 223.722903 28.5762028 224.001527 28.0340917 224.220122 27.5261472 224.305068 27.5102028 224.656179 27.6320639 224.718473 27.7197583 224.644853 28.0967306 224.305068 29.3882306 224.074014 29.8677028 224.001527 30.0203139 223.915448 30.1091472 223.25853 30.1091472 222.030774 30.1091472 220.749785 30.0476472 219.203763 30.0476472 218.373556 30.0476472 217.426688 30.0943417 216.695018 30.0943417 216.650846 30.0043694 216.650846 29.6729528 216.695018 29.6023417 217.175247 29.5522306 217.555806 29.4941472 217.776667 29.4326472 218.066616 29.3597583 218.199133 29.1775361 218.210459 28.666175 218.259161 28.0067583 218.259161 26.7608139 218.259161 25.0661472 218.259161 23.8646194 218.241039 22.628925 218.210459 22.1824806 218.183276 21.7155361 218.099462 21.5948139 217.804982 21.5059806 217.584122 21.4478972 217.338344 21.4023417 217.03367 21.3715917 216.971376 21.2952861 217.001957 20.9388139 217.061986 20.8887028M58.9337735 61.3237L58.9337735 57.00845 70.650691 43.8838944 70.8273792 44.1333111 58.9337735 61.3237zM58.9337735 47.4805056L66.8099885 38.8488667 67.0047986 39.1335889 58.9337735 50.7775889 58.9337735 47.4805056zM58.9337735 38.6768944L63.217329 34.1327278 63.465372 34.4709778 58.9337735 40.9911167 58.9337735 38.6768944zM58.9337735 31.0577278L60.0675226 29.8300056 60.4208989 30.2741722 58.9337735 32.4745056 58.9337735 31.0577278zM89.2301319 39.4240056L79.4850996 53.4744778C79.4850996 53.4744778 79.4794366 53.4881444 79.4726409 53.5006722L57.6154079 24.8769778 57.5995513 24.8769778 56.2811857 26.6023944 56.2811857 31.0019222C55.1882108 29.7127 54.5278953 28.9587556 54.5120387 28.9382556L54.5109061 28.9371167 54.0725835 29.4951722 54.0793792 29.5054222 56.2811857 32.6863389 56.2811857 38.6267833C56.2811857 38.6267833 51.5038093 33.0872278 51.4199957 32.9870056 51.4188631 32.9858667 51.4120674 32.9778944 51.4120674 32.9778944L51.0552932 33.4471167 51.0620889 33.4562278 56.2811857 40.9945333 56.2811857 47.4793667C51.8164115 42.2256722 47.9587197 37.6894778 47.8907627 37.6097556 47.8896301 37.6086167 47.883967 37.6017833 47.883967 37.6017833L47.8828344 37.6006444 47.5011427 38.1006167 47.5079384 38.1097278 56.2811857 50.7810056 56.2811857 56.9993389C50.4153649 50.0965333 44.0783756 42.6390889 44.0636516 42.6208667L44.0613864 42.6197278 44.0557233 42.6128944 43.6717663 43.1162833 43.678562 43.1253944 56.2811857 61.3271167 56.2811857 67.0181444C56.7229061 67.1092556 57.1612287 67.1946722 57.5995513 67.27895L57.6154079 67.2755333 57.6154079 67.2800889C58.0571283 67.3643667 58.4965835 67.4463667 58.9337735 67.5203944 58.982476 67.5295056 59.0323111 67.5397556 59.0810136 67.5477278L74.578605 49.0271167 74.7734151 49.2936167 62.1028344 68.0032833C63.9784473 68.2458667 65.7419312 68.3893667 67.3570423 68.4406167L78.5790065 54.2591722 78.8157233 54.6088111 69.8329419 68.4497278C71.2056731 68.4053111 72.7675513 68.2811722 74.4019168 68.0249222 74.4019168 68.0260611 74.4019168 68.0272 74.4030495 68.0283389 74.8107914 67.9634222 75.2230638 67.8882556 75.6364688 67.8051167 75.6976301 67.7937278 75.7565262 67.7857556 75.8165548 67.7732278L82.4616158 59.3545611 82.7277806 59.6928111C82.7277806 59.6928111 79.2608416 65.3758667 78.1474796 67.1741722 90.1860602 62.6345611 90.2947914 50.7980889 90.2947914 48.8107278 90.2947914 45.5831167 89.9187627 42.4443389 89.2301319 39.4240056L89.2301319 39.4240056zM14.5204832 39.9330889L6.80283441 49.1592278C6.83568029 53.1715333 7.42577348 57.1257556 8.58670538 60.9558389 9.04314982 60.8396722 9.51092043 60.7383111 9.99341505 60.6528944 13.0820602 60.1005333 16.1537161 59.8306167 19.385071 59.8306167 22.6923111 59.8306167 26.2090853 60.1210333 30.0815011 60.7223667 29.5004688 59.9228667 28.7755943 58.9286167 27.9329276 57.7772L14.5204832 39.9330889zM40.1278093 47.7754778L40.1221462 47.7663667 39.7313935 48.2765889 39.7370566 48.2857 52.0282108 66.0352833C53.4394509 66.3997278 54.8631498 66.7265889 56.2777878 67.0170056L40.1323398 47.7800333 40.1278093 47.7754778zM32.3648559 57.9594222L35.1250423 61.6380333C35.7389204 61.7655889 36.3618595 61.8988389 36.9949921 62.0400611 34.8713362 59.7155889 33.2143183 57.9822 32.7567412 57.4457833L32.3648559 57.9594222zM36.0220746 53.2250611L43.1768129 63.5559222C44.2210853 63.8338111 45.2902753 64.1276444 46.3877806 64.4385611L36.4082968 52.7171167 36.0220746 53.2250611z"/>
    <path d="M68.5388143,71.9162778 C62.7488789,71.8855278 54.9802624,70.5598611 48.253653,68.56225 C35.9477749,64.9064167 27.0431441,63.2755278 19.3866566,63.2755278 C16.3546423,63.2755278 13.478929,63.5272222 10.5964201,64.0431389 C8.9631871,64.3358333 7.63462796,64.7948056 6.49521577,65.3767778 C4.48708674,60.2415278 3.36353118,54.6609722 3.36353118,48.8093611 C3.36353118,23.7207778 23.5897964,3.38136111 48.5413376,3.38136111 C73.4917462,3.38136111 93.7180115,23.7207778 93.7180115,48.8093611 C93.7180115,59.1242778 89.5239326,72.0313056 68.5388143,71.9162778 M96.3604057,48.8093611 C96.3604057,22.25275 74.9516889,0.724333333 48.5413376,0.724333333 C22.1298538,0.724333333 0.721136918,22.25275 0.721136918,48.8093611 C0.721136918,55.2008056 1.98966738,61.2870278 4.24244158,66.8641667 C0.649782079,69.8833611 1.40523728,74.2669444 7.0603914,77.8795 C6.64585376,76.9695278 6.26302939,75.3933056 7.86568172,74.0892778 C7.99706523,73.9822222 8.14317276,73.8774444 8.30173907,73.7749444 C8.31306523,73.7681111 8.3243914,73.7601389 8.33685018,73.7521667 C8.48862079,73.6553611 8.65511541,73.5608333 8.83520143,73.4685833 C8.86125161,73.4560556 8.89069964,73.4423889 8.91674982,73.4287222 C9.09457061,73.3410278 9.28031971,73.2556111 9.48305806,73.1724722 C9.51250609,73.1610833 9.54535197,73.1496944 9.5748,73.1383056 C9.78546667,73.0551667 10.0040616,72.9754444 10.2441763,72.898 L10.2441763,72.8968611 C10.8195455,72.7146389 11.4764631,72.5495 12.2398466,72.4116944 C21.2803914,70.7716944 31.1115025,71.96525 46.9703986,76.7337778 C61.0114452,80.9556389 76.1420688,81.5991111 85.9833735,74.2316389 C85.9765778,74.2430278 86.0943699,74.1519167 86.1657247,74.0938333 C87.4942839,73.0790833 88.7446925,71.9345 89.8433305,70.5951667 C92.1674595,67.7593333 96.3604057,61.7801667 96.3604057,48.8093611"/>
    <path d="M42.6054079 78.8107694C41.8465548 78.5602139 41.0854366 78.3347139 40.3231857 78.108075 38.6854222 77.6434083 37.132605 77.2311306 35.6488774 76.8655472 29.932562 75.5205194 24.4076588 74.8360472 19.9304258 74.8349083 18.9733649 74.8371861 18.0684043 74.8724917 17.2132789 74.9339917 16.2675441 75.0285194 15.3399312 75.1583528 14.4236444 75.3234917 13.7950423 75.4396583 13.2559168 75.576325 12.7836158 75.7243806L12.7836158 75.7255194C12.5876731 75.7892972 12.4064545 75.853075 12.2342968 75.924825 12.2093792 75.9327972 12.183329 75.9407694 12.1595441 75.9498806 11.9919168 76.0193528 11.8390136 76.0911028 11.6940387 76.1628528 11.672519 76.1731028 11.6476014 76.1833528 11.6260817 76.1936028 11.4788416 76.2710472 11.3429276 76.3496306 11.2160746 76.427075 11.205881 76.4339083 11.1979527 76.4418806 11.1877591 76.4464361 11.0575082 76.529575 10.9385835 76.6161306 10.8298523 76.703825 9.70856201 77.6149361 9.77198853 78.6889083 10.0256946 79.4496861 10.0336229 79.4519639 10.0381534 79.4565194 10.0460817 79.461075 10.0494796 79.4724639 10.0506122 79.481575 10.0551427 79.4929639 10.0551427 79.4929639 11.6294796 80.5954083 16.3026552 81.4666583 16.0330925 80.3277694 17.1283326 79.3870472 19.1613792 78.7116861 19.9779957 78.5021306 20.8829563 78.3267417 21.8694652 78.1934917 23.8186982 77.8905472 26.1541534 77.7299639 28.7127341 77.7299639 32.8841606 77.7299639 37.6479455 78.1547694 42.2882753 79.0784083 42.3460387 79.0886583 42.6393864 79.1364917 42.7016803 78.9702139 42.7277305 78.9018806 42.6733649 78.8324083 42.6054079 78.8107694M33.5018896 26.6199333C30.4279685 26.6199333 27.9384774 24.1155167 27.9384774 21.0234333 27.9384774 17.9302111 30.4279685 15.4246556 33.5018896 15.4246556 36.5803412 15.4246556 39.0698323 17.9302111 39.0698323 21.0234333 39.0698323 24.1155167 36.5803412 26.6199333 33.5018896 26.6199333M48.5419039 6.82604444C27.346119 6.82604444 9.80075699 22.7955444 7.14816918 43.3946278L14.661947 34.4144889 30.2173018 55.0989889 57.6130294 19.2217111 79.3366136 47.6666 88.0158538 35.1559056C82.3663627 18.6909889 66.8098753 6.82604444 48.5419039 6.82604444"/>
  </g>
</svg>
