<svg xmlns="http://www.w3.org/2000/svg" width="283" height="102" viewBox="0 0 283 102">
  <g fill="#002F54" fill-rule="evenodd">
    <path d="M10.909354 56.8103487C9.70157155 53.7138354 8.45471381 50.9006555 7.15338745 47.863417L7.37955063 47.5231799C9.17583096 50.3565132 10.2119188 53.1293863 11.4789063 56.2590934 11.2480067 56.7593724 11.8222954 56.9395676 11.7761155 57.4149512 11.782036 61.6116039 12.3468519 65.605537 13.0040276 69.5722036 12.1621322 70.0487727 12.3586929 68.7850349 12.0354335 68.3914505 11.6494167 64.5302929 11.1094669 60.7272245 10.909354 56.8103487L10.909354 56.8103487zM5.64957992 36.585802C5.55129958 35.0256904 6.42516569 33.6279916 6.81236653 32.1484937 7.96094393 29.0448675 9.59263431 26.1178801 11.734672 23.4339191 11.4966678 24.1238773 10.6938477 25.2382427 10.3220402 26.2411715 8.7187682 29.2321757 7.23745858 32.2599303 6.56725774 35.6990516L7.0101113 36.1613947C6.72119079 36.5632775 6.08296067 36.4127197 5.64957992 36.585802L5.64957992 36.585802zM10.6630611 10.3294561C10.2936218 12.1278522 10.5268895 14.2332915 11.015923 15.9688563 9.72288536 13.5990516 9.94431213 10.1634868 11.1615674 8.2809205 11.5073247 7.73322176 12.6570862 6.92945607 13.6233121 7.00651325 12.1455548 7.26969317 11.0194753 8.84758717 10.6630611 10.3294561L10.6630611 10.3294561zM17.5699188 45.6180893C18.2851155 46.1539331 19.7001155 45.0620921 19.6195967 46.4894282 19.5248686 48.3293166 18.6782368 49.8230404 18.1323665 51.4542817 17.996195 52.6895676 16.8511699 53.9817573 17.6670151 55.1257601 17.4550611 56.8020502 16.6735548 58.1712971 15.9808561 59.6401255 15.5723414 59.0521199 15.9713833 58.1132078 15.720354 57.4362901 15.6090485 53.6178103 14.1395799 50.1609066 14.2390444 46.4135565 15.1176469 45.7793166 16.4592326 45.8943096 17.5699188 45.6180893L17.5699188 45.6180893zM15.2739481 38.6651604C18.5598268 39.1381729 21.7130862 39.9561646 24.7716176 40.8346165 24.8521364 41.1558856 25.1576343 41.1665551 25.0842201 41.5459135 22.8060109 41.077643 20.3561071 40.2869177 17.89081 39.9087448 16.947082 39.8079777 16.0684795 39.5530962 15.2573707 39.1097211L15.2739481 38.6651604zM18.2140695 33.2758996C19.2359481 32.0429847 19.4514544 30.2398466 20.76699 29.3685077 22.6947054 29.3127894 25.2665715 31.8900558 26.521718 29.2345467 27.2937515 29.0093026 28.3878603 29.2404742 29.1373958 29.6826639 28.797559 32.3713668 26.9408895 34.74947 26.1214921 37.2295258 25.7224502 38.1364296 25.4856301 38.7955649 24.9373916 39.600516 23.7011908 39.0777127 22.2636929 39.0871967 20.8948728 38.877364 19.1921364 38.5584658 17.6232033 37.9277824 15.9903289 37.4203905 15.9832243 35.8318271 17.3449397 34.514742 18.2140695 33.2758996L18.2140695 33.2758996zM26.9503623 23.084198C26.7881406 23.3319665 26.6247347 23.6437517 26.3772577 23.7302929 26.2706887 23.2809902 26.8781322 23.3675314 26.9503623 23.084198L26.9503623 23.084198zM30.9230192 22.3112552C31.7518895 21.3581172 32.8992828 20.0019107 33.6926301 19.205258L34.0241782 19.3439609C33.2438561 21.5406834 32.1923749 23.6307113 31.261672 25.7574895 30.5535799 25.8890795 29.870354 25.3224128 29.1741029 25.1066527 29.2380444 24.1558856 30.5535799 23.2501674 30.9230192 22.3112552L30.9230192 22.3112552zM34.481241 30.8041423C33.6500025 30.9641841 32.36999 30.8207392 31.5138854 30.7887308 31.3765297 30.370251 31.7720192 30.4176709 31.993446 30.2351046 32.8791531 30.2682985 33.7956469 30.3026778 34.481241 30.8041423L34.481241 30.8041423zM19.1471406 53.9106276C19.2252912 54.294728 19.0334669 54.541311 18.6948142 54.5922873 18.2874837 54.0042817 19.0322828 53.6830126 18.9612368 53.1080474 19.7036678 51.1021897 20.3572912 49.0287587 20.8285632 46.884198L21.0440695 46.8924965C20.8688226 49.2705997 20.2305925 51.7885914 19.1471406 53.9106276L19.1471406 53.9106276zM15.979672 87.7707392C13.3568895 87.5454951 10.3634837 87.4328731 7.65544603 87.0132078L6.54712803 87.1934031C6.43227029 86.9977964 6.09953808 86.8911018 6.23215732 86.608954 6.59567615 85.7968898 7.8614795 86.352887 8.66074728 86.2556764 9.41857155 85.5846862 9.51329958 84.6030962 9.97154644 83.7613947 11.4646971 81.2754114 12.1633163 77.9003068 13.9915674 75.4570014 16.5847473 75.6514226 18.5633791 75.9477964 21.3460151 75.9560948 22.1062075 75.2222734 22.4791992 74.1873361 22.5407724 73.2685774 21.8161029 73.0184379 21.109195 72.2288982 20.0612661 72.4754812 19.0168895 71.7049093 17.8979146 71.313696 17.1389063 70.3000976 18.0234293 69.474993 16.9541866 68.5431939 17.3603331 67.4466109 18.4070778 65.483431 19.0062326 63.2499582 20.3241364 61.3922873L27.582672 62.0146722C27.7105548 61.8285495 27.9923707 61.6803626 28.0302619 61.4598605 28.1415674 60.8908229 28.8721573 60.1238075 28.302605 59.7527476 26.191354 59.8001674 25.1742117 57.3782008 23.3625381 56.7060251L23.2476803 56.4795955C24.1464126 55.3047699 23.5081824 53.4056067 24.16299 52.1596513 25.1671071 50.5758298 25.4512912 48.5521897 26.7478812 47.3287587L33.7920946 47.9440307C34.5416301 47.5267364 34.669513 46.4835007 34.7547682 45.7864296 31.9543707 45.3952162 29.021354 45.2849651 26.1854335 45.0205997 25.3873498 43.369205 27.6264837 44.947099 27.9710569 43.8161367 29.5340695 40.2501674 31.0840569 37.0030962 32.7370611 33.4726918 35.4048393 33.2557462 37.5906887 33.7500976 40.2170234 33.8816876L40.4372661 33.667113C40.5237054 32.9712273 41.3099481 32.333431 40.9653749 31.7169735L36.7866845 31.3376151 36.5818351 31.1064435C37.3088728 30.4034449 38.7357138 30.7424965 39.6912828 30.5243654 39.9446803 30.2801534 39.5562954 29.9790377 39.4745925 29.7205997 38.2893079 28.6287587 36.5427598 28.689219 35.2568268 27.8463319 36.4575046 24.9999582 37.5966092 22.1488424 39.068446 19.4067922 40.3827975 19.456583 42.1542117 19.5229707 43.4673791 19.5727615 44.5685925 19.5822455 45.7988728 20.2639052 46.7698351 19.6012134 46.6751071 18.8353835 47.7396134 18.1442399 47.0528351 17.64159L37.5018812 16.9646722 37.5220109 16.3932636C38.3757473 15.5989819 39.4130192 16.5592329 40.4064795 16.1514226 40.6350109 15.683152 40.8706469 15.1200418 41.0944418 14.8106276 41.367969 13.995007 41.2803456 12.9742957 40.8777515 12.2594421 40.3472745 11.6678801 39.3194753 11.3418689 38.4538979 11.5955649 37.1265213 11.9595119 37.1584921 13.6452859 36.2763372 14.3755509L36.1579272 14.2759693C36.1626636 13.2588145 35.0875004 13.377364 34.4528226 13.1627894 33.7352577 12.6897768 33.4344962 11.6619526 33.3149021 10.7360809 32.7607431 9.06216179 31.4238937 7.04089261 32.1923749 5.19389121 32.8791531 4.80623431 33.573036 4.19688982 34.6375423 4.36523013 34.7973958 4.14828452 35.1052619 4.1281311 34.9963247 3.71083682 34.9608017 2.97820084 34.6351741 2.67945607 34.3805925 2.06655509 33.443969 1.71209205 33.0638728 3.00191074 32.1414586 3.12638773 30.024287 2.44235704 28.4139105 3.87680614 26.8153749 4.99235704 26.2363498 5.79730823 26.1593833 7.12861925 26.4636971 8.0627894L26.7999816 8.07582985C27.0664042 7.44870293 27.123241 6.68880056 27.6312201 6.16718271 28.0113163 5.76767085 28.5986301 5.59933054 29.0793749 5.87199442 30.4967431 6.43391911 30.8389481 8.03552301 31.0674795 9.37987448 31.2889063 10.9139052 32.6304921 12.8071409 31.4546803 14.0993305 31.5375674 15.1828731 30.6565967 15.9119526 30.8957849 16.9385914 29.5613038 19.2408229 27.1646845 21.3438912 25.1753958 23.1126499L24.0706301 23.1968201C22.476831 22.4392887 20.1737556 21.8121618 19.7794502 19.9533054 20.5384586 19.2182985 22.0505548 19.7209484 22.6982577 18.6966806 23.3293833 18.108675 23.2536008 17.1448675 23.0463833 16.3446583 23.102036 16.0210181 23.1269021 15.7827336 22.8060109 15.5859414 23.0641448 15.213696 22.8971866 14.7300139 22.5099858 14.4300837 23.6621155 12.9790377 21.5934921 12.647099 21.2962828 11.5232497 21.4028519 10.1919386 23.0700653 10.6685077 23.6502745 9.80072524 23.3566176 8.58085077 21.8658351 9.22457462 21.0594628 8.65316597L19.057149 6.41732218C16.5954042 5.08482566 13.4942452 5.44521618 11.2101155 6.91641562 9.34752552 8.56306834 8.49142092 11.200795 9.10360084 13.8302232 9.61513222 14.9303626 9.2954251 17.0796653 11.0727598 16.9871967 11.6162619 17.1982148 11.227877 17.8194142 11.4907473 18.1477964 11.4860109 19.1649512 13.0987556 19.4162762 12.8252285 20.2639052 10.4155841 22.6846862 8.79218243 25.3888006 7.16167615 28.2837796L6.67856318 29.2724826C6.22860502 30.4733891 6.27123264 30.4117434 5.84495649 31.2534449 5.43881004 32.3832218 5.27422008 33.298424 4.7484795 34.3606276 4.99358828 36.085523 2.60407364 36.1874756 3.30269289 38.0878243 1.49338745 39.9585356 1.81664686 42.9590237 2.16122008 45.3881032 2.55789372 45.4023291 2.78760921 44.9660669 3.15586444 44.9482845 2.87404854 46.0176011 3.44478494 47.1841283 3.84264268 48.0578382 4.62533305 48.4040028 4.49626611 46.8427057 5.27066778 47.4437517 6.32925356 49.5491911 7.74780586 51.8597211 8.46537071 54.0801534L8.58259665 54.2129289C10.8915925 59.0983543 9.93839163 65.3874059 11.1959063 70.5526081 10.1846845 73.248424 8.90230377 75.8067225 7.73951715 78.4325941 6.02138745 82.119484 4.45008619 85.9379637 2.61473054 89.4612552 2.34120335 90.3088842 1.05171799 92.7616736.665701255 93.6258996.186140586 95.0698326-.28276318 96.2505858.208638494 97.9529568.920282845 98.5836402 1.88887699 98.8740865 2.84681423 98.623947 4.16471799 97.656583 4.36601506 96.2659972 5.05516151 94.9240167 5.99296904 92.8731102 6.54594393 91.6212273 7.78569707 89.4019805L15.0477849 89.9295258C15.6208895 89.3142538 16.1963623 88.5733194 15.979672 87.7707392L15.979672 87.7707392zM86.8427536 13.4158926C87.484536 9.94357741 88.1713142 5.13876569 86.8119669 1.97230823 85.8421887.887580195 84.7338707.177468619 83.2336155.248598326 80.4888707.875725244 76.6855402-.602587169 74.1811678 1.05117852 72.9698331 1.57872385 73.582013 3.31665969 73.5168874 4.33262901 75.24449 12.6939261 71.3369586 20.3664505 67.3595653 26.5416946 66.625423 27.404735 65.941013 28.618682 64.7486238 28.6056416 64.5982431 29.3951813 64.962946 30.3625453 64.3330046 30.8782357 62.8386699 30.7596862 61.9150715 30.9469944 60.4752054 30.9884868 60.1341845 31.9926011 60.5273059 32.993159 60.3674523 34.0672176 59.1833519 34.6896025 57.5836322 34.089742 56.2894105 34.3588494 55.7352515 35.3238424 56.2811218 36.3611506 56.059695 37.4340237 55.824059 38.0611506 55.0437368 37.6485983 54.5203644 37.7256555 55.1621469 39.5299791 56.9536908 40.7415551 57.6594146 42.4202162 56.9015904 44.8718201 55.7257787 47.0531311 55.0875485 49.5402999 54.3711678 50.8158926 54.1663184 52.3025035 53.7495151 53.7167992 52.8069711 57.0504114 52.5772556 61.047901 53.4712515 64.3554324 54.0514607 65.2350697 54.7417912 66.499993 56.0608791 66.392113 59.3704397 66.2297001 63.571628 66.8011088 66.9486824 66.4502022 70.4915109 65.7258647 68.5756364 61.902643 69.0587494 59.4415551 68.4264397 56.4944142 69.2245234 53.7902999 69.5714649 50.8799093 72.4452766 36.8424616 84.749264 27.8647071 86.8427536 13.4158926M55.2882536 2.50281729L55.5392828 2.28942817C55.718082 1.59709902 55.8329397.902398884 55.4859983.348772664L55.2799649.118786611C52.7163874-.0412552301 50.2060946-.00924686192 47.7834251.186359833L47.7123791 2.21829847C50.1682033 2.85016736 52.7826971 2.40916318 55.2882536 2.50281729M42.754077 5.81437936C43.1815372 4.94066946 42.9482695 3.75517434 43.0749682 2.74276151 44.1667088 2.11682008 45.7060393 2.71430962 46.939872 2.44283124 47.3507548 2.04569038 47.0997255 1.36877266 47.2098469.831743375 46.8415916-.897894003 44.9245331.587531381 43.9109431.707266388 42.7327632 2.03146444 41.845872 3.77651325 42.2958301 5.79659693L42.754077 5.81437936zM58.1624205 2.51490934L58.1837343 1.94468619C57.7444331 1.32348675 57.224613.478228731 56.363772.605076709L56.3910063 2.44852162 58.1624205 2.51490934zM52.0788678 3.30444909C51.7473197 4.0548675 52.1096544 5.05423989 52.1096544 5.94336123 54.1830142 6.11644351 56.1474368 5.96825662 58.166328 5.94810321 58.0467339 4.99140865 58.9608594 4.23032078 58.3486795 3.31748954 56.1154661 3.32934449 54.1711732 2.97013947 52.0788678 3.30444909"/>
    <path d="M51.3231749 5.69108787C51.324359 4.73794979 51.4688192 4.13927476 51.3160703 3.27504881 48.6542126 3.3023152 46.1628653 2.79610879 43.8183464 3.34262204 43.6407314 4.06695955 43.6087607 4.98808926 43.7342753 5.7551046L50.7607272 6.01947001 51.3231749 5.69108787zM55.5108644 9.28171548L55.5949356 6.86923291 55.387718 6.63924686C53.0076762 6.51714086 50.5269858 6.58352859 48.1102368 6.58827057 47.7171155 7.3351325 47.8023707 8.41986053 47.8959146 9.21769874 50.4227849 9.5674198 53.0278059 9.44294282 55.5108644 9.28171548M56.4885762 6.68038354L56.2789904 9.18296374C56.5383084 9.63819386 57.0676013 9.37264296 57.4938774 9.45207113 58.3061703 8.94230823 57.8372665 7.49363319 58.0160657 6.73728731L56.4885762 6.68038354zM47.1284992 9.31645049L47.3096665 7.60696653 47.1284992 6.67753835C45.7087628 6.1796304 43.848541 6.87195955 42.1718548 6.7142887 42.2050096 7.5417643 41.8947753 8.54706416 42.2985536 9.22990934 43.9184029 9.25954672 45.4423402 9.44329847 47.1284992 9.31645049M55.4241883 27.5874198C53.734477 26.9199861 51.3236485 27.6241702 49.7191925 27.1499721 49.8304979 26.5833054 50.7671213 26.9045746 51.0572259 26.5015063 51.4278494 25.5294003 51.4610042 24.5466248 51.1602427 23.5176151 52.4970921 22.9319805 53.8836736 23.4927197 55.361431 23.2307252 55.5425983 22.442371 55.5781213 21.3943933 55.4537908 20.5953696L53.0086234 20.502901C52.9517866 20.4056904 52.7398326 20.3345607 52.8085105 20.1472524 54.8558201 19.3328173 57.484523 20.2278661 59.6431381 19.7358856 59.5507782 18.8740307 59.123318 17.9991353 58.8722887 17.2902092 57.3329582 16.6939052 56.1192552 17.2830962 54.4769079 17.0305858L54.2400879 16.7674059C54.4698033 16.3311437 55.0500126 16.3844909 55.4833933 16.2422315 55.8184937 15.3969735 55.4502385 14.5244491 55.4502385 13.6341423 54.8700293 13.6436262 54.3194226 13.6234728 53.9405105 13.1006695 55.2347322 12.7995537 56.7266987 13.0153138 58.0232887 12.6821897 58.2991841 11.7705439 57.6124059 11.2999024 57.8894854 10.3882566L57.6822678 10.1582706C55.762841 9.95910739 53.9772176 10.2732636 52.0577908 10.0741004 51.446795 10.9406974 52.7516736 12.960781 51.1827406 13.219219 50.0010084 15.527378 48.7517824 18.0548536 47.7476653 20.5277964L47.6257029 20.5242399C47.3865146 21.2450209 47.1473264 21.9681729 46.8773515 22.688954 41.9005774 33.849205 36.7710544 44.9738912 31.943477 56.2349093 26.2444017 68.7987866 20.4423096 81.707643 14.7669163 94.4955788 14.1807866 96.380516 12.4768661 97.8742399 13.0404979 100.152762 13.4253305 100.516709 13.4608536 101.280167 14.1926276 101.340628 15.0143933 101.434282 16.1179749 101.380934 16.6342427 100.605621 18.100159 97.1321199 19.7792134 93.729749 21.307887 90.2586192 28.806795 73.4079916 36.4335858 56.435258 43.9964351 39.5229847 45.5736569 36.403947 46.5481715 33.0075035 48.2757741 29.9572245L55.2098661 30.2180335C55.6029874 29.4699861 55.5212845 28.2904184 55.4241883 27.5874198"/>
    <path d="M51.1675841 10.1361018C48.8810862 9.92271269 46.4548644 10.2119735 44.0156176 9.9938424 43.1393833 10.5640656 43.7053833 11.8574407 43.8285297 12.7204812 45.9338603 12.8639261 48.6265046 12.8366597 50.7756469 12.631569 51.7904209 12.4798257 51.1640318 11.1520711 51.4044042 10.3672734L51.1675841 10.1361018zM42.4845757 10.0318968C42.0310653 10.7455649 42.2347305 11.9298745 42.6077222 12.6743654L42.9463749 12.5913808C42.7912577 11.7591632 43.4863247 10.2595119 42.4845757 10.0318968M56.3341695 13.7632427C56.1553703 14.5195886 56.1233996 15.4075244 56.2500983 16.1745397 56.8788556 16.5491562 57.9173117 16.5882775 58.5721192 16.2622664 58.4477887 15.4312343 58.4797594 14.5112901 58.2003117 13.7383473 57.6556255 13.558152 56.7438682 13.4289331 56.3341695 13.7632427M47.7801096 16.0792259L48.2075699 16.0958229C48.3911054 15.212629 49.364436 14.4859205 49.0897247 13.6169526 48.8446159 13.6086541 48.3259799 13.5885007 47.9896954 13.5766457L47.7801096 16.0792259zM43.2547146 13.3985844C41.7449866 13.7222245 43.223928 15.1768271 43.0368402 16.1240377L45.994723 16.3623222C47.8158695 16.8116248 46.7336017 14.4821269 47.103041 13.5432148L43.2547146 13.3985844zM56.2127992 20.7511437C56.2755565 21.5798047 55.8729623 22.6135565 56.4614603 23.2715063 58.0469707 23.4268061 59.5211757 23.2596513 61.0818201 23.222901 61.1149749 22.2697629 60.3121548 21.6367085 60.1582218 20.7724826 59.2251506 20.3243654 57.8409372 20.5590934 56.8664226 20.426318L56.2127992 20.7511437zM45.1355397 22.6237517C45.7903473 22.2669177 46.164523 21.1999721 46.1893891 20.4697071L44.4475774 20.4045049C44.3315356 21.1312134 44.9164812 21.8840028 45.1355397 22.6237517M59.6488218 26.6022734C59.6440854 25.8708229 59.7707841 24.85841 59.6144828 24.0902092 57.6891356 24.017894 55.0935874 23.9194979 53.4429515 23.8578522L52.1226795 24.0309344C51.8503364 24.8145467 51.8763866 25.8020642 52.152282 26.6698466 54.9041314 26.7101534 57.0947172 27.046834 59.6488218 26.6022734M60.4173029 26.5038773C61.1692067 26.8820502 62.3900142 26.927099 63.1667841 26.6070153 62.6149933 25.7605718 62.1910854 23.8685216 60.8400268 24.00841 60.2100854 24.5572943 60.5416335 25.5542957 60.4173029 26.5038773M56.3145134 27.4936471C56.1392665 28.1551534 55.9734925 29.3880683 56.3145134 30.1325593 58.844936 30.3862552 61.0272331 30.0555021 63.6808021 30.2819317 64.0727393 29.5658926 63.9910364 28.386325 63.8939402 27.6833264 61.3694381 27.2707741 58.8508565 27.5576639 56.3145134 27.4936471M59.5893799 30.9547001C57.0506686 30.9226918 54.5569531 30.5433333 52.0064008 30.8918689 52.0135054 31.5593026 51.8500996 32.7293863 52.0099531 33.4039331 54.4172293 33.652887 56.9831749 33.7500976 59.4022921 33.6813389 60.0298653 33.2284798 59.6249029 32.5456346 59.766995 31.9789679L59.5893799 30.9547001zM49.4695841 30.7966736C49.5228686 31.8790307 50.3197682 32.7361437 51.0314126 33.3656416 51.5524167 32.4646653 51.0870653 31.810272 51.119036 30.8583194L49.4695841 30.7966736zM55.4414762 36.742643C55.3775347 35.9459902 55.6854008 35.0035216 55.2804385 34.3206764 54.1496226 34.310007 52.9619699 34.1701185 51.8856226 34.3206764 52.0975766 35.282113 52.9820996 36.237622 53.5398109 36.8943863 54.1176519 36.979742 54.9630996 37.3282775 55.4414762 36.742643M88.5210975 58.8630335C83.7527251 58.8630335 82.524813 52.543159 82.524813 48.1082218 82.524813 43.7266318 83.8474531 37.5170084 88.5210975 37.5170084 93.1947418 37.5170084 94.5161979 43.7266318 94.5161979 48.1082218 94.5161979 52.543159 93.2894699 58.8630335 88.5210975 58.8630335M88.5210975 30.9754463C80.3058088 30.9754463 76.6706205 40.5661018 76.6706205 49.4940656 76.6706205 62.5226569 83.0919971 68.1241213 88.5210975 68.1241213 93.9501979 68.1241213 100.37039 62.5226569 100.37039 49.4940656 100.37039 40.5661018 96.7352021 30.9754463 88.5210975 30.9754463M118.075652 31.8061227C117.555832 31.8061227 116.470012 31.75159 116.470012 32.472371 116.470012 33.3591213 118.123016 41.8982427 118.123016 48.5512413 118.123016 60.4713947 114.534008 61.0250209 112.975731 61.0250209 108.916635 61.0250209 108.962815 52.5985216 108.962815 49.4937099 108.962815 39.0139331 111.134455 33.4705579 111.134455 32.6383403 111.134455 31.5299024 109.860363 31.8061227 109.245815 31.8061227L104.902535 31.8061227C102.920351 31.8061227 102.588803 48.4398047 102.588803 49.3822734 102.588803 65.2394561 106.225175 68.1237657 110.143363 68.1237657 111.701639 68.1237657 112.787459 67.4575174 113.636459 66.8481729 114.486644 66.1819247 115.572464 65.018954 115.99874 65.018954 118.689016 65.018954 114.911736 68.1237657 119.869564 68.1237657 123.267932 68.1237657 124.495844 69.0650488 124.495844 48.7172106 124.495844 43.4500558 124.44848 31.8061227 122.466296 31.8061227L118.075652 31.8061227zM141.206698 31.8061227C140.593334 31.8061227 140.02615 32.0835286 139.412786 32.0835286 138.704694 32.0835286 138.467874 31.4184658 138.467874 30.4202789 138.467874 29.7564017 139.885242 26.3729986 139.885242 24.8757183 139.885242 23.8229986 139.649606 23.7115621 139.318058 23.7115621 138.37433 23.7115621 133.087322 25.2633752 132.850502 27.3711855 132.613682 29.311841 132.472774 32.0278103 131.009226 32.0278103 130.631497 32.0278103 130.301133 31.8061227 130.112862 31.8061227 128.317765 31.8061227 127.279309 32.3064017 127.279309 36.5196513 127.279309 37.5166527 127.231945 38.2386192 127.845309 38.2386192 128.365129 38.2386192 128.837585 37.572371 129.686585 37.572371 131.812046 37.572371 131.386954 40.5123989 131.386954 42.174463 131.386954 43.2283682 131.102769 45.8898047 131.102769 52.7099582 131.102769 55.7578661 131.575226 68.1237657 133.370322 68.1237657 134.454958 68.1237657 139.932606 65.018954 139.932606 64.1855509 139.932606 63.2442678 137.287326 60.8045188 137.287326 46.0557741 137.287326 41.1205579 137.287326 37.572371 139.885242 37.572371 140.735426 37.572371 141.67797 38.0714644 142.056882 38.0714644 143.049159 38.0714644 143.049159 35.9648396 143.049159 35.1883403 143.049159 33.3034031 143.001795 31.8061227 141.206698 31.8061227M153.993562 19.9969317C154.41747 19.9969317 154.749018 20.6074616 154.749018 21.1610879 154.749018 21.9375872 152.955106 27.3707113 152.955106 31.8056485 152.955106 32.4718968 152.955106 33.525802 153.757926 33.525802 154.135654 33.525802 154.89111 33.0267085 155.928382 32.3059275 157.015386 31.6408647 158.336842 30.9746165 159.893934 30.9746165 164.191035 30.9746165 167.353767 34.5785216 167.353767 47.9414226 167.353767 53.2642957 166.694223 67.2910739 165.229491 67.2910739L160.32021 67.2910739C159.893934 67.2910739 158.619842 67.4570432 158.619842 66.5702929 158.619842 66.1814505 160.980938 55.2037657 160.980938 47.8299861 160.980938 39.2363319 159.753026 37.517364 157.439294 37.517364 152.624742 37.517364 152.530014 46.1667364 152.530014 50.1037657 152.530014 61.192887 153.56847 64.7967922 153.56847 66.4043236 153.56847 67.2910739 152.670922 67.2910739 152.19965 67.2910739L147.524821 67.2910739C146.156001 67.2910739 146.156001 69.1760112 146.156001 44.559205 146.156001 40.1242678 146.250729 19.9969317 148.847462 19.9969317L153.993562 19.9969317zM185.956221 37.1848326C187.323857 36.0218619 189.307226 33.3035216 189.307226 31.0309275 189.307226 28.3683054 187.323857 27.7044282 185.531129 27.7044282 180.856301 27.7044282 178.732025 30.0884589 178.732025 38.7378312 178.732025 39.8462692 178.637297 41.2878312 179.959937 41.2878312 180.527121 41.2878312 181.753849 40.6773013 182.509305 40.0679568L185.956221 37.1848326zM181.045757 47.7191423C179.770481 48.5513598 179.016209 48.8832985 179.016209 50.7137029 179.016209 59.1413877 180.808937 60.1941074 184.680945 60.1941074 188.080497 60.1941074 191.527414 58.6422943 191.527414 54.3176081 191.527414 50.3805788 187.371221 44.8360181 186.097129 44.8360181 185.483765 44.8360181 184.633581 45.4465481 184.113761 45.7784868L181.045757 47.7191423zM174.436108 67.2904812C173.254376 67.2904812 171.838192 68.3443863 171.838192 47.5531729 171.838192 20.1634937 174.294016 21.1604951 175.095652 21.1604951L187.323857 21.1604951C195.681238 21.1604951 196.956514 25.7080544 196.956514 29.2574268 196.956514 35.3556137 191.573594 38.9038006 191.573594 40.621583 191.573594 42.563424 199.175518 47.0540795 199.175518 56.5902022 199.175518 62.0233264 196.38933 67.2904812 188.645313 67.2904812L174.436108 67.2904812zM220.889433 31.8061227C222.872802 31.8061227 222.918982 43.4500558 222.918982 48.7172106 222.918982 69.0650488 221.692254 68.1237657 218.292701 68.1237657 213.334873 68.1237657 217.112153 65.018954 214.420693 65.018954 213.996785 65.018954 212.910965 66.1819247 212.059597 66.8481729 211.210597 67.4575174 210.124777 68.1237657 208.5665 68.1237657 204.648312 68.1237657 201.01194 65.2394561 201.01194 49.3822734 201.01194 48.4398047 201.342304 31.8061227 203.325672 31.8061227L207.668952 31.8061227C208.2835 31.8061227 209.558777 31.5299024 209.558777 32.6383403 209.558777 33.4705579 207.387136 39.0139331 207.387136 49.4937099 207.387136 52.5985216 207.339772 61.0250209 211.398869 61.0250209 212.957145 61.0250209 216.544969 60.4713947 216.544969 48.5512413 216.544969 41.8982427 214.893149 33.3591213 214.893149 32.472371 214.893149 31.75159 215.978969 31.8061227 216.498789 31.8061227L220.889433 31.8061227zM227.780187 23.8225244C227.780187 21.4384937 229.526736 19.9969317 231.415376 19.9969317 233.304016 19.9969317 235.050564 21.4384937 235.050564 23.8225244 235.050564 26.2065551 233.304016 27.4821478 231.415376 27.4821478 229.526736 27.4821478 227.780187 26.2065551 227.780187 23.8225244L227.780187 23.8225244zM229.762372 67.2910739C227.449823 67.2910739 227.261551 68.4552301 227.261551 48.9396095 227.261551 29.9764296 228.015823 31.8056485 229.5741 31.8056485L232.170832 31.8056485C234.1542 31.8056485 234.201564 31.9728033 234.201564 32.6390516 234.201564 34.6899582 233.63438 36.7408647 233.63438 42.7857043 233.63438 56.7567643 235.475656 65.3504184 235.475656 65.8495119 235.475656 67.624198 234.059472 67.2910739 232.973652 67.2910739L229.762372 67.2910739zM241.702603 67.2904812C240.049599 67.2904812 240.239055 48.7173291 240.239055 47.4417364 240.239055 44.8360181 240.049599 19.9963389 242.173875 19.9963389L246.660432 19.9963389C247.179068 19.9963389 248.595252 19.8303696 248.595252 21.0502441 248.595252 21.3833682 246.611884 29.3664923 246.611884 43.1727685 246.611884 58.4194212 248.405796 65.9046374 248.405796 66.6254184 248.405796 67.567887 247.179068 67.2904812 246.660432 67.2904812L241.702603 67.2904812zM266.811571 46.6659484C266.811571 36.9081381 265.538663 36.2418898 263.790931 36.2418898 261.760199 36.2418898 257.133918 39.3467015 257.133918 49.437636 257.133918 53.2644142 258.361831 59.1966318 262.374747 59.1966318 267.474667 59.1966318 266.811571 50.658696 266.811571 46.6659484L266.811571 46.6659484zM260.674379 67.290007C255.38737 67.290007 250.759906 61.8011646 250.759906 50.6017922 250.759906 37.906325 257.936738 30.974735 262.091747 30.974735 263.084023 30.974735 264.122479 32.2503278 264.782023 32.2503278 265.726935 32.2503278 265.867843 30.253954 265.867843 29.3672036 265.867843 24.8765481 264.688479 22.8801743 264.688479 20.7735495 264.688479 19.9970502 265.867843 19.9970502 266.341483 19.9970502L271.250764 19.9970502C273.37504 19.9970502 273.186768 44.8367294 273.186768 47.4412622 273.186768 48.716855 273.37504 67.290007 271.722036 67.290007L260.674379 67.290007zM279.749881 21.7653347C279.749881 21.4144282 279.380442 21.2721688 279.048894 21.2721688 278.491182 21.2721688 278.24489 21.4713319 278.24489 22.4481799 278.24489 22.5714714 278.253178 22.7990865 278.442634 22.7990865 278.651036 22.7990865 279.749881 22.2964365 279.749881 21.7653347L279.749881 21.7653347zM279.324789 20.5893236C280.583488 20.5893236 280.867672 21.1678452 280.867672 21.6515272 280.867672 22.5335356 279.835136 22.8465063 279.835136 23.0077336 279.835136 23.1310251 281.057128 24.0225174 281.057128 25.2554324 281.057128 25.3123361 281.02871 25.3218201 280.906747 25.3218201L279.996174 25.3218201C279.8825 25.3218201 279.7783 25.340788 279.749881 25.2554324 279.636208 24.3260042 279.143622 23.4534798 278.944693 23.4534798 278.755237 23.4534798 278.310015 23.6905788 278.310015 24.0035495 278.310015 24.4398117 278.538546 25.2174965 278.538546 25.2554324 278.538546 25.350272 278.376325 25.3218201 278.319488 25.3218201L277.466936 25.3218201C277.344973 25.3218201 277.268007 25.340788 277.230115 25.2269805 277.125915 24.9234937 277.09868 23.6716109 277.09868 23.3017364L277.155517 21.6135914C277.173279 21.3954603 277.220643 20.9497141 277.307082 20.7695188 277.362735 20.6462273 277.410099 20.5893236 277.553375 20.5893236L279.324789 20.5893236zM282.081375 22.9887657C282.081375 20.9971339 280.886618 19.8021548 278.897329 19.8021548 276.909224 19.8021548 275.715651 20.9971339 275.715651 22.9887657 275.715651 24.9803975 276.909224 26.1753766 278.897329 26.1753766 280.886618 26.1753766 282.081375 24.9803975 282.081375 22.9887657L282.081375 22.9887657zM274.814551 22.9887657C274.814551 20.3901604 276.301781 18.9011785 278.897329 18.9011785 281.494061 18.9011785 282.981291 20.3901604 282.981291 22.9887657 282.981291 25.587371 281.494061 27.0763529 278.897329 27.0763529 276.301781 27.0763529 274.814551 25.587371 274.814551 22.9887657L274.814551 22.9887657z"/>
  </g>
</svg>
