<svg xmlns="http://www.w3.org/2000/svg" width="175" height="124" viewBox="0 0 175 124" xmlns:xlink="http://www.w3.org/1999/xlink">
  <defs>
    <polygon id="a" points=".111 .348 55.852 .348 55.852 45.768 .111 45.768 .111 .348"/>
    <polygon id="c" points="13.357 .194 13.357 17.088 .472 17.088 .472 .194"/>
    <polygon id="e" points="10.076 7.149 .381 7.149 .381 .329 10.076 .329"/>
  </defs>
  <g fill="none" fill-rule="evenodd">
    <path fill="#FFFFFF" d="M.000355719978 120.401026C.15153671 119.334094.293824701 118.267162.459234491 117.203805.548164485 116.635489.676223677 116.072535.802504269 115.429159 1.61354582 115.731189 2.32854297 116.097556 3.08800512 116.256612 4.19785145 116.487156 5.33615538 116.642638 6.46556631 116.687317 7.55762664 116.728422 7.71947923 116.737357 7.86532442 117.884711 8.01116961 119.030278 8.1054354 120.190142 8.1303358 121.344644 8.151679 122.41515 7.93291121 122.583143 6.84262948 122.677862 4.39171884 122.895895 2.08487479 122.48485.000355719978 121.101591L.000355719978 120.401026zM76.7615253 44.3509455C75.71393 44.2776721 74.9064456 44.7905857 74.2110131 45.4857892 74.0438247 45.6537819 73.9335515 46.0701891 74.0207029 46.2792863 74.6396557 47.7590511 76.9963005 49.033293 78.5241178 48.6740747 78.9331958 48.5775683 79.5610415 48.1647354 79.5841633 47.8609189 79.7442373 45.6716534 79.1964286 44.402773 76.7615253 44.3509455M70.8476807 39.7525943C70.7445219 38.3729102 70.6413631 36.9932261 70.5382043 35.6117549 70.6164627 35.5635017 70.6929425 35.5152485 70.7712009 35.4669953 71.8027888 36.2533437 72.8361554 37.037905 73.8695219 37.8260406 74.0847325 37.9904589 74.2750427 38.1941946 74.5044821 38.3335928 75.2941804 38.8089761 75.9575982 38.4551193 76.0091776 37.5240113 76.0660928 36.5160556 76.0909932 35.5063127 76.1354582 34.4965698 76.1514656 34.1266286 76.1888162 33.7566874 76.4289271 33.3027499 77.2879909 34.3500231 78.145276 35.3972962 79.1288418 36.5964776 80.6086369 34.303557 82.4210302 32.7791133 85.053358 32.3698547 86.3446215 35.2757696 85.400185 37.4614609 82.7571855 39.1199412 83.1431417 39.5560071 83.3725811 39.8562493 83.6429283 40.1135997 87.4455748 43.7308025 90.3286853 48.044996 93.0161497 52.514672 93.8467558 53.8979304 94.0335088 55.2186383 92.9770205 56.6233426 92.6426437 57.0665571 92.5786141 57.777845 92.5465993 58.3729678 92.4505549 60.1833564 91.0703614 61.4951286 89.2882043 61.3878992 88.2174872 61.3235616 86.8266221 59.9653234 86.5865111 58.6892944 86.4317729 57.8743514 86.3588503 57.0433241 86.2379055 56.1408106 85.2952476 57.0147296 85.2952476 57.0594085 86.1240751 60.9500461 85.5531446 60.6426554 85.0675868 60.3799435 84.404169 60.0225124 84.2956744 61.6666955 84.1942943 63.1822034 84.0893569 64.7781333 83.2445219 64.636948 83.0702191 63.9453188 82.9261525 63.3573446 82.6237906 62.1134844 82.4281446 60.8446039 82.186255 59.5846593 82.1204468 59.2397383 82.0475242 58.8948172 81.8198634 58.5802779 81.279169 60.546149 81.883893 62.3583247 82.5633182 64.3903205 82.2271628 64.1579903 81.9408082 64.0668454 81.8678856 63.889917 81.4872652 62.9677447 81.0639585 62.0437853 80.8434121 61.0787213 80.5606147 59.8366482 80.5979653 58.5087917 80.2262379 57.3024617 79.9967985 56.5643664 79.2586796 55.985328 78.625498 55.1775337 78.3000142 55.7690822 78.0510102 56.1140032 77.9105009 56.4982417 76.9127063 59.2272282 75.856218 61.9383431 74.9811468 64.7084342 74.1291975 67.4052519 73.5885031 70.1807045 73.5600455 73.0401533 73.5493739 74.1857201 73.4266505 75.3366482 73.3003699 76.4804278 72.8592772 80.4729332 73.2345618 84.4493543 73.4977945 88.4293497 73.5387023 89.0494927 73.4924587 89.6785714 73.5813887 90.2897786 73.7147837 91.1940793 73.9406659 92.0840828 74.1096329 92.983022 74.2021201 93.476277 74.2465851 93.9784677 74.3372937 94.4717226 74.5649545 95.7245186 74.8246301 96.970166 75.0327262 98.2265364 75.1145418 98.7180042 75.0843056 99.2273435 75.1234348 99.727747 75.1785714 100.455119 75.1590068 101.203938 75.3350882 101.900928 75.8366534 103.886458 76.380905 105.866626 76.9874075 107.823562 77.6721685 110.03606 78.4440808 112.223539 79.176864 114.419953 79.212436 114.527182 79.2248862 114.64156 79.2622368 114.822063 77.8607001 115.704918 76.283082 116.064136 74.6841207 116.251787 72.67786 116.487692 72.7329966 116.410844 72.1638446 114.500375 71.7120803 112.981293 71.0522197 111.526548 70.5435401 110.021763 70.3141007 109.337282 70.2198349 108.606336 70.0739898 107.895048 69.9103586 107.106912 69.8872368 106.265162 69.579539 105.539577 68.4483495 102.882077 67.3420603 100.199556 65.9992174 97.6457108 64.7933267 95.349216 63.089428 93.3779834 61.1365253 91.6480168 60.6456318 91.213738 60.1476238 90.7830336 59.6834092 90.3201603 57.6326836 88.27208 55.1764371 86.8030382 52.6223677 85.5359449 51.6708167 85.0641358 50.4542544 85.1266863 49.3586369 84.9533322 48.4124217 84.801424 47.4626494 84.6602387 46.5164343 84.5101176 46.2905521 84.4725873 46.0664485 84.3796553 45.8387877 84.3760809 43.2135743 84.3314021 40.5848036 84.1866425 37.964926 84.2902975 34.5695788 84.4207598 31.190239 84.7049176 28.0545674 86.3026346 26.0714286 87.3141646 23.9353301 88.0254526 21.9539698 89.0423441 20.8743597 89.5945751 19.9317018 90.4524098 19.0032726 91.2602041 17.9592345 92.1716534 16.952547 93.1367174 16.0258964 94.166119 15.3891577 94.8738326 14.9053785 95.7209443 14.3717985 96.5180157 13.445148 97.8994869 12.5238332 99.2845325 11.6167473 100.678514 11.3855293 101.030583 11.1560899 101.400525 11.0191377 101.793699 10.302362 103.832843 9.60870803 105.882711 8.92216847 107.932578 8.77810188 108.363283 8.70340068 108.819007 8.59490609 109.264009 8.18227092 110.986827 7.78920034 112.715006 7.33210017 114.425314 7.27340637 114.646921 6.9070148 114.904272 6.65801081 114.932866 4.96834092 115.133028 3.34803643 114.86138 1.84867672 114.024991 1.17636596 113.647902 1.01984917 112.968782 1.30620376 112.089502 1.74729653 110.729477 2.1919465 109.367664 2.58323847 107.989767 2.72019067 107.516171 2.68284007 106.994321 2.75931986 106.499279 2.91050085 105.518131 2.86603586 104.422605 3.30535003 103.588003 3.94208879 102.372737 4.11639158 101.112793 4.36361696 99.818892 4.70155094 98.0567566 5.09640011 96.2946212 5.60863688 94.5771648 6.61176722 91.2048023 7.49395276 87.8252911 7.50640296 84.2706388 7.50818156 83.7845325 7.60600455 83.2090684 7.87635174 82.8319786 8.4597325 82.0170356 8.5059761 81.1395423 8.28542971 80.274559 8.03286853 79.2969849 8.29965851 78.4498732 8.56466989 77.5491468 8.91861127 76.3374553 9.25120945 75.1096795 9.43974104 73.8640321 9.62293682 72.6505534 9.58380763 71.4066932 9.69052362 70.1789173 9.83103301 68.5615416 10.0782584 66.9495273 10.168967 65.3285772 10.2472254 63.9095757 9.69408082 62.6978842 8.66782869 61.6935028 8.4099317 61.4415139 8.23740751 61.0662112 8.11646272 60.7159287 7.82832954 59.8759656 7.68959875 58.9698778 7.31609277 58.1728064 6.65089641 56.7591664 6.49082242 55.2847631 6.49971542 53.7621065 6.50149402 53.2295342 7.32498577 50.8186614 7.66469835 50.3718725 8.4686255 49.3156636 9.27788845 48.2612418 10.0942658 47.2157558 10.2116534 47.0656347 10.3574986 46.908365 10.524687 46.838666 11.6469835 46.3722184 12.778173 45.9290038 13.9378201 45.4661305 13.9449345 45.4893635 14.0356431 45.6180387 14.0018497 45.6841635 13.044963 47.5195722 12.9862692 49.4890176 13.2192658 51.4727603 13.3455464 52.5414793 13.623008 53.5959011 13.8702334 54.6467485 13.9182555 54.8486971 14.1014513 55.0720915 14.2828685 55.1793209 15.3660359 55.8191226 16.5203472 56.3534821 17.5501565 57.0683443 18.5817445 57.7849937 19.7609562 57.8761386 20.8992601 58.1191917 23.5707171 58.6857201 26.2457314 59.2969272 28.9509818 59.6257639 31.465922 59.9331546 34.0199915 59.9009858 36.5580535 60.0153638 36.8657513 60.0278739 37.1770063 60.0242996 37.484704 60.0171509 40.796457 59.9367289 44.1135458 59.926006 47.4181844 59.7383547 48.8250569 59.6597198 50.2212578 59.2468869 51.6067871 58.9251989 54.0505834 58.3586706 56.4854866 57.7456762 58.9239471 57.1469791 59.1089215 57.1005131 59.2992316 57.0379626 59.4646414 56.9450306 61.9297809 55.583218 64.4109277 54.25 66.8387166 52.825637 67.6977803 52.3234463 68.4394565 51.6121584 69.2042544 50.963421 69.873008 50.3986798 70.3478941 49.7070506 70.3959163 48.7830912 70.4723961 47.3265594 70.5648833 45.8700277 70.6573705 44.2812464 67.0841633 44.5475326 63.9698349 43.8380318 61.4139869 41.5629828 59.8915054 40.2101061 58.9897553 38.3997175 58.2729795 36.2604923 62.8742174 36.1121584 66.8885174 37.2398536 70.4795105 39.8902052 70.6022339 39.8455263 70.7231787 39.7990603 70.8476807 39.7525943"/>
    <g transform="translate(7.114 .038)">
      <mask id="b" fill="white">
        <use xlink:href="#a"/>
      </mask>
      <path fill="#FFFFFF" d="M49.1896699,21.8447596 C47.2634462,21.194235 45.5506545,20.6116223 43.8343056,20.0415197 C42.6977803,19.6626427 41.5470262,19.3248703 40.4158367,18.9316961 C39.3913631,18.574265 39.2579681,18.3079788 39.4482783,17.2910873 C40.4069437,12.2262885 41.3584946,7.15970253 42.3207171,2.09490372 C42.3900825,1.72674968 42.5145845,1.36753142 42.6177433,0.994015911 C43.5853017,1.04941773 43.9428002,1.51229102 43.903671,2.36297706 C43.8396414,3.71406664 43.7773904,5.06873054 43.7507114,6.42339444 C43.7275896,7.68870056 43.9588076,7.90137207 45.2429567,7.90137207 C48.2185544,7.90137207 51.1923734,7.89064914 54.167971,7.89601061 C54.6624217,7.89779776 55.1568725,7.94962527 55.8523051,7.99072985 C55.7153529,8.716315 55.6584377,9.36147815 55.4681275,9.96374957 C54.1537422,14.0992275 52.7735487,18.2114724 51.4876209,22.3558861 C49.9615822,27.2687767 47.820148,31.9010838 45.2714143,36.3475268 C44.1010956,38.3902456 42.8934263,40.4150928 41.5808196,42.3666667 C40.8978372,43.381771 40.0103159,44.2842846 39.0943369,45.1028018 C38.7137166,45.4423614 38.027177,45.5370806 37.4722538,45.5585265 C35.2436682,45.6407356 33.0133039,45.6675429 30.7829397,45.6854145 C26.3417758,45.7247319 21.9023904,45.7479649 17.4612265,45.7676237 C16.2250996,45.7729851 14.9889727,45.7497521 13.7510672,45.7122218 C12.4509106,45.6746916 12.3477518,45.576398 12.3495304,44.2985818 C12.3530876,42.6311657 12.41356,40.9619624 12.4153386,39.2927591 C12.422453,35.8864407 12.4028884,32.4783351 12.3993312,29.0720166 C12.395774,25.6281679 12.3975526,22.1843192 12.3975526,18.6975787 C8.4063745,18.9013144 4.40096756,19.1050502 0.110984633,19.3230831 C1.21727376,12.8303471 3.22887023,6.78797417 4.76380194,0.540078404 C5.78471827,0.808151735 6.21513944,1.14949844 6.20624644,2.10205235 C6.19023904,3.72657673 6.31474104,5.35467543 6.44457883,6.97741266 C6.52283722,7.95319958 6.9212436,8.19982705 7.79809334,8.13370229 C9.06089926,8.0371959 10.329041,7.98536838 11.5954041,7.94962527 C12.440239,7.92639225 13.285074,7.96749683 14.1299089,7.9728583 C14.7986625,7.97643261 15.2148549,8.15514816 15.1863973,8.97545255 C15.0601167,12.4890003 14.9142715,16.0043353 14.9018213,19.5196702 C14.8911497,22.4577539 15.0725669,25.3976248 15.1419323,28.3357085 C15.1721685,29.5777816 15.1348179,30.8180676 15.1294821,32.0601407 C15.1259249,32.867935 15.1294821,33.6757293 15.1294821,34.6175602 C19.259391,35.0214574 23.2238902,35.4092701 27.4213859,35.8221031 C28.4814314,29.9423614 29.5272482,24.1376802 30.5872937,18.2490027 L19.0246158,18.2490027 C19.0050512,18.0845843 18.9143426,17.8522541 18.9641434,17.6592413 C20.4386027,12.1619509 21.9183978,6.66466044 23.4319863,1.17988009 C23.5226949,0.845682002 23.8962009,0.36136285 24.1576551,0.348852761 C24.7517075,0.320258273 24.9384604,0.817087513 24.9598036,1.39970022 C25.0220546,3.02601176 25.1643426,4.6523233 25.1999146,6.28220915 C25.2372652,7.93711519 25.4062322,8.09795918 27.0976807,8.04613167 C29.4934548,7.9728583 31.8892288,7.9567739 34.2850028,7.92281794 C34.3970546,7.92103079 34.5091064,7.97107114 34.8541548,8.04970598 C33.2640865,17.1659864 31.6740182,26.284054 30.0590495,35.5433068 C31.1439954,35.7702756 32.1435686,36.0329874 33.1591491,36.1813213 C35.5584804,36.533391 37.9631474,36.8515047 40.3713717,37.1303009 C40.9511952,37.1964257 41.445646,36.9533725 41.8422738,36.4011415 C44.3323136,32.9179753 46.3154525,29.1774588 47.7454468,25.1331258 C48.1153956,24.0858526 48.6365253,23.090407 49.1896699,21.8447596" mask="url(#b)"/>
    </g>
    <path fill="#FFFFFF" d="M121.486198 18.4965237C122.725882 22.7571025 123.890865 26.8103713 125.100313 30.8493428 125.331531 31.6196068 125.320859 32.2629828 124.84953 32.931379 123.398193 34.9866079 121.975313 37.0632826 120.536426 39.1274473 120.499075 39.1792748 120.401252 39.1882105 120.152248 39.2936527 120.088219 38.8665225 119.981503 38.4804969 119.981503 38.0944713 119.983281 31.9984838 119.999289 25.9042834 120.00996 19.8065087 120.013517 18.476865 119.992174 18.4214632 118.63866 18.4929494 114.955179 18.6895365 111.275256 18.9808428 107.589997 19.1256024 104.696215 19.2417676 101.795319 19.2149602 98.8962009 19.2167474 96.735202 19.2185345 94.5724246 19.1756428 92.4114257 19.1291768 91.9205322 19.120241 91.4296386 19.0183731 90.7146414 18.9308025 91.2339926 17.4724836 91.676864 16.1339041 92.1855435 14.8203447 93.5995304 11.1709731 95.0455322 7.53411161 96.4666335 3.88831431 96.7583238 3.13949614 96.9557484 2.3531477 97.2758964 1.61862677 97.4395276 1.24332411 97.7792402.94665629 98.0389158.614245359 98.12251.64998847 98.2061042.687518736 98.2914769.725049003 98.4159789 3.05728698 98.5440381 5.38952496 98.6756545 7.8522253 99.2536995 7.89332987 99.7357001 7.95945463 100.219479 7.95945463 103.652177 7.94694454 107.083096 7.89690419 110.514015 7.90762712 115.490538 7.92371152 120.465282 7.9809005 125.440026 8.02200507 125.477376 8.02200507 125.516505 8.03272801 125.553856 8.03272801 127.78422 8.04345094 127.773549 8.03987663 127.334234 10.2988412 126.973179 12.1592701 126.647695 14.0286348 126.291975 15.8908509 126.195931 16.385893 126.010956 16.8612764 125.925583 17.3563185 125.813532 18.0300761 125.424018 18.2481091 124.785501 18.2284504 124.093625 18.2087917 123.394636 18.2248761 122.70276 18.2659806 122.338147 18.2874265 121.977092 18.4000173 121.486198 18.4965237M154.378024 29.0727315C157.63464 26.5099504 160.84857 24.0275914 163.368846 20.5390638 160.832563 19.8885391 158.397659 19.266609 155.829361 18.6089358 156.958772 12.9186325 157.91388 7.29445405 159.459483 1.80788654 160.37902 1.94371037 160.418149 2.47628272 160.409256 2.98204773 160.393248 3.9882163 160.307876 4.99438487 160.293647 6.0023406 160.284754 6.64392944 160.348783 7.28909259 160.384355 7.98072178L173.208061 7.98072178C172.5482 9.73570852 172.051971 11.3602329 171.333416 12.8793151 170.182662 15.3223567 168.944757 17.7296553 167.617921 20.0797648 167.038098 21.1073792 166.230613 22.0456359 165.382221 22.8766632 163.226558 24.9801453 161.010423 27.0282255 158.769387 29.0405627 157.997474 29.7321919 157.077938 30.2540413 156.215317 30.8384411 155.74221 31.1601291 155.359811 31.1083016 155.105471 30.5274761 154.908046 30.0699643 154.660821 29.6338983 154.378024 29.0727315M69.4134178 30.9646143C69.3618384 30.9449556 69.310259 30.9395941 69.2960302 30.914574 67.9211725 28.7002883 67.8482499 29.3436642 69.6392999 27.7316499 71.910572 25.6889312 74.1907371 23.6569353 76.4566733 21.6070679 76.6736625 21.412268 76.8195077 21.137046 77.0827405 20.7867635 75.2899118 20.3471233 73.6215851 19.9378646 71.9514798 19.5250317 71.6153244 19.4410354 71.279169 19.3534648 70.9483495 19.2498098 69.3067018 18.7297475 69.2978088 18.724386 69.6802077 17.0998616 70.8309619 12.2316499 71.9888304 7.36522541 73.1502561 2.49880088 73.2267359 2.17353857 73.3512379 1.85899919 73.4632897 1.51050386 74.2583238 1.66241208 74.3045674 2.13779546 74.315239 2.7311311 74.3454752 4.43071602 74.4379624 6.12851378 74.5126636 7.98715554L86.3723677 7.98715554C83.6048662 18.0095238 77.9898264 25.5888505 69.4134178 30.9646143M132.590175 28.9061686C135.818334 26.4917214 138.893533 24.0665514 141.538311 20.8246512 140.931808 20.6316384 140.551188 20.4958146 140.158118 20.3885853 138.484455 19.9239248 136.807235 19.4717745 135.135351 19.0053269 134.078863 18.7122334 133.98104 18.5674738 134.206922 17.4647988 134.493277 16.0618817 134.799196 14.6607518 135.12468 13.2649833 135.94995 9.72998962 136.785892 6.19499596 137.62717 2.66357662 137.685864 2.42052346 137.808587 2.19176755 137.911746 1.92905569 138.653422 2.12742996 138.6054 2.66178946 138.608957 3.15147008 138.61785 4.73310273 138.612514 6.31473539 138.612514 7.96785426 141.191484 7.96785426 143.649509 7.97142857 146.109313 7.9660671 147.188923 7.96427995 148.268533 7.9499827 149.3517 7.93747262 151.076942 7.91781391 151.187215 8.06614782 150.486447 9.70318229 149.721649 11.4831892 148.866143 13.2256659 148.128024 15.0163957 145.828294 20.5905338 141.881581 24.8278796 137.333701 28.5862677 136.439065 29.3261501 135.524865 30.0410123 134.62845 30.7755333 134.130443 31.1794304 133.730258 31.1722818 133.426117 30.5521388 133.169999 30.0338637 132.903209 29.5227372 132.590175 28.9061686M104.948954 86.3403436L104.959626 86.3403436C104.959626 86.9622737 104.925832 87.5842039 104.975633 88.2025597 104.993419 88.4277413 105.215744 88.8280641 105.327796 88.8209155 106.112159 88.7744494 106.989008 88.8352127 107.652426 88.493866 108.515047 88.0524386 108.783616 86.4189784 108.420781 85.3145163 108.100633 84.3387294 107.424765 83.8919405 106.179745 83.8347515 105.066342 83.782924 104.972076 83.8669203 104.950733 84.9445751 104.94184 85.4092356 104.948954 85.8756832 104.948954 86.3403436M104.948954 93.2101695L104.956069 93.2101695C104.956069 93.8285253 104.915161 94.4522426 104.975633 95.0670241 104.998755 95.3225873 105.173058 95.6925285 105.377597 95.7836735 107.134853 96.5628733 109.03262 95.3154387 109.077085 93.3906722 109.117992 91.7536377 108.340744 90.9190361 106.565701 90.6831316 105.077013 90.4829701 104.956069 90.5866252 104.948954 92.0467312 104.947176 92.434544 104.948954 92.8223567 104.948954 93.2101695M99.9297453 97.651251C99.7963503 96.2769284 99.8354795 96.1589761 100.904418 95.9016257 101.414876 95.7765248 101.621194 95.5459818 101.619415 95.0348553 101.610522 91.5802836 101.606965 88.1221377 101.622972 84.6657789 101.624751 83.9652139 101.210337 83.8293901 100.657193 83.7972213 100.136063 83.7686268 99.7358779 83.6077828 99.8159149 82.9626196 99.8835017 82.4300473 100.032904 81.9278566 100.690986 81.9421538 103.314421 82.0011299 105.955642 81.9081979 108.552398 82.2066528 110.9375 82.4836619 112.145169 84.2958377 111.910394 86.5780353 111.785892 87.7861524 111.273655 88.4563358 109.544856 89.6161997 109.859668 89.7591721 110.130016 89.8771244 110.396806 90.0057996 113.126956 91.3193589 113.445326 95.0241324 110.871692 96.6307852 109.89524 97.2419924 108.655556 97.6315923 107.504802 97.7120143 105.160608 97.8782198 102.79507 97.7674161 100.438425 97.7638418 100.290801 97.7638418 100.143177 97.6995042 99.9297453 97.651251"/>
    <g transform="translate(160.771 57.227)">
      <mask id="d" fill="white">
        <use xlink:href="#c"/>
      </mask>
      <path fill="#FFFFFF" d="M0.502454468,17.0775222 C0.392181275,16.0463334 0.546919465,15.4404877 1.5393782,15.2850052 C1.76703899,15.2510492 2.08362977,14.7452842 2.08718697,14.4539779 C2.12453756,10.8046062 2.12809476,7.15523464 2.08362977,3.50586302 C2.07829397,3.18238787 1.66210159,2.86963565 1.44866961,2.54258619 C1.21567302,2.18336792 0.854617245,1.8223625 0.829716847,1.44348553 C0.817266648,1.24511126 1.37041121,0.884105846 1.71723819,0.803683846 C2.75949772,0.557056382 3.82487906,0.414083939 5.08057057,0.194263807 L5.08057057,6.99081633 C6.3095831,5.9506918 7.43187962,5.45028825 8.78005834,5.53071025 C10.7436326,5.64866252 11.8570361,6.71202006 11.9086155,8.69754987 C11.9548591,10.5186614 11.9299587,12.3469215 11.9175085,14.1698201 C11.9139513,14.800686 11.9584163,15.3278969 12.7659007,15.4083189 C13.3137094,15.4637207 13.4239826,15.8694051 13.3279382,16.3555114 C13.2318939,16.8326819 12.9828899,17.0936066 12.4546457,17.0882451 C10.8361198,17.0703736 9.21581531,17.0810965 7.52792402,17.0810965 C7.44788702,16.2625793 7.36073563,15.5798859 8.34963717,15.2885795 C8.56840495,15.2260291 8.79962294,14.7703044 8.80673734,14.489721 C8.84764513,12.7418829 8.81918754,10.9958319 8.83519493,9.24799377 C8.83875213,8.62606365 8.51682555,8.28829125 7.96545959,8.20072063 C7.47812322,8.12208578 6.96410785,8.10242707 6.46965709,8.15425458 C5.35269636,8.27220685 5.18728657,8.48130405 5.18017217,9.6447423 C5.16950057,11.158463 5.18372937,12.6721838 5.17483637,14.1876917 C5.17305777,14.7560071 5.19262237,15.2403263 5.90228372,15.4476363 C6.12994451,15.5137611 6.39317729,16.0445463 6.34515509,16.3108325 C6.2953543,16.5967774 5.90939812,17.0346305 5.65505834,17.0417791 C3.96538845,17.109691 2.27216135,17.0775222 0.502454468,17.0775222" mask="url(#d)"/>
    </g>
    <path fill="#FFFFFF" d="M126.472859 68.3762135C126.472859 67.5255275 126.510209 66.6730543 126.451515 65.8259426 126.433729 65.5399977 126.230969 65.1289519 125.997972 65.0181483 124.879233 64.4873631 123.619984 64.9395134 123.065061 66.0636343 122.353621 67.5058688 122.209555 69.0303125 122.682662 70.5726277 123.100633 71.9255044 124.607107 72.5706676 125.866356 71.9058457 126.158046 71.7521504 126.412386 71.276767 126.447958 70.9264845 126.531552 70.0847342 126.474637 69.2286867 126.472859 68.3762135M126.476416 62.6805488C126.476416 62.0032169 126.455073 61.4634959 126.48353 60.9273492 126.510209 60.3661824 126.321678 60.0194742 125.812998 59.7085092 125.489293 59.5119221 125.227839 59.0043699 125.20116 58.6201314 125.188709 58.4396287 125.779205 58.1179407 126.138482 58.0339444 127.180741 57.7926784 128.246123 57.6371959 129.464464 57.4191629 129.496478 57.9999885 129.546279 58.4449902 129.546279 58.8917791 129.551615 62.970068 129.553394 67.048357 129.546279 71.1248588 129.544501 71.8879742 129.462685 72.6314309 130.579646 72.6725355 130.775292 72.6814712 131.163026 73.2140436 131.104333 73.3623775 130.956709 73.7412545 130.629446 74.2934855 130.330642 74.32208 129.190559 74.436458 128.034469 74.3685461 126.825021 74.3685461 126.766328 74.0540067 126.707634 73.7269572 126.622261 73.2569353 125.766754 74.104047 124.838325 74.5526231 123.680457 74.5276029 122.072602 74.493647 120.85604 73.8377609 120.004091 72.483097 117.707918 68.8212153 119.771094 63.6956532 123.899225 62.8735616 124.68003 62.7180791 125.496407 62.7484607 126.476416 62.6805488M139.272197 68.4494869C139.272197 67.5952266 139.307769 66.7427534 139.252632 65.8938545 139.234846 65.5953995 139.076551 65.175418 138.84889 65.0413813 137.957812 64.5159576 136.565168 64.9323648 136.028031 65.8456013 135.170746 67.2985587 135.124502 68.8819786 135.501565 70.4582497 135.821713 71.7932549 136.90488 72.3508475 138.272624 72.0649026 138.918256 71.9308659 139.307769 71.6181137 139.279311 70.8871671 139.247297 70.0757985 139.272197 69.2608555 139.272197 68.4494869M139.231289 73.5375187C137.742601 74.7527845 136.060046 74.9225643 134.400612 73.9717975 132.431702 72.8441024 131.848321 70.8925285 131.96393 68.7765364 132.163133 65.0360198 134.485985 62.8628387 138.265509 62.7806295 139.012521 62.7645451 139.316662 62.5340021 139.282869 61.7762481 139.241961 60.9076905 139.490965 59.971221 138.349104 59.5333679 138.139229 59.4529459 137.979155 58.9436066 138.005834 58.6505131 138.021841 58.4467774 138.368668 58.1590453 138.612336 58.1054306 139.773762 57.8498674 140.949417 57.6604289 142.269138 57.4209501 142.301153 58.0071371 142.349175 58.4557131 142.349175 58.9060763 142.354511 62.9825781 142.359846 67.0608671 142.347396 71.1373688 142.343839 71.9147815 142.290481 72.6314309 143.389656 72.6743226 143.588859 72.6832584 143.962365 73.1783005 143.916121 73.367739 143.832527 73.7233829 143.535501 74.2577424 143.268711 74.2952727 142.201551 74.4471809 141.113048 74.4918598 140.038773 74.4436066 139.780876 74.4328837 139.54788 73.9110342 139.231289 73.5375187M142.528813 80.8584227L142.528813 86.4271994 142.528813 91.7815174C142.603515 91.8279834 142.679994 91.8726623 142.754696 91.9173412 143.699132 90.7574772 144.64179 89.5976133 145.588005 88.4359622 145.148691 87.9945348 144.238048 88.2590338 144.3501 87.3493716 144.414129 86.8471809 144.583096 86.4075406 145.171813 86.4021792 146.671172 86.3843076 148.170532 86.3968177 149.700128 86.3968177 149.874431 87.3743918 149.662777 87.8104577 148.791264 88.2947769 147.725882 88.8881125 146.923734 89.9639802 145.973961 90.8629194 147.39862 93.4310619 148.750356 95.8669549 150.09142 98.2831892 149.152319 99.3805027 148.590282 99.3965871 147.76679 98.3868442 146.44529 96.764107 145.125569 95.1431569 143.699132 93.3917445 143.375427 93.7259426 143.057057 93.9868673 142.824061 94.3067681 142.301153 95.0269918 142.48257 95.6006687 143.215353 96.1082209 143.459021 96.2780007 143.704468 96.7212153 143.652888 96.9803528 143.594195 97.2752335 143.211796 97.7184481 142.955677 97.7273838 141.267786 97.7952957 139.576338 97.7613398 137.856431 97.7613398 137.751494 96.8427418 137.753273 96.1528998 138.790196 96.0224374 139.304212 95.9580999 139.466064 95.6131788 139.464286 95.1127753 139.453614 91.4598294 139.4714 87.8068834 139.43405 84.1539375 139.430492 83.8519082 139.142359 83.458734 138.872012 83.2764441 138.429141 82.9726277 138.030734 82.7099158 138.123221 82.0969215 138.231716 81.390995 138.831104 81.4946501 139.298876 81.4106538 140.277106 81.230151 141.260672 81.0728814 142.528813 80.8584227M108.605222 105.133356C109.437607 105.23165 110.394493 105.351389 111.353159 105.455044 111.995233 105.522956 112.322496 105.839283 112.308267 106.514828 112.286924 107.524571 112.294038 108.534313 112.299374 109.545843 112.302931 110.291087 111.86006 110.537715 111.203756 110.630647 110.481645 110.734302 110.230862 110.344702 110.140154 109.728133 110.124146 109.613755 110.085017 109.502952 110.054781 109.390361 109.830677 108.494996 109.937393 107.44951 108.514513 107.351216 105.97823 107.177862 105.305919 107.351216 104.605151 108.931062 103.561113 111.290107 103.436611 113.759956 104.096471 116.226231 104.686966 118.433368 106.691448 119.568212 108.960942 119.17325 109.524758 119.076744 109.875142 118.810458 109.985415 118.234994 110.060117 117.85433 110.181061 117.482601 110.24687 117.10015 110.3607 116.424605 110.659505 116.056451 111.420746 116.179765 112.125071 116.290568 112.434548 116.642638 112.386525 117.3575 112.356289 117.782843 112.382968 118.209973 112.382968 118.638891 112.38119 120.350986 112.270916 120.579742 110.65239 120.999723 107.84576 121.73067 105.126281 121.669907 102.718056 119.766586 102.298307 119.432388 101.910572 119.035639 101.586867 118.608509 97.9051651 113.781402 100.496585 106.439767 106.277035 105.328156 106.99381 105.190545 107.737265 105.203055 108.605222 105.133356M107.436148 72.2437968C108.021308 72.3974922 108.535323 72.5315289 109.03511 72.6619912 109.275221 73.9952093 109.079575 74.2865156 107.87902 74.2954514 106.031054 74.3097486 104.18131 74.2990257 102.349353 74.2990257 102.169714 72.9211288 102.19995 72.8299839 103.322247 72.4582555 103.814919 72.2956244 103.980329 72.0186152 103.996336 71.5271475 104.06748 69.4200911 104.078152 67.3702237 102.79756 65.4937104 101.926046 64.2194685 101.349779 62.7486395 100.584982 61.3975499 100.355542 60.9900784 99.8966633 60.7166436 99.604973 60.3324052 99.3968768 60.0625447 99.1460942 59.6890292 99.1887806 59.4030843 99.2368028 59.101055 99.6031944 58.6203102 99.8415268 58.6131615 101.723285 58.5470368 103.606823 58.5756313 105.46546 58.5756313 105.645098 59.9821227 105.645098 59.9821227 103.88962 60.6648161 104.659754 62.3447423 105.42633 64.0157327 106.317409 65.9565837 107.213823 64.0461144 107.99285 62.3858469 108.809227 60.6415831 108.432164 60.5164822 108.156481 60.3913813 107.870127 60.3377666 107.347218 60.2394731 107.075092 59.9213594 107.25651 59.4424017 107.388126 59.1046293 107.727839 58.6238845 107.998186 58.6078001 109.378379 58.5238038 110.767466 58.5684826 112.204575 58.5684826 112.38777 59.388787 112.401999 59.9928456 111.640758 60.4539317 111.30816 60.6558803 111.057378 61.0562032 110.859953 61.4154214 109.903066 63.1489623 109.003095 64.914672 108.030201 66.6374899 107.574879 67.4434971 107.354333 68.2512914 107.420141 69.1841866 107.491285 70.1849937 107.436148 71.1911622 107.436148 72.2437968M131.518569 121.135726C131.41541 120.327932 131.41541 119.7757 132.176651 119.4558 132.445219 119.341422 132.740467 118.916079 132.747581 118.624772 132.800939 116.837617 132.767146 115.048674 132.77426 113.261519 132.777817 112.691416 132.471898 112.344708 131.959661 112.310752 131.2749 112.260711 130.575911 112.287519 129.892928 112.371515 129.386027 112.435853 129.106787 112.778987 129.110344 113.352663 129.129909 115.100502 129.124573 116.851914 129.110344 118.599752 129.106787 119.100156 129.279311 119.352145 129.784434 119.511201 130.054781 119.595198 130.430065 120.067007 130.378486 120.268955 130.29667 120.601366 129.919607 121.096408 129.645703 121.107131 127.957812 121.183979 126.264585 121.146449 124.546457 121.146449 124.338361 120.238574 124.409505 119.613069 125.353941 119.475458 125.899972 119.395036 126.040481 119.080497 126.038702 118.587242 126.029809 116.721452 126.070717 114.853874 126.004909 112.991658 125.992459 112.61993 125.581602 112.266073 125.359277 111.901493 125.136952 111.535126 124.767003 111.165185 124.763446 110.793457 124.759889 110.58436 125.339713 110.262672 125.700768 110.173314 126.662991 109.939196 127.644778 109.803373 128.660359 109.62287 128.802647 110.126848 128.902248 110.48964 129.035643 110.963236 129.332669 110.782734 129.56033 110.582572 129.82712 110.495002 130.766221 110.191185 131.7071 109.728312 132.665766 109.687207 134.73072 109.594275 135.82278 110.738055 135.863688 112.812942 135.902817 114.637628 135.88681 116.467676 135.870803 118.292361 135.865467 118.939312 135.947282 119.425418 136.751209 119.520137 136.985985 119.546945 137.391505 119.991946 137.350598 120.154577 137.261668 120.512009 136.95397 121.082111 136.71208 121.092834 134.988617 121.173256 133.259818 121.135726 131.518569 121.135726M129.371621 92.1695088C129.553038 92.9862389 129.663311 93.9137726 129.972787 94.7662458 130.278707 95.6133575 131.043505 95.9243226 131.927469 95.9278969 132.832776 95.9314712 133.524651 95.5472328 133.85725 94.7179926 134.52956 93.0380664 134.561575 91.3152485 133.915943 89.6228122 133.554888 88.6756197 132.727839 88.2038107 131.726487 88.2288309 130.750036 88.253851 130.115075 88.7989335 129.839392 89.6692782 129.595724 90.4288193 129.535252 91.2473366 129.371621 92.1695088M137.672346 92.0604923C137.668789 95.4382163 135.15207 98.0117203 131.854546 98.0117203 128.494771 98.0117203 126.050975 95.4936181 126.075875 92.0604923 126.100775 88.7989335 128.683303 86.1646662 131.870554 86.1521561 135.260565 86.1360717 137.674125 88.5969849 137.672346 92.0604923M116.721685 92.272449C116.917331 93.0266286 117.072069 93.9470137 117.404667 94.7976998 117.733708 95.6376629 118.502063 95.9307564 119.386027 95.9271821 120.241534 95.9253949 120.899616 95.5715381 121.233993 94.7834025 121.968554 93.0677332 121.972112 91.3109593 121.306915 89.5827799 120.944081 88.6409489 120.077903 88.1834371 119.089001 88.2299031 118.055635 88.2817307 117.454468 88.894725 117.187678 89.8186844 116.976024 90.5567797 116.894209 91.3324052 116.721685 92.272449M119.201053 98.0110054C115.896414 97.9841981 113.493526 95.4929033 113.509533 92.1062435 113.525541 88.7517526 116.102732 86.1264211 119.352234 86.1514413 122.676437 86.1782486 125.116676 88.6623948 125.109562 92.0115243 125.100669 95.4375014 122.541264 98.0360256 119.201053 98.0110054M149.14645 114.109345C150.288311 114.04322 151.277213 113.991393 152.266114 113.923481 152.892181 113.882376 153.016683 113.485628 152.90641 112.94412 152.748115 112.168494 152.120269 111.616263 151.277213 111.521544 150.247403 111.401804 149.85789 111.612689 149.495055 112.583114 149.33676 113.004883 149.288738 113.465969 149.14645 114.109345L149.14645 114.109345zM149.206922 115.515837C148.909896 118.22159 151.579575 120.092742 155.211476 118.228739 155.659683 118.684463 155.679247 119.224184 155.263055 119.64774 154.733032 120.185674 154.154987 120.823688 153.479119 121.045296 149.196251 122.442851 145.637272 119.703142 145.825804 115.292442 145.896948 113.614303 146.524794 112.123815 147.80005 110.960377 149.342096 109.55746 151.663169 109.214326 153.532477 110.125775 155.138553 110.90855 156.147019 113.124622 155.727269 114.858163 155.579646 115.478306 155.165232 115.514049 154.679674 115.514049 153.290588 115.514049 151.899723 115.515837 150.510636 115.515837L149.206922 115.515837zM116.827689 114.128468C118.04603 114.03911 119.102518 113.998005 120.144778 113.851459 120.343981 113.822864 120.626779 113.385011 120.628557 113.134809 120.635672 112.328802 119.952689 111.680065 119.082954 111.537092 118.026466 111.361951 117.581816 111.592494 117.210088 112.584365 117.051793 113.00256 116.989542 113.456497 116.827689 114.128468L116.827689 114.128468zM116.923734 115.5153C116.793896 118.674991 119.37998 119.779453 122.906944 118.25501 123.461867 118.814389 123.273335 119.345175 122.8358 119.865237 121.384462 121.591629 119.470689 121.627372 117.516007 121.205604 116.004197 120.876767 114.89613 119.908129 114.190026 118.515935 112.934334 116.046086 113.478586 112.873884 115.470618 111.006307 117.003771 109.569434 119.298164 109.206641 121.197709 110.102006 122.830464 110.870483 123.856716 113.068684 123.442302 114.809374 123.301793 115.397348 122.942516 115.517088 122.4285 115.5153 121.035857 115.506365 119.644991 115.513513 118.252348 115.5153L116.923734 115.5153zM155.786675 74.523135C155.477198 74.5052635 155.167722 74.499902 154.860024 74.4713075 152.923129 74.2800819 152.624324 73.8994177 152.754162 71.9925228 152.79507 71.3723798 153.065417 71.075712 153.641683 70.9774184 154.207278 70.880912 154.463396 71.1346881 154.643035 71.6672605 154.932947 72.5197337 156.544358 72.9593739 157.268248 72.4375245 157.794714 72.0604347 157.743135 71.0810734 157.079717 70.639646 156.373613 70.1696241 155.58925 69.8229159 154.835124 69.433316 153.636347 68.8131731 152.722147 67.9928687 152.702583 66.5059553 152.683018 65.0172547 153.568761 63.7608844 155.125036 63.1514643 156.551473 62.5920846 158.013482 62.6331892 159.447033 63.0817652 159.751174 63.1764845 160.057093 63.6161248 160.153137 63.9592586 160.275861 64.3899631 160.176259 64.883218 160.186931 65.3496656 160.199381 65.9036838 159.961049 66.2164361 159.399011 66.3022195 158.852981 66.3862158 158.545283 66.2092874 158.349637 65.664205 158.036604 64.7759887 157.11351 64.3988989 156.233103 64.7241612 155.624822 64.9493428 155.425619 65.7249683 155.921848 66.2575406 156.254446 66.6131846 156.72044 66.8526634 157.152639 67.1046524 157.851629 67.5085495 158.634213 67.7980687 159.272731 68.284175 160.951729 69.5602041 161.058445 71.6333045 159.592878 73.1523867 158.54884 74.2371901 157.246905 74.5981955 155.786675 74.523135M142.190168 109.870033C142.846471 109.870033 143.417402 109.891479 143.986554 109.864672 144.690879 109.832503 144.943441 110.168488 144.934548 110.847608 144.923876 111.465963 144.705108 111.74476 144.055919 111.791226 142.088788 111.934198 142.090566 111.957431 142.090566 113.923302 142.090566 115.165375 142.081673 116.407448 142.094124 117.649522 142.104795 118.861213 142.444508 119.143584 143.659291 118.961294 143.999004 118.909466 144.328045 118.789727 144.681986 118.695007 145.268924 119.220431 145.048378 119.71726 144.662422 120.212303 143.828258 121.279234 142.151039 121.720662 140.745945 121.245278 139.598748 120.857466 139.022482 119.933506 139.010031 118.392978 138.994024 116.528975 138.995803 114.664972 139.010031 112.800969 139.015367 112.220143 138.967345 111.735824 138.293256 111.524939 137.807698 111.374818 137.782797 110.985218 138.030023 110.586683 138.926437 109.139087 140.224815 108.277678 141.976736 107.7737 142.051437 108.513582 142.108352 109.078324 142.190168 109.870033M156.882648 121.16021C156.788382 120.214805 156.848855 119.578577 157.862657 119.40701 158.104546 119.364119 158.444259 118.894097 158.453152 118.613513 158.504731 116.71198 158.511845 114.805085 158.453152 112.905338 158.44248 112.572927 158.045852 112.258388 157.834199 111.929551 157.602981 111.570333 157.161888 111.166436 157.215246 110.85011 157.263268 110.562377 157.821749 110.2532 158.205926 110.153119 159.095226 109.919001 160.014762 109.806411 161.042793 109.624121 161.192196 110.204946 161.323812 110.712499 161.483886 111.329067 161.962329 110.891214 162.383857 110.449787 162.856965 110.08342 163.984597 109.213075 164.772517 109.554422 164.930812 110.953765 164.968163 111.262942 165.001956 111.57212 165.032193 111.881298 165.078436 112.395999 164.854333 112.69088 164.333203 112.751643 163.758715 112.819555 163.186006 112.946443 162.611518 112.962527 161.816484 112.983973 161.531908 113.346766 161.553251 114.125966 161.590602 115.562839 161.583487 117.001499 161.556808 118.438372 161.544358 119.103194 161.761347 119.451689 162.46923 119.478496 162.922773 119.492794 163.463468 119.530324 163.404774 120.221953 163.349637 120.861755 163.009925 121.176294 162.334057 121.167358 160.528778 121.144125 158.723499 121.16021 156.882648 121.16021"/>
    <g transform="translate(72.538 116.204)">
      <mask id="f" fill="white">
        <use xlink:href="#e"/>
      </mask>
      <path fill="#FFFFFF" d="M0.380976096,1.81163957 C1.25604724,1.81163957 2.01017359,1.93674046 2.70204895,1.78304508 C4.08224246,1.47744149 5.45532157,1.08784158 6.78571429,0.60173527 C7.85643142,0.212135363 7.89911781,0.122777586 8.36688958,1.13430762 C8.93426295,2.36387063 9.41448492,3.63275107 9.95695788,4.87303701 C10.2415339,5.52177447 9.99608708,6.01324225 9.41982072,6.17766056 C8.0574132,6.56904762 6.67721969,6.99439064 5.27924018,7.12664015 C4.10892146,7.23386948 2.90303073,6.93184019 1.71314741,6.83354664 C1.11553785,6.78350628 0.825626067,6.51543295 0.77938247,5.89171567 C0.681559476,4.58173066 0.528599886,3.27531996 0.380976096,1.81163957" mask="url(#f)"/>
    </g>
    <path fill="#FFFFFF" d="M145.003913 74.3083189C144.975455 73.3700623 145.000356 72.6820074 146.035501 72.5318863 146.27739 72.4961432 146.631332 72.0404185 146.638446 71.7705581 146.691804 69.8690246 146.652675 67.9639168 146.675797 66.0605961 146.68469 65.485132 146.325413 65.301055 145.948349 65.0008129 145.64243 64.7559726 145.414769 64.278802 145.380976 63.8838407 145.366747 63.715848 145.90922 63.3923729 146.238261 63.3226738 147.31965 63.0885564 148.417046 62.9384354 149.63183 62.7364868 149.670959 63.3512683 149.722538 63.8052058 149.724317 64.2591433 149.73321 66.6289116 149.742103 68.9986798 149.72076 71.3684481 149.713645 72.069013 149.791904 72.5962239 150.666975 72.6248184 151.159647 72.6391156 151.44778 72.930422 151.348179 73.4808659 151.255692 73.9937795 151.033367 74.3226162 150.435757 74.3154675 148.662493 74.2958088 146.889229 74.3083189 145.003913 74.3083189M116.424659 62.7372017C116.463788 63.3591318 116.518924 63.8130693 116.518924 64.2670068 116.529596 66.6385622 116.53671 69.0083305 116.515367 71.3780987 116.508253 72.082238 116.609633 72.5737058 117.468697 72.6505534 117.714143 72.6719993 118.085871 73.1116396 118.105435 73.3797129 118.139229 73.8390119 117.938247 74.3108209 117.310401 74.3090338 115.503344 74.3072466 113.696286 74.3090338 111.866107 74.3090338 111.734491 73.3600542 111.778956 72.725614 112.790979 72.530814 113.045319 72.484348 113.397482 72.0321976 113.404596 71.7569757 113.457954 69.8161248 113.459732 67.8716995 113.404596 65.9308486 113.395703 65.6395423 112.995518 65.3678946 112.796315 65.073014 112.552647 64.7155828 112.118668 64.3170472 112.163133 63.993572 112.204041 63.7129886 112.771414 63.3895134 113.155592 63.3001557 114.192516 63.0588897 115.256118 62.9284273 116.424659 62.7372017M142.030272 37.380324C140.961333 38.0665917 140.05069 38.6956705 139.093803 39.2479015 138.658046 39.4981033 138.19561 39.4087455 137.919927 38.8994062 137.498399 38.1166321 137.087543 37.3267093 136.650007 36.5546581 136.36721 36.059616 136.491712 35.668229 136.881225 35.3179465 136.996834 35.2160786 137.124893 35.1267209 137.249395 35.0355759 139.305457 33.5522368 139.310793 33.5486625 140.801259 35.5788712 141.187215 36.1060821 141.539378 36.6583132 142.030272 37.380324M114.962294 58.5495388C115.999217 58.5298801 116.71955 59.1535974 116.749787 60.0972155 116.778244 61.0622795 115.98321 61.8522022 114.99253 61.8396921 114.021414 61.8289692 113.285074 61.1194685 113.276181 60.1865733 113.267288 59.2054249 113.921813 58.5691975 114.962294 58.5495388M149.955891 60.1551193C149.952334 61.0880145 149.221329 61.817174 148.264442 61.8386199 147.259533 61.86364 146.468056 61.1005246 146.482285 60.1265248 146.494735 59.1775453 147.197282 58.5448922 148.234206 58.5484665 149.265794 58.5520408 149.961227 59.1989911 149.955891 60.1551193M77.1956816 45.2811599C78.0476309 45.2829471 78.6843697 45.9120258 78.6772553 46.7430532 78.6719195 47.3328145 78.0867601 47.9011299 77.4606929 47.924363 76.7972752 47.947596 75.9613332 47.0843999 75.975562 46.3891964 75.9880122 45.7082901 76.4593412 45.2793728 77.1956816 45.2811599"/>
  </g>
</svg>
