<svg xmlns="http://www.w3.org/2000/svg" width="324" height="72" viewBox="0 0 324 72">
  <g fill="#FFFFFF" fill-rule="evenodd">
    <path d="M66.1129297 37.7596599C59.3527135 37.7173884 65.5554162 33.7978014 64.7833622 30.7732038L64.7016324 30.6726268C62.3168757 25.3274704 54.9830919 35.7495779 47.7237405 27.9308108 46.3212 23.9208503 43.9349838 8.29643486 43.9349838 8.29643486 37.6126054 5.74119648 26.5878486.00102034619 26.5878486.00102034619 26.2054703 2.26327361 22.5363892 14.0876283 22.5363892 14.0876283 29.0076324 16.9650046 43.8766054 26.129171 47.366173 28.3025084 54.4854162 35.2044215 59.6577405 29.7499423 62.0614703 32.1535864L62.1446595 32.2570787C63.8259568 34.695706 59.8270378 36.207276 62.4876324 38.5118008 65.1628216 40.8279866 72.0879568 34.6286547 78.4293081 40.7798846L83.8526595 40.8469359C77.0209297 34.9668266 72.8935784 37.8019314 66.1129297 37.7596599M9.77706486 68.7260006L10.1083622 68.7260006C12.4245243 68.7260006 14.361227 68.0627756 14.361227 64.7597692L14.361227 56.5488977 5.95182162 42.396696C4.39311892 39.6607106 3.16425405 38.8123656.000145945945 38.5281263L.000145945945 36.5471971 16.5825243 36.5471971 16.5825243 38.5281263C13.6037676 38.5281263 12.8010649 39.2831825 12.8010649 40.2262739 12.8010649 40.7932949 13.1790649 41.452147 13.7000919 42.3500516L19.7466324 52.5870392 25.6983081 42.7261221C26.2660378 41.7830307 26.7389027 40.8399393 26.7389027 40.3210203 26.7389027 39.2350805 25.9347405 38.6695172 22.8640378 38.5281263L22.8640378 36.5471971 35.5248486 36.5471971 35.5248486 38.5281263C32.3125784 38.6214151 31.2719838 39.6607106 29.3834432 42.7261221L21.1637676 56.2194716 21.1637676 64.7597692C21.1637676 68.0627756 23.1004703 68.7260006 25.415173 68.7260006L25.7464703 68.7260006 25.7464703 70.7054722 9.77706486 70.7054722 9.77706486 68.7260006z"/>
    <path d="M53.6634486 59.0035591C53.6634486 66.5060188 48.5597189 71.5552748 41.3339351 71.5552748 34.1052324 71.5552748 29.0044216 66.5060188 29.0044216 59.0035591 29.0044216 51.5025569 34.1052324 46.4562162 41.3339351 46.4562162 48.5597189 46.4562162 53.6634486 51.5025569 53.6634486 59.0035591M35.8069622 59.0035591C35.8069622 62.4479563 36.7979351 69.2901063 41.3339351 69.2901063 45.8699351 69.2901063 46.8609081 62.4479563 46.8609081 59.0035591 46.8609081 55.5620771 45.8699351 48.7184695 41.3339351 48.7184695 36.7979351 48.7184695 35.8069622 55.5620771 35.8069622 59.0035591M54.0389676 47.3041239L62.5432378 47.3041239C63.2977784 47.3041239 63.6757784 47.1131734 64.1004811 47.0198846L64.1004811 63.110744C64.1004811 66.2227999 65.7073459 67.3101974 68.0220486 67.3101974 71.0927514 67.3101974 73.2177243 64.6208564 73.2177243 61.1764592L73.2177243 53.2498269C73.2177243 50.3214333 72.3683189 49.2835955 69.9120486 49.2835955L69.6756162 49.2835955 69.6756162 47.3041239 78.178427 47.3041239C78.934427 47.3041239 79.312427 47.1131734 79.7371297 47.0198846L79.7371297 64.7607896C79.7371297 67.6848102 80.5879946 68.7255633 83.2339946 68.7255633L83.6586973 68.7255633 83.6586973 70.7064926 73.5957243 70.7064926 73.5957243 66.8845673 73.5023189 66.8845673C71.3291838 69.7604859 68.8247514 71.5562952 65.0462108 71.5562952 60.8429676 71.5562952 57.5810757 69.1482782 57.5810757 63.2973216L57.5810757 53.2498269C57.5810757 50.3214333 56.7302108 49.2835955 54.2754 49.2835955L54.0389676 49.2835955 54.0389676 47.3041239zM82.806227 47.8705618C87.9084973 47.4915761 90.1764973 43.009341 90.3647676 38.4338172L93.5288757 38.4338172 93.5288757 47.3049985 100.426281 47.3049985 100.426281 49.8529487 93.5288757 49.8529487 93.5288757 62.6845308C93.5288757 65.6085515 93.7653081 67.5909384 95.5633622 67.5909384 97.3570378 67.5909384 98.0196324 65.9875372 98.0196324 64.2412876L98.0196324 62.3070027 100.286173 62.3070027 100.286173 64.1931855C100.286173 68.9130155 97.9233081 71.5557121 93.7200649 71.5557121 89.0906595 71.5557121 87.0109297 69.1491527 87.0109297 64.6202733L87.0109297 49.8529487 82.806227 49.8529487 82.806227 47.8705618zM101.654562 68.7260006L102.079265 68.7260006C104.725265 68.7260006 105.57467 67.6867051 105.57467 64.7597692L105.57467 42.4899848C105.57467 39.5659642 104.725265 38.5281263 102.079265 38.5281263L101.654562 38.5281263 101.654562 36.5471971 110.535373 36.5471971C111.291373 36.5471971 111.669373 36.3577042 112.094076 36.2629578L112.094076 50.6556696 112.188941 50.6556696C114.077481 48.4356878 116.345481 46.4547586 120.361914 46.4547586 124.518454 46.4547586 127.778886 48.8613179 127.778886 54.7108169L127.778886 64.7597692C127.778886 67.5919587 128.298454 68.7260006 131.22613 68.7260006L131.652292 68.7260006 131.652292 70.7054722 118.187319 70.7054722 118.187319 68.7260006 118.518616 68.7260006C120.220346 68.7260006 121.259481 68.0627756 121.259481 65.9419131L121.259481 54.9003097C121.259481 51.7867962 119.652616 50.6993987 117.336454 50.6993987 114.220508 50.6993987 112.094076 53.2502642 112.094076 57.1173763L112.094076 65.6095718C112.094076 67.9228424 112.613643 68.7260006 114.362076 68.7260006L115.164778 68.7260006 115.164778 70.7054722 101.654562 70.7054722 101.654562 68.7260006zM136.419324 47.4179654L146.402027 47.4179654 146.402027 48.5155664 145.981703 48.5155664C145.011162 48.5155664 143.073 48.8056362 143.073 50.1918494 143.073 50.7734467 143.235 51.2253143 143.363432 51.5795202L149.501919 66.6442029 155.186514 52.452645C155.41273 51.9031157 155.767378 50.8711084 155.767378 50.1597814 155.767378 48.5155664 153.376784 48.5155664 152.375595 48.5155664L152.375595 47.4179654 161.033108 47.4179654 161.033108 48.5155664C159.740027 48.5155664 158.384189 49.2575038 157.803324 50.707853L149.760243 70.7751473 147.791432 70.7751473 139.551324 50.675785C138.970459 49.2866565 137.903595 48.5155664 136.581324 48.5155664L136.419324 48.5155664 136.419324 47.4179654zM173.376195 47.4179654L173.376195 48.5155664 172.699005 48.5155664C170.9856 48.5797024 169.82387 49.0301124 169.82387 50.7734467L169.82387 67.419666C169.82387 69.1630003 170.9856 69.6148679 172.699005 69.6775463L173.376195 69.6775463 173.376195 70.7751473 163.104519 70.7751473 163.104519 69.6775463 163.783168 69.6775463C165.495114 69.6148679 166.656843 69.1630003 166.656843 67.419666L166.656843 50.7734467C166.656843 49.0301124 165.495114 48.5797024 163.783168 48.5155664L163.104519 48.5155664 163.104519 47.4179654 173.376195 47.4179654zM180.611465 50.7731552C180.611465 49.0312785 179.449735 48.5794109 177.73633 48.5152748L177.0606 48.5152748 177.0606 47.4176739 187.330816 47.4176739 187.330816 48.5152748 186.653627 48.5152748C184.940222 48.5794109 183.777032 49.0312785 183.777032 50.7731552L183.777032 69.0971151 190.335843 69.0971151C193.565627 69.0971151 193.759735 67.2590343 194.0166 64.1280292L195.115573 64.1280292 195.115573 70.7748558 177.0606 70.7748558 177.0606 69.6772548 177.73633 69.6772548C179.449735 69.6131187 180.611465 69.1627088 180.611465 67.4193744L180.611465 50.7731552zM201.643881 50.7731552C201.643881 49.0312785 200.480692 48.5794109 198.767286 48.5152748L198.090097 48.5152748 198.090097 47.4176739 208.363232 47.4176739 208.363232 48.5152748 207.683124 48.5152748C205.971178 48.5794109 204.80653 49.0312785 204.80653 50.7731552L204.80653 69.0971151 211.3668 69.0971151C214.598043 69.0971151 214.790692 67.2590343 215.047557 64.1280292L216.14507 64.1280292 216.14507 70.7748558 198.090097 70.7748558 198.090097 69.6772548 198.767286 69.6772548C200.480692 69.6131187 201.643881 69.1627088 201.643881 67.4193744L201.643881 50.7731552zM232.427968 47.4179654L240.050724 66.518846C241.019805 68.8714728 241.699914 69.5507319 244.348832 69.6775463L244.348832 70.7751473 233.656832 70.7751473 233.656832 69.6775463 234.269805 69.6775463C235.821211 69.6775463 237.077805 69.0667962 237.077805 68.0974674 237.077805 67.5173277 236.8224 66.8715943 236.629751 66.3555906L235.01267 62.3237656 226.258832 62.3237656 224.612562 66.2914546C224.384886 66.8395263 224.224346 67.3555299 224.224346 67.9371272 224.224346 69.2256787 225.581643 69.6775463 227.617589 69.6775463L227.617589 70.7751473 218.344184 70.7751473 218.344184 69.6775463C220.54067 69.6775463 221.737427 68.581403 222.382508 67.0319344L230.554022 47.4179654 232.427968 47.4179654zM226.938941 60.6431096L234.332562 60.6431096 230.685373 51.5474522 226.938941 60.6431096zM267.444924 54.0642089L266.347411 54.0642089C265.121465 49.4507865 261.471357 48.3211175 257.98033 48.3211175 251.843303 48.3211175 248.289519 53.3557971 248.289519 59.0959733 248.289519 64.5796052 251.328114 69.4189614 257.238924 69.4189614 260.694924 69.4189614 264.569789 67.7718312 264.569789 64.1918737 264.569789 62.0331127 263.570059 61.6789068 261.792438 61.6789068L261.307897 61.6789068 261.307897 60.5798482 270.998708 60.5798482 270.998708 61.6789068 270.060276 61.6789068C268.705897 61.6789068 267.412816 61.8071789 267.412816 63.7429213L267.412816 70.7760219 265.894978 70.7760219 265.022222 68.162478C262.825735 70.1623565 259.822168 71.3561616 256.754384 71.3561616 250.164924 71.3561616 244.738654 66.2281931 244.738654 59.0959733 244.738654 51.7392773 249.937249 46.8372426 257.657789 46.8372426 259.822168 46.8372426 261.437789 47.2249742 262.665195 47.6127057 263.924708 48.0310477 264.636924 48.447932 265.442546 48.447932 266.089086 48.447932 266.347411 47.8707076 266.347411 47.5791801L266.347411 47.4159247 267.444924 47.4159247 267.444924 54.0642089zM276.364265 51.158846C276.364265 48.9009657 275.555724 48.5802855 273.490589 48.5161494L272.811941 48.5161494 272.811941 47.4185484 290.964697 47.4185484 290.964697 53.9341877 289.867184 53.9341877C289.575292 50.2580261 289.187076 49.0962891 285.281562 49.0962891L279.531292 49.0962891 279.531292 57.9354024 282.178751 57.9354024C284.795562 57.9354024 285.119562 56.6760036 285.214427 54.2257152L286.314859 54.2257152 286.314859 63.3242879 285.214427 63.3242879C285.119562 60.8710841 284.795562 59.6116854 282.178751 59.6116854L279.531292 59.6116854 279.531292 69.096532 287.218265 69.096532C290.577941 69.096532 290.932589 66.8707197 291.062481 64.0647677L292.159995 64.0647677 292.159995 70.7757303 272.811941 70.7757303 272.811941 69.6766717 273.490589 69.6766717C275.555724 69.6139933 276.364265 69.2903978 276.364265 67.0325175L276.364265 51.158846zM295.425535 64.1281749L296.523049 64.1281749C297.233805 67.70959 300.916022 69.6774005 304.468346 69.6774005 307.279265 69.6774005 310.509049 68.1293896 310.509049 64.903638 310.509049 58.2568114 295.972832 62.2900941 295.972832 53.4189128 295.972832 48.8696265 300.041805 46.8376799 304.049481 46.8376799 307.505481 46.8376799 309.605643 48.2894868 310.573265 48.2894868 311.380346 48.2894868 311.670778 47.6437534 311.670778 47.4178196L312.769751 47.4178196 312.769751 54.0631886 311.670778 54.0631886C311.479589 49.9351594 308.311103 48.5154206 304.696022 48.5154206 302.175535 48.5154206 299.1384 49.6115639 299.1384 52.614297 299.1384 59.0978682 313.674616 55.0310598 313.674616 64.3220407 313.674616 69.1628545 309.215968 71.3565988 304.922238 71.3565988 301.43267 71.3565988 298.623211 69.5170604 297.331589 69.5170604 296.812022 69.5170604 296.523049 70.1307258 296.523049 70.6452718L296.523049 70.7750015 295.425535 70.7750015 295.425535 64.1281749zM320.458038 64.8355664C322.164146 64.8355664 323.546254 66.2144913 323.546254 67.9184695 323.546254 69.6195323 322.164146 70.999915 320.458038 70.999915 318.753389 70.999915 317.3742 69.6195323 317.3742 67.9184695 317.3742 66.2144913 318.753389 64.8355664 320.458038 64.8355664L320.458038 64.8355664zM320.458038 70.5772001C321.895605 70.5772001 323.057335 69.4183784 323.057335 67.9184695 323.057335 66.4171029 321.895605 65.2568236 320.458038 65.2568236 319.023389 65.2568236 317.8602 66.4171029 317.8602 67.9184695 317.8602 69.4183784 319.023389 70.5772001 320.458038 70.5772001L320.458038 70.5772001zM319.500632 66.815038C319.500632 66.5307987 319.451011 66.4826966 319.086146 66.4754084L319.086146 66.3442211 320.598146 66.3442211C321.108957 66.3442211 321.587659 66.5876465 321.587659 67.1211418 321.587659 67.5598907 321.294308 67.8864015 320.897335 68.0161312L321.384795 68.6895597C321.61247 68.9971212 321.872254 69.2901063 322.034254 69.4183784L322.034254 69.4912602 321.489876 69.4912602C321.222795 69.4912602 321.003876 68.8980018 320.458038 68.1035894L320.036254 68.1035894 320.036254 69.021901C320.036254 69.303225 320.085876 69.3542423 320.450741 69.3615305L320.450741 69.4912602 319.086146 69.4912602 319.086146 69.3615305C319.451011 69.3542423 319.500632 69.303225 319.500632 69.021901L319.500632 66.815038zM320.036254 67.9257577L320.417173 67.9257577C320.8302 67.9257577 321.003876 67.6079927 321.003876 67.1648709 321.003876 66.6867659 320.735335 66.5220528 320.402578 66.5220528L320.036254 66.5220528 320.036254 67.9257577z"/>
  </g>
</svg>
