<?xml version="1.0" standalone="no"?>
<!DOCTYPE svg PUBLIC "-//W3C//DTD SVG 20010904//EN"
 "http://www.w3.org/TR/2001/REC-SVG-20010904/DTD/svg10.dtd">
<svg version="1.0" xmlns="http://www.w3.org/2000/svg"
 width="16.000000pt" height="16.000000pt" viewBox="0 0 16.000000 16.000000"
 preserveAspectRatio="xMidYMid meet">
<metadata>
Created by potrace 1.11, written by Peter Selinger 2001-2013
</metadata>
<g transform="translate(0.000000,16.000000) scale(0.003200,-0.003200)"
fill="#000000" stroke="none">
<path d="M1818 4270 c-235 -40 -420 -173 -519 -374 -55 -113 -73 -205 -66
-335 9 -154 46 -272 129 -410 21 -34 38 -66 38 -70 0 -3 -27 -23 -60 -44 -118
-77 -259 -237 -330 -377 -146 -289 -160 -652 -36 -947 104 -246 287 -439 536
-567 266 -137 553 -196 945 -196 264 0 419 24 638 96 207 69 383 173 535 318
214 205 333 467 348 771 11 213 -23 396 -106 560 -27 56 -50 106 -50 112 0 14
8 17 139 43 365 73 580 275 636 594 27 157 17 260 -36 371 -75 158 -228 259
-436 286 -145 20 -271 -14 -363 -97 -117 -106 -122 -292 -9 -373 53 -39 110
-55 171 -48 128 16 203 107 196 243 -4 82 8 94 72 75 57 -17 123 -81 160 -154
60 -119 31 -270 -70 -361 -56 -51 -166 -101 -265 -121 -103 -21 -308 -21 -520
-1 -202 20 -309 20 -420 1 -343 -60 -586 -316 -602 -635 -13 -244 100 -455
297 -554 210 -105 448 -58 527 103 10 21 19 67 21 111 3 67 1 81 -25 130 -39
73 -97 110 -187 117 -91 8 -131 -2 -178 -45 -50 -45 -77 -102 -78 -163 0 -65
-21 -81 -59 -45 -61 59 -108 189 -95 265 21 126 82 231 168 288 138 94 365 95
551 3 102 -50 161 -102 224 -196 177 -264 125 -636 -121 -870 -220 -211 -557
-337 -938 -351 -479 -17 -864 101 -1101 337 -167 166 -237 354 -226 614 9 225
85 414 209 520 49 42 67 44 97 12 31 -33 153 -91 234 -112 122 -30 201 0 250
96 25 48 28 64 25 122 -4 79 -23 111 -89 148 -40 22 -55 25 -154 24 -89 0
-121 -5 -165 -22 -30 -12 -56 -22 -56 -22 -1 0 -13 24 -27 54 -82 173 -76 376
15 519 113 177 357 231 498 110 65 -56 83 -102 84 -213 l1 -95 27 -3 c14 -2
45 6 68 18 262 134 230 556 -53 695 -99 48 -267 67 -399 45z"/>
</g>
</svg>
